<svg xmlns="http://www.w3.org/2000/svg" width="505" height="431" viewBox="0 0 505 431">
  <g id="Grupo_1016385" data-name="Grupo 1016385" transform="translate(8479 10800)">
    <rect id="Rectángulo_347008" data-name="Rectángulo 347008" width="505" height="431" transform="translate(-8479 -10800)" fill="#fff"/>
    <path id="Trazado_606978" data-name="Trazado 606978" d="M-8134.289-2053.633h356.349v134.374h-496.468v133.285h363.971" transform="translate(-201.383 -8673.406)" fill="none" stroke="#a3bfe4" stroke-width="4" stroke-dasharray="5"/>
    <path id="Trazado_606983" data-name="Trazado 606983" d="M-92,0l37.027,53.591L-92,107.184H103.034L144.952,53.31,103.034,0Z" transform="translate(-8379 -10780.632)" fill="#fffbe5"/>
    <path id="Trazado_606996" data-name="Trazado 606996" d="M-92,0l37.027,53.591L-92,107.184H103.034L144.952,53.31,103.034,0Z" transform="translate(-8371 -10514.632)" fill="#fffbe5"/>
    <path id="Trazado_606990" data-name="Trazado 606990" d="M-92,0l37.027,53.591L-92,107.184H103.034L144.952,53.31,103.034,0Z" transform="translate(-8077.096 -10537.816) rotate(180)" fill="#fffbe5"/>
    <path id="Trazado_606984" data-name="Trazado 606984" d="M-92,0l37.027,53.591L-92,107.184H104.034L145.952,53.31,104.034,0Z" transform="translate(-8139.048 -10780.632)" fill="#e3ecf7"/>
    <path id="Trazado_606994" data-name="Trazado 606994" d="M-92,0l37.027,53.591L-92,107.184H104.034L145.952,53.31,104.034,0Z" transform="translate(-8131.048 -10514.632)" fill="#e3ecf7"/>
    <path id="Trazado_606992" data-name="Trazado 606992" d="M-92,0l37.027,53.591L-92,107.184H104.034L145.952,53.31,104.034,0Z" transform="translate(-8317.048 -10537.816) rotate(180)" fill="#e3ecf7"/>
    <path id="Trazado_608879" data-name="Trazado 608879" d="M22.79,11.269V16H21.2V3.914h4.458a4.478,4.478,0,0,1,3.109,1.013,3.433,3.433,0,0,1,1.125,2.681,3.388,3.388,0,0,1-1.1,2.71,4.678,4.678,0,0,1-3.15.95Zm0-1.3h2.864a2.863,2.863,0,0,0,1.959-.6,2.2,2.2,0,0,0,.681-1.742,2.277,2.277,0,0,0-.681-1.73,2.682,2.682,0,0,0-1.868-.674H22.79Zm8.375,1.461a5.3,5.3,0,0,1,.519-2.374,3.87,3.87,0,0,1,1.444-1.627,3.932,3.932,0,0,1,2.113-.573,3.788,3.788,0,0,1,2.968,1.27A4.886,4.886,0,0,1,39.342,11.5v.108a5.351,5.351,0,0,1-.5,2.353A3.813,3.813,0,0,1,37.4,15.585a3.977,3.977,0,0,1-2.146.581A3.778,3.778,0,0,1,32.3,14.9a4.861,4.861,0,0,1-1.133-3.362Zm1.544.183a3.842,3.842,0,0,0,.693,2.4A2.349,2.349,0,0,0,37.117,14a4.2,4.2,0,0,0,.689-2.569,3.836,3.836,0,0,0-.7-2.395,2.23,2.23,0,0,0-1.864-.917,2.205,2.205,0,0,0-1.834.9A4.17,4.17,0,0,0,32.709,11.609ZM46.5,13.618a1.13,1.13,0,0,0-.469-.967,4.514,4.514,0,0,0-1.635-.594,7.731,7.731,0,0,1-1.851-.6,2.633,2.633,0,0,1-1.013-.83A1.986,1.986,0,0,1,41.2,9.484a2.33,2.33,0,0,1,.934-1.868,3.647,3.647,0,0,1,2.386-.764A3.753,3.753,0,0,1,47,7.641a2.5,2.5,0,0,1,.95,2.017H46.406a1.386,1.386,0,0,0-.535-1.087,2.006,2.006,0,0,0-1.349-.457,2.1,2.1,0,0,0-1.312.365,1.15,1.15,0,0,0-.473.955.932.932,0,0,0,.44.838,5.413,5.413,0,0,0,1.59.54,8.283,8.283,0,0,1,1.864.614,2.718,2.718,0,0,1,1.058.859,2.112,2.112,0,0,1,.344,1.224,2.3,2.3,0,0,1-.963,1.93,4.039,4.039,0,0,1-2.5.726,4.523,4.523,0,0,1-1.909-.382,3.105,3.105,0,0,1-1.3-1.067,2.571,2.571,0,0,1-.469-1.482H42.43a1.59,1.59,0,0,0,.618,1.224,2.4,2.4,0,0,0,1.523.452,2.476,2.476,0,0,0,1.4-.353A1.084,1.084,0,0,0,46.5,13.618Zm3.171-2.183a5.279,5.279,0,0,1,.971-3.341,3.348,3.348,0,0,1,5.138-.079l.075-1h1.4v8.766a3.654,3.654,0,0,1-1.033,2.748,3.814,3.814,0,0,1-2.777,1,4.619,4.619,0,0,1-1.9-.415,3.272,3.272,0,0,1-1.419-1.137l.8-.921a3,3,0,0,0,2.416,1.22,2.353,2.353,0,0,0,1.747-.631,2.411,2.411,0,0,0,.627-1.776V15.1A3.156,3.156,0,0,1,53.2,16.166a3.068,3.068,0,0,1-2.552-1.27A5.55,5.55,0,0,1,49.668,11.435Zm1.544.174A4.027,4.027,0,0,0,51.834,14a2.023,2.023,0,0,0,1.743.867,2.249,2.249,0,0,0,2.133-1.32v-4.1a2.276,2.276,0,0,0-2.117-1.287,2.041,2.041,0,0,0-1.751.872A4.386,4.386,0,0,0,51.212,11.609Zm13.9,3.5a3.262,3.262,0,0,1-2.631,1.054,2.792,2.792,0,0,1-2.187-.834,3.611,3.611,0,0,1-.76-2.469V7.019h1.536v5.8q0,2.042,1.66,2.042a2.3,2.3,0,0,0,2.341-1.312V7.019H66.61V16H65.149Zm7.554,1.054a3.924,3.924,0,0,1-2.972-1.2,4.452,4.452,0,0,1-1.146-3.208v-.282a5.39,5.39,0,0,1,.51-2.386A3.982,3.982,0,0,1,70.49,7.446a3.59,3.59,0,0,1,1.988-.594A3.364,3.364,0,0,1,75.2,8.006a5,5,0,0,1,.971,3.3v.639H70.088a3.193,3.193,0,0,0,.776,2.146,2.44,2.44,0,0,0,1.888.818,2.675,2.675,0,0,0,1.378-.332,3.462,3.462,0,0,0,.988-.88l.938.73A3.772,3.772,0,0,1,72.669,16.166Zm-.191-8.052a2.048,2.048,0,0,0-1.561.677,3.288,3.288,0,0,0-.78,1.9h4.5v-.116a2.925,2.925,0,0,0-.631-1.814A1.928,1.928,0,0,0,72.479,8.114ZM82.29,8.4a4.6,4.6,0,0,0-.755-.058,2.024,2.024,0,0,0-2.05,1.287V16H77.949V7.019h1.494l.025,1.038a2.391,2.391,0,0,1,2.142-1.2,1.569,1.569,0,0,1,.681.116Zm5.752,0a4.6,4.6,0,0,0-.755-.058,2.024,2.024,0,0,0-2.05,1.287V16H83.7V7.019H85.2l.025,1.038a2.391,2.391,0,0,1,2.142-1.2,1.569,1.569,0,0,1,.681.116ZM94.667,16a3.226,3.226,0,0,1-.216-.946,3.426,3.426,0,0,1-2.557,1.112,3.17,3.17,0,0,1-2.179-.751,2.43,2.43,0,0,1-.851-1.905,2.539,2.539,0,0,1,1.067-2.179,5.029,5.029,0,0,1,3-.776h1.494V9.849a1.725,1.725,0,0,0-.481-1.282,1.935,1.935,0,0,0-1.419-.477,2.239,2.239,0,0,0-1.378.415,1.223,1.223,0,0,0-.556,1H89.047a2.119,2.119,0,0,1,.477-1.3,3.258,3.258,0,0,1,1.295-.992,4.356,4.356,0,0,1,1.8-.365,3.551,3.551,0,0,1,2.432.776,2.8,2.8,0,0,1,.913,2.137V13.9a5.054,5.054,0,0,0,.315,1.967V16Zm-2.548-1.17a2.7,2.7,0,0,0,1.37-.374,2.259,2.259,0,0,0,.938-.971V11.642h-1.2q-2.822,0-2.822,1.652a1.4,1.4,0,0,0,.481,1.129A1.85,1.85,0,0,0,92.118,14.83Zm-78.9,20.265a12.834,12.834,0,0,1,.5-3.6,10.465,10.465,0,0,1,1.5-3.138,6.374,6.374,0,0,1,2.067-1.992l.315,1.013a6.611,6.611,0,0,0-1.988,2.839,12.307,12.307,0,0,0-.851,4.275l-.008.706a12.371,12.371,0,0,0,1.17,5.562A6.642,6.642,0,0,0,17.6,42.963l-.315.938a6.579,6.579,0,0,1-2.108-2.059A11.538,11.538,0,0,1,13.215,35.094ZM23.973,40H22.429V29.765l-3.1,1.137V29.508l4.4-1.652h.241Zm10.384-5.312a3.757,3.757,0,0,1-1.15.921,3.119,3.119,0,0,1-1.465.349,3.22,3.22,0,0,1-1.822-.515,3.346,3.346,0,0,1-1.2-1.448,4.938,4.938,0,0,1-.423-2.063,5.031,5.031,0,0,1,.461-2.183,3.384,3.384,0,0,1,1.307-1.486,3.728,3.728,0,0,1,1.976-.515,3.375,3.375,0,0,1,2.826,1.341A5.847,5.847,0,0,1,35.9,32.745v.448q0,3.528-1.395,5.151A5.358,5.358,0,0,1,30.3,40.008H30v-1.3h.324a4.228,4.228,0,0,0,2.922-.99A4.248,4.248,0,0,0,34.357,34.688Zm-2.366,0a2.371,2.371,0,0,0,1.424-.473,2.789,2.789,0,0,0,.95-1.17V32.43a4.226,4.226,0,0,0-.656-2.457,2,2,0,0,0-3.287-.17,3.2,3.2,0,0,0-.614,2.046,3.332,3.332,0,0,0,.594,2.038A1.879,1.879,0,0,0,31.991,34.688ZM45.937,40H38.018V38.9L42.2,34.248a9.939,9.939,0,0,0,1.282-1.714,2.861,2.861,0,0,0,.353-1.365,2.169,2.169,0,0,0-.573-1.552,2,2,0,0,0-1.527-.606,2.372,2.372,0,0,0-1.781.652,2.489,2.489,0,0,0-.635,1.814H37.785a3.565,3.565,0,0,1,1.075-2.7,3.985,3.985,0,0,1,2.876-1.029,3.829,3.829,0,0,1,2.665.884,3.015,3.015,0,0,1,.979,2.353q0,1.785-2.274,4.25l-3.237,3.511h6.068Zm2.333-6.06.614-6.026h6.192v1.419H50.187l-.365,3.3a3.9,3.9,0,0,1,2.017-.523A3.334,3.334,0,0,1,54.462,33.2a4.278,4.278,0,0,1,.971,2.951,4.129,4.129,0,0,1-1.009,2.943,3.676,3.676,0,0,1-2.818,1.075,3.82,3.82,0,0,1-2.615-.888,3.545,3.545,0,0,1-1.154-2.457H49.29a2.439,2.439,0,0,0,.739,1.565,2.3,2.3,0,0,0,1.577.527,2.072,2.072,0,0,0,1.681-.73,3.054,3.054,0,0,0,.61-2.017,2.8,2.8,0,0,0-.66-1.947,2.245,2.245,0,0,0-1.756-.735,2.532,2.532,0,0,0-1.577.44l-.407.332Zm12.194,1.552H56.412V34.239h4.051ZM66.846,40H65.3V29.765l-3.1,1.137V29.508l4.4-1.652h.241Zm10.384-5.312a3.757,3.757,0,0,1-1.15.921,3.119,3.119,0,0,1-1.465.349,3.22,3.22,0,0,1-1.822-.515,3.346,3.346,0,0,1-1.2-1.448,4.938,4.938,0,0,1-.423-2.063,5.031,5.031,0,0,1,.461-2.183,3.384,3.384,0,0,1,1.307-1.486,3.728,3.728,0,0,1,1.976-.515,3.375,3.375,0,0,1,2.826,1.341,5.847,5.847,0,0,1,1.033,3.656v.448q0,3.528-1.395,5.151a5.358,5.358,0,0,1-4.208,1.664h-.3v-1.3H73.2a4.228,4.228,0,0,0,2.922-.99A4.248,4.248,0,0,0,77.231,34.688Zm-2.366,0a2.371,2.371,0,0,0,1.424-.473,2.789,2.789,0,0,0,.95-1.17V32.43a4.226,4.226,0,0,0-.656-2.457A2,2,0,0,0,73.3,29.8a3.2,3.2,0,0,0-.614,2.046,3.332,3.332,0,0,0,.594,2.038A1.879,1.879,0,0,0,74.865,34.688Zm12.509,1.253h1.677v1.253H87.374V40H85.83V37.194h-5.5v-.9l5.412-8.375h1.635Zm-5.3,0h3.76V30.014l-.183.332Zm14.85,0H98.6v1.253H96.92V40H95.376V37.194h-5.5v-.9l5.412-8.375H96.92Zm-5.3,0h3.76V30.014l-.183.332Zm12.069-.764a12.84,12.84,0,0,1-.486,3.549,10.493,10.493,0,0,1-1.486,3.134,6.51,6.51,0,0,1-2.1,2.042l-.324-.938a6.673,6.673,0,0,0,2.054-3.042,13.161,13.161,0,0,0,.793-4.578v-.266a13.665,13.665,0,0,0-.365-3.241,10.94,10.94,0,0,0-1.017-2.685A6.2,6.2,0,0,0,99.294,27.3l.324-.938a6.485,6.485,0,0,1,2.088,2.025,10.516,10.516,0,0,1,1.486,3.129A13.136,13.136,0,0,1,103.685,35.177Z" transform="translate(-8407.523 -10752.835)" fill="#12263f"/>
    <path id="Trazado_606988" data-name="Trazado 606988" d="M-7669.983-8722.978l6.526,6.432-6.526,6.431" transform="translate(-762.517 -2010.097)" fill="none" stroke="#627289" stroke-linecap="round" stroke-width="2"/>
    <path id="Trazado_606995" data-name="Trazado 606995" d="M-7669.983-8722.978l6.526,6.432-6.526,6.431" transform="translate(-754.517 -1744.097)" fill="none" stroke="#627289" stroke-linecap="round" stroke-width="2"/>
    <path id="Trazado_606989" data-name="Trazado 606989" d="M-7669.983-8722.978l6.526,6.432-6.526,6.431" transform="translate(-15693.579 -19308.352) rotate(180)" fill="none" stroke="#627289" stroke-linecap="round" stroke-width="2"/>
    <path id="Trazado_606986" data-name="Trazado 606986" d="M-7669.983-8722.978l6.526,6.432-6.526,6.431" transform="translate(-522.565 -2010.097)" fill="none" stroke="#627289" stroke-linecap="round" stroke-width="2"/>
    <path id="Trazado_606993" data-name="Trazado 606993" d="M-7669.983-8722.978l6.526,6.432-6.526,6.431" transform="translate(-514.565 -1744.097)" fill="none" stroke="#627289" stroke-linecap="round" stroke-width="2"/>
    <path id="Trazado_606991" data-name="Trazado 606991" d="M-7669.983-8722.978l6.526,6.432-6.526,6.431" transform="translate(-15933.531 -19308.352) rotate(180)" fill="none" stroke="#627289" stroke-linecap="round" stroke-width="2"/>
    <g id="Grupo_1016383" data-name="Grupo 1016383" transform="translate(-8174.571 -10752.835)">
      <path id="Trazado_608880" data-name="Trazado 608880" d="M12.439,16V3.914H16.39a4.587,4.587,0,0,1,2.959.813,2.932,2.932,0,0,1,.992,2.407,2.455,2.455,0,0,1-.481,1.5,3.121,3.121,0,0,1-1.312,1.009A2.8,2.8,0,0,1,20.1,10.683a2.99,2.99,0,0,1,.569,1.83,3.232,3.232,0,0,1-1.054,2.557,4.36,4.36,0,0,1-2.98.93Zm1.594-5.653V14.7h2.631a2.534,2.534,0,0,0,1.756-.577,2.026,2.026,0,0,0,.643-1.59q0-2.183-2.374-2.183Zm0-1.278H16.44a2.523,2.523,0,0,0,1.673-.524,1.757,1.757,0,0,0,.627-1.422,1.728,1.728,0,0,0-.581-1.452,2.853,2.853,0,0,0-1.768-.453H14.033ZM28.327,16a3.226,3.226,0,0,1-.216-.946,3.426,3.426,0,0,1-2.557,1.112,3.17,3.17,0,0,1-2.179-.751,2.43,2.43,0,0,1-.851-1.905,2.539,2.539,0,0,1,1.067-2.179,5.029,5.029,0,0,1,3-.776h1.494V9.849A1.725,1.725,0,0,0,27.6,8.567a1.935,1.935,0,0,0-1.419-.477,2.239,2.239,0,0,0-1.378.415,1.223,1.223,0,0,0-.556,1H22.707a2.119,2.119,0,0,1,.477-1.3,3.258,3.258,0,0,1,1.295-.992,4.356,4.356,0,0,1,1.8-.365,3.551,3.551,0,0,1,2.432.776,2.8,2.8,0,0,1,.913,2.137V13.9a5.054,5.054,0,0,0,.315,1.967V16Zm-2.548-1.17a2.7,2.7,0,0,0,1.37-.374,2.259,2.259,0,0,0,.938-.971V11.642h-1.2q-2.822,0-2.822,1.652a1.4,1.4,0,0,0,.481,1.129A1.85,1.85,0,0,0,25.779,14.83Zm13.854-3.221a5.34,5.34,0,0,1-.946,3.308,3.024,3.024,0,0,1-2.54,1.249,3.131,3.131,0,0,1-2.631-1.2L33.44,16H32.029V3.25h1.536V8.006A3.113,3.113,0,0,1,36.13,6.853,3.042,3.042,0,0,1,38.7,8.089a5.5,5.5,0,0,1,.934,3.387ZM38.1,11.435a4.15,4.15,0,0,0-.606-2.424,2.006,2.006,0,0,0-1.743-.855,2.255,2.255,0,0,0-2.183,1.411v3.885a2.318,2.318,0,0,0,2.2,1.411,2,2,0,0,0,1.718-.855A4.413,4.413,0,0,0,38.1,11.435Zm6.317,2.316,2.092-6.732h1.644L44.538,17.386q-.838,2.241-2.665,2.241l-.291-.025-.573-.108V18.25l.415.033a2.043,2.043,0,0,0,1.216-.315,2.283,2.283,0,0,0,.718-1.154l.34-.913L40.5,7.019h1.677ZM53.968,16V3.914h3.951a4.587,4.587,0,0,1,2.959.813,2.932,2.932,0,0,1,.992,2.407,2.455,2.455,0,0,1-.481,1.5,3.121,3.121,0,0,1-1.312,1.009,2.8,2.8,0,0,1,1.548,1.042,2.99,2.99,0,0,1,.569,1.83A3.232,3.232,0,0,1,61.14,15.07a4.36,4.36,0,0,1-2.98.93Zm1.594-5.653V14.7h2.631a2.534,2.534,0,0,0,1.756-.577,2.026,2.026,0,0,0,.643-1.59q0-2.183-2.374-2.183Zm0-1.278h2.407a2.523,2.523,0,0,0,1.673-.524,1.757,1.757,0,0,0,.627-1.422,1.728,1.728,0,0,0-.581-1.452,2.853,2.853,0,0,0-1.768-.453H55.562ZM63.9,11.426a5.3,5.3,0,0,1,.519-2.374,3.87,3.87,0,0,1,1.444-1.627,3.932,3.932,0,0,1,2.113-.573,3.788,3.788,0,0,1,2.968,1.27A4.886,4.886,0,0,1,72.08,11.5v.108a5.351,5.351,0,0,1-.5,2.353,3.813,3.813,0,0,1-1.436,1.623A3.977,3.977,0,0,1,68,16.166a3.778,3.778,0,0,1-2.959-1.27A4.861,4.861,0,0,1,63.9,11.534Zm1.544.183a3.842,3.842,0,0,0,.693,2.4A2.349,2.349,0,0,0,69.856,14a4.2,4.2,0,0,0,.689-2.569,3.836,3.836,0,0,0-.7-2.395,2.23,2.23,0,0,0-1.864-.917,2.205,2.205,0,0,0-1.834.9A4.17,4.17,0,0,0,65.448,11.609Zm8.151-.183a5.3,5.3,0,0,1,.519-2.374,3.87,3.87,0,0,1,1.444-1.627,3.932,3.932,0,0,1,2.113-.573,3.788,3.788,0,0,1,2.968,1.27A4.886,4.886,0,0,1,81.776,11.5v.108a5.351,5.351,0,0,1-.5,2.353,3.813,3.813,0,0,1-1.436,1.623,3.977,3.977,0,0,1-2.146.581,3.778,3.778,0,0,1-2.959-1.27A4.861,4.861,0,0,1,73.6,11.534Zm1.544.183a3.842,3.842,0,0,0,.693,2.4A2.349,2.349,0,0,0,79.551,14a4.2,4.2,0,0,0,.689-2.569,3.836,3.836,0,0,0-.7-2.395,2.23,2.23,0,0,0-1.864-.917,2.205,2.205,0,0,0-1.834.9A4.17,4.17,0,0,0,75.143,11.609Zm10-4.59.042,1a3.317,3.317,0,0,1,2.665-1.162A2.568,2.568,0,0,1,90.417,8.3a3.4,3.4,0,0,1,1.166-1.046,3.445,3.445,0,0,1,1.7-.4q2.955,0,3,3.129V16H94.75V10.073a2.062,2.062,0,0,0-.44-1.44,1.937,1.937,0,0,0-1.478-.477,2.036,2.036,0,0,0-1.419.51,2.071,2.071,0,0,0-.656,1.374V16H89.213V10.115A1.713,1.713,0,0,0,87.3,8.156a2.055,2.055,0,0,0-2.067,1.287V16H83.693V7.019Zm17.183,9.147a3.924,3.924,0,0,1-2.972-1.2,4.452,4.452,0,0,1-1.146-3.208v-.282a5.39,5.39,0,0,1,.51-2.386,3.982,3.982,0,0,1,1.428-1.644,3.59,3.59,0,0,1,1.988-.594,3.364,3.364,0,0,1,2.723,1.154,5,5,0,0,1,.971,3.3v.639H99.747a3.193,3.193,0,0,0,.776,2.146,2.44,2.44,0,0,0,1.888.818,2.675,2.675,0,0,0,1.378-.332,3.462,3.462,0,0,0,.988-.88l.938.73A3.772,3.772,0,0,1,102.328,16.166Zm-.191-8.052a2.048,2.048,0,0,0-1.561.677,3.288,3.288,0,0,0-.78,1.9h4.5v-.116a2.925,2.925,0,0,0-.631-1.814A1.928,1.928,0,0,0,102.137,8.114Zm9.812.282a4.6,4.6,0,0,0-.755-.058,2.024,2.024,0,0,0-2.05,1.287V16h-1.536V7.019H109.1l.025,1.038a2.391,2.391,0,0,1,2.142-1.2,1.569,1.569,0,0,1,.681.116Zm6.641,5.221a1.131,1.131,0,0,0-.469-.967,4.514,4.514,0,0,0-1.635-.594,7.731,7.731,0,0,1-1.851-.6,2.633,2.633,0,0,1-1.013-.83,1.986,1.986,0,0,1-.328-1.146,2.33,2.33,0,0,1,.934-1.868,3.647,3.647,0,0,1,2.386-.764,3.753,3.753,0,0,1,2.478.789,2.5,2.5,0,0,1,.95,2.017H118.5a1.386,1.386,0,0,0-.535-1.087,2.006,2.006,0,0,0-1.349-.457,2.1,2.1,0,0,0-1.312.365,1.15,1.15,0,0,0-.473.955.932.932,0,0,0,.44.838,5.413,5.413,0,0,0,1.59.54,8.283,8.283,0,0,1,1.864.614,2.718,2.718,0,0,1,1.058.859,2.112,2.112,0,0,1,.344,1.224,2.3,2.3,0,0,1-.963,1.93,4.039,4.039,0,0,1-2.5.726,4.523,4.523,0,0,1-1.909-.382,3.105,3.105,0,0,1-1.3-1.067,2.571,2.571,0,0,1-.469-1.482h1.536a1.59,1.59,0,0,0,.618,1.224,2.4,2.4,0,0,0,1.523.452,2.476,2.476,0,0,0,1.4-.353A1.084,1.084,0,0,0,118.59,13.618ZM16.507,35.094a12.834,12.834,0,0,1,.5-3.6,10.465,10.465,0,0,1,1.5-3.138,6.374,6.374,0,0,1,2.067-1.992l.315,1.013A6.611,6.611,0,0,0,18.9,30.213a12.307,12.307,0,0,0-.851,4.275l-.008.706a12.371,12.371,0,0,0,1.17,5.562,6.642,6.642,0,0,0,1.677,2.208l-.315.938a6.579,6.579,0,0,1-2.108-2.059A11.538,11.538,0,0,1,16.507,35.094ZM27.264,40H25.72V29.765l-3.1,1.137V29.508l4.4-1.652h.241Zm10.384-5.312a3.757,3.757,0,0,1-1.15.921,3.119,3.119,0,0,1-1.465.349,3.22,3.22,0,0,1-1.822-.515,3.346,3.346,0,0,1-1.2-1.448,4.938,4.938,0,0,1-.423-2.063,5.031,5.031,0,0,1,.461-2.183,3.384,3.384,0,0,1,1.307-1.486,3.728,3.728,0,0,1,1.976-.515,3.375,3.375,0,0,1,2.826,1.341,5.847,5.847,0,0,1,1.033,3.656v.448q0,3.528-1.395,5.151a5.358,5.358,0,0,1-4.208,1.664h-.3v-1.3h.324a4.228,4.228,0,0,0,2.922-.99A4.248,4.248,0,0,0,37.649,34.688Zm-2.366,0a2.371,2.371,0,0,0,1.424-.473,2.789,2.789,0,0,0,.95-1.17V32.43A4.226,4.226,0,0,0,37,29.973a2,2,0,0,0-3.287-.17,3.2,3.2,0,0,0-.614,2.046,3.332,3.332,0,0,0,.594,2.038A1.879,1.879,0,0,0,35.283,34.688Zm12.509,1.253h1.677v1.253H47.792V40H46.248V37.194h-5.5v-.9l5.412-8.375h1.635Zm-5.3,0h3.76V30.014l-.183.332Zm9.073-2,.614-6.026h6.192v1.419H53.478l-.365,3.3a3.9,3.9,0,0,1,2.017-.523A3.334,3.334,0,0,1,57.753,33.2a4.278,4.278,0,0,1,.971,2.951,4.129,4.129,0,0,1-1.009,2.943A3.676,3.676,0,0,1,54.9,40.166a3.82,3.82,0,0,1-2.615-.888,3.545,3.545,0,0,1-1.154-2.457h1.453a2.439,2.439,0,0,0,.739,1.565,2.3,2.3,0,0,0,1.577.527,2.072,2.072,0,0,0,1.681-.73,3.054,3.054,0,0,0,.61-2.017,2.8,2.8,0,0,0-.66-1.947,2.245,2.245,0,0,0-1.756-.735,2.532,2.532,0,0,0-1.577.44l-.407.332Zm16.4,1.552H63.912V34.239h4.051ZM78.555,40H77.011V29.765l-3.1,1.137V29.508l4.4-1.652h.241Zm10.384-5.312a3.757,3.757,0,0,1-1.15.921,3.119,3.119,0,0,1-1.465.349,3.22,3.22,0,0,1-1.822-.515,3.346,3.346,0,0,1-1.2-1.448,4.938,4.938,0,0,1-.423-2.063,5.031,5.031,0,0,1,.461-2.183,3.384,3.384,0,0,1,1.307-1.486,3.728,3.728,0,0,1,1.976-.515,3.375,3.375,0,0,1,2.826,1.341,5.847,5.847,0,0,1,1.033,3.656v.448q0,3.528-1.395,5.151a5.358,5.358,0,0,1-4.208,1.664h-.3v-1.3h.324a4.228,4.228,0,0,0,2.922-.99A4.248,4.248,0,0,0,88.939,34.688Zm-2.366,0A2.371,2.371,0,0,0,88,34.214a2.789,2.789,0,0,0,.95-1.17V32.43a4.226,4.226,0,0,0-.656-2.457A2,2,0,0,0,85,29.8a3.2,3.2,0,0,0-.614,2.046,3.332,3.332,0,0,0,.594,2.038A1.879,1.879,0,0,0,86.573,34.688Zm6.732-.747.614-6.026h6.192v1.419H95.223l-.365,3.3a3.9,3.9,0,0,1,2.017-.523A3.334,3.334,0,0,1,99.5,33.2a4.278,4.278,0,0,1,.971,2.951,4.129,4.129,0,0,1-1.009,2.943,3.676,3.676,0,0,1-2.818,1.075,3.82,3.82,0,0,1-2.615-.888,3.545,3.545,0,0,1-1.154-2.457h1.453a2.439,2.439,0,0,0,.739,1.565,2.3,2.3,0,0,0,1.577.527,2.072,2.072,0,0,0,1.681-.73,3.054,3.054,0,0,0,.61-2.017,2.8,2.8,0,0,0-.66-1.947,2.245,2.245,0,0,0-1.756-.735,2.532,2.532,0,0,0-1.577.44l-.407.332Zm14.726.747a3.757,3.757,0,0,1-1.15.921,3.119,3.119,0,0,1-1.465.349,3.22,3.22,0,0,1-1.822-.515,3.346,3.346,0,0,1-1.2-1.448,4.938,4.938,0,0,1-.423-2.063,5.031,5.031,0,0,1,.461-2.183,3.384,3.384,0,0,1,1.307-1.486,3.728,3.728,0,0,1,1.976-.515,3.375,3.375,0,0,1,2.826,1.341,5.847,5.847,0,0,1,1.033,3.656v.448q0,3.528-1.395,5.151a5.358,5.358,0,0,1-4.208,1.664h-.3v-1.3H104a4.228,4.228,0,0,0,2.922-.99A4.248,4.248,0,0,0,108.031,34.688Zm-2.366,0a2.371,2.371,0,0,0,1.424-.473,2.789,2.789,0,0,0,.95-1.17V32.43a4.226,4.226,0,0,0-.656-2.457,2,2,0,0,0-3.287-.17,3.2,3.2,0,0,0-.614,2.046,3.332,3.332,0,0,0,.594,2.038A1.879,1.879,0,0,0,105.665,34.688Zm9.729.49a12.84,12.84,0,0,1-.486,3.549,10.493,10.493,0,0,1-1.486,3.134,6.51,6.51,0,0,1-2.1,2.042L111,42.963a6.673,6.673,0,0,0,2.054-3.042,13.161,13.161,0,0,0,.793-4.578v-.266a13.665,13.665,0,0,0-.365-3.241,10.94,10.94,0,0,0-1.017-2.685A6.2,6.2,0,0,0,111,27.3l.324-.938a6.485,6.485,0,0,1,2.088,2.025,10.516,10.516,0,0,1,1.486,3.129A13.136,13.136,0,0,1,115.394,35.177Z" fill="#12263f"/>
    </g>
    <path id="Trazado_608881" data-name="Trazado 608881" d="M25.523,14.415a3.682,3.682,0,0,1-1.714,1.316,6.924,6.924,0,0,1-2.561.436,4.966,4.966,0,0,1-2.623-.693A4.618,4.618,0,0,1,16.853,13.5a6.809,6.809,0,0,1-.643-2.963V9.484A6.356,6.356,0,0,1,17.484,5.25a4.44,4.44,0,0,1,3.582-1.5,4.586,4.586,0,0,1,3.046.967,4.213,4.213,0,0,1,1.411,2.743H23.93a2.635,2.635,0,0,0-2.855-2.407,2.821,2.821,0,0,0-2.428,1.126,5.5,5.5,0,0,0-.834,3.261v.989a5.151,5.151,0,0,0,.93,3.236,3.014,3.014,0,0,0,2.515,1.2,5.555,5.555,0,0,0,1.569-.2,2.426,2.426,0,0,0,1.112-.671V11.285h-2.8v-1.3h4.383Zm6.143,1.751a3.924,3.924,0,0,1-2.972-1.2,4.452,4.452,0,0,1-1.146-3.208v-.282a5.39,5.39,0,0,1,.51-2.386,3.982,3.982,0,0,1,1.428-1.644,3.59,3.59,0,0,1,1.988-.594A3.364,3.364,0,0,1,34.2,8.006a5,5,0,0,1,.971,3.3v.639H29.084a3.193,3.193,0,0,0,.776,2.146,2.44,2.44,0,0,0,1.888.818,2.675,2.675,0,0,0,1.378-.332,3.462,3.462,0,0,0,.988-.88l.938.73A3.772,3.772,0,0,1,31.666,16.166Zm-.191-8.052a2.048,2.048,0,0,0-1.561.677,3.288,3.288,0,0,0-.78,1.9h4.5v-.116A2.925,2.925,0,0,0,33,8.758,1.928,1.928,0,0,0,31.475,8.114Zm6.923-1.1.05,1.129a3.273,3.273,0,0,1,2.689-1.295q2.847,0,2.872,3.212V16H42.474V10.057a2.068,2.068,0,0,0-.444-1.436,1.78,1.78,0,0,0-1.357-.465,2.216,2.216,0,0,0-1.312.4,2.706,2.706,0,0,0-.88,1.046V16H36.945V7.019Zm11.654,9.147a3.924,3.924,0,0,1-2.972-1.2,4.452,4.452,0,0,1-1.146-3.208v-.282a5.39,5.39,0,0,1,.51-2.386,3.982,3.982,0,0,1,1.428-1.644,3.59,3.59,0,0,1,1.988-.594,3.364,3.364,0,0,1,2.723,1.154,5,5,0,0,1,.971,3.3v.639H47.471a3.193,3.193,0,0,0,.776,2.146,2.44,2.44,0,0,0,1.888.818,2.675,2.675,0,0,0,1.378-.332,3.462,3.462,0,0,0,.988-.88l.938.73A3.772,3.772,0,0,1,50.052,16.166Zm-.191-8.052a2.048,2.048,0,0,0-1.561.677,3.288,3.288,0,0,0-.78,1.9h4.5v-.116a2.925,2.925,0,0,0-.631-1.814A1.928,1.928,0,0,0,49.861,8.114Zm9.812.282a4.6,4.6,0,0,0-.755-.058,2.024,2.024,0,0,0-2.05,1.287V16H55.332V7.019h1.494l.025,1.038a2.391,2.391,0,0,1,2.142-1.2,1.569,1.569,0,0,1,.681.116ZM66.3,16a3.226,3.226,0,0,1-.216-.946,3.426,3.426,0,0,1-2.557,1.112,3.17,3.17,0,0,1-2.179-.751,2.43,2.43,0,0,1-.851-1.905,2.539,2.539,0,0,1,1.067-2.179,5.029,5.029,0,0,1,3-.776h1.494V9.849a1.725,1.725,0,0,0-.481-1.282,1.935,1.935,0,0,0-1.419-.477,2.239,2.239,0,0,0-1.378.415,1.223,1.223,0,0,0-.556,1H60.677a2.119,2.119,0,0,1,.477-1.3,3.258,3.258,0,0,1,1.295-.992,4.356,4.356,0,0,1,1.8-.365,3.551,3.551,0,0,1,2.432.776,2.8,2.8,0,0,1,.913,2.137V13.9a5.054,5.054,0,0,0,.315,1.967V16Zm-2.548-1.17a2.7,2.7,0,0,0,1.37-.374,2.259,2.259,0,0,0,.938-.971V11.642h-1.2q-2.822,0-2.822,1.652a1.4,1.4,0,0,0,.481,1.129A1.85,1.85,0,0,0,63.749,14.83Zm9.853.083a2.212,2.212,0,0,0,1.436-.5,1.752,1.752,0,0,0,.681-1.245h1.453a2.785,2.785,0,0,1-.531,1.469,3.5,3.5,0,0,1-1.307,1.112,3.772,3.772,0,0,1-1.731.415,3.7,3.7,0,0,1-2.918-1.224A4.877,4.877,0,0,1,69.6,11.592v-.257A5.407,5.407,0,0,1,70.082,9a3.667,3.667,0,0,1,1.382-1.585,3.926,3.926,0,0,1,2.129-.564,3.6,3.6,0,0,1,2.511.9,3.234,3.234,0,0,1,1.067,2.349H75.718a2.116,2.116,0,0,0-.66-1.432,2.053,2.053,0,0,0-1.465-.56,2.149,2.149,0,0,0-1.814.843,3.957,3.957,0,0,0-.643,2.436v.291a3.878,3.878,0,0,0,.639,2.391A2.16,2.16,0,0,0,73.6,14.913ZM80.566,16H79.03V7.019h1.536ZM78.906,4.636a.917.917,0,0,1,.228-.631.857.857,0,0,1,.677-.257.87.87,0,0,1,.681.257.907.907,0,0,1,.232.631.877.877,0,0,1-.232.623.886.886,0,0,1-.681.249.872.872,0,0,1-.677-.249A.886.886,0,0,1,78.906,4.636Zm3.71,6.79a5.3,5.3,0,0,1,.519-2.374,3.87,3.87,0,0,1,1.444-1.627,3.932,3.932,0,0,1,2.113-.573,3.788,3.788,0,0,1,2.968,1.27A4.886,4.886,0,0,1,90.792,11.5v.108a5.351,5.351,0,0,1-.5,2.353,3.813,3.813,0,0,1-1.436,1.623,3.977,3.977,0,0,1-2.146.581,3.778,3.778,0,0,1-2.959-1.27,4.861,4.861,0,0,1-1.133-3.362Zm1.544.183a3.842,3.842,0,0,0,.693,2.4A2.349,2.349,0,0,0,88.568,14a4.2,4.2,0,0,0,.689-2.569,3.836,3.836,0,0,0-.7-2.395,2.23,2.23,0,0,0-1.864-.917,2.205,2.205,0,0,0-1.834.9A4.17,4.17,0,0,0,84.16,11.609ZM87.389,3.25h1.859L87.024,5.69l-1.237,0Zm6.782,3.769.05,1.129A3.273,3.273,0,0,1,96.91,6.853q2.847,0,2.872,3.212V16H98.247V10.057A2.068,2.068,0,0,0,97.8,8.621a1.78,1.78,0,0,0-1.357-.465,2.216,2.216,0,0,0-1.312.4,2.706,2.706,0,0,0-.88,1.046V16H92.718V7.019ZM110.49,8.546l2.9-4.632h1.876l-3.818,5.993L115.354,16h-1.893l-2.972-4.715L107.5,16h-1.884l3.918-6.093-3.827-5.993h1.868ZM16.007,35.094a12.834,12.834,0,0,1,.5-3.6,10.465,10.465,0,0,1,1.5-3.138,6.374,6.374,0,0,1,2.067-1.992l.315,1.013A6.611,6.611,0,0,0,18.4,30.213a12.307,12.307,0,0,0-.851,4.275l-.008.706a12.371,12.371,0,0,0,1.17,5.562,6.642,6.642,0,0,0,1.677,2.208l-.315.938a6.579,6.579,0,0,1-2.108-2.059A11.538,11.538,0,0,1,16.007,35.094ZM26.764,40H25.22V29.765l-3.1,1.137V29.508l4.4-1.652h.241Zm10.384-5.312a3.757,3.757,0,0,1-1.15.921,3.119,3.119,0,0,1-1.465.349,3.22,3.22,0,0,1-1.822-.515,3.346,3.346,0,0,1-1.2-1.448,4.938,4.938,0,0,1-.423-2.063,5.031,5.031,0,0,1,.461-2.183,3.384,3.384,0,0,1,1.307-1.486,3.728,3.728,0,0,1,1.976-.515,3.375,3.375,0,0,1,2.826,1.341,5.847,5.847,0,0,1,1.033,3.656v.448q0,3.528-1.395,5.151a5.358,5.358,0,0,1-4.208,1.664h-.3v-1.3h.324a4.228,4.228,0,0,0,2.922-.99A4.248,4.248,0,0,0,37.149,34.688Zm-2.366,0a2.371,2.371,0,0,0,1.424-.473,2.789,2.789,0,0,0,.95-1.17V32.43a4.226,4.226,0,0,0-.656-2.457,2,2,0,0,0-3.287-.17,3.2,3.2,0,0,0-.614,2.046,3.332,3.332,0,0,0,.594,2.038A1.879,1.879,0,0,0,34.783,34.688Zm12.053-6.782v1.3h-.282A4.043,4.043,0,0,0,43.7,30.271a4.421,4.421,0,0,0-1.229,2.9,3.278,3.278,0,0,1,2.606-1.1A3.134,3.134,0,0,1,47.6,33.185a4.29,4.29,0,0,1,.942,2.872,4.277,4.277,0,0,1-1.017,2.988,3.5,3.5,0,0,1-2.727,1.121,3.45,3.45,0,0,1-2.814-1.332A5.28,5.28,0,0,1,40.9,35.4v-.589a7.956,7.956,0,0,1,1.424-5.1,5.228,5.228,0,0,1,4.238-1.805Zm-2.017,5.445a2.581,2.581,0,0,0-2.374,1.66v.564a3.965,3.965,0,0,0,.672,2.407,2.015,2.015,0,0,0,1.677.913,1.952,1.952,0,0,0,1.631-.764,3.668,3.668,0,0,0-.008-4.013A1.929,1.929,0,0,0,44.819,33.351Zm13.115,1.494a7.023,7.023,0,0,1-.921,4.009,3.829,3.829,0,0,1-5.744.029,6.666,6.666,0,0,1-.963-3.831V33a6.867,6.867,0,0,1,.921-3.959A3.9,3.9,0,0,1,56.988,29a6.627,6.627,0,0,1,.946,3.856Zm-1.536-2.1A5.627,5.627,0,0,0,55.85,29.9a1.886,1.886,0,0,0-1.735-.892A1.861,1.861,0,0,0,52.4,29.9a5.494,5.494,0,0,0-.556,2.731v2.457a5.717,5.717,0,0,0,.569,2.893,1.882,1.882,0,0,0,1.722.934,1.856,1.856,0,0,0,1.689-.88A5.51,5.51,0,0,0,56.4,35.26Zm11.065,2.748H63.412V34.239h4.051ZM78.055,40H76.511V29.765l-3.1,1.137V29.508l4.4-1.652h.241Zm10.384-5.312a3.757,3.757,0,0,1-1.15.921,3.119,3.119,0,0,1-1.465.349A3.22,3.22,0,0,1,84,35.443a3.346,3.346,0,0,1-1.2-1.448,4.938,4.938,0,0,1-.423-2.063,5.031,5.031,0,0,1,.461-2.183,3.384,3.384,0,0,1,1.307-1.486,3.728,3.728,0,0,1,1.976-.515,3.375,3.375,0,0,1,2.826,1.341,5.847,5.847,0,0,1,1.033,3.656v.448q0,3.528-1.395,5.151a5.358,5.358,0,0,1-4.208,1.664h-.3v-1.3h.324a4.228,4.228,0,0,0,2.922-.99A4.248,4.248,0,0,0,88.439,34.688Zm-2.366,0a2.371,2.371,0,0,0,1.424-.473,2.789,2.789,0,0,0,.95-1.17V32.43a4.226,4.226,0,0,0-.656-2.457A2,2,0,0,0,84.5,29.8a3.2,3.2,0,0,0-.614,2.046,3.332,3.332,0,0,0,.594,2.038A1.879,1.879,0,0,0,86.073,34.688Zm13.356-3.619a2.807,2.807,0,0,1-.477,1.61,3.248,3.248,0,0,1-1.291,1.1,3.464,3.464,0,0,1,1.5,1.187,2.987,2.987,0,0,1,.552,1.768,3.158,3.158,0,0,1-1.058,2.5,4.64,4.64,0,0,1-5.578,0,3.173,3.173,0,0,1-1.05-2.494,3.076,3.076,0,0,1,.535-1.768,3.332,3.332,0,0,1,1.482-1.2,3.167,3.167,0,0,1-1.27-1.1,2.846,2.846,0,0,1-.465-1.6,3.124,3.124,0,0,1,.979-2.424,4.159,4.159,0,0,1,5.159,0A3.117,3.117,0,0,1,99.429,31.068ZM98.176,36.7a2.228,2.228,0,0,0-.643-1.652,2.281,2.281,0,0,0-1.681-.639A2.161,2.161,0,0,0,93.561,36.7a2.145,2.145,0,0,0,.61,1.619,2.726,2.726,0,0,0,3.391,0A2.14,2.14,0,0,0,98.176,36.7ZM95.868,29.01a1.981,1.981,0,0,0-1.465.56,2.319,2.319,0,0,0-.008,3.013,2.193,2.193,0,0,0,2.947,0,2.272,2.272,0,0,0-.021-2.992A1.954,1.954,0,0,0,95.868,29.01Zm13.356,5.835a7.023,7.023,0,0,1-.921,4.009,3.829,3.829,0,0,1-5.744.029,6.666,6.666,0,0,1-.963-3.831V33a6.867,6.867,0,0,1,.921-3.959A3.9,3.9,0,0,1,108.278,29a6.627,6.627,0,0,1,.946,3.856Zm-1.536-2.1a5.627,5.627,0,0,0-.548-2.843,1.886,1.886,0,0,0-1.735-.892,1.861,1.861,0,0,0-1.718.888,5.494,5.494,0,0,0-.556,2.731v2.457a5.717,5.717,0,0,0,.569,2.893,1.882,1.882,0,0,0,1.722.934,1.856,1.856,0,0,0,1.689-.88,5.51,5.51,0,0,0,.577-2.772Zm7.205,2.432a12.84,12.84,0,0,1-.486,3.549,10.493,10.493,0,0,1-1.486,3.134,6.51,6.51,0,0,1-2.1,2.042l-.324-.938a6.673,6.673,0,0,0,2.054-3.042,13.161,13.161,0,0,0,.793-4.578v-.266a13.665,13.665,0,0,0-.365-3.241,10.94,10.94,0,0,0-1.017-2.685A6.2,6.2,0,0,0,110.5,27.3l.324-.938a6.485,6.485,0,0,1,2.088,2.025,10.516,10.516,0,0,1,1.486,3.129A13.136,13.136,0,0,1,114.894,35.177Z" transform="translate(-8174.571 -10614)" fill="#12263f"/>
    <path id="Trazado_608882" data-name="Trazado 608882" d="M15.943,14.7h5.728V16h-7.33V3.914h1.6Zm6.9-3.271a5.3,5.3,0,0,1,.519-2.374A3.87,3.87,0,0,1,24.8,7.425a3.932,3.932,0,0,1,2.113-.573,3.788,3.788,0,0,1,2.968,1.27A4.886,4.886,0,0,1,31.018,11.5v.108a5.351,5.351,0,0,1-.5,2.353,3.813,3.813,0,0,1-1.436,1.623,3.977,3.977,0,0,1-2.146.581,3.778,3.778,0,0,1-2.959-1.27,4.861,4.861,0,0,1-1.133-3.362Zm1.544.183a3.842,3.842,0,0,0,.693,2.4A2.349,2.349,0,0,0,28.793,14a4.2,4.2,0,0,0,.689-2.569,3.836,3.836,0,0,0-.7-2.395,2.23,2.23,0,0,0-1.864-.917,2.205,2.205,0,0,0-1.834.9A4.17,4.17,0,0,0,24.385,11.609Zm13.788,2.009a1.13,1.13,0,0,0-.469-.967,4.514,4.514,0,0,0-1.635-.594,7.731,7.731,0,0,1-1.851-.6,2.633,2.633,0,0,1-1.013-.83,1.986,1.986,0,0,1-.328-1.146,2.33,2.33,0,0,1,.934-1.868A3.647,3.647,0,0,1,36.2,6.853a3.753,3.753,0,0,1,2.478.789,2.5,2.5,0,0,1,.95,2.017H38.082a1.386,1.386,0,0,0-.535-1.087A2.006,2.006,0,0,0,36.2,8.114a2.1,2.1,0,0,0-1.312.365,1.15,1.15,0,0,0-.473.955.932.932,0,0,0,.44.838,5.413,5.413,0,0,0,1.59.54,8.283,8.283,0,0,1,1.864.614,2.718,2.718,0,0,1,1.058.859,2.112,2.112,0,0,1,.344,1.224,2.3,2.3,0,0,1-.963,1.93,4.039,4.039,0,0,1-2.5.726,4.523,4.523,0,0,1-1.909-.382,3.105,3.105,0,0,1-1.3-1.067,2.571,2.571,0,0,1-.469-1.482h1.536a1.59,1.59,0,0,0,.618,1.224,2.4,2.4,0,0,0,1.523.452,2.476,2.476,0,0,0,1.4-.353A1.084,1.084,0,0,0,38.173,13.618Zm9.189-6.6.042,1a3.317,3.317,0,0,1,2.665-1.162A2.568,2.568,0,0,1,52.633,8.3,3.4,3.4,0,0,1,53.8,7.251a3.445,3.445,0,0,1,1.7-.4q2.955,0,3,3.129V16H56.966V10.073a2.062,2.062,0,0,0-.44-1.44,1.937,1.937,0,0,0-1.478-.477,2.036,2.036,0,0,0-1.419.51,2.071,2.071,0,0,0-.656,1.374V16H51.429V10.115a1.713,1.713,0,0,0-1.917-1.959,2.055,2.055,0,0,0-2.067,1.287V16H45.909V7.019ZM62.486,16H60.95V7.019h1.536ZM60.826,4.636a.917.917,0,0,1,.228-.631.857.857,0,0,1,.677-.257.87.87,0,0,1,.681.257.907.907,0,0,1,.232.631.877.877,0,0,1-.232.623.886.886,0,0,1-.681.249.872.872,0,0,1-.677-.249A.886.886,0,0,1,60.826,4.636ZM66.611,16H65.076V3.25h1.536Zm4.125,0H69.2V3.25h1.536Zm6.184.166a3.924,3.924,0,0,1-2.972-1.2A4.452,4.452,0,0,1,72.8,11.758v-.282a5.39,5.39,0,0,1,.51-2.386,3.982,3.982,0,0,1,1.428-1.644,3.59,3.59,0,0,1,1.988-.594,3.364,3.364,0,0,1,2.723,1.154,5,5,0,0,1,.971,3.3v.639H74.339a3.193,3.193,0,0,0,.776,2.146A2.44,2.44,0,0,0,77,14.913a2.675,2.675,0,0,0,1.378-.332,3.462,3.462,0,0,0,.988-.88l.938.73A3.772,3.772,0,0,1,76.921,16.166ZM76.73,8.114a2.048,2.048,0,0,0-1.561.677,3.288,3.288,0,0,0-.78,1.9h4.5v-.116a2.925,2.925,0,0,0-.631-1.814A1.928,1.928,0,0,0,76.73,8.114Zm6.923-1.1.05,1.129a3.273,3.273,0,0,1,2.689-1.295q2.847,0,2.872,3.212V16H87.729V10.057a2.068,2.068,0,0,0-.444-1.436,1.78,1.78,0,0,0-1.357-.465,2.216,2.216,0,0,0-1.312.4,2.706,2.706,0,0,0-.88,1.046V16H82.2V7.019Zm9.38,0,.05,1.129a3.273,3.273,0,0,1,2.689-1.295q2.847,0,2.872,3.212V16H97.108V10.057a2.068,2.068,0,0,0-.444-1.436,1.78,1.78,0,0,0-1.357-.465,2.216,2.216,0,0,0-1.312.4,2.706,2.706,0,0,0-.88,1.046V16H91.58V7.019Zm9.6,8.981h-1.536V7.019h1.536Zm-1.66-11.364a.917.917,0,0,1,.228-.631.857.857,0,0,1,.677-.257.87.87,0,0,1,.681.257.907.907,0,0,1,.232.631.877.877,0,0,1-.232.623.886.886,0,0,1-.681.249.872.872,0,0,1-.677-.249A.886.886,0,0,1,100.968,4.636ZM110.63,16a3.226,3.226,0,0,1-.216-.946,3.426,3.426,0,0,1-2.557,1.112,3.17,3.17,0,0,1-2.179-.751,2.43,2.43,0,0,1-.851-1.905,2.539,2.539,0,0,1,1.067-2.179,5.029,5.029,0,0,1,3-.776h1.494V9.849a1.725,1.725,0,0,0-.481-1.282,1.935,1.935,0,0,0-1.419-.477,2.239,2.239,0,0,0-1.378.415,1.223,1.223,0,0,0-.556,1h-1.544a2.119,2.119,0,0,1,.477-1.3,3.258,3.258,0,0,1,1.295-.992,4.356,4.356,0,0,1,1.8-.365,3.551,3.551,0,0,1,2.432.776,2.8,2.8,0,0,1,.913,2.137V13.9a5.054,5.054,0,0,0,.315,1.967V16Zm-2.548-1.17a2.7,2.7,0,0,0,1.37-.374,2.259,2.259,0,0,0,.938-.971V11.642h-1.2q-2.822,0-2.822,1.652a1.4,1.4,0,0,0,.481,1.129A1.85,1.85,0,0,0,108.082,14.83ZM116,16h-1.536V3.25H116Zm7.687-2.382a1.131,1.131,0,0,0-.469-.967,4.514,4.514,0,0,0-1.635-.594,7.731,7.731,0,0,1-1.851-.6,2.633,2.633,0,0,1-1.013-.83,1.986,1.986,0,0,1-.328-1.146,2.33,2.33,0,0,1,.934-1.868,3.647,3.647,0,0,1,2.386-.764,3.753,3.753,0,0,1,2.478.789,2.5,2.5,0,0,1,.95,2.017H123.6a1.386,1.386,0,0,0-.535-1.087,2.006,2.006,0,0,0-1.349-.457,2.1,2.1,0,0,0-1.312.365,1.15,1.15,0,0,0-.473.955.932.932,0,0,0,.44.838,5.413,5.413,0,0,0,1.59.54,8.283,8.283,0,0,1,1.864.614,2.718,2.718,0,0,1,1.058.859,2.112,2.112,0,0,1,.344,1.224,2.3,2.3,0,0,1-.963,1.93,4.039,4.039,0,0,1-2.5.726,4.523,4.523,0,0,1-1.909-.382,3.105,3.105,0,0,1-1.3-1.067,2.571,2.571,0,0,1-.469-1.482h1.536a1.59,1.59,0,0,0,.618,1.224,2.4,2.4,0,0,0,1.523.452,2.476,2.476,0,0,0,1.4-.353A1.084,1.084,0,0,0,123.688,13.618ZM24.215,35.094a12.834,12.834,0,0,1,.5-3.6,10.465,10.465,0,0,1,1.5-3.138,6.374,6.374,0,0,1,2.067-1.992l.315,1.013a6.611,6.611,0,0,0-1.988,2.839,12.307,12.307,0,0,0-.851,4.275l-.008.706a12.371,12.371,0,0,0,1.17,5.562A6.642,6.642,0,0,0,28.6,42.963l-.315.938a6.579,6.579,0,0,1-2.108-2.059A11.538,11.538,0,0,1,24.215,35.094ZM34.973,40H33.429V29.765l-3.1,1.137V29.508l4.4-1.652h.241Zm10.384-5.312a3.757,3.757,0,0,1-1.15.921,3.119,3.119,0,0,1-1.465.349,3.22,3.22,0,0,1-1.822-.515,3.346,3.346,0,0,1-1.2-1.448,4.938,4.938,0,0,1-.423-2.063,5.031,5.031,0,0,1,.461-2.183,3.384,3.384,0,0,1,1.307-1.486,3.728,3.728,0,0,1,1.976-.515,3.375,3.375,0,0,1,2.826,1.341A5.847,5.847,0,0,1,46.9,32.745v.448q0,3.528-1.395,5.151A5.358,5.358,0,0,1,41.3,40.008H41v-1.3h.324a4.228,4.228,0,0,0,2.922-.99A4.248,4.248,0,0,0,45.357,34.688Zm-2.366,0a2.371,2.371,0,0,0,1.424-.473,2.789,2.789,0,0,0,.95-1.17V32.43a4.226,4.226,0,0,0-.656-2.457,2,2,0,0,0-3.287-.17,3.2,3.2,0,0,0-.614,2.046,3.332,3.332,0,0,0,.594,2.038A1.879,1.879,0,0,0,42.991,34.688Zm13.356-3.619a2.807,2.807,0,0,1-.477,1.61,3.248,3.248,0,0,1-1.291,1.1,3.464,3.464,0,0,1,1.5,1.187,2.987,2.987,0,0,1,.552,1.768,3.158,3.158,0,0,1-1.058,2.5,4.64,4.64,0,0,1-5.578,0,3.173,3.173,0,0,1-1.05-2.494,3.076,3.076,0,0,1,.535-1.768,3.332,3.332,0,0,1,1.482-1.2,3.167,3.167,0,0,1-1.27-1.1,2.846,2.846,0,0,1-.465-1.6,3.124,3.124,0,0,1,.979-2.424,4.159,4.159,0,0,1,5.159,0A3.117,3.117,0,0,1,56.347,31.068ZM55.094,36.7a2.228,2.228,0,0,0-.643-1.652,2.281,2.281,0,0,0-1.681-.639A2.161,2.161,0,0,0,50.479,36.7a2.145,2.145,0,0,0,.61,1.619,2.726,2.726,0,0,0,3.391,0A2.14,2.14,0,0,0,55.094,36.7ZM52.786,29.01a1.981,1.981,0,0,0-1.465.56,2.319,2.319,0,0,0-.008,3.013,2.193,2.193,0,0,0,2.947,0,2.272,2.272,0,0,0-.021-2.992A1.954,1.954,0,0,0,52.786,29.01ZM63.611,40H62.067V29.765L58.97,30.9V29.508l4.4-1.652h.241Zm7.853-4.507H67.412V34.239h4.051ZM77.846,40H76.3V29.765l-3.1,1.137V29.508l4.4-1.652h.241Zm10.384-5.312a3.757,3.757,0,0,1-1.15.921,3.119,3.119,0,0,1-1.465.349,3.22,3.22,0,0,1-1.822-.515,3.346,3.346,0,0,1-1.2-1.448,4.938,4.938,0,0,1-.423-2.063,5.031,5.031,0,0,1,.461-2.183,3.384,3.384,0,0,1,1.307-1.486,3.728,3.728,0,0,1,1.976-.515,3.375,3.375,0,0,1,2.826,1.341,5.847,5.847,0,0,1,1.033,3.656v.448q0,3.528-1.395,5.151a5.358,5.358,0,0,1-4.208,1.664h-.3v-1.3H84.2a4.228,4.228,0,0,0,2.922-.99A4.248,4.248,0,0,0,88.231,34.688Zm-2.366,0a2.371,2.371,0,0,0,1.424-.473,2.789,2.789,0,0,0,.95-1.17V32.43a4.226,4.226,0,0,0-.656-2.457A2,2,0,0,0,84.3,29.8a3.2,3.2,0,0,0-.614,2.046,3.332,3.332,0,0,0,.594,2.038A1.879,1.879,0,0,0,85.865,34.688Zm11.912,0a3.757,3.757,0,0,1-1.15.921,3.119,3.119,0,0,1-1.465.349,3.22,3.22,0,0,1-1.822-.515,3.346,3.346,0,0,1-1.2-1.448,4.938,4.938,0,0,1-.423-2.063,5.031,5.031,0,0,1,.461-2.183,3.384,3.384,0,0,1,1.307-1.486,3.728,3.728,0,0,1,1.976-.515,3.375,3.375,0,0,1,2.826,1.341,5.847,5.847,0,0,1,1.033,3.656v.448q0,3.528-1.395,5.151a5.358,5.358,0,0,1-4.208,1.664h-.3v-1.3h.324a4.228,4.228,0,0,0,2.922-.99A4.248,4.248,0,0,0,97.777,34.688Zm-2.366,0a2.371,2.371,0,0,0,1.424-.473,2.789,2.789,0,0,0,.95-1.17V32.43a4.226,4.226,0,0,0-.656-2.457,2,2,0,0,0-3.287-.17,3.2,3.2,0,0,0-.614,2.046,3.332,3.332,0,0,0,.594,2.038A1.879,1.879,0,0,0,95.411,34.688Zm8.259-1.478h1.154a2.536,2.536,0,0,0,1.71-.573,1.914,1.914,0,0,0,.623-1.5,1.875,1.875,0,0,0-2.117-2.125,2.2,2.2,0,0,0-1.59.569,1.99,1.99,0,0,0-.594,1.507h-1.536a3.083,3.083,0,0,1,1.05-2.386,3.825,3.825,0,0,1,2.669-.95,3.78,3.78,0,0,1,2.681.9,3.269,3.269,0,0,1,.971,2.515,2.653,2.653,0,0,1-.51,1.527,3.082,3.082,0,0,1-1.39,1.1,2.97,2.97,0,0,1,1.54,1.046,2.9,2.9,0,0,1,.544,1.785,3.3,3.3,0,0,1-1.062,2.582,3.979,3.979,0,0,1-2.764.955,4.084,4.084,0,0,1-2.768-.921,3.057,3.057,0,0,1-1.067-2.432h1.544a1.975,1.975,0,0,0,.623,1.527,2.368,2.368,0,0,0,1.668.573,2.324,2.324,0,0,0,1.7-.581,2.239,2.239,0,0,0,.589-1.668,2.032,2.032,0,0,0-.647-1.619,2.821,2.821,0,0,0-1.868-.581H103.67Zm11.015,1.967a12.84,12.84,0,0,1-.486,3.549,10.493,10.493,0,0,1-1.486,3.134,6.51,6.51,0,0,1-2.1,2.042l-.324-.938a6.673,6.673,0,0,0,2.054-3.042,13.161,13.161,0,0,0,.793-4.578v-.266a13.665,13.665,0,0,0-.365-3.241,10.94,10.94,0,0,0-1.017-2.685,6.2,6.2,0,0,0-1.465-1.851l.324-.938a6.485,6.485,0,0,1,2.088,2.025,10.516,10.516,0,0,1,1.486,3.129A13.136,13.136,0,0,1,114.685,35.177Z" transform="translate(-8423 -10612)" fill="#12263f"/>
    <path id="Trazado_608883" data-name="Trazado 608883" d="M15.662,14.7H21.39V16H14.06V3.914h1.6ZM28.512,16a3.226,3.226,0,0,1-.216-.946,3.426,3.426,0,0,1-2.557,1.112,3.17,3.17,0,0,1-2.179-.751,2.43,2.43,0,0,1-.851-1.905,2.539,2.539,0,0,1,1.067-2.179,5.029,5.029,0,0,1,3-.776h1.494V9.849a1.725,1.725,0,0,0-.481-1.282,1.935,1.935,0,0,0-1.419-.477,2.239,2.239,0,0,0-1.378.415,1.223,1.223,0,0,0-.556,1H22.892a2.119,2.119,0,0,1,.477-1.3,3.258,3.258,0,0,1,1.295-.992,4.356,4.356,0,0,1,1.8-.365,3.551,3.551,0,0,1,2.432.776,2.8,2.8,0,0,1,.913,2.137V13.9a5.054,5.054,0,0,0,.315,1.967V16Zm-2.548-1.17a2.7,2.7,0,0,0,1.37-.374,2.259,2.259,0,0,0,.938-.971V11.642h-1.2q-2.822,0-2.822,1.652a1.4,1.4,0,0,0,.481,1.129A1.85,1.85,0,0,0,25.964,14.83Zm10.094-3.4a5.279,5.279,0,0,1,.971-3.341,3.348,3.348,0,0,1,5.138-.079l.075-1h1.4v8.766a3.654,3.654,0,0,1-1.033,2.748,3.814,3.814,0,0,1-2.777,1,4.619,4.619,0,0,1-1.9-.415,3.272,3.272,0,0,1-1.419-1.137l.8-.921a3,3,0,0,0,2.416,1.22,2.353,2.353,0,0,0,1.747-.631,2.411,2.411,0,0,0,.627-1.776V15.1a3.156,3.156,0,0,1-2.515,1.063,3.068,3.068,0,0,1-2.552-1.27A5.55,5.55,0,0,1,36.057,11.435Zm1.544.174A4.027,4.027,0,0,0,38.224,14a2.023,2.023,0,0,0,1.743.867,2.249,2.249,0,0,0,2.133-1.32v-4.1a2.276,2.276,0,0,0-2.117-1.287,2.041,2.041,0,0,0-1.751.872A4.386,4.386,0,0,0,37.6,11.609Zm12.086,4.557a3.924,3.924,0,0,1-2.972-1.2,4.452,4.452,0,0,1-1.146-3.208v-.282a5.39,5.39,0,0,1,.51-2.386,3.982,3.982,0,0,1,1.428-1.644A3.59,3.59,0,0,1,49.5,6.853a3.364,3.364,0,0,1,2.723,1.154,5,5,0,0,1,.971,3.3v.639H47.106a3.193,3.193,0,0,0,.776,2.146,2.44,2.44,0,0,0,1.888.818,2.675,2.675,0,0,0,1.378-.332,3.462,3.462,0,0,0,.988-.88l.938.73A3.772,3.772,0,0,1,49.687,16.166ZM49.5,8.114a2.048,2.048,0,0,0-1.561.677,3.288,3.288,0,0,0-.78,1.9h4.5v-.116a2.925,2.925,0,0,0-.631-1.814A1.928,1.928,0,0,0,49.5,8.114Zm6.923-1.1.05,1.129a3.273,3.273,0,0,1,2.689-1.295q2.847,0,2.872,3.212V16H60.495V10.057a2.068,2.068,0,0,0-.444-1.436,1.78,1.78,0,0,0-1.357-.465,2.216,2.216,0,0,0-1.312.4A2.706,2.706,0,0,0,56.5,9.6V16H54.967V7.019Zm11.654,9.147a3.924,3.924,0,0,1-2.972-1.2,4.452,4.452,0,0,1-1.146-3.208v-.282a5.39,5.39,0,0,1,.51-2.386,3.982,3.982,0,0,1,1.428-1.644,3.59,3.59,0,0,1,1.988-.594,3.364,3.364,0,0,1,2.723,1.154,5,5,0,0,1,.971,3.3v.639H65.492a3.193,3.193,0,0,0,.776,2.146,2.44,2.44,0,0,0,1.888.818,2.675,2.675,0,0,0,1.378-.332,3.462,3.462,0,0,0,.988-.88l.938.73A3.772,3.772,0,0,1,68.073,16.166Zm-.191-8.052a2.048,2.048,0,0,0-1.561.677,3.288,3.288,0,0,0-.78,1.9h4.5v-.116a2.925,2.925,0,0,0-.631-1.814A1.928,1.928,0,0,0,67.883,8.114Zm9.812.282a4.6,4.6,0,0,0-.755-.058,2.024,2.024,0,0,0-2.05,1.287V16H73.353V7.019h1.494l.025,1.038a2.391,2.391,0,0,1,2.142-1.2,1.569,1.569,0,0,1,.681.116ZM84.318,16a3.226,3.226,0,0,1-.216-.946,3.426,3.426,0,0,1-2.557,1.112,3.17,3.17,0,0,1-2.179-.751,2.43,2.43,0,0,1-.851-1.905,2.539,2.539,0,0,1,1.067-2.179,5.029,5.029,0,0,1,3-.776h1.494V9.849A1.725,1.725,0,0,0,83.6,8.567a1.935,1.935,0,0,0-1.419-.477A2.239,2.239,0,0,0,80.8,8.5a1.223,1.223,0,0,0-.556,1H78.7a2.119,2.119,0,0,1,.477-1.3,3.258,3.258,0,0,1,1.295-.992,4.356,4.356,0,0,1,1.8-.365,3.551,3.551,0,0,1,2.432.776,2.8,2.8,0,0,1,.913,2.137V13.9a5.054,5.054,0,0,0,.315,1.967V16ZM81.77,14.83a2.7,2.7,0,0,0,1.37-.374,2.259,2.259,0,0,0,.938-.971V11.642h-1.2q-2.822,0-2.822,1.652a1.4,1.4,0,0,0,.481,1.129A1.85,1.85,0,0,0,81.77,14.83Zm9.853.083a2.212,2.212,0,0,0,1.436-.5,1.752,1.752,0,0,0,.681-1.245h1.453a2.785,2.785,0,0,1-.531,1.469,3.5,3.5,0,0,1-1.307,1.112,3.772,3.772,0,0,1-1.731.415,3.7,3.7,0,0,1-2.918-1.224,4.877,4.877,0,0,1-1.083-3.349v-.257A5.407,5.407,0,0,1,88.1,9a3.667,3.667,0,0,1,1.382-1.585,3.926,3.926,0,0,1,2.129-.564,3.6,3.6,0,0,1,2.511.9,3.234,3.234,0,0,1,1.067,2.349H93.74a2.116,2.116,0,0,0-.66-1.432,2.053,2.053,0,0,0-1.465-.56,2.149,2.149,0,0,0-1.814.843,3.957,3.957,0,0,0-.643,2.436v.291a3.878,3.878,0,0,0,.639,2.391A2.16,2.16,0,0,0,91.623,14.913ZM98.587,16H97.052V7.019h1.536ZM96.927,4.636a.917.917,0,0,1,.228-.631.857.857,0,0,1,.677-.257.87.87,0,0,1,.681.257.907.907,0,0,1,.232.631.877.877,0,0,1-.232.623.886.886,0,0,1-.681.249.872.872,0,0,1-.677-.249A.886.886,0,0,1,96.927,4.636Zm3.71,6.79a5.3,5.3,0,0,1,.519-2.374A3.87,3.87,0,0,1,102.6,7.425a3.932,3.932,0,0,1,2.113-.573,3.788,3.788,0,0,1,2.968,1.27,4.886,4.886,0,0,1,1.133,3.378v.108a5.351,5.351,0,0,1-.5,2.353,3.813,3.813,0,0,1-1.436,1.623,3.977,3.977,0,0,1-2.146.581,3.778,3.778,0,0,1-2.959-1.27,4.861,4.861,0,0,1-1.133-3.362Zm1.544.183a3.842,3.842,0,0,0,.693,2.4A2.349,2.349,0,0,0,106.589,14a4.2,4.2,0,0,0,.689-2.569,3.836,3.836,0,0,0-.7-2.395,2.23,2.23,0,0,0-1.864-.917,2.205,2.205,0,0,0-1.834.9A4.17,4.17,0,0,0,102.181,11.609ZM105.41,3.25h1.859l-2.225,2.44-1.237,0Zm6.782,3.769.05,1.129a3.273,3.273,0,0,1,2.689-1.295q2.847,0,2.872,3.212V16h-1.536V10.057a2.068,2.068,0,0,0-.444-1.436,1.78,1.78,0,0,0-1.357-.465,2.216,2.216,0,0,0-1.312.4,2.706,2.706,0,0,0-.88,1.046V16H110.74V7.019ZM125.764,14.7h6.915V16h-8.8V14.8L130.5,5.217h-6.516v-1.3h8.425V5.077Zm-98.049,20.4a12.834,12.834,0,0,1,.5-3.6,10.465,10.465,0,0,1,1.5-3.138,6.374,6.374,0,0,1,2.067-1.992l.315,1.013a6.611,6.611,0,0,0-1.988,2.839,12.307,12.307,0,0,0-.851,4.275l-.008.706a12.371,12.371,0,0,0,1.17,5.562A6.642,6.642,0,0,0,32.1,42.963l-.315.938a6.579,6.579,0,0,1-2.108-2.059A11.538,11.538,0,0,1,27.715,35.094ZM38.473,40H36.929V29.765l-3.1,1.137V29.508l4.4-1.652h.241Zm10.384-5.312a3.757,3.757,0,0,1-1.15.921,3.119,3.119,0,0,1-1.465.349,3.22,3.22,0,0,1-1.822-.515,3.346,3.346,0,0,1-1.2-1.448,4.938,4.938,0,0,1-.423-2.063,5.031,5.031,0,0,1,.461-2.183,3.384,3.384,0,0,1,1.307-1.486,3.728,3.728,0,0,1,1.976-.515,3.375,3.375,0,0,1,2.826,1.341A5.847,5.847,0,0,1,50.4,32.745v.448q0,3.528-1.395,5.151A5.358,5.358,0,0,1,44.8,40.008h-.3v-1.3h.324a4.228,4.228,0,0,0,2.922-.99A4.248,4.248,0,0,0,48.857,34.688Zm-2.366,0a2.371,2.371,0,0,0,1.424-.473,2.789,2.789,0,0,0,.95-1.17V32.43a4.226,4.226,0,0,0-.656-2.457,2,2,0,0,0-3.287-.17,3.2,3.2,0,0,0-.614,2.046,3.332,3.332,0,0,0,.594,2.038A1.879,1.879,0,0,0,46.491,34.688Zm11.912,0a3.757,3.757,0,0,1-1.15.921,3.119,3.119,0,0,1-1.465.349,3.22,3.22,0,0,1-1.822-.515,3.346,3.346,0,0,1-1.2-1.448,4.938,4.938,0,0,1-.423-2.063,5.031,5.031,0,0,1,.461-2.183,3.384,3.384,0,0,1,1.307-1.486,3.728,3.728,0,0,1,1.976-.515,3.375,3.375,0,0,1,2.826,1.341,5.847,5.847,0,0,1,1.033,3.656v.448q0,3.528-1.395,5.151a5.358,5.358,0,0,1-4.208,1.664h-.3v-1.3h.324a4.228,4.228,0,0,0,2.922-.99A4.248,4.248,0,0,0,58.4,34.688Zm-2.366,0a2.371,2.371,0,0,0,1.424-.473,2.789,2.789,0,0,0,.95-1.17V32.43a4.226,4.226,0,0,0-.656-2.457,2,2,0,0,0-3.287-.17,3.2,3.2,0,0,0-.614,2.046,3.332,3.332,0,0,0,.594,2.038A1.879,1.879,0,0,0,56.037,34.688Zm12.509,1.253h1.677v1.253H68.547V40H67V37.194H61.5v-.9l5.412-8.375h1.635Zm-5.3,0H67V30.014l-.183.332Zm11.721-.448H70.912V34.239h4.051ZM84.219,40H76.3V38.9l4.184-4.648a9.939,9.939,0,0,0,1.282-1.714,2.861,2.861,0,0,0,.353-1.365,2.169,2.169,0,0,0-.573-1.552,2,2,0,0,0-1.527-.606,2.372,2.372,0,0,0-1.781.652,2.489,2.489,0,0,0-.635,1.814H76.067a3.565,3.565,0,0,1,1.075-2.7,3.985,3.985,0,0,1,2.876-1.029,3.829,3.829,0,0,1,2.665.884,3.015,3.015,0,0,1,.979,2.353q0,1.785-2.274,4.25l-3.237,3.511h6.068Zm9.206-5.155a7.023,7.023,0,0,1-.921,4.009,3.829,3.829,0,0,1-5.744.029,6.666,6.666,0,0,1-.963-3.831V33a6.867,6.867,0,0,1,.921-3.959A3.9,3.9,0,0,1,92.478,29a6.627,6.627,0,0,1,.946,3.856Zm-1.536-2.1a5.627,5.627,0,0,0-.548-2.843,1.886,1.886,0,0,0-1.735-.892,1.861,1.861,0,0,0-1.718.888,5.494,5.494,0,0,0-.556,2.731v2.457a5.717,5.717,0,0,0,.569,2.893,1.882,1.882,0,0,0,1.722.934,1.856,1.856,0,0,0,1.689-.88,5.51,5.51,0,0,0,.577-2.772ZM100.438,40H98.894V29.765L95.8,30.9V29.508l4.4-1.652h.241Zm12.078-5.155a7.023,7.023,0,0,1-.921,4.009,3.829,3.829,0,0,1-5.744.029,6.666,6.666,0,0,1-.963-3.831V33a6.867,6.867,0,0,1,.921-3.959A3.9,3.9,0,0,1,111.57,29a6.627,6.627,0,0,1,.946,3.856Zm-1.536-2.1a5.627,5.627,0,0,0-.548-2.843,1.886,1.886,0,0,0-1.735-.892,1.861,1.861,0,0,0-1.718.888,5.494,5.494,0,0,0-.556,2.731v2.457a5.717,5.717,0,0,0,.569,2.893,1.882,1.882,0,0,0,1.722.934,1.856,1.856,0,0,0,1.689-.88,5.51,5.51,0,0,0,.577-2.772Zm7.205,2.432a12.84,12.84,0,0,1-.486,3.549,10.493,10.493,0,0,1-1.486,3.134,6.51,6.51,0,0,1-2.1,2.042l-.324-.938a6.673,6.673,0,0,0,2.054-3.042,13.161,13.161,0,0,0,.793-4.578v-.266a13.665,13.665,0,0,0-.365-3.241,10.94,10.94,0,0,0-1.017-2.685,6.2,6.2,0,0,0-1.465-1.851l.324-.938a6.485,6.485,0,0,1,2.088,2.025,10.516,10.516,0,0,1,1.486,3.129A13.136,13.136,0,0,1,118.185,35.177Z" transform="translate(-8409.548 -10482.643)" fill="#12263f"/>
    <path id="Trazado_608884" data-name="Trazado 608884" d="M20.49,14.7h5.728V16h-7.33V3.914h1.6ZM33.34,16a3.226,3.226,0,0,1-.216-.946,3.426,3.426,0,0,1-2.557,1.112,3.17,3.17,0,0,1-2.179-.751,2.43,2.43,0,0,1-.851-1.905A2.539,2.539,0,0,1,28.6,11.331a5.029,5.029,0,0,1,3-.776H33.1V9.849a1.725,1.725,0,0,0-.481-1.282A1.935,1.935,0,0,0,31.2,8.089a2.239,2.239,0,0,0-1.378.415,1.223,1.223,0,0,0-.556,1H27.72a2.119,2.119,0,0,1,.477-1.3,3.258,3.258,0,0,1,1.295-.992,4.356,4.356,0,0,1,1.8-.365,3.551,3.551,0,0,1,2.432.776,2.8,2.8,0,0,1,.913,2.137V13.9a5.054,5.054,0,0,0,.315,1.967V16Zm-2.548-1.17a2.7,2.7,0,0,0,1.37-.374,2.259,2.259,0,0,0,.938-.971V11.642H31.9q-2.822,0-2.822,1.652a1.4,1.4,0,0,0,.481,1.129A1.85,1.85,0,0,0,30.792,14.83Zm10.094-3.4a5.279,5.279,0,0,1,.971-3.341,3.348,3.348,0,0,1,5.138-.079l.075-1h1.4v8.766a3.654,3.654,0,0,1-1.033,2.748,3.814,3.814,0,0,1-2.777,1,4.619,4.619,0,0,1-1.9-.415,3.272,3.272,0,0,1-1.419-1.137l.8-.921a3,3,0,0,0,2.416,1.22,2.353,2.353,0,0,0,1.747-.631,2.411,2.411,0,0,0,.627-1.776V15.1a3.156,3.156,0,0,1-2.515,1.063,3.068,3.068,0,0,1-2.552-1.27A5.55,5.55,0,0,1,40.885,11.435Zm1.544.174A4.027,4.027,0,0,0,43.052,14a2.023,2.023,0,0,0,1.743.867,2.249,2.249,0,0,0,2.133-1.32v-4.1a2.276,2.276,0,0,0-2.117-1.287,2.041,2.041,0,0,0-1.751.872A4.386,4.386,0,0,0,42.429,11.609Zm12.086,4.557a3.924,3.924,0,0,1-2.972-1.2A4.452,4.452,0,0,1,50.4,11.758v-.282a5.39,5.39,0,0,1,.51-2.386,3.982,3.982,0,0,1,1.428-1.644,3.59,3.59,0,0,1,1.988-.594,3.364,3.364,0,0,1,2.723,1.154,5,5,0,0,1,.971,3.3v.639H51.934a3.193,3.193,0,0,0,.776,2.146,2.44,2.44,0,0,0,1.888.818,2.675,2.675,0,0,0,1.378-.332,3.462,3.462,0,0,0,.988-.88l.938.73A3.772,3.772,0,0,1,54.515,16.166Zm-.191-8.052a2.048,2.048,0,0,0-1.561.677,3.288,3.288,0,0,0-.78,1.9h4.5v-.116a2.925,2.925,0,0,0-.631-1.814A1.928,1.928,0,0,0,54.324,8.114Zm6.923-1.1.05,1.129a3.273,3.273,0,0,1,2.689-1.295q2.847,0,2.872,3.212V16H65.323V10.057a2.068,2.068,0,0,0-.444-1.436,1.78,1.78,0,0,0-1.357-.465,2.216,2.216,0,0,0-1.312.4A2.706,2.706,0,0,0,61.33,9.6V16H59.795V7.019ZM72.9,16.166a3.924,3.924,0,0,1-2.972-1.2,4.452,4.452,0,0,1-1.146-3.208v-.282a5.39,5.39,0,0,1,.51-2.386,3.982,3.982,0,0,1,1.428-1.644,3.59,3.59,0,0,1,1.988-.594,3.364,3.364,0,0,1,2.723,1.154,5,5,0,0,1,.971,3.3v.639H70.32a3.193,3.193,0,0,0,.776,2.146,2.44,2.44,0,0,0,1.888.818,2.675,2.675,0,0,0,1.378-.332,3.462,3.462,0,0,0,.988-.88l.938.73A3.772,3.772,0,0,1,72.9,16.166Zm-.191-8.052a2.048,2.048,0,0,0-1.561.677,3.288,3.288,0,0,0-.78,1.9h4.5v-.116a2.925,2.925,0,0,0-.631-1.814A1.928,1.928,0,0,0,72.711,8.114Zm9.812.282a4.6,4.6,0,0,0-.755-.058,2.024,2.024,0,0,0-2.05,1.287V16H78.181V7.019h1.494L79.7,8.056a2.391,2.391,0,0,1,2.142-1.2,1.569,1.569,0,0,1,.681.116ZM89.146,16a3.226,3.226,0,0,1-.216-.946,3.426,3.426,0,0,1-2.557,1.112,3.17,3.17,0,0,1-2.179-.751,2.43,2.43,0,0,1-.851-1.905,2.539,2.539,0,0,1,1.067-2.179,5.029,5.029,0,0,1,3-.776h1.494V9.849a1.725,1.725,0,0,0-.481-1.282A1.935,1.935,0,0,0,87,8.089a2.239,2.239,0,0,0-1.378.415,1.223,1.223,0,0,0-.556,1H83.527A2.119,2.119,0,0,1,84,8.21,3.258,3.258,0,0,1,85.3,7.218a4.356,4.356,0,0,1,1.8-.365,3.551,3.551,0,0,1,2.432.776,2.8,2.8,0,0,1,.913,2.137V13.9a5.054,5.054,0,0,0,.315,1.967V16ZM86.6,14.83a2.7,2.7,0,0,0,1.37-.374,2.259,2.259,0,0,0,.938-.971V11.642H87.7q-2.822,0-2.822,1.652a1.4,1.4,0,0,0,.481,1.129A1.85,1.85,0,0,0,86.6,14.83Zm9.853.083a2.212,2.212,0,0,0,1.436-.5,1.752,1.752,0,0,0,.681-1.245h1.453a2.785,2.785,0,0,1-.531,1.469,3.5,3.5,0,0,1-1.307,1.112,3.772,3.772,0,0,1-1.731.415,3.7,3.7,0,0,1-2.918-1.224,4.877,4.877,0,0,1-1.083-3.349v-.257A5.407,5.407,0,0,1,92.931,9a3.667,3.667,0,0,1,1.382-1.585,3.926,3.926,0,0,1,2.129-.564,3.6,3.6,0,0,1,2.511.9,3.234,3.234,0,0,1,1.067,2.349H98.568a2.116,2.116,0,0,0-.66-1.432,2.053,2.053,0,0,0-1.465-.56,2.149,2.149,0,0,0-1.814.843,3.957,3.957,0,0,0-.643,2.436v.291a3.878,3.878,0,0,0,.639,2.391A2.16,2.16,0,0,0,96.451,14.913ZM103.415,16H101.88V7.019h1.536Zm-1.66-11.364a.917.917,0,0,1,.228-.631.857.857,0,0,1,.677-.257.87.87,0,0,1,.681.257.907.907,0,0,1,.232.631.877.877,0,0,1-.232.623.886.886,0,0,1-.681.249.872.872,0,0,1-.677-.249A.886.886,0,0,1,101.755,4.636Zm3.71,6.79a5.3,5.3,0,0,1,.519-2.374,3.87,3.87,0,0,1,1.444-1.627,3.932,3.932,0,0,1,2.113-.573,3.788,3.788,0,0,1,2.968,1.27,4.886,4.886,0,0,1,1.133,3.378v.108a5.351,5.351,0,0,1-.5,2.353,3.813,3.813,0,0,1-1.436,1.623,3.977,3.977,0,0,1-2.146.581A3.778,3.778,0,0,1,106.6,14.9a4.861,4.861,0,0,1-1.133-3.362Zm1.544.183a3.842,3.842,0,0,0,.693,2.4A2.349,2.349,0,0,0,111.417,14a4.2,4.2,0,0,0,.689-2.569,3.836,3.836,0,0,0-.7-2.395,2.23,2.23,0,0,0-1.864-.917,2.205,2.205,0,0,0-1.834.9A4.17,4.17,0,0,0,107.01,11.609Zm3.229-8.359H112.1l-2.225,2.44-1.237,0Zm6.782,3.769.05,1.129a3.273,3.273,0,0,1,2.689-1.295q2.847,0,2.872,3.212V16H121.1V10.057a2.068,2.068,0,0,0-.444-1.436,1.78,1.78,0,0,0-1.357-.465,2.216,2.216,0,0,0-1.312.4A2.706,2.706,0,0,0,117.1,9.6V16h-1.536V7.019ZM134.7,16a3.226,3.226,0,0,1-.216-.946,3.426,3.426,0,0,1-2.557,1.112,3.17,3.17,0,0,1-2.179-.751,2.43,2.43,0,0,1-.851-1.905,2.539,2.539,0,0,1,1.067-2.179,5.029,5.029,0,0,1,3-.776h1.494V9.849a1.725,1.725,0,0,0-.481-1.282,1.935,1.935,0,0,0-1.419-.477,2.239,2.239,0,0,0-1.378.415,1.223,1.223,0,0,0-.556,1h-1.544a2.119,2.119,0,0,1,.477-1.3,3.258,3.258,0,0,1,1.295-.992,4.356,4.356,0,0,1,1.8-.365,3.551,3.551,0,0,1,2.432.776A2.8,2.8,0,0,1,136,9.766V13.9a5.054,5.054,0,0,0,.315,1.967V16Zm-2.548-1.17a2.7,2.7,0,0,0,1.37-.374,2.259,2.259,0,0,0,.938-.971V11.642h-1.2q-2.822,0-2.822,1.652a1.4,1.4,0,0,0,.481,1.129A1.85,1.85,0,0,0,132.153,14.83ZM140.072,16h-1.536V3.25h1.536Zm10.044-4.391a5.378,5.378,0,0,1-.938,3.3,3.006,3.006,0,0,1-2.54,1.253,3.294,3.294,0,0,1-2.573-1.038v4.325h-1.536V7.019h1.4l.075,1a3.163,3.163,0,0,1,2.606-1.162,3.063,3.063,0,0,1,2.561,1.22,5.437,5.437,0,0,1,.942,3.4Zm-1.536-.174a3.968,3.968,0,0,0-.647-2.4,2.086,2.086,0,0,0-1.776-.88,2.257,2.257,0,0,0-2.092,1.237v4.292a2.262,2.262,0,0,0,2.108,1.229,2.076,2.076,0,0,0,1.756-.876A4.332,4.332,0,0,0,148.58,11.435ZM153.6,8.106a3.265,3.265,0,0,1,2.656-1.253q2.847,0,2.872,3.212V16h-1.536V10.057a2.068,2.068,0,0,0-.444-1.436,1.78,1.78,0,0,0-1.357-.465,2.216,2.216,0,0,0-1.312.4A2.706,2.706,0,0,0,153.6,9.6V16h-1.536V3.25H153.6ZM166.974,16a3.226,3.226,0,0,1-.216-.946,3.426,3.426,0,0,1-2.557,1.112,3.17,3.17,0,0,1-2.179-.751,2.43,2.43,0,0,1-.851-1.905,2.539,2.539,0,0,1,1.067-2.179,5.029,5.029,0,0,1,3-.776h1.494V9.849a1.725,1.725,0,0,0-.481-1.282,1.935,1.935,0,0,0-1.419-.477,2.239,2.239,0,0,0-1.378.415,1.223,1.223,0,0,0-.556,1h-1.544a2.119,2.119,0,0,1,.477-1.3,3.258,3.258,0,0,1,1.295-.992,4.356,4.356,0,0,1,1.8-.365,3.551,3.551,0,0,1,2.432.776,2.8,2.8,0,0,1,.913,2.137V13.9a5.054,5.054,0,0,0,.315,1.967V16Zm-2.548-1.17a2.7,2.7,0,0,0,1.37-.374,2.259,2.259,0,0,0,.938-.971V11.642h-1.2q-2.822,0-2.822,1.652a1.4,1.4,0,0,0,.481,1.129A1.85,1.85,0,0,0,164.426,14.83ZM23.6,35.094a12.834,12.834,0,0,1,.5-3.6,10.465,10.465,0,0,1,1.5-3.138,6.374,6.374,0,0,1,2.067-1.992l.315,1.013A6.611,6.611,0,0,0,26,30.213a12.307,12.307,0,0,0-.851,4.275l-.008.706a12.371,12.371,0,0,0,1.17,5.562,6.642,6.642,0,0,0,1.677,2.208l-.315.938a6.579,6.579,0,0,1-2.108-2.059A11.538,11.538,0,0,1,23.6,35.094ZM37.233,40H29.314V38.9L33.5,34.248a9.939,9.939,0,0,0,1.282-1.714,2.861,2.861,0,0,0,.353-1.365,2.169,2.169,0,0,0-.573-1.552,2,2,0,0,0-1.527-.606,2.372,2.372,0,0,0-1.781.652,2.489,2.489,0,0,0-.635,1.814H29.082a3.565,3.565,0,0,1,1.075-2.7,3.985,3.985,0,0,1,2.876-1.029,3.829,3.829,0,0,1,2.665.884,3.015,3.015,0,0,1,.979,2.353q0,1.785-2.274,4.25l-3.237,3.511h6.068Zm9.206-5.155a7.023,7.023,0,0,1-.921,4.009,3.277,3.277,0,0,1-2.88,1.312,3.3,3.3,0,0,1-2.864-1.282,6.666,6.666,0,0,1-.963-3.831V33a6.867,6.867,0,0,1,.921-3.959,3.3,3.3,0,0,1,2.889-1.295A3.332,3.332,0,0,1,45.492,29a6.627,6.627,0,0,1,.946,3.856Zm-1.536-2.1a5.627,5.627,0,0,0-.548-2.843,1.886,1.886,0,0,0-1.735-.892A1.861,1.861,0,0,0,40.9,29.9a5.494,5.494,0,0,0-.556,2.731v2.457a5.717,5.717,0,0,0,.569,2.893,1.882,1.882,0,0,0,1.722.934,1.856,1.856,0,0,0,1.689-.88A5.51,5.51,0,0,0,44.9,35.26ZM53.453,40H51.909V29.765l-3.1,1.137V29.508l4.4-1.652h.241Zm12.078-5.155a7.023,7.023,0,0,1-.921,4.009,3.829,3.829,0,0,1-5.744.029,6.666,6.666,0,0,1-.963-3.831V33a6.867,6.867,0,0,1,.921-3.959A3.9,3.9,0,0,1,64.584,29a6.627,6.627,0,0,1,.946,3.856Zm-1.536-2.1a5.627,5.627,0,0,0-.548-2.843,1.886,1.886,0,0,0-1.735-.892,1.861,1.861,0,0,0-1.718.888,5.494,5.494,0,0,0-.556,2.731v2.457a5.717,5.717,0,0,0,.569,2.893,1.882,1.882,0,0,0,1.722.934,1.856,1.856,0,0,0,1.689-.88,5.51,5.51,0,0,0,.577-2.772ZM75.06,35.493H71.009V34.239H75.06ZM86.307,40a3.226,3.226,0,0,1-.216-.946,3.426,3.426,0,0,1-2.557,1.112,3.17,3.17,0,0,1-2.179-.751,2.43,2.43,0,0,1-.851-1.905,2.539,2.539,0,0,1,1.067-2.179,5.029,5.029,0,0,1,3-.776h1.494v-.706a1.725,1.725,0,0,0-.481-1.282,1.935,1.935,0,0,0-1.419-.477,2.239,2.239,0,0,0-1.378.415,1.223,1.223,0,0,0-.556,1H80.688a2.119,2.119,0,0,1,.477-1.3,3.258,3.258,0,0,1,1.295-.992,4.356,4.356,0,0,1,1.8-.365,3.551,3.551,0,0,1,2.432.776,2.8,2.8,0,0,1,.913,2.137V37.9a5.054,5.054,0,0,0,.315,1.967V40Zm-2.548-1.17a2.7,2.7,0,0,0,1.37-.374,2.259,2.259,0,0,0,.938-.971V35.642h-1.2q-2.822,0-2.822,1.652a1.4,1.4,0,0,0,.481,1.129A1.85,1.85,0,0,0,83.759,38.83Zm9.853.083a2.212,2.212,0,0,0,1.436-.5,1.752,1.752,0,0,0,.681-1.245h1.453a2.785,2.785,0,0,1-.531,1.469,3.5,3.5,0,0,1-1.307,1.112,3.772,3.772,0,0,1-1.731.415,3.7,3.7,0,0,1-2.918-1.224,4.877,4.877,0,0,1-1.083-3.349v-.257A5.407,5.407,0,0,1,90.093,33a3.667,3.667,0,0,1,1.382-1.585,3.926,3.926,0,0,1,2.129-.564,3.6,3.6,0,0,1,2.511.9,3.234,3.234,0,0,1,1.067,2.349H95.729a2.116,2.116,0,0,0-.66-1.432,2.053,2.053,0,0,0-1.465-.56,2.149,2.149,0,0,0-1.814.843,3.957,3.957,0,0,0-.643,2.436v.291a3.878,3.878,0,0,0,.639,2.391A2.16,2.16,0,0,0,93.612,38.913Zm7.379-10.069v2.175h1.677v1.187h-1.677v5.577a1.247,1.247,0,0,0,.224.81.943.943,0,0,0,.764.27,3.718,3.718,0,0,0,.73-.1V40a4.478,4.478,0,0,1-1.179.165,1.912,1.912,0,0,1-1.552-.623,2.675,2.675,0,0,1-.523-1.768v-5.57H97.821V31.019h1.635V28.844Zm9.015,10.268a3.262,3.262,0,0,1-2.631,1.054,2.792,2.792,0,0,1-2.187-.834,3.611,3.611,0,0,1-.76-2.469V31.019h1.536v5.8q0,2.042,1.66,2.042a2.3,2.3,0,0,0,2.341-1.312V31.019H111.5V40h-1.461Zm9.372.888a3.226,3.226,0,0,1-.216-.946,3.426,3.426,0,0,1-2.557,1.112,3.17,3.17,0,0,1-2.179-.751,2.43,2.43,0,0,1-.851-1.905,2.539,2.539,0,0,1,1.067-2.179,5.029,5.029,0,0,1,3-.776h1.494v-.706a1.725,1.725,0,0,0-.481-1.282,1.935,1.935,0,0,0-1.419-.477,2.239,2.239,0,0,0-1.378.415,1.223,1.223,0,0,0-.556,1h-1.544a2.119,2.119,0,0,1,.477-1.3,3.258,3.258,0,0,1,1.295-.992,4.356,4.356,0,0,1,1.8-.365,3.551,3.551,0,0,1,2.432.776,2.8,2.8,0,0,1,.913,2.137V37.9a5.054,5.054,0,0,0,.315,1.967V40Zm-2.548-1.17a2.7,2.7,0,0,0,1.37-.374,2.259,2.259,0,0,0,.938-.971V35.642h-1.2q-2.822,0-2.822,1.652a1.4,1.4,0,0,0,.481,1.129A1.85,1.85,0,0,0,116.829,38.83ZM124.748,40h-1.536V27.25h1.536Zm4.125,0h-1.536V31.019h1.536Zm-1.66-11.364a.917.917,0,0,1,.228-.631.857.857,0,0,1,.677-.257.87.87,0,0,1,.681.257.907.907,0,0,1,.232.631.877.877,0,0,1-.232.623.886.886,0,0,1-.681.249.872.872,0,0,1-.677-.249A.886.886,0,0,1,127.214,28.636Zm3.744,6.8a5.261,5.261,0,0,1,.979-3.324A3.333,3.333,0,0,1,137,31.932V27.25h1.536V40h-1.411l-.075-.963a3.127,3.127,0,0,1-2.565,1.129,3.068,3.068,0,0,1-2.544-1.278,5.321,5.321,0,0,1-.984-3.337Zm1.536.174A3.984,3.984,0,0,0,133.124,38a2.039,2.039,0,0,0,1.743.863A2.24,2.24,0,0,0,137,37.551V33.426a2.257,2.257,0,0,0-2.117-1.27,2.049,2.049,0,0,0-1.76.872A4.386,4.386,0,0,0,132.493,35.609ZM146.463,40a3.226,3.226,0,0,1-.216-.946,3.426,3.426,0,0,1-2.557,1.112,3.17,3.17,0,0,1-2.179-.751,2.43,2.43,0,0,1-.851-1.905,2.539,2.539,0,0,1,1.067-2.179,5.029,5.029,0,0,1,3-.776h1.494v-.706a1.725,1.725,0,0,0-.481-1.282,1.935,1.935,0,0,0-1.419-.477,2.239,2.239,0,0,0-1.378.415,1.223,1.223,0,0,0-.556,1h-1.544a2.119,2.119,0,0,1,.477-1.3,3.258,3.258,0,0,1,1.295-.992,4.356,4.356,0,0,1,1.8-.365,3.551,3.551,0,0,1,2.432.776,2.8,2.8,0,0,1,.913,2.137V37.9a5.054,5.054,0,0,0,.315,1.967V40Zm-2.548-1.17a2.7,2.7,0,0,0,1.37-.374,2.259,2.259,0,0,0,.938-.971V35.642h-1.2q-2.822,0-2.822,1.652a1.4,1.4,0,0,0,.481,1.129A1.85,1.85,0,0,0,143.915,38.83Zm5.877-3.4a5.261,5.261,0,0,1,.979-3.324,3.333,3.333,0,0,1,5.063-.178V27.25h1.536V40h-1.411l-.075-.963a3.127,3.127,0,0,1-2.565,1.129,3.068,3.068,0,0,1-2.544-1.278,5.321,5.321,0,0,1-.984-3.337Zm1.536.174A3.984,3.984,0,0,0,151.958,38a2.039,2.039,0,0,0,1.743.863,2.24,2.24,0,0,0,2.133-1.312V33.426a2.257,2.257,0,0,0-2.117-1.27,2.049,2.049,0,0,0-1.76.872A4.386,4.386,0,0,0,151.327,35.609Zm11.97-.432a12.84,12.84,0,0,1-.486,3.549,10.493,10.493,0,0,1-1.486,3.134,6.51,6.51,0,0,1-2.1,2.042l-.324-.938a6.673,6.673,0,0,0,2.054-3.042,13.161,13.161,0,0,0,.793-4.578v-.266a13.665,13.665,0,0,0-.365-3.241,10.94,10.94,0,0,0-1.017-2.685,6.2,6.2,0,0,0-1.465-1.851l.324-.938a6.485,6.485,0,0,1,2.088,2.025,10.516,10.516,0,0,1,1.486,3.129A13.136,13.136,0,0,1,163.3,35.177Z" transform="translate(-8187.548 -10482.643)" fill="#12263f"/>
  </g>
</svg>
