<svg xmlns="http://www.w3.org/2000/svg" width="505" height="431" viewBox="0 0 505 431">
  <g id="Grupo_1016385" data-name="Grupo 1016385" transform="translate(8479 10800)">
    <rect id="Rectángulo_347008" data-name="Rectángulo 347008" width="505" height="431" transform="translate(-8479 -10800)" fill="#fff"/>
    <path id="Trazado_606978" data-name="Trazado 606978" d="M-8134.289-2053.633h356.349v134.374h-496.468v133.285h363.971" transform="translate(-201.383 -8673.406)" fill="none" stroke="#a3bfe4" stroke-width="4" stroke-dasharray="5"/>
    <path id="Trazado_606983" data-name="Trazado 606983" d="M-92,0l37.027,53.591L-92,107.184H103.034L144.952,53.31,103.034,0Z" transform="translate(-8379 -10780.632)" fill="#fffbe5"/>
    <path id="Trazado_606996" data-name="Trazado 606996" d="M-92,0l37.027,53.591L-92,107.184H103.034L144.952,53.31,103.034,0Z" transform="translate(-8371 -10514.632)" fill="#fffbe5"/>
    <path id="Trazado_606990" data-name="Trazado 606990" d="M-92,0l37.027,53.591L-92,107.184H103.034L144.952,53.31,103.034,0Z" transform="translate(-8077.096 -10537.816) rotate(180)" fill="#fffbe5"/>
    <path id="Trazado_606984" data-name="Trazado 606984" d="M-92,0l37.027,53.591L-92,107.184H104.034L145.952,53.31,104.034,0Z" transform="translate(-8139.048 -10780.632)" fill="#e3ecf7"/>
    <path id="Trazado_606994" data-name="Trazado 606994" d="M-92,0l37.027,53.591L-92,107.184H104.034L145.952,53.31,104.034,0Z" transform="translate(-8131.048 -10514.632)" fill="#e3ecf7"/>
    <path id="Trazado_606992" data-name="Trazado 606992" d="M-92,0l37.027,53.591L-92,107.184H104.034L145.952,53.31,104.034,0Z" transform="translate(-8317.048 -10537.816) rotate(180)" fill="#e3ecf7"/>
    <path id="Trazado_608881" data-name="Trazado 608881" d="M22.79,11.269V16H21.2V3.914h4.458a4.478,4.478,0,0,1,3.109,1.013,3.433,3.433,0,0,1,1.125,2.681,3.388,3.388,0,0,1-1.1,2.71,4.678,4.678,0,0,1-3.15.95Zm0-1.3h2.864a2.863,2.863,0,0,0,1.959-.6,2.2,2.2,0,0,0,.681-1.742,2.277,2.277,0,0,0-.681-1.73,2.682,2.682,0,0,0-1.868-.674H22.79Zm8.375,1.461a5.3,5.3,0,0,1,.519-2.374,3.87,3.87,0,0,1,1.444-1.627,3.932,3.932,0,0,1,2.113-.573,3.788,3.788,0,0,1,2.968,1.27A4.886,4.886,0,0,1,39.342,11.5v.108a5.351,5.351,0,0,1-.5,2.353A3.813,3.813,0,0,1,37.4,15.585a3.977,3.977,0,0,1-2.146.581A3.778,3.778,0,0,1,32.3,14.9a4.861,4.861,0,0,1-1.133-3.362Zm1.544.183a3.842,3.842,0,0,0,.693,2.4A2.349,2.349,0,0,0,37.117,14a4.2,4.2,0,0,0,.689-2.569,3.836,3.836,0,0,0-.7-2.395,2.23,2.23,0,0,0-1.864-.917,2.205,2.205,0,0,0-1.834.9A4.17,4.17,0,0,0,32.709,11.609ZM46.5,13.618a1.13,1.13,0,0,0-.469-.967,4.514,4.514,0,0,0-1.635-.594,7.731,7.731,0,0,1-1.851-.6,2.633,2.633,0,0,1-1.013-.83A1.986,1.986,0,0,1,41.2,9.484a2.33,2.33,0,0,1,.934-1.868,3.647,3.647,0,0,1,2.386-.764A3.753,3.753,0,0,1,47,7.641a2.5,2.5,0,0,1,.95,2.017H46.406a1.386,1.386,0,0,0-.535-1.087,2.006,2.006,0,0,0-1.349-.457,2.1,2.1,0,0,0-1.312.365,1.15,1.15,0,0,0-.473.955.932.932,0,0,0,.44.838,5.413,5.413,0,0,0,1.59.54,8.283,8.283,0,0,1,1.864.614,2.718,2.718,0,0,1,1.058.859,2.112,2.112,0,0,1,.344,1.224,2.3,2.3,0,0,1-.963,1.93,4.039,4.039,0,0,1-2.5.726,4.523,4.523,0,0,1-1.909-.382,3.105,3.105,0,0,1-1.3-1.067,2.571,2.571,0,0,1-.469-1.482H42.43a1.59,1.59,0,0,0,.618,1.224,2.4,2.4,0,0,0,1.523.452,2.476,2.476,0,0,0,1.4-.353A1.084,1.084,0,0,0,46.5,13.618Zm3.171-2.183a5.279,5.279,0,0,1,.971-3.341,3.348,3.348,0,0,1,5.138-.079l.075-1h1.4v8.766a3.654,3.654,0,0,1-1.033,2.748,3.814,3.814,0,0,1-2.777,1,4.619,4.619,0,0,1-1.9-.415,3.272,3.272,0,0,1-1.419-1.137l.8-.921a3,3,0,0,0,2.416,1.22,2.353,2.353,0,0,0,1.747-.631,2.411,2.411,0,0,0,.627-1.776V15.1A3.156,3.156,0,0,1,53.2,16.166a3.068,3.068,0,0,1-2.552-1.27A5.55,5.55,0,0,1,49.668,11.435Zm1.544.174A4.027,4.027,0,0,0,51.834,14a2.023,2.023,0,0,0,1.743.867,2.249,2.249,0,0,0,2.133-1.32v-4.1a2.276,2.276,0,0,0-2.117-1.287,2.041,2.041,0,0,0-1.751.872A4.386,4.386,0,0,0,51.212,11.609Zm13.9,3.5a3.262,3.262,0,0,1-2.631,1.054,2.792,2.792,0,0,1-2.187-.834,3.611,3.611,0,0,1-.76-2.469V7.019h1.536v5.8q0,2.042,1.66,2.042a2.3,2.3,0,0,0,2.341-1.312V7.019H66.61V16H65.149Zm7.554,1.054a3.924,3.924,0,0,1-2.972-1.2,4.452,4.452,0,0,1-1.146-3.208v-.282a5.39,5.39,0,0,1,.51-2.386A3.982,3.982,0,0,1,70.49,7.446a3.59,3.59,0,0,1,1.988-.594A3.364,3.364,0,0,1,75.2,8.006a5,5,0,0,1,.971,3.3v.639H70.088a3.193,3.193,0,0,0,.776,2.146,2.44,2.44,0,0,0,1.888.818,2.675,2.675,0,0,0,1.378-.332,3.462,3.462,0,0,0,.988-.88l.938.73A3.772,3.772,0,0,1,72.669,16.166Zm-.191-8.052a2.048,2.048,0,0,0-1.561.677,3.288,3.288,0,0,0-.78,1.9h4.5v-.116a2.925,2.925,0,0,0-.631-1.814A1.928,1.928,0,0,0,72.479,8.114ZM82.29,8.4a4.6,4.6,0,0,0-.755-.058,2.024,2.024,0,0,0-2.05,1.287V16H77.949V7.019h1.494l.025,1.038a2.391,2.391,0,0,1,2.142-1.2,1.569,1.569,0,0,1,.681.116Zm5.752,0a4.6,4.6,0,0,0-.755-.058,2.024,2.024,0,0,0-2.05,1.287V16H83.7V7.019H85.2l.025,1.038a2.391,2.391,0,0,1,2.142-1.2,1.569,1.569,0,0,1,.681.116ZM94.667,16a3.226,3.226,0,0,1-.216-.946,3.426,3.426,0,0,1-2.557,1.112,3.17,3.17,0,0,1-2.179-.751,2.43,2.43,0,0,1-.851-1.905,2.539,2.539,0,0,1,1.067-2.179,5.029,5.029,0,0,1,3-.776h1.494V9.849a1.725,1.725,0,0,0-.481-1.282,1.935,1.935,0,0,0-1.419-.477,2.239,2.239,0,0,0-1.378.415,1.223,1.223,0,0,0-.556,1H89.047a2.119,2.119,0,0,1,.477-1.3,3.258,3.258,0,0,1,1.295-.992,4.356,4.356,0,0,1,1.8-.365,3.551,3.551,0,0,1,2.432.776,2.8,2.8,0,0,1,.913,2.137V13.9a5.054,5.054,0,0,0,.315,1.967V16Zm-2.548-1.17a2.7,2.7,0,0,0,1.37-.374,2.259,2.259,0,0,0,.938-.971V11.642h-1.2q-2.822,0-2.822,1.652a1.4,1.4,0,0,0,.481,1.129A1.85,1.85,0,0,0,92.118,14.83Zm-78.9,20.265a12.834,12.834,0,0,1,.5-3.6,10.465,10.465,0,0,1,1.5-3.138,6.374,6.374,0,0,1,2.067-1.992l.315,1.013a6.611,6.611,0,0,0-1.988,2.839,12.307,12.307,0,0,0-.851,4.275l-.008.706a12.371,12.371,0,0,0,1.17,5.562A6.642,6.642,0,0,0,17.6,42.963l-.315.938a6.579,6.579,0,0,1-2.108-2.059A11.538,11.538,0,0,1,13.215,35.094ZM23.973,40H22.429V29.765l-3.1,1.137V29.508l4.4-1.652h.241Zm10.384-5.312a3.757,3.757,0,0,1-1.15.921,3.119,3.119,0,0,1-1.465.349,3.22,3.22,0,0,1-1.822-.515,3.346,3.346,0,0,1-1.2-1.448,4.938,4.938,0,0,1-.423-2.063,5.031,5.031,0,0,1,.461-2.183,3.384,3.384,0,0,1,1.307-1.486,3.728,3.728,0,0,1,1.976-.515,3.375,3.375,0,0,1,2.826,1.341A5.847,5.847,0,0,1,35.9,32.745v.448q0,3.528-1.395,5.151A5.358,5.358,0,0,1,30.3,40.008H30v-1.3h.324a4.228,4.228,0,0,0,2.922-.99A4.248,4.248,0,0,0,34.357,34.688Zm-2.366,0a2.371,2.371,0,0,0,1.424-.473,2.789,2.789,0,0,0,.95-1.17V32.43a4.226,4.226,0,0,0-.656-2.457,2,2,0,0,0-3.287-.17,3.2,3.2,0,0,0-.614,2.046,3.332,3.332,0,0,0,.594,2.038A1.879,1.879,0,0,0,31.991,34.688ZM45.937,40H38.018V38.9L42.2,34.248a9.939,9.939,0,0,0,1.282-1.714,2.861,2.861,0,0,0,.353-1.365,2.169,2.169,0,0,0-.573-1.552,2,2,0,0,0-1.527-.606,2.372,2.372,0,0,0-1.781.652,2.489,2.489,0,0,0-.635,1.814H37.785a3.565,3.565,0,0,1,1.075-2.7,3.985,3.985,0,0,1,2.876-1.029,3.829,3.829,0,0,1,2.665.884,3.015,3.015,0,0,1,.979,2.353q0,1.785-2.274,4.25l-3.237,3.511h6.068Zm2.333-6.06.614-6.026h6.192v1.419H50.187l-.365,3.3a3.9,3.9,0,0,1,2.017-.523A3.334,3.334,0,0,1,54.462,33.2a4.278,4.278,0,0,1,.971,2.951,4.129,4.129,0,0,1-1.009,2.943,3.676,3.676,0,0,1-2.818,1.075,3.82,3.82,0,0,1-2.615-.888,3.545,3.545,0,0,1-1.154-2.457H49.29a2.439,2.439,0,0,0,.739,1.565,2.3,2.3,0,0,0,1.577.527,2.072,2.072,0,0,0,1.681-.73,3.054,3.054,0,0,0,.61-2.017,2.8,2.8,0,0,0-.66-1.947,2.245,2.245,0,0,0-1.756-.735,2.532,2.532,0,0,0-1.577.44l-.407.332Zm12.194,1.552H56.412V34.239h4.051ZM66.846,40H65.3V29.765l-3.1,1.137V29.508l4.4-1.652h.241Zm10.384-5.312a3.757,3.757,0,0,1-1.15.921,3.119,3.119,0,0,1-1.465.349,3.22,3.22,0,0,1-1.822-.515,3.346,3.346,0,0,1-1.2-1.448,4.938,4.938,0,0,1-.423-2.063,5.031,5.031,0,0,1,.461-2.183,3.384,3.384,0,0,1,1.307-1.486,3.728,3.728,0,0,1,1.976-.515,3.375,3.375,0,0,1,2.826,1.341,5.847,5.847,0,0,1,1.033,3.656v.448q0,3.528-1.395,5.151a5.358,5.358,0,0,1-4.208,1.664h-.3v-1.3H73.2a4.228,4.228,0,0,0,2.922-.99A4.248,4.248,0,0,0,77.231,34.688Zm-2.366,0a2.371,2.371,0,0,0,1.424-.473,2.789,2.789,0,0,0,.95-1.17V32.43a4.226,4.226,0,0,0-.656-2.457A2,2,0,0,0,73.3,29.8a3.2,3.2,0,0,0-.614,2.046,3.332,3.332,0,0,0,.594,2.038A1.879,1.879,0,0,0,74.865,34.688Zm12.509,1.253h1.677v1.253H87.374V40H85.83V37.194h-5.5v-.9l5.412-8.375h1.635Zm-5.3,0h3.76V30.014l-.183.332Zm14.85,0H98.6v1.253H96.92V40H95.376V37.194h-5.5v-.9l5.412-8.375H96.92Zm-5.3,0h3.76V30.014l-.183.332Zm12.069-.764a12.84,12.84,0,0,1-.486,3.549,10.493,10.493,0,0,1-1.486,3.134,6.51,6.51,0,0,1-2.1,2.042l-.324-.938a6.673,6.673,0,0,0,2.054-3.042,13.161,13.161,0,0,0,.793-4.578v-.266a13.665,13.665,0,0,0-.365-3.241,10.94,10.94,0,0,0-1.017-2.685A6.2,6.2,0,0,0,99.294,27.3l.324-.938a6.485,6.485,0,0,1,2.088,2.025,10.516,10.516,0,0,1,1.486,3.129A13.136,13.136,0,0,1,103.685,35.177Z" transform="translate(-8407.523 -10752.835)" fill="#12263f"/>
    <path id="Trazado_606988" data-name="Trazado 606988" d="M-7669.983-8722.978l6.526,6.432-6.526,6.431" transform="translate(-762.517 -2010.097)" fill="none" stroke="#627289" stroke-linecap="round" stroke-width="2"/>
    <path id="Trazado_606995" data-name="Trazado 606995" d="M-7669.983-8722.978l6.526,6.432-6.526,6.431" transform="translate(-754.517 -1744.097)" fill="none" stroke="#627289" stroke-linecap="round" stroke-width="2"/>
    <path id="Trazado_606989" data-name="Trazado 606989" d="M-7669.983-8722.978l6.526,6.432-6.526,6.431" transform="translate(-15693.579 -19308.352) rotate(180)" fill="none" stroke="#627289" stroke-linecap="round" stroke-width="2"/>
    <path id="Trazado_606986" data-name="Trazado 606986" d="M-7669.983-8722.978l6.526,6.432-6.526,6.431" transform="translate(-522.565 -2010.097)" fill="none" stroke="#627289" stroke-linecap="round" stroke-width="2"/>
    <path id="Trazado_606993" data-name="Trazado 606993" d="M-7669.983-8722.978l6.526,6.432-6.526,6.431" transform="translate(-514.565 -1744.097)" fill="none" stroke="#627289" stroke-linecap="round" stroke-width="2"/>
    <path id="Trazado_606991" data-name="Trazado 606991" d="M-7669.983-8722.978l6.526,6.432-6.526,6.431" transform="translate(-15933.531 -19308.352) rotate(180)" fill="none" stroke="#627289" stroke-linecap="round" stroke-width="2"/>
    <g id="Grupo_1016383" data-name="Grupo 1016383" transform="translate(-8174.571 -10752.835)">
      <path id="Trazado_608882" data-name="Trazado 608882" d="M13.136,18l2.1-12.086,3.544.008a4.03,4.03,0,0,1,2.772.83,2.657,2.657,0,0,1,.805,2.316,3.142,3.142,0,0,1-2.183,2.615,2.25,2.25,0,0,1,1.216,1.079,3.016,3.016,0,0,1,.328,1.685,3.526,3.526,0,0,1-1.312,2.594A4.735,4.735,0,0,1,17.337,18Zm2.54-5.653-.755,4.341,2.465.008a2.953,2.953,0,0,0,1.893-.6,2.356,2.356,0,0,0,.888-1.632,1.935,1.935,0,0,0-.34-1.524,1.854,1.854,0,0,0-1.436-.58Zm.224-1.278,2.25.008a2.9,2.9,0,0,0,1.781-.541,2.119,2.119,0,0,0,.851-1.489,1.52,1.52,0,0,0-.344-1.331,2.205,2.205,0,0,0-1.5-.491l-2.374-.008ZM28.75,18a2.012,2.012,0,0,1-.058-.473l.025-.473a3.682,3.682,0,0,1-2.623,1.112,2.684,2.684,0,0,1-1.93-.751,2.274,2.274,0,0,1-.677-1.839,2.765,2.765,0,0,1,1.249-2.229,5.318,5.318,0,0,1,3.067-.8l1.569.008.1-.714a1.641,1.641,0,0,0-.311-1.274,1.5,1.5,0,0,0-1.183-.486,2.317,2.317,0,0,0-1.365.378,1.607,1.607,0,0,0-.726,1.042l-1.511.008a2.408,2.408,0,0,1,.614-1.4,3.574,3.574,0,0,1,1.386-.946,4.478,4.478,0,0,1,1.751-.32,2.978,2.978,0,0,1,2.183.851,2.639,2.639,0,0,1,.656,2.171l-.73,4.449-.042.639a3.133,3.133,0,0,0,.1.9L30.278,18Zm-2.357-1.162a2.62,2.62,0,0,0,1.365-.344,3.458,3.458,0,0,0,1.108-1l.324-1.851-1.137-.008a4.308,4.308,0,0,0-2.175.448,1.651,1.651,0,0,0-.855,1.27,1.286,1.286,0,0,0,.295,1.05A1.4,1.4,0,0,0,26.393,16.838Zm14.07-3.287a7,7,0,0,1-.755,2.482,4.231,4.231,0,0,1-1.428,1.635,3.249,3.249,0,0,1-1.859.506A2.773,2.773,0,0,1,34,16.954L33.7,18H32.311L34.528,5.25h1.5l-.9,4.765a3.3,3.3,0,0,1,2.623-1.162,2.505,2.505,0,0,1,2.017.955,4.2,4.2,0,0,1,.764,2.54,7.822,7.822,0,0,1-.05,1.029Zm-1.428-.866a3.2,3.2,0,0,0-.407-1.853,1.556,1.556,0,0,0-1.32-.676,2.734,2.734,0,0,0-2.374,1.409l-.672,3.9a1.912,1.912,0,0,0,1.868,1.4,2.183,2.183,0,0,0,1.54-.522,3.412,3.412,0,0,0,1-1.555A6.989,6.989,0,0,0,39.035,12.684Zm5.835,3.049,3.2-6.715h1.66L44.4,19.494q-1.112,2.183-2.855,2.158a4.893,4.893,0,0,1-.9-.149l.133-1.245.39.042a1.969,1.969,0,0,0,1.233-.32,2.945,2.945,0,0,0,.917-1.141l.54-1.029L42.3,9.019h1.569Zm16.983-2.183a7,7,0,0,1-.755,2.482,4.231,4.231,0,0,1-1.428,1.635,3.249,3.249,0,0,1-1.859.506,2.773,2.773,0,0,1-2.416-1.22L55.089,18H53.7L55.919,5.25h1.5l-.9,4.765a3.3,3.3,0,0,1,2.623-1.162,2.505,2.505,0,0,1,2.017.955,4.2,4.2,0,0,1,.764,2.54,7.822,7.822,0,0,1-.05,1.029Zm-1.428-.866a3.2,3.2,0,0,0-.407-1.853,1.556,1.556,0,0,0-1.32-.676,2.734,2.734,0,0,0-2.374,1.409l-.672,3.9a1.912,1.912,0,0,0,1.868,1.4,2.183,2.183,0,0,0,1.54-.522,3.412,3.412,0,0,0,1-1.555A6.989,6.989,0,0,0,60.426,12.684Zm7.6-3.832a3.237,3.237,0,0,1,1.934.614,3.49,3.49,0,0,1,1.191,1.648,5.1,5.1,0,0,1,.261,2.3l-.017.183a6.041,6.041,0,0,1-.78,2.37,4.578,4.578,0,0,1-1.61,1.648,3.927,3.927,0,0,1-2.167.556,3.243,3.243,0,0,1-1.93-.614,3.411,3.411,0,0,1-1.183-1.627,5.239,5.239,0,0,1-.266-2.266,6.12,6.12,0,0,1,.755-2.507,4.685,4.685,0,0,1,1.623-1.722A3.881,3.881,0,0,1,68.03,8.853Zm-3.055,4.814a5.1,5.1,0,0,0,0,1.087,2.664,2.664,0,0,0,.585,1.561,1.757,1.757,0,0,0,1.341.606,2.394,2.394,0,0,0,1.378-.369,3.1,3.1,0,0,0,1.063-1.191,5.016,5.016,0,0,0,.556-1.768,7.962,7.962,0,0,0,.025-1.287,2.765,2.765,0,0,0-.606-1.585,1.8,1.8,0,0,0-1.345-.614A2.448,2.448,0,0,0,66,11.019a4.511,4.511,0,0,0-1,2.457ZM77.517,8.853a3.237,3.237,0,0,1,1.934.614,3.49,3.49,0,0,1,1.191,1.648,5.1,5.1,0,0,1,.261,2.3l-.017.183a6.041,6.041,0,0,1-.78,2.37A4.578,4.578,0,0,1,78.5,17.61a3.927,3.927,0,0,1-2.167.556,3.243,3.243,0,0,1-1.93-.614,3.411,3.411,0,0,1-1.183-1.627,5.239,5.239,0,0,1-.266-2.266,6.12,6.12,0,0,1,.755-2.507A4.685,4.685,0,0,1,75.33,9.429,3.881,3.881,0,0,1,77.517,8.853Zm-3.055,4.814a5.1,5.1,0,0,0,0,1.087,2.664,2.664,0,0,0,.585,1.561,1.757,1.757,0,0,0,1.341.606,2.394,2.394,0,0,0,1.378-.369,3.1,3.1,0,0,0,1.063-1.191,5.016,5.016,0,0,0,.556-1.768,7.962,7.962,0,0,0,.025-1.287A2.765,2.765,0,0,0,78.8,10.72a1.8,1.8,0,0,0-1.345-.614,2.448,2.448,0,0,0-1.976.913,4.511,4.511,0,0,0-1,2.457ZM84.98,9.01l-.191,1A3.512,3.512,0,0,1,87.52,8.853a2.771,2.771,0,0,1,1.448.39,1.914,1.914,0,0,1,.818,1.054,3.708,3.708,0,0,1,2.98-1.444,2.375,2.375,0,0,1,1.984.9,3.232,3.232,0,0,1,.473,2.341L94.235,18H92.741l.979-5.918a3.127,3.127,0,0,0,0-.789q-.158-1.129-1.478-1.154a2.269,2.269,0,0,0-1.49.51,2.361,2.361,0,0,0-.859,1.382L88.873,18H87.362l1-5.91a1.9,1.9,0,0,0-.278-1.419,1.463,1.463,0,0,0-1.2-.515,2.46,2.46,0,0,0-2.233,1.278L83.51,18h-1.5l1.561-8.981Zm15.456,9.156a3.238,3.238,0,0,1-2.623-1.237,4.256,4.256,0,0,1-.8-3.08l.042-.357a5.976,5.976,0,0,1,.793-2.44,4.611,4.611,0,0,1,1.59-1.664,3.709,3.709,0,0,1,2.025-.535,2.856,2.856,0,0,1,2.175.921,3.789,3.789,0,0,1,.863,2.407,7.035,7.035,0,0,1-.033,1.079l-.091.689H98.51a3.034,3.034,0,0,0,.4,2.075,1.907,1.907,0,0,0,1.648.888,3.2,3.2,0,0,0,2.457-1.2l.863.73a3.951,3.951,0,0,1-1.457,1.274A4.129,4.129,0,0,1,100.436,18.166Zm.955-8.06a2.195,2.195,0,0,0-1.623.631,4.484,4.484,0,0,0-1.1,1.951l4.366.008.033-.133a2.457,2.457,0,0,0-.336-1.739A1.581,1.581,0,0,0,101.39,10.106Zm9.563.282-.706-.075a2.571,2.571,0,0,0-2.274,1.3L106.869,18h-1.5l1.561-8.981,1.453-.008-.224,1.046a2.685,2.685,0,0,1,2.25-1.22,2.756,2.756,0,0,1,.714.125Zm5.636,5.18q.125-.93-1.021-1.312l-1.561-.457q-1.976-.681-1.909-2.258A2.487,2.487,0,0,1,113.182,9.6a3.858,3.858,0,0,1,2.411-.743,3.216,3.216,0,0,1,2.212.793,2.511,2.511,0,0,1,.818,2.021l-1.494-.008a1.4,1.4,0,0,0-.423-1.1,1.675,1.675,0,0,0-1.17-.44,2.187,2.187,0,0,0-1.345.382,1.4,1.4,0,0,0-.606.979q-.108.78.955,1.137l.755.208a4.864,4.864,0,0,1,2.191,1.038,1.982,1.982,0,0,1,.6,1.585,2.518,2.518,0,0,1-.548,1.461,3.132,3.132,0,0,1-1.328.95,4.442,4.442,0,0,1-1.768.3,3.5,3.5,0,0,1-2.357-.834,2.579,2.579,0,0,1-.9-2.1l1.5.008a1.592,1.592,0,0,0,.481,1.212,1.84,1.84,0,0,0,1.32.457,2.588,2.588,0,0,0,1.419-.344A1.325,1.325,0,0,0,116.589,15.568ZM16.507,37.094a12.834,12.834,0,0,1,.5-3.6,10.465,10.465,0,0,1,1.5-3.138,6.374,6.374,0,0,1,2.067-1.992l.315,1.013A6.611,6.611,0,0,0,18.9,32.213a12.307,12.307,0,0,0-.851,4.275l-.008.706a12.371,12.371,0,0,0,1.17,5.562,6.642,6.642,0,0,0,1.677,2.208l-.315.938a6.579,6.579,0,0,1-2.108-2.059A11.538,11.538,0,0,1,16.507,37.094ZM27.264,42H25.72V31.765l-3.1,1.137V31.508l4.4-1.652h.241Zm10.384-5.312a3.757,3.757,0,0,1-1.15.921,3.119,3.119,0,0,1-1.465.349,3.22,3.22,0,0,1-1.822-.515,3.346,3.346,0,0,1-1.2-1.448,4.938,4.938,0,0,1-.423-2.063,5.031,5.031,0,0,1,.461-2.183,3.384,3.384,0,0,1,1.307-1.486,3.728,3.728,0,0,1,1.976-.515,3.375,3.375,0,0,1,2.826,1.341,5.847,5.847,0,0,1,1.033,3.656v.448q0,3.528-1.395,5.151a5.358,5.358,0,0,1-4.208,1.664h-.3v-1.3h.324a4.228,4.228,0,0,0,2.922-.99A4.248,4.248,0,0,0,37.649,36.688Zm-2.366,0a2.371,2.371,0,0,0,1.424-.473,2.789,2.789,0,0,0,.95-1.17V34.43A4.226,4.226,0,0,0,37,31.973a2,2,0,0,0-3.287-.17,3.2,3.2,0,0,0-.614,2.046,3.332,3.332,0,0,0,.594,2.038A1.879,1.879,0,0,0,35.283,36.688Zm12.509,1.253h1.677v1.253H47.792V42H46.248V39.194h-5.5v-.9l5.412-8.375h1.635Zm-5.3,0h3.76V32.014l-.183.332Zm9.073-2,.614-6.026h6.192v1.419H53.478l-.365,3.3a3.9,3.9,0,0,1,2.017-.523A3.334,3.334,0,0,1,57.753,35.2a4.278,4.278,0,0,1,.971,2.951,4.129,4.129,0,0,1-1.009,2.943A3.676,3.676,0,0,1,54.9,42.166a3.82,3.82,0,0,1-2.615-.888,3.545,3.545,0,0,1-1.154-2.457h1.453a2.439,2.439,0,0,0,.739,1.565,2.3,2.3,0,0,0,1.577.527,2.072,2.072,0,0,0,1.681-.73,3.054,3.054,0,0,0,.61-2.017,2.8,2.8,0,0,0-.66-1.947,2.245,2.245,0,0,0-1.756-.735,2.532,2.532,0,0,0-1.577.44l-.407.332Zm16.4,1.552H63.912V36.239h4.051ZM78.555,42H77.011V31.765l-3.1,1.137V31.508l4.4-1.652h.241Zm10.384-5.312a3.757,3.757,0,0,1-1.15.921,3.119,3.119,0,0,1-1.465.349,3.22,3.22,0,0,1-1.822-.515,3.346,3.346,0,0,1-1.2-1.448,4.938,4.938,0,0,1-.423-2.063,5.031,5.031,0,0,1,.461-2.183,3.384,3.384,0,0,1,1.307-1.486,3.728,3.728,0,0,1,1.976-.515,3.375,3.375,0,0,1,2.826,1.341,5.847,5.847,0,0,1,1.033,3.656v.448q0,3.528-1.395,5.151a5.358,5.358,0,0,1-4.208,1.664h-.3v-1.3h.324a3.657,3.657,0,0,0,4.034-4.018Zm-2.366,0A2.371,2.371,0,0,0,88,36.214a2.789,2.789,0,0,0,.95-1.17V34.43a4.226,4.226,0,0,0-.656-2.457A2,2,0,0,0,85,31.8a3.2,3.2,0,0,0-.614,2.046,3.332,3.332,0,0,0,.594,2.038A1.879,1.879,0,0,0,86.573,36.688Zm6.732-.747.614-6.026h6.192v1.419H95.223l-.365,3.3a3.9,3.9,0,0,1,2.017-.523A3.334,3.334,0,0,1,99.5,35.2a4.278,4.278,0,0,1,.971,2.951,4.129,4.129,0,0,1-1.009,2.943,3.676,3.676,0,0,1-2.818,1.075,3.82,3.82,0,0,1-2.615-.888,3.545,3.545,0,0,1-1.154-2.457h1.453a2.439,2.439,0,0,0,.739,1.565,2.3,2.3,0,0,0,1.577.527,2.072,2.072,0,0,0,1.681-.73,3.054,3.054,0,0,0,.61-2.017,2.8,2.8,0,0,0-.66-1.947,2.245,2.245,0,0,0-1.756-.735,2.532,2.532,0,0,0-1.577.44l-.407.332Zm14.726.747a3.757,3.757,0,0,1-1.15.921,3.119,3.119,0,0,1-1.465.349,3.22,3.22,0,0,1-1.822-.515,3.346,3.346,0,0,1-1.2-1.448,4.938,4.938,0,0,1-.423-2.063,5.031,5.031,0,0,1,.461-2.183,3.384,3.384,0,0,1,1.307-1.486,3.728,3.728,0,0,1,1.976-.515,3.375,3.375,0,0,1,2.826,1.341,5.847,5.847,0,0,1,1.033,3.656v.448q0,3.528-1.395,5.151a5.358,5.358,0,0,1-4.208,1.664h-.3v-1.3H104a3.657,3.657,0,0,0,4.034-4.018Zm-2.366,0a2.371,2.371,0,0,0,1.424-.473,2.789,2.789,0,0,0,.95-1.17V34.43a4.226,4.226,0,0,0-.656-2.457,2,2,0,0,0-3.287-.17,3.2,3.2,0,0,0-.614,2.046,3.332,3.332,0,0,0,.594,2.038A1.879,1.879,0,0,0,105.665,36.688Zm9.729.49a12.84,12.84,0,0,1-.486,3.549,10.493,10.493,0,0,1-1.486,3.134,6.51,6.51,0,0,1-2.1,2.042L111,44.963a6.673,6.673,0,0,0,2.054-3.042,13.161,13.161,0,0,0,.793-4.578v-.266a13.665,13.665,0,0,0-.365-3.241,10.94,10.94,0,0,0-1.017-2.685A6.2,6.2,0,0,0,111,29.3l.324-.938a6.485,6.485,0,0,1,2.088,2.025,10.516,10.516,0,0,1,1.486,3.129A13.136,13.136,0,0,1,115.394,37.177Z" fill="#12263f"/>
    </g>
    <path id="Trazado_608883" data-name="Trazado 608883" d="M25.523,14.415a3.682,3.682,0,0,1-1.714,1.316,6.924,6.924,0,0,1-2.561.436,4.966,4.966,0,0,1-2.623-.693A4.618,4.618,0,0,1,16.853,13.5a6.809,6.809,0,0,1-.643-2.963V9.484A6.356,6.356,0,0,1,17.484,5.25a4.44,4.44,0,0,1,3.582-1.5,4.586,4.586,0,0,1,3.046.967,4.213,4.213,0,0,1,1.411,2.743H23.93a2.635,2.635,0,0,0-2.855-2.407,2.821,2.821,0,0,0-2.428,1.126,5.5,5.5,0,0,0-.834,3.261v.989a5.151,5.151,0,0,0,.93,3.236,3.014,3.014,0,0,0,2.515,1.2,5.555,5.555,0,0,0,1.569-.2,2.426,2.426,0,0,0,1.112-.671V11.285h-2.8v-1.3h4.383Zm6.143,1.751a3.924,3.924,0,0,1-2.972-1.2,4.452,4.452,0,0,1-1.146-3.208v-.282a5.39,5.39,0,0,1,.51-2.386,3.982,3.982,0,0,1,1.428-1.644,3.59,3.59,0,0,1,1.988-.594A3.364,3.364,0,0,1,34.2,8.006a5,5,0,0,1,.971,3.3v.639H29.084a3.193,3.193,0,0,0,.776,2.146,2.44,2.44,0,0,0,1.888.818,2.675,2.675,0,0,0,1.378-.332,3.462,3.462,0,0,0,.988-.88l.938.73A3.772,3.772,0,0,1,31.666,16.166Zm-.191-8.052a2.048,2.048,0,0,0-1.561.677,3.288,3.288,0,0,0-.78,1.9h4.5v-.116A2.925,2.925,0,0,0,33,8.758,1.928,1.928,0,0,0,31.475,8.114Zm6.923-1.1.05,1.129a3.273,3.273,0,0,1,2.689-1.295q2.847,0,2.872,3.212V16H42.474V10.057a2.068,2.068,0,0,0-.444-1.436,1.78,1.78,0,0,0-1.357-.465,2.216,2.216,0,0,0-1.312.4,2.706,2.706,0,0,0-.88,1.046V16H36.945V7.019Zm11.654,9.147a3.924,3.924,0,0,1-2.972-1.2,4.452,4.452,0,0,1-1.146-3.208v-.282a5.39,5.39,0,0,1,.51-2.386,3.982,3.982,0,0,1,1.428-1.644,3.59,3.59,0,0,1,1.988-.594,3.364,3.364,0,0,1,2.723,1.154,5,5,0,0,1,.971,3.3v.639H47.471a3.193,3.193,0,0,0,.776,2.146,2.44,2.44,0,0,0,1.888.818,2.675,2.675,0,0,0,1.378-.332,3.462,3.462,0,0,0,.988-.88l.938.73A3.772,3.772,0,0,1,50.052,16.166Zm-.191-8.052a2.048,2.048,0,0,0-1.561.677,3.288,3.288,0,0,0-.78,1.9h4.5v-.116a2.925,2.925,0,0,0-.631-1.814A1.928,1.928,0,0,0,49.861,8.114Zm9.812.282a4.6,4.6,0,0,0-.755-.058,2.024,2.024,0,0,0-2.05,1.287V16H55.332V7.019h1.494l.025,1.038a2.391,2.391,0,0,1,2.142-1.2,1.569,1.569,0,0,1,.681.116ZM66.3,16a3.226,3.226,0,0,1-.216-.946,3.426,3.426,0,0,1-2.557,1.112,3.17,3.17,0,0,1-2.179-.751,2.43,2.43,0,0,1-.851-1.905,2.539,2.539,0,0,1,1.067-2.179,5.029,5.029,0,0,1,3-.776h1.494V9.849a1.725,1.725,0,0,0-.481-1.282,1.935,1.935,0,0,0-1.419-.477,2.239,2.239,0,0,0-1.378.415,1.223,1.223,0,0,0-.556,1H60.677a2.119,2.119,0,0,1,.477-1.3,3.258,3.258,0,0,1,1.295-.992,4.356,4.356,0,0,1,1.8-.365,3.551,3.551,0,0,1,2.432.776,2.8,2.8,0,0,1,.913,2.137V13.9a5.054,5.054,0,0,0,.315,1.967V16Zm-2.548-1.17a2.7,2.7,0,0,0,1.37-.374,2.259,2.259,0,0,0,.938-.971V11.642h-1.2q-2.822,0-2.822,1.652a1.4,1.4,0,0,0,.481,1.129A1.85,1.85,0,0,0,63.749,14.83Zm9.853.083a2.212,2.212,0,0,0,1.436-.5,1.752,1.752,0,0,0,.681-1.245h1.453a2.785,2.785,0,0,1-.531,1.469,3.5,3.5,0,0,1-1.307,1.112,3.772,3.772,0,0,1-1.731.415,3.7,3.7,0,0,1-2.918-1.224A4.877,4.877,0,0,1,69.6,11.592v-.257A5.407,5.407,0,0,1,70.082,9a3.667,3.667,0,0,1,1.382-1.585,3.926,3.926,0,0,1,2.129-.564,3.6,3.6,0,0,1,2.511.9,3.234,3.234,0,0,1,1.067,2.349H75.718a2.116,2.116,0,0,0-.66-1.432,2.053,2.053,0,0,0-1.465-.56,2.149,2.149,0,0,0-1.814.843,3.957,3.957,0,0,0-.643,2.436v.291a3.878,3.878,0,0,0,.639,2.391A2.16,2.16,0,0,0,73.6,14.913ZM80.566,16H79.03V7.019h1.536ZM78.906,4.636a.917.917,0,0,1,.228-.631.857.857,0,0,1,.677-.257.87.87,0,0,1,.681.257.907.907,0,0,1,.232.631.877.877,0,0,1-.232.623.886.886,0,0,1-.681.249.872.872,0,0,1-.677-.249A.886.886,0,0,1,78.906,4.636Zm3.71,6.79a5.3,5.3,0,0,1,.519-2.374,3.87,3.87,0,0,1,1.444-1.627,3.932,3.932,0,0,1,2.113-.573,3.788,3.788,0,0,1,2.968,1.27A4.886,4.886,0,0,1,90.792,11.5v.108a5.351,5.351,0,0,1-.5,2.353,3.813,3.813,0,0,1-1.436,1.623,3.977,3.977,0,0,1-2.146.581,3.778,3.778,0,0,1-2.959-1.27,4.861,4.861,0,0,1-1.133-3.362Zm1.544.183a3.842,3.842,0,0,0,.693,2.4A2.349,2.349,0,0,0,88.568,14a4.2,4.2,0,0,0,.689-2.569,3.836,3.836,0,0,0-.7-2.395,2.23,2.23,0,0,0-1.864-.917,2.205,2.205,0,0,0-1.834.9A4.17,4.17,0,0,0,84.16,11.609ZM87.389,3.25h1.859L87.024,5.69l-1.237,0Zm6.782,3.769.05,1.129A3.273,3.273,0,0,1,96.91,6.853q2.847,0,2.872,3.212V16H98.247V10.057A2.068,2.068,0,0,0,97.8,8.621a1.78,1.78,0,0,0-1.357-.465,2.216,2.216,0,0,0-1.312.4,2.706,2.706,0,0,0-.88,1.046V16H92.718V7.019ZM110.49,8.546l2.9-4.632h1.876l-3.818,5.993L115.354,16h-1.893l-2.972-4.715L107.5,16h-1.884l3.918-6.093-3.827-5.993h1.868ZM16.007,35.094a12.834,12.834,0,0,1,.5-3.6,10.465,10.465,0,0,1,1.5-3.138,6.374,6.374,0,0,1,2.067-1.992l.315,1.013A6.611,6.611,0,0,0,18.4,30.213a12.307,12.307,0,0,0-.851,4.275l-.008.706a12.371,12.371,0,0,0,1.17,5.562,6.642,6.642,0,0,0,1.677,2.208l-.315.938a6.579,6.579,0,0,1-2.108-2.059A11.538,11.538,0,0,1,16.007,35.094ZM26.764,40H25.22V29.765l-3.1,1.137V29.508l4.4-1.652h.241Zm10.384-5.312a3.757,3.757,0,0,1-1.15.921,3.119,3.119,0,0,1-1.465.349,3.22,3.22,0,0,1-1.822-.515,3.346,3.346,0,0,1-1.2-1.448,4.938,4.938,0,0,1-.423-2.063,5.031,5.031,0,0,1,.461-2.183,3.384,3.384,0,0,1,1.307-1.486,3.728,3.728,0,0,1,1.976-.515,3.375,3.375,0,0,1,2.826,1.341,5.847,5.847,0,0,1,1.033,3.656v.448q0,3.528-1.395,5.151a5.358,5.358,0,0,1-4.208,1.664h-.3v-1.3h.324a4.228,4.228,0,0,0,2.922-.99A4.248,4.248,0,0,0,37.149,34.688Zm-2.366,0a2.371,2.371,0,0,0,1.424-.473,2.789,2.789,0,0,0,.95-1.17V32.43a4.226,4.226,0,0,0-.656-2.457,2,2,0,0,0-3.287-.17,3.2,3.2,0,0,0-.614,2.046,3.332,3.332,0,0,0,.594,2.038A1.879,1.879,0,0,0,34.783,34.688Zm12.053-6.782v1.3h-.282A4.043,4.043,0,0,0,43.7,30.271a4.421,4.421,0,0,0-1.229,2.9,3.278,3.278,0,0,1,2.606-1.1A3.134,3.134,0,0,1,47.6,33.185a4.29,4.29,0,0,1,.942,2.872,4.277,4.277,0,0,1-1.017,2.988,3.5,3.5,0,0,1-2.727,1.121,3.45,3.45,0,0,1-2.814-1.332A5.28,5.28,0,0,1,40.9,35.4v-.589a7.956,7.956,0,0,1,1.424-5.1,5.228,5.228,0,0,1,4.238-1.805Zm-2.017,5.445a2.581,2.581,0,0,0-2.374,1.66v.564a3.965,3.965,0,0,0,.672,2.407,2.015,2.015,0,0,0,1.677.913,1.952,1.952,0,0,0,1.631-.764,3.668,3.668,0,0,0-.008-4.013A1.929,1.929,0,0,0,44.819,33.351Zm13.115,1.494a7.023,7.023,0,0,1-.921,4.009,3.829,3.829,0,0,1-5.744.029,6.666,6.666,0,0,1-.963-3.831V33a6.867,6.867,0,0,1,.921-3.959A3.9,3.9,0,0,1,56.988,29a6.627,6.627,0,0,1,.946,3.856Zm-1.536-2.1A5.627,5.627,0,0,0,55.85,29.9a1.886,1.886,0,0,0-1.735-.892A1.861,1.861,0,0,0,52.4,29.9a5.494,5.494,0,0,0-.556,2.731v2.457a5.717,5.717,0,0,0,.569,2.893,1.882,1.882,0,0,0,1.722.934,1.856,1.856,0,0,0,1.689-.88A5.51,5.51,0,0,0,56.4,35.26Zm11.065,2.748H63.412V34.239h4.051ZM78.055,40H76.511V29.765l-3.1,1.137V29.508l4.4-1.652h.241Zm10.384-5.312a3.757,3.757,0,0,1-1.15.921,3.119,3.119,0,0,1-1.465.349A3.22,3.22,0,0,1,84,35.443a3.346,3.346,0,0,1-1.2-1.448,4.938,4.938,0,0,1-.423-2.063,5.031,5.031,0,0,1,.461-2.183,3.384,3.384,0,0,1,1.307-1.486,3.728,3.728,0,0,1,1.976-.515,3.375,3.375,0,0,1,2.826,1.341,5.847,5.847,0,0,1,1.033,3.656v.448q0,3.528-1.395,5.151a5.358,5.358,0,0,1-4.208,1.664h-.3v-1.3h.324a4.228,4.228,0,0,0,2.922-.99A4.248,4.248,0,0,0,88.439,34.688Zm-2.366,0a2.371,2.371,0,0,0,1.424-.473,2.789,2.789,0,0,0,.95-1.17V32.43a4.226,4.226,0,0,0-.656-2.457A2,2,0,0,0,84.5,29.8a3.2,3.2,0,0,0-.614,2.046,3.332,3.332,0,0,0,.594,2.038A1.879,1.879,0,0,0,86.073,34.688Zm13.356-3.619a2.807,2.807,0,0,1-.477,1.61,3.248,3.248,0,0,1-1.291,1.1,3.464,3.464,0,0,1,1.5,1.187,2.987,2.987,0,0,1,.552,1.768,3.158,3.158,0,0,1-1.058,2.5,4.64,4.64,0,0,1-5.578,0,3.173,3.173,0,0,1-1.05-2.494,3.076,3.076,0,0,1,.535-1.768,3.332,3.332,0,0,1,1.482-1.2,3.167,3.167,0,0,1-1.27-1.1,2.846,2.846,0,0,1-.465-1.6,3.124,3.124,0,0,1,.979-2.424,4.159,4.159,0,0,1,5.159,0A3.117,3.117,0,0,1,99.429,31.068ZM98.176,36.7a2.228,2.228,0,0,0-.643-1.652,2.281,2.281,0,0,0-1.681-.639A2.161,2.161,0,0,0,93.561,36.7a2.145,2.145,0,0,0,.61,1.619,2.726,2.726,0,0,0,3.391,0A2.14,2.14,0,0,0,98.176,36.7ZM95.868,29.01a1.981,1.981,0,0,0-1.465.56,2.319,2.319,0,0,0-.008,3.013,2.193,2.193,0,0,0,2.947,0,2.272,2.272,0,0,0-.021-2.992A1.954,1.954,0,0,0,95.868,29.01Zm13.356,5.835a7.023,7.023,0,0,1-.921,4.009,3.829,3.829,0,0,1-5.744.029,6.666,6.666,0,0,1-.963-3.831V33a6.867,6.867,0,0,1,.921-3.959A3.9,3.9,0,0,1,108.278,29a6.627,6.627,0,0,1,.946,3.856Zm-1.536-2.1a5.627,5.627,0,0,0-.548-2.843,1.886,1.886,0,0,0-1.735-.892,1.861,1.861,0,0,0-1.718.888,5.494,5.494,0,0,0-.556,2.731v2.457a5.717,5.717,0,0,0,.569,2.893,1.882,1.882,0,0,0,1.722.934,1.856,1.856,0,0,0,1.689-.88,5.51,5.51,0,0,0,.577-2.772Zm7.205,2.432a12.84,12.84,0,0,1-.486,3.549,10.493,10.493,0,0,1-1.486,3.134,6.51,6.51,0,0,1-2.1,2.042l-.324-.938a6.673,6.673,0,0,0,2.054-3.042,13.161,13.161,0,0,0,.793-4.578v-.266a13.665,13.665,0,0,0-.365-3.241,10.94,10.94,0,0,0-1.017-2.685A6.2,6.2,0,0,0,110.5,27.3l.324-.938a6.485,6.485,0,0,1,2.088,2.025,10.516,10.516,0,0,1,1.486,3.129A13.136,13.136,0,0,1,114.894,35.177Z" transform="translate(-8174.571 -10614)" fill="#12263f"/>
    <path id="Trazado_608884" data-name="Trazado 608884" d="M16.711,16.7h5.728V18h-7.33V5.914h1.6Zm6.9-3.271a5.3,5.3,0,0,1,.519-2.374,3.87,3.87,0,0,1,1.444-1.627,3.932,3.932,0,0,1,2.113-.573,3.788,3.788,0,0,1,2.968,1.27A4.886,4.886,0,0,1,31.785,13.5v.108a5.351,5.351,0,0,1-.5,2.353,3.813,3.813,0,0,1-1.436,1.623,3.977,3.977,0,0,1-2.146.581,3.778,3.778,0,0,1-2.959-1.27,4.861,4.861,0,0,1-1.133-3.362Zm1.544.183a3.842,3.842,0,0,0,.693,2.4A2.349,2.349,0,0,0,29.561,16a4.2,4.2,0,0,0,.689-2.569,3.836,3.836,0,0,0-.7-2.395,2.23,2.23,0,0,0-1.864-.917,2.205,2.205,0,0,0-1.834.9A4.17,4.17,0,0,0,25.153,13.609Zm13.788,2.009a1.13,1.13,0,0,0-.469-.967,4.514,4.514,0,0,0-1.635-.594,7.731,7.731,0,0,1-1.851-.6,2.633,2.633,0,0,1-1.013-.83,1.986,1.986,0,0,1-.328-1.146,2.33,2.33,0,0,1,.934-1.868,3.647,3.647,0,0,1,2.386-.764,3.753,3.753,0,0,1,2.478.789,2.5,2.5,0,0,1,.95,2.017H38.849a1.386,1.386,0,0,0-.535-1.087,2.006,2.006,0,0,0-1.349-.457,2.1,2.1,0,0,0-1.312.365,1.15,1.15,0,0,0-.473.955.932.932,0,0,0,.44.838,5.413,5.413,0,0,0,1.59.54,8.283,8.283,0,0,1,1.864.614,2.718,2.718,0,0,1,1.058.859,2.112,2.112,0,0,1,.344,1.224,2.3,2.3,0,0,1-.963,1.93,4.039,4.039,0,0,1-2.5.726,4.523,4.523,0,0,1-1.909-.382,3.105,3.105,0,0,1-1.3-1.067,2.571,2.571,0,0,1-.469-1.482h1.536a1.59,1.59,0,0,0,.618,1.224,2.4,2.4,0,0,0,1.523.452,2.476,2.476,0,0,0,1.4-.353A1.084,1.084,0,0,0,38.941,15.618Zm9.8-6.607-.191,1a3.512,3.512,0,0,1,2.731-1.162,2.771,2.771,0,0,1,1.448.39A1.914,1.914,0,0,1,53.55,10.3a3.708,3.708,0,0,1,2.98-1.444,2.375,2.375,0,0,1,1.984.9,3.232,3.232,0,0,1,.473,2.341L58,18H56.505l.979-5.918a3.127,3.127,0,0,0,0-.789q-.158-1.129-1.478-1.154a2.269,2.269,0,0,0-1.49.51,2.361,2.361,0,0,0-.859,1.382L52.637,18H51.126l1-5.91a1.9,1.9,0,0,0-.278-1.419,1.463,1.463,0,0,0-1.2-.515,2.46,2.46,0,0,0-2.233,1.278L47.275,18h-1.5l1.561-8.981ZM61.942,18H60.448l1.561-8.981H63.5ZM63.179,5.74a.822.822,0,0,1,.635.228.854.854,0,0,1,.253.643.886.886,0,0,1-.888.9.828.828,0,0,1-.639-.224.812.812,0,0,1-.241-.631.942.942,0,0,1,.249-.647A.878.878,0,0,1,63.179,5.74ZM66.026,18H64.532L66.74,5.25h1.5Zm4.084,0H68.616L70.824,5.25h1.5Zm6.342.166a3.238,3.238,0,0,1-2.623-1.237,4.256,4.256,0,0,1-.8-3.08l.042-.357a5.976,5.976,0,0,1,.793-2.44,4.611,4.611,0,0,1,1.59-1.664,3.709,3.709,0,0,1,2.025-.535,2.856,2.856,0,0,1,2.175.921,3.789,3.789,0,0,1,.863,2.407,7.035,7.035,0,0,1-.033,1.079l-.091.689H74.526a3.034,3.034,0,0,0,.4,2.075,1.907,1.907,0,0,0,1.648.888,3.2,3.2,0,0,0,2.457-1.2l.863.73a3.951,3.951,0,0,1-1.457,1.274A4.129,4.129,0,0,1,76.452,18.166Zm.955-8.06a2.195,2.195,0,0,0-1.623.631,4.484,4.484,0,0,0-1.1,1.951l4.366.008.033-.133a2.457,2.457,0,0,0-.336-1.739A1.581,1.581,0,0,0,77.406,10.106Zm6.956-1.1-.216,1.137A3.541,3.541,0,0,1,86.9,8.853a2.228,2.228,0,0,1,1.876.88,3.418,3.418,0,0,1,.448,2.382L88.247,18h-1.5l.988-5.9a3.147,3.147,0,0,0,.008-.755,1.241,1.241,0,0,0-1.37-1.186A2.828,2.828,0,0,0,84,11.6L82.885,18h-1.5l1.561-8.981Zm9.181,0-.216,1.137a3.541,3.541,0,0,1,2.756-1.295,2.228,2.228,0,0,1,1.876.88,3.418,3.418,0,0,1,.448,2.382L97.428,18h-1.5l.988-5.9a3.147,3.147,0,0,0,.008-.755,1.241,1.241,0,0,0-1.37-1.186A2.828,2.828,0,0,0,93.178,11.6L92.066,18h-1.5l1.561-8.981ZM101.371,18H99.877l1.561-8.981h1.494Zm1.237-12.26a.822.822,0,0,1,.635.228.854.854,0,0,1,.253.643.886.886,0,0,1-.888.9.828.828,0,0,1-.639-.224.812.812,0,0,1-.241-.631.942.942,0,0,1,.249-.647A.878.878,0,0,1,102.608,5.74ZM109.323,18a2.012,2.012,0,0,1-.058-.473l.025-.473a3.682,3.682,0,0,1-2.623,1.112,2.684,2.684,0,0,1-1.93-.751,2.274,2.274,0,0,1-.677-1.839,2.765,2.765,0,0,1,1.249-2.229,5.318,5.318,0,0,1,3.067-.8l1.569.008.1-.714a1.641,1.641,0,0,0-.311-1.274,1.5,1.5,0,0,0-1.183-.486,2.317,2.317,0,0,0-1.365.378,1.607,1.607,0,0,0-.726,1.042l-1.511.008a2.408,2.408,0,0,1,.614-1.4,3.574,3.574,0,0,1,1.386-.946,4.478,4.478,0,0,1,1.751-.32,2.978,2.978,0,0,1,2.183.851,2.639,2.639,0,0,1,.656,2.171l-.73,4.449-.042.639a3.133,3.133,0,0,0,.1.9L110.85,18Zm-2.357-1.162a2.62,2.62,0,0,0,1.365-.344,3.458,3.458,0,0,0,1.108-1l.324-1.851-1.137-.008a4.308,4.308,0,0,0-2.175.448,1.651,1.651,0,0,0-.855,1.27,1.286,1.286,0,0,0,.295,1.05A1.4,1.4,0,0,0,106.966,16.838ZM114.511,18h-1.494l2.208-12.75h1.5Zm8.019-2.432q.125-.93-1.021-1.312l-1.561-.457q-1.976-.681-1.909-2.258A2.487,2.487,0,0,1,119.122,9.6a3.858,3.858,0,0,1,2.411-.743,3.216,3.216,0,0,1,2.212.793,2.511,2.511,0,0,1,.818,2.021l-1.494-.008a1.4,1.4,0,0,0-.423-1.1,1.675,1.675,0,0,0-1.17-.44,2.187,2.187,0,0,0-1.345.382,1.4,1.4,0,0,0-.606.979q-.108.78.955,1.137l.755.208a4.864,4.864,0,0,1,2.191,1.038,1.982,1.982,0,0,1,.6,1.585,2.518,2.518,0,0,1-.548,1.461,3.132,3.132,0,0,1-1.328.95,4.442,4.442,0,0,1-1.768.3,3.5,3.5,0,0,1-2.357-.834,2.579,2.579,0,0,1-.9-2.1l1.5.008a1.592,1.592,0,0,0,.481,1.212,1.84,1.84,0,0,0,1.32.457,2.588,2.588,0,0,0,1.419-.344A1.325,1.325,0,0,0,122.53,15.568ZM24.215,37.094a12.834,12.834,0,0,1,.5-3.6,10.465,10.465,0,0,1,1.5-3.138,6.374,6.374,0,0,1,2.067-1.992l.315,1.013a6.611,6.611,0,0,0-1.988,2.839,12.307,12.307,0,0,0-.851,4.275l-.008.706a12.371,12.371,0,0,0,1.17,5.562A6.642,6.642,0,0,0,28.6,44.963l-.315.938a6.579,6.579,0,0,1-2.108-2.059A11.538,11.538,0,0,1,24.215,37.094ZM34.973,42H33.429V31.765l-3.1,1.137V31.508l4.4-1.652h.241Zm10.384-5.312a3.757,3.757,0,0,1-1.15.921,3.119,3.119,0,0,1-1.465.349,3.22,3.22,0,0,1-1.822-.515,3.346,3.346,0,0,1-1.2-1.448,4.938,4.938,0,0,1-.423-2.063,5.031,5.031,0,0,1,.461-2.183,3.384,3.384,0,0,1,1.307-1.486,3.728,3.728,0,0,1,1.976-.515,3.375,3.375,0,0,1,2.826,1.341A5.847,5.847,0,0,1,46.9,34.745v.448q0,3.528-1.395,5.151A5.358,5.358,0,0,1,41.3,42.008H41v-1.3h.324a3.657,3.657,0,0,0,4.034-4.018Zm-2.366,0a2.371,2.371,0,0,0,1.424-.473,2.789,2.789,0,0,0,.95-1.17V34.43a4.226,4.226,0,0,0-.656-2.457,2,2,0,0,0-3.287-.17,3.2,3.2,0,0,0-.614,2.046,3.332,3.332,0,0,0,.594,2.038A1.879,1.879,0,0,0,42.991,36.688Zm13.356-3.619a2.807,2.807,0,0,1-.477,1.61,3.248,3.248,0,0,1-1.291,1.1,3.464,3.464,0,0,1,1.5,1.187,2.987,2.987,0,0,1,.552,1.768,3.158,3.158,0,0,1-1.058,2.5,4.64,4.64,0,0,1-5.578,0,3.173,3.173,0,0,1-1.05-2.494,3.076,3.076,0,0,1,.535-1.768,3.332,3.332,0,0,1,1.482-1.2,3.167,3.167,0,0,1-1.27-1.1,2.846,2.846,0,0,1-.465-1.6,3.124,3.124,0,0,1,.979-2.424,4.159,4.159,0,0,1,5.159,0A3.117,3.117,0,0,1,56.347,33.068ZM55.094,38.7a2.228,2.228,0,0,0-.643-1.652,2.281,2.281,0,0,0-1.681-.639A2.161,2.161,0,0,0,50.479,38.7a2.145,2.145,0,0,0,.61,1.619,2.726,2.726,0,0,0,3.391,0A2.14,2.14,0,0,0,55.094,38.7ZM52.786,31.01a1.981,1.981,0,0,0-1.465.56,2.319,2.319,0,0,0-.008,3.013,2.193,2.193,0,0,0,2.947,0,2.272,2.272,0,0,0-.021-2.992A1.954,1.954,0,0,0,52.786,31.01ZM63.611,42H62.067V31.765L58.97,32.9V31.508l4.4-1.652h.241Zm7.853-4.507H67.412V36.239h4.051ZM77.846,42H76.3V31.765l-3.1,1.137V31.508l4.4-1.652h.241Zm10.384-5.312a3.757,3.757,0,0,1-1.15.921,3.119,3.119,0,0,1-1.465.349,3.22,3.22,0,0,1-1.822-.515,3.346,3.346,0,0,1-1.2-1.448,4.938,4.938,0,0,1-.423-2.063,5.031,5.031,0,0,1,.461-2.183,3.384,3.384,0,0,1,1.307-1.486,3.728,3.728,0,0,1,1.976-.515,3.375,3.375,0,0,1,2.826,1.341,5.847,5.847,0,0,1,1.033,3.656v.448q0,3.528-1.395,5.151a5.358,5.358,0,0,1-4.208,1.664h-.3v-1.3H84.2a3.657,3.657,0,0,0,4.034-4.018Zm-2.366,0a2.371,2.371,0,0,0,1.424-.473,2.789,2.789,0,0,0,.95-1.17V34.43a4.226,4.226,0,0,0-.656-2.457A2,2,0,0,0,84.3,31.8a3.2,3.2,0,0,0-.614,2.046,3.332,3.332,0,0,0,.594,2.038A1.879,1.879,0,0,0,85.865,36.688Zm11.912,0a3.757,3.757,0,0,1-1.15.921,3.119,3.119,0,0,1-1.465.349,3.22,3.22,0,0,1-1.822-.515,3.346,3.346,0,0,1-1.2-1.448,4.938,4.938,0,0,1-.423-2.063,5.031,5.031,0,0,1,.461-2.183,3.384,3.384,0,0,1,1.307-1.486,3.728,3.728,0,0,1,1.976-.515,3.375,3.375,0,0,1,2.826,1.341,5.847,5.847,0,0,1,1.033,3.656v.448q0,3.528-1.395,5.151a5.358,5.358,0,0,1-4.208,1.664h-.3v-1.3h.324a3.657,3.657,0,0,0,4.034-4.018Zm-2.366,0a2.371,2.371,0,0,0,1.424-.473,2.789,2.789,0,0,0,.95-1.17V34.43a4.226,4.226,0,0,0-.656-2.457,2,2,0,0,0-3.287-.17,3.2,3.2,0,0,0-.614,2.046,3.332,3.332,0,0,0,.594,2.038A1.879,1.879,0,0,0,95.411,36.688Zm8.259-1.478h1.154a2.536,2.536,0,0,0,1.71-.573,1.914,1.914,0,0,0,.623-1.5,1.875,1.875,0,0,0-2.117-2.125,2.2,2.2,0,0,0-1.59.569,1.99,1.99,0,0,0-.594,1.507h-1.536a3.083,3.083,0,0,1,1.05-2.386,3.825,3.825,0,0,1,2.669-.95,3.78,3.78,0,0,1,2.681.9,3.269,3.269,0,0,1,.971,2.515,2.653,2.653,0,0,1-.51,1.527,3.082,3.082,0,0,1-1.39,1.1,2.97,2.97,0,0,1,1.54,1.046,2.9,2.9,0,0,1,.544,1.785,3.3,3.3,0,0,1-1.062,2.582,3.979,3.979,0,0,1-2.764.955,4.084,4.084,0,0,1-2.768-.921,3.057,3.057,0,0,1-1.067-2.432h1.544a1.975,1.975,0,0,0,.623,1.527,2.368,2.368,0,0,0,1.668.573,2.324,2.324,0,0,0,1.7-.581,2.239,2.239,0,0,0,.589-1.668,2.032,2.032,0,0,0-.647-1.619,2.821,2.821,0,0,0-1.868-.581H103.67Zm11.015,1.967a12.84,12.84,0,0,1-.486,3.549,10.493,10.493,0,0,1-1.486,3.134,6.51,6.51,0,0,1-2.1,2.042l-.324-.938a6.673,6.673,0,0,0,2.054-3.042,13.161,13.161,0,0,0,.793-4.578v-.266a13.665,13.665,0,0,0-.365-3.241,10.94,10.94,0,0,0-1.017-2.685,6.2,6.2,0,0,0-1.465-1.851l.324-.938a6.485,6.485,0,0,1,2.088,2.025,10.516,10.516,0,0,1,1.486,3.129A13.136,13.136,0,0,1,114.685,37.177Z" transform="translate(-8423 -10612)" fill="#12263f"/>
    <path id="Trazado_608885" data-name="Trazado 608885" d="M15.662,14.7H21.39V16H14.06V3.914h1.6ZM28.512,16a3.226,3.226,0,0,1-.216-.946,3.426,3.426,0,0,1-2.557,1.112,3.17,3.17,0,0,1-2.179-.751,2.43,2.43,0,0,1-.851-1.905,2.539,2.539,0,0,1,1.067-2.179,5.029,5.029,0,0,1,3-.776h1.494V9.849a1.725,1.725,0,0,0-.481-1.282,1.935,1.935,0,0,0-1.419-.477,2.239,2.239,0,0,0-1.378.415,1.223,1.223,0,0,0-.556,1H22.892a2.119,2.119,0,0,1,.477-1.3,3.258,3.258,0,0,1,1.295-.992,4.356,4.356,0,0,1,1.8-.365,3.551,3.551,0,0,1,2.432.776,2.8,2.8,0,0,1,.913,2.137V13.9a5.054,5.054,0,0,0,.315,1.967V16Zm-2.548-1.17a2.7,2.7,0,0,0,1.37-.374,2.259,2.259,0,0,0,.938-.971V11.642h-1.2q-2.822,0-2.822,1.652a1.4,1.4,0,0,0,.481,1.129A1.85,1.85,0,0,0,25.964,14.83Zm10.094-3.4a5.279,5.279,0,0,1,.971-3.341,3.348,3.348,0,0,1,5.138-.079l.075-1h1.4v8.766a3.654,3.654,0,0,1-1.033,2.748,3.814,3.814,0,0,1-2.777,1,4.619,4.619,0,0,1-1.9-.415,3.272,3.272,0,0,1-1.419-1.137l.8-.921a3,3,0,0,0,2.416,1.22,2.353,2.353,0,0,0,1.747-.631,2.411,2.411,0,0,0,.627-1.776V15.1a3.156,3.156,0,0,1-2.515,1.063,3.068,3.068,0,0,1-2.552-1.27A5.55,5.55,0,0,1,36.057,11.435Zm1.544.174A4.027,4.027,0,0,0,38.224,14a2.023,2.023,0,0,0,1.743.867,2.249,2.249,0,0,0,2.133-1.32v-4.1a2.276,2.276,0,0,0-2.117-1.287,2.041,2.041,0,0,0-1.751.872A4.386,4.386,0,0,0,37.6,11.609Zm12.086,4.557a3.924,3.924,0,0,1-2.972-1.2,4.452,4.452,0,0,1-1.146-3.208v-.282a5.39,5.39,0,0,1,.51-2.386,3.982,3.982,0,0,1,1.428-1.644A3.59,3.59,0,0,1,49.5,6.853a3.364,3.364,0,0,1,2.723,1.154,5,5,0,0,1,.971,3.3v.639H47.106a3.193,3.193,0,0,0,.776,2.146,2.44,2.44,0,0,0,1.888.818,2.675,2.675,0,0,0,1.378-.332,3.462,3.462,0,0,0,.988-.88l.938.73A3.772,3.772,0,0,1,49.687,16.166ZM49.5,8.114a2.048,2.048,0,0,0-1.561.677,3.288,3.288,0,0,0-.78,1.9h4.5v-.116a2.925,2.925,0,0,0-.631-1.814A1.928,1.928,0,0,0,49.5,8.114Zm6.923-1.1.05,1.129a3.273,3.273,0,0,1,2.689-1.295q2.847,0,2.872,3.212V16H60.495V10.057a2.068,2.068,0,0,0-.444-1.436,1.78,1.78,0,0,0-1.357-.465,2.216,2.216,0,0,0-1.312.4A2.706,2.706,0,0,0,56.5,9.6V16H54.967V7.019Zm11.654,9.147a3.924,3.924,0,0,1-2.972-1.2,4.452,4.452,0,0,1-1.146-3.208v-.282a5.39,5.39,0,0,1,.51-2.386,3.982,3.982,0,0,1,1.428-1.644,3.59,3.59,0,0,1,1.988-.594,3.364,3.364,0,0,1,2.723,1.154,5,5,0,0,1,.971,3.3v.639H65.492a3.193,3.193,0,0,0,.776,2.146,2.44,2.44,0,0,0,1.888.818,2.675,2.675,0,0,0,1.378-.332,3.462,3.462,0,0,0,.988-.88l.938.73A3.772,3.772,0,0,1,68.073,16.166Zm-.191-8.052a2.048,2.048,0,0,0-1.561.677,3.288,3.288,0,0,0-.78,1.9h4.5v-.116a2.925,2.925,0,0,0-.631-1.814A1.928,1.928,0,0,0,67.883,8.114Zm9.812.282a4.6,4.6,0,0,0-.755-.058,2.024,2.024,0,0,0-2.05,1.287V16H73.353V7.019h1.494l.025,1.038a2.391,2.391,0,0,1,2.142-1.2,1.569,1.569,0,0,1,.681.116ZM84.318,16a3.226,3.226,0,0,1-.216-.946,3.426,3.426,0,0,1-2.557,1.112,3.17,3.17,0,0,1-2.179-.751,2.43,2.43,0,0,1-.851-1.905,2.539,2.539,0,0,1,1.067-2.179,5.029,5.029,0,0,1,3-.776h1.494V9.849A1.725,1.725,0,0,0,83.6,8.567a1.935,1.935,0,0,0-1.419-.477A2.239,2.239,0,0,0,80.8,8.5a1.223,1.223,0,0,0-.556,1H78.7a2.119,2.119,0,0,1,.477-1.3,3.258,3.258,0,0,1,1.295-.992,4.356,4.356,0,0,1,1.8-.365,3.551,3.551,0,0,1,2.432.776,2.8,2.8,0,0,1,.913,2.137V13.9a5.054,5.054,0,0,0,.315,1.967V16ZM81.77,14.83a2.7,2.7,0,0,0,1.37-.374,2.259,2.259,0,0,0,.938-.971V11.642h-1.2q-2.822,0-2.822,1.652a1.4,1.4,0,0,0,.481,1.129A1.85,1.85,0,0,0,81.77,14.83Zm9.853.083a2.212,2.212,0,0,0,1.436-.5,1.752,1.752,0,0,0,.681-1.245h1.453a2.785,2.785,0,0,1-.531,1.469,3.5,3.5,0,0,1-1.307,1.112,3.772,3.772,0,0,1-1.731.415,3.7,3.7,0,0,1-2.918-1.224,4.877,4.877,0,0,1-1.083-3.349v-.257A5.407,5.407,0,0,1,88.1,9a3.667,3.667,0,0,1,1.382-1.585,3.926,3.926,0,0,1,2.129-.564,3.6,3.6,0,0,1,2.511.9,3.234,3.234,0,0,1,1.067,2.349H93.74a2.116,2.116,0,0,0-.66-1.432,2.053,2.053,0,0,0-1.465-.56,2.149,2.149,0,0,0-1.814.843,3.957,3.957,0,0,0-.643,2.436v.291a3.878,3.878,0,0,0,.639,2.391A2.16,2.16,0,0,0,91.623,14.913ZM98.587,16H97.052V7.019h1.536ZM96.927,4.636a.917.917,0,0,1,.228-.631.857.857,0,0,1,.677-.257.87.87,0,0,1,.681.257.907.907,0,0,1,.232.631.877.877,0,0,1-.232.623.886.886,0,0,1-.681.249.872.872,0,0,1-.677-.249A.886.886,0,0,1,96.927,4.636Zm3.71,6.79a5.3,5.3,0,0,1,.519-2.374A3.87,3.87,0,0,1,102.6,7.425a3.932,3.932,0,0,1,2.113-.573,3.788,3.788,0,0,1,2.968,1.27,4.886,4.886,0,0,1,1.133,3.378v.108a5.351,5.351,0,0,1-.5,2.353,3.813,3.813,0,0,1-1.436,1.623,3.977,3.977,0,0,1-2.146.581,3.778,3.778,0,0,1-2.959-1.27,4.861,4.861,0,0,1-1.133-3.362Zm1.544.183a3.842,3.842,0,0,0,.693,2.4A2.349,2.349,0,0,0,106.589,14a4.2,4.2,0,0,0,.689-2.569,3.836,3.836,0,0,0-.7-2.395,2.23,2.23,0,0,0-1.864-.917,2.205,2.205,0,0,0-1.834.9A4.17,4.17,0,0,0,102.181,11.609ZM105.41,3.25h1.859l-2.225,2.44-1.237,0Zm6.782,3.769.05,1.129a3.273,3.273,0,0,1,2.689-1.295q2.847,0,2.872,3.212V16h-1.536V10.057a2.068,2.068,0,0,0-.444-1.436,1.78,1.78,0,0,0-1.357-.465,2.216,2.216,0,0,0-1.312.4,2.706,2.706,0,0,0-.88,1.046V16H110.74V7.019ZM125.764,14.7h6.915V16h-8.8V14.8L130.5,5.217h-6.516v-1.3h8.425V5.077Zm-98.049,20.4a12.834,12.834,0,0,1,.5-3.6,10.465,10.465,0,0,1,1.5-3.138,6.374,6.374,0,0,1,2.067-1.992l.315,1.013a6.611,6.611,0,0,0-1.988,2.839,12.307,12.307,0,0,0-.851,4.275l-.008.706a12.371,12.371,0,0,0,1.17,5.562A6.642,6.642,0,0,0,32.1,42.963l-.315.938a6.579,6.579,0,0,1-2.108-2.059A11.538,11.538,0,0,1,27.715,35.094ZM38.473,40H36.929V29.765l-3.1,1.137V29.508l4.4-1.652h.241Zm10.384-5.312a3.757,3.757,0,0,1-1.15.921,3.119,3.119,0,0,1-1.465.349,3.22,3.22,0,0,1-1.822-.515,3.346,3.346,0,0,1-1.2-1.448,4.938,4.938,0,0,1-.423-2.063,5.031,5.031,0,0,1,.461-2.183,3.384,3.384,0,0,1,1.307-1.486,3.728,3.728,0,0,1,1.976-.515,3.375,3.375,0,0,1,2.826,1.341A5.847,5.847,0,0,1,50.4,32.745v.448q0,3.528-1.395,5.151A5.358,5.358,0,0,1,44.8,40.008h-.3v-1.3h.324a4.228,4.228,0,0,0,2.922-.99A4.248,4.248,0,0,0,48.857,34.688Zm-2.366,0a2.371,2.371,0,0,0,1.424-.473,2.789,2.789,0,0,0,.95-1.17V32.43a4.226,4.226,0,0,0-.656-2.457,2,2,0,0,0-3.287-.17,3.2,3.2,0,0,0-.614,2.046,3.332,3.332,0,0,0,.594,2.038A1.879,1.879,0,0,0,46.491,34.688Zm11.912,0a3.757,3.757,0,0,1-1.15.921,3.119,3.119,0,0,1-1.465.349,3.22,3.22,0,0,1-1.822-.515,3.346,3.346,0,0,1-1.2-1.448,4.938,4.938,0,0,1-.423-2.063,5.031,5.031,0,0,1,.461-2.183,3.384,3.384,0,0,1,1.307-1.486,3.728,3.728,0,0,1,1.976-.515,3.375,3.375,0,0,1,2.826,1.341,5.847,5.847,0,0,1,1.033,3.656v.448q0,3.528-1.395,5.151a5.358,5.358,0,0,1-4.208,1.664h-.3v-1.3h.324a4.228,4.228,0,0,0,2.922-.99A4.248,4.248,0,0,0,58.4,34.688Zm-2.366,0a2.371,2.371,0,0,0,1.424-.473,2.789,2.789,0,0,0,.95-1.17V32.43a4.226,4.226,0,0,0-.656-2.457,2,2,0,0,0-3.287-.17,3.2,3.2,0,0,0-.614,2.046,3.332,3.332,0,0,0,.594,2.038A1.879,1.879,0,0,0,56.037,34.688Zm12.509,1.253h1.677v1.253H68.547V40H67V37.194H61.5v-.9l5.412-8.375h1.635Zm-5.3,0H67V30.014l-.183.332Zm11.721-.448H70.912V34.239h4.051ZM84.219,40H76.3V38.9l4.184-4.648a9.939,9.939,0,0,0,1.282-1.714,2.861,2.861,0,0,0,.353-1.365,2.169,2.169,0,0,0-.573-1.552,2,2,0,0,0-1.527-.606,2.372,2.372,0,0,0-1.781.652,2.489,2.489,0,0,0-.635,1.814H76.067a3.565,3.565,0,0,1,1.075-2.7,3.985,3.985,0,0,1,2.876-1.029,3.829,3.829,0,0,1,2.665.884,3.015,3.015,0,0,1,.979,2.353q0,1.785-2.274,4.25l-3.237,3.511h6.068Zm9.206-5.155a7.023,7.023,0,0,1-.921,4.009,3.829,3.829,0,0,1-5.744.029,6.666,6.666,0,0,1-.963-3.831V33a6.867,6.867,0,0,1,.921-3.959A3.9,3.9,0,0,1,92.478,29a6.627,6.627,0,0,1,.946,3.856Zm-1.536-2.1a5.627,5.627,0,0,0-.548-2.843,1.886,1.886,0,0,0-1.735-.892,1.861,1.861,0,0,0-1.718.888,5.494,5.494,0,0,0-.556,2.731v2.457a5.717,5.717,0,0,0,.569,2.893,1.882,1.882,0,0,0,1.722.934,1.856,1.856,0,0,0,1.689-.88,5.51,5.51,0,0,0,.577-2.772ZM100.438,40H98.894V29.765L95.8,30.9V29.508l4.4-1.652h.241Zm12.078-5.155a7.023,7.023,0,0,1-.921,4.009,3.829,3.829,0,0,1-5.744.029,6.666,6.666,0,0,1-.963-3.831V33a6.867,6.867,0,0,1,.921-3.959A3.9,3.9,0,0,1,111.57,29a6.627,6.627,0,0,1,.946,3.856Zm-1.536-2.1a5.627,5.627,0,0,0-.548-2.843,1.886,1.886,0,0,0-1.735-.892,1.861,1.861,0,0,0-1.718.888,5.494,5.494,0,0,0-.556,2.731v2.457a5.717,5.717,0,0,0,.569,2.893,1.882,1.882,0,0,0,1.722.934,1.856,1.856,0,0,0,1.689-.88,5.51,5.51,0,0,0,.577-2.772Zm7.205,2.432a12.84,12.84,0,0,1-.486,3.549,10.493,10.493,0,0,1-1.486,3.134,6.51,6.51,0,0,1-2.1,2.042l-.324-.938a6.673,6.673,0,0,0,2.054-3.042,13.161,13.161,0,0,0,.793-4.578v-.266a13.665,13.665,0,0,0-.365-3.241,10.94,10.94,0,0,0-1.017-2.685,6.2,6.2,0,0,0-1.465-1.851l.324-.938a6.485,6.485,0,0,1,2.088,2.025,10.516,10.516,0,0,1,1.486,3.129A13.136,13.136,0,0,1,118.185,35.177Z" transform="translate(-8409.548 -10482.643)" fill="#12263f"/>
    <path id="Trazado_608886" data-name="Trazado 608886" d="M20.49,14.7h5.728V16h-7.33V3.914h1.6ZM33.34,16a3.226,3.226,0,0,1-.216-.946,3.426,3.426,0,0,1-2.557,1.112,3.17,3.17,0,0,1-2.179-.751,2.43,2.43,0,0,1-.851-1.905A2.539,2.539,0,0,1,28.6,11.331a5.029,5.029,0,0,1,3-.776H33.1V9.849a1.725,1.725,0,0,0-.481-1.282A1.935,1.935,0,0,0,31.2,8.089a2.239,2.239,0,0,0-1.378.415,1.223,1.223,0,0,0-.556,1H27.72a2.119,2.119,0,0,1,.477-1.3,3.258,3.258,0,0,1,1.295-.992,4.356,4.356,0,0,1,1.8-.365,3.551,3.551,0,0,1,2.432.776,2.8,2.8,0,0,1,.913,2.137V13.9a5.054,5.054,0,0,0,.315,1.967V16Zm-2.548-1.17a2.7,2.7,0,0,0,1.37-.374,2.259,2.259,0,0,0,.938-.971V11.642H31.9q-2.822,0-2.822,1.652a1.4,1.4,0,0,0,.481,1.129A1.85,1.85,0,0,0,30.792,14.83Zm10.094-3.4a5.279,5.279,0,0,1,.971-3.341,3.348,3.348,0,0,1,5.138-.079l.075-1h1.4v8.766a3.654,3.654,0,0,1-1.033,2.748,3.814,3.814,0,0,1-2.777,1,4.619,4.619,0,0,1-1.9-.415,3.272,3.272,0,0,1-1.419-1.137l.8-.921a3,3,0,0,0,2.416,1.22,2.353,2.353,0,0,0,1.747-.631,2.411,2.411,0,0,0,.627-1.776V15.1a3.156,3.156,0,0,1-2.515,1.063,3.068,3.068,0,0,1-2.552-1.27A5.55,5.55,0,0,1,40.885,11.435Zm1.544.174A4.027,4.027,0,0,0,43.052,14a2.023,2.023,0,0,0,1.743.867,2.249,2.249,0,0,0,2.133-1.32v-4.1a2.276,2.276,0,0,0-2.117-1.287,2.041,2.041,0,0,0-1.751.872A4.386,4.386,0,0,0,42.429,11.609Zm12.086,4.557a3.924,3.924,0,0,1-2.972-1.2A4.452,4.452,0,0,1,50.4,11.758v-.282a5.39,5.39,0,0,1,.51-2.386,3.982,3.982,0,0,1,1.428-1.644,3.59,3.59,0,0,1,1.988-.594,3.364,3.364,0,0,1,2.723,1.154,5,5,0,0,1,.971,3.3v.639H51.934a3.193,3.193,0,0,0,.776,2.146,2.44,2.44,0,0,0,1.888.818,2.675,2.675,0,0,0,1.378-.332,3.462,3.462,0,0,0,.988-.88l.938.73A3.772,3.772,0,0,1,54.515,16.166Zm-.191-8.052a2.048,2.048,0,0,0-1.561.677,3.288,3.288,0,0,0-.78,1.9h4.5v-.116a2.925,2.925,0,0,0-.631-1.814A1.928,1.928,0,0,0,54.324,8.114Zm6.923-1.1.05,1.129a3.273,3.273,0,0,1,2.689-1.295q2.847,0,2.872,3.212V16H65.323V10.057a2.068,2.068,0,0,0-.444-1.436,1.78,1.78,0,0,0-1.357-.465,2.216,2.216,0,0,0-1.312.4A2.706,2.706,0,0,0,61.33,9.6V16H59.795V7.019ZM72.9,16.166a3.924,3.924,0,0,1-2.972-1.2,4.452,4.452,0,0,1-1.146-3.208v-.282a5.39,5.39,0,0,1,.51-2.386,3.982,3.982,0,0,1,1.428-1.644,3.59,3.59,0,0,1,1.988-.594,3.364,3.364,0,0,1,2.723,1.154,5,5,0,0,1,.971,3.3v.639H70.32a3.193,3.193,0,0,0,.776,2.146,2.44,2.44,0,0,0,1.888.818,2.675,2.675,0,0,0,1.378-.332,3.462,3.462,0,0,0,.988-.88l.938.73A3.772,3.772,0,0,1,72.9,16.166Zm-.191-8.052a2.048,2.048,0,0,0-1.561.677,3.288,3.288,0,0,0-.78,1.9h4.5v-.116a2.925,2.925,0,0,0-.631-1.814A1.928,1.928,0,0,0,72.711,8.114Zm9.812.282a4.6,4.6,0,0,0-.755-.058,2.024,2.024,0,0,0-2.05,1.287V16H78.181V7.019h1.494L79.7,8.056a2.391,2.391,0,0,1,2.142-1.2,1.569,1.569,0,0,1,.681.116ZM89.146,16a3.226,3.226,0,0,1-.216-.946,3.426,3.426,0,0,1-2.557,1.112,3.17,3.17,0,0,1-2.179-.751,2.43,2.43,0,0,1-.851-1.905,2.539,2.539,0,0,1,1.067-2.179,5.029,5.029,0,0,1,3-.776h1.494V9.849a1.725,1.725,0,0,0-.481-1.282A1.935,1.935,0,0,0,87,8.089a2.239,2.239,0,0,0-1.378.415,1.223,1.223,0,0,0-.556,1H83.527A2.119,2.119,0,0,1,84,8.21,3.258,3.258,0,0,1,85.3,7.218a4.356,4.356,0,0,1,1.8-.365,3.551,3.551,0,0,1,2.432.776,2.8,2.8,0,0,1,.913,2.137V13.9a5.054,5.054,0,0,0,.315,1.967V16ZM86.6,14.83a2.7,2.7,0,0,0,1.37-.374,2.259,2.259,0,0,0,.938-.971V11.642H87.7q-2.822,0-2.822,1.652a1.4,1.4,0,0,0,.481,1.129A1.85,1.85,0,0,0,86.6,14.83Zm9.853.083a2.212,2.212,0,0,0,1.436-.5,1.752,1.752,0,0,0,.681-1.245h1.453a2.785,2.785,0,0,1-.531,1.469,3.5,3.5,0,0,1-1.307,1.112,3.772,3.772,0,0,1-1.731.415,3.7,3.7,0,0,1-2.918-1.224,4.877,4.877,0,0,1-1.083-3.349v-.257A5.407,5.407,0,0,1,92.931,9a3.667,3.667,0,0,1,1.382-1.585,3.926,3.926,0,0,1,2.129-.564,3.6,3.6,0,0,1,2.511.9,3.234,3.234,0,0,1,1.067,2.349H98.568a2.116,2.116,0,0,0-.66-1.432,2.053,2.053,0,0,0-1.465-.56,2.149,2.149,0,0,0-1.814.843,3.957,3.957,0,0,0-.643,2.436v.291a3.878,3.878,0,0,0,.639,2.391A2.16,2.16,0,0,0,96.451,14.913ZM103.415,16H101.88V7.019h1.536Zm-1.66-11.364a.917.917,0,0,1,.228-.631.857.857,0,0,1,.677-.257.87.87,0,0,1,.681.257.907.907,0,0,1,.232.631.877.877,0,0,1-.232.623.886.886,0,0,1-.681.249.872.872,0,0,1-.677-.249A.886.886,0,0,1,101.755,4.636Zm3.71,6.79a5.3,5.3,0,0,1,.519-2.374,3.87,3.87,0,0,1,1.444-1.627,3.932,3.932,0,0,1,2.113-.573,3.788,3.788,0,0,1,2.968,1.27,4.886,4.886,0,0,1,1.133,3.378v.108a5.351,5.351,0,0,1-.5,2.353,3.813,3.813,0,0,1-1.436,1.623,3.977,3.977,0,0,1-2.146.581A3.778,3.778,0,0,1,106.6,14.9a4.861,4.861,0,0,1-1.133-3.362Zm1.544.183a3.842,3.842,0,0,0,.693,2.4A2.349,2.349,0,0,0,111.417,14a4.2,4.2,0,0,0,.689-2.569,3.836,3.836,0,0,0-.7-2.395,2.23,2.23,0,0,0-1.864-.917,2.205,2.205,0,0,0-1.834.9A4.17,4.17,0,0,0,107.01,11.609Zm3.229-8.359H112.1l-2.225,2.44-1.237,0Zm6.782,3.769.05,1.129a3.273,3.273,0,0,1,2.689-1.295q2.847,0,2.872,3.212V16H121.1V10.057a2.068,2.068,0,0,0-.444-1.436,1.78,1.78,0,0,0-1.357-.465,2.216,2.216,0,0,0-1.312.4A2.706,2.706,0,0,0,117.1,9.6V16h-1.536V7.019ZM134.7,16a3.226,3.226,0,0,1-.216-.946,3.426,3.426,0,0,1-2.557,1.112,3.17,3.17,0,0,1-2.179-.751,2.43,2.43,0,0,1-.851-1.905,2.539,2.539,0,0,1,1.067-2.179,5.029,5.029,0,0,1,3-.776h1.494V9.849a1.725,1.725,0,0,0-.481-1.282,1.935,1.935,0,0,0-1.419-.477,2.239,2.239,0,0,0-1.378.415,1.223,1.223,0,0,0-.556,1h-1.544a2.119,2.119,0,0,1,.477-1.3,3.258,3.258,0,0,1,1.295-.992,4.356,4.356,0,0,1,1.8-.365,3.551,3.551,0,0,1,2.432.776A2.8,2.8,0,0,1,136,9.766V13.9a5.054,5.054,0,0,0,.315,1.967V16Zm-2.548-1.17a2.7,2.7,0,0,0,1.37-.374,2.259,2.259,0,0,0,.938-.971V11.642h-1.2q-2.822,0-2.822,1.652a1.4,1.4,0,0,0,.481,1.129A1.85,1.85,0,0,0,132.153,14.83ZM140.072,16h-1.536V3.25h1.536Zm10.044-4.391a5.378,5.378,0,0,1-.938,3.3,3.006,3.006,0,0,1-2.54,1.253,3.294,3.294,0,0,1-2.573-1.038v4.325h-1.536V7.019h1.4l.075,1a3.163,3.163,0,0,1,2.606-1.162,3.063,3.063,0,0,1,2.561,1.22,5.437,5.437,0,0,1,.942,3.4Zm-1.536-.174a3.968,3.968,0,0,0-.647-2.4,2.086,2.086,0,0,0-1.776-.88,2.257,2.257,0,0,0-2.092,1.237v4.292a2.262,2.262,0,0,0,2.108,1.229,2.076,2.076,0,0,0,1.756-.876A4.332,4.332,0,0,0,148.58,11.435ZM153.6,8.106a3.265,3.265,0,0,1,2.656-1.253q2.847,0,2.872,3.212V16h-1.536V10.057a2.068,2.068,0,0,0-.444-1.436,1.78,1.78,0,0,0-1.357-.465,2.216,2.216,0,0,0-1.312.4A2.706,2.706,0,0,0,153.6,9.6V16h-1.536V3.25H153.6ZM166.974,16a3.226,3.226,0,0,1-.216-.946,3.426,3.426,0,0,1-2.557,1.112,3.17,3.17,0,0,1-2.179-.751,2.43,2.43,0,0,1-.851-1.905,2.539,2.539,0,0,1,1.067-2.179,5.029,5.029,0,0,1,3-.776h1.494V9.849a1.725,1.725,0,0,0-.481-1.282,1.935,1.935,0,0,0-1.419-.477,2.239,2.239,0,0,0-1.378.415,1.223,1.223,0,0,0-.556,1h-1.544a2.119,2.119,0,0,1,.477-1.3,3.258,3.258,0,0,1,1.295-.992,4.356,4.356,0,0,1,1.8-.365,3.551,3.551,0,0,1,2.432.776,2.8,2.8,0,0,1,.913,2.137V13.9a5.054,5.054,0,0,0,.315,1.967V16Zm-2.548-1.17a2.7,2.7,0,0,0,1.37-.374,2.259,2.259,0,0,0,.938-.971V11.642h-1.2q-2.822,0-2.822,1.652a1.4,1.4,0,0,0,.481,1.129A1.85,1.85,0,0,0,164.426,14.83ZM23.6,35.094a12.834,12.834,0,0,1,.5-3.6,10.465,10.465,0,0,1,1.5-3.138,6.374,6.374,0,0,1,2.067-1.992l.315,1.013A6.611,6.611,0,0,0,26,30.213a12.307,12.307,0,0,0-.851,4.275l-.008.706a12.371,12.371,0,0,0,1.17,5.562,6.642,6.642,0,0,0,1.677,2.208l-.315.938a6.579,6.579,0,0,1-2.108-2.059A11.538,11.538,0,0,1,23.6,35.094ZM37.233,40H29.314V38.9L33.5,34.248a9.939,9.939,0,0,0,1.282-1.714,2.861,2.861,0,0,0,.353-1.365,2.169,2.169,0,0,0-.573-1.552,2,2,0,0,0-1.527-.606,2.372,2.372,0,0,0-1.781.652,2.489,2.489,0,0,0-.635,1.814H29.082a3.565,3.565,0,0,1,1.075-2.7,3.985,3.985,0,0,1,2.876-1.029,3.829,3.829,0,0,1,2.665.884,3.015,3.015,0,0,1,.979,2.353q0,1.785-2.274,4.25l-3.237,3.511h6.068Zm9.206-5.155a7.023,7.023,0,0,1-.921,4.009,3.277,3.277,0,0,1-2.88,1.312,3.3,3.3,0,0,1-2.864-1.282,6.666,6.666,0,0,1-.963-3.831V33a6.867,6.867,0,0,1,.921-3.959,3.3,3.3,0,0,1,2.889-1.295A3.332,3.332,0,0,1,45.492,29a6.627,6.627,0,0,1,.946,3.856Zm-1.536-2.1a5.627,5.627,0,0,0-.548-2.843,1.886,1.886,0,0,0-1.735-.892A1.861,1.861,0,0,0,40.9,29.9a5.494,5.494,0,0,0-.556,2.731v2.457a5.717,5.717,0,0,0,.569,2.893,1.882,1.882,0,0,0,1.722.934,1.856,1.856,0,0,0,1.689-.88A5.51,5.51,0,0,0,44.9,35.26ZM53.453,40H51.909V29.765l-3.1,1.137V29.508l4.4-1.652h.241Zm12.078-5.155a7.023,7.023,0,0,1-.921,4.009,3.829,3.829,0,0,1-5.744.029,6.666,6.666,0,0,1-.963-3.831V33a6.867,6.867,0,0,1,.921-3.959A3.9,3.9,0,0,1,64.584,29a6.627,6.627,0,0,1,.946,3.856Zm-1.536-2.1a5.627,5.627,0,0,0-.548-2.843,1.886,1.886,0,0,0-1.735-.892,1.861,1.861,0,0,0-1.718.888,5.494,5.494,0,0,0-.556,2.731v2.457a5.717,5.717,0,0,0,.569,2.893,1.882,1.882,0,0,0,1.722.934,1.856,1.856,0,0,0,1.689-.88,5.51,5.51,0,0,0,.577-2.772ZM75.06,35.493H71.009V34.239H75.06ZM86.307,40a3.226,3.226,0,0,1-.216-.946,3.426,3.426,0,0,1-2.557,1.112,3.17,3.17,0,0,1-2.179-.751,2.43,2.43,0,0,1-.851-1.905,2.539,2.539,0,0,1,1.067-2.179,5.029,5.029,0,0,1,3-.776h1.494v-.706a1.725,1.725,0,0,0-.481-1.282,1.935,1.935,0,0,0-1.419-.477,2.239,2.239,0,0,0-1.378.415,1.223,1.223,0,0,0-.556,1H80.688a2.119,2.119,0,0,1,.477-1.3,3.258,3.258,0,0,1,1.295-.992,4.356,4.356,0,0,1,1.8-.365,3.551,3.551,0,0,1,2.432.776,2.8,2.8,0,0,1,.913,2.137V37.9a5.054,5.054,0,0,0,.315,1.967V40Zm-2.548-1.17a2.7,2.7,0,0,0,1.37-.374,2.259,2.259,0,0,0,.938-.971V35.642h-1.2q-2.822,0-2.822,1.652a1.4,1.4,0,0,0,.481,1.129A1.85,1.85,0,0,0,83.759,38.83Zm9.853.083a2.212,2.212,0,0,0,1.436-.5,1.752,1.752,0,0,0,.681-1.245h1.453a2.785,2.785,0,0,1-.531,1.469,3.5,3.5,0,0,1-1.307,1.112,3.772,3.772,0,0,1-1.731.415,3.7,3.7,0,0,1-2.918-1.224,4.877,4.877,0,0,1-1.083-3.349v-.257A5.407,5.407,0,0,1,90.093,33a3.667,3.667,0,0,1,1.382-1.585,3.926,3.926,0,0,1,2.129-.564,3.6,3.6,0,0,1,2.511.9,3.234,3.234,0,0,1,1.067,2.349H95.729a2.116,2.116,0,0,0-.66-1.432,2.053,2.053,0,0,0-1.465-.56,2.149,2.149,0,0,0-1.814.843,3.957,3.957,0,0,0-.643,2.436v.291a3.878,3.878,0,0,0,.639,2.391A2.16,2.16,0,0,0,93.612,38.913Zm7.379-10.069v2.175h1.677v1.187h-1.677v5.577a1.247,1.247,0,0,0,.224.81.943.943,0,0,0,.764.27,3.718,3.718,0,0,0,.73-.1V40a4.478,4.478,0,0,1-1.179.165,1.912,1.912,0,0,1-1.552-.623,2.675,2.675,0,0,1-.523-1.768v-5.57H97.821V31.019h1.635V28.844Zm9.015,10.268a3.262,3.262,0,0,1-2.631,1.054,2.792,2.792,0,0,1-2.187-.834,3.611,3.611,0,0,1-.76-2.469V31.019h1.536v5.8q0,2.042,1.66,2.042a2.3,2.3,0,0,0,2.341-1.312V31.019H111.5V40h-1.461Zm9.372.888a3.226,3.226,0,0,1-.216-.946,3.426,3.426,0,0,1-2.557,1.112,3.17,3.17,0,0,1-2.179-.751,2.43,2.43,0,0,1-.851-1.905,2.539,2.539,0,0,1,1.067-2.179,5.029,5.029,0,0,1,3-.776h1.494v-.706a1.725,1.725,0,0,0-.481-1.282,1.935,1.935,0,0,0-1.419-.477,2.239,2.239,0,0,0-1.378.415,1.223,1.223,0,0,0-.556,1h-1.544a2.119,2.119,0,0,1,.477-1.3,3.258,3.258,0,0,1,1.295-.992,4.356,4.356,0,0,1,1.8-.365,3.551,3.551,0,0,1,2.432.776,2.8,2.8,0,0,1,.913,2.137V37.9a5.054,5.054,0,0,0,.315,1.967V40Zm-2.548-1.17a2.7,2.7,0,0,0,1.37-.374,2.259,2.259,0,0,0,.938-.971V35.642h-1.2q-2.822,0-2.822,1.652a1.4,1.4,0,0,0,.481,1.129A1.85,1.85,0,0,0,116.829,38.83ZM124.748,40h-1.536V27.25h1.536Zm4.125,0h-1.536V31.019h1.536Zm-1.66-11.364a.917.917,0,0,1,.228-.631.857.857,0,0,1,.677-.257.87.87,0,0,1,.681.257.907.907,0,0,1,.232.631.877.877,0,0,1-.232.623.886.886,0,0,1-.681.249.872.872,0,0,1-.677-.249A.886.886,0,0,1,127.214,28.636Zm3.744,6.8a5.261,5.261,0,0,1,.979-3.324A3.333,3.333,0,0,1,137,31.932V27.25h1.536V40h-1.411l-.075-.963a3.127,3.127,0,0,1-2.565,1.129,3.068,3.068,0,0,1-2.544-1.278,5.321,5.321,0,0,1-.984-3.337Zm1.536.174A3.984,3.984,0,0,0,133.124,38a2.039,2.039,0,0,0,1.743.863A2.24,2.24,0,0,0,137,37.551V33.426a2.257,2.257,0,0,0-2.117-1.27,2.049,2.049,0,0,0-1.76.872A4.386,4.386,0,0,0,132.493,35.609ZM146.463,40a3.226,3.226,0,0,1-.216-.946,3.426,3.426,0,0,1-2.557,1.112,3.17,3.17,0,0,1-2.179-.751,2.43,2.43,0,0,1-.851-1.905,2.539,2.539,0,0,1,1.067-2.179,5.029,5.029,0,0,1,3-.776h1.494v-.706a1.725,1.725,0,0,0-.481-1.282,1.935,1.935,0,0,0-1.419-.477,2.239,2.239,0,0,0-1.378.415,1.223,1.223,0,0,0-.556,1h-1.544a2.119,2.119,0,0,1,.477-1.3,3.258,3.258,0,0,1,1.295-.992,4.356,4.356,0,0,1,1.8-.365,3.551,3.551,0,0,1,2.432.776,2.8,2.8,0,0,1,.913,2.137V37.9a5.054,5.054,0,0,0,.315,1.967V40Zm-2.548-1.17a2.7,2.7,0,0,0,1.37-.374,2.259,2.259,0,0,0,.938-.971V35.642h-1.2q-2.822,0-2.822,1.652a1.4,1.4,0,0,0,.481,1.129A1.85,1.85,0,0,0,143.915,38.83Zm5.877-3.4a5.261,5.261,0,0,1,.979-3.324,3.333,3.333,0,0,1,5.063-.178V27.25h1.536V40h-1.411l-.075-.963a3.127,3.127,0,0,1-2.565,1.129,3.068,3.068,0,0,1-2.544-1.278,5.321,5.321,0,0,1-.984-3.337Zm1.536.174A3.984,3.984,0,0,0,151.958,38a2.039,2.039,0,0,0,1.743.863,2.24,2.24,0,0,0,2.133-1.312V33.426a2.257,2.257,0,0,0-2.117-1.27,2.049,2.049,0,0,0-1.76.872A4.386,4.386,0,0,0,151.327,35.609Zm11.97-.432a12.84,12.84,0,0,1-.486,3.549,10.493,10.493,0,0,1-1.486,3.134,6.51,6.51,0,0,1-2.1,2.042l-.324-.938a6.673,6.673,0,0,0,2.054-3.042,13.161,13.161,0,0,0,.793-4.578v-.266a13.665,13.665,0,0,0-.365-3.241,10.94,10.94,0,0,0-1.017-2.685,6.2,6.2,0,0,0-1.465-1.851l.324-.938a6.485,6.485,0,0,1,2.088,2.025,10.516,10.516,0,0,1,1.486,3.129A13.136,13.136,0,0,1,163.3,35.177Z" transform="translate(-8187.548 -10482.643)" fill="#12263f"/>
  </g>
</svg>
