<svg xmlns="http://www.w3.org/2000/svg" xmlns:xlink="http://www.w3.org/1999/xlink" width="295" height="211" viewBox="0 0 295 211">
  <defs>
    <clipPath id="clip-path">
      <rect id="Rectángulo_347139" data-name="Rectángulo 347139" width="266.558" height="182.617" fill="none"/>
    </clipPath>
  </defs>
  <g id="Grupo_1016629" data-name="Grupo 1016629" transform="translate(-1020 -10253)">
    <rect id="Rectángulo_347140" data-name="Rectángulo 347140" width="295" height="99" rx="49.5" transform="translate(1020 10365)" fill="#a3bfe4"/>
    <g id="Grupo_1016627" data-name="Grupo 1016627" transform="translate(1038.641 10253)">
      <g id="Grupo_1016626" data-name="Grupo 1016626" clip-path="url(#clip-path)">
        <path id="Trazado_608314" data-name="Trazado 608314" d="M90.812,7.245A16.16,16.16,0,0,1,86.78,4.027s-1.537,5.509-5.188,7.012a3.826,3.826,0,0,0-3.559-1.3,3.313,3.313,0,0,0-2.479,3.67,3.378,3.378,0,0,0,4,2.842L78.17,27.821l-4.3,4.44,6.458,8.013,11.922-.134.652-7.372-3.592-4.946c-.123,0,.121-4.084.121-4.084s2.64.1,3.56-1.6S94.2,16.8,94.308,16.021s.816-8.28.816-8.28a7.281,7.281,0,0,1-4.312-.5" transform="translate(17.135 0.934)" fill="#fff"/>
        <path id="Trazado_608315" data-name="Trazado 608315" d="M75.93,97.16s.751,1.444,2.843.119,4.821-6.54,4.821-6.54l2.443-4.059s.323-3.448-2.582-3.721S44.2,82.794,44.2,82.794l-3.507.439a7.437,7.437,0,0,0-3.119,2.386c-1.014,1.566-3.23,5.269-3.23,5.269l1.8-1.241,1.329-.378.958.225,2.611-3.411.929-.352H83.017c.249.248-7.087,11.429-7.087,11.429" transform="translate(7.965 19.2)" fill="#a3bfe4"/>
        <path id="Trazado_608316" data-name="Trazado 608316" d="M83.511,85.174H42.456l-1.239.638-2.211,3.246a2.363,2.363,0,0,0-1.015-.213c-1.493.015-1.519.541-1.519.541s-.795.49-1.829,1.05a10.717,10.717,0,0,0-2.437,2.614s.058,1.422,1.742,4.341l1,9.293,35.9-1.05,5.577-9.03L83.76,85.422Z" transform="translate(7.47 19.757)" fill="#fff"/>
        <path id="Trazado_608317" data-name="Trazado 608317" d="M114.4,118.23s-12.2.668-21.351,3.748-15.105,7.2-18.614,12.015-2.805,8.5-2.133,10.18,3.24,3.53,11.484,3.809,22.321-1.078,22.321-1.078a77.935,77.935,0,0,0-.021-7.823l14.2.548,5.987.14,16.715,3.347-1.3,5.138s8.249-.047,15.625-.493S168.3,146.4,169.136,145.7s2.378-1.52,1.907-4.94-4.011-8.933-8.556-11.837-8.423-5.109-13.739-6.483a102.115,102.115,0,0,0-12.014-2.678c-3.07-.377-22.334-1.534-22.334-1.534" transform="translate(16.643 27.424)" fill="#afafaf"/>
        <path id="Trazado_608318" data-name="Trazado 608318" d="M142.336,61.092A40.876,40.876,0,0,0,144.209,72.2c1.77,5,4.271,10.042,8.875,12.008a16.089,16.089,0,0,0,10.693.286c1.1-.42,6.494-2.8,9.705-2.555l12.515.15s6.464.665,9.726,3.653a21.822,21.822,0,0,1,5.929,8.663c1.22,3.007,4.835,10.809,5.838,13.282a85.183,85.183,0,0,1,3.235,8.744c.928,3.239,2.189,7.853,2.243,10.863s.244,8.854-3.141,12.48-5.252,3.855-5.252,3.855.234,7.26,0,9.15l-45.047.139s.137-12.932.223-15.924-.121-10.328-.121-10.328l-2.093-21.022s-7.16-.335-14.74-6.464-10.016-11.707-10.6-12.86-3.921-8.722-4.861-13.108-1.85-11.234-1.85-11.234Z" transform="translate(29.108 14.171)" fill="#1a1a1a"/>
        <path id="Trazado_608319" data-name="Trazado 608319" d="M173.632,68.529s4.2-1.42,4.336,2.683c0,0-.285,3.268-3.857,2.53l-.287,8.275s-3.84,8.484-8.27,7.366c0,0-2-.371-1.39-3.3s.96-4.048.96-4.048l.313-3.66s-3.371-.394-3.595-3.076-.585-3.292,0-6.283,1.478-8.319,1.478-8.319a18.792,18.792,0,0,0,5.083,4.189c3.767,2.349,5.391,3.252,5.391,3.252Z" transform="translate(37.467 14.079)" fill="#fff"/>
        <path id="Trazado_608320" data-name="Trazado 608320" d="M106.426,124.1s-.711,5.811,4.536,8.531c0,0-2.526-1.2-3.05-5.017l-.133-3.141Z" transform="translate(24.679 28.786)" fill="#3a3a3a"/>
        <path id="Trazado_608321" data-name="Trazado 608321" d="M125.551,135.469l4.865.565s-1.179-4.433-2.909-4.664-1.956,4.1-1.956,4.1" transform="translate(29.123 30.47)" fill="#1a1a1a"/>
        <path id="Trazado_608322" data-name="Trazado 608322" d="M126.773,141.349l3.454-.134s-.692,2-1.728,1.722a3.479,3.479,0,0,1-1.726-1.588" transform="translate(29.406 32.756)" fill="#1a1a1a"/>
        <path id="Trazado_608323" data-name="Trazado 608323" d="M126.273,60.858l.616,1.619s-1.456-.382-1.43-.873.814-.745.814-.745" transform="translate(29.101 14.117)" fill="#1a1a1a"/>
        <path id="Trazado_608324" data-name="Trazado 608324" d="M137.331,60.139,135.5,62.9s4.568-.9,4.51-1.589-2.682-1.174-2.682-1.174" transform="translate(31.431 13.95)" fill="#1a1a1a"/>
        <path id="Trazado_608325" data-name="Trazado 608325" d="M125.459,60.211s1.3,4.233,1.627,4.7a20.249,20.249,0,0,0,5.407.515c3.177-.1,5.5-.33,5.5-.33a26.429,26.429,0,0,1,1.852-3c1.072-1.48,2.284-2.955,2.39-4.248s.463-2.087-1.162-3.569a50,50,0,0,0-4.243-3.291s-1.244-.739-2.088-.213-.6,3.048.241,4.028a26.639,26.639,0,0,0,2.284,2.226s-2.145,3.128-5.155,3.059-6.65.122-6.65.122" transform="translate(29.101 11.734)" fill="#fff"/>
        <path id="Trazado_608326" data-name="Trazado 608326" d="M172.632,106.122s-1.364-2.916-1.961-4.478-1.032-3.56-2.152-3.627-1.561.521-1.588,1.26a16.988,16.988,0,0,0,.687,3.639c.376,1.438-.044,2.457-.849,2.576s-3.347-1.462-4.943-3.02-3.278-3.6-4.3-3.626a1.593,1.593,0,0,0-1.635,2.264c.168.265-1.117.15-1.492.782s-.6,1.452-.119,1.943a1.24,1.24,0,0,0-.272,1.72,16.506,16.506,0,0,0,1.689,2.229,1.034,1.034,0,0,0-.535,1.468c.472,1.087,3.56,3.148,6.25,4.689a19.076,19.076,0,0,0,4.352,1.953,55.523,55.523,0,0,1,3.394-5.4c1.319-1.669,3.469-4.369,3.469-4.369" transform="translate(35.671 22.735)" fill="#fff"/>
        <path id="Trazado_608327" data-name="Trazado 608327" d="M112.8,137.753s-.563-4.01-1.972-4.989-1.757-1.162-1.757-1.162l1.95,5.279-3.687-1.988-1.694-4.17a18.3,18.3,0,0,0-2.971.071c-1,.175-4.191,1.151-4.191,1.151a9.9,9.9,0,0,1,1.462,4.768c.217,3.042.277,4.252.277,4.252s2.7.9,3.729,1.186,3.655,1.114,5.407.251c0,0,3.106-.106,3.146-1.657,0,0,1.317-.312,1.291-1.4a1.94,1.94,0,0,0-.99-1.588" transform="translate(22.842 30.315)" fill="#fff"/>
        <path id="Trazado_608328" data-name="Trazado 608328" d="M133.486,135.552s-6.481-.788-7.564-.891-6.279-.3-6.279-.3a7.881,7.881,0,0,0-3.263,2.406c-1.411,1.775-3.081,4.065-3.081,4.065s-1.162,1.961-.18,2.392,2.946-1.383,2.946-1.383-1.81,3.267-.243,3.783,5.556-5.084,5.556-5.084l-1.574,4.7s.1,1.279.93,1.248a3.269,3.269,0,0,0,2.348-1.675c.328-.771,2.357-3.927,2.357-3.927a11.512,11.512,0,0,0,4.022,1.843,17.862,17.862,0,0,0,4.026.071,10.748,10.748,0,0,0,.429-4.316c-.288-2.234-.429-2.936-.429-2.936" transform="translate(26.147 31.167)" fill="#fff"/>
        <path id="Trazado_608329" data-name="Trazado 608329" d="M72.559,49.514s-.012-1.454-.01-2.765.1-6.065,3.032-7.889.238-.144.238-.144v6.276s.37,1.728,1.621,1.233.827-.023,2.3-1.338,4.625-4.463,4.625-4.463,1.59-1.855,2.619-1.859a1.77,1.77,0,0,1,1.8,2.457c.1.2.912-.4,1.778.29s-.228,3.265-.228,3.265.574-.03.562,1.2a6.106,6.106,0,0,1-1.764,3.979c-1.221,1.35-7.409,6.253-7.409,6.253a40.319,40.319,0,0,0-4.968-4.272,23.36,23.36,0,0,0-4.194-2.224" transform="translate(16.828 8.817)" fill="#fff"/>
        <path id="Trazado_608330" data-name="Trazado 608330" d="M143.421,64.186H81.685A6.5,6.5,0,0,1,75.2,57.705V39.932a6.5,6.5,0,0,1,6.481-6.483h61.736a6.5,6.5,0,0,1,6.483,6.483V57.705a6.5,6.5,0,0,1-6.483,6.481" transform="translate(17.444 7.759)" fill="#fff"/>
        <path id="Trazado_608331" data-name="Trazado 608331" d="M194.211,94.152s-2.285-5.819-6.071-7.769-5.621-3.225-12.562-3.225V75.035s4.046.394,3.96-2.877c0,0,.068-3.262-3.96-2.729,0,0-4.531-2.675-5.942-3.632s-4.844-4.184-4.844-4.184-1.133,4.892-1.369,6.441a39.953,39.953,0,0,0-.771,6.825c.129,1.811.578,4.617,4.349,4.617l-.313,3.511a22.279,22.279,0,0,0-4.951.978c-1.678.694-4.4,1.928-5.641,2.05a5.1,5.1,0,0,1-1.313-3.658,6.9,6.9,0,0,1,2.988-5.453,8.036,8.036,0,0,0,3.363-4.339,9.777,9.777,0,0,0,.069-4.648,13.278,13.278,0,0,1,.118-6.12c.728-2.408,1.275-4.04,3.243-4.816a13.7,13.7,0,0,1,7.684-.945c3.091.574,7.393,1.6,9.64,3.1s3.421,2.022,3.932,5.495a12.336,12.336,0,0,1-1.037,4.605,12.151,12.151,0,0,0-1.4,6.016,5.411,5.411,0,0,0,3.1,3.783c1.731.872,5.061,2.545,6.641,4.192a9.228,9.228,0,0,1,2.894,5.56c.235,2.232-.854,5.013-1.806,5.342" transform="translate(35.903 12.956)" fill="#ff7e7e"/>
        <path id="Trazado_608332" data-name="Trazado 608332" d="M78.06,52.08s8.578,3.764,10.153,8.785c0,0-4.573,7.951-7.375,11.014s-8.057,9.506-16.459,9.484A16.554,16.554,0,0,1,51.152,75.1c-.482-.71-2.962-4.255-2.165-10.506a50.685,50.685,0,0,1,4.858-15.631c1.972-4.089,5.561-11.7,9.145-14.637s8.417-7.126,16.688-7.384l6.458,8.013a7.241,7.241,0,0,0-4.816,6.133A6.21,6.21,0,0,0,78.763,44.5a21,21,0,0,0-.63,5.426Z" transform="translate(11.327 6.25)" fill="#33ece0"/>
        <path id="Trazado_608333" data-name="Trazado 608333" d="M89.441,27.191l-.653,7.575h17.979a29.648,29.648,0,0,0-17.326-7.575" transform="translate(20.595 6.307)" fill="#33ece0"/>
        <path id="Trazado_608334" data-name="Trazado 608334" d="M81.084,11.916s4.651-3.032,4.975-6.851c0,0,1.939,2.359,3.825,2.952a19.781,19.781,0,0,0,4.731.6l-.17,2.883s1.863-3.722.929-6.406A7.674,7.674,0,0,0,89.975.6C88.37.28,86.025-.151,84.051.987l-.7.188s-4.381.049-5.529,2.22-1.735,3.289-1.762,4.9a8.935,8.935,0,0,0,.383,2.8s2.968-1.646,4.642.822" transform="translate(17.642 0.057)" fill="#1a1a1a"/>
        <path id="Trazado_608335" data-name="Trazado 608335" d="M78.76,13.952l-.329,1.939-1.122-1.7Z" transform="translate(17.932 3.236)" fill="#3a3a3a"/>
        <path id="Trazado_608336" data-name="Trazado 608336" d="M117.794,137.385l-4.845-.218-10.757,3.022,11.084,10.219,25.221-2.2-17.7-10.371Z" transform="translate(23.704 31.817)" fill="#fff"/>
        <path id="Trazado_608337" data-name="Trazado 608337" d="M109.833,137.468,106.1,128.16l-2.514,1.02,2.558,6.3Z" transform="translate(24.029 29.728)" fill="#1a1a1a"/>
        <path id="Trazado_608338" data-name="Trazado 608338" d="M106.2,128.39l-.5-1.225-2.514.91.5,1.334Z" transform="translate(23.935 29.497)" fill="#fff"/>
        <path id="Trazado_608339" data-name="Trazado 608339" d="M185.157,101.016,172.2,88.132a6.753,6.753,0,0,0-7.2-.318l-17.422,17.127a6.784,6.784,0,0,0-.551,7.612l23.843,24.02s2.205,2.449,4.935,2.564a6.363,6.363,0,0,0,3.255-.7c1.051-.788,4.489-3.939,4.489-3.939s-10.685-6.614-13.439-9.9-3.58-3.544-3.58-3.544l1.03-2.591s2.6-4.5,3.573-5.836,4.357-4.882,4.357-4.882l11.078,7.8c1.68,1.183,2.783,2.075,2.783,2.075s-2.126-6.292-2.639-8.094-1.552-8.51-1.552-8.51" transform="translate(33.883 20.161)" fill="#fff"/>
        <path id="Trazado_608340" data-name="Trazado 608340" d="M30.656,68.257a16.378,16.378,0,0,1,3.446-1.7,14.819,14.819,0,0,0,3.851-1.48,9.239,9.239,0,0,0,1.613-3.8c.3-1.428,1.414-3.056-2.072-5.083a13.8,13.8,0,0,0-4.513-1.013c-2.964-.254-4.311.28-6.138-.218s-3.233-1.324-5.017-1.3-3.643-.224-6.022,2.018a12.639,12.639,0,0,0-3.414,6.743c-.356,1.586-.345,3.181-.936,5.312S10.227,71.9,8.322,72.814a9.925,9.925,0,0,0-4.38,4.834,9.3,9.3,0,0,0,.188,8.067c1.525,2.686,6.012,4.859,9.307,5.518s7.76.483,9.951-.913,5.162-2.105,6.21-4.612a14.05,14.05,0,0,0,1.015-5,17.774,17.774,0,0,0-.628-4.285,8.3,8.3,0,0,0-1.255-2.512s-3.225-.387-3.017-3.213A3.129,3.129,0,0,1,29.1,67.735a15.256,15.256,0,0,1,1.561.522" transform="translate(0.722 12.447)" fill="#fff"/>
        <path id="Trazado_608341" data-name="Trazado 608341" d="M35.078,60.6l-.66,7.694s2.218,1.706,2.1,2.094a15.312,15.312,0,0,1-2.3,2.081,31.258,31.258,0,0,1-.5,3.372c-.234.764-1.377,4.132-6.263,3.737l-1.071,6.768-2.136-.482A7.059,7.059,0,0,0,25.88,82.8a16.806,16.806,0,0,0,.379-5.066c-.223-1.917-1.056-4.686-1.677-5.27s-1.5-.06-2.479-1.319-.716-3.695.611-4.434a3.506,3.506,0,0,1,3.672-.063,15.7,15.7,0,0,1,3.927-1.8c1.822-.441,3.807-.6,4.763-4.249" transform="translate(4.991 14.056)" fill="#fff"/>
        <path id="Trazado_608342" data-name="Trazado 608342" d="M70.766,98.988s9.171,2.539,9.783,13.712A62.173,62.173,0,0,1,61.842,121.4c-10.787,2.888-15,1.727-15,1.727s1.671,8.955,2.326,14.184,1.241,10.92,1.241,10.92H4.993s.036-19.523,0-26.393-.23-17.36-.23-17.36.5-11.409,2.279-15.508,2.352-5.134,2.352-5.134A15.591,15.591,0,0,0,18,85.127c4.361-.8,6.592-1.268,9.875-4.116a7.065,7.065,0,0,1,4.9,2.954,40.537,40.537,0,0,1,6.414,11.7c1.907,5.316,5.546,9.6,10.394,10.16a25.986,25.986,0,0,0,14.3-2.639,56.475,56.475,0,0,0,6.877-4.2" transform="translate(1.105 18.791)" fill="#1a1a1a"/>
        <path id="Trazado_608343" data-name="Trazado 608343" d="M106.37,122.951s.784-7.627,3.251-8.937a15.934,15.934,0,0,1,4.529-1.629s-2.429-3.165-1.133-5.58,3.99-2.519,6.93-2.169,5.005,1.015,5.949,2.9-1.579,6.178-1.579,6.178,3.225,1.487,4,4.077a12.667,12.667,0,0,1-.384,7.561,15.818,15.818,0,0,1-1.574,3.778A5.947,5.947,0,0,1,123.1,123.4s-4.27,2.38-7.7,1.995-5.774-.538-5.774-.538-.623-1.647-3.251-1.9" transform="translate(24.673 24.237)" fill="#1a1a1a"/>
        <path id="Trazado_608344" data-name="Trazado 608344" d="M109.921,122.642s.037-2.847-2.5-3.075c0,0-2.423.532-2.5,2.5s.485,3.381,3.2,3.461c0,0-.63,3.206.578,5.233a10.317,10.317,0,0,0,6.108,4.543,5.488,5.488,0,0,0,5.63-1.2,32.654,32.654,0,0,0,5.114-6.147,7.715,7.715,0,0,0,1.138-2.312,5.726,5.726,0,0,1-3.256-5.737,10.769,10.769,0,0,1-6.938,1.8c-4.509-.185-6.537-.346-6.537-.346Z" transform="translate(24.336 27.735)" fill="#fff"/>
        <path id="Trazado_608345" data-name="Trazado 608345" d="M51.425,114.558l11.388-4.506s-1.731,3.654-3.936,4.11a52.441,52.441,0,0,1-7.452.4" transform="translate(11.928 25.527)" fill="#a3bfe4"/>
        <path id="Trazado_608346" data-name="Trazado 608346" d="M84,14.631s1.279.864,1.35,1.754a7,7,0,0,1-.107,1.756,4.69,4.69,0,0,0,2.542,0,1,1,0,0,0,.472-1.756c-.367-.158-1.47.142-1.854-.113s-.753-.535-.753-.972-.444-1.348-1.009-1.348-.641.679-.641.679" transform="translate(19.486 3.236)" fill="#3a3a3a"/>
        <path id="Rectángulo_347135" data-name="Rectángulo 347135" d="M5.76,0H33.991a5.762,5.762,0,0,1,5.762,5.762V20.484a5.76,5.76,0,0,1-5.76,5.76H5.761A5.761,5.761,0,0,1,0,20.483V5.76A5.76,5.76,0,0,1,5.76,0Z" transform="translate(149.223 19.864)" fill="#1a1a1a"/>
        <path id="Trazado_608347" data-name="Trazado 608347" d="M143.314,31.378a1.349,1.349,0,0,0,0-2.543l-9.2-5.373c-1.2-.7-2.177-.137-2.177,1.25V35.506c0,1.387.979,1.949,2.176,1.249Z" transform="translate(30.604 5.373)" fill="#fff"/>
        <path id="Trazado_608348" data-name="Trazado 608348" d="M110.5,94.181c-.441,3.164-2.965,5.5-6.662,6.173-.4.073-.795.168-1.282.271v3.461H99.4v-3.478c-4.547-.5-7.132-2.874-8.09-6.957l4.954-1.2c.131.336.26.641.367.95a4.7,4.7,0,0,0,6.242,2.7,2.705,2.705,0,0,0,1.848-2.486,2.2,2.2,0,0,0-1.44-2.316c-1.348-.568-2.736-1.048-4.109-1.563-.726-.271-1.47-.506-2.178-.809-3.564-1.525-5.132-4.08-4.686-7.588.436-3.415,2.6-5.524,6.431-6.273.155-.031.306-.081.554-.149v-2.66h3.122l.073,2.624a13.534,13.534,0,0,1,2.485.7,7.466,7.466,0,0,1,4.8,5.119q-2.193.837-4.385,1.672a23.434,23.434,0,0,0-1.594-2.314,3.517,3.517,0,0,0-3.695-1.016,2.517,2.517,0,0,0-2.012,2.088,2.135,2.135,0,0,0,1.332,2.555c1.151.5,2.342.931,3.517,1.388.987.383,2,.723,2.959,1.149,3.691,1.632,5.142,4.158,4.611,7.956" transform="translate(21.18 16.76)" fill="#ffce1e"/>
        <rect id="Rectángulo_347136" data-name="Rectángulo 347136" width="12.644" height="12.644" transform="translate(152.435 111.741)" fill="#a3bfe4"/>
        <path id="Trazado_608349" data-name="Trazado 608349" d="M83.269,34.27l4.017-.229L85.01,30.32Z" transform="translate(19.315 7.033)" fill="#1a1a1a"/>
        <path id="Trazado_608350" data-name="Trazado 608350" d="M49.225,62.863a12.616,12.616,0,0,0,1.834,4.126,16.387,16.387,0,0,0,11.171,6.138c1.727-2.725-.052-6.952-3.976-9.445-3.21-2.04-6.86-2.285-9.03-.818" transform="translate(11.418 14.364)" fill="#1a1a1a"/>
        <path id="Trazado_608351" data-name="Trazado 608351" d="M132.325,51.737s-.739,4.17,2.375,6.163l.987-1.137s-3.144-2.262-3.362-5.026" transform="translate(30.676 12.001)" fill="#b5b5b5"/>
        <path id="Trazado_608352" data-name="Trazado 608352" d="M178.085,129.524c.882-.792,1.606-1.455,1.606-1.455s-10.684-6.614-13.439-9.9c-2.556-3.043-3.448-3.489-3.564-3.538-.015-.006,8.2,10.911,15.4,14.889" transform="translate(37.737 26.591)" fill="#b5b5b5"/>
        <rect id="Rectángulo_347137" data-name="Rectángulo 347137" width="6.556" height="6.556" transform="translate(183.138 74.458)" fill="#983333"/>
        <path id="Trazado_608353" data-name="Trazado 608353" d="M89.074,1.209c.011.022,2.676,5.619,1.047,7.121.853.062,1.476.065,1.476.065l-.17,2.883s1.863-3.722.929-6.406a7.023,7.023,0,0,0-3.282-3.663" transform="translate(20.661 0.28)" fill="#fff"/>
        <path id="Trazado_608354" data-name="Trazado 608354" d="M85.156,3.838s-2.705,5.844-5.75,6.439l.9.807a9.182,9.182,0,0,0,4.847-7.246" transform="translate(18.419 0.89)" fill="#fff"/>
        <path id="Trazado_608355" data-name="Trazado 608355" d="M122.426,112.777a9.426,9.426,0,0,1,.971,7.849c-1.5,4.2-2.665,4.561-2.665,4.561a2.967,2.967,0,0,0,2.385,1.828,18.715,18.715,0,0,0,2.169-6.7c.211-3.229.211-5.722-2.861-7.533" transform="translate(28.005 26.16)" fill="#fff"/>
        <path id="Trazado_608356" data-name="Trazado 608356" d="M117.205,104.541s4.789,1.007,4.7,4.162a13.1,13.1,0,0,1-1.26,4.567l1.158.439a13.212,13.212,0,0,0,1.8-4.769c.112-2.023-.573-3.231-6.4-4.4" transform="translate(27.187 24.249)" fill="#fff"/>
        <path id="Trazado_608357" data-name="Trazado 608357" d="M191.122,88.306a9.234,9.234,0,0,0-2.894-5.56c-1.581-1.648-4.912-3.321-6.643-4.194a5.4,5.4,0,0,1-3.095-3.783,12.143,12.143,0,0,1,1.395-6.014,12.312,12.312,0,0,0,1.037-4.606c-.511-3.472-1.684-3.993-3.931-5.493a9.833,9.833,0,0,0-1.106-.626c.108.08,5.567,3.773,2.364,9.406-2.736,4.812-2.992,9.793,0,12.051,2.916,2.2,5.922,4.994,5.589,6.739,3.429,2.21,5.477,7.423,5.477,7.423.952-.33,2.04-3.111,1.806-5.342" transform="translate(40.798 13.46)" fill="#fff"/>
        <path id="Trazado_608358" data-name="Trazado 608358" d="M199.245,118.237s-6.281-3.031-11.216,2.14a9.933,9.933,0,0,0-2.388,10.711,11.008,11.008,0,0,0,10.262-4.121c3.947-5.119,3.341-8.73,3.341-8.73" transform="translate(42.909 27.221)" fill="#afafaf"/>
        <path id="Trazado_608359" data-name="Trazado 608359" d="M106.811,35.129c-6.585-5.575-11.827-6.789-17.528-7.715,5.874.391,11.195,1.625,17.709,7.227-.026.453-.1.488-.181.488" transform="translate(20.71 6.359)" fill="#1a1a1a"/>
        <path id="Trazado_608360" data-name="Trazado 608360" d="M64.175,81.692c-.442,0-.891-.018-1.343-.054-6.391-.509-13.51-4.981-14.119-12.268-.625-7.451,2.306-14.854,4.929-20.47,2.708-5.8,5.719-11.774,10.1-15.544C69.72,28.217,73.554,27.645,78,26.983c.547-.083,1.106-.166,1.685-.26a2.13,2.13,0,0,1-1.6.808c-4.536.675-8.119,1.21-13.97,6.244-4.3,3.7-7.281,9.615-9.964,15.361C51.55,54.687,48.651,62,49.265,69.322c.584,6.984,7.448,11.274,13.611,11.763,11.3.914,19.052-9.755,25.137-20.333-.145-.462-1.034-2.672-5.4-5.784S76.085,51.9,75.688,51.95c-.727.728-7.568,7.611-15.743,17A228.025,228.025,0,0,1,75.362,51.494c.223-.1,2.5-.606,7.575,3.02,5.12,3.653,5.626,6.122,5.645,6.225-3.95,7.009-11.957,20.951-24.406,20.953" transform="translate(11.28 6.199)" fill="#1a1a1a"/>
        <path id="Trazado_608361" data-name="Trazado 608361" d="M88.287,135.964H0c0-.557,88.287-.557,88.287-.557.277.432.153.557,0,.557" transform="translate(0 31.409)" fill="#1a1a1a"/>
        <path id="Trazado_608362" data-name="Trazado 608362" d="M231.1,135.964H152.166c0-.557,78.929-.557,78.929-.557.278.432.155.557,0,.557" transform="translate(35.296 31.409)" fill="#1a1a1a"/>
        <path id="Trazado_608363" data-name="Trazado 608363" d="M117.461,136.05c-.006,0-7.238-.172-7.238-.172.015-.552,7.244-.382,7.244-.382.267.434.143.554-.006.554" transform="translate(25.567 31.424)" fill="#1a1a1a"/>
        <path id="Trazado_608364" data-name="Trazado 608364" d="M86.653,18.823a3.181,3.181,0,0,1-1.892-.632A3.234,3.234,0,0,1,83.51,15.6a1.936,1.936,0,0,1,.558-1.556,1.075,1.075,0,0,1,1.074-.18,1.571,1.571,0,0,1,.891,1.22c.132.738.2.788.351.9s.221.161.963.073a1.533,1.533,0,0,1,1.429.488,1.078,1.078,0,0,1,.145,1.079,2.033,2.033,0,0,1-1.364,1.063,3.175,3.175,0,0,1-.905.136m-1.889-4.474a1.215,1.215,0,0,0-.7,1.249,2.684,2.684,0,0,0,1.026,2.147,2.614,2.614,0,0,0,2.309.411,1.546,1.546,0,0,0,1-.721.534.534,0,0,0-.06-.546,1.049,1.049,0,0,0-.925-.285c-.883.111-1.073.037-1.361-.175-.307-.224-.418-.415-.568-1.248a1.029,1.029,0,0,0-.547-.8.469.469,0,0,0-.176-.036" transform="translate(19.371 3.2)" fill="#1a1a1a"/>
        <path id="Trazado_608365" data-name="Trazado 608365" d="M85.195,18.245A3.027,3.027,0,0,0,83.757,14.7,2.222,2.222,0,0,1,85.436,18.1a.277.277,0,0,1-.241.142" transform="translate(19.428 3.409)" fill="#1a1a1a"/>
        <path id="Trazado_608366" data-name="Trazado 608366" d="M189.737,137.725c-.1-4.006-.1-4.006-.26-9.076l-.017-.551a.542.542,0,0,1,.57.535,71.215,71.215,0,0,1,0,8.462c-.023.514-.145.63-.293.63" transform="translate(43.947 29.713)" fill="#1a1a1a"/>
        <path id="Trazado_608367" data-name="Trazado 608367" d="M182.52,116.98c-4.853-9.3-5.44-23.962-5.444-24.109.557.126,1.142,14.665,5.693,23.707-.165.392-.207.4-.249.4" transform="translate(41.074 21.542)" fill="#1a1a1a"/>
        <path id="Trazado_608368" data-name="Trazado 608368" d="M64.327,57.187c4.824-7.8,6.956-18.694,6.977-18.8.522.214-1.629,11.218-6.749,18.68a.277.277,0,0,1-.228.122" transform="translate(14.921 8.904)" fill="#1a1a1a"/>
        <path id="Trazado_608369" data-name="Trazado 608369" d="M82.139,49.875c-.035-.646.368-.968.926-1.417,1.758-1.412,5.03-4.042,5.41-5.748.2-.892.052-1.508-.426-1.783a1.321,1.321,0,0,0-1.4.123c.068-.817.982-1.007,1.682-.6.4.234,1.031.853.689,2.385-.423,1.9-3.665,4.5-5.6,6.06-.52.418-.93.747-1.071.9a.276.276,0,0,1-.2.087" transform="translate(19.052 9.334)" fill="#1a1a1a"/>
        <path id="Trazado_608370" data-name="Trazado 608370" d="M79.9,55.151a38.085,38.085,0,0,1,6.14-5.738c1.869-1.533,2.9-3.042,2.985-4.372a2.217,2.217,0,0,0-.479-1.624c.429-.355,1.108.36,1.032,1.637-.085,1.514-1.158,3.125-3.186,4.787-2.692,2.206-4.895,4.049-6.315,5.243a.274.274,0,0,1-.177.067" transform="translate(18.533 10.05)" fill="#1a1a1a"/>
        <path id="Trazado_608371" data-name="Trazado 608371" d="M72.611,49.706c-.118-1.013-.106-1.632-.219-2.794-.623-6.42,3.191-8.448,3.352-8.53.1.57-3.385,2.45-2.8,8.477a7.662,7.662,0,0,1-.063,2.629.277.277,0,0,1-.27.218" transform="translate(16.776 8.903)" fill="#1a1a1a"/>
        <path id="Trazado_608372" data-name="Trazado 608372" d="M81.624,48.46c3.5-2.916,6.261-6.072,6.4-8.013a1.557,1.557,0,0,0-.519-1.363,1.128,1.128,0,0,0-.936-.318,3.067,3.067,0,0,0-1.42.859c-.441.392-.861.828-1.268,1.25-.174.18-.346.36-.522.536-.946.957-1.977,1.857-2.858,2.608-.234.2-.466.411-.7.626a11.2,11.2,0,0,1-1.891,1.5,1.91,1.91,0,0,1-1.048.308,2.064,2.064,0,0,1-1.536-.5,1.969,1.969,0,0,1-.35-1.467,8.264,8.264,0,0,1,.758,1.094,1.689,1.689,0,0,0,1.152.322,1.563,1.563,0,0,0,.748-.237,10.627,10.627,0,0,0,1.792-1.428c.238-.218.476-.436.715-.638.873-.747,1.892-1.635,2.824-2.576q.261-.264.519-.535c.411-.427.84-.872,1.3-1.278a3.51,3.51,0,0,1,1.7-.993,1.69,1.69,0,0,1,1.391.455,2.1,2.1,0,0,1,.7,1.813c-.184,2.489-3.654,5.853-6.8,7.928a.283.283,0,0,1-.152.046" transform="translate(17.39 8.861)" fill="#1a1a1a"/>
        <path id="Trazado_608373" data-name="Trazado 608373" d="M87.554,23.321a17.658,17.658,0,0,1-3.719-.479,11.378,11.378,0,0,1-2.606-.877,7.2,7.2,0,0,1,2.724.338c3.064.673,5.046.622,6.244-.15a3.427,3.427,0,0,0,1.42-2.32c.148-.68.434-2.388.654-3.891.168-1.142.864-8.843.869-8.918.524.366-.15,7.841-.32,9-.195,1.327-.5,3.156-.658,3.926A3.967,3.967,0,0,1,90.5,22.618a5.351,5.351,0,0,1-2.943.7" transform="translate(18.842 1.629)" fill="#1a1a1a"/>
        <path id="Trazado_608374" data-name="Trazado 608374" d="M77.366,25.809C77.092,25.5,78.595,13.9,78.595,13.9c.551.071-.954,11.668-.954,11.668a.278.278,0,0,1-.275.241" transform="translate(17.938 3.224)" fill="#1a1a1a"/>
        <path id="Trazado_608375" data-name="Trazado 608375" d="M78.607,15.6a3.624,3.624,0,1,1,3.514-4.516,5.2,5.2,0,0,1-1.3-1.244,3.069,3.069,0,1,0-.632,4.766,1.477,1.477,0,0,1-1.577.994" transform="translate(17.394 1.939)" fill="#1a1a1a"/>
        <path id="Trazado_608376" data-name="Trazado 608376" d="M84.853,9.794c.224,0,.356.115.3.913-.064.889-.314,1.01-.511.973s-.351-.34-.246-.967.165-.917.458-.919" transform="translate(19.568 2.272)" fill="#1a1a1a"/>
        <path id="Trazado_608377" data-name="Trazado 608377" d="M89.953,10.3c.224,0,.357.115.3.912-.063.891-.314,1.01-.51.972s-.352-.338-.248-.965.165-.917.458-.919" transform="translate(20.751 2.389)" fill="#1a1a1a"/>
        <path id="Trazado_608378" data-name="Trazado 608378" d="M91.368,9.779c-.3-.346-.559-1.355-1.988-1.1,1.881-.923,2.257.747,2.261.764-.235.33-.254.333-.272.333" transform="translate(20.732 1.949)" fill="#1a1a1a"/>
        <path id="Trazado_608379" data-name="Trazado 608379" d="M83.476,9.07c1.769-2.205,3.283-.825,3.3-.814-.427.361-1.55-.634-3.114.745a.284.284,0,0,1-.184.069" transform="translate(19.363 1.814)" fill="#1a1a1a"/>
        <path id="Trazado_608380" data-name="Trazado 608380" d="M86.328,24.518c-.277-.294-.036-4.505-.036-4.505.554.033.313,4.242.313,4.242a.278.278,0,0,1-.277.264" transform="translate(19.994 4.642)" fill="#1a1a1a"/>
        <path id="Trazado_608381" data-name="Trazado 608381" d="M80.138,11.329a11.769,11.769,0,0,0,4.733-7.351c.616.076,3.044,4.164,8.765,3.5A7.874,7.874,0,0,1,85.286,4.7a10.233,10.233,0,0,1-5.021,6.6.262.262,0,0,1-.127.032" transform="translate(18.589 0.923)" fill="#1a1a1a"/>
        <path id="Trazado_608382" data-name="Trazado 608382" d="M76.912,13.538c-.094-.537,2.277-1.39,2.277-1.39L77.351,9.781c.437-.34,2.51,2.33,2.51,2.33-.126.43-2.854,1.411-2.854,1.411a.258.258,0,0,1-.095.017" transform="translate(17.84 2.262)" fill="#1a1a1a"/>
        <path id="Trazado_608383" data-name="Trazado 608383" d="M83.727,3.128a16.456,16.456,0,0,1-1.392-1.963C82.8.869,83.961,2.7,83.961,2.7c-.132.411-.184.425-.234.425" transform="translate(19.098 0.263)" fill="#1a1a1a"/>
        <path id="Trazado_608384" data-name="Trazado 608384" d="M153.177,140.876c-.272-.413.229-12.584-.3-26.644a248.876,248.876,0,0,1,.573,26.377.278.278,0,0,1-.276.266" transform="translate(35.462 26.497)" fill="#1a1a1a"/>
        <path id="Trazado_608385" data-name="Trazado 608385" d="M152.765,98.392a43.058,43.058,0,0,1,2.254-11.525c-.291,2.544-1.386,6.389-1.977,11.282a.28.28,0,0,1-.277.243" transform="translate(35.435 20.15)" fill="#1a1a1a"/>
        <path id="Trazado_608386" data-name="Trazado 608386" d="M167.139,78.734c-.57,0-1.121-.014-1.546-.032a6.292,6.292,0,0,1-2.4-.5,3.715,3.715,0,0,1-2.064-2.925,19.875,19.875,0,0,1,.213-6.593c.246-1.72,1.635-8.154,1.69-8.306.476.384-.88,6.561-1.1,8.079a20.432,20.432,0,0,0-.262,6.717,3.2,3.2,0,0,0,1.753,2.524,5.763,5.763,0,0,0,2.2.45c.92.038,2.267.048,3.207-.02a1.91,1.91,0,0,1-1.684.6" transform="translate(37.327 14.006)" fill="#1a1a1a"/>
        <path id="Trazado_608387" data-name="Trazado 608387" d="M173.935,68.732c-9.436-5-11.566-8.507-11.652-8.656.5-.246,2.647,3.259,11.781,8.133.064.468-.032.522-.129.522" transform="translate(37.643 13.932)" fill="#1a1a1a"/>
        <path id="Trazado_608388" data-name="Trazado 608388" d="M167.871,65.681c-.216-.062-.375.012-.538.8-.185.872.023,1.057.223,1.074s.432-.229.5-.86.094-.928-.188-1.01" transform="translate(38.798 15.231)" fill="#1a1a1a"/>
        <path id="Trazado_608389" data-name="Trazado 608389" d="M163.143,64.925c-.213-.07-.373,0-.565.775-.212.866-.01,1.058.187,1.082s.44-.213.533-.841.124-.924-.155-1.015" transform="translate(37.69 15.055)" fill="#1a1a1a"/>
        <path id="Trazado_608390" data-name="Trazado 608390" d="M162.246,63.7c.227-.76.864-1.046,2-.589a4.327,4.327,0,0,0-1.847.543.286.286,0,0,1-.152.046" transform="translate(37.634 14.589)" fill="#1a1a1a"/>
        <path id="Trazado_608391" data-name="Trazado 608391" d="M172.876,72.841a3.337,3.337,0,0,1-1.807-.564,4.069,4.069,0,0,1,1.634,0,2.569,2.569,0,0,0,1.891-.644,2.61,2.61,0,0,0-1.553-4.566,2.559,2.559,0,0,0-1.483.35,1.309,1.309,0,0,1,1.519-.9,3.165,3.165,0,0,1-.2,6.324" transform="translate(39.681 15.428)" fill="#1a1a1a"/>
        <path id="Trazado_608392" data-name="Trazado 608392" d="M173.257,71.222c-.2-.083-1.937-1.822-1.937-1.822.06-.439,2.4-1.744,2.4-1.744.271.484-1.748,1.611-1.748,1.611l1.482,1.481c-.054.446-.127.474-.2.474" transform="translate(39.739 15.693)" fill="#1a1a1a"/>
        <path id="Trazado_608393" data-name="Trazado 608393" d="M24.6,71.59a3.437,3.437,0,0,1-3.35-3.725,3.365,3.365,0,0,1,5.514-2.214,8,8,0,0,1-1.869-.219,2.81,2.81,0,1,0-.6,5.588,2.779,2.779,0,0,0,1.482-.241,1.053,1.053,0,0,1-1.178.812" transform="translate(4.925 15.045)" fill="#1a1a1a"/>
        <path id="Trazado_608394" data-name="Trazado 608394" d="M23.4,69.714c-.159-.5,1.7-1.81,1.7-1.81l-1.942-1.573c.349-.431,2.574,1.372,2.574,1.372-.015.442-2.169,1.959-2.169,1.959a.272.272,0,0,1-.159.052" transform="translate(5.372 15.37)" fill="#1a1a1a"/>
        <path id="Trazado_608395" data-name="Trazado 608395" d="M165.749,86.384a4.661,4.661,0,0,1-.892-.086,1.554,1.554,0,0,1-1.09-.788c-1.056-1.852.479-6.372.648-6.858l.272-3.622c.553.039.278,3.7.278,3.7-.033.121-1.684,4.81-.717,6.5a1,1,0,0,0,.712.521c4.811.91,8.14-7.084,8.173-7.166.379.538-2.654,7.8-7.384,7.8" transform="translate(37.902 17.404)" fill="#1a1a1a"/>
        <path id="Trazado_608396" data-name="Trazado 608396" d="M165.6,72.013a2.893,2.893,0,0,1-1.105-.246c.807-.261,1.316-.24,1.724-.451a2.073,2.073,0,0,0,.9-1.254c.531.169.271,1.274-.643,1.746a1.879,1.879,0,0,1-.875.206" transform="translate(38.155 16.251)" fill="#1a1a1a"/>
        <path id="Trazado_608397" data-name="Trazado 608397" d="M107.559,125.751a2.72,2.72,0,0,1-1.263-.322,3.308,3.308,0,0,1-1.347-4.213,2.971,2.971,0,0,1,1.737-1.646,2.677,2.677,0,0,1,2.156.172,3.012,3.012,0,0,1,1.4,3.063,4.17,4.17,0,0,0-1.657-2.575,2.136,2.136,0,0,0-1.714-.136,2.407,2.407,0,0,0-1.411,1.345,2.744,2.744,0,0,0,1.1,3.5,2.132,2.132,0,0,0,1.225.245,1.662,1.662,0,0,0,.574-.092c-.081.644-.514.65-.547.647-.083.007-.165.011-.249.011" transform="translate(24.278 27.701)" fill="#1a1a1a"/>
        <path id="Trazado_608398" data-name="Trazado 608398" d="M125.546,125.71c-2.713-1.13-3.181-4.239-3.265-5.418-6.006,3.108-13.4,1.3-13.474,1.281.209-.517,7.717,1.315,13.6-1.977.411.286.415,4.378,3.247,5.582.1.468,0,.532-.107.532" transform="translate(25.239 27.741)" fill="#1a1a1a"/>
        <path id="Trazado_608399" data-name="Trazado 608399" d="M88.238,148.4c-6.986,0-13.6-.695-15.568-3.214a6.812,6.812,0,0,1-1-5.854c1.177-5.237,6.422-10.766,13.69-14.432,13.378-6.743,28.95-6.811,29.163-6.811-.206.557-15.653.622-28.913,7.307-8.514,4.293-12.506,10.079-13.4,14.059a6.274,6.274,0,0,0,.893,5.391c3.443,4.423,23.492,2.8,31.042,2.193.775-.062,1.444-.116,1.985-.155a2.509,2.509,0,0,1-1.94.707c-3.831.31-10.027.811-15.956.811" transform="translate(16.57 27.391)" fill="#1a1a1a"/>
        <path id="Trazado_608400" data-name="Trazado 608400" d="M133.448,148.269c-1.533,0-2.941-.025-4.146-.071,7.817-.257,24.109-.85,27.487-3.056a4.238,4.238,0,0,0,1.85-3.916c-.129-4.027-4.036-10.224-12.476-14.986-7.956-4.493-21.276-6.447-21.84-6.529.646-.466,14.065,1.5,22.112,6.044,8.627,4.871,12.624,11.27,12.758,15.452a4.768,4.768,0,0,1-2.1,4.4c-2.944,1.919-15.194,2.663-23.646,2.663" transform="translate(28.838 27.752)" fill="#1a1a1a"/>
        <path id="Trazado_608401" data-name="Trazado 608401" d="M116.137,137.935a5.786,5.786,0,0,1-1.52-.2c-8.979-2.42-7.138-10.1-7.118-10.176.463.43-1.18,7.366,7.262,9.641,7.338,1.993,12.809-12.982,12.864-13.135.026-.075,2.683-7.609-2-10.608-4.763-3.053-11.932-2.947-15.388-.94-3.341,1.934-3.574,9.181-3.575,9.256-.546-.326-.308-7.648,3.3-9.735s11.036-2.2,15.966.951c5.055,3.241,2.25,11.185,2.219,11.265-.212.6-4.986,13.686-12.008,13.686" transform="translate(24.69 25.639)" fill="#1a1a1a"/>
        <path id="Trazado_608402" data-name="Trazado 608402" d="M123.139,114.118c1.488-3.153,1.977-5.27,1.215-6.719-.82-1.562-3.111-2.428-6.813-2.577-2.761-.095-4.561.482-5.316,1.756-1.286,2.177.819,5.715.841,5.75-.57.132-2.772-3.567-1.317-6.032.865-1.464,2.806-2.168,5.816-2.025,3.911.155,6.359,1.122,7.277,2.869.864,1.641.367,3.945-1.468,6.85a.277.277,0,0,1-.235.129" transform="translate(25.808 24.182)" fill="#1a1a1a"/>
        <path id="Trazado_608403" data-name="Trazado 608403" d="M114.58,123.938a1.815,1.815,0,0,0-.662,1.505c.086.435.177.63.621.159s1.087-2.157.041-1.664" transform="translate(26.421 28.728)" fill="#1a1a1a"/>
        <path id="Trazado_608404" data-name="Trazado 608404" d="M119.661,125.471a1.816,1.816,0,0,0-.662,1.505c.086.436.177.63.621.159s1.087-2.157.041-1.664" transform="translate(27.6 29.083)" fill="#1a1a1a"/>
        <path id="Trazado_608405" data-name="Trazado 608405" d="M116.8,131.268c.373-.611,1.583-1.538,1.68-2.025a9.638,9.638,0,0,0-1.314-.767c-.144-.346,1.4-4.6,1.4-4.6.52.188-.936,4.206-.936,4.206.243.123.653.335,1.116.617a.587.587,0,0,1,.28.655,3.678,3.678,0,0,1-2.183,1.912.262.262,0,0,1-.041,0" transform="translate(27.093 28.734)" fill="#1a1a1a"/>
        <path id="Trazado_608406" data-name="Trazado 608406" d="M117.139,124.233c-.086-.015-3.56-1.142-3.56-1.142.172-.529,3.647.6,3.647.6.14.467.03.543-.086.543" transform="translate(26.346 28.519)" fill="#1a1a1a"/>
        <path id="Trazado_608407" data-name="Trazado 608407" d="M122.177,126.02c-.089-.016-3.04-1-3.04-1,.176-.525,3.128.456,3.128.456.137.466.028.54-.087.54" transform="translate(27.635 28.965)" fill="#1a1a1a"/>
        <path id="Trazado_608408" data-name="Trazado 608408" d="M113.238,129.424a9.1,9.1,0,0,0-1.557-.644c.375-.462,1.42-.117,1.74.156-.028.455-.1.488-.182.488" transform="translate(25.905 29.819)" fill="#1a1a1a"/>
        <path id="Trazado_608409" data-name="Trazado 608409" d="M106.014,123.435c-.044-.552,1.677-.833,1.677-.833l-.939-1.99c.5-.237,1.6,2.087,1.6,2.087-.206.392-2.29.732-2.29.732-.016,0-.031,0-.046,0" transform="translate(24.591 27.973)" fill="#1a1a1a"/>
        <path id="Trazado_608410" data-name="Trazado 608410" d="M120.255,119.512c-.18-1.178,0-5.567,0-5.613.546.2.373,4.474.276,5.365a.278.278,0,0,1-.276.248" transform="translate(27.876 26.42)" fill="#1a1a1a"/>
        <path id="Trazado_608411" data-name="Trazado 608411" d="M109.882,137.672c-.256-.174-3.882-9.1-3.882-9.1l-2,.813,2.453,6.043c-.515.207-3.071-6.092-3.071-6.092a12.047,12.047,0,0,1,2.667-1.381c.361.152,4.091,9.338,4.091,9.338-.187.375-.222.382-.257.382" transform="translate(23.98 29.68)" fill="#1a1a1a"/>
        <path id="Trazado_608412" data-name="Trazado 608412" d="M103.731,129.74a5.85,5.85,0,0,1-.755-1.4,12.088,12.088,0,0,1,2.668-1.382c.36.153.859,1.379.859,1.379-.514.208-.907-.761-.907-.761l-2,.814.393.97c-.186.373-.222.382-.256.382" transform="translate(23.886 29.449)" fill="#1a1a1a"/>
        <path id="Trazado_608413" data-name="Trazado 608413" d="M110.515,142.884c-.191-.076-2.569-2.327-2.569-2.327.381-.4,2.317,1.429,2.317,1.429l.126-2.988c.554.025.4,3.619.4,3.619-.208.257-.243.266-.277.266" transform="translate(25.039 32.242)" fill="#1a1a1a"/>
        <path id="Trazado_608414" data-name="Trazado 608414" d="M119.971,146.172a1.821,1.821,0,0,1-.79-.186,1.921,1.921,0,0,1-.828-.708,1.867,1.867,0,0,1-.251-1.1,4.185,4.185,0,0,1,.344-1.286c.169-.426.367-.872.641-1.449.59-1.223,1.269-2.475,2.014-3.719a14.719,14.719,0,0,1-1.515,3.961c-.266.562-.46,1-.623,1.412a3.687,3.687,0,0,0-.308,1.116,1.336,1.336,0,0,0,.17.774,1.361,1.361,0,0,0,.6.5,1.307,1.307,0,0,0,1.6-.4,5.793,5.793,0,0,0,.685-1.042c.5-.869.787-1.407,1.073-1.947l.345-.652a14.309,14.309,0,0,1,1.327-2.208,5.945,5.945,0,0,1-.837,2.464l-.345.658c-.292.543-.583,1.089-.893,1.624a8.2,8.2,0,0,1-.944,1.472,1.969,1.969,0,0,1-1.467.721" transform="translate(27.394 31.946)" fill="#1a1a1a"/>
        <path id="Trazado_608415" data-name="Trazado 608415" d="M116.185,145.442c-1.148-.294-1.593-.875-1.648-1.312-.269-2.05,3.746-6.6,4.2-7.113-.786,1.709-3.854,5.517-3.655,7.041a1.2,1.2,0,0,0,.77.779,1.462,1.462,0,0,0,1.5-.551,44.577,44.577,0,0,0,4.577-6.4c.37.462-2.146,4.7-4.181,6.789a2.173,2.173,0,0,1-1.563.768" transform="translate(26.565 31.782)" fill="#1a1a1a"/>
        <path id="Trazado_608416" data-name="Trazado 608416" d="M114.006,143.855a1.752,1.752,0,0,1-1.2-.493c-1.255-1.138,1.35-4.1,1.65-4.43.929-1.328,3.325-4.507,5.086-4.765,2.588-.391,13.576,1.109,14.042,1.173-.188.532-11.444-.988-13.962-.625-1.073.158-2.842,1.863-4.733,4.561-.859.958-2.374,3.073-1.709,3.675a1.255,1.255,0,0,0,.944.344,3.373,3.373,0,0,0,1.844-1.266c.4.389-.59,1.7-1.791,1.816a1.36,1.36,0,0,1-.171.011" transform="translate(26.088 31.106)" fill="#1a1a1a"/>
        <path id="Trazado_608417" data-name="Trazado 608417" d="M128.905,141.926a8.632,8.632,0,0,1-5.938-2.065c.415-.366,3.124,2.24,8.087,1.3a2.763,2.763,0,0,1-2.149.76" transform="translate(28.523 32.434)" fill="#1a1a1a"/>
        <path id="Trazado_608418" data-name="Trazado 608418" d="M113.437,150.161c-.186-.071-11.4-10.23-11.4-10.23.373-.413,11.493,9.666,11.493,9.666l24.212-2.149-10.773-6c.267-.484,11.828,5.953,11.828,5.953-.11.517-25.339,2.756-25.339,2.756h-.025" transform="translate(23.669 32.455)" fill="#1a1a1a"/>
        <path id="Trazado_608419" data-name="Trazado 608419" d="M94.419,12.172C95.437,9.273,96.88,4.684,92.341,2,87.515-.851,84,1.377,83.858,1.475c-2.6-.063-4.452.6-5.669,1.99-2.365,2.7-1.6,7.3-1.593,7.347-.58-.1-1.361-4.819,1.175-7.713A7.03,7.03,0,0,1,83.63.963c.586-.354,4.2-2.274,8.993.561,5.111,3.021,3.132,8.345,2.044,10.5a.279.279,0,0,1-.248.153" transform="translate(17.631 0)" fill="#1a1a1a"/>
        <path id="Trazado_608420" data-name="Trazado 608420" d="M86.333,32.093c-.191-.075-9.128-8.537-9.128-8.537.381-.4,8.971,7.732,8.971,7.732l1.959-8c.537.132-1.534,8.592-1.534,8.592-.217.209-.243.213-.269.213" transform="translate(17.908 5.402)" fill="#1a1a1a"/>
        <path id="Trazado_608421" data-name="Trazado 608421" d="M83.471,34.5c-.262-.371,1.156-4.364,1.156-4.364.521.185-.894,4.178-.894,4.178a.28.28,0,0,1-.261.186" transform="translate(19.354 6.99)" fill="#1a1a1a"/>
        <path id="Trazado_608422" data-name="Trazado 608422" d="M80.369,36.109c-.216-.1-6.674-8.117-6.674-8.117.017-.366,4.316-4.807,4.316-4.807.4.384-3.73,4.648-3.73,4.648l6.305,7.824c-.094.43-.156.452-.217.452" transform="translate(17.094 5.378)" fill="#1a1a1a"/>
        <path id="Trazado_608423" data-name="Trazado 608423" d="M87.1,34.456c-.235-.134-2.68-4.126-2.68-4.126.472-.288,2.915,3.7,2.915,3.7-.137.407-.186.421-.235.421" transform="translate(19.582 7.032)" fill="#1a1a1a"/>
        <path id="Trazado_608424" data-name="Trazado 608424" d="M89.4,36.044c-.277-.3.378-7.9.378-7.9l-3.656-4.657c.436-.344,4.159,4.4,4.159,4.4.058.195-.6,7.905-.6,7.905a.278.278,0,0,1-.276.255" transform="translate(19.976 5.443)" fill="#1a1a1a"/>
        <path id="Trazado_608425" data-name="Trazado 608425" d="M78.656,16.318a7.654,7.654,0,0,1-1.65-2.275c.51-.217,1.08,1.032,1.845,1.8-.055.445-.124.473-.2.473" transform="translate(17.862 3.252)" fill="#1a1a1a"/>
        <path id="Trazado_608426" data-name="Trazado 608426" d="M88.184,16.457c.468-.663.678-.708.871-.782a.937.937,0,0,0,.559-.493.7.7,0,0,0-.042-.529,1.222,1.222,0,0,0-.753-.6c-.059-.016-.517-.117-.618-.133-.267-.366-.115-4.179-.115-4.179a14.642,14.642,0,0,1,.408,3.659c1,.288,1.383.6,1.579,1.008a1.259,1.259,0,0,1,.062.958,1.458,1.458,0,0,1-.876.819,4.634,4.634,0,0,1-.715.193,2.571,2.571,0,0,1-.361.074" transform="translate(20.422 2.26)" fill="#1a1a1a"/>
        <path id="Trazado_608427" data-name="Trazado 608427" d="M138.67,132.2c-4.951,0-11.078-.372-11.47-.4.18-.546,14.628.335,17.161-.557-.733.846-3.045.952-5.692.952" transform="translate(29.505 30.444)" fill="#1a1a1a"/>
        <path id="Trazado_608428" data-name="Trazado 608428" d="M110.71,140.505c-1.258,0-3.541-.573-7.152-3.378,4.6,2.874,6.874,2.914,7.653,2.784a1.4,1.4,0,0,0,.982-.564c.568-.892-.7-1.927-.9-2.082-.524-.208-5.625-2.255-7.047-4.091,1.812,1.436,7.23,3.567,7.286,3.589.143.092,2.019,1.486,1.132,2.88a1.929,1.929,0,0,1-1.356.814,3.508,3.508,0,0,1-.6.048" transform="translate(24.021 30.891)" fill="#1a1a1a"/>
        <path id="Trazado_608429" data-name="Trazado 608429" d="M109.024,140.77c-3,0-6.733-2.242-6.913-2.353.338-.441,5.191,2.477,8.057,1.653a2.471,2.471,0,0,0,1.6-1.337,1.709,1.709,0,0,1-1.451,1.868,4.6,4.6,0,0,1-1.3.169" transform="translate(23.686 32.096)" fill="#1a1a1a"/>
        <path id="Trazado_608430" data-name="Trazado 608430" d="M110.988,137.97c-.277-.261-.733-2.994-1.512-4.284a6.724,6.724,0,0,0-2.636-2.1c.306-.472,2.261.4,3.109,1.807a15.365,15.365,0,0,1,1.312,4.25c-.243.319-.259.322-.273.322" transform="translate(24.782 30.494)" fill="#1a1a1a"/>
        <path id="Trazado_608431" data-name="Trazado 608431" d="M98.477,132.269c-.011-.553.653-.606,1.988-1.156a10.051,10.051,0,0,1,5.295-.456c-.138.537-2.747.009-5.086.967a7.744,7.744,0,0,1-2.181.642l-.017,0" transform="translate(22.843 30.269)" fill="#1a1a1a"/>
        <path id="Trazado_608432" data-name="Trazado 608432" d="M107.193,141.147a16.673,16.673,0,0,1-5.253-1.216c-1.007-.34-2.1-.626-2.109-.628.186-.524,1.258-.244,1.953-.018,3.825,1.414,6.163,1.653,7.294.833-.256.872-1.039,1.03-1.885,1.03" transform="translate(23.157 32.243)" fill="#1a1a1a"/>
        <path id="Trazado_608433" data-name="Trazado 608433" d="M81.35,132.379c14.8-1.441,20.035-2.007,20.087-2.012.007.558-5.231,1.121-20.07,2.009l-.017,0" transform="translate(18.87 30.24)" fill="#1a1a1a"/>
        <path id="Trazado_608434" data-name="Trazado 608434" d="M100.1,144.5c.986-10.42-2.538-13.7-2.574-13.734.524-.275,4.144,3.1,2.848,13.489a.28.28,0,0,1-.275.245" transform="translate(22.623 30.328)" fill="#1a1a1a"/>
        <path id="Trazado_608435" data-name="Trazado 608435" d="M128.876,145.512c-.729,0-1.472-.625-2.107-1.775,1.041.737,1.656,1.287,2.19,1.215.563-.067,1.059-.8,1.361-2.013a13.933,13.933,0,0,0,.181-4.832c-.452-3.831-1.9-6.3-3-6.3-.889.1-1.541,1.583-1.708,3.7-.356-2.542.434-4.112,1.558-4.247,1.608-.154,3.234,2.793,3.707,6.787a14.582,14.582,0,0,1-.2,5.031c-.367,1.47-1.018,2.335-1.834,2.429a1.456,1.456,0,0,1-.148.009" transform="translate(29.158 30.445)" fill="#1a1a1a"/>
        <path id="Trazado_608436" data-name="Trazado 608436" d="M115.58,137.72c-.006,0-4.66-.111-4.66-.111.011-.552,4.665-.444,4.665-.444.269.435.144.554,0,.554" transform="translate(25.729 31.815)" fill="#1a1a1a"/>
        <path id="Trazado_608437" data-name="Trazado 608437" d="M108.5,142.7c-.016-.554,4.721-.834,4.721-.834.031.552-4.7.832-4.7.832l-.016,0" transform="translate(25.168 32.907)" fill="#1a1a1a"/>
        <path id="Trazado_608438" data-name="Trazado 608438" d="M121.332,144.286c-.022-.554,2.937-.79,2.937-.79.043.552-2.915.787-2.915.787l-.022,0" transform="translate(28.144 33.285)" fill="#1a1a1a"/>
        <path id="Trazado_608439" data-name="Trazado 608439" d="M112.066,146.046c-.022-.553,4.817-.94,4.817-.94.043.552-4.795.938-4.795.938l-.022,0" transform="translate(25.995 33.659)" fill="#1a1a1a"/>
        <path id="Trazado_608440" data-name="Trazado 608440" d="M194.258,94.473c1.838-1.815,1.841-5.586.966-7.715a11.1,11.1,0,0,0-3.751-4.557,27.224,27.224,0,0,0-4.213-2.421l-.494-.246A6.443,6.443,0,0,1,183.5,76.57a6.971,6.971,0,0,1,.331-5.38c.113-.282.233-.57.355-.865A13.536,13.536,0,0,0,185.6,64.88a5.976,5.976,0,0,0-2.213-4.472,25.109,25.109,0,0,0-4.807-2.5c-1.159-.415-11.429-3.929-15.239.531a10.5,10.5,0,0,0-2.133,6.337,12.881,12.881,0,0,0,.283,2.986,13.653,13.653,0,0,1,.293,2.976,7.949,7.949,0,0,1-2.066,5.005,10.216,10.216,0,0,1-1.423,1.207,11.027,11.027,0,0,0-1.179.97,6.726,6.726,0,0,0-1.645,2.615c-.554,1.636-.621,3.9.864,5.344-2.054-1.229-2-3.729-1.387-5.523a7.263,7.263,0,0,1,1.78-2.832,11.641,11.641,0,0,1,1.236-1.018,9.415,9.415,0,0,0,1.345-1.141,7.394,7.394,0,0,0,1.923-4.654,13.114,13.114,0,0,0-.288-2.857,13.132,13.132,0,0,1-.287-3.116,10.993,10.993,0,0,1,2.263-6.661c4.051-4.743,14.652-1.124,15.845-.692a25.7,25.7,0,0,1,4.922,2.55,6.494,6.494,0,0,1,2.465,4.916,13.928,13.928,0,0,1-1.459,5.682c-.122.29-.241.577-.35.857a6.471,6.471,0,0,0-.338,4.967,5.966,5.966,0,0,0,3,2.677l.5.246a28.09,28.09,0,0,1,4.3,2.471,11.646,11.646,0,0,1,3.932,4.792c.928,2.257.988,6.359-1.326,7.877a.288.288,0,0,1-.153.047" transform="translate(35.856 12.912)" fill="#1a1a1a"/>
        <path id="Trazado_608441" data-name="Trazado 608441" d="M171.537,79.794c-.276-.285-.089-8.313-.089-8.313.553.012.365,8.042.365,8.042a.276.276,0,0,1-.276.271" transform="translate(39.755 16.581)" fill="#1a1a1a"/>
        <path id="Trazado_608442" data-name="Trazado 608442" d="M192.1,140.6c-9.705,0-22.555-9.824-29.585-17.445a26.149,26.149,0,0,1,4.112-7.829,51.382,51.382,0,0,1,4.849-5.668c.456.039,12.013,7.393,18.277,13.516A206.018,206.018,0,0,0,171.7,110.209a53.836,53.836,0,0,0-4.633,5.449,34.17,34.17,0,0,0-4.03,7.249c10.571,11.4,26.219,20.756,34.535,15.72,13.586-8.247,2.8-31.427-3-43.879l-.393-.845c-.222-.478-.458-1.074-.732-1.763-1.311-3.3-3.288-8.292-7.74-11.006-2.9-1.768-5.885-2.864-11.778-2.864,6.022-.556,9.081.572,12.065,2.392,4.611,2.809,6.713,8.108,7.967,11.271.272.684.506,1.273.722,1.738l.393.841c5.868,12.61,16.8,36.083,2.785,44.586a10.9,10.9,0,0,1-5.764,1.5" transform="translate(37.696 18.122)" fill="#1a1a1a"/>
        <path id="Trazado_608443" data-name="Trazado 608443" d="M155.5,85.623a12.521,12.521,0,0,1-9.145-3.581,21.821,21.821,0,0,1-4.506-7.018,38.872,38.872,0,0,1-2.9-13.926,55.778,55.778,0,0,0,3.411,13.71,21.359,21.359,0,0,0,4.391,6.842c4.749,4.769,11.982,3.862,17.166,1.43a15.666,15.666,0,0,1,6.449-1.417,36.125,36.125,0,0,0-6.213,1.917,20.83,20.83,0,0,1-8.65,2.043" transform="translate(32.229 14.172)" fill="#1a1a1a"/>
        <path id="Trazado_608444" data-name="Trazado 608444" d="M157.6,105.835c-6.086-.448-11.467-3.968-14.986-6.579-9.577-7.095-16.072-21.217-17.378-37.777,1.847,16.36,8.259,30.331,17.706,37.332,3.464,2.569,8.756,6.033,14.678,6.469.246.442.124.554-.02.554" transform="translate(29.05 14.261)" fill="#1a1a1a"/>
        <path id="Trazado_608445" data-name="Trazado 608445" d="M76.428,112.949c-1.372-10.525-8.827-13.293-9.88-13.633a38.9,38.9,0,0,1-12.7,6.1,21.584,21.584,0,0,1-8.31.7,12.532,12.532,0,0,1-8.78-5.875,30.215,30.215,0,0,1-2.613-5.668c-.441-1.168-.9-2.372-1.435-3.51a25.427,25.427,0,0,0-5.657-8.122,6.318,6.318,0,0,0-3.547-1.685,4.136,4.136,0,0,1,3.921,1.275,26.081,26.081,0,0,1,5.787,8.3c.545,1.158,1,2.372,1.449,3.547a29.649,29.649,0,0,0,2.564,5.566,11.98,11.98,0,0,0,8.381,5.629,21.4,21.4,0,0,0,8.1-.692,38.4,38.4,0,0,0,12.626-6.1c.324-.021,9.151,2.459,10.369,13.855-.257.306-.267.308-.276.308" transform="translate(5.453 18.819)" fill="#1a1a1a"/>
        <path id="Trazado_608446" data-name="Trazado 608446" d="M163.162,70.806c-.421-.865-.717-2.421-.169-2.842.331-.262,1.035-.022,1.578.228l.628-3.456c.545.1-.152,3.915-.152,3.915-.95-.091-1.584-.292-1.728-.244a4.017,4.017,0,0,0,.112,2.057c-.228.338-.25.341-.27.341" transform="translate(37.738 15.016)" fill="#1a1a1a"/>
        <path id="Trazado_608447" data-name="Trazado 608447" d="M136.251,65.449c-.219-.448,1.223-2.766,2.857-4.945,1.653-2.2,1.672-4.366.85-5.285-1.105-1.231-4.828-4.653-6.388-4.28a.968.968,0,0,0-.658.816c-.718,2.937,3.851,5.759,3.9,5.788-.49.35-5.248-2.592-4.438-5.918a1.48,1.48,0,0,1,1.066-1.221c2.232-.6,6.889,4.394,6.932,4.445,1.16,1.3.814,3.814-.818,5.989-1.618,2.158-3.05,4.458-3.065,4.481a.281.281,0,0,1-.235.132" transform="translate(30.683 11.68)" fill="#1a1a1a"/>
        <path id="Trazado_608448" data-name="Trazado 608448" d="M135.891,54.481c-.278-.278-.278-15.029-.278-15.029.557,0,.557,14.75.557,14.75a.278.278,0,0,1-.278.278" transform="translate(31.457 9.151)" fill="#1a1a1a"/>
        <path id="Trazado_608449" data-name="Trazado 608449" d="M75.254,46.019c-.277-.277-.277-5.869-.277-5.869a6.936,6.936,0,0,1,6.929-6.926h47.968c0,.556-47.968.556-47.968.556a6.38,6.38,0,0,0-6.374,6.37v5.592a.277.277,0,0,1-.277.277" transform="translate(17.392 7.707)" fill="#1a1a1a"/>
        <path id="Trazado_608450" data-name="Trazado 608450" d="M142.476,59.3h-61.4a5.194,5.194,0,0,1-2.519-.478,15.888,15.888,0,0,1,2.519-.078h61.4a6.086,6.086,0,0,0,5.427-3.04c-.739,2.386-2.894,3.6-5.427,3.6" transform="translate(18.222 12.921)" fill="#1a1a1a"/>
        <path id="Trazado_608451" data-name="Trazado 608451" d="M127.137,63.363a22.364,22.364,0,0,1-1.9-4.912c.547-.1,1.1,2.257,2.15,4.519-.171.383-.211.393-.251.393" transform="translate(29.05 13.558)" fill="#1a1a1a"/>
        <path id="Trazado_608452" data-name="Trazado 608452" d="M176.128,139.463a6.9,6.9,0,0,1-4.9-2.027L147.88,114.088a6.936,6.936,0,0,1,0-9.8l15.547-15.549a6.937,6.937,0,0,1,9.8,0l12.187,12.188c-.392.392-12.58-11.8-12.58-11.8a6.393,6.393,0,0,0-9.012,0l-15.549,15.547a6.382,6.382,0,0,0,0,9.014l23.348,23.349a6.384,6.384,0,0,0,9.014,0l2.76-2.761c.392.392-2.368,3.151-2.368,3.151a6.9,6.9,0,0,1-4.9,2.027" transform="translate(33.832 20.115)" fill="#1a1a1a"/>
        <path id="Trazado_608453" data-name="Trazado 608453" d="M165.712,116.056c-4.006-.621-11.842-8.367-12.472-10.518a2.069,2.069,0,0,1,.838-2.394,1.629,1.629,0,0,1,.277-2.025,2.047,2.047,0,0,1,.713-.505,1.691,1.691,0,0,1,1.487.2c.095.091,9.39,14.818,9.39,14.818-.053.377-.142.426-.233.426m-10.134-14.984a1.476,1.476,0,0,0-.819.429,1.08,1.08,0,0,0-.064,1.553c-.149.456-1.312,1-.923,2.328.558,1.908,7.457,8.741,11.341,9.967l-8.894-14.09a1.375,1.375,0,0,0-.642-.187" transform="translate(35.521 23.316)" fill="#1a1a1a"/>
        <path id="Trazado_608454" data-name="Trazado 608454" d="M161.914,107.08a41.927,41.927,0,0,1-5-4.07c-.965-.893-1.818-1.678-1.82-2.582a1.7,1.7,0,0,1,.627-1.264c1.4-1.29,2.687-.065,3.534.749.163.158.4.393.681.678a40.536,40.536,0,0,0,3,2.814c.721.551,2.909,2.216,3.778,1.806.622-.3.814-.865.048-3.013a4.887,4.887,0,0,1-.136-3.782,1.214,1.214,0,0,1,.873-.615c1.667-.249,2.109,1.025,2.459,2.06.08.233.158.462.248.67.179.4.367.944.586,1.568a16.352,16.352,0,0,0,1.749,3.914c-.207.442-10.621,1.066-10.621,1.066l-.016,0M157,99.16a1.318,1.318,0,0,0-.9.411,1.172,1.172,0,0,0-.45.856c0,.659.751,1.35,1.3,1.854a53.435,53.435,0,0,0,5.039,4.239l9.837-.591a20.54,20.54,0,0,1-1.545-3.648c-.217-.614-.4-1.144-.573-1.53-.1-.222-.18-.466-.264-.715-.4-1.168-.7-1.855-1.852-1.689a.661.661,0,0,0-.482.349,4.527,4.527,0,0,0,.18,3.311c.686,1.919.85,3.143-.331,3.7-1.026.494-2.778-.668-4.351-1.866a40.164,40.164,0,0,1-3.059-2.862c-.28-.281-.515-.514-.675-.668-.752-.723-1.329-1.154-1.878-1.154" transform="translate(35.976 22.678)" fill="#1a1a1a"/>
        <path id="Trazado_608455" data-name="Trazado 608455" d="M160.253,108.514c-.175-.062-1.615-1.228-3.226-2.548a25.587,25.587,0,0,1-2.863-2.958c.313-.489,1.911,1.46,3.215,2.53,1.608,1.316,3.048,2.481,3.048,2.481-.014.457-.094.494-.174.494" transform="translate(35.759 23.876)" fill="#1a1a1a"/>
        <path id="Trazado_608456" data-name="Trazado 608456" d="M132.826,63.449a30.248,30.248,0,0,1-4.859-.342c-1.822-.306-2.716-.751-2.731-1.366-.018-.553.373-.8,1.1-1.055-.558.785-.554.913-.551,1.039s.419.524,2.273.836a33.071,33.071,0,0,0,5.928.32c5.285-.144,8.143-1.13,8.131-1.6,0-.058-.084-.577-2.444-.908,2.022-.276,2.978.2,3,.892.042,1.526-5.652,2.084-8.666,2.165-.4.012-.793.016-1.179.016" transform="translate(29.049 13.986)" fill="#1a1a1a"/>
        <path id="Trazado_608457" data-name="Trazado 608457" d="M130.357,41.358H92.972c0-.556,37.385-.556,37.385-.556.278.432.155.556,0,.556" transform="translate(21.566 9.464)" fill="#1a1a1a"/>
        <path id="Trazado_608458" data-name="Trazado 608458" d="M125,46.357h-8.912c0-.556,8.912-.556,8.912-.556.278.431.155.556,0,.556" transform="translate(26.927 10.624)" fill="#1a1a1a"/>
        <path id="Trazado_608459" data-name="Trazado 608459" d="M115.708,46.357H87.825c0-.556,27.883-.556,27.883-.556.277.431.153.556,0,.556" transform="translate(20.372 10.624)" fill="#1a1a1a"/>
        <path id="Trazado_608460" data-name="Trazado 608460" d="M131.551,50.911H87.826c0-.556,43.725-.556,43.725-.556.278.431.155.556,0,.556" transform="translate(20.372 11.68)" fill="#1a1a1a"/>
        <path id="Trazado_608461" data-name="Trazado 608461" d="M169.107,58.5c-.278-.277-.278-1.207-.278-1.207a6.378,6.378,0,0,0-6.372-6.37H135.839c0-.557,26.618-.557,26.618-.557a6.935,6.935,0,0,1,6.927,6.927v.93a.276.276,0,0,1-.277.277" transform="translate(31.509 11.682)" fill="#1a1a1a"/>
        <path id="Trazado_608462" data-name="Trazado 608462" d="M42.392,67.676c-.277-.277-.277-10.388-.277-10.388a6.935,6.935,0,0,1,6.927-6.926H52.5c0,.557-3.458.557-3.458.557a6.378,6.378,0,0,0-6.373,6.369V67.4a.278.278,0,0,1-.277.277" transform="translate(9.769 11.682)" fill="#1a1a1a"/>
        <path id="Trazado_608463" data-name="Trazado 608463" d="M42.392,85.442c-.277-.277-.277-12.358-.277-12.358.554,0,.554,12.081.554,12.081a.278.278,0,0,1-.277.277" transform="translate(9.769 16.952)" fill="#1a1a1a"/>
        <path id="Trazado_608464" data-name="Trazado 608464" d="M84.871,124.234H49.042a6.935,6.935,0,0,1-6.927-6.929v-2.1c.553,0,.553,2.1.553,2.1a6.38,6.38,0,0,0,6.374,6.373H84.871c.277.432.153.556,0,.556" transform="translate(9.769 26.722)" fill="#1a1a1a"/>
        <path id="Trazado_608465" data-name="Trazado 608465" d="M155.71,122.638H142.958c0-.556,12.752-.556,12.752-.556.278.432.155.556,0,.556" transform="translate(33.16 28.318)" fill="#1a1a1a"/>
        <path id="Trazado_608466" data-name="Trazado 608466" d="M26.484,79.734c-.344,0-.7-.007-1.058-.025,5.089-.346,7.053-1.667,7.32-5.434.044-.61.14-1.868.14-1.868,1.045-.7,2.352-1.583,2.447-2.066a14.413,14.413,0,0,0-2-1.954c-.1-.241.5-7.278.5-7.278.553.049-.039,6.94-.039,6.94a17.552,17.552,0,0,1,1.933,1.821.672.672,0,0,1,.147.578c-.166.839-1.857,1.829-2.45,2.153-.027.352-.094,1.234-.129,1.715-.308,4.35-2.915,5.418-6.814,5.418" transform="translate(5.898 14.175)" fill="#1a1a1a"/>
        <path id="Trazado_608467" data-name="Trazado 608467" d="M81.209,94.779c-.234-.429,4.176-7.23,4.176-7.23a2.782,2.782,0,0,0-2.335-4.293H42.521a5.5,5.5,0,0,0-4.632,2.517L34.044,91.6c-.462-.3,3.381-6.13,3.381-6.13a6.052,6.052,0,0,1,5.1-2.772H83.05a3.336,3.336,0,0,1,2.8,5.15l-4.409,6.8a.279.279,0,0,1-.232.128" transform="translate(7.888 19.182)" fill="#1a1a1a"/>
        <path id="Trazado_608468" data-name="Trazado 608468" d="M75.272,96.905c-.232-.43,6.9-11.388,6.9-11.388L41.637,85.5a2.273,2.273,0,0,0-1.295.359L37.87,89.011c-.436-.345,2.068-3.531,2.068-3.531a2.806,2.806,0,0,1,1.7-.532H82.166a.566.566,0,0,1,.473.873L75.5,96.78a.286.286,0,0,1-.233.126" transform="translate(8.772 19.704)" fill="#1a1a1a"/>
        <path id="Trazado_608469" data-name="Trazado 608469" d="M56.655,114.927H50.971c0-.556,5.684-.556,5.684-.556a6.019,6.019,0,0,0,5.068-2.752l.963-1.487c.464.3-.5,1.786-.5,1.786a6.562,6.562,0,0,1-5.531,3.008" transform="translate(11.823 25.546)" fill="#1a1a1a"/>
        <path id="Trazado_608470" data-name="Trazado 608470" d="M42.542,140.571c-1.52-13.936-3.817-25.213-3.84-25.325.565,0,2.869,11.307,4.116,25.021-.259.3-.269.3-.276.3" transform="translate(8.977 26.732)" fill="#1a1a1a"/>
        <path id="Trazado_608471" data-name="Trazado 608471" d="M5.049,148.187c-.363-4.675-.286-9.978-.211-15.1.1-6.857.193-13.332-.067-17.881C3.3,89.373,9.187,83.386,9.437,83.145c.325.458-5.566,6.532-4.111,32.026.26,4.569.165,11.053.065,17.92-.074,5.122-.152,10.42-.065,14.812-.273.285-.275.285-.277.285" transform="translate(1.052 19.286)" fill="#1a1a1a"/>
        <path id="Trazado_608472" data-name="Trazado 608472" d="M61.14,99.315c1.3-1.836,2.5-3.15,3.484-4.5a22.87,22.87,0,0,0,1.631-2.583,10.851,10.851,0,0,0,.578-1.339,10.723,10.723,0,0,1,.662-1.5A1.866,1.866,0,0,1,69,88.336a2.138,2.138,0,0,1,1.8.734,2.176,2.176,0,0,1,.359,1.675,7.5,7.5,0,0,1-.621,1.959c-.444.99-1,2.391-.689,3.119a.85.85,0,0,0,.53.471c1.736.333,3.2-1.563,4.3-3.25-.3,1.481-2.068,4.24-4.228,3.823a1.5,1.5,0,0,1-1.111-.828c-.307-.724-.1-1.791.694-3.563a6.9,6.9,0,0,0,.579-1.811,1.7,1.7,0,0,0-.246-1.255,1.566,1.566,0,0,0-1.329-.522,1.312,1.312,0,0,0-1.064.781,10.313,10.313,0,0,0-.626,1.423,11.228,11.228,0,0,1-.609,1.407,23.425,23.425,0,0,1-1.669,2.647,27.546,27.546,0,0,1-3.745,4.1.275.275,0,0,1-.187.074" transform="translate(14.182 20.489)" fill="#1a1a1a"/>
        <path id="Trazado_608473" data-name="Trazado 608473" d="M69.419,101.107c-.1-.542,4.449-3.369,5.917-6.612,1.735-3.829.042-4.771-.031-4.812.342-.447,2.507.689.535,5.039-1.539,3.4-6.082,6.225-6.276,6.343a.272.272,0,0,1-.145.042" transform="translate(16.102 20.782)" fill="#1a1a1a"/>
        <path id="Trazado_608474" data-name="Trazado 608474" d="M70.251,102.222c4.439-3.41,5.646-5.676,5.849-7.067a2.464,2.464,0,0,0-.413-1.927c.446-.334,1.172.5.965,1.983-.308,2.193-2.411,4.537-6.253,6.965a.263.263,0,0,1-.148.044" transform="translate(16.295 21.608)" fill="#1a1a1a"/>
        <path id="Trazado_608475" data-name="Trazado 608475" d="M66.282,107.646c-.14-.515.786-1.116,5.546-4.449,3.534-2.47,4.312-4.059,4.343-4.959a1.091,1.091,0,0,0-.323-.886c.361-.42.9,0,.877.876-.031,1.494-1.571,3.32-4.578,5.424-4.782,3.345-5.679,3.925-5.715,3.946a.267.267,0,0,1-.15.047" transform="translate(15.372 22.544)" fill="#1a1a1a"/>
        <path id="Trazado_608476" data-name="Trazado 608476" d="M29.966,66.788a.339.339,0,0,0,.4-.29l.08-1.043c-.531-.361-.685-.229-.7-.053l-.081,1.043a.321.321,0,0,0,.294.342" transform="translate(6.882 15.13)" fill="#1a1a1a"/>
        <path id="Trazado_608477" data-name="Trazado 608477" d="M31.546,73.971a2.194,2.194,0,0,1-.7-.133,2.577,2.577,0,0,1-1.613-1.627,1.559,1.559,0,0,1,.027-1.338.933.933,0,0,1,.634-.415,1.042,1.042,0,0,1,.717.175,1.684,1.684,0,0,1,.5.6c.4.468.573.543.99.377.02.588-.549.818-1.026.462a1.726,1.726,0,0,1-.446-.564,1.2,1.2,0,0,0-.325-.42c-.664.212-.689.529-.547.935a2.029,2.029,0,0,0,1.257,1.284,1.468,1.468,0,0,0,.7.1c-.02.561-.091.564-.161.564" transform="translate(6.75 16.341)" fill="#1a1a1a"/>
        <path id="Trazado_608478" data-name="Trazado 608478" d="M16.9,91.88A18.16,18.16,0,0,1,8.449,89.8c-4.584-2.408-5.614-5.593-5.672-7.839A11.073,11.073,0,0,1,7.9,72.854c2.906-1.72,3.2-3.826,3.615-6.74a29.5,29.5,0,0,1,.751-3.934c1.344-4.816,2.565-6.119,4.84-7.769s6.263-.915,8.392-.031c1.345.557,3.911.564,5.974.568.905,0,1.76,0,2.436.047,2.131.143,6.487,1.407,6.362,4.408-.122,2.939-1.295,6.324-3.578,6.808a14.331,14.331,0,0,0-5.817,2.376c-.278-.49,1.616-2.055,5.7-2.92,1.906-.4,3.021-3.469,3.138-6.289.108-2.567-3.968-3.7-5.843-3.83-.658-.044-1.505-.047-2.4-.047-2.221,0-4.738-.01-6.184-.61-1.942-.806-5.788-1.528-7.856-.032-2.218,1.609-3.328,2.8-4.63,7.469a28.554,28.554,0,0,0-.738,3.86c-.415,2.953-.745,5.285-3.881,7.142a10.484,10.484,0,0,0-4.847,8.615c.076,3.01,1.937,5.555,5.377,7.36a17.844,17.844,0,0,0,15.059.65c3.087-1.276,5.456-3.3,6.038-5.155,1.35-4.311.324-9.071-1.44-10.649,2.535,1.524,3.268,6.667,1.969,10.813-.628,2.007-3.122,4.166-6.354,5.5A18.574,18.574,0,0,1,16.9,91.88" transform="translate(0.644 12.394)" fill="#1a1a1a"/>
        <path id="Trazado_608479" data-name="Trazado 608479" d="M25.479,83.055c-.275-.322.8-7.091.8-7.091.547.089-.522,6.857-.522,6.857a.278.278,0,0,1-.273.234" transform="translate(5.9 17.62)" fill="#1a1a1a"/>
        <path id="Trazado_608480" data-name="Trazado 608480" d="M31.542,69.277A.933.933,0,0,1,30.6,68.3l.309-4.011a.9.9,0,0,1,.974-.835.917.917,0,0,1,.869.976l-.308,4.015a.909.909,0,0,1-.907.835M31.494,69c.216-.282.387-.407.4-.6l.309-4.014a.354.354,0,0,0-.326-.378.38.38,0,0,0-.413.322l-.308,4.012a.357.357,0,0,0,.326.382Z" transform="translate(7.098 14.717)" fill="#1a1a1a"/>
        <path id="Trazado_608481" data-name="Trazado 608481" d="M32.2,66.142c-.02,0-6.64-.472-6.64-.472.041-.553,6.66-.083,6.66-.083.246.442.124.554-.02.554" transform="translate(5.93 15.17)" fill="#1a1a1a"/>
        <path id="Trazado_608482" data-name="Trazado 608482" d="M65.4,90.55H46.928c0-.557,18.473-.557,18.473-.557.277.432.154.557,0,.557" transform="translate(10.885 20.875)" fill="#1a1a1a"/>
        <path id="Trazado_608483" data-name="Trazado 608483" d="M67.05,87.819H48.577c0-.556,18.473-.556,18.473-.556.277.431.154.556,0,.556" transform="translate(11.268 20.241)" fill="#1a1a1a"/>
        <path id="Trazado_608484" data-name="Trazado 608484" d="M61.42,96.163h-18.1c0-.556,18.1-.556,18.1-.556.277.432.154.556,0,.556" transform="translate(10.048 22.177)" fill="#1a1a1a"/>
        <path id="Trazado_608485" data-name="Trazado 608485" d="M55.345,99.038H44.337c0-.557,11.008-.557,11.008-.557.277.432.153.557,0,.557" transform="translate(10.284 22.843)" fill="#1a1a1a"/>
        <path id="Trazado_608486" data-name="Trazado 608486" d="M22.346,58.317c-.282-.262-.556-1.424-.713-3.415a28.587,28.587,0,0,1,.982,3.073c-.227.339-.248.342-.269.342m-.537-6.345a11.307,11.307,0,0,1-.095-3.493,7.864,7.864,0,0,1,.372,3.218.279.279,0,0,1-.277.275m.637-6.341a10.089,10.089,0,0,1,.455-3.458,7.786,7.786,0,0,1-.182,3.231.279.279,0,0,1-.272.227m1.706-6.139a9.092,9.092,0,0,1,.988-3.332,7.75,7.75,0,0,1-.728,3.15.28.28,0,0,1-.26.182m2.724-5.758a8.328,8.328,0,0,1,1.487-3.124A7.759,7.759,0,0,1,27.116,33.6a.28.28,0,0,1-.24.138M30.51,28.5a7.735,7.735,0,0,1,1.91-2.857,7.7,7.7,0,0,1-1.7,2.755.277.277,0,0,1-.214.1M34.9,23.886a7.332,7.332,0,0,1,2.25-2.564,7.558,7.558,0,0,1-2.062,2.491.272.272,0,0,1-.187.073M39.87,19.9a7.252,7.252,0,0,1,2.5-2.287,7.182,7.182,0,0,1-2.341,2.234.277.277,0,0,1-.16.053M45.258,16.5a6.836,6.836,0,0,1,2.71-1.993,7.269,7.269,0,0,1-2.575,1.958.269.269,0,0,1-.136.036m5.747-2.752a6.379,6.379,0,0,1,2.916-1.625,7.546,7.546,0,0,1-2.813,1.605.3.3,0,0,1-.1.02m27.965-.376c-1.043-.427-2.041-.8-3.075-1.119a5.49,5.49,0,0,1,3.185.586c.1.468,0,.532-.11.532M57.078,11.805a5.985,5.985,0,0,1,3.085-1.167A7.658,7.658,0,0,1,57.14,11.8a.285.285,0,0,1-.063.009m15.811-.339c-1.082-.218-2.133-.384-3.178-.5a5.519,5.519,0,0,1,3.236-.049c.187.458.073.549-.058.549m-9.514-.627a5.526,5.526,0,0,1,3.193-.631,7.74,7.74,0,0,1-3.175.628l-.018,0" transform="translate(5.016 2.366)" fill="#1a1a1a"/>
        <path id="Trazado_608487" data-name="Trazado 608487" d="M40.415,103.649c-.551,0-1.082-.007-1.518-.027a11.366,11.366,0,0,1,3.8-.583,5.059,5.059,0,0,0,2.787-.694,1.2,1.2,0,0,0,.466-.84,1.271,1.271,0,0,0-.6-1.059,2.78,2.78,0,0,0-1.342-.419,3.317,3.317,0,0,0-.779.07c-.83.122-1.969.292-2.564-.512-.853-1.149-.223-2.553,1.874-4.166.882-.679,1.605-1.257,2.275-1.813a35.045,35.045,0,0,0,4.162-3.993,3.042,3.042,0,0,0,.809-1.225,1.12,1.12,0,0,0-.1-.742,1.2,1.2,0,0,0-.822-.67,2.274,2.274,0,0,0-1.752.476c-1.116.846-4.79,4.282-4.827,4.317-.463-.169-.622-1.11-1.307-1.555a1.814,1.814,0,0,0-1.5-.136c-.323-.15-.727-.923-1.553-1.172a2.527,2.527,0,0,0-1.967.347,1.744,1.744,0,0,1,2.135-.876,2.754,2.754,0,0,1,1.446,1.116,2.254,2.254,0,0,1,1.744.259,2.534,2.534,0,0,1,.96,1.3c.945-.878,3.586-3.32,4.536-4.038a2.77,2.77,0,0,1,2.211-.575,1.754,1.754,0,0,1,1.19.961,1.65,1.65,0,0,1,.15,1.119,3.061,3.061,0,0,1-.8,1.315,36.215,36.215,0,0,1-4.353,4.2c-.676.562-1.4,1.142-2.293,1.826-1.81,1.392-2.4,2.537-1.765,3.4.4.533,1.308.4,2.036.292a4.178,4.178,0,0,1,.917-.074,3.4,3.4,0,0,1,1.6.51,1.817,1.817,0,0,1,.843,1.549,1.749,1.749,0,0,1-.669,1.242,5.5,5.5,0,0,1-3.077.813c-.652.041-1.518.06-2.341.06" transform="translate(8.339 20.037)" fill="#1a1a1a"/>
        <path id="Trazado_608488" data-name="Trazado 608488" d="M36.485,92.231c1.239-2.659,2.713-3.267,2.776-3.294.193.52-1.179,1.1-2.544,3.169a.275.275,0,0,1-.232.126" transform="translate(8.463 20.63)" fill="#1a1a1a"/>
        <path id="Trazado_608489" data-name="Trazado 608489" d="M38.9,93.337c1.69-2.517,2.339-2.922,2.367-2.938.285.476-.349.883-2.162,2.847a.278.278,0,0,1-.2.091" transform="translate(9.022 20.969)" fill="#1a1a1a"/>
        <path id="Trazado_608490" data-name="Trazado 608490" d="M32.205,92.648a10.32,10.32,0,0,1,4.766-4.5c.184.524-2.771,1.783-4.537,4.381a.281.281,0,0,1-.229.122" transform="translate(7.47 20.446)" fill="#1a1a1a"/>
        <path id="Trazado_608491" data-name="Trazado 608491" d="M152.243,44.723H126.688a7.383,7.383,0,0,1-7.376-7.372V25.3a7.384,7.384,0,0,1,7.376-7.376h25.556a7.384,7.384,0,0,1,7.376,7.376V37.351a7.382,7.382,0,0,1-7.376,7.372M126.688,18.481a6.826,6.826,0,0,0-6.819,6.819V37.351a6.825,6.825,0,0,0,6.819,6.816h25.556a6.825,6.825,0,0,0,6.82-6.816V25.3a6.825,6.825,0,0,0-6.82-6.819Z" transform="translate(27.675 4.158)" fill="#1a1a1a"/>
        <path id="Trazado_608492" data-name="Trazado 608492" d="M133.192,37.387a1.384,1.384,0,0,1-.7-.182,1.781,1.781,0,0,1-.78-1.646V24.765a1.6,1.6,0,0,1,2.6-1.491l9.2,5.373a1.621,1.621,0,0,1,0,3.023l-9.2,5.379a2.247,2.247,0,0,1-1.112.338m0-13.9a1.213,1.213,0,0,0-.928,1.274V35.558a1.055,1.055,0,0,0,1.758,1.01l9.2-5.379a1.079,1.079,0,0,0,0-2.062l-9.2-5.373a1.682,1.682,0,0,0-.832-.264" transform="translate(30.551 5.321)" fill="#1a1a1a"/>
        <path id="Trazado_608493" data-name="Trazado 608493" d="M100.215,104.417H97.057c-.277-.278-.277-3.511-.277-3.511-4.444-.562-7.087-2.9-8.083-7.138.2-.335,5.158-1.53,5.158-1.53a3.726,3.726,0,0,1,.694,1.13,4.16,4.16,0,0,0,2.189,2.426,4.683,4.683,0,0,0,3.693.1,2.431,2.431,0,0,0,1.669-2.245,1.915,1.915,0,0,0-1.271-2.04c-.95-.4-1.94-.765-2.9-1.116-.4-.148-.8-.294-1.2-.444-.245-.092-.494-.18-.742-.269-.478-.169-.972-.342-1.446-.546-3.684-1.578-5.317-4.227-4.853-7.875.452-3.549,2.689-5.74,6.653-6.513.33-.086.33-2.538.33-2.538.277-.278,3.4-.278,3.4-.278a9.976,9.976,0,0,1,.344,2.671,17.582,17.582,0,0,1,2.306.674,7.689,7.689,0,0,1,4.968,5.294c-.164.346-4.548,2.018-4.548,2.018a2.668,2.668,0,0,1-.824-.866,12.441,12.441,0,0,0-1.077-1.526,3.275,3.275,0,0,0-3.419-.93,2.244,2.244,0,0,0-1.807,1.866,1.861,1.861,0,0,0,1.17,2.257c.811.356,1.659.678,2.48.99.342.129.686.26,1.027.393s.675.257,1.015.382c.646.241,1.315.489,1.955.77,3.808,1.685,5.325,4.308,4.774,8.25-.453,3.262-3.095,5.716-6.889,6.406-.262.051-.525.108-.814.172-.238.052-.238,3.288-.238,3.288a.278.278,0,0,1-.278.278m-2.88-.557h2.6v-3.182a5.849,5.849,0,0,1,1.507-.543c3.606-.657,6.013-2.877,6.441-5.939.51-3.66-.9-6.1-4.45-7.665-.626-.278-1.285-.522-1.926-.758-.341-.128-.683-.255-1.023-.386s-.681-.262-1.024-.393c-.825-.313-1.68-.639-2.5-1a2.409,2.409,0,0,1-1.494-2.857,2.79,2.79,0,0,1,2.218-2.31,3.793,3.793,0,0,1,3.972,1.1,12.761,12.761,0,0,1,1.127,1.593q.177.281.365.568l3.927-1.5a7.1,7.1,0,0,0-4.54-4.7,13.522,13.522,0,0,0-2.424-.687,10.956,10.956,0,0,1-.31-2.625H97.226v2.384c-4.481,1.143-6.569,3.176-6.986,6.459-.43,3.373,1.09,5.827,4.519,7.3.458.195.944.367,1.413.532.251.087.5.179.754.27.4.15.8.3,1.2.445.965.354,1.961.721,2.922,1.124a2.488,2.488,0,0,1,1.609,2.593,2.981,2.981,0,0,1-2.025,2.724A5.26,5.26,0,0,1,96.5,96.3a4.718,4.718,0,0,1-2.479-2.748c-.07-.2-.153-.408-.235-.618-.038-.1-4.487.978-4.487.978,1,3.891,3.552,6.011,7.785,6.476a17.78,17.78,0,0,1,.248,3.477" transform="translate(20.574 16.708)" fill="#1a1a1a"/>
        <path id="Trazado_608494" data-name="Trazado 608494" d="M100.412,108.3a19.459,19.459,0,1,1,19.46-19.46,19.481,19.481,0,0,1-19.46,19.46m0-38.363a18.9,18.9,0,1,0,18.9,18.9,18.924,18.924,0,0,0-18.9-18.9" transform="translate(18.778 16.093)" fill="#1a1a1a"/>
        <path id="Trazado_608495" data-name="Trazado 608495" d="M107.438,108.917a3.07,3.07,0,1,1,3.069-3.07,3.074,3.074,0,0,1-3.069,3.07m0-5.584a2.514,2.514,0,1,0,2.516,2.514,2.517,2.517,0,0,0-2.516-2.514" transform="translate(24.209 23.84)" fill="#1a1a1a"/>
        <path id="Trazado_608496" data-name="Trazado 608496" d="M93.59,15.344c-.062-.548,7.808-2.332,7.808-2.332.122.54-7.748,2.323-7.748,2.323a.339.339,0,0,1-.06.009" transform="translate(21.709 3.018)" fill="#1a1a1a"/>
        <path id="Trazado_608497" data-name="Trazado 608497" d="M106.218,19.915c-.049,0-12.491-2.309-12.491-2.309.1-.543,12.541,1.759,12.541,1.759.2.456.081.549-.051.549" transform="translate(21.741 4.065)" fill="#1a1a1a"/>
        <path id="Trazado_608498" data-name="Trazado 608498" d="M99.007,24.066c-.154-.047-6.16-4.062-6.16-4.062.307-.461,6.315,3.553,6.315,3.553.022.466-.067.509-.155.509" transform="translate(21.537 4.632)" fill="#1a1a1a"/>
        <path id="Trazado_608499" data-name="Trazado 608499" d="M207.412,102.316a1.2,1.2,0,0,1,.225-1.041c.3.531.145.731-.006.93a.27.27,0,0,1-.219.111m2.29-3.2a11.606,11.606,0,0,1,1.487-3.1,5.868,5.868,0,0,1-1.258,2.98.279.279,0,0,1-.229.124m3.314-5.449a12.98,12.98,0,0,1,1.188-3.241,5.814,5.814,0,0,1-.944,3.1.282.282,0,0,1-.244.145m2.7-5.77a15.389,15.389,0,0,1,.8-3.364,5.627,5.627,0,0,1-.543,3.188.282.282,0,0,1-.259.176m1.91-6.075a19.285,19.285,0,0,1,.314-3.451A5.5,5.5,0,0,1,217.9,81.6a.28.28,0,0,1-.271.216m.893-6.306a5.469,5.469,0,0,1-.238-1.86q0-.8-.038-1.592a1.836,1.836,0,0,1,.594,1.594c0,.53-.016,1.063-.043,1.593a.275.275,0,0,1-.275.265m-.34-6.357c-.446-1.238-.686-2.273-.988-3.307a5.423,5.423,0,0,1,1.262,2.983c-.243.322-.257.324-.273.324m-1.767-6.119c-.639-1.13-1.08-2.1-1.565-3.06a5.643,5.643,0,0,1,1.822,2.681c-.187.372-.224.379-.257.379m-2.866-5.694c-.772-1.016-1.361-1.906-1.985-2.777a5.734,5.734,0,0,1,2.22,2.354c-.138.408-.186.423-.235.423m-34.537-5.087c.138-.543.505-.564.856-.621a7.305,7.305,0,0,0,1.876-.562,2.2,2.2,0,0,1-1.793,1.11,6.039,6.039,0,0,1-.94.073m30.824-.1c-.881-.9-1.592-1.7-2.331-2.459a5.711,5.711,0,0,1,2.544,2c-.087.435-.152.457-.213.457m-34.059-.893a3.913,3.913,0,0,1-1.291-1.222,4.486,4.486,0,0,1-.657-1.622,3.553,3.553,0,0,1,1.12,1.318,3.928,3.928,0,0,0,.99,1.025c.009.462-.076.5-.163.5m8.749-1.391c-.016-.627.147-.77.3-.913a17.752,17.752,0,0,0,1.709-1.817,3.5,3.5,0,0,1-1.334,2.225q-.246.222-.5.439a.276.276,0,0,1-.18.067m20.877-2.3c-.986-.781-1.811-1.454-2.636-2.072a5.571,5.571,0,0,1,2.82,1.586c-.032.455-.108.487-.184.487m-30.96-2.06a1.969,1.969,0,0,1,.354-1.526,7.768,7.768,0,0,1,1.342-1.5,4.032,4.032,0,0,1-.882,1.815,5.693,5.693,0,0,0-.557,1.04.275.275,0,0,1-.256.175m14.094-.559a20.308,20.308,0,0,1,1.057-3.272,4.975,4.975,0,0,1-.814,3.128.272.272,0,0,1-.243.144m11.76-1.194c-1.05-.6-1.982-1.114-2.912-1.566a5.364,5.364,0,0,1,3.058,1.052c.038.466-.053.514-.145.514m-21.278-2.47a1.11,1.11,0,0,1,.781-.905,20.3,20.3,0,0,1,2.157-.686,3.972,3.972,0,0,1-1.956,1.2c-.288.112-.58.233-.867.362a.258.258,0,0,1-.115.026m15.547-.3a27.933,27.933,0,0,0-3.123-.881,5.175,5.175,0,0,1,3.215.34c.127.468.022.541-.092.541m-9.4-1.289a2.094,2.094,0,0,1,1.785-.634c.473,0,.949.018,1.418.049a1.766,1.766,0,0,1-1.48.5c-.567,0-1.136.027-1.7.08h-.025m5.546-.721a28.507,28.507,0,0,1,.124-3.453,5.129,5.129,0,0,1,.147,3.229.276.276,0,0,1-.271.224m.36-6.346c-.362-1.308-.517-2.354-.739-3.369a5.137,5.137,0,0,1,1.015,3.069c-.262.3-.269.3-.276.3m-1.366-6.208c-.63-1.174-1.071-2.135-1.568-3.042a5.044,5.044,0,0,1,1.828,2.668c-.2.368-.228.373-.26.373m-3.05-5.578c-.84-.944-1.524-1.754-2.256-2.521a5.278,5.278,0,0,1,2.478,2.077c-.106.426-.164.444-.222.444m-4.392-4.6c-.988-.731-1.845-1.36-2.724-1.932a5.366,5.366,0,0,1,2.9,1.439c-.016.457-.1.493-.175.493m-45-.292a6.937,6.937,0,0,1,2.71-1.992,7.207,7.207,0,0,1-2.576,1.956.281.281,0,0,1-.134.036M143,13.173a6.652,6.652,0,0,1,2.873-1.7,7.166,7.166,0,0,1-2.766,1.68.251.251,0,0,1-.107.023m33.938-.41c-1.059-.509-2.031-.947-3.008-1.332a5.454,5.454,0,0,1,3.134.808c.072.468-.026.524-.126.524m-27.942-1.749a6.281,6.281,0,0,1,3.023-1.354A7.337,7.337,0,0,1,149.072,11a.233.233,0,0,1-.078.012m22.018-.588c-1.093-.3-2.126-.545-3.154-.737a5.486,5.486,0,0,1,3.229.192c.156.464.044.545-.075.545m-15.8-.814a5.922,5.922,0,0,1,3.145-.924,7.549,7.549,0,0,1-3.1.919.243.243,0,0,1-.042,0m9.535-.349c-1.177-.1-2.184-.14-3.185-.142a5.112,5.112,0,0,1,3.04-.426c.4.463.285.568.144.568" transform="translate(31.839 2.005)" fill="#1a1a1a"/>
        <path id="Trazado_608500" data-name="Trazado 608500" d="M140.443,105.265H127.8c-.278-.278-.278-12.921-.278-12.921.278-.28,12.923-.28,12.923-.28.278.28.278,12.922.278,12.922a.278.278,0,0,1-.278.278m-12.368-.556h12.089V92.622H128.076Z" transform="translate(29.579 21.355)" fill="#1a1a1a"/>
        <path id="Trazado_608501" data-name="Trazado 608501" d="M146.176,104.175h-1.722c-.277-.277-.277-7.407-.277-7.407.556,0,.556,6.851.556,6.851h1.444c.278.431.154.556,0,.556" transform="translate(33.443 22.446)" fill="#1a1a1a"/>
        <path id="Trazado_608502" data-name="Trazado 608502" d="M67.32,113.807c-.277-.278-.277-9.025-.277-9.025.554,0,.554,8.747.554,8.747a.277.277,0,0,1-.277.278" transform="translate(15.551 24.305)" fill="#1a1a1a"/>
        <path id="Trazado_608503" data-name="Trazado 608503" d="M67.32,86.118c-.277-.277-.277-16.4-.277-16.4.554,0,.554,16.124.554,16.124a.277.277,0,0,1-.277.277" transform="translate(15.551 16.171)" fill="#1a1a1a"/>
        <path id="Trazado_608504" data-name="Trazado 608504" d="M62.2,73.446a6.782,6.782,0,0,0-.121-4.981,10.234,10.234,0,0,0-4-4.513c-3.015-1.913-6.6-2.259-8.726-.823,2.028-2.035,5.775-1.709,9.025.355A10.792,10.792,0,0,1,62.59,68.25a5.366,5.366,0,0,1-.156,5.067.275.275,0,0,1-.233.129" transform="translate(11.447 14.326)" fill="#1a1a1a"/>
        <path id="Trazado_608505" data-name="Trazado 608505" d="M47.262,119.253a33.312,33.312,0,0,1-9.129-1.206c-11.056-3.149-18.451-11.915-23.657-19.2,5.605,6.89,12.92,15.568,23.81,18.67,11.307,3.223,26.291-.212,40.085-9.185-10.172,7.277-21.34,10.924-31.109,10.924" transform="translate(3.358 22.928)" fill="#1a1a1a"/>
        <path id="Trazado_608506" data-name="Trazado 608506" d="M131.877,61.2a7.1,7.1,0,0,0-1.043-2.677c.471-.309,1.05.349,1.318,2.363-.25.312-.262.314-.275.314" transform="translate(30.348 13.558)" fill="#1a1a1a"/>
        <path id="Trazado_608507" data-name="Trazado 608507" d="M153.092,65.754h-6.558c-.277-.277-.277-6.834-.277-6.834.277-.278,6.835-.278,6.835-.278.277.278.277,6.835.277,6.835a.277.277,0,0,1-.277.277m-6.279-.556h6v-6h-6Z" transform="translate(33.926 13.603)" fill="#1a1a1a"/>
        <path id="Trazado_608508" data-name="Trazado 608508" d="M154.175,71.591h-2.617a11.24,11.24,0,0,1-.278-2.9,11.235,11.235,0,0,1,2.9-.278,11.3,11.3,0,0,1,.277,2.9.278.278,0,0,1-.277.277m-2.339-.557H153.9V68.972h-2.061Z" transform="translate(35.091 15.87)" fill="#1a1a1a"/>
        <path id="Trazado_608509" data-name="Trazado 608509" d="M32.357,135.7a7.753,7.753,0,0,1-6.123-2.6c-3.9-4.461-2.809-13-2.762-13.361.276-.243,15.965-.243,15.965-.243.354.581,2.3,9.2-1.237,13.653a7.055,7.055,0,0,1-5.843,2.55m-8.363-15.646c-.147,1.423-.728,8.815,2.657,12.683a7.222,7.222,0,0,0,5.705,2.406,6.52,6.52,0,0,0,5.408-2.34c3.076-3.871,1.726-11.388,1.448-12.75Z" transform="translate(5.404 27.718)" fill="#1a1a1a"/>
        <path id="Trazado_608510" data-name="Trazado 608510" d="M185.712,131.286c-2.077-4.317-.49-9.225,3.607-12.1a9.828,9.828,0,0,1,9.938-1.216,11.286,11.286,0,0,0-9.619,1.667c-3.878,2.723-5.389,7.351-3.672,11.258-.177.382-.216.391-.254.391" transform="translate(42.866 27.169)" fill="#1a1a1a"/>
        <path id="Trazado_608511" data-name="Trazado 608511" d="M57.84,26.9A17.161,17.161,0,1,0,40.679,44.062,17.162,17.162,0,0,0,57.84,26.9" transform="translate(-1.3 0.519)" fill="#fffbe5"/>
        <g id="Grupo_1016628" data-name="Grupo 1016628" transform="translate(27.299 16.112)">
          <path id="Trazado_608512" data-name="Trazado 608512" d="M48.2,31.673,32.394,28.185V21.737L48.2,14.491ZM33.626,27.2l13.343,2.944V16.412L33.626,22.53Z" transform="translate(-26.54 -14.491)" fill="#1a1a1a"/>
          <path id="Trazado_608513" data-name="Trazado 608513" d="M35.044,35.987H30.086V27.314H27.642V20.262h7.033v1.232h-5.8v4.588h6.17Zm-3.725-1.232H33.81V27.314H31.318Z" transform="translate(-27.642 -13.153)" fill="#1a1a1a"/>
          <path id="Trazado_608514" data-name="Trazado 608514" d="M36.92,30.051H33.351V28.819h2.337V25.775H36.92Z" transform="translate(-26.317 -11.874)" fill="#1a1a1a"/>
          <rect id="Rectángulo_347138" data-name="Rectángulo 347138" width="1.232" height="13.82" transform="translate(17.859 2.137)" fill="#1a1a1a"/>
        </g>
      </g>
    </g>
  </g>
</svg>
