<svg id="Grupo_1016368" data-name="Grupo 1016368" xmlns="http://www.w3.org/2000/svg" xmlns:xlink="http://www.w3.org/1999/xlink" width="247.61" height="140.865" viewBox="0 0 247.61 140.865">
  <defs>
    <clipPath id="clip-path">
      <rect id="Rectángulo_347003" data-name="Rectángulo 347003" width="247.61" height="140.866" fill="none"/>
    </clipPath>
  </defs>
  <g id="Grupo_1016366" data-name="Grupo 1016366" clip-path="url(#clip-path)">
    <path id="Trazado_606793" data-name="Trazado 606793" d="M208.122,51.548s-.768,2.814.106,3.272c0,0,1.1,1.284,1,2.143s-.115,2.036-1.1,2.434-2.094,1.044-3.306.348L205.1,62.1l.51,7.478,4.77,3.626-2.231,11.9-2.678,10.028s-3.477,4.549-3.626,4.71-3.948,2.173-3.948,2.173-6.869-7.729-7.151-8.172-2.255-6.2-2.255-6.4,2.928-14.3,2.928-14.3l3.313-2.851s.853-.57.971-1.22a32.038,32.038,0,0,0,0-3.4,3.557,3.557,0,0,1-2.71-1.138C191.978,63.3,192,59.8,192,59.8l.215-8.985,3.192-.029,2.253-.754,1.765-1.11.52-.446,1.4-.846,3.886.846Z" transform="translate(8.546 2.159)" fill="#fff"/>
    <path id="Trazado_606794" data-name="Trazado 606794" d="M195.808,65.839s5.835.27,7.1-1.176.907-4.96.694-5.87a18.568,18.568,0,0,1-.247-2.775s1.528-2.888,4.253-1.6a13.746,13.746,0,0,0,.212-5.627c-.592-2.564-2.434-4.532-5.9-3.418a10.212,10.212,0,0,0-5.457-1.248c-3.007.206-6.121,3.713-6.1,6.866,0,0,1.509,3.767,1.486,3.673s.113-3.718.113-3.718a8.525,8.525,0,0,0,3.848-.108,16.346,16.346,0,0,0,4.353-2.46s.249,4.081,2.437,5.693c0,0-.24.755-.258.91s-.143,3.274-.885,3.529-3.16-.322-4.18.284-1.171,1.122-1.873.928a11.326,11.326,0,0,0-2.108-.4,2.072,2.072,0,0,0-1.354.425s-.583,6.388,3.87,6.089" transform="translate(8.631 1.999)" fill="#ff7e7e"/>
    <path id="Trazado_606795" data-name="Trazado 606795" d="M173.975,79.689s7.782-8.042,18.1-7.806L195.087,86.7l.868-1.525,2.6,12.436,1.844,1.843,6.876-16.024.671.286,2.475-12.087a37.26,37.26,0,0,1,10.331,2.023c4.294,1.75,7.183,4.865,10.431,14.067s6.651,18.346,7.84,21.5,1.4,13.944-5.105,17.554-8.895,1.169-8.895,1.169v9.21h-41.67Z" transform="translate(7.888 3.248)" fill="#1a1a1a"/>
    <path id="Trazado_606796" data-name="Trazado 606796" d="M20.467,51.62V88.227a71.806,71.806,0,0,1,20.567-9.9c12.278-3.671,17.5-3.9,17.5-3.9V37.939a99.7,99.7,0,0,0-20.031,4.7A80.068,80.068,0,0,0,20.467,51.62" transform="translate(0.928 1.72)" fill="#fff"/>
    <path id="Trazado_606797" data-name="Trazado 606797" d="M83.58,88.078s-8.337-.913-13.169-5.794L64.707,94.6S63,86.566,62.559,84.615s-.5-5.808-11.115-5.745l-8.373,0s-9.986-.373-13.387,5.243-3.542,8.459-3.542,8.459l-8.356,32.963-2.322,11.3h52.02l-.561-15.711a8.818,8.818,0,0,0,7.428-3.889,45.6,45.6,0,0,0,6.239-12.352c.913-2.9,2.892-10.276,2.892-10.276Z" transform="translate(0.701 3.575)" fill="#1a1a1a"/>
    <path id="Trazado_606798" data-name="Trazado 606798" d="M167.776,60.906,166.708,57.3l-1.721-1.908-1.692-.564H108.272l-1.491.448-1.82,1.82-.569,1.682.437,2.132,9.426,34.077.709,1.6,1.211,1.143,1.3.653,34.347-.122,21.962-12.892Z" transform="translate(4.733 2.486)" fill="#fff"/>
    <path id="Trazado_606799" data-name="Trazado 606799" d="M163.094,59.9l-1-1.226-1.38-.415-50.123.01-1.292.666-.482,1.486,8.919,32.133.914,1.208,1.8.846h33.511s17.347-12.858,17.347-13S163.094,59.9,163.094,59.9" transform="translate(4.934 2.641)" fill="#fff"/>
    <path id="Trazado_606800" data-name="Trazado 606800" d="M162.566,82.867s-5.374,1.045-7.72,5.724-4.891,10.575-5.814,12.256-4.388,2.251-5.388.6-6.5-18.812-6.5-18.812-1.775-2.092-8.106-1.716-7.179,4.045-7.179,4.045,2.033,13.06,4.071,18.288,5.915,16.59,17.248,16.559c0,0,4.86.231,6.651-.563,0,0-.895,14.78-1.945,17.493h37.832s-.481-13.12-.462-17.1.614-10.854.245-14.978a41.869,41.869,0,0,1,0-7.462l-16.247-16Z" transform="translate(5.525 3.667)" fill="#33ece0"/>
    <path id="Trazado_606801" data-name="Trazado 606801" d="M147.511,33.933a1.09,1.09,0,1,0-1.09-1.09,1.089,1.089,0,0,0,1.09,1.09" transform="translate(6.638 1.44)" fill="#1a1a1a"/>
    <path id="Trazado_606802" data-name="Trazado 606802" d="M155.615,33.991a1.146,1.146,0,1,0-1.147-1.147,1.147,1.147,0,0,0,1.147,1.147" transform="translate(7.003 1.437)" fill="#1a1a1a"/>
    <path id="Trazado_606803" data-name="Trazado 606803" d="M163.713,33.9a1.062,1.062,0,1,0-1.063-1.061,1.061,1.061,0,0,0,1.063,1.061" transform="translate(7.374 1.441)" fill="#1a1a1a"/>
    <path id="Trazado_606804" data-name="Trazado 606804" d="M147.514,42.093a1.146,1.146,0,1,0-1.147-1.147,1.146,1.146,0,0,0,1.147,1.147" transform="translate(6.636 1.805)" fill="#1a1a1a"/>
    <path id="Trazado_606805" data-name="Trazado 606805" d="M155.617,42.151a1.2,1.2,0,1,0-1.2-1.2,1.2,1.2,0,0,0,1.2,1.2" transform="translate(7.001 1.802)" fill="#1a1a1a"/>
    <path id="Trazado_606806" data-name="Trazado 606806" d="M163.716,42.063a1.118,1.118,0,1,0-1.12-1.117,1.117,1.117,0,0,0,1.12,1.117" transform="translate(7.372 1.806)" fill="#1a1a1a"/>
    <path id="Trazado_606807" data-name="Trazado 606807" d="M147.51,50.106a1.062,1.062,0,1,0-1.061-1.061,1.061,1.061,0,0,0,1.061,1.061" transform="translate(6.64 2.175)" fill="#1a1a1a"/>
    <path id="Trazado_606808" data-name="Trazado 606808" d="M155.613,50.164a1.117,1.117,0,1,0-1.117-1.117,1.117,1.117,0,0,0,1.117,1.117" transform="translate(7.005 2.173)" fill="#1a1a1a"/>
    <path id="Trazado_606809" data-name="Trazado 606809" d="M163.712,50.086a1.043,1.043,0,1,0-1.043-1.042,1.042,1.042,0,0,0,1.043,1.042" transform="translate(7.375 2.176)" fill="#1a1a1a"/>
    <path id="Trazado_606810" data-name="Trazado 606810" d="M134.93,81.79l1.226-4.052s.99-2.679-.4-3.126-2.231,1.1-2.49,1.939-.582,2.224-2.276,1.519c0,0-.927-.658-1.607-3.536a44.589,44.589,0,0,0-2.319-6.529s-.678-1.845-2.008-1.35-1.017,2.1-.613,3.321,1.439,4.546,1.439,4.546-2.143-.185-2.268,1.614c0,0-1.826.563-1.936,1.915a12.406,12.406,0,0,0,.866,4.541c.363.751.681,1.291.681,1.291a9.966,9.966,0,0,1,5.1-2.252,30.07,30.07,0,0,1,6.6.158" transform="translate(5.516 3.018)" fill="#fff"/>
    <path id="Trazado_606811" data-name="Trazado 606811" d="M42.3,79.69l-.086-7.039s-2.173.691-3.141-2.026,3.6-3.211,4.058-2.978c0,0,2.889-1.356,4.074-2.085,2.215-1.365,3.937-5.19,3.937-5.19l1.344,1.917,1.2,7.036s.4,4.677-.656,5.793a4.04,4.04,0,0,1-3.116,1.291l.247,3.3s.839,2.7.96,3.159.753,2.659-1.238,3.259-3.651-.626-4.639-1.809A48.677,48.677,0,0,1,42.3,79.69" transform="translate(1.766 2.737)" fill="#fff"/>
    <path id="Trazado_606812" data-name="Trazado 606812" d="M70.149,84.345l1.681-2.851s.969-5.124,1.38-5.5a3.218,3.218,0,0,1,3.064-1.431,3.256,3.256,0,0,0,.476-.323c.056-.079,3.989-4.519,3.989-4.519a1.666,1.666,0,0,1,1.554.2,1.848,1.848,0,0,1,.146,2.259c-.351.615-2.356,3.272-2.356,3.272s2.029.02,2.238.933l-.837.88-.258,8.041s-1.98,2.408-2.96,2.587c0,0-6.373-1.841-8.116-3.549" transform="translate(3.18 3.156)" fill="#fff"/>
    <path id="Trazado_606813" data-name="Trazado 606813" d="M52.643,62.7a5.675,5.675,0,0,0-1.321-4.957c-2.051-2.414-8.478-.085-8.478-.085a6.818,6.818,0,0,0-.437-5.057,5.237,5.237,0,0,0-6.945-1.762c-2.654,1.331-3.635,4.756-3.114,7.1s2.138,3.769,3.637,3.833a13.934,13.934,0,0,0,.129,6.252c.866,3.353,2.979,6,6.426,6.242l-.015-1.161s-2.59.39-3-1.821a2.739,2.739,0,0,1,1.851-3.259,8.031,8.031,0,0,1,1.7.083,14.143,14.143,0,0,0,3.049-1.2,14.151,14.151,0,0,0,3.484-2.964c.418-.558,1.872-2.993,1.872-2.993a5.44,5.44,0,0,1,1.16,1.747" transform="translate(1.461 2.276)" fill="#ffce26"/>
    <path id="Trazado_606814" data-name="Trazado 606814" d="M157.719,65.972s-.407-3.88,1.244-5.443a8.7,8.7,0,0,1,5.735.285,30.37,30.37,0,0,1,5.15-.5c1.362.156,4.523,2.185,4.95,4.82a16.448,16.448,0,0,1-.19,6.6c-.43,1.679-1.217,4.315-.933,5.945a6.4,6.4,0,0,0,3.9,4.749,14.093,14.093,0,0,1,5.729,4.356c.932,1.429,2.811,4.879,2.989,7.5s-.8,6.846-3.153,8.243a10.273,10.273,0,0,1-9.425.79c-3.8-1.544-4.574-3.506-4.66-4.783s1.142-7.631.92-9.02a4.369,4.369,0,0,0-3.841-3.4c-2.258-.271-5.708-1.07-6.335-4.055s-.852-4.558-.852-4.558Z" transform="translate(7.149 2.728)" fill="#fff"/>
    <path id="Trazado_606815" data-name="Trazado 606815" d="M161.738,69.8a3.526,3.526,0,0,1,2.468-.033,2.867,2.867,0,0,1,1.414,3.439,2.812,2.812,0,0,1-3.31,1.654s-2.841,1.9-3,3.961a3.074,3.074,0,0,1-3.19-1.577,5.911,5.911,0,0,1-.447-3.442c.164-.789.262-1.784.262-1.784l-.918-.191-.366-.655,1.454-4.844.489-.471.873.429.253-.393s1.831,3.543,4.014,3.911" transform="translate(7.012 2.986)" fill="#fff"/>
    <path id="Trazado_606816" data-name="Trazado 606816" d="M81.037,78.587l-1.009,37.219s14.349-8.752,16.449-21.357V58.429a14.61,14.61,0,0,0-2.069-10.05c-3.163-5.054-10.482-7.911-10.482-7.911l-.158,35.943Z" transform="translate(3.628 1.835)" fill="#fff"/>
    <path id="Trazado_606817" data-name="Trazado 606817" d="M59.726,88.595l-.468,36.657s-14.087,4.063-25.834,3.263-19.752-3.734-24.091-7.986a15.547,15.547,0,0,1-4.691-9.113L4.559,73.424S3.6,83.614,16.619,88.6s27.62,3.071,28.954,2.934c2.551-.262,14.154-2.941,14.154-2.941" transform="translate(0.206 3.329)" fill="#fff"/>
    <path id="Trazado_606818" data-name="Trazado 606818" d="M45.248,106.764s17.185-1.526,22.37-5.005v12.684a63.935,63.935,0,0,1-22.37,4.983Z" transform="translate(2.051 4.614)" fill="#ff7e7e"/>
    <path id="Trazado_606819" data-name="Trazado 606819" d="M70.242,83.8l1-1.7s-2.851-.717-3.118-.162S70.242,83.8,70.242,83.8" transform="translate(3.088 3.705)" fill="#1a1a1a"/>
    <path id="Trazado_606820" data-name="Trazado 606820" d="M80.74,84.769s-1.855,2.275-2.619,2.438a13.224,13.224,0,0,0,2.619.5Z" transform="translate(3.542 3.843)" fill="#1a1a1a"/>
    <path id="Trazado_606821" data-name="Trazado 606821" d="M222.117,107.634l6.4-15.234-22.1-9.478-13.705,31.913,21.9,9.56.605-.7s-8.094-4.883-9.99-7.284a28.72,28.72,0,0,0-4.177-4.2,26.635,26.635,0,0,1,3.957-6.951,49.543,49.543,0,0,1,4.266-4.9Z" transform="translate(8.737 3.76)" fill="#fff"/>
    <path id="Trazado_606822" data-name="Trazado 606822" d="M203.359,81.365c-.118.087-1.069,2.9-1.069,2.9l.731,6.256L199.2,99.165l-1.688-1.729-.6-2.869,1.561-10.05-1.442-3.406,3.106-5.5Z" transform="translate(8.928 3.428)" fill="#a3bfe4"/>
    <path id="Trazado_606823" data-name="Trazado 606823" d="M198.176,62.774a2.672,2.672,0,0,1,.666-2.008A3.481,3.481,0,0,1,200.2,60s-.287-.712-.9-.667-.552,1.119-1.359,1.324-1.342-.379-1.943-.017-.821.443-.537.933a2.329,2.329,0,0,0,1.691,1.267c.837.06,1.024-.065,1.024-.065" transform="translate(8.856 2.69)" fill="#1a1a1a"/>
    <path id="Trazado_606824" data-name="Trazado 606824" d="M143.532,25.764A25.764,25.764,0,1,1,117.767,0a25.765,25.765,0,0,1,25.764,25.764" transform="translate(4.171)" fill="#fff198"/>
    <path id="Trazado_606825" data-name="Trazado 606825" d="M20.874,66.582V77.526L14.788,80.48V69.536Z" transform="translate(0.67 3.019)" fill="#fff198"/>
    <path id="Trazado_606826" data-name="Trazado 606826" d="M84.166,43.983v9.266a26.164,26.164,0,0,0-6.778-2.2c-3.277-.463-5.672-.642-5.672-.642V41.141a26.559,26.559,0,0,1,7.277.976,42.7,42.7,0,0,1,5.173,1.866" transform="translate(3.251 1.865)" fill="#1a1a1a"/>
    <path id="Trazado_606827" data-name="Trazado 606827" d="M83.766,40.468l-.158,35.943s5.581-3.889,8.362-8.314,4.189-8.342,4.345-9.668.538-6.353-1.628-9.3-3.074-4.822-10.922-8.665" transform="translate(3.791 1.835)" fill="#33ece0"/>
    <path id="Trazado_606828" data-name="Trazado 606828" d="M164.9,102.208s-3.764,14.407-16.4,20.474l.12-4.4s5.557-1.842,9.075-4.975a27.953,27.953,0,0,0,7.209-11.1" transform="translate(6.733 4.634)" fill="#1a1a1a"/>
    <path id="Trazado_606829" data-name="Trazado 606829" d="M199.807,102.974s-1.343.23-2.705.494L195,108.36s7.645,9.265,15.095,13.2l4.419,1.928.6-.694s-8.094-4.884-9.99-7.285a28.686,28.686,0,0,0-4.177-4.2,25.112,25.112,0,0,1,2.163-4.374Z" transform="translate(8.841 4.669)" fill="#b5b5b5"/>
    <path id="Trazado_606830" data-name="Trazado 606830" d="M208.562,100.454s-.913-2.125-1.166-2.948-.79-3.287-1.959-3.159-1.612,1.263-1.3,2.433,1.327,3.855.158,4.108-3.03-.963-4.343-2.125-4.6-3.735-4.6-3.735-1.046.393-1.3.962a1.747,1.747,0,0,0,.211,1.342,1.318,1.318,0,0,0-1.322.3c-.468.57-.66,1.56-.359,1.9,0,0-1.569,1.106-.555,2.51a26.085,26.085,0,0,0,4.3,4.847c1.834,1.517,3.1,2.836,5.358,3.377,0,0,1.91-3.757,2.888-5.116s3.979-4.7,3.979-4.7" transform="translate(8.691 4.277)" fill="#fff"/>
    <path id="Trazado_606831" data-name="Trazado 606831" d="M110.506,79.46l3.985,14.406.709,1.6,1.7,1.387.815.409,7.374-.026,2.82,8.735H106.538L99.212,79.588Z" transform="translate(4.498 3.603)" fill="#1a1a1a"/>
    <path id="Trazado_606832" data-name="Trazado 606832" d="M40.478,54.243c.712,3.555.19,3.7.19,3.7h1.47l.606-.31A6.773,6.773,0,0,0,42.3,52.6a5.238,5.238,0,0,0-6.946-1.762,5.1,5.1,0,0,0-.681.42c.944-.065,5.186-.129,5.808,2.981" transform="translate(1.572 2.276)" fill="#fff"/>
    <path id="Trazado_606833" data-name="Trazado 606833" d="M44.423,56.775c1.1.085,5.312.571,5.169,3.066-.166,2.863-5.264,7.38-5.281,7.394a11.78,11.78,0,0,0,1.267-.6,14.131,14.131,0,0,0,3.484-2.964c.419-.558,1.872-2.992,1.872-2.992a5.406,5.406,0,0,1,1.16,1.745,5.673,5.673,0,0,0-1.321-4.956c-1.284-1.512-4.286-1.162-6.35-.692" transform="translate(2.009 2.556)" fill="#fff"/>
    <path id="Trazado_606834" data-name="Trazado 606834" d="M200.086,59.969s-2.953,1.084-1.913,2.664a2.549,2.549,0,0,0,1.4-.837,3.05,3.05,0,0,0,.509-1.826" transform="translate(8.975 2.719)" fill="#fff"/>
    <path id="Trazado_606835" data-name="Trazado 606835" d="M191.96,50.944a7.562,7.562,0,0,0,5.343-.727c-1.812.58-4.887-1.022-4.887-1.022.207-2.57,4.057-4.812,4.556-5.091-.166,0-.333.007-.506.019-3.007.206-6.123,3.713-6.1,6.866,0,0,1.509,3.767,1.486,3.673s.113-3.718.113-3.718" transform="translate(8.631 2)" fill="#fff"/>
    <path id="Trazado_606836" data-name="Trazado 606836" d="M198.449,64.926c-6.317.4-5.342-6.257-5.342-6.257s-.284.043-.668.11a2.184,2.184,0,0,0-.569.31s-.583,6.388,3.87,6.089a27.4,27.4,0,0,0,4.437-.189,4.858,4.858,0,0,0-1.729-.063" transform="translate(8.698 2.66)" fill="#fff"/>
    <path id="Trazado_606837" data-name="Trazado 606837" d="M201.061,77.27l-2.193,3.822,1.262,3.14-1.878,13.949-.477-.436-.751-3.18,1.5-10.144-1.245-3.329,2.978-5.49Z" transform="translate(8.933 3.428)" fill="#fff"/>
    <path id="Trazado_606838" data-name="Trazado 606838" d="M152.247,116.893s-1.746-6.274-8.38-5.966-8.579,5.237-8.579,5.237a15.277,15.277,0,0,0,8.7,2.327c5.595,0,8.263-1.6,8.263-1.6" transform="translate(6.134 5.029)" fill="#1a1a1a"/>
    <path id="Trazado_606839" data-name="Trazado 606839" d="M70.148,84.614a20.885,20.885,0,0,1,1.514-3.538l.832-3.242c.035-.156.072-.32.114-.481a4.561,4.561,0,0,1,1.606-2.9,3.125,3.125,0,0,1,1.709-.35,11.179,11.179,0,0,1,2.249.247,4.181,4.181,0,0,1,1.053.348,1.763,1.763,0,0,1,.9,2.231A2.132,2.132,0,0,1,78.86,78.04a6.475,6.475,0,0,1-2,.31,6.074,6.074,0,0,1-2.927-.653c.986-.051,1.865.154,2.776.154a6.257,6.257,0,0,0,1.974-.28,1.677,1.677,0,0,0,.984-.837,1.273,1.273,0,0,0-.677-1.589,3.6,3.6,0,0,0-.927-.3,10.7,10.7,0,0,0-2.147-.235,2.427,2.427,0,0,0-1.438.274,4.17,4.17,0,0,0-1.387,2.595c-.041.158-.076.317-.112.476l-.855,3.3c-.073.153-1.308,2.486-1.763,3.238a.25.25,0,0,1-.214.12" transform="translate(3.18 3.36)" fill="#1a1a1a"/>
    <path id="Trazado_606840" data-name="Trazado 606840" d="M80.888,83.6A1.572,1.572,0,0,1,79.5,82.337a2.456,2.456,0,0,1,.149-1.7,6.308,6.308,0,0,1,1.135-1.707,5.286,5.286,0,0,1-.677,1.9,1.964,1.964,0,0,0-.13,1.35c.183.584.47.867.935.917.207.4.1.5-.027.5" transform="translate(3.6 3.579)" fill="#1a1a1a"/>
    <path id="Trazado_606841" data-name="Trazado 606841" d="M79.623,75.869a5.637,5.637,0,0,1,1.217-2.213c.857-1.071,1.525-1.907,1.236-3.021-.119-.462-.463-.953-1.024-.823a2.084,2.084,0,0,0-.851.511,23.19,23.19,0,0,0-3.73,4.351,11.456,11.456,0,0,1,3.4-4.731,2.552,2.552,0,0,1,1.065-.617,1.387,1.387,0,0,1,1.622,1.183c.349,1.357-.464,2.374-1.18,3.272-.623.784-1.094,1.384-1.56,1.988a.249.249,0,0,1-.2.1" transform="translate(3.467 3.141)" fill="#1a1a1a"/>
    <path id="Trazado_606842" data-name="Trazado 606842" d="M81.937,76.514c-.384-.629-.659-.883-1.13-1a1.064,1.064,0,0,0-1.161.3c-.066-.782.55-.965,1.28-.781a1.626,1.626,0,0,1,1.249,1.158c-.186.324-.212.327-.237.327" transform="translate(3.611 3.399)" fill="#1a1a1a"/>
    <path id="Trazado_606843" data-name="Trazado 606843" d="M78.629,81.14A2.233,2.233,0,0,1,76.7,80.1a2.194,2.194,0,0,1,.3-2.339,4.331,4.331,0,0,0,.141,2.1,1.715,1.715,0,0,0,1.488.779A1.924,1.924,0,0,0,79.9,80a9.392,9.392,0,0,0,.65-.735c.124-.151.253-.307.4-.479.23.5.1.65-.016.8-.211.254-.409.493-.685.769a2.4,2.4,0,0,1-1.6.785Z" transform="translate(3.468 3.526)" fill="#1a1a1a"/>
    <path id="Trazado_606844" data-name="Trazado 606844" d="M76.56,83.7a6.686,6.686,0,0,0,.723-3.208c.506.022.643,1.64-.528,3.114a.252.252,0,0,1-.2.094" transform="translate(3.471 3.65)" fill="#1a1a1a"/>
    <path id="Trazado_606845" data-name="Trazado 606845" d="M227.226,128.6c-8.761,0-20.362-8.868-26.709-15.748a23.59,23.59,0,0,1,3.712-7.069,46.667,46.667,0,0,1,4.377-5.117c.406.016,12.837,6.008,20.733,12.65-7.687-5.813-19.041-11.447-20.511-12.167a48.558,48.558,0,0,0-4.2,4.934,30.8,30.8,0,0,0-3.639,6.544c9.546,10.294,23.671,18.754,31.181,14.192,10.68-6.482,4.393-21.9-.658-34.3-.879-2.159-1.711-4.2-2.416-6.1-.075-.2-.157-.425-.243-.668-1.019-2.834-2.912-8.108-7.4-10.842a24.21,24.21,0,0,0-12.242-3.038,20.416,20.416,0,0,1,12.5,2.61c4.637,2.827,6.569,8.208,7.609,11.1.088.24.167.463.24.664.7,1.892,1.534,3.927,2.411,6.082,5.123,12.568,11.5,28.209.453,34.912a9.835,9.835,0,0,1-5.2,1.354" transform="translate(9.091 3.254)" fill="#1a1a1a"/>
    <path id="Trazado_606846" data-name="Trazado 606846" d="M201.7,110.4c-3.51-.541-9.49-6.791-10.109-8.906a1.862,1.862,0,0,1,.757-2.159,1.471,1.471,0,0,1,.251-1.828,1.772,1.772,0,0,1,.644-.458,1.525,1.525,0,0,1,1.339.176,9.116,9.116,0,0,1-1.156.29,1.292,1.292,0,0,0-.463.335.977.977,0,0,0-.057,1.4c-.134.413-1.186.9-.835,2.1.58,1.977,6.421,8.045,9.669,8.549.188.409.084.5-.039.5" transform="translate(8.682 4.396)" fill="#1a1a1a"/>
    <path id="Trazado_606847" data-name="Trazado 606847" d="M199.742,102.444a38.067,38.067,0,0,1-4.513-3.672c-.869-.8-1.642-1.515-1.644-2.332a1.549,1.549,0,0,1,.567-1.14c1.268-1.173,2.475-.016,3.19.676.146.139.361.354.617.609a35.734,35.734,0,0,0,2.714,2.541c.651.5,2.631,2,3.41,1.632.561-.268.737-.781.044-2.723A4.411,4.411,0,0,1,204,94.62a1.1,1.1,0,0,1,.787-.555c1.518-.233,1.9.925,2.22,1.855.073.213.143.422.226.609a9.349,9.349,0,0,1,.443,1.4,6.417,6.417,0,0,0,1,2.391,3.023,3.023,0,0,1-1.48-2.265,8.978,8.978,0,0,0-.417-1.321c-.088-.2-.165-.421-.241-.648-.36-1.056-.677-1.679-1.667-1.523a.606.606,0,0,0-.437.317,4.077,4.077,0,0,0,.165,2.99c.616,1.734.765,2.837-.3,3.342-.94.444-2.51-.6-3.925-1.685a35.964,35.964,0,0,1-2.765-2.585c-.253-.252-.464-.464-.609-.6-1.048-1.011-1.723-1.388-2.5-.67a1.059,1.059,0,0,0-.406.773c0,.6.681,1.222,1.176,1.678a46.618,46.618,0,0,0,4.615,3.866c.03.421-.051.462-.135.462" transform="translate(8.777 4.263)" fill="#1a1a1a"/>
    <path id="Trazado_606848" data-name="Trazado 606848" d="M198.091,104.568c-.158-.055-1.458-1.106-2.911-2.3a23.039,23.039,0,0,1-2.586-2.67c.284-.442,1.725,1.319,2.9,2.283,1.453,1.19,2.75,2.239,2.752,2.24-.013.412-.085.444-.158.444" transform="translate(8.732 4.513)" fill="#1a1a1a"/>
    <path id="Trazado_606849" data-name="Trazado 606849" d="M81.2,88.215a21.253,21.253,0,0,1-6.645-1.8C72.033,85.4,67.39,83.134,67.9,81.855c.223-.552.882-.527,1.268-.513a5.919,5.919,0,0,1,2.087.43,5.761,5.761,0,0,1-2.073.072c-.4-.016-.734-.009-.816.2-.158.391,1.95,2.124,6.377,3.906A21.188,21.188,0,0,0,81.2,87.716c.249.388.138.5,0,.5" transform="translate(3.077 3.688)" fill="#1a1a1a"/>
    <path id="Trazado_606850" data-name="Trazado 606850" d="M134.874,82.186a11.355,11.355,0,0,1,.475-2.608c.152-.574.294-1.114.426-1.485a4.571,4.571,0,0,0,.412-2.561,1.1,1.1,0,0,0-.534-.684,1.149,1.149,0,0,0-1.091.123,2.545,2.545,0,0,0-.823.968,3.459,3.459,0,0,0-.218.668c-.191.734-.454,1.74-1.33,1.95-1.262.3-2.2-.72-2.8-3.03-.247-.955-.477-1.783-.7-2.534a31.645,31.645,0,0,0-1.845-4.868,2.763,2.763,0,0,0-.729-1.106,1.006,1.006,0,0,0-.654-.176,1.076,1.076,0,0,0-.846.444,2.023,2.023,0,0,0-.226,1.624c.307,1.227,1.859,5.493,1.874,5.536-.3.326-1.137.121-1.754.536a1.637,1.637,0,0,0-.643,1.2c-.239.216-1.021.278-1.522.875a2.261,2.261,0,0,0-.408,1.758,1.57,1.57,0,0,1,.029-2.084,2.49,2.49,0,0,1,1.436-.806,2.028,2.028,0,0,1,.832-1.357,2.31,2.31,0,0,1,1.417-.338c-.394-1.1-1.486-4.153-1.748-5.2a2.513,2.513,0,0,1,.306-2.042,1.581,1.581,0,0,1,1.219-.647,1.485,1.485,0,0,1,.982.271,2.819,2.819,0,0,1,.811,1.138,32.9,32.9,0,0,1,1.945,5.1c.225.756.456,1.591.706,2.552.517,2,1.247,2.9,2.2,2.669.582-.138.791-.943.962-1.59a3.675,3.675,0,0,1,.262-.784,3.032,3.032,0,0,1,.992-1.146,1.637,1.637,0,0,1,1.582-.152,1.582,1.582,0,0,1,.794.993,4.966,4.966,0,0,1-.413,2.847c-.134.373-.273.9-.422,1.467a15.627,15.627,0,0,1-.733,2.338.252.252,0,0,1-.226.142" transform="translate(5.511 3.008)" fill="#1a1a1a"/>
    <path id="Trazado_606851" data-name="Trazado 606851" d="M124.828,79.261a6.594,6.594,0,0,1-1.521-3.623c.5.023.494,1.367,1.73,3.234-.114.374-.162.389-.209.389" transform="translate(5.591 3.429)" fill="#1a1a1a"/>
    <path id="Trazado_606852" data-name="Trazado 606852" d="M126.975,77.37a13.684,13.684,0,0,1-1.373-3.158c.5-.05.624.631,1.6,2.806-.158.346-.193.352-.228.352" transform="translate(5.695 3.365)" fill="#1a1a1a"/>
    <path id="Trazado_606853" data-name="Trazado 606853" d="M123.239,83.62a10.816,10.816,0,0,1-1.82-5.705c.5.032.5,2.932,2.031,5.32-.117.373-.165.386-.211.386" transform="translate(5.505 3.533)" fill="#1a1a1a"/>
    <path id="Trazado_606854" data-name="Trazado 606854" d="M197.61,63.1a2.806,2.806,0,0,1-1.482-.422,1.837,1.837,0,0,1-.943-1.246.978.978,0,0,1,.378-.906,1.414,1.414,0,0,1,1.36-.094c.628.254.7.226.857.163s.231-.091.517-.7a1.412,1.412,0,0,1,1.06-.856,1,1,0,0,1,.895.408,1.745,1.745,0,0,1,.124,1.486,2.832,2.832,0,0,1-2.767,2.17m-1.318-2.3a.716.716,0,0,0-.43.124.478.478,0,0,0-.179.46,1.383,1.383,0,0,0,.707.863,2.342,2.342,0,0,0,2.11.178,2.411,2.411,0,0,0,1.4-1.633,1.315,1.315,0,0,0-.038-1.046.471.471,0,0,0-.444-.216.932.932,0,0,0-.664.571c-.338.724-.484.837-.785.955s-.486.137-1.228-.165a1.2,1.2,0,0,0-.444-.091" transform="translate(8.849 2.676)" fill="#1a1a1a"/>
    <path id="Trazado_606855" data-name="Trazado 606855" d="M198.133,62.988a2.425,2.425,0,0,1,1.889-3.25c.034.508-2.114,1.1-1.646,2.938-.2.308-.222.312-.243.312" transform="translate(8.975 2.708)" fill="#1a1a1a"/>
    <path id="Trazado_606856" data-name="Trazado 606856" d="M193.146,56.361c-.435-.057-.841-.332-.9-1.367a6.236,6.236,0,0,1,.047-1.085c.39.8.42,1.891.821,1.949.5-.308.694-1.264.742-1.805.483.209.339,1.674-.261,2.147a.719.719,0,0,1-.448.162" transform="translate(8.716 2.444)" fill="#1a1a1a"/>
    <path id="Trazado_606857" data-name="Trazado 606857" d="M198.806,56.4c-1.168-.193-.847-2.241-.806-2.473.37.8.374,1.9.771,1.969.5-.3.735-1.3.8-1.866.477.227.286,1.753-.335,2.219a.719.719,0,0,1-.43.151" transform="translate(8.974 2.445)" fill="#1a1a1a"/>
    <path id="Trazado_606858" data-name="Trazado 606858" d="M48.057,76.554c-.471,0-.977-.01-1.492-.047a4.9,4.9,0,0,1,2.316-.463c1.391-.024,2.462-.043,3.28-.814a2.822,2.822,0,0,0,.625-.878,5.366,5.366,0,0,0,.348-1.471,11.367,11.367,0,0,0,.093-1.865,30,30,0,0,0-.364-3.458c-.241-1.665-.989-4.862-1-4.894.518.018,1.247,3.136,1.451,4.542a32.463,32.463,0,0,1,.409,3.8,11.807,11.807,0,0,1-.1,1.947,5.777,5.777,0,0,1-.389,1.609,3.33,3.33,0,0,1-.738,1.035,4.62,4.62,0,0,1-3.352.946c-.522.011-.8.015-1.1.015" transform="translate(2.111 2.841)" fill="#1a1a1a"/>
    <path id="Trazado_606859" data-name="Trazado 606859" d="M46.334,65.966c.193-.056.338.012.486.718.166.787-.022.954-.2.97s-.39-.207-.454-.777-.085-.837.169-.912" transform="translate(2.091 2.99)" fill="#1a1a1a"/>
    <path id="Trazado_606860" data-name="Trazado 606860" d="M51.2,64.933c.192-.064.339,0,.511.7.191.782.009.954-.17.977s-.4-.194-.48-.761-.113-.834.139-.917" transform="translate(2.312 2.943)" fill="#1a1a1a"/>
    <path id="Trazado_606861" data-name="Trazado 606861" d="M52.135,63.743a1.51,1.51,0,0,0-1.551-.068c.777-.851,1.288-.656,1.689-.391.023.419-.056.459-.138.459" transform="translate(2.293 2.859)" fill="#1a1a1a"/>
    <path id="Trazado_606862" data-name="Trazado 606862" d="M41.691,72.663a2.857,2.857,0,1,1,1.019-5.527,1.518,1.518,0,0,1,.961.646c-.754-.129-1.015-.149-1.018-.149a2.55,2.55,0,0,0-1.46-.13,2.357,2.357,0,1,0,2.114,4.019A1.089,1.089,0,0,1,42.3,72.6a2.888,2.888,0,0,1-.607.066" transform="translate(1.761 3.035)" fill="#1a1a1a"/>
    <path id="Trazado_606863" data-name="Trazado 606863" d="M41.154,71.326c-.171-.431,1.2-1.732,1.2-1.732l-1.79-1.068c.255-.43,2.33.809,2.33.809.044.4-1.57,1.922-1.57,1.922a.241.241,0,0,1-.171.069" transform="translate(1.839 3.103)" fill="#1a1a1a"/>
    <path id="Trazado_606864" data-name="Trazado 606864" d="M48.934,86.006a3.32,3.32,0,0,1-1.029-.171,7.8,7.8,0,0,1-3.149-2.222,16.243,16.243,0,0,1-2.706-4.256c1.177,1.406,2.06,2.794,3.077,3.921a7.325,7.325,0,0,0,2.934,2.081,2.266,2.266,0,0,0,1.854-.1c1.616-.947,1.039-2.514.428-4.174a8.125,8.125,0,0,1-.573-2.058s-.01-.13-.248-3.3c.5-.037.74,3.187.746,3.263a7.841,7.841,0,0,0,.544,1.928c.594,1.612,1.332,3.62-.642,4.778a2.451,2.451,0,0,1-1.238.315" transform="translate(1.906 3.433)" fill="#1a1a1a"/>
    <path id="Trazado_606865" data-name="Trazado 606865" d="M42.173,79.407c-.25-.248-.315-7.286-.315-7.286.5-.005.563,7.033.563,7.033-.248.253-.249.253-.249.253" transform="translate(1.898 3.27)" fill="#1a1a1a"/>
    <path id="Trazado_606866" data-name="Trazado 606866" d="M65.278,135.523c-.389-3.287-.486-6.315-.581-9.244-.136-4.25-.275-8.645-.548-13.1a92.74,92.74,0,0,1,1.048,13.08c.094,2.928.19,5.954.329,9a2.914,2.914,0,0,1-.249.261" transform="translate(2.908 5.131)" fill="#1a1a1a"/>
    <path id="Trazado_606867" data-name="Trazado 606867" d="M64.142,102.657a142.773,142.773,0,0,0-3.072-16.85,13.636,13.636,0,0,0-1.277-3.513c-1.823-3.13-5.626-3.144-8.983-3.157-.387,0-.768,0-1.138-.009a1.194,1.194,0,0,1,1.143-.491c3.489.013,7.443.029,9.409,3.407a14.062,14.062,0,0,1,1.333,3.64,108.53,108.53,0,0,1,2.835,16.7c-.233.273-.239.274-.249.274" transform="translate(2.252 3.565)" fill="#1a1a1a"/>
    <path id="Trazado_606868" data-name="Trazado 606868" d="M51.235,70.211a7.951,7.951,0,0,0-.153-2.17,2.808,2.808,0,0,0-1.19.4c-.362-.177-.99-3.62-.99-3.62.492-.09,1.061,3.027,1.061,3.027.485-.226,1.116-.438,1.424-.206.492.382.228,1.786.092,2.373a.251.251,0,0,1-.245.193" transform="translate(2.217 2.939)" fill="#1a1a1a"/>
    <path id="Trazado_606869" data-name="Trazado 606869" d="M26,91.256c-.211-.056-.281-.2-.237-.329,1.657-5,3.656-8.246,5.942-9.64,2.695-1.643,5.458-2.659,10.895-2.659-5.32.5-8.013,1.49-10.633,3.087-2.183,1.331-4.11,4.482-5.728,9.369a.252.252,0,0,1-.237.172" transform="translate(1.168 3.565)" fill="#1a1a1a"/>
    <path id="Trazado_606870" data-name="Trazado 606870" d="M15.465,135.048c.548-4.178,1.329-7.909,2.077-11.391a89.5,89.5,0,0,1-1.832,11.191.249.249,0,0,1-.245.2" transform="translate(0.701 5.606)" fill="#1a1a1a"/>
    <path id="Trazado_606871" data-name="Trazado 606871" d="M34.865,134.935c.324-3.04.815-5.738,1.3-8.792a39.948,39.948,0,0,1-1.051,8.594.249.249,0,0,1-.245.2" transform="translate(1.581 5.719)" fill="#1a1a1a"/>
    <path id="Trazado_606872" data-name="Trazado 606872" d="M42.172,74.258c-4.221-.4-7.109-4.9-6.893-10.706a6.3,6.3,0,0,1,2.006-4.781,6.926,6.926,0,0,1,4.847-1.416c.758-.321,7.385-2.988,9.636.462a6.673,6.673,0,0,1,1.1,5.159A19.992,19.992,0,0,0,51.4,61a12.853,12.853,0,0,1-8.182,7.105,13.784,13.784,0,0,0,7.855-7.623c.423-.089.99.363,1.415,1.238a6.727,6.727,0,0,0-1.14-3.633c-2.109-3.229-9.01-.281-9.078-.251a6.923,6.923,0,0,0-4.664,1.315,5.831,5.831,0,0,0-1.829,4.418C35.572,69.1,38.27,73.383,42.2,73.759c.212.4.1.5-.023.5" transform="translate(1.599 2.542)" fill="#1a1a1a"/>
    <path id="Trazado_606873" data-name="Trazado 606873" d="M174.353,79.94a3.15,3.15,0,0,1,1.213-1.819c5.565-4.788,10.729-5.59,15.287-6.3q.588-.091,1.162-.183a1.248,1.248,0,0,1-1.087.678c-4.49.7-9.581,1.492-15.037,6.184a9.78,9.78,0,0,0-1.342,1.346.253.253,0,0,1-.2.094" transform="translate(7.905 3.248)" fill="#1a1a1a"/>
    <path id="Trazado_606874" data-name="Trazado 606874" d="M194.314,87.1c-.246-.2-3.261-14.848-3.261-14.848.083-.239,4.318-3.907,4.318-3.907.37.049,5.155,7.13,5.155,7.13l4.616-7.078c.361-.062,4.653,3.183,4.653,3.183.092.249-2.383,12.338-2.383,12.338-.489-.1,1.955-12.035,1.955-12.035L205.413,68.9l-4.591,7.042,5.112,9.267c-.439.24-5.408-8.766-5.408-8.766l-6,10.535a.249.249,0,0,1-.216.126M191.574,72.3l2.852,13.854,5.81-10.211-4.751-7.031Z" transform="translate(8.662 3.099)" fill="#1a1a1a"/>
    <path id="Trazado_606875" data-name="Trazado 606875" d="M198.53,84.439a34.384,34.384,0,0,1-1.622-3.488c.462-.193,1.789,2.988,1.789,2.988l3.413-.006,1.012-3.038c.475.158-.595,3.366-.595,3.366a33.161,33.161,0,0,1-4,.179" transform="translate(8.927 3.668)" fill="#1a1a1a"/>
    <path id="Trazado_606876" data-name="Trazado 606876" d="M204.763,69.2c-.25-.238-.736-9.853-.736-9.853.5-.025.985,9.59.985,9.59a2.43,2.43,0,0,1-.249.263" transform="translate(9.25 2.691)" fill="#1a1a1a"/>
    <path id="Trazado_606877" data-name="Trazado 606877" d="M195.349,68.945c-.249-.254-.2-4.061-.2-4.061.5.006.452,3.813.452,3.813a.25.25,0,0,1-.25.248" transform="translate(8.847 2.942)" fill="#1a1a1a"/>
    <path id="Trazado_606878" data-name="Trazado 606878" d="M197.026,94.435c-.247-.286,1.253-10.424,1.253-10.424.5.073-1.006,10.211-1.006,10.211a.25.25,0,0,1-.248.213" transform="translate(8.932 3.809)" fill="#1a1a1a"/>
    <path id="Trazado_606879" data-name="Trazado 606879" d="M202.828,90.532c-.248-.22-1.008-6.465-1.008-6.465.5-.062,1.255,6.185,1.255,6.185-.227.279-.238.28-.248.28" transform="translate(9.15 3.811)" fill="#1a1a1a"/>
    <path id="Trazado_606880" data-name="Trazado 606880" d="M197.608,97.276c-.245-.2-2.84-12.636-2.84-12.636.489-.1,3.084,12.335,3.084,12.335-.209.3-.228.3-.244.3" transform="translate(8.83 3.837)" fill="#1a1a1a"/>
    <path id="Trazado_606881" data-name="Trazado 606881" d="M200.261,135.576c-.249-.248-.352-18.906-.352-18.906.5,0,.6,18.654.6,18.654-.248.252-.25.252-.25.252" transform="translate(9.064 5.29)" fill="#1a1a1a"/>
    <path id="Trazado_606882" data-name="Trazado 606882" d="M146.762,135.306c-.21-.056-.282-.2-.237-.329,1.142-3.413,1.675-12.258,1.959-17.009.213,4.805-.322,13.692-1.484,17.168a.25.25,0,0,1-.237.17" transform="translate(6.643 5.348)" fill="#1a1a1a"/>
    <path id="Trazado_606883" data-name="Trazado 606883" d="M49.669,72.43a1.681,1.681,0,0,1-.785-.185,2.359,2.359,0,0,1-1.073-1.463c.49-.1.686.7,1.3,1.02a1.605,1.605,0,0,0,1.364-.057c-.163.612-.5.686-.81.686" transform="translate(2.168 3.209)" fill="#1a1a1a"/>
    <path id="Trazado_606884" data-name="Trazado 606884" d="M196.136,65.772c-1.339,0-2.733-.159-3.595-1.475a8.461,8.461,0,0,1-.895-4.651c0-.341,0-.674-.013-1-.032-1.056.126-7.5.133-7.777.5.079.337,6.719.367,7.762.01.326.013.665.014,1.009a8,8,0,0,0,.811,4.378c.852,1.3,2.351,1.272,3.819,1.242.185,0,.371-.008.552-.008a14.548,14.548,0,0,0,3.168-.314,3.361,3.361,0,0,0,2.234-1.13,5.453,5.453,0,0,0,.7-2.769,10.683,10.683,0,0,0-.043-1.691c-.164-1.364-.4-3.479-.4-3.479a3.129,3.129,0,0,1,.994-1.483,3.271,3.271,0,1,1,.087,5.124,4.049,4.049,0,0,0,3.748-.458,2.769,2.769,0,1,0-4.325-3.179c.04.358.245,2.19.394,3.417a11.1,11.1,0,0,1,.044,1.772,5.893,5.893,0,0,1-.789,3.026,3.781,3.781,0,0,1-2.539,1.338,14.9,14.9,0,0,1-3.274.326c-.18,0-.362,0-.546.007-.214,0-.432.008-.65.008" transform="translate(8.688 2.307)" fill="#1a1a1a"/>
    <path id="Trazado_606885" data-name="Trazado 606885" d="M192.054,53.131c-.221-.368.373-1.617,2.157-1.155a2.233,2.233,0,0,0-1.929,1.011.251.251,0,0,1-.228.144" transform="translate(8.705 2.352)" fill="#1a1a1a"/>
    <path id="Trazado_606886" data-name="Trazado 606886" d="M200.413,53.277c-1.358-1.578-2.52-.88-2.569-.851-.256-.432,1.317-1.4,2.767.446-.089.387-.143.4-.2.4" transform="translate(8.969 2.348)" fill="#1a1a1a"/>
    <path id="Trazado_606887" data-name="Trazado 606887" d="M206.46,58.559c-.111-.026-2.456-1.186-2.456-1.186-.068-.4,2.064-2.579,2.064-2.579.356.35-1.535,2.283-1.535,2.283l2.036,1.009c.07.423-.018.474-.11.474" transform="translate(9.249 2.484)" fill="#1a1a1a"/>
    <path id="Trazado_606888" data-name="Trazado 606888" d="M200.207,47c-.2-.407,1.034-1.932,1.034-1.932.39.315-.838,1.839-.838,1.839a.254.254,0,0,1-.2.093" transform="translate(9.076 2.043)" fill="#1a1a1a"/>
    <path id="Trazado_606889" data-name="Trazado 606889" d="M197.164,59.029c.557-1.128,1.893-1,2.969-.907a4.341,4.341,0,0,0,1.091.03c.289-.075.683-1.709.823-3.427l.185-.747a9.729,9.729,0,0,1-2.369-5.237,9.446,9.446,0,0,1-8.469,2.172,10.161,10.161,0,0,0,8.484-2.881c.439.189.571,3.345,2.811,5.7a4.11,4.11,0,0,1-.149,1.073c-.083,1.052-.38,3.617-1.19,3.829a4.165,4.165,0,0,1-1.263-.016c-.926-.085-2.186-.2-2.749.339a.244.244,0,0,1-.174.07" transform="translate(8.677 2.178)" fill="#1a1a1a"/>
    <path id="Trazado_606890" data-name="Trazado 606890" d="M191.891,59.23a1.624,1.624,0,0,1,1.831-.692c-.177.466-.979.191-1.7.653a.251.251,0,0,1-.136.039" transform="translate(8.7 2.651)" fill="#1a1a1a"/>
    <path id="Trazado_606891" data-name="Trazado 606891" d="M245.415,134.576H0c0-.5,245.415-.5,245.415-.5.25.388.138.5,0,.5" transform="translate(0 6.079)" fill="#1a1a1a"/>
    <path id="Trazado_606892" data-name="Trazado 606892" d="M162.808,75.073a2.975,2.975,0,0,1-2.449-1.288,7.542,7.542,0,0,1,1.577.629,2.475,2.475,0,1,0-.629-4.283,1.911,1.911,0,0,1,2.555-.816,2.977,2.977,0,0,1,1.735,3.833,2.989,2.989,0,0,1-2.789,1.924" transform="translate(7.27 3.134)" fill="#1a1a1a"/>
    <path id="Trazado_606893" data-name="Trazado 606893" d="M162.966,73.67a21.224,21.224,0,0,1-1.526-1.919c.133-.389,2.389-1.04,2.389-1.04.139.48-1.774,1.033-1.774,1.033l1.113,1.528c-.1.383-.151.4-.2.4" transform="translate(7.319 3.206)" fill="#1a1a1a"/>
    <path id="Trazado_606894" data-name="Trazado 606894" d="M182.972,136.121c-.257-.314-1.106-9.128-.481-18.52.295-4.423.338-10.185.126-17.614a108.615,108.615,0,0,1,.373,17.647,126.6,126.6,0,0,0,.231,18.212c-.232.274-.241.275-.25.275" transform="translate(8.264 4.533)" fill="#1a1a1a"/>
    <path id="Trazado_606895" data-name="Trazado 606895" d="M159.262,79.31a4.094,4.094,0,0,1-3.224-1.645,5.6,5.6,0,0,1-.437-4.258l1.966-8.034c.486.119-1.484,8.166-1.484,8.166a5.188,5.188,0,0,0,.371,3.848,3.607,3.607,0,0,0,2.831,1.424c.214.4.1.5-.023.5" transform="translate(7.044 2.964)" fill="#1a1a1a"/>
    <path id="Trazado_606896" data-name="Trazado 606896" d="M155.633,72.312c-.97-.236-1.276-.779-1.13-1.3L155.8,66.4a.988.988,0,0,1,1.214-.681,1.143,1.143,0,0,1,.776.516.982.982,0,0,1,.092.748l-1.3,4.612a.986.986,0,0,1-.949.718m-.129-.518a.492.492,0,0,0,.6-.335l1.3-4.613c-.773-.722-1.043-.568-1.117-.312l-1.293,4.611a.484.484,0,0,0,.335.6Z" transform="translate(7.003 2.978)" fill="#1a1a1a"/>
    <path id="Trazado_606897" data-name="Trazado 606897" d="M178.309,104.381a15.482,15.482,0,0,1-4.525-.767,7.7,7.7,0,0,1-3.682-2.048c-1.189-1.359-1.6-3.4-1.231-6.076.092-.659.216-1.321.339-1.962a22.991,22.991,0,0,0,.465-3.363,3.713,3.713,0,0,0-.371-2.031c-.645-1.086-2.139-1.52-3.205-1.753-.253-.055-.507-.106-.761-.155a12.327,12.327,0,0,1-2.313-.612,7.047,7.047,0,0,1-4.092-6.207c-.041-1.921,1.59-3.522,3.13-4.379-1.169,1.223-2.665,2.669-2.63,4.368a6.531,6.531,0,0,0,3.782,5.755,12.008,12.008,0,0,0,2.22.583c.258.051.514.1.77.157,1.159.253,2.784.733,3.53,1.987a4.175,4.175,0,0,1,.439,2.3,23.064,23.064,0,0,1-.473,3.437c-.12.635-.245,1.291-.334,1.938-.349,2.521.024,4.432,1.113,5.677a7.255,7.255,0,0,0,3.451,1.9,14.992,14.992,0,0,0,4.379.746,7.709,7.709,0,0,0,7.751-8.011c-.024-4.827-2.44-9.57-6.012-11.8-.551-.346-1.154-.66-1.736-.962a10.1,10.1,0,0,1-3.96-2.97c-1.57-2.307-.9-4.851-.261-7.312a23.7,23.7,0,0,0,.571-2.558c1.046-7.317-2.492-9.2-4.7-9.667a33.8,33.8,0,0,0-5.218.477c-3.547-1.434-5.329-.506-5.592-.35-.228.348-1.829,2.913-1.126,5.416a6.056,6.056,0,0,0,3.755,3.735,5.134,5.134,0,0,1-4.239-3.6c-.812-2.909,1.143-5.755,1.225-5.875.138-.116,2.046-1.435,5.972.171a33.926,33.926,0,0,1,5.328-.461c2.373.506,6.19,2.507,5.086,10.228a24.46,24.46,0,0,1-.582,2.614c-.615,2.352-1.251,4.783.191,6.9a9.578,9.578,0,0,0,3.777,2.807c.591.307,1.2.626,1.77.981,3.712,2.316,6.223,7.229,6.246,12.222a8.175,8.175,0,0,1-8.146,8.513Z" transform="translate(7.134 2.71)" fill="#1a1a1a"/>
    <path id="Trazado_606898" data-name="Trazado 606898" d="M125.027,98.64h-6.578a4.527,4.527,0,0,1-4.352-3.312l-9.7-35.049a4.518,4.518,0,0,1,4.353-5.722h54.082a4.53,4.53,0,0,1,4.352,3.314l.838,2.979c-.482.136-1.321-2.844-1.321-2.844a4.024,4.024,0,0,0-3.869-2.948H108.753a4.018,4.018,0,0,0-3.871,5.088l9.7,35.049a4.023,4.023,0,0,0,3.87,2.945h6.578c.249.389.138.5,0,.5" transform="translate(4.726 2.474)" fill="#1a1a1a"/>
    <path id="Trazado_606899" data-name="Trazado 606899" d="M150.028,96.75h-8.987c0-.5,8.987-.5,8.987-.5.25.389.138.5,0,.5" transform="translate(6.395 4.364)" fill="#1a1a1a"/>
    <path id="Trazado_606900" data-name="Trazado 606900" d="M160.973,60.305a2.647,2.647,0,0,0-2.543-1.788H155.6c0-.5,2.825-.5,2.825-.5a2.7,2.7,0,0,1,2.786,1.97c-.2.315-.221.318-.243.318" transform="translate(7.055 2.63)" fill="#1a1a1a"/>
    <path id="Trazado_606901" data-name="Trazado 606901" d="M124.017,94.868H120.95a3.785,3.785,0,0,1-3.637-2.767L108.66,60.818a2.21,2.21,0,0,1,2.13-2.8H149.1c0,.5-38.315.5-38.315.5a1.708,1.708,0,0,0-1.647,2.165l8.652,31.284a3.284,3.284,0,0,0,3.155,2.4h3.067c.249.388.138.5,0,.5" transform="translate(4.923 2.63)" fill="#1a1a1a"/>
    <path id="Trazado_606902" data-name="Trazado 606902" d="M151.556,93.292H139.779c0-.5,11.777-.5,11.777-.5.25.388.138.5,0,.5" transform="translate(6.337 4.207)" fill="#1a1a1a"/>
    <path id="Trazado_606903" data-name="Trazado 606903" d="M131.9,64.622H117.386c0-.5,14.511-.5,14.511-.5.249.389.138.5,0,.5" transform="translate(5.322 2.907)" fill="#1a1a1a"/>
    <path id="Trazado_606904" data-name="Trazado 606904" d="M132.409,67.645h-5.75c0-.5,5.75-.5,5.75-.5.249.389.138.5,0,.5" transform="translate(5.743 3.044)" fill="#1a1a1a"/>
    <path id="Trazado_606905" data-name="Trazado 606905" d="M124.22,67.645h-5.943c0-.5,5.943-.5,5.943-.5.249.389.138.5,0,.5" transform="translate(5.362 3.044)" fill="#1a1a1a"/>
    <path id="Trazado_606906" data-name="Trazado 606906" d="M156.261,64.622H141.749c0-.5,14.512-.5,14.512-.5.25.389.138.5,0,.5" transform="translate(6.427 2.907)" fill="#1a1a1a"/>
    <path id="Trazado_606907" data-name="Trazado 606907" d="M156.3,67.645H142.642c0-.5,13.654-.5,13.654-.5.249.389.138.5,0,.5" transform="translate(6.467 3.044)" fill="#1a1a1a"/>
    <path id="Trazado_606908" data-name="Trazado 606908" d="M134.757,73.72h-5.906c0-.5,5.906-.5,5.906-.5.25.388.138.5,0,.5" transform="translate(5.842 3.32)" fill="#1a1a1a"/>
    <path id="Trazado_606909" data-name="Trazado 606909" d="M125.8,73.72h-5.185c0-.5,5.185-.5,5.185-.5.25.388.138.5,0,.5" transform="translate(5.469 3.32)" fill="#1a1a1a"/>
    <path id="Trazado_606910" data-name="Trazado 606910" d="M132.789,76.743h-2.843c0-.5,2.843-.5,2.843-.5.249.388.138.5,0,.5" transform="translate(5.892 3.457)" fill="#1a1a1a"/>
    <path id="Trazado_606911" data-name="Trazado 606911" d="M122.012,76.743h-.5a.49.49,0,0,1,.5-.5c.249.388.138.5,0,.5" transform="translate(5.509 3.457)" fill="#1a1a1a"/>
    <path id="Trazado_606912" data-name="Trazado 606912" d="M156.115,73.72H144.983c0-.5,11.132-.5,11.132-.5.25.388.138.5,0,.5" transform="translate(6.573 3.32)" fill="#1a1a1a"/>
    <path id="Trazado_606913" data-name="Trazado 606913" d="M156.336,76.743H145.874c0-.5,10.462-.5,10.462-.5.25.388.138.5,0,.5" transform="translate(6.614 3.457)" fill="#1a1a1a"/>
    <path id="Trazado_606914" data-name="Trazado 606914" d="M137.735,82.818h-1.258c0-.5,1.258-.5,1.258-.5.249.388.138.5,0,.5" transform="translate(6.188 3.732)" fill="#1a1a1a"/>
    <path id="Trazado_606915" data-name="Trazado 606915" d="M138.622,85.84h-1.148c0-.5,1.148-.5,1.148-.5.249.389.138.5,0,.5" transform="translate(6.233 3.869)" fill="#1a1a1a"/>
    <path id="Trazado_606916" data-name="Trazado 606916" d="M161.119,82.818H148.16c0-.5,12.959-.5,12.959-.5.249.388.138.5,0,.5" transform="translate(6.717 3.732)" fill="#1a1a1a"/>
    <path id="Trazado_606917" data-name="Trazado 606917" d="M155.846,85.84h-6.794c0-.5,6.794-.5,6.794-.5.25.389.138.5,0,.5" transform="translate(6.758 3.869)" fill="#1a1a1a"/>
    <path id="Trazado_606918" data-name="Trazado 606918" d="M35.669,62.036c-2.938-.748-3.941-3.814-3.656-6.35s1.965-5.514,5.772-5.62A5.16,5.16,0,0,1,42.108,51.7c1.859,2.218,1.135,5.84,1.1,5.994-.482-.136.215-3.644-1.488-5.675A4.621,4.621,0,0,0,37.8,50.566c-3.486.1-5.027,2.85-5.288,5.175s.635,5.136,3.222,5.8c.151.416.049.492-.064.492" transform="translate(1.449 2.27)" fill="#1a1a1a"/>
    <path id="Trazado_606919" data-name="Trazado 606919" d="M20.347,86.762A69.428,69.428,0,0,1,42.962,75.757,100.625,100.625,0,0,0,20.488,86.718a.255.255,0,0,1-.141.044" transform="translate(0.923 3.435)" fill="#1a1a1a"/>
    <path id="Trazado_606920" data-name="Trazado 606920" d="M53.047,73.688a10.367,10.367,0,0,1,3.982-1.08,12.994,12.994,0,0,1-3.94,1.077c-.015,0-.028,0-.042,0" transform="translate(2.405 3.292)" fill="#1a1a1a"/>
    <path id="Trazado_606921" data-name="Trazado 606921" d="M20.468,51.773c6.7-5.131,14.852-8.812,24.078-11.4q.478-.135.955-.263a.993.993,0,0,1-.82.745A81.695,81.695,0,0,0,20.608,51.728a.238.238,0,0,1-.14.045" transform="translate(0.928 1.818)" fill="#1a1a1a"/>
    <path id="Trazado_606922" data-name="Trazado 606922" d="M51.75,38.994A16.736,16.736,0,0,1,57.09,37.7a25.869,25.869,0,0,1-5.3,1.289.327.327,0,0,1-.044,0" transform="translate(2.346 1.709)" fill="#1a1a1a"/>
    <path id="Trazado_606923" data-name="Trazado 606923" d="M80.75,88.387c-.251-.257.009-9.805.009-9.805,1.018-.841,1.894-1.495,2.733-2.158l.158-35.955c.349-.228,2.029.5,2.58.762,5.295,2.481,8.78,6.238,10.078,10.866,2.155,7.678-2.441,16.718-12.366,24.608-.926.735-1.786,1.38-2.687,2.015L81,88.145a.249.249,0,0,1-.249.243m3.4-47.536-.154,35.173c9.512-7.69,13.9-16.408,11.832-23.791-1.258-4.485-4.65-8.133-9.811-10.549-.39-.183-1.347-.605-1.868-.833" transform="translate(3.656 1.833)" fill="#1a1a1a"/>
    <path id="Trazado_606924" data-name="Trazado 606924" d="M80.03,113.989c-.25-.258.5-27.928.5-27.928.5.014-.25,27.685-.25,27.685a.248.248,0,0,1-.249.244" transform="translate(3.626 3.902)" fill="#1a1a1a"/>
    <path id="Trazado_606925" data-name="Trazado 606925" d="M80.028,114.207c9.86-7.233,15.854-15.332,16.305-22.68.014-.316.01-10.267.01-10.267.5,0,.5,9.962.5,9.962-.476,7.839-6.549,16.078-16.677,22.941a.255.255,0,0,1-.141.044" transform="translate(3.628 3.684)" fill="#1a1a1a"/>
    <path id="Trazado_606926" data-name="Trazado 606926" d="M95.884,76.918c-.25-.25-.258-22.467-.258-22.467.5,0,.507,22.218.507,22.218a.25.25,0,0,1-.249.25" transform="translate(4.336 2.469)" fill="#1a1a1a"/>
    <path id="Trazado_606927" data-name="Trazado 606927" d="M56.892,123.6c-.249-.254-.147-8.217-.147-8.217.5.007.4,7.971.4,7.971a.25.25,0,0,1-.25.247" transform="translate(2.572 5.231)" fill="#1a1a1a"/>
    <path id="Trazado_606928" data-name="Trazado 606928" d="M57.147,103.863c-.25-.253-.05-15.929-.05-15.929.5.007.3,15.681.3,15.681a.248.248,0,0,1-.249.248" transform="translate(2.585 3.987)" fill="#1a1a1a"/>
    <path id="Trazado_606929" data-name="Trazado 606929" d="M35.769,91.632c-8.132,0-15.48-1.36-21.086-4.063,10.751,4.629,27.547,4.91,44.047.278l.466-.133a.478.478,0,0,1-.329.614,86.537,86.537,0,0,1-23.1,3.3" transform="translate(0.666 3.97)" fill="#1a1a1a"/>
    <path id="Trazado_606930" data-name="Trazado 606930" d="M8.312,83.2a14.019,14.019,0,0,1-3.468-5.966,14.329,14.329,0,0,1-.524-3.807A32.589,32.589,0,0,1,5.327,77.1,14.317,14.317,0,0,0,8.5,82.781c-.067.4-.128.417-.186.417" transform="translate(0.196 3.329)" fill="#1a1a1a"/>
    <path id="Trazado_606931" data-name="Trazado 606931" d="M35.229,101.6a63.923,63.923,0,0,1-8.594-.559,108.869,108.869,0,0,0,17.745-.5,33.444,33.444,0,0,1-9.151,1.056" transform="translate(1.208 4.559)" fill="#1a1a1a"/>
    <path id="Trazado_606932" data-name="Trazado 606932" d="M35.249,105.687a63.519,63.519,0,0,1-9.052-.625,105.125,105.125,0,0,0,18.2-.433,33.371,33.371,0,0,1-9.151,1.058" transform="translate(1.188 4.744)" fill="#1a1a1a"/>
    <path id="Trazado_606933" data-name="Trazado 606933" d="M36.257,128.316a60,60,0,0,1-12.471-1.233C13.458,124.877,6.731,119.96,4.844,113.24a14.223,14.223,0,0,1-.518-3.438l-.005-.512V84.768c.5,0,.5,25.023.5,25.023a13.735,13.735,0,0,0,.5,3.313c1.834,6.534,8.425,11.324,18.564,13.488,10.2,2.177,22.736,1.431,35.309-2.1a70.183,70.183,0,0,1-22.943,3.82" transform="translate(0.196 3.843)" fill="#1a1a1a"/>
    <path id="Trazado_606934" data-name="Trazado 606934" d="M4.57,85.513c-.249-.25-.249-11.658-.249-11.658.5,0,.5,11.408.5,11.408a.25.25,0,0,1-.25.25" transform="translate(0.196 3.348)" fill="#1a1a1a"/>
    <path id="Trazado_606935" data-name="Trazado 606935" d="M20.479,87.884c-.25-.251-.25-36.857-.25-36.857.5,0,.5,36.606.5,36.606a.251.251,0,0,1-.249.251" transform="translate(0.917 2.313)" fill="#1a1a1a"/>
    <path id="Trazado_606936" data-name="Trazado 606936" d="M56.9,74.678c-.249-.251-.249-36.739-.249-36.739.5,0,.5,36.489.5,36.489a.251.251,0,0,1-.25.251" transform="translate(2.568 1.72)" fill="#1a1a1a"/>
    <path id="Trazado_606937" data-name="Trazado 606937" d="M84.417,91.175c1.916-2.055,4.94-4.606,7.6-7.627a34.686,34.686,0,0,1-7.443,7.575.241.241,0,0,1-.153.052" transform="translate(3.827 3.788)" fill="#1a1a1a"/>
    <path id="Trazado_606938" data-name="Trazado 606938" d="M65.052,120.711c8.912-.5,13.814-17.307,15.955-27.388-1.682,10.336-6.693,27.388-15.955,27.388" transform="translate(2.949 4.231)" fill="#1a1a1a"/>
    <path id="Trazado_606939" data-name="Trazado 606939" d="M62.571,94.715c-.227-.356,5.557-12.848,5.557-12.848.455.211-5.329,12.7-5.329,12.7a.252.252,0,0,1-.228.145" transform="translate(2.837 3.712)" fill="#1a1a1a"/>
    <path id="Trazado_606940" data-name="Trazado 606940" d="M78.122,87.481a18.089,18.089,0,0,0,2.544-3.232,4.548,4.548,0,0,1-2.416,3.2.258.258,0,0,1-.129.035" transform="translate(3.542 3.82)" fill="#1a1a1a"/>
    <path id="Trazado_606941" data-name="Trazado 606941" d="M45.248,105.282c.135-.512,15.645-1.828,22.252-5.474-6.461,4.136-22.075,5.461-22.233,5.473h-.019" transform="translate(2.051 4.525)" fill="#1a1a1a"/>
    <path id="Trazado_606942" data-name="Trazado 606942" d="M45.248,117.4c.135-.512,15.645-1.828,22.252-5.475-6.461,4.137-22.075,5.462-22.233,5.474h-.019" transform="translate(2.051 5.074)" fill="#1a1a1a"/>
    <path id="Trazado_606943" data-name="Trazado 606943" d="M45.259,117.76c-.251-.251-.251-12.954-.251-12.954.5,0,.5,12.7.5,12.7a.25.25,0,0,1-.249.251" transform="translate(2.041 4.752)" fill="#1a1a1a"/>
    <path id="Trazado_606944" data-name="Trazado 606944" d="M66.661,112.953c-.249-.25-.249-12.953-.249-12.953.5,0,.5,12.7.5,12.7a.25.25,0,0,1-.25.25" transform="translate(3.011 4.534)" fill="#1a1a1a"/>
    <path id="Trazado_606945" data-name="Trazado 606945" d="M191.949,55.186c-.394-.483-1.877-3.519-1.826-4.341.013-.2.353-5.021,4.619-6.55a8.237,8.237,0,0,1,7.039.752c.714-.212,4.343-1.122,5.74,1.989a12.2,12.2,0,0,1,.392,7.376c-.472-.172.567-4.024-.847-7.171-1.357-3.018-5.08-1.739-5.241-1.683a8.531,8.531,0,0,0-6.913-.789c-3.96,1.415-4.279,5.916-4.291,6.108a17.456,17.456,0,0,0,1.551,3.95c-.148.352-.186.36-.224.36" transform="translate(8.62 1.987)" fill="#1a1a1a"/>
    <path id="Trazado_606946" data-name="Trazado 606946" d="M14.536,78.52c-.249-.25-.249-11.193-.249-11.193a41.483,41.483,0,0,1,6.24-3.186c.151.479-3.835,2.137-5.741,3.323V77.822a58.447,58.447,0,0,1,5.741-2.739c.151.48-4,2.206-5.855,3.4a.257.257,0,0,1-.136.04" transform="translate(0.648 2.908)" fill="#1a1a1a"/>
    <path id="Trazado_606947" data-name="Trazado 606947" d="M71.728,53.018c-.25-.249-.25-9.514-.25-9.514,8.917.191,12.677,2.534,12.833,2.632-.305.4-4.014-1.9-12.334-2.368v9a.248.248,0,0,1-.249.249" transform="translate(3.241 1.972)" fill="#1a1a1a"/>
    <path id="Trazado_606948" data-name="Trazado 606948" d="M84.166,55.449C84,55.386,80.208,53.038,71.705,52.6c8.679-.057,12.44,2.284,12.6,2.384.029.419-.052.461-.134.461" transform="translate(3.251 2.385)" fill="#1a1a1a"/>
    <path id="Trazado_606949" data-name="Trazado 606949" d="M195.66,59.606a2.532,2.532,0,0,1-1.4-.354,1.407,1.407,0,0,1-.607-.964,2.346,2.346,0,0,1,.572-1.7,6.524,6.524,0,0,0,1.017-1.63,2.285,2.285,0,0,0-.215-2.145c.433-.258,1.261.844.679,2.326a6.822,6.822,0,0,1-1.09,1.76,1.847,1.847,0,0,0-.467,1.321.889.889,0,0,0,.4.625,2.081,2.081,0,0,0,1.118.263c.239.393.129.5-.007.5" transform="translate(8.779 2.393)" fill="#1a1a1a"/>
    <path id="Trazado_606950" data-name="Trazado 606950" d="M117.859,49.183A23.355,23.355,0,0,1,95.225,31.1a23.868,23.868,0,0,0,22.634,17.584A22.7,22.7,0,1,0,98.411,14.273,21.586,21.586,0,0,1,117.859,2.787a23.2,23.2,0,0,1,0,46.4" transform="translate(4.317 0.126)" fill="#627289"/>
    <path id="Trazado_606951" data-name="Trazado 606951" d="M36.367,40.692c-.254-.234-.515-1.3-.606-3.092.589,1.713.847,2.771.85,2.783-.2.307-.223.309-.244.309m-.328-5.733a9,9,0,0,1,.114-3.152,7.519,7.519,0,0,1,.136,2.919.25.25,0,0,1-.25.233M37.076,29.3c-.2-.049-.28-.19-.239-.322a26.724,26.724,0,0,1,.988-2.731,7.469,7.469,0,0,1-.509,2.876.25.25,0,0,1-.239.178m2.242-5.289a7.222,7.222,0,0,1,1.318-2.833,7.352,7.352,0,0,1-1.1,2.705.248.248,0,0,1-.218.128M42.6,19.3a6.768,6.768,0,0,1,1.78-2.538,7.12,7.12,0,0,1-1.59,2.45.25.25,0,0,1-.19.088m4.083-4.049A6.475,6.475,0,0,1,48.8,13.022a6.875,6.875,0,0,1-1.96,2.166.253.253,0,0,1-.162.06m4.645-3.386A6.257,6.257,0,0,1,53.68,9.928a6.641,6.641,0,0,1-2.22,1.894.246.246,0,0,1-.134.04m46.155-.326c-.891-.558-1.708-1.068-2.568-1.56a5.183,5.183,0,0,1,2.71,1.1c.017.419-.062.457-.141.457M56.356,9.071a6.062,6.062,0,0,1,2.532-1.662,6.615,6.615,0,0,1-2.422,1.637.252.252,0,0,1-.11.025m36.128-.4c-.959-.435-1.842-.822-2.729-1.174a5.179,5.179,0,0,1,2.837.7c.073.423-.015.477-.108.477m-30.808-1.8a5.759,5.759,0,0,1,2.691-1.333,6.663,6.663,0,0,1-2.61,1.319.214.214,0,0,1-.08.014m25.46-.327c-.982-.3-1.908-.562-2.831-.788a5.179,5.179,0,0,1,2.907.3c.126.42.029.488-.076.488M67.231,5.377a5.423,5.423,0,0,1,2.812-.954,6.816,6.816,0,0,1-2.765.949.24.24,0,0,1-.047.005m14.315-.2c-.975-.164-1.929-.29-2.878-.382a5.153,5.153,0,0,1,2.92-.116c.183.411.078.5-.042.5m-8.6-.509a5.221,5.221,0,0,1,2.883-.541,6.761,6.761,0,0,1-2.87.54h-.013" transform="translate(1.621 0.187)" fill="#1a1a1a"/>
    <path id="Trazado_606952" data-name="Trazado 606952" d="M226.6,73.018c-.2-.407.353-1.149,1.113-2.468a6.392,6.392,0,0,1-.913,2.368.249.249,0,0,1-.2.1m2.672-4.644a12.89,12.89,0,0,1,.915-2.983,5.15,5.15,0,0,1-.689,2.841.251.251,0,0,1-.226.142m2.1-5.36c-.2-.052-.279-.191-.238-.324.283-.915.533-1.844.741-2.762a5.079,5.079,0,0,1-.263,2.91.249.249,0,0,1-.239.176m1.277-5.61a18.935,18.935,0,0,1,.045-3.129,5.023,5.023,0,0,1,.2,2.913.25.25,0,0,1-.247.215m.35-5.742a24.428,24.428,0,0,1-.442-3.094,5.039,5.039,0,0,1,.691,2.838c-.247.256-.249.256-.249.256m-.637-5.714c-.435-1.13-.667-2.063-.932-2.974a5.03,5.03,0,0,1,1.176,2.673c-.212.3-.227.3-.244.3m-48.5-4.569a3.114,3.114,0,0,1-1.783-.585,5.431,5.431,0,0,0,2.78-.118.911.911,0,0,1-1,.7m46.877-.95c-.569-1.027-.953-1.908-1.377-2.777a5.093,5.093,0,0,1,1.61,2.437c-.171.336-.2.341-.233.341m-43.59-1.083a27.794,27.794,0,0,1,1.254-2.811,3.987,3.987,0,0,1-1.06,2.718.252.252,0,0,1-.194.093m-6.7-.739a7.4,7.4,0,0,1-1.071-2.961,14.581,14.581,0,0,1,1.3,2.6c-.154.35-.19.358-.226.358m47.781-3.353c-.682-.925-1.2-1.737-1.744-2.542a5.229,5.229,0,0,1,1.96,2.167c-.13.365-.174.375-.216.375m-38.717-1.1c-.052-1.206.063-2.152.1-3.114a4.433,4.433,0,0,1,.146,2.914.253.253,0,0,1-.245.2m-9.974-1.167a6.456,6.456,0,0,1,.374-3.139,11.389,11.389,0,0,1-.125,2.912.249.249,0,0,1-.249.227m45.444-2.478c-.8-.845-1.429-1.569-2.074-2.245a5.007,5.007,0,0,1,2.269,1.838c-.085.39-.141.408-.2.408M189.73,28.421c-.357-1.143-.54-2.082-.784-3.011a4.648,4.648,0,0,1,1.032,2.729c-.227.28-.238.281-.248.281m-8.265-.79a4.949,4.949,0,0,1,1.816-2.53,13.048,13.048,0,0,1-1.613,2.424.246.246,0,0,1-.2.106M221,26.352c-.885-.688-1.64-1.279-2.411-1.819a4.88,4.88,0,0,1,2.576,1.379c-.026.41-.1.44-.165.44M185.88,24.037a4.5,4.5,0,0,1,2.081-1.508,23.95,23.95,0,0,0-1.16-2.376,4.273,4.273,0,0,1,1.62,2.181,7.117,7.117,0,0,1-2.427,1.678.243.243,0,0,1-.114.026m30.418-.983c-.946-.488-1.808-.905-2.689-1.27a4.839,4.839,0,0,1,2.809.8c.053.422-.032.469-.12.469M191.181,21.8a5.678,5.678,0,0,1,2.692-1.329,6.728,6.728,0,0,1-2.61,1.314.249.249,0,0,1-.082.015m19.81-.95c-.967-.273-1.9-.492-2.844-.662a4.893,4.893,0,0,1,2.913.17c.14.42.04.491-.069.491m-14.25-.52a5.34,5.34,0,0,1,2.821-.913,6.879,6.879,0,0,1-2.775.908.341.341,0,0,1-.046,0m8.6-.5c-.956-.074-1.929-.1-2.873-.086a5,5,0,0,1,2.891-.414c.221.4.111.5-.019.5m-19.862-1.975c-.746-.864-1.344-1.614-1.98-2.333a4.929,4.929,0,0,1,2.184,1.938c-.1.381-.153.4-.2.4m-3.807-4.307c-.852-.7-1.584-1.325-2.344-1.916a5.025,5.025,0,0,1,2.513,1.482c-.036.407-.1.434-.169.434m-4.533-3.537c-.916-.551-1.738-1.047-2.585-1.517a5.19,5.19,0,0,1,2.722,1.057c.024.42-.056.46-.137.46M141.749,7.343c-.112-.479.766-1.117,2.406-1.886-1.381,1.2-2.25,1.83-2.258,1.838a.261.261,0,0,1-.148.048m30.359-.126c-.975-.434-1.861-.815-2.735-1.161a5.191,5.191,0,0,1,2.841.684c.076.423-.014.478-.107.478m-5.354-2.109c-.992-.3-1.919-.557-2.832-.775a5.1,5.1,0,0,1,2.907.286c.13.421.03.488-.075.488M146.936,4.87a5.284,5.284,0,0,1,2.719-1.262,7.417,7.417,0,0,1-2.638,1.249.28.28,0,0,1-.08.013m14.22-1.082c-.985-.148-1.94-.253-2.877-.316a5,5,0,0,1,2.913-.181c.192.408.085.5-.037.5m-8.608-.169a5.073,5.073,0,0,1,2.865-.707,7.221,7.221,0,0,1-2.835.7l-.03,0" transform="translate(6.426 0.132)" fill="#1a1a1a"/>
    <path id="Trazado_606953" data-name="Trazado 606953" d="M201.288,45.261c-.2-.045-.277-.181-.243-.314a2.032,2.032,0,0,0-.9-1.919c1.7.8,1.4,2,1.385,2.047a.25.25,0,0,1-.241.186" transform="translate(9.074 1.951)" fill="#1a1a1a"/>
    <path id="Trazado_606954" data-name="Trazado 606954" d="M201.83,45.419a1.913,1.913,0,0,1,.306-1.9c0,.843-.056,1.657-.056,1.664a.25.25,0,0,1-.25.234" transform="translate(9.144 1.973)" fill="#1a1a1a"/>
    <path id="Trazado_606955" data-name="Trazado 606955" d="M214.929,123.593c-.1-.02-22.308-9.55-22.308-9.55-.132-.328,3.129-7.927,3.129-7.927.459.2-2.7,7.565-2.7,7.565l21.749,9.334.2-.465c.458.2.159.893.159.893a.25.25,0,0,1-.229.151" transform="translate(8.733 4.811)" fill="#1a1a1a"/>
    <path id="Trazado_606956" data-name="Trazado 606956" d="M221.812,107.889c-.228-.349,6.185-15.3,6.185-15.3l-21.75-9.334-6.779,15.8c-.458-.2,6.419-16.223,6.419-16.223.327-.132,22.538,9.4,22.538,9.4.131.329-6.384,15.511-6.384,15.511a.25.25,0,0,1-.229.152" transform="translate(9.043 3.755)" fill="#1a1a1a"/>
    <path id="Trazado_606957" data-name="Trazado 606957" d="M222.816,134.964c.008-3.808-.249-9.392-.25-9.449.5.035.759,5.647.5,9.217a.25.25,0,0,1-.249.232" transform="translate(10.091 5.691)" fill="#1a1a1a"/>
    <path id="Trazado_606958" data-name="Trazado 606958" d="M127.381,123.488h-8.239c-.24-.184-3.245-11.005-3.245-11.005.241-.317,11.811-.317,11.811-.317.241.183,2.327,7.693,2.327,7.693-.482.134-2.516-7.192-2.516-7.192H116.468l2.864,10.321h8.049c.249.388.138.5,0,.5" transform="translate(5.255 5.085)" fill="#1a1a1a"/>
    <path id="Trazado_606959" data-name="Trazado 606959" d="M23.55,98.459v8.28s-5.262.062-8.761-2.845V95.32s2.5,2.445,8.761,3.139" transform="translate(0.671 4.322)" fill="#1a1a1a"/>
    <path id="Trazado_606960" data-name="Trazado 606960" d="M84.59,95.859a60.091,60.091,0,0,1,4.586-4.268,17.569,17.569,0,0,1-4.437,4.22.254.254,0,0,1-.148.048" transform="translate(3.835 4.153)" fill="#1a1a1a"/>
    <path id="Trazado_606961" data-name="Trazado 606961" d="M152.24,116.919c-1.037-3.511-4.388-5.74-8.587-5.74-3.761,0-7.146,2.139-8.234,5.2.7-3.477,4.2-5.7,8.234-5.7,4.434,0,7.983,2.384,8.83,5.931-.2.306-.224.309-.243.309" transform="translate(6.14 5.018)" fill="#1a1a1a"/>
    <path id="Trazado_606962" data-name="Trazado 606962" d="M96.1,8.883a1.083,1.083,0,0,1,1.167-.689c1,.026,2,0,3.007.008a2.192,2.192,0,0,1,2.311,1.784c.315,1.169.634,2.338.937,3.509a.314.314,0,0,0,.363.286q6.615.017,13.232.05,3.939.017,7.879.039a1.8,1.8,0,0,1,1.839,2.268q-1.07,4.745-2.187,9.48a2.211,2.211,0,0,1-2.193,1.719c-.4.01-.8,0-1.2,0l-15.94-.009a4.014,4.014,0,0,0-.42.014,1,1,0,0,0,.009,1.994c.14.014.28.011.421.011h17.623c.714,0,1.14.41,1.068,1.027a.931.931,0,0,1-.566.733,3.157,3.157,0,0,1-1.16,4.049,3.091,3.091,0,0,1-3.532-.073c-1.208-.87-1.545-2.085-1.071-3.908h-5.616a3.122,3.122,0,0,1-1.175,3.966,2.9,2.9,0,0,1-3.447,0,3.142,3.142,0,0,1-1.163-3.986c-.432,0-.839.006-1.245,0a2.815,2.815,0,0,1-.384-5.608c.068-.008.136-.017.24-.031-.168-.63-.331-1.246-.5-1.861l-3.554-13.189c-.107-.4-.177-.452-.582-.453-1,0-2.005-.014-3.007.005A1.07,1.07,0,0,1,96.1,9.3ZM108.69,19.7c-.015-.167-.019-.286-.035-.4-.151-1.129-.313-2.259-.45-3.39-.028-.229-.095-.3-.324-.3-1.171,0-2.343-.009-3.514-.014-.084,0-.168.016-.267.025.353,1.316.7,2.6,1.039,3.882.046.173.138.207.3.205.53-.009,1.06,0,1.591,0h1.662m7.1-.041c.037.016.055.032.072.032,1.061,0,2.122.009,3.183,0,.068,0,.184-.135.2-.22.131-.9.248-1.8.365-2.706.047-.362.089-.724.135-1.11h-3.952Zm-1.847.026V15.635h-3.961c.183,1.365.363,2.708.543,4.046Zm7.1,0h3.123c.308-1.332.613-2.653.928-4.018-1.147,0-2.257,0-3.368.01-.064,0-.167.145-.18.232-.107.7-.2,1.408-.291,2.112-.072.544-.138,1.089-.211,1.664m-11.584,5.846c-.009-.131-.009-.239-.024-.345-.152-1.14-.313-2.278-.456-3.419-.025-.2-.088-.268-.292-.266-.74.01-1.481,0-2.222,0h-.736c-.009.056-.018.078-.013.1.32,1.2.631,2.4.975,3.585a.568.568,0,0,0,.406.33c.777.032,1.555.015,2.362.015m9.511-4.006H115.8v4.015c.841,0,1.661,0,2.48,0,.173,0,.185-.1.2-.228.091-.714.192-1.428.286-2.142.071-.543.137-1.085.208-1.648m-5.021,4v-4h-3.183c.18,1.347.357,2.671.534,4Zm6.321.013c.758,0,1.469.006,2.178,0a.472.472,0,0,0,.469-.426c.121-.537.245-1.072.368-1.608q.224-.977.449-1.954a.493.493,0,0,0-.113-.036c-.881,0-1.762,0-2.643-.008-.192,0-.2.119-.215.252-.077.586-.156,1.17-.232,1.755-.086.664-.171,1.327-.261,2.027m-11.1,8.329a1.354,1.354,0,0,0,1.354-1.357,1.372,1.372,0,0,0-1.344-1.347,1.357,1.357,0,0,0-1.362,1.352,1.337,1.337,0,0,0,1.352,1.352m11.4,0a1.343,1.343,0,0,0,1.356-1.351,1.351,1.351,0,0,0-2.7-.009,1.341,1.341,0,0,0,1.346,1.36" transform="translate(9.111 4.993)" fill="#627289"/>
  </g>
</svg>
