<svg xmlns="http://www.w3.org/2000/svg" xmlns:xlink="http://www.w3.org/1999/xlink" width="505" height="639" viewBox="0 0 505 639">
  <defs>
    <clipPath id="clip-path">
      <rect id="Rectángulo_347325" data-name="Rectángulo 347325" width="118.963" height="115.113" fill="none"/>
    </clipPath>
  </defs>
  <g id="Grupo_1016801" data-name="Grupo 1016801" transform="translate(2271 7192)">
    <path id="Trazado_608903" data-name="Trazado 608903" d="M0,0H505V639H0Z" transform="translate(-2271 -7192)" fill="#fff"/>
    <path id="Trazado_608904" data-name="Trazado 608904" d="M0,140V0H229.806V57.084l11.525,11.924L229.806,81.277V140Z" transform="translate(-2259.88 -7180.999)" fill="#e3ecf7"/>
    <path id="Trazado_608912" data-name="Trazado 608912" d="M0,134.081V0H229.806V54.672l11.525,11.42L229.806,77.842v56.239Z" transform="translate(-2259.88 -6862.999)" fill="#e3ecf7"/>
    <path id="Trazado_608907" data-name="Trazado 608907" d="M0,0V140H229.806V82.914L241.331,70.99,229.806,58.721V0Z" transform="translate(-1774.669 -6885.898) rotate(180)" fill="#e3ecf7"/>
    <path id="Trazado_608916" data-name="Trazado 608916" d="M0,0V140H229.806V82.914L241.331,70.99,229.806,58.721V0Z" transform="translate(-1774.719 -6566) rotate(180)" fill="#e3ecf7"/>
    <path id="Trazado_608908" data-name="Trazado 608908" d="M100.261,133.721H0V0H229.281V133.721H128.957L114.813,149.1Z" transform="translate(-2003.999 -7181)" fill="#e0fcfb"/>
    <path id="Trazado_608913" data-name="Trazado 608913" d="M100.261,133.721H0V0H229.281V133.721H128.957L114.813,149.1Z" transform="translate(-2004 -6862.999)" fill="#e0fcfb"/>
    <path id="Trazado_608906" data-name="Trazado 608906" d="M0,156.806V16.176H102.061L114.814,2l12.4,14.176H229.282v140.63Z" transform="translate(-2030.718 -6869.091) rotate(180)" fill="#e0fcfb"/>
    <path id="Trazado_608917" data-name="Trazado 608917" d="M0,15.381H229.282v140H0Z" transform="translate(-2030.718 -6550.62) rotate(180)" fill="#e0fcfb"/>
    <path id="Trazado_608675" data-name="Trazado 608675" d="M-1228-7297.039l12.1,12.071-12.1,12.646" transform="translate(-802.647 173.539)" fill="none" stroke="#6b82a1" stroke-linecap="round" stroke-width="2"/>
    <path id="Trazado_608705" data-name="Trazado 608705" d="M-1228-7297.039l12.1,12.071-12.1,12.646" transform="translate(-802.647 486.539)" fill="none" stroke="#6b82a1" stroke-linecap="round" stroke-width="2"/>
    <path id="Trazado_608702" data-name="Trazado 608702" d="M-1215.9-7297.039l-12.1,12.071,12.1,12.646" transform="translate(-788.05 328.641)" fill="none" stroke="#6b82a1" stroke-linecap="round" stroke-width="2"/>
    <path id="Trazado_608710" data-name="Trazado 608710" d="M-1215.9-7297.039l-12.1,12.071,12.1,12.646" transform="translate(-788.05 648.538)" fill="none" stroke="#6b82a1" stroke-linecap="round" stroke-width="2"/>
    <path id="Trazado_608666" data-name="Trazado 608666" d="M-1228-7297.038l15.022,14.1L-1228-7268.174" transform="translate(-9171.965 -5818.918) rotate(90)" fill="none" stroke="#646d78" stroke-linecap="round" stroke-width="2"/>
    <path id="Trazado_608708" data-name="Trazado 608708" d="M-1228-7297.038l15.022,14.1L-1228-7268.174" transform="translate(-9171.965 -5500.918) rotate(90)" fill="none" stroke="#646d78" stroke-linecap="round" stroke-width="2"/>
    <path id="Trazado_608704" data-name="Trazado 608704" d="M0,28.864l15.022-14.1L0,0" transform="translate(-2130.808 -6886.113) rotate(90)" fill="none" stroke="#646d78" stroke-linecap="round" stroke-width="2"/>
    <path id="Trazado_608905" data-name="Trazado 608905" d="M45.5,0A45.5,45.5,0,1,1,0,45.5,45.5,45.5,0,0,1,45.5,0Z" transform="translate(-2241 -7174)" fill="#fff"/>
    <g id="Grupo_1016794" data-name="Grupo 1016794" transform="translate(-2222.082 -7155.584)">
      <circle id="Elipse_4752" data-name="Elipse 4752" cx="2" cy="2" r="2" transform="translate(0.082 -0.415)" fill="#33ece0"/>
      <circle id="Elipse_4757" data-name="Elipse 4757" cx="2" cy="2" r="2" transform="translate(0.082 6.585)" fill="#33ece0"/>
      <circle id="Elipse_4760" data-name="Elipse 4760" cx="2" cy="2" r="2" transform="translate(0.082 12.585)" fill="#33ece0"/>
      <circle id="Elipse_4753" data-name="Elipse 4753" cx="2" cy="2" r="2" transform="translate(6.082 -0.415)" fill="#33ece0"/>
      <circle id="Elipse_4756" data-name="Elipse 4756" cx="2" cy="2" r="2" transform="translate(6.082 6.585)" fill="#33ece0"/>
      <circle id="Elipse_4759" data-name="Elipse 4759" cx="2" cy="2" r="2" transform="translate(6.082 12.585)" fill="#33ece0"/>
      <circle id="Elipse_4754" data-name="Elipse 4754" cx="2" cy="2" r="2" transform="translate(13.082 -0.415)" fill="#33ece0"/>
      <circle id="Elipse_4755" data-name="Elipse 4755" cx="2" cy="2" r="2" transform="translate(13.082 6.585)" fill="#33ece0"/>
      <circle id="Elipse_4758" data-name="Elipse 4758" cx="2" cy="2" r="2" transform="translate(13.082 12.585)" fill="#33ece0"/>
    </g>
    <path id="Trazado_608909" data-name="Trazado 608909" d="M42.014,12.887a1.459,1.459,0,0,0-.56-1.229,6.741,6.741,0,0,0-2.021-.872,9.76,9.76,0,0,1-2.324-.979A3.1,3.1,0,0,1,35.456,7.1a2.945,2.945,0,0,1,1.191-2.407,4.821,4.821,0,0,1,3.092-.946,5.223,5.223,0,0,1,2.25.465,3.692,3.692,0,0,1,1.552,1.324,3.4,3.4,0,0,1,.564,1.905H42.014A1.894,1.894,0,0,0,41.42,5.96a2.45,2.45,0,0,0-1.7-.535,2.558,2.558,0,0,0-1.6.44,1.465,1.465,0,0,0-.569,1.229A1.325,1.325,0,0,0,38.17,8.2a7.076,7.076,0,0,0,2.025.863,9.317,9.317,0,0,1,2.266.955,3.6,3.6,0,0,1,1.253,1.229,3.2,3.2,0,0,1,.4,1.623,2.876,2.876,0,0,1-1.158,2.4,5.023,5.023,0,0,1-3.142.892A5.9,5.9,0,0,1,37.4,15.68a4.051,4.051,0,0,1-1.71-1.341,3.341,3.341,0,0,1-.61-1.992h2.1a1.955,1.955,0,0,0,.681,1.594,2.981,2.981,0,0,0,1.951.564,2.59,2.59,0,0,0,1.648-.444A1.433,1.433,0,0,0,42.014,12.887Zm7.7,3.279a4.173,4.173,0,0,1-3.109-1.208,4.381,4.381,0,0,1-1.191-3.217v-.249a5.389,5.389,0,0,1,.519-2.4,3.949,3.949,0,0,1,1.457-1.648,3.851,3.851,0,0,1,2.092-.589,3.525,3.525,0,0,1,2.835,1.17,4.949,4.949,0,0,1,1,3.312v.813H47.451a2.7,2.7,0,0,0,.743,1.76,2.23,2.23,0,0,0,1.639.647,2.731,2.731,0,0,0,2.258-1.121l1.087,1.038a3.631,3.631,0,0,1-1.44,1.249A4.509,4.509,0,0,1,49.717,16.166Zm-.241-7.695a1.7,1.7,0,0,0-1.341.581,3.012,3.012,0,0,0-.652,1.619h3.843v-.149a2.452,2.452,0,0,0-.54-1.531A1.686,1.686,0,0,0,49.476,8.471ZM57.03,16H55.013V3.25H57.03Zm6.151.166a4.173,4.173,0,0,1-3.109-1.208,4.381,4.381,0,0,1-1.191-3.217v-.249a5.389,5.389,0,0,1,.519-2.4,3.949,3.949,0,0,1,1.457-1.648,3.851,3.851,0,0,1,2.092-.589,3.525,3.525,0,0,1,2.835,1.17,4.949,4.949,0,0,1,1,3.312v.813H60.915a2.7,2.7,0,0,0,.743,1.76,2.23,2.23,0,0,0,1.639.647,2.731,2.731,0,0,0,2.258-1.121l1.087,1.038a3.631,3.631,0,0,1-1.44,1.249A4.509,4.509,0,0,1,63.181,16.166ZM62.94,8.471a1.7,1.7,0,0,0-1.341.581,3.012,3.012,0,0,0-.652,1.619h3.843v-.149a2.452,2.452,0,0,0-.54-1.531A1.686,1.686,0,0,0,62.94,8.471Zm9.1,6.084a1.824,1.824,0,0,0,1.253-.44,1.5,1.5,0,0,0,.531-1.087h1.9a2.963,2.963,0,0,1-.523,1.565,3.43,3.43,0,0,1-1.328,1.15,3.958,3.958,0,0,1-1.81.423,3.829,3.829,0,0,1-2.988-1.22,4.84,4.84,0,0,1-1.1-3.37v-.208a4.759,4.759,0,0,1,1.1-3.283,3.8,3.8,0,0,1,2.988-1.233,3.69,3.69,0,0,1,2.611.934,3.345,3.345,0,0,1,1.058,2.453h-1.9a1.847,1.847,0,0,0-.527-1.27,1.7,1.7,0,0,0-1.258-.5,1.775,1.775,0,0,0-1.511.71,3.621,3.621,0,0,0-.54,2.154v.324a3.681,3.681,0,0,0,.527,2.179A1.773,1.773,0,0,0,72.038,14.556Zm8.9,0a1.824,1.824,0,0,0,1.253-.44,1.5,1.5,0,0,0,.531-1.087h1.9a2.963,2.963,0,0,1-.523,1.565,3.43,3.43,0,0,1-1.328,1.15,3.958,3.958,0,0,1-1.81.423,3.829,3.829,0,0,1-2.988-1.22,4.84,4.84,0,0,1-1.1-3.37v-.208a4.759,4.759,0,0,1,1.1-3.283,3.8,3.8,0,0,1,2.988-1.233,3.69,3.69,0,0,1,2.611.934,3.345,3.345,0,0,1,1.058,2.453h-1.9a1.847,1.847,0,0,0-.527-1.27,1.7,1.7,0,0,0-1.258-.5,1.775,1.775,0,0,0-1.511.71,3.621,3.621,0,0,0-.54,2.154v.324a3.681,3.681,0,0,0,.527,2.179A1.773,1.773,0,0,0,80.936,14.556ZM88.291,16H86.273V7.019h2.017ZM86.149,4.686a1.071,1.071,0,0,1,.295-.772,1.113,1.113,0,0,1,.843-.307,1.127,1.127,0,0,1,.847.307,1.062,1.062,0,0,1,.3.772,1.038,1.038,0,0,1-.3.76,1.136,1.136,0,0,1-.847.3,1.122,1.122,0,0,1-.843-.3A1.046,1.046,0,0,1,86.149,4.686Zm3.959,6.74a5.3,5.3,0,0,1,.523-2.378A3.819,3.819,0,0,1,92.1,7.421a4.14,4.14,0,0,1,2.175-.569,3.923,3.923,0,0,1,2.951,1.17,4.6,4.6,0,0,1,1.224,3.1l.008.473a5.343,5.343,0,0,1-.51,2.374,3.773,3.773,0,0,1-1.461,1.619,4.17,4.17,0,0,1-2.2.573A3.9,3.9,0,0,1,91.25,14.9a4.848,4.848,0,0,1-1.141-3.374Zm2.017.174a3.619,3.619,0,0,0,.573,2.171,1.862,1.862,0,0,0,1.594.784,1.842,1.842,0,0,0,1.59-.8,4,4,0,0,0,.569-2.333,3.572,3.572,0,0,0-.585-2.158,1.973,1.973,0,0,0-3.158-.012A3.922,3.922,0,0,0,92.125,11.6Zm9.911-4.582.058,1.038a3.229,3.229,0,0,1,2.615-1.2q2.806,0,2.855,3.212V16h-2.017V10.181a1.85,1.85,0,0,0-.369-1.266,1.554,1.554,0,0,0-1.208-.411,1.944,1.944,0,0,0-1.818,1.1V16h-2.017V7.019ZM114.986,16a3.113,3.113,0,0,1-.232-.838,3.393,3.393,0,0,1-4.565.232,2.47,2.47,0,0,1-.855-1.909,2.55,2.55,0,0,1,1.067-2.2,5.169,5.169,0,0,1,3.051-.768h1.237V9.924a1.573,1.573,0,0,0-.39-1.116,1.547,1.547,0,0,0-1.187-.419,1.777,1.777,0,0,0-1.129.344,1.066,1.066,0,0,0-.44.876h-2.017a2.239,2.239,0,0,1,.49-1.382,3.263,3.263,0,0,1,1.332-1.009,4.68,4.68,0,0,1,1.88-.365,3.769,3.769,0,0,1,2.515.793,2.827,2.827,0,0,1,.963,2.229v4.051a4.591,4.591,0,0,0,.34,1.934V16Zm-2.216-1.453a2.294,2.294,0,0,0,1.125-.291,1.941,1.941,0,0,0,.793-.78V11.783H113.6a2.973,2.973,0,0,0-1.685.39,1.264,1.264,0,0,0-.564,1.1,1.179,1.179,0,0,0,.386.926A1.5,1.5,0,0,0,112.77,14.547Zm10.75-5.686a4.991,4.991,0,0,0-.822-.066,1.85,1.85,0,0,0-1.868,1.063V16h-2.017V7.019h1.926l.05,1a2.273,2.273,0,0,1,2.025-1.17,1.888,1.888,0,0,1,.714.116ZM131.172,16h-2.017V3.25h2.017Zm7.562,0a3.113,3.113,0,0,1-.232-.838,3.393,3.393,0,0,1-4.565.232,2.47,2.47,0,0,1-.855-1.909,2.55,2.55,0,0,1,1.067-2.2,5.169,5.169,0,0,1,3.051-.768h1.237V9.924a1.573,1.573,0,0,0-.39-1.116,1.547,1.547,0,0,0-1.187-.419,1.777,1.777,0,0,0-1.129.344,1.066,1.066,0,0,0-.44.876h-2.017a2.239,2.239,0,0,1,.49-1.382,3.263,3.263,0,0,1,1.332-1.009,4.68,4.68,0,0,1,1.88-.365,3.769,3.769,0,0,1,2.515.793,2.827,2.827,0,0,1,.963,2.229v4.051a4.591,4.591,0,0,0,.34,1.934V16Zm-2.216-1.453a2.294,2.294,0,0,0,1.125-.291,1.941,1.941,0,0,0,.793-.78V11.783h-1.087a2.973,2.973,0,0,0-1.685.39,1.264,1.264,0,0,0-.564,1.1,1.179,1.179,0,0,0,.386.926A1.5,1.5,0,0,0,136.518,14.547ZM31.941,40.166a4.173,4.173,0,0,1-3.109-1.208,4.381,4.381,0,0,1-1.191-3.217v-.249a5.389,5.389,0,0,1,.519-2.4,3.949,3.949,0,0,1,1.457-1.648,3.851,3.851,0,0,1,2.092-.589,3.525,3.525,0,0,1,2.835,1.17,4.949,4.949,0,0,1,1,3.312v.813H29.675a2.7,2.7,0,0,0,.743,1.76,2.23,2.23,0,0,0,1.639.647,2.731,2.731,0,0,0,2.258-1.121L35.4,38.473a3.631,3.631,0,0,1-1.44,1.249A4.509,4.509,0,0,1,31.941,40.166ZM31.7,32.471a1.7,1.7,0,0,0-1.341.581,3.012,3.012,0,0,0-.652,1.619h3.843v-.149a2.452,2.452,0,0,0-.54-1.531A1.686,1.686,0,0,0,31.7,32.471ZM39,31.019l.058.938a3.232,3.232,0,0,1,2.59-1.1,2.483,2.483,0,0,1,2.465,1.378,3.186,3.186,0,0,1,2.756-1.378,2.8,2.8,0,0,1,2.212.822,3.618,3.618,0,0,1,.743,2.424V40H47.812V34.156a1.786,1.786,0,0,0-.374-1.253,1.635,1.635,0,0,0-1.237-.4,1.679,1.679,0,0,0-1.125.369,1.948,1.948,0,0,0-.61.967L44.475,40H42.458V34.09A1.439,1.439,0,0,0,40.839,32.5a1.776,1.776,0,0,0-1.718.988V40H37.1V31.019ZM59.765,35.6a5.348,5.348,0,0,1-.946,3.324,3.287,3.287,0,0,1-4.906.27v4.258H51.9V31.019h1.859l.083.913a2.963,2.963,0,0,1,2.416-1.079,3.062,3.062,0,0,1,2.577,1.224,5.49,5.49,0,0,1,.934,3.4Zm-2.009-.174a3.746,3.746,0,0,0-.535-2.133,1.741,1.741,0,0,0-1.531-.789,1.856,1.856,0,0,0-1.776,1.021V37.51a1.873,1.873,0,0,0,1.793,1.046,1.739,1.739,0,0,0,1.507-.776A4.124,4.124,0,0,0,57.756,35.426Zm8.417-2.565a4.992,4.992,0,0,0-.822-.066,1.85,1.85,0,0,0-1.868,1.063V40H61.467V31.019h1.926l.05,1a2.273,2.273,0,0,1,2.025-1.17,1.888,1.888,0,0,1,.714.116Zm5.072,7.3a4.173,4.173,0,0,1-3.109-1.208,4.381,4.381,0,0,1-1.191-3.217v-.249a5.389,5.389,0,0,1,.519-2.4,3.949,3.949,0,0,1,1.457-1.648,3.851,3.851,0,0,1,2.092-.589,3.525,3.525,0,0,1,2.835,1.17,4.949,4.949,0,0,1,1,3.312v.813H68.979a2.7,2.7,0,0,0,.743,1.76,2.23,2.23,0,0,0,1.639.647,2.731,2.731,0,0,0,2.258-1.121l1.087,1.038a3.631,3.631,0,0,1-1.44,1.249A4.509,4.509,0,0,1,71.245,40.166ZM71,32.471a1.7,1.7,0,0,0-1.341.581,3.012,3.012,0,0,0-.652,1.619h3.843v-.149a2.452,2.452,0,0,0-.54-1.531A1.686,1.686,0,0,0,71,32.471ZM81.447,37.56A.914.914,0,0,0,81,36.738a4.723,4.723,0,0,0-1.473-.5,7.574,7.574,0,0,1-1.718-.548A2.293,2.293,0,0,1,76.3,33.575a2.391,2.391,0,0,1,.979-1.942,3.872,3.872,0,0,1,2.49-.78,4.029,4.029,0,0,1,2.6.8,2.529,2.529,0,0,1,.992,2.067H81.347a1.243,1.243,0,0,0-.432-.967,1.654,1.654,0,0,0-1.146-.386,1.787,1.787,0,0,0-1.083.307.968.968,0,0,0-.419.822.818.818,0,0,0,.39.722,5.365,5.365,0,0,0,1.577.519,7.466,7.466,0,0,1,1.864.623,2.639,2.639,0,0,1,1,.867,2.212,2.212,0,0,1,.328,1.229,2.34,2.34,0,0,1-1,1.963,4.283,4.283,0,0,1-2.631.751,4.644,4.644,0,0,1-1.967-.4,3.238,3.238,0,0,1-1.345-1.1,2.594,2.594,0,0,1-.481-1.5H77.96a1.421,1.421,0,0,0,.54,1.1,2.1,2.1,0,0,0,1.32.386,2.04,2.04,0,0,0,1.212-.3A.938.938,0,0,0,81.447,37.56ZM90.552,40a3.113,3.113,0,0,1-.232-.838,3.393,3.393,0,0,1-4.565.232,2.47,2.47,0,0,1-.855-1.909,2.55,2.55,0,0,1,1.067-2.2,5.169,5.169,0,0,1,3.051-.768h1.237v-.589a1.573,1.573,0,0,0-.39-1.116,1.547,1.547,0,0,0-1.187-.419,1.777,1.777,0,0,0-1.129.344,1.066,1.066,0,0,0-.44.876H85.091a2.239,2.239,0,0,1,.49-1.382,3.263,3.263,0,0,1,1.332-1.009,4.68,4.68,0,0,1,1.88-.365,3.769,3.769,0,0,1,2.515.793,2.827,2.827,0,0,1,.963,2.229v4.051a4.591,4.591,0,0,0,.34,1.934V40Zm-2.216-1.453a2.294,2.294,0,0,0,1.125-.291,1.941,1.941,0,0,0,.793-.78V35.783H89.166a2.973,2.973,0,0,0-1.685.39,1.264,1.264,0,0,0-.564,1.1,1.179,1.179,0,0,0,.386.926A1.5,1.5,0,0,0,88.336,38.547ZM106.482,35.6a5.348,5.348,0,0,1-.946,3.324,3.287,3.287,0,0,1-4.906.27v4.258H98.613V31.019h1.859l.083.913a2.963,2.963,0,0,1,2.416-1.079,3.062,3.062,0,0,1,2.577,1.224,5.49,5.49,0,0,1,.934,3.4Zm-2.009-.174a3.746,3.746,0,0,0-.535-2.133,1.741,1.741,0,0,0-1.531-.789,1.856,1.856,0,0,0-1.776,1.021V37.51a1.873,1.873,0,0,0,1.793,1.046,1.739,1.739,0,0,0,1.507-.776A4.124,4.124,0,0,0,104.473,35.426ZM113.554,40a3.113,3.113,0,0,1-.232-.838,3.393,3.393,0,0,1-4.565.232,2.47,2.47,0,0,1-.855-1.909,2.55,2.55,0,0,1,1.067-2.2,5.169,5.169,0,0,1,3.051-.768h1.237v-.589a1.573,1.573,0,0,0-.39-1.116,1.547,1.547,0,0,0-1.187-.419,1.777,1.777,0,0,0-1.129.344,1.066,1.066,0,0,0-.44.876h-2.017a2.239,2.239,0,0,1,.49-1.382,3.263,3.263,0,0,1,1.332-1.009,4.68,4.68,0,0,1,1.88-.365,3.769,3.769,0,0,1,2.515.793,2.827,2.827,0,0,1,.963,2.229v4.051a4.591,4.591,0,0,0,.34,1.934V40Zm-2.216-1.453a2.294,2.294,0,0,0,1.125-.291,1.941,1.941,0,0,0,.793-.78V35.783h-1.087a2.973,2.973,0,0,0-1.685.39,1.264,1.264,0,0,0-.564,1.1,1.179,1.179,0,0,0,.386.926A1.5,1.5,0,0,0,111.338,38.547Zm10.75-5.686a4.992,4.992,0,0,0-.822-.066,1.85,1.85,0,0,0-1.868,1.063V40h-2.017V31.019h1.926l.05,1a2.273,2.273,0,0,1,2.025-1.17,1.888,1.888,0,0,1,.714.116ZM128.479,40a3.113,3.113,0,0,1-.232-.838,3.393,3.393,0,0,1-4.565.232,2.47,2.47,0,0,1-.855-1.909,2.55,2.55,0,0,1,1.067-2.2,5.169,5.169,0,0,1,3.051-.768h1.237v-.589a1.573,1.573,0,0,0-.39-1.116,1.547,1.547,0,0,0-1.187-.419,1.777,1.777,0,0,0-1.129.344,1.066,1.066,0,0,0-.44.876h-2.017a2.239,2.239,0,0,1,.49-1.382,3.263,3.263,0,0,1,1.332-1.009,4.68,4.68,0,0,1,1.88-.365,3.769,3.769,0,0,1,2.515.793,2.827,2.827,0,0,1,.963,2.229v4.051a4.591,4.591,0,0,0,.34,1.934V40Zm-2.216-1.453a2.294,2.294,0,0,0,1.125-.291,1.941,1.941,0,0,0,.793-.78V35.783h-1.087a2.973,2.973,0,0,0-1.685.39,1.264,1.264,0,0,0-.564,1.1,1.179,1.179,0,0,0,.386.926A1.5,1.5,0,0,0,126.262,38.547ZM138.689,40h-2.017V27.25h2.017Zm7.562,0a3.113,3.113,0,0,1-.232-.838,3.393,3.393,0,0,1-4.565.232,2.47,2.47,0,0,1-.855-1.909,2.55,2.55,0,0,1,1.067-2.2,5.169,5.169,0,0,1,3.051-.768h1.237v-.589a1.573,1.573,0,0,0-.39-1.116,1.547,1.547,0,0,0-1.187-.419,1.777,1.777,0,0,0-1.129.344,1.066,1.066,0,0,0-.44.876h-2.017a2.239,2.239,0,0,1,.49-1.382,3.263,3.263,0,0,1,1.332-1.009,4.68,4.68,0,0,1,1.88-.365,3.769,3.769,0,0,1,2.515.793,2.827,2.827,0,0,1,.963,2.229v4.051a4.591,4.591,0,0,0,.34,1.934V40Zm-2.216-1.453a2.294,2.294,0,0,0,1.125-.291,1.941,1.941,0,0,0,.793-.78V35.783h-1.087a2.973,2.973,0,0,0-1.685.39,1.264,1.264,0,0,0-.564,1.1A1.179,1.179,0,0,0,143,38.2,1.5,1.5,0,0,0,144.034,38.547ZM20.1,62.556a1.824,1.824,0,0,0,1.253-.44,1.5,1.5,0,0,0,.531-1.087h1.9a2.963,2.963,0,0,1-.523,1.565,3.43,3.43,0,0,1-1.328,1.15,3.958,3.958,0,0,1-1.81.423,3.829,3.829,0,0,1-2.988-1.22,4.84,4.84,0,0,1-1.1-3.37v-.208a4.759,4.759,0,0,1,1.1-3.283,3.8,3.8,0,0,1,2.988-1.233,3.69,3.69,0,0,1,2.611.934,3.345,3.345,0,0,1,1.058,2.453h-1.9a1.847,1.847,0,0,0-.527-1.27,1.7,1.7,0,0,0-1.258-.5,1.775,1.775,0,0,0-1.511.71,3.621,3.621,0,0,0-.54,2.154v.324a3.682,3.682,0,0,0,.527,2.179A1.773,1.773,0,0,0,20.1,62.556Zm4.831-3.129a5.3,5.3,0,0,1,.523-2.378,3.819,3.819,0,0,1,1.469-1.627,4.14,4.14,0,0,1,2.175-.569,3.923,3.923,0,0,1,2.951,1.17,4.6,4.6,0,0,1,1.224,3.1l.008.473a5.343,5.343,0,0,1-.51,2.374,3.773,3.773,0,0,1-1.461,1.619,4.17,4.17,0,0,1-2.2.573A3.9,3.9,0,0,1,26.076,62.9a4.848,4.848,0,0,1-1.141-3.374Zm2.017.174a3.619,3.619,0,0,0,.573,2.171,1.862,1.862,0,0,0,1.594.784,1.842,1.842,0,0,0,1.59-.8,4,4,0,0,0,.569-2.333,3.572,3.572,0,0,0-.585-2.158,1.973,1.973,0,0,0-3.158-.012A3.922,3.922,0,0,0,26.952,59.6Zm9.936-4.582.058.938a3.232,3.232,0,0,1,2.59-1.1A2.483,2.483,0,0,1,42,56.23a3.186,3.186,0,0,1,2.756-1.378,2.8,2.8,0,0,1,2.212.822,3.618,3.618,0,0,1,.743,2.424V64H45.7V58.156a1.786,1.786,0,0,0-.374-1.253,1.635,1.635,0,0,0-1.237-.4,1.679,1.679,0,0,0-1.125.369,1.948,1.948,0,0,0-.61.967L42.358,64H40.341V58.09A1.439,1.439,0,0,0,38.722,56.5,1.776,1.776,0,0,0,37,57.492V64H34.987V55.019ZM57.648,59.6a5.348,5.348,0,0,1-.946,3.324,3.287,3.287,0,0,1-4.906.27v4.258H49.779V55.019h1.859l.083.913a2.963,2.963,0,0,1,2.416-1.079,3.062,3.062,0,0,1,2.577,1.224,5.49,5.49,0,0,1,.934,3.4Zm-2.009-.174a3.746,3.746,0,0,0-.535-2.133,1.741,1.741,0,0,0-1.531-.789A1.856,1.856,0,0,0,51.8,57.525V61.51a1.873,1.873,0,0,0,1.793,1.046A1.739,1.739,0,0,0,55.1,61.78,4.124,4.124,0,0,0,55.639,59.426Zm8.417-2.565a4.992,4.992,0,0,0-.822-.066,1.85,1.85,0,0,0-1.868,1.063V64H59.35V55.019h1.926l.05,1a2.273,2.273,0,0,1,2.025-1.17,1.888,1.888,0,0,1,.714.116ZM70.448,64a3.113,3.113,0,0,1-.232-.838,3.393,3.393,0,0,1-4.565.232,2.47,2.47,0,0,1-.855-1.909,2.55,2.55,0,0,1,1.067-2.2,5.169,5.169,0,0,1,3.051-.768h1.237v-.589a1.573,1.573,0,0,0-.39-1.116,1.547,1.547,0,0,0-1.187-.419,1.777,1.777,0,0,0-1.129.344,1.066,1.066,0,0,0-.44.876H64.986a2.239,2.239,0,0,1,.49-1.382,3.263,3.263,0,0,1,1.332-1.009,4.68,4.68,0,0,1,1.88-.365,3.769,3.769,0,0,1,2.515.793,2.827,2.827,0,0,1,.963,2.229v4.051a4.591,4.591,0,0,0,.34,1.934V64Zm-2.216-1.453a2.294,2.294,0,0,0,1.125-.291,1.941,1.941,0,0,0,.793-.78V59.783H69.062a2.973,2.973,0,0,0-1.685.39,1.264,1.264,0,0,0-.564,1.1,1.179,1.179,0,0,0,.386.926A1.5,1.5,0,0,0,68.232,62.547Zm9.9-3.1A5.34,5.34,0,0,1,79.1,56.11a3.085,3.085,0,0,1,2.582-1.258,2.931,2.931,0,0,1,2.308,1v-4.6H86V64H84.177l-.1-.93a2.973,2.973,0,0,1-2.416,1.1A3.068,3.068,0,0,1,79.11,62.9,5.535,5.535,0,0,1,78.135,59.443Zm2.017.174a3.739,3.739,0,0,0,.527,2.137,1.71,1.71,0,0,0,1.5.768,1.9,1.9,0,0,0,1.81-1.1V57.583A1.876,1.876,0,0,0,82.194,56.5a1.723,1.723,0,0,0-1.511.776A4.163,4.163,0,0,0,80.152,59.617Zm11.912,4.549a4.173,4.173,0,0,1-3.109-1.208,4.381,4.381,0,0,1-1.191-3.217v-.249a5.389,5.389,0,0,1,.519-2.4,3.949,3.949,0,0,1,1.457-1.648,3.851,3.851,0,0,1,2.092-.589,3.525,3.525,0,0,1,2.835,1.17,4.949,4.949,0,0,1,1,3.312v.813H89.8a2.7,2.7,0,0,0,.743,1.76,2.23,2.23,0,0,0,1.639.647,2.731,2.731,0,0,0,2.258-1.121l1.087,1.038a3.631,3.631,0,0,1-1.44,1.249A4.509,4.509,0,0,1,92.063,64.166Zm-.241-7.695a1.7,1.7,0,0,0-1.341.581,3.012,3.012,0,0,0-.652,1.619h3.843v-.149a2.452,2.452,0,0,0-.54-1.531A1.686,1.686,0,0,0,91.823,56.471ZM99.376,64H97.359V51.25h2.017Zm8.774-7.994a3.32,3.32,0,0,1,2.548-1.146,2.191,2.191,0,0,1,1.9.9,3.592,3.592,0,0,1,.461,2.457L112.093,64h-1.967l.979-5.8a3.39,3.39,0,0,0,.017-.664,1.075,1.075,0,0,0-1.2-1.038,2.427,2.427,0,0,0-1.959,1.079L106.847,64H104.88l2.208-12.75h1.976Zm6.466,3.47a5.91,5.91,0,0,1,.776-2.4,4.606,4.606,0,0,1,1.631-1.668,4.031,4.031,0,0,1,2.208-.556,3.336,3.336,0,0,1,3.217,2.25,5.192,5.192,0,0,1,.27,2.308,6.019,6.019,0,0,1-.776,2.523,4.588,4.588,0,0,1-1.644,1.681,4.088,4.088,0,0,1-2.22.552,3.331,3.331,0,0,1-3.2-2.237,5.126,5.126,0,0,1-.282-2.279Zm1.934,1.137a2.372,2.372,0,0,0,.461,1.4,1.474,1.474,0,0,0,1.166.552,2.069,2.069,0,0,0,1.7-.78,4.1,4.1,0,0,0,.859-2.2l.05-.813a2.874,2.874,0,0,0-.423-1.668,1.486,1.486,0,0,0-1.229-.639A2.151,2.151,0,0,0,117.14,57.7a4.621,4.621,0,0,0-.556,1.776A6.95,6.95,0,0,0,116.551,60.613Zm12.435.9q.141-.822-1.067-1.141a13.562,13.562,0,0,1-1.648-.51,2.272,2.272,0,0,1-1.652-2.225,2.527,2.527,0,0,1,1.1-2,4.031,4.031,0,0,1,2.536-.776,3.47,3.47,0,0,1,2.328.805,2.568,2.568,0,0,1,.884,2.067l-1.951-.008a1.259,1.259,0,0,0-.34-.975,1.388,1.388,0,0,0-.979-.369,1.931,1.931,0,0,0-1.125.324,1.206,1.206,0,0,0-.544.847q-.116.755,1.063,1.05a11.662,11.662,0,0,1,1.743.544,2.273,2.273,0,0,1,1.585,2.258,2.482,2.482,0,0,1-.56,1.49,3.27,3.27,0,0,1-1.39.971,4.757,4.757,0,0,1-1.851.311,3.652,3.652,0,0,1-2.436-.855,2.669,2.669,0,0,1-.95-2.15l1.9.008a1.446,1.446,0,0,0,.432,1.1,1.668,1.668,0,0,0,1.137.382,2.258,2.258,0,0,0,1.216-.3A1.162,1.162,0,0,0,128.985,61.51Zm7.628-8.674-.382,2.183h1.536l-.257,1.494h-1.544l-.847,5.03a1.72,1.72,0,0,0-.008.374q.05.54.664.564a3.75,3.75,0,0,0,.7-.075l-.133,1.577a4.511,4.511,0,0,1-1.237.174,1.837,1.837,0,0,1-1.54-.7,2.538,2.538,0,0,1-.4-1.814l.838-5.13h-1.436l.266-1.494h1.428l.382-2.183ZM139.867,64H137.9l1.561-8.981h1.967Zm-.125-11.281a1.11,1.11,0,0,1,.3-.78,1.094,1.094,0,0,1,.805-.34,1.047,1.047,0,0,1,.8.295,1.02,1.02,0,0,1,.32.76,1.05,1.05,0,0,1-.311.78,1.141,1.141,0,0,1-.793.324,1.064,1.064,0,0,1-.8-.286A.987.987,0,0,1,139.743,52.719Zm5.7,2.291-.2,1.054a3.427,3.427,0,0,1,2.665-1.212,2.171,2.171,0,0,1,1.868.9,3.6,3.6,0,0,1,.448,2.445l-.971,5.8h-1.967l.979-5.827a2.982,2.982,0,0,0,.008-.664A1.058,1.058,0,0,0,147.1,56.5a2.391,2.391,0,0,0-1.967,1.1L144.01,64h-1.967l1.552-8.981Zm6.325,4.491a6.947,6.947,0,0,1,.726-2.432,4.394,4.394,0,0,1,1.432-1.664,3.379,3.379,0,0,1,1.976-.56,2.65,2.65,0,0,1,2.233,1.087l.307-.921,1.793.008-1.486,8.732a4.239,4.239,0,0,1-4.482,3.793,4.192,4.192,0,0,1-1.793-.432,3.728,3.728,0,0,1-1.361-1.1l1.046-1.187a2.52,2.52,0,0,0,2.059,1.121,2.413,2.413,0,0,0,1.656-.527,2.746,2.746,0,0,0,.926-1.6l.141-.631a3.178,3.178,0,0,1-2.357.971,2.515,2.515,0,0,1-2.021-.955,4.223,4.223,0,0,1-.834-2.523A8.3,8.3,0,0,1,151.771,59.5Zm1.951.174a6.071,6.071,0,0,0-.033.913,2.369,2.369,0,0,0,.4,1.395,1.336,1.336,0,0,0,1.087.54,2.322,2.322,0,0,0,1.959-1.038l.706-3.968A1.6,1.6,0,0,0,156.3,56.5a2.049,2.049,0,0,0-1.677.772,4.325,4.325,0,0,0-.888,2.233Z" transform="translate(-1977.359 -7151)" fill="#12263f"/>
    <path id="Trazado_608910" data-name="Trazado 608910" d="M12.524,12.065A4.364,4.364,0,0,1,11.1,15.083a4.867,4.867,0,0,1-3.312,1.083,4.713,4.713,0,0,1-2.544-.685,4.5,4.5,0,0,1-1.7-1.947A7.024,7.024,0,0,1,2.92,10.6V9.476a7.075,7.075,0,0,1,.606-3.013A4.567,4.567,0,0,1,5.265,4.454a4.851,4.851,0,0,1,2.619-.706A4.672,4.672,0,0,1,11.1,4.831,4.527,4.527,0,0,1,12.524,7.9H10.432a2.985,2.985,0,0,0-.76-1.88,2.51,2.51,0,0,0-1.789-.577,2.452,2.452,0,0,0-2.1,1A5,5,0,0,0,5.028,9.38v1.072a5.308,5.308,0,0,0,.7,2.991,2.328,2.328,0,0,0,2.054,1.03,2.715,2.715,0,0,0,1.859-.556,2.9,2.9,0,0,0,.789-1.851Zm1.3-.639a5.3,5.3,0,0,1,.523-2.378,3.819,3.819,0,0,1,1.469-1.627,4.14,4.14,0,0,1,2.175-.569,3.923,3.923,0,0,1,2.951,1.17,4.6,4.6,0,0,1,1.224,3.1l.008.473a5.343,5.343,0,0,1-.51,2.374,3.773,3.773,0,0,1-1.461,1.619,4.17,4.17,0,0,1-2.2.573A3.9,3.9,0,0,1,14.968,14.9a4.848,4.848,0,0,1-1.141-3.374Zm2.017.174a3.619,3.619,0,0,0,.573,2.171,1.862,1.862,0,0,0,1.594.784,1.842,1.842,0,0,0,1.59-.8,4,4,0,0,0,.569-2.333,3.572,3.572,0,0,0-.585-2.158,1.973,1.973,0,0,0-3.158-.012A3.922,3.922,0,0,0,15.844,11.6ZM25.78,7.019l.058.938a3.232,3.232,0,0,1,2.59-1.1A2.483,2.483,0,0,1,30.893,8.23a3.186,3.186,0,0,1,2.756-1.378,2.8,2.8,0,0,1,2.212.822A3.618,3.618,0,0,1,36.6,10.1V16H34.587V10.156A1.786,1.786,0,0,0,34.214,8.9a1.635,1.635,0,0,0-1.237-.4,1.679,1.679,0,0,0-1.125.369,1.948,1.948,0,0,0-.61.967L31.25,16H29.233V10.09A1.439,1.439,0,0,0,27.615,8.5a1.776,1.776,0,0,0-1.718.988V16H23.879V7.019ZM46.54,11.6a5.348,5.348,0,0,1-.946,3.324,3.287,3.287,0,0,1-4.906.27v4.258H38.671V7.019h1.859l.083.913a2.963,2.963,0,0,1,2.416-1.079,3.062,3.062,0,0,1,2.577,1.224,5.49,5.49,0,0,1,.934,3.4Zm-2.009-.174A3.746,3.746,0,0,0,44,9.293,1.741,1.741,0,0,0,42.465,8.5a1.856,1.856,0,0,0-1.776,1.021V13.51a1.873,1.873,0,0,0,1.793,1.046,1.739,1.739,0,0,0,1.507-.776A4.124,4.124,0,0,0,44.531,11.426Zm8.417-2.565a4.991,4.991,0,0,0-.822-.066,1.85,1.85,0,0,0-1.868,1.063V16H48.242V7.019h1.926l.05,1a2.273,2.273,0,0,1,2.025-1.17,1.888,1.888,0,0,1,.714.116ZM59.34,16a3.113,3.113,0,0,1-.232-.838,3.393,3.393,0,0,1-4.565.232,2.47,2.47,0,0,1-.855-1.909,2.55,2.55,0,0,1,1.067-2.2,5.169,5.169,0,0,1,3.051-.768h1.237V9.924a1.573,1.573,0,0,0-.39-1.116,1.547,1.547,0,0,0-1.187-.419,1.777,1.777,0,0,0-1.129.344,1.066,1.066,0,0,0-.44.876H53.878a2.239,2.239,0,0,1,.49-1.382A3.263,3.263,0,0,1,55.7,7.218a4.68,4.68,0,0,1,1.88-.365,3.769,3.769,0,0,1,2.515.793,2.827,2.827,0,0,1,.963,2.229v4.051a4.591,4.591,0,0,0,.34,1.934V16Zm-2.216-1.453a2.294,2.294,0,0,0,1.125-.291,1.941,1.941,0,0,0,.793-.78V11.783H57.954a2.973,2.973,0,0,0-1.685.39,1.264,1.264,0,0,0-.564,1.1,1.179,1.179,0,0,0,.386.926A1.5,1.5,0,0,0,57.124,14.547Zm10.75-5.686a4.991,4.991,0,0,0-.822-.066,1.85,1.85,0,0,0-1.868,1.063V16H63.167V7.019h1.926l.05,1a2.273,2.273,0,0,1,2.025-1.17,1.888,1.888,0,0,1,.714.116Zm9.463,7.3a4.173,4.173,0,0,1-3.109-1.208,4.381,4.381,0,0,1-1.191-3.217v-.249a5.389,5.389,0,0,1,.519-2.4,3.949,3.949,0,0,1,1.457-1.648A3.851,3.851,0,0,1,77.1,6.853a3.525,3.525,0,0,1,2.835,1.17,4.949,4.949,0,0,1,1,3.312v.813H75.07a2.7,2.7,0,0,0,.743,1.76,2.23,2.23,0,0,0,1.639.647,2.731,2.731,0,0,0,2.258-1.121L80.8,14.473a3.631,3.631,0,0,1-1.44,1.249A4.509,4.509,0,0,1,77.336,16.166ZM77.1,8.471a1.7,1.7,0,0,0-1.341.581,3.012,3.012,0,0,0-.652,1.619h3.843v-.149a2.452,2.452,0,0,0-.54-1.531A1.686,1.686,0,0,0,77.1,8.471ZM84.649,16H82.632V3.25h2.017ZM90.7,11.443a5.34,5.34,0,0,1,.963-3.333,3.085,3.085,0,0,1,2.582-1.258,2.931,2.931,0,0,1,2.308,1V3.25H98.57V16H96.743l-.1-.93a2.973,2.973,0,0,1-2.416,1.1,3.068,3.068,0,0,1-2.552-1.27A5.535,5.535,0,0,1,90.7,11.443Zm2.017.174a3.739,3.739,0,0,0,.527,2.137,1.71,1.71,0,0,0,1.5.768,1.9,1.9,0,0,0,1.81-1.1V9.583A1.876,1.876,0,0,0,94.76,8.5a1.723,1.723,0,0,0-1.511.776A4.163,4.163,0,0,0,92.718,11.617Zm7.579-.191a5.3,5.3,0,0,1,.523-2.378,3.819,3.819,0,0,1,1.469-1.627,4.14,4.14,0,0,1,2.175-.569,3.923,3.923,0,0,1,2.951,1.17,4.6,4.6,0,0,1,1.224,3.1l.008.473a5.343,5.343,0,0,1-.51,2.374,3.773,3.773,0,0,1-1.461,1.619,4.17,4.17,0,0,1-2.2.573,3.9,3.9,0,0,1-3.042-1.266,4.848,4.848,0,0,1-1.141-3.374Zm2.017.174a3.619,3.619,0,0,0,.573,2.171,1.862,1.862,0,0,0,1.594.784,1.842,1.842,0,0,0,1.59-.8,4,4,0,0,0,.569-2.333,3.572,3.572,0,0,0-.585-2.158,1.973,1.973,0,0,0-3.158-.012A3.922,3.922,0,0,0,102.313,11.6Zm9.936-4.582.058.938a3.232,3.232,0,0,1,2.59-1.1,2.483,2.483,0,0,1,2.465,1.378,3.186,3.186,0,0,1,2.756-1.378,2.8,2.8,0,0,1,2.212.822,3.618,3.618,0,0,1,.743,2.424V16h-2.017V10.156a1.786,1.786,0,0,0-.374-1.253,1.635,1.635,0,0,0-1.237-.4,1.679,1.679,0,0,0-1.125.369,1.948,1.948,0,0,0-.61.967L117.719,16H115.7V10.09A1.439,1.439,0,0,0,114.084,8.5a1.776,1.776,0,0,0-1.718.988V16h-2.017V7.019ZM127.29,16h-2.017V7.019h2.017ZM125.149,4.686a1.071,1.071,0,0,1,.295-.772,1.113,1.113,0,0,1,.843-.307,1.127,1.127,0,0,1,.847.307,1.062,1.062,0,0,1,.3.772,1.038,1.038,0,0,1-.3.76,1.136,1.136,0,0,1-.847.3,1.122,1.122,0,0,1-.843-.3A1.046,1.046,0,0,1,125.149,4.686Zm6.209,2.333.058,1.038a3.229,3.229,0,0,1,2.615-1.2q2.806,0,2.855,3.212V16h-2.017V10.181a1.85,1.85,0,0,0-.369-1.266,1.554,1.554,0,0,0-1.208-.411,1.944,1.944,0,0,0-1.818,1.1V16h-2.017V7.019ZM141.086,16h-2.017V7.019h2.017ZM138.945,4.686a1.07,1.07,0,0,1,.295-.772,1.113,1.113,0,0,1,.843-.307,1.127,1.127,0,0,1,.847.307,1.062,1.062,0,0,1,.3.772,1.038,1.038,0,0,1-.3.76,1.136,1.136,0,0,1-.847.3,1.122,1.122,0,0,1-.843-.3A1.046,1.046,0,0,1,138.945,4.686Zm3.959,6.74a5.3,5.3,0,0,1,.523-2.378A3.819,3.819,0,0,1,144.9,7.421a4.14,4.14,0,0,1,2.175-.569,3.923,3.923,0,0,1,2.951,1.17,4.6,4.6,0,0,1,1.224,3.1l.008.473a5.343,5.343,0,0,1-.51,2.374,3.773,3.773,0,0,1-1.461,1.619,4.17,4.17,0,0,1-2.2.573,3.9,3.9,0,0,1-3.042-1.266,4.848,4.848,0,0,1-1.141-3.374Zm2.017.174a3.619,3.619,0,0,0,.573,2.171,1.862,1.862,0,0,0,1.594.784,1.842,1.842,0,0,0,1.59-.8,4,4,0,0,0,.569-2.333,3.572,3.572,0,0,0-.585-2.158,1.973,1.973,0,0,0-3.158-.012A3.922,3.922,0,0,0,144.921,11.6ZM33.612,35.443a5.34,5.34,0,0,1,.963-3.333,3.085,3.085,0,0,1,2.582-1.258,2.931,2.931,0,0,1,2.308,1v-4.6h2.017V40H39.655l-.1-.93a2.973,2.973,0,0,1-2.416,1.1,3.068,3.068,0,0,1-2.552-1.27A5.535,5.535,0,0,1,33.612,35.443Zm2.017.174a3.739,3.739,0,0,0,.527,2.137,1.71,1.71,0,0,0,1.5.768,1.9,1.9,0,0,0,1.81-1.1V33.583A1.876,1.876,0,0,0,37.671,32.5a1.723,1.723,0,0,0-1.511.776A4.163,4.163,0,0,0,35.629,35.617Zm11.912,4.549a4.173,4.173,0,0,1-3.109-1.208,4.381,4.381,0,0,1-1.191-3.217v-.249a5.389,5.389,0,0,1,.519-2.4,3.949,3.949,0,0,1,1.457-1.648,3.851,3.851,0,0,1,2.092-.589,3.525,3.525,0,0,1,2.835,1.17,4.949,4.949,0,0,1,1,3.312v.813H45.274a2.7,2.7,0,0,0,.743,1.76,2.23,2.23,0,0,0,1.639.647,2.731,2.731,0,0,0,2.258-1.121L51,38.473a3.631,3.631,0,0,1-1.44,1.249A4.509,4.509,0,0,1,47.541,40.166ZM47.3,32.471a1.7,1.7,0,0,0-1.341.581,3.012,3.012,0,0,0-.652,1.619h3.843v-.149a2.452,2.452,0,0,0-.54-1.531A1.686,1.686,0,0,0,47.3,32.471ZM59.087,40H57.07V27.25h2.017Zm7.562,0a3.113,3.113,0,0,1-.232-.838,3.393,3.393,0,0,1-4.565.232A2.47,2.47,0,0,1,61,37.485a2.55,2.55,0,0,1,1.067-2.2,5.169,5.169,0,0,1,3.051-.768H66.35v-.589a1.573,1.573,0,0,0-.39-1.116,1.547,1.547,0,0,0-1.187-.419,1.777,1.777,0,0,0-1.129.344,1.066,1.066,0,0,0-.44.876H61.187a2.239,2.239,0,0,1,.49-1.382,3.263,3.263,0,0,1,1.332-1.009,4.68,4.68,0,0,1,1.88-.365,3.769,3.769,0,0,1,2.515.793,2.827,2.827,0,0,1,.963,2.229v4.051a4.591,4.591,0,0,0,.34,1.934V40Zm-2.216-1.453a2.294,2.294,0,0,0,1.125-.291,1.941,1.941,0,0,0,.793-.78V35.783H65.263a2.973,2.973,0,0,0-1.685.39,1.264,1.264,0,0,0-.564,1.1,1.179,1.179,0,0,0,.386.926A1.5,1.5,0,0,0,64.433,38.547Zm12.808-9.712v2.183h1.585v1.494H77.241v5.014a1.1,1.1,0,0,0,.2.743.943.943,0,0,0,.726.228,3.107,3.107,0,0,0,.706-.083v1.561a4.968,4.968,0,0,1-1.328.191q-2.324,0-2.324-2.565V32.513H73.746V31.019h1.478V28.835ZM82.512,40H80.495V31.019h2.017ZM80.37,28.686a1.071,1.071,0,0,1,.295-.772,1.113,1.113,0,0,1,.843-.307,1.127,1.127,0,0,1,.847.307,1.062,1.062,0,0,1,.3.772,1.038,1.038,0,0,1-.3.76,1.136,1.136,0,0,1-.847.3,1.122,1.122,0,0,1-.843-.3A1.046,1.046,0,0,1,80.37,28.686Zm8.292,11.48a4.173,4.173,0,0,1-3.109-1.208,4.381,4.381,0,0,1-1.191-3.217v-.249a5.389,5.389,0,0,1,.519-2.4,3.949,3.949,0,0,1,1.457-1.648,3.851,3.851,0,0,1,2.092-.589,3.525,3.525,0,0,1,2.835,1.17,4.949,4.949,0,0,1,1,3.312v.813H86.4a2.7,2.7,0,0,0,.743,1.76,2.23,2.23,0,0,0,1.639.647,2.731,2.731,0,0,0,2.258-1.121l1.087,1.038a3.631,3.631,0,0,1-1.44,1.249A4.509,4.509,0,0,1,88.663,40.166Zm-.241-7.695a1.7,1.7,0,0,0-1.341.581,3.012,3.012,0,0,0-.652,1.619h3.843v-.149a2.452,2.452,0,0,0-.54-1.531A1.686,1.686,0,0,0,88.422,32.471Zm7.28-1.453.058,1.038a3.229,3.229,0,0,1,2.615-1.2q2.806,0,2.855,3.212V40H99.213V34.181a1.85,1.85,0,0,0-.369-1.266,1.554,1.554,0,0,0-1.208-.411,1.944,1.944,0,0,0-1.818,1.1V40H93.8V31.019Zm7.205,4.424a5.34,5.34,0,0,1,.963-3.333,3.085,3.085,0,0,1,2.582-1.258,2.931,2.931,0,0,1,2.308,1v-4.6h2.017V40H108.95l-.1-.93a2.973,2.973,0,0,1-2.416,1.1,3.068,3.068,0,0,1-2.552-1.27A5.535,5.535,0,0,1,102.907,35.443Zm2.017.174a3.739,3.739,0,0,0,.527,2.137,1.71,1.71,0,0,0,1.5.768,1.9,1.9,0,0,0,1.81-1.1V33.583a1.876,1.876,0,0,0-1.793-1.079,1.723,1.723,0,0,0-1.511.776A4.163,4.163,0,0,0,104.924,35.617ZM118.247,40a3.113,3.113,0,0,1-.232-.838,3.393,3.393,0,0,1-4.565.232,2.47,2.47,0,0,1-.855-1.909,2.55,2.55,0,0,1,1.067-2.2,5.169,5.169,0,0,1,3.051-.768h1.237v-.589a1.573,1.573,0,0,0-.39-1.116,1.547,1.547,0,0,0-1.187-.419,1.777,1.777,0,0,0-1.129.344,1.066,1.066,0,0,0-.44.876h-2.017a2.239,2.239,0,0,1,.49-1.382,3.263,3.263,0,0,1,1.332-1.009,4.68,4.68,0,0,1,1.88-.365,3.769,3.769,0,0,1,2.515.793,2.827,2.827,0,0,1,.963,2.229v4.051a4.591,4.591,0,0,0,.34,1.934V40Zm-2.216-1.453a2.294,2.294,0,0,0,1.125-.291,1.941,1.941,0,0,0,.793-.78V35.783H116.86a2.973,2.973,0,0,0-1.685.39,1.264,1.264,0,0,0-.564,1.1A1.179,1.179,0,0,0,115,38.2,1.5,1.5,0,0,0,116.03,38.547Z" transform="translate(-1966 -6977.898)" fill="#12263f"/>
    <path id="Trazado_608911" data-name="Trazado 608911" d="M26.784,12.065a4.364,4.364,0,0,1-1.428,3.017,4.867,4.867,0,0,1-3.312,1.083,4.713,4.713,0,0,1-2.544-.685,4.5,4.5,0,0,1-1.7-1.947,7.024,7.024,0,0,1-.623-2.93V9.476a7.075,7.075,0,0,1,.606-3.013,4.567,4.567,0,0,1,1.739-2.009,4.851,4.851,0,0,1,2.619-.706,4.672,4.672,0,0,1,3.221,1.083A4.527,4.527,0,0,1,26.784,7.9H24.692a2.985,2.985,0,0,0-.76-1.88,2.51,2.51,0,0,0-1.789-.577,2.452,2.452,0,0,0-2.1,1,5,5,0,0,0-.751,2.937v1.072a5.308,5.308,0,0,0,.7,2.991,2.328,2.328,0,0,0,2.054,1.03,2.715,2.715,0,0,0,1.859-.556,2.9,2.9,0,0,0,.789-1.851Zm6.383-3.2a4.991,4.991,0,0,0-.822-.066,1.85,1.85,0,0,0-1.868,1.063V16H28.461V7.019h1.926l.05,1a2.273,2.273,0,0,1,2.025-1.17,1.888,1.888,0,0,1,.714.116Zm5.072,7.3a4.173,4.173,0,0,1-3.109-1.208,4.381,4.381,0,0,1-1.191-3.217v-.249a5.389,5.389,0,0,1,.519-2.4,3.949,3.949,0,0,1,1.457-1.648,3.851,3.851,0,0,1,2.092-.589,3.525,3.525,0,0,1,2.835,1.17,4.949,4.949,0,0,1,1,3.312v.813H35.973a2.7,2.7,0,0,0,.743,1.76,2.23,2.23,0,0,0,1.639.647,2.731,2.731,0,0,0,2.258-1.121L41.7,14.473a3.631,3.631,0,0,1-1.44,1.249A4.509,4.509,0,0,1,38.239,16.166ZM38,8.471a1.7,1.7,0,0,0-1.341.581,3.012,3.012,0,0,0-.652,1.619h3.843v-.149a2.452,2.452,0,0,0-.54-1.531A1.686,1.686,0,0,0,38,8.471ZM48.773,16a3.113,3.113,0,0,1-.232-.838,3.393,3.393,0,0,1-4.565.232,2.47,2.47,0,0,1-.855-1.909,2.55,2.55,0,0,1,1.067-2.2,5.169,5.169,0,0,1,3.051-.768h1.237V9.924a1.573,1.573,0,0,0-.39-1.116A1.547,1.547,0,0,0,46.9,8.388a1.777,1.777,0,0,0-1.129.344,1.066,1.066,0,0,0-.44.876H43.311a2.239,2.239,0,0,1,.49-1.382,3.263,3.263,0,0,1,1.332-1.009,4.68,4.68,0,0,1,1.88-.365,3.769,3.769,0,0,1,2.515.793,2.827,2.827,0,0,1,.963,2.229v4.051a4.591,4.591,0,0,0,.34,1.934V16Zm-2.216-1.453a2.294,2.294,0,0,0,1.125-.291,1.941,1.941,0,0,0,.793-.78V11.783H47.386a2.973,2.973,0,0,0-1.685.39,1.264,1.264,0,0,0-.564,1.1,1.179,1.179,0,0,0,.386.926A1.5,1.5,0,0,0,46.556,14.547Zm9.737.008a1.824,1.824,0,0,0,1.253-.44,1.5,1.5,0,0,0,.531-1.087h1.9a2.963,2.963,0,0,1-.523,1.565,3.43,3.43,0,0,1-1.328,1.15,3.958,3.958,0,0,1-1.81.423,3.829,3.829,0,0,1-2.988-1.22,4.84,4.84,0,0,1-1.1-3.37v-.208a4.759,4.759,0,0,1,1.1-3.283A3.8,3.8,0,0,1,56.31,6.853a3.69,3.69,0,0,1,2.611.934,3.345,3.345,0,0,1,1.058,2.453h-1.9a1.847,1.847,0,0,0-.527-1.27,1.7,1.7,0,0,0-1.258-.5,1.775,1.775,0,0,0-1.511.71,3.621,3.621,0,0,0-.54,2.154v.324a3.682,3.682,0,0,0,.527,2.179A1.773,1.773,0,0,0,56.293,14.556ZM63.648,16H61.631V7.019h2.017ZM61.506,4.686a1.071,1.071,0,0,1,.295-.772,1.113,1.113,0,0,1,.843-.307,1.127,1.127,0,0,1,.847.307,1.062,1.062,0,0,1,.3.772,1.038,1.038,0,0,1-.3.76,1.136,1.136,0,0,1-.847.3,1.122,1.122,0,0,1-.843-.3A1.046,1.046,0,0,1,61.506,4.686Zm3.959,6.74a5.3,5.3,0,0,1,.523-2.378,3.819,3.819,0,0,1,1.469-1.627,4.14,4.14,0,0,1,2.175-.569,3.923,3.923,0,0,1,2.951,1.17,4.6,4.6,0,0,1,1.224,3.1l.008.473a5.343,5.343,0,0,1-.51,2.374,3.773,3.773,0,0,1-1.461,1.619,4.17,4.17,0,0,1-2.2.573A3.9,3.9,0,0,1,66.607,14.9a4.848,4.848,0,0,1-1.141-3.374Zm2.017.174a3.619,3.619,0,0,0,.573,2.171,1.862,1.862,0,0,0,1.594.784,1.842,1.842,0,0,0,1.59-.8,4,4,0,0,0,.569-2.333,3.572,3.572,0,0,0-.585-2.158,1.973,1.973,0,0,0-3.158-.012A3.922,3.922,0,0,0,67.483,11.6ZM70.189,3.25h2.3l-2.3,2.515-1.619,0Zm7.205,3.769.058,1.038a3.229,3.229,0,0,1,2.615-1.2q2.806,0,2.855,3.212V16H80.905V10.181a1.85,1.85,0,0,0-.369-1.266A1.554,1.554,0,0,0,79.328,8.5a1.944,1.944,0,0,0-1.818,1.1V16H75.493V7.019Zm11.438,4.424A5.34,5.34,0,0,1,89.8,8.11a3.085,3.085,0,0,1,2.582-1.258,2.931,2.931,0,0,1,2.308,1V3.25H96.7V16H94.875l-.1-.93a2.973,2.973,0,0,1-2.416,1.1,3.068,3.068,0,0,1-2.552-1.27A5.535,5.535,0,0,1,88.832,11.443Zm2.017.174a3.739,3.739,0,0,0,.527,2.137,1.71,1.71,0,0,0,1.5.768,1.9,1.9,0,0,0,1.81-1.1V9.583A1.876,1.876,0,0,0,92.891,8.5a1.723,1.723,0,0,0-1.511.776A4.163,4.163,0,0,0,90.849,11.617Zm11.912,4.549a4.173,4.173,0,0,1-3.109-1.208,4.381,4.381,0,0,1-1.191-3.217v-.249a5.389,5.389,0,0,1,.519-2.4,3.949,3.949,0,0,1,1.457-1.648,3.851,3.851,0,0,1,2.092-.589,3.525,3.525,0,0,1,2.835,1.17,4.949,4.949,0,0,1,1,3.312v.813h-5.869a2.7,2.7,0,0,0,.743,1.76,2.23,2.23,0,0,0,1.639.647,2.731,2.731,0,0,0,2.258-1.121l1.087,1.038a3.631,3.631,0,0,1-1.44,1.249A4.509,4.509,0,0,1,102.761,16.166Zm-.241-7.695a1.7,1.7,0,0,0-1.341.581,3.012,3.012,0,0,0-.652,1.619h3.843v-.149a2.452,2.452,0,0,0-.54-1.531A1.686,1.686,0,0,0,102.52,8.471ZM114.307,16H112.29V3.25h2.017Zm7.562,0a3.113,3.113,0,0,1-.232-.838,3.393,3.393,0,0,1-4.565.232,2.47,2.47,0,0,1-.855-1.909,2.55,2.55,0,0,1,1.067-2.2,5.169,5.169,0,0,1,3.051-.768h1.237V9.924a1.573,1.573,0,0,0-.39-1.116,1.547,1.547,0,0,0-1.187-.419,1.777,1.777,0,0,0-1.129.344,1.066,1.066,0,0,0-.44.876h-2.017a2.239,2.239,0,0,1,.49-1.382,3.263,3.263,0,0,1,1.332-1.009,4.68,4.68,0,0,1,1.88-.365,3.769,3.769,0,0,1,2.515.793,2.827,2.827,0,0,1,.963,2.229v4.051a4.591,4.591,0,0,0,.34,1.934V16Zm-2.216-1.453a2.294,2.294,0,0,0,1.125-.291,1.941,1.941,0,0,0,.793-.78V11.783h-1.087a2.973,2.973,0,0,0-1.685.39,1.264,1.264,0,0,0-.564,1.1,1.179,1.179,0,0,0,.386.926A1.5,1.5,0,0,0,119.653,14.547ZM24.373,28.835v2.183h1.585v1.494H24.373v5.014a1.1,1.1,0,0,0,.2.743.943.943,0,0,0,.726.228,3.107,3.107,0,0,0,.706-.083v1.561a4.968,4.968,0,0,1-1.328.191q-2.324,0-2.324-2.565V32.513H20.878V31.019h1.478V28.835ZM29.644,40H27.626V31.019h2.017ZM27.5,28.686a1.071,1.071,0,0,1,.295-.772,1.113,1.113,0,0,1,.843-.307,1.127,1.127,0,0,1,.847.307,1.062,1.062,0,0,1,.3.772,1.038,1.038,0,0,1-.3.76,1.136,1.136,0,0,1-.847.3,1.122,1.122,0,0,1-.843-.3A1.046,1.046,0,0,1,27.5,28.686Zm8.292,11.48a4.173,4.173,0,0,1-3.109-1.208,4.381,4.381,0,0,1-1.191-3.217v-.249a5.389,5.389,0,0,1,.519-2.4,3.949,3.949,0,0,1,1.457-1.648,3.851,3.851,0,0,1,2.092-.589,3.525,3.525,0,0,1,2.835,1.17,4.949,4.949,0,0,1,1,3.312v.813H33.528a2.7,2.7,0,0,0,.743,1.76,2.23,2.23,0,0,0,1.639.647,2.731,2.731,0,0,0,2.258-1.121l1.087,1.038a3.631,3.631,0,0,1-1.44,1.249A4.509,4.509,0,0,1,35.794,40.166Zm-.241-7.695a1.7,1.7,0,0,0-1.341.581,3.012,3.012,0,0,0-.652,1.619H37.4v-.149a2.452,2.452,0,0,0-.54-1.531A1.686,1.686,0,0,0,35.554,32.471Zm7.28-1.453.058,1.038a3.229,3.229,0,0,1,2.615-1.2q2.806,0,2.855,3.212V40H46.345V34.181a1.85,1.85,0,0,0-.369-1.266,1.554,1.554,0,0,0-1.208-.411,1.944,1.944,0,0,0-1.818,1.1V40H40.933V31.019Zm7.205,4.424A5.34,5.34,0,0,1,51,32.11a3.085,3.085,0,0,1,2.582-1.258,2.931,2.931,0,0,1,2.308,1v-4.6h2.017V40H56.082l-.1-.93a2.973,2.973,0,0,1-2.416,1.1,3.068,3.068,0,0,1-2.552-1.27A5.535,5.535,0,0,1,50.039,35.443Zm2.017.174a3.739,3.739,0,0,0,.527,2.137,1.71,1.71,0,0,0,1.5.768,1.9,1.9,0,0,0,1.81-1.1V33.583A1.876,1.876,0,0,0,54.1,32.5a1.723,1.723,0,0,0-1.511.776A4.163,4.163,0,0,0,52.056,35.617ZM65.378,40a3.113,3.113,0,0,1-.232-.838,3.393,3.393,0,0,1-4.565.232,2.47,2.47,0,0,1-.855-1.909,2.55,2.55,0,0,1,1.067-2.2,5.169,5.169,0,0,1,3.051-.768H65.08v-.589a1.573,1.573,0,0,0-.39-1.116,1.547,1.547,0,0,0-1.187-.419,1.777,1.777,0,0,0-1.129.344,1.066,1.066,0,0,0-.44.876H59.917a2.239,2.239,0,0,1,.49-1.382,3.263,3.263,0,0,1,1.332-1.009,4.68,4.68,0,0,1,1.88-.365,3.769,3.769,0,0,1,2.515.793,2.827,2.827,0,0,1,.963,2.229v4.051a4.591,4.591,0,0,0,.34,1.934V40Zm-2.216-1.453a2.294,2.294,0,0,0,1.125-.291,1.941,1.941,0,0,0,.793-.78V35.783H63.992a2.973,2.973,0,0,0-1.685.39,1.264,1.264,0,0,0-.564,1.1,1.179,1.179,0,0,0,.386.926A1.5,1.5,0,0,0,63.162,38.547Zm13.447-1.1,1.9-6.425h2.083L77.481,40H75.729l-3.138-8.981h2.092ZM84,40H81.98V31.019H84ZM81.855,28.686a1.071,1.071,0,0,1,.295-.772,1.113,1.113,0,0,1,.843-.307,1.127,1.127,0,0,1,.847.307,1.062,1.062,0,0,1,.3.772,1.038,1.038,0,0,1-.3.76,1.136,1.136,0,0,1-.847.3,1.122,1.122,0,0,1-.843-.3A1.046,1.046,0,0,1,81.855,28.686Zm9.04,4.175a4.992,4.992,0,0,0-.822-.066,1.85,1.85,0,0,0-1.868,1.063V40H86.188V31.019h1.926l.05,1a2.273,2.273,0,0,1,2.025-1.17,1.888,1.888,0,0,1,.714.116Zm4.217-4.026v2.183H96.7v1.494H95.112v5.014a1.1,1.1,0,0,0,.2.743.943.943,0,0,0,.726.228,3.107,3.107,0,0,0,.706-.083v1.561a4.968,4.968,0,0,1-1.328.191q-2.324,0-2.324-2.565V32.513H91.617V31.019h1.478V28.835Zm8.566,10.285a3.128,3.128,0,0,1-2.523,1.046,2.788,2.788,0,0,1-2.212-.855,3.637,3.637,0,0,1-.751-2.474V31.019h2.017v5.794q0,1.71,1.419,1.71a1.993,1.993,0,0,0,1.984-1.054v-6.45h2.017V40h-1.9Zm9.372.88a3.113,3.113,0,0,1-.232-.838,3.393,3.393,0,0,1-4.565.232,2.47,2.47,0,0,1-.855-1.909,2.55,2.55,0,0,1,1.067-2.2,5.169,5.169,0,0,1,3.051-.768h1.237v-.589a1.573,1.573,0,0,0-.39-1.116,1.547,1.547,0,0,0-1.187-.419,1.777,1.777,0,0,0-1.129.344,1.066,1.066,0,0,0-.44.876h-2.017a2.239,2.239,0,0,1,.49-1.382,3.263,3.263,0,0,1,1.332-1.009,4.68,4.68,0,0,1,1.88-.365,3.769,3.769,0,0,1,2.515.793,2.827,2.827,0,0,1,.963,2.229v4.051a4.591,4.591,0,0,0,.34,1.934V40Zm-2.216-1.453a2.294,2.294,0,0,0,1.125-.291,1.941,1.941,0,0,0,.793-.78V35.783h-1.087a2.973,2.973,0,0,0-1.685.39,1.264,1.264,0,0,0-.564,1.1,1.179,1.179,0,0,0,.386.926A1.5,1.5,0,0,0,110.833,38.547ZM119.026,40h-2.017V27.25h2.017Z" transform="translate(-2216 -6977.898)" fill="#12263f"/>
    <path id="Trazado_608914" data-name="Trazado 608914" d="M10.628,16V3.914H14.2a5.6,5.6,0,0,1,2.843.714,4.868,4.868,0,0,1,1.922,2.025,6.429,6.429,0,0,1,.681,3v.606a6.4,6.4,0,0,1-.685,3.021,4.809,4.809,0,0,1-1.951,2.009,5.858,5.858,0,0,1-2.9.706Zm2.1-10.393v8.716H14.1a3.154,3.154,0,0,0,2.536-1.033,4.5,4.5,0,0,0,.9-2.968V9.65a4.619,4.619,0,0,0-.855-3A3.031,3.031,0,0,0,14.2,5.607ZM23.685,16H21.668V7.019h2.017ZM21.543,4.686a1.071,1.071,0,0,1,.295-.772,1.113,1.113,0,0,1,.843-.307,1.127,1.127,0,0,1,.847.307,1.062,1.062,0,0,1,.3.772,1.038,1.038,0,0,1-.3.76,1.136,1.136,0,0,1-.847.3,1.122,1.122,0,0,1-.843-.3A1.046,1.046,0,0,1,21.543,4.686Zm9.372,8.874a.914.914,0,0,0-.444-.822A4.723,4.723,0,0,0,29,12.24a7.574,7.574,0,0,1-1.718-.548,2.293,2.293,0,0,1-1.511-2.117,2.391,2.391,0,0,1,.979-1.942,3.872,3.872,0,0,1,2.49-.78,4.029,4.029,0,0,1,2.6.8,2.529,2.529,0,0,1,.992,2.067H30.815a1.243,1.243,0,0,0-.432-.967,1.654,1.654,0,0,0-1.146-.386,1.787,1.787,0,0,0-1.083.307.968.968,0,0,0-.419.822.818.818,0,0,0,.39.722,5.365,5.365,0,0,0,1.577.519,7.466,7.466,0,0,1,1.864.623,2.639,2.639,0,0,1,1,.867,2.212,2.212,0,0,1,.328,1.229,2.34,2.34,0,0,1-1,1.963,4.283,4.283,0,0,1-2.631.751,4.644,4.644,0,0,1-1.967-.4,3.238,3.238,0,0,1-1.345-1.1,2.594,2.594,0,0,1-.481-1.5h1.959a1.421,1.421,0,0,0,.54,1.1,2.1,2.1,0,0,0,1.32.386,2.04,2.04,0,0,0,1.212-.3A.938.938,0,0,0,30.915,13.56Zm7.695,2.606A4.173,4.173,0,0,1,35.5,14.958a4.381,4.381,0,0,1-1.191-3.217v-.249a5.389,5.389,0,0,1,.519-2.4,3.949,3.949,0,0,1,1.457-1.648,3.851,3.851,0,0,1,2.092-.589,3.525,3.525,0,0,1,2.835,1.17,4.949,4.949,0,0,1,1,3.312v.813H36.344a2.7,2.7,0,0,0,.743,1.76,2.23,2.23,0,0,0,1.639.647,2.731,2.731,0,0,0,2.258-1.121l1.087,1.038a3.631,3.631,0,0,1-1.44,1.249A4.509,4.509,0,0,1,38.61,16.166Zm-.241-7.695a1.7,1.7,0,0,0-1.341.581,3.012,3.012,0,0,0-.652,1.619H40.22v-.149a2.452,2.452,0,0,0-.54-1.531A1.686,1.686,0,0,0,38.369,8.471Zm7.28-1.453.058,1.038a3.229,3.229,0,0,1,2.615-1.2q2.806,0,2.855,3.212V16H49.16V10.181a1.85,1.85,0,0,0-.369-1.266A1.554,1.554,0,0,0,47.583,8.5a1.944,1.944,0,0,0-1.818,1.1V16H43.748V7.019Zm4.9-3.586a2.231,2.231,0,0,1-.527,1.519,1.681,1.681,0,0,1-1.324.606,1.972,1.972,0,0,1-.56-.071,3.564,3.564,0,0,1-.672-.32,3.323,3.323,0,0,0-.614-.3,1.465,1.465,0,0,0-.394-.05.7.7,0,0,0-.535.237.872.872,0,0,0-.22.618l-1.237-.066a2.3,2.3,0,0,1,.527-1.536A1.654,1.654,0,0,1,46.3,3.449a2.449,2.449,0,0,1,1.141.374,2.413,2.413,0,0,0,1.1.374.717.717,0,0,0,.54-.237.874.874,0,0,0,.224-.627Zm2.308,7.994a5.3,5.3,0,0,1,.523-2.378,3.819,3.819,0,0,1,1.469-1.627,4.14,4.14,0,0,1,2.175-.569,3.923,3.923,0,0,1,2.951,1.17,4.6,4.6,0,0,1,1.224,3.1l.008.473a5.343,5.343,0,0,1-.51,2.374,3.773,3.773,0,0,1-1.461,1.619,4.17,4.17,0,0,1-2.2.573A3.9,3.9,0,0,1,54,14.9a4.848,4.848,0,0,1-1.141-3.374Zm2.017.174a3.619,3.619,0,0,0,.573,2.171,1.862,1.862,0,0,0,1.594.784,1.842,1.842,0,0,0,1.59-.8,4,4,0,0,0,.569-2.333,3.572,3.572,0,0,0-.585-2.158,1.973,1.973,0,0,0-3.158-.012A3.922,3.922,0,0,0,54.871,11.6Zm11.9-.158a5.34,5.34,0,0,1,.963-3.333,3.085,3.085,0,0,1,2.582-1.258,2.931,2.931,0,0,1,2.308,1V3.25h2.017V16H72.809l-.1-.93a2.973,2.973,0,0,1-2.416,1.1,3.068,3.068,0,0,1-2.552-1.27A5.535,5.535,0,0,1,66.766,11.443Zm2.017.174a3.739,3.739,0,0,0,.527,2.137,1.71,1.71,0,0,0,1.5.768,1.9,1.9,0,0,0,1.81-1.1V9.583A1.876,1.876,0,0,0,70.825,8.5a1.723,1.723,0,0,0-1.511.776A4.163,4.163,0,0,0,68.783,11.617Zm11.912,4.549a4.173,4.173,0,0,1-3.109-1.208A4.381,4.381,0,0,1,76.4,11.742v-.249a5.389,5.389,0,0,1,.519-2.4,3.949,3.949,0,0,1,1.457-1.648,3.851,3.851,0,0,1,2.092-.589A3.525,3.525,0,0,1,83.3,8.023a4.949,4.949,0,0,1,1,3.312v.813H78.429a2.7,2.7,0,0,0,.743,1.76,2.23,2.23,0,0,0,1.639.647,2.731,2.731,0,0,0,2.258-1.121l1.087,1.038a3.631,3.631,0,0,1-1.44,1.249A4.509,4.509,0,0,1,80.695,16.166Zm-.241-7.695a1.7,1.7,0,0,0-1.341.581,3.012,3.012,0,0,0-.652,1.619h3.843v-.149a2.452,2.452,0,0,0-.54-1.531A1.686,1.686,0,0,0,80.454,8.471ZM92.241,16H90.224V3.25h2.017ZM99.8,16a3.113,3.113,0,0,1-.232-.838,3.393,3.393,0,0,1-4.565.232,2.47,2.47,0,0,1-.855-1.909,2.55,2.55,0,0,1,1.067-2.2,5.169,5.169,0,0,1,3.051-.768H99.5V9.924a1.573,1.573,0,0,0-.39-1.116,1.547,1.547,0,0,0-1.187-.419,1.777,1.777,0,0,0-1.129.344,1.066,1.066,0,0,0-.44.876H94.341a2.239,2.239,0,0,1,.49-1.382,3.263,3.263,0,0,1,1.332-1.009,4.68,4.68,0,0,1,1.88-.365,3.769,3.769,0,0,1,2.515.793,2.827,2.827,0,0,1,.963,2.229v4.051a4.591,4.591,0,0,0,.34,1.934V16Zm-2.216-1.453a2.294,2.294,0,0,0,1.125-.291,1.941,1.941,0,0,0,.793-.78V11.783H98.417a2.973,2.973,0,0,0-1.685.39,1.264,1.264,0,0,0-.564,1.1,1.179,1.179,0,0,0,.386.926A1.5,1.5,0,0,0,97.587,14.547ZM21.768,35.6a5.348,5.348,0,0,1-.946,3.324,3.031,3.031,0,0,1-2.54,1.241,3.051,3.051,0,0,1-2.366-.971v4.258H13.9V31.019h1.859l.083.913a2.963,2.963,0,0,1,2.416-1.079,3.062,3.062,0,0,1,2.577,1.224,5.49,5.49,0,0,1,.934,3.4Zm-2.009-.174a3.746,3.746,0,0,0-.535-2.133,1.741,1.741,0,0,0-1.531-.789,1.856,1.856,0,0,0-1.776,1.021V37.51a1.873,1.873,0,0,0,1.793,1.046,1.739,1.739,0,0,0,1.507-.776A4.124,4.124,0,0,0,19.759,35.426ZM28.84,40a3.113,3.113,0,0,1-.232-.838,3.393,3.393,0,0,1-4.565.232,2.47,2.47,0,0,1-.855-1.909,2.55,2.55,0,0,1,1.067-2.2,5.169,5.169,0,0,1,3.051-.768h1.237v-.589a1.573,1.573,0,0,0-.39-1.116,1.547,1.547,0,0,0-1.187-.419,1.777,1.777,0,0,0-1.129.344,1.066,1.066,0,0,0-.44.876H23.378a2.239,2.239,0,0,1,.49-1.382A3.263,3.263,0,0,1,25.2,31.218a4.68,4.68,0,0,1,1.88-.365,3.769,3.769,0,0,1,2.515.793,2.827,2.827,0,0,1,.963,2.229v4.051a4.591,4.591,0,0,0,.34,1.934V40Zm-2.216-1.453a2.294,2.294,0,0,0,1.125-.291,1.941,1.941,0,0,0,.793-.78V35.783H27.454a2.973,2.973,0,0,0-1.685.39,1.264,1.264,0,0,0-.564,1.1,1.179,1.179,0,0,0,.386.926A1.5,1.5,0,0,0,26.624,38.547Zm1.121-11.3h2.3l-2.3,2.515-1.619,0Zm4.574,8.193A5.253,5.253,0,0,1,33.3,32.1a3.157,3.157,0,0,1,2.611-1.249,2.958,2.958,0,0,1,2.416,1.071l.091-.9h1.818v8.708a3.619,3.619,0,0,1-1.1,2.789,4.189,4.189,0,0,1-2.968,1.021,4.783,4.783,0,0,1-1.93-.411,3.429,3.429,0,0,1-1.432-1.075l.955-1.212a2.883,2.883,0,0,0,2.291,1.1,2.228,2.228,0,0,0,1.585-.544,2.084,2.084,0,0,0,.581-1.6v-.606a2.97,2.97,0,0,1-2.324.971,3.15,3.15,0,0,1-2.577-1.253A5.423,5.423,0,0,1,32.318,35.443Zm2.009.174a3.616,3.616,0,0,0,.552,2.129,1.775,1.775,0,0,0,1.531.776,1.941,1.941,0,0,0,1.81-1.046V33.525A1.913,1.913,0,0,0,36.427,32.5a1.782,1.782,0,0,0-1.548.789A4.049,4.049,0,0,0,34.327,35.617ZM44.454,40H42.437V31.019h2.017ZM42.312,28.686a1.07,1.07,0,0,1,.295-.772,1.113,1.113,0,0,1,.843-.307,1.127,1.127,0,0,1,.847.307,1.062,1.062,0,0,1,.3.772,1.038,1.038,0,0,1-.3.76,1.136,1.136,0,0,1-.847.3,1.122,1.122,0,0,1-.843-.3A1.046,1.046,0,0,1,42.312,28.686Zm6.209,2.333.058,1.038a3.229,3.229,0,0,1,2.615-1.2q2.806,0,2.855,3.212V40H52.032V34.181a1.85,1.85,0,0,0-.369-1.266,1.554,1.554,0,0,0-1.208-.411,1.944,1.944,0,0,0-1.818,1.1V40H46.62V31.019ZM61.47,40a3.113,3.113,0,0,1-.232-.838,3.393,3.393,0,0,1-4.565.232,2.47,2.47,0,0,1-.855-1.909,2.55,2.55,0,0,1,1.067-2.2,5.169,5.169,0,0,1,3.051-.768h1.237v-.589a1.573,1.573,0,0,0-.39-1.116,1.547,1.547,0,0,0-1.187-.419,1.777,1.777,0,0,0-1.129.344,1.066,1.066,0,0,0-.44.876H56.008a2.239,2.239,0,0,1,.49-1.382,3.263,3.263,0,0,1,1.332-1.009,4.68,4.68,0,0,1,1.88-.365,3.769,3.769,0,0,1,2.515.793,2.827,2.827,0,0,1,.963,2.229v4.051a4.591,4.591,0,0,0,.34,1.934V40Zm-2.216-1.453a2.294,2.294,0,0,0,1.125-.291,1.941,1.941,0,0,0,.793-.78V35.783H60.084a2.973,2.973,0,0,0-1.685.39,1.264,1.264,0,0,0-.564,1.1,1.179,1.179,0,0,0,.386.926A1.5,1.5,0,0,0,59.254,38.547ZM76.744,37.2l2.465-6.184h1.976L77.25,40H75.631l-.789-6.143L71.938,40H70.311l-.822-8.981h1.859l.34,6.093,2.839-6.093h1.486Zm8.292,2.963a3.763,3.763,0,0,1-2.03-.589,3.353,3.353,0,0,1-1.27-1.544,4.59,4.59,0,0,1-.311-2.183l.025-.34a6.011,6.011,0,0,1,.8-2.461,4.571,4.571,0,0,1,1.623-1.656,3.945,3.945,0,0,1,2.108-.54,2.942,2.942,0,0,1,2.528,1.255,4.608,4.608,0,0,1,.635,3.184l-.116.865H83.376a2.44,2.44,0,0,0,.432,1.721,1.71,1.71,0,0,0,1.395.67,3.025,3.025,0,0,0,2.341-1.1l1,1.046a3.786,3.786,0,0,1-1.486,1.249A4.426,4.426,0,0,1,85.036,40.166Zm.838-7.7q-1.561-.05-2.341,2.208l3.727.008.033-.174a2.6,2.6,0,0,0,.008-.747,1.527,1.527,0,0,0-.465-.93A1.471,1.471,0,0,0,85.875,32.463Zm12.451,3.088a7.308,7.308,0,0,1-.735,2.478,4.065,4.065,0,0,1-1.411,1.639,3.329,3.329,0,0,1-1.9.506,2.64,2.64,0,0,1-2.266-1.154L91.7,40H89.9l2.208-12.75h1.976l-.9,4.64a3.051,3.051,0,0,1,2.382-1.038,2.55,2.55,0,0,1,2.038.955,4.121,4.121,0,0,1,.776,2.523A11.573,11.573,0,0,1,98.326,35.551Zm-1.893-1.112a2.357,2.357,0,0,0-.374-1.415A1.3,1.3,0,0,0,94.98,32.5a2.314,2.314,0,0,0-2.009,1.146l-.647,3.719a1.567,1.567,0,0,0,1.569,1.17,1.956,1.956,0,0,0,1.639-.764,4.33,4.33,0,0,0,.826-2.225Q96.425,34.837,96.433,34.438Z" transform="translate(-2201 -6815)" fill="#12263f"/>
    <path id="Trazado_608915" data-name="Trazado 608915" d="M16.014,11.518V16h-2.1V3.914h4.624a4.675,4.675,0,0,1,3.217,1.055,3.549,3.549,0,0,1,1.191,2.792,3.431,3.431,0,0,1-1.166,2.767,4.9,4.9,0,0,1-3.266.989Zm0-1.693h2.523a2.485,2.485,0,0,0,1.71-.527,1.937,1.937,0,0,0,.589-1.523,2.09,2.09,0,0,0-.6-1.565,2.3,2.3,0,0,0-1.644-.6H16.014Zm13.273-.963a4.991,4.991,0,0,0-.822-.066A1.85,1.85,0,0,0,26.6,9.857V16H24.58V7.019h1.926l.05,1a2.273,2.273,0,0,1,2.025-1.17,1.888,1.888,0,0,1,.714.116Zm.6,2.565a5.3,5.3,0,0,1,.523-2.378,3.819,3.819,0,0,1,1.469-1.627,4.14,4.14,0,0,1,2.175-.569A3.923,3.923,0,0,1,37,8.023a4.6,4.6,0,0,1,1.224,3.1l.008.473a5.343,5.343,0,0,1-.51,2.374,3.773,3.773,0,0,1-1.461,1.619,4.17,4.17,0,0,1-2.2.573A3.9,3.9,0,0,1,31.026,14.9a4.848,4.848,0,0,1-1.141-3.374ZM31.9,11.6a3.619,3.619,0,0,0,.573,2.171,1.862,1.862,0,0,0,1.594.784,1.842,1.842,0,0,0,1.59-.8,4,4,0,0,0,.569-2.333,3.572,3.572,0,0,0-.585-2.158,1.973,1.973,0,0,0-3.158-.012A3.922,3.922,0,0,0,31.9,11.6Zm7.662-.158a5.34,5.34,0,0,1,.963-3.333,3.085,3.085,0,0,1,2.582-1.258,2.931,2.931,0,0,1,2.308,1V3.25h2.017V16H45.606l-.1-.93a2.973,2.973,0,0,1-2.416,1.1,3.068,3.068,0,0,1-2.552-1.27A5.535,5.535,0,0,1,39.563,11.443Zm2.017.174a3.739,3.739,0,0,0,.527,2.137,1.71,1.71,0,0,0,1.5.768,1.9,1.9,0,0,0,1.81-1.1V9.583A1.876,1.876,0,0,0,43.622,8.5a1.723,1.723,0,0,0-1.511.776A4.163,4.163,0,0,0,41.58,11.617Zm13.4,3.5a3.128,3.128,0,0,1-2.523,1.046,2.788,2.788,0,0,1-2.212-.855,3.637,3.637,0,0,1-.751-2.474V7.019h2.017v5.794q0,1.71,1.419,1.71a1.993,1.993,0,0,0,1.984-1.054V7.019h2.017V16h-1.9Zm7.695-.564a1.824,1.824,0,0,0,1.253-.44,1.5,1.5,0,0,0,.531-1.087h1.9a2.963,2.963,0,0,1-.523,1.565,3.43,3.43,0,0,1-1.328,1.15,3.958,3.958,0,0,1-1.81.423,3.829,3.829,0,0,1-2.988-1.22,4.84,4.84,0,0,1-1.1-3.37v-.208a4.759,4.759,0,0,1,1.1-3.283,3.8,3.8,0,0,1,2.988-1.233,3.69,3.69,0,0,1,2.611.934,3.345,3.345,0,0,1,1.058,2.453h-1.9a1.847,1.847,0,0,0-.527-1.27,1.7,1.7,0,0,0-1.258-.5,1.775,1.775,0,0,0-1.511.71,3.621,3.621,0,0,0-.54,2.154v.324a3.682,3.682,0,0,0,.527,2.179A1.773,1.773,0,0,0,62.673,14.556Zm7.736-9.72V7.019h1.585V8.513H70.409v5.014a1.1,1.1,0,0,0,.2.743.943.943,0,0,0,.726.228,3.107,3.107,0,0,0,.706-.083v1.561a4.968,4.968,0,0,1-1.328.191q-2.324,0-2.324-2.565V8.513H66.914V7.019h1.478V4.835Zm2.5,6.591a5.3,5.3,0,0,1,.523-2.378A3.819,3.819,0,0,1,74.9,7.421a4.14,4.14,0,0,1,2.175-.569,3.923,3.923,0,0,1,2.951,1.17,4.6,4.6,0,0,1,1.224,3.1l.008.473a5.343,5.343,0,0,1-.51,2.374,3.773,3.773,0,0,1-1.461,1.619,4.17,4.17,0,0,1-2.2.573A3.9,3.9,0,0,1,74.049,14.9a4.848,4.848,0,0,1-1.141-3.374Zm2.017.174a3.619,3.619,0,0,0,.573,2.171,1.862,1.862,0,0,0,1.594.784,1.842,1.842,0,0,0,1.59-.8,4,4,0,0,0,.569-2.333,3.572,3.572,0,0,0-.585-2.158,1.973,1.973,0,0,0-3.158-.012A3.922,3.922,0,0,0,74.925,11.6ZM88,13.56a.914.914,0,0,0-.444-.822,4.723,4.723,0,0,0-1.473-.5,7.574,7.574,0,0,1-1.718-.548,2.293,2.293,0,0,1-1.511-2.117,2.391,2.391,0,0,1,.979-1.942,3.872,3.872,0,0,1,2.49-.78,4.029,4.029,0,0,1,2.6.8,2.529,2.529,0,0,1,.992,2.067H87.9a1.243,1.243,0,0,0-.432-.967,1.654,1.654,0,0,0-1.146-.386,1.787,1.787,0,0,0-1.083.307.968.968,0,0,0-.419.822.818.818,0,0,0,.39.722,5.365,5.365,0,0,0,1.577.519,7.466,7.466,0,0,1,1.864.623,2.639,2.639,0,0,1,1,.867,2.212,2.212,0,0,1,.328,1.229,2.34,2.34,0,0,1-1,1.963,4.283,4.283,0,0,1-2.631.751,4.644,4.644,0,0,1-1.967-.4,3.238,3.238,0,0,1-1.345-1.1,2.594,2.594,0,0,1-.481-1.5h1.959a1.421,1.421,0,0,0,.54,1.1,2.1,2.1,0,0,0,1.32.386,2.04,2.04,0,0,0,1.212-.3A.938.938,0,0,0,88,13.56Zm7.6-2.133a5.3,5.3,0,0,1,.523-2.378,3.819,3.819,0,0,1,1.469-1.627,4.14,4.14,0,0,1,2.175-.569,3.923,3.923,0,0,1,2.951,1.17,4.6,4.6,0,0,1,1.224,3.1l.008.473a5.343,5.343,0,0,1-.51,2.374,3.773,3.773,0,0,1-1.461,1.619,4.17,4.17,0,0,1-2.2.573A3.9,3.9,0,0,1,96.735,14.9a4.848,4.848,0,0,1-1.141-3.374Zm2.017.174a3.619,3.619,0,0,0,.573,2.171,1.862,1.862,0,0,0,1.594.784,1.842,1.842,0,0,0,1.59-.8,4,4,0,0,0,.569-2.333,3.572,3.572,0,0,0-.585-2.158,1.973,1.973,0,0,0-3.158-.012A3.922,3.922,0,0,0,97.611,11.6Zm17.307,1.959a.914.914,0,0,0-.444-.822,4.723,4.723,0,0,0-1.473-.5,7.574,7.574,0,0,1-1.718-.548,2.293,2.293,0,0,1-1.511-2.117,2.391,2.391,0,0,1,.979-1.942,3.872,3.872,0,0,1,2.49-.78,4.029,4.029,0,0,1,2.6.8,2.529,2.529,0,0,1,.992,2.067h-2.017a1.243,1.243,0,0,0-.432-.967,1.654,1.654,0,0,0-1.146-.386,1.787,1.787,0,0,0-1.083.307.968.968,0,0,0-.419.822.818.818,0,0,0,.39.722,5.365,5.365,0,0,0,1.577.519,7.466,7.466,0,0,1,1.864.623,2.639,2.639,0,0,1,1,.867,2.212,2.212,0,0,1,.328,1.229,2.34,2.34,0,0,1-1,1.963,4.283,4.283,0,0,1-2.631.751,4.644,4.644,0,0,1-1.967-.4,3.238,3.238,0,0,1-1.345-1.1,2.594,2.594,0,0,1-.481-1.5h1.959a1.421,1.421,0,0,0,.54,1.1,2.1,2.1,0,0,0,1.32.386,2.04,2.04,0,0,0,1.212-.3A.938.938,0,0,0,114.918,13.56Zm7.695,2.606a4.173,4.173,0,0,1-3.109-1.208,4.381,4.381,0,0,1-1.191-3.217v-.249a5.389,5.389,0,0,1,.519-2.4,3.949,3.949,0,0,1,1.457-1.648,3.851,3.851,0,0,1,2.092-.589,3.525,3.525,0,0,1,2.835,1.17,4.949,4.949,0,0,1,1,3.312v.813h-5.869a2.7,2.7,0,0,0,.743,1.76,2.23,2.23,0,0,0,1.639.647,2.731,2.731,0,0,0,2.258-1.121l1.087,1.038a3.631,3.631,0,0,1-1.44,1.249A4.509,4.509,0,0,1,122.613,16.166Zm-.241-7.695a1.7,1.7,0,0,0-1.341.581,3.012,3.012,0,0,0-.652,1.619h3.843v-.149a2.452,2.452,0,0,0-.54-1.531A1.686,1.686,0,0,0,122.372,8.471Zm10.11.39a4.991,4.991,0,0,0-.822-.066,1.85,1.85,0,0,0-1.868,1.063V16h-2.017V7.019H129.7l.05,1a2.273,2.273,0,0,1,2.025-1.17,1.888,1.888,0,0,1,.714.116Zm4.59,4.582,1.9-6.425h2.083L137.944,16h-1.751l-3.138-8.981h2.092ZM144.46,16h-2.017V7.019h2.017ZM142.319,4.686a1.07,1.07,0,0,1,.295-.772,1.113,1.113,0,0,1,.843-.307,1.127,1.127,0,0,1,.847.307,1.062,1.062,0,0,1,.3.772,1.038,1.038,0,0,1-.3.76,1.136,1.136,0,0,1-.847.3,1.122,1.122,0,0,1-.843-.3A1.046,1.046,0,0,1,142.319,4.686Zm8.027,9.87a1.824,1.824,0,0,0,1.253-.44,1.5,1.5,0,0,0,.531-1.087h1.9a2.963,2.963,0,0,1-.523,1.565,3.43,3.43,0,0,1-1.328,1.15,3.958,3.958,0,0,1-1.81.423,3.829,3.829,0,0,1-2.988-1.22,4.84,4.84,0,0,1-1.1-3.37v-.208a4.759,4.759,0,0,1,1.1-3.283,3.8,3.8,0,0,1,2.988-1.233,3.69,3.69,0,0,1,2.611.934,3.345,3.345,0,0,1,1.058,2.453h-1.9a1.847,1.847,0,0,0-.527-1.27,1.7,1.7,0,0,0-1.258-.5,1.775,1.775,0,0,0-1.511.71,3.621,3.621,0,0,0-.54,2.154v.324a3.682,3.682,0,0,0,.527,2.179A1.773,1.773,0,0,0,150.345,14.556ZM157.7,16h-2.017V7.019H157.7ZM155.558,4.686a1.07,1.07,0,0,1,.295-.772,1.113,1.113,0,0,1,.843-.307,1.127,1.127,0,0,1,.847.307,1.062,1.062,0,0,1,.3.772,1.038,1.038,0,0,1-.3.76,1.136,1.136,0,0,1-.847.3,1.122,1.122,0,0,1-.843-.3A1.046,1.046,0,0,1,155.558,4.686Zm3.959,6.74a5.3,5.3,0,0,1,.523-2.378,3.819,3.819,0,0,1,1.469-1.627,4.14,4.14,0,0,1,2.175-.569,3.923,3.923,0,0,1,2.951,1.17,4.6,4.6,0,0,1,1.224,3.1l.008.473a5.343,5.343,0,0,1-.51,2.374,3.773,3.773,0,0,1-1.461,1.619,4.17,4.17,0,0,1-2.2.573,3.9,3.9,0,0,1-3.042-1.266,4.848,4.848,0,0,1-1.141-3.374Zm2.017.174a3.619,3.619,0,0,0,.573,2.171,1.862,1.862,0,0,0,1.594.784,1.842,1.842,0,0,0,1.59-.8,4,4,0,0,0,.569-2.333,3.572,3.572,0,0,0-.585-2.158,1.973,1.973,0,0,0-3.158-.012A3.922,3.922,0,0,0,161.535,11.6Zm13.074,1.959a.914.914,0,0,0-.444-.822,4.723,4.723,0,0,0-1.473-.5,7.574,7.574,0,0,1-1.718-.548,2.293,2.293,0,0,1-1.511-2.117,2.391,2.391,0,0,1,.979-1.942,3.872,3.872,0,0,1,2.49-.78,4.029,4.029,0,0,1,2.6.8,2.529,2.529,0,0,1,.992,2.067h-2.017a1.243,1.243,0,0,0-.432-.967,1.654,1.654,0,0,0-1.146-.386,1.787,1.787,0,0,0-1.083.307.968.968,0,0,0-.419.822.818.818,0,0,0,.39.722,5.365,5.365,0,0,0,1.577.519,7.466,7.466,0,0,1,1.864.623,2.639,2.639,0,0,1,1,.867,2.212,2.212,0,0,1,.328,1.229,2.34,2.34,0,0,1-1,1.963,4.283,4.283,0,0,1-2.631.751,4.644,4.644,0,0,1-1.967-.4,3.238,3.238,0,0,1-1.345-1.1,2.594,2.594,0,0,1-.481-1.5h1.959a1.421,1.421,0,0,0,.54,1.1,2.1,2.1,0,0,0,1.32.386,2.04,2.04,0,0,0,1.212-.3A.938.938,0,0,0,174.609,13.56ZM58.7,35.426a5.3,5.3,0,0,1,.523-2.378,3.819,3.819,0,0,1,1.469-1.627,4.14,4.14,0,0,1,2.175-.569,3.923,3.923,0,0,1,2.951,1.17,4.6,4.6,0,0,1,1.224,3.1l.008.473a5.343,5.343,0,0,1-.51,2.374,3.773,3.773,0,0,1-1.461,1.619,4.17,4.17,0,0,1-2.2.573A3.9,3.9,0,0,1,59.838,38.9,4.848,4.848,0,0,1,58.7,35.526Zm2.017.174a3.619,3.619,0,0,0,.573,2.171,1.862,1.862,0,0,0,1.594.784,1.842,1.842,0,0,0,1.59-.8,4,4,0,0,0,.569-2.333,3.572,3.572,0,0,0-.585-2.158,1.973,1.973,0,0,0-3.158-.012A3.922,3.922,0,0,0,60.714,35.6ZM69.463,40V32.513h-1.37V31.019h1.37V30.2a3.085,3.085,0,0,1,.83-2.308,3.18,3.18,0,0,1,2.324-.813,4.662,4.662,0,0,1,1.129.149L73.7,28.8a3.973,3.973,0,0,0-.772-.066,1.3,1.3,0,0,0-1.444,1.486v.8h1.826v1.494H71.48V40Zm9.073.166a4.173,4.173,0,0,1-3.109-1.208,4.381,4.381,0,0,1-1.191-3.217v-.249a5.389,5.389,0,0,1,.519-2.4,3.949,3.949,0,0,1,1.457-1.648,3.851,3.851,0,0,1,2.092-.589,3.525,3.525,0,0,1,2.835,1.17,4.949,4.949,0,0,1,1,3.312v.813H76.269a2.7,2.7,0,0,0,.743,1.76,2.23,2.23,0,0,0,1.639.647,2.731,2.731,0,0,0,2.258-1.121L82,38.473a3.631,3.631,0,0,1-1.44,1.249A4.509,4.509,0,0,1,78.535,40.166Zm-.241-7.695a1.7,1.7,0,0,0-1.341.581,3.012,3.012,0,0,0-.652,1.619h3.843v-.149a2.452,2.452,0,0,0-.54-1.531A1.686,1.686,0,0,0,78.295,32.471Zm10.11.39a4.992,4.992,0,0,0-.822-.066,1.85,1.85,0,0,0-1.868,1.063V40H83.7V31.019h1.926l.05,1a2.273,2.273,0,0,1,2.025-1.17,1.888,1.888,0,0,1,.714.116Zm4.217-4.026v2.183h1.585v1.494H92.622v5.014a1.1,1.1,0,0,0,.2.743.943.943,0,0,0,.726.228,3.107,3.107,0,0,0,.706-.083v1.561a4.968,4.968,0,0,1-1.328.191q-2.324,0-2.324-2.565V32.513H89.127V31.019H90.6V28.835ZM101.114,40a3.113,3.113,0,0,1-.232-.838,3.393,3.393,0,0,1-4.565.232,2.47,2.47,0,0,1-.855-1.909,2.55,2.55,0,0,1,1.067-2.2,5.169,5.169,0,0,1,3.051-.768h1.237v-.589a1.573,1.573,0,0,0-.39-1.116,1.547,1.547,0,0,0-1.187-.419,1.777,1.777,0,0,0-1.129.344,1.066,1.066,0,0,0-.44.876H95.652a2.239,2.239,0,0,1,.49-1.382,3.263,3.263,0,0,1,1.332-1.009,4.68,4.68,0,0,1,1.88-.365,3.769,3.769,0,0,1,2.515.793,2.827,2.827,0,0,1,.963,2.229v4.051a4.591,4.591,0,0,0,.34,1.934V40ZM98.9,38.547a2.294,2.294,0,0,0,1.125-.291,1.941,1.941,0,0,0,.793-.78V35.783H99.727a2.973,2.973,0,0,0-1.685.39,1.264,1.264,0,0,0-.564,1.1,1.179,1.179,0,0,0,.386.926A1.5,1.5,0,0,0,98.9,38.547Zm5.669-3.1a5.34,5.34,0,0,1,.963-3.333,3.085,3.085,0,0,1,2.582-1.258,2.931,2.931,0,0,1,2.308,1v-4.6h2.017V40H110.61l-.1-.93a2.973,2.973,0,0,1-2.416,1.1,3.068,3.068,0,0,1-2.552-1.27A5.535,5.535,0,0,1,104.567,35.443Zm2.017.174a3.739,3.739,0,0,0,.527,2.137,1.71,1.71,0,0,0,1.5.768,1.9,1.9,0,0,0,1.81-1.1V33.583a1.876,1.876,0,0,0-1.793-1.079,1.723,1.723,0,0,0-1.511.776A4.163,4.163,0,0,0,106.584,35.617Zm7.579-.191a5.3,5.3,0,0,1,.523-2.378,3.819,3.819,0,0,1,1.469-1.627,4.14,4.14,0,0,1,2.175-.569,3.923,3.923,0,0,1,2.951,1.17,4.6,4.6,0,0,1,1.224,3.1l.008.473a5.343,5.343,0,0,1-.51,2.374,3.773,3.773,0,0,1-1.461,1.619,4.17,4.17,0,0,1-2.2.573A3.9,3.9,0,0,1,115.3,38.9a4.848,4.848,0,0,1-1.141-3.374Zm2.017.174a3.619,3.619,0,0,0,.573,2.171,1.862,1.862,0,0,0,1.594.784,1.842,1.842,0,0,0,1.59-.8,4,4,0,0,0,.569-2.333,3.572,3.572,0,0,0-.585-2.158,1.973,1.973,0,0,0-3.158-.012A3.922,3.922,0,0,0,116.179,35.6Zm13.074,1.959a.914.914,0,0,0-.444-.822,4.723,4.723,0,0,0-1.473-.5,7.574,7.574,0,0,1-1.718-.548,2.293,2.293,0,0,1-1.511-2.117,2.391,2.391,0,0,1,.979-1.942,3.872,3.872,0,0,1,2.49-.78,4.029,4.029,0,0,1,2.6.8,2.529,2.529,0,0,1,.992,2.067h-2.017a1.243,1.243,0,0,0-.432-.967,1.654,1.654,0,0,0-1.146-.386,1.787,1.787,0,0,0-1.083.307.968.968,0,0,0-.419.822.818.818,0,0,0,.39.722,5.365,5.365,0,0,0,1.577.519,7.466,7.466,0,0,1,1.864.623,2.639,2.639,0,0,1,1,.867,2.212,2.212,0,0,1,.328,1.229,2.34,2.34,0,0,1-1,1.963,4.283,4.283,0,0,1-2.631.751,4.644,4.644,0,0,1-1.967-.4,3.238,3.238,0,0,1-1.345-1.1,2.594,2.594,0,0,1-.481-1.5h1.959a1.421,1.421,0,0,0,.54,1.1,2.1,2.1,0,0,0,1.32.386,2.04,2.04,0,0,0,1.212-.3A.938.938,0,0,0,129.253,37.56Z" transform="translate(-1984 -6815)" fill="#12263f"/>
    <path id="Trazado_608918" data-name="Trazado 608918" d="M15.168,12.065a4.364,4.364,0,0,1-1.428,3.017,4.867,4.867,0,0,1-3.312,1.083,4.713,4.713,0,0,1-2.544-.685,4.5,4.5,0,0,1-1.7-1.947,7.024,7.024,0,0,1-.623-2.93V9.476A7.075,7.075,0,0,1,6.17,6.462,4.567,4.567,0,0,1,7.909,4.454a4.851,4.851,0,0,1,2.619-.706,4.672,4.672,0,0,1,3.221,1.083A4.527,4.527,0,0,1,15.168,7.9H13.076a2.985,2.985,0,0,0-.76-1.88,2.51,2.51,0,0,0-1.789-.577,2.452,2.452,0,0,0-2.1,1A5,5,0,0,0,7.673,9.38v1.072a5.308,5.308,0,0,0,.7,2.991,2.328,2.328,0,0,0,2.054,1.03,2.715,2.715,0,0,0,1.859-.556,2.9,2.9,0,0,0,.789-1.851Zm6.383-3.2a4.991,4.991,0,0,0-.822-.066,1.85,1.85,0,0,0-1.868,1.063V16H16.845V7.019h1.926l.05,1a2.273,2.273,0,0,1,2.025-1.17,1.888,1.888,0,0,1,.714.116Zm5.072,7.3a4.173,4.173,0,0,1-3.109-1.208,4.381,4.381,0,0,1-1.191-3.217v-.249a5.389,5.389,0,0,1,.519-2.4A3.949,3.949,0,0,1,24.3,7.442a3.851,3.851,0,0,1,2.092-.589,3.525,3.525,0,0,1,2.835,1.17,4.949,4.949,0,0,1,1,3.312v.813H24.357a2.7,2.7,0,0,0,.743,1.76,2.23,2.23,0,0,0,1.639.647A2.731,2.731,0,0,0,29,13.435l1.087,1.038a3.631,3.631,0,0,1-1.44,1.249A4.509,4.509,0,0,1,26.623,16.166Zm-.241-7.695a1.7,1.7,0,0,0-1.341.581,3.012,3.012,0,0,0-.652,1.619h3.843v-.149a2.452,2.452,0,0,0-.54-1.531A1.686,1.686,0,0,0,26.383,8.471ZM37.157,16a3.113,3.113,0,0,1-.232-.838,3.393,3.393,0,0,1-4.565.232,2.47,2.47,0,0,1-.855-1.909,2.55,2.55,0,0,1,1.067-2.2,5.169,5.169,0,0,1,3.051-.768h1.237V9.924a1.573,1.573,0,0,0-.39-1.116,1.547,1.547,0,0,0-1.187-.419,1.777,1.777,0,0,0-1.129.344,1.066,1.066,0,0,0-.44.876H31.7a2.239,2.239,0,0,1,.49-1.382,3.263,3.263,0,0,1,1.332-1.009,4.68,4.68,0,0,1,1.88-.365,3.769,3.769,0,0,1,2.515.793,2.827,2.827,0,0,1,.963,2.229v4.051a4.591,4.591,0,0,0,.34,1.934V16Zm-2.216-1.453a2.294,2.294,0,0,0,1.125-.291,1.941,1.941,0,0,0,.793-.78V11.783H35.771a2.973,2.973,0,0,0-1.685.39,1.264,1.264,0,0,0-.564,1.1,1.179,1.179,0,0,0,.386.926A1.5,1.5,0,0,0,34.941,14.547Zm9.737.008a1.824,1.824,0,0,0,1.253-.44,1.5,1.5,0,0,0,.531-1.087h1.9a2.963,2.963,0,0,1-.523,1.565,3.43,3.43,0,0,1-1.328,1.15,3.958,3.958,0,0,1-1.81.423,3.829,3.829,0,0,1-2.988-1.22,4.84,4.84,0,0,1-1.1-3.37v-.208a4.759,4.759,0,0,1,1.1-3.283,3.8,3.8,0,0,1,2.988-1.233,3.69,3.69,0,0,1,2.611.934,3.345,3.345,0,0,1,1.058,2.453h-1.9a1.847,1.847,0,0,0-.527-1.27,1.7,1.7,0,0,0-1.258-.5,1.775,1.775,0,0,0-1.511.71,3.621,3.621,0,0,0-.54,2.154v.324a3.682,3.682,0,0,0,.527,2.179A1.773,1.773,0,0,0,44.677,14.556ZM52.032,16H50.015V7.019h2.017ZM49.89,4.686a1.071,1.071,0,0,1,.295-.772,1.113,1.113,0,0,1,.843-.307,1.127,1.127,0,0,1,.847.307,1.062,1.062,0,0,1,.3.772,1.038,1.038,0,0,1-.3.76,1.136,1.136,0,0,1-.847.3,1.122,1.122,0,0,1-.843-.3A1.046,1.046,0,0,1,49.89,4.686Zm3.959,6.74a5.3,5.3,0,0,1,.523-2.378,3.819,3.819,0,0,1,1.469-1.627,4.14,4.14,0,0,1,2.175-.569,3.923,3.923,0,0,1,2.951,1.17,4.6,4.6,0,0,1,1.224,3.1l.008.473a5.343,5.343,0,0,1-.51,2.374,3.773,3.773,0,0,1-1.461,1.619,4.17,4.17,0,0,1-2.2.573A3.9,3.9,0,0,1,54.991,14.9a4.848,4.848,0,0,1-1.141-3.374Zm2.017.174a3.619,3.619,0,0,0,.573,2.171,1.862,1.862,0,0,0,1.594.784,1.842,1.842,0,0,0,1.59-.8,4,4,0,0,0,.569-2.333,3.572,3.572,0,0,0-.585-2.158,1.973,1.973,0,0,0-3.158-.012A3.922,3.922,0,0,0,55.867,11.6ZM58.573,3.25h2.3l-2.3,2.515-1.619,0Zm7.205,3.769.058,1.038a3.229,3.229,0,0,1,2.615-1.2q2.806,0,2.855,3.212V16H69.289V10.181a1.85,1.85,0,0,0-.369-1.266A1.554,1.554,0,0,0,67.712,8.5a1.944,1.944,0,0,0-1.818,1.1V16H63.877V7.019Zm11.438,4.424a5.34,5.34,0,0,1,.963-3.333,3.085,3.085,0,0,1,2.582-1.258,2.931,2.931,0,0,1,2.308,1V3.25h2.017V16H83.26l-.1-.93a2.973,2.973,0,0,1-2.416,1.1,3.068,3.068,0,0,1-2.552-1.27A5.535,5.535,0,0,1,77.217,11.443Zm2.017.174a3.739,3.739,0,0,0,.527,2.137,1.71,1.71,0,0,0,1.5.768,1.9,1.9,0,0,0,1.81-1.1V9.583A1.876,1.876,0,0,0,81.276,8.5a1.723,1.723,0,0,0-1.511.776A4.163,4.163,0,0,0,79.234,11.617Zm11.912,4.549a4.173,4.173,0,0,1-3.109-1.208,4.381,4.381,0,0,1-1.191-3.217v-.249a5.389,5.389,0,0,1,.519-2.4,3.949,3.949,0,0,1,1.457-1.648,3.851,3.851,0,0,1,2.092-.589,3.525,3.525,0,0,1,2.835,1.17,4.949,4.949,0,0,1,1,3.312v.813H88.879a2.7,2.7,0,0,0,.743,1.76,2.23,2.23,0,0,0,1.639.647,2.731,2.731,0,0,0,2.258-1.121l1.087,1.038a3.631,3.631,0,0,1-1.44,1.249A4.509,4.509,0,0,1,91.145,16.166ZM90.9,8.471a1.7,1.7,0,0,0-1.341.581,3.012,3.012,0,0,0-.652,1.619h3.843v-.149a2.452,2.452,0,0,0-.54-1.531A1.686,1.686,0,0,0,90.9,8.471ZM98.458,16H96.441V3.25h2.017Zm10.119-1.444a1.824,1.824,0,0,0,1.253-.44,1.5,1.5,0,0,0,.531-1.087h1.9a2.963,2.963,0,0,1-.523,1.565,3.43,3.43,0,0,1-1.328,1.15,3.958,3.958,0,0,1-1.81.423,3.829,3.829,0,0,1-2.988-1.22,4.84,4.84,0,0,1-1.1-3.37v-.208a4.759,4.759,0,0,1,1.1-3.283,3.8,3.8,0,0,1,2.988-1.233,3.69,3.69,0,0,1,2.611.934,3.345,3.345,0,0,1,1.058,2.453h-1.9a1.847,1.847,0,0,0-.527-1.27,1.7,1.7,0,0,0-1.258-.5,1.775,1.775,0,0,0-1.511.71,3.621,3.621,0,0,0-.54,2.154v.324a3.681,3.681,0,0,0,.527,2.179A1.773,1.773,0,0,0,108.577,14.556ZM119.152,16a3.113,3.113,0,0,1-.232-.838,3.393,3.393,0,0,1-4.565.232,2.47,2.47,0,0,1-.855-1.909,2.55,2.55,0,0,1,1.067-2.2,5.169,5.169,0,0,1,3.051-.768h1.237V9.924a1.573,1.573,0,0,0-.39-1.116,1.547,1.547,0,0,0-1.187-.419,1.777,1.777,0,0,0-1.129.344,1.066,1.066,0,0,0-.44.876H113.69a2.239,2.239,0,0,1,.49-1.382,3.263,3.263,0,0,1,1.332-1.009,4.68,4.68,0,0,1,1.88-.365,3.769,3.769,0,0,1,2.515.793,2.827,2.827,0,0,1,.963,2.229v4.051a4.591,4.591,0,0,0,.34,1.934V16Zm-2.216-1.453a2.294,2.294,0,0,0,1.125-.291,1.941,1.941,0,0,0,.793-.78V11.783h-1.087a2.973,2.973,0,0,0-1.685.39,1.264,1.264,0,0,0-.564,1.1,1.179,1.179,0,0,0,.386.926A1.5,1.5,0,0,0,116.936,14.547Zm10.75-5.686a4.991,4.991,0,0,0-.822-.066A1.85,1.85,0,0,0,125,9.857V16h-2.017V7.019H124.9l.05,1a2.273,2.273,0,0,1,2.025-1.17,1.888,1.888,0,0,1,.714.116Zm5.977,0a4.991,4.991,0,0,0-.822-.066,1.85,1.85,0,0,0-1.868,1.063V16h-2.017V7.019h1.926l.05,1a2.273,2.273,0,0,1,2.025-1.17,1.888,1.888,0,0,1,.714.116Zm.6,2.565a5.3,5.3,0,0,1,.523-2.378,3.819,3.819,0,0,1,1.469-1.627,4.14,4.14,0,0,1,2.175-.569,3.923,3.923,0,0,1,2.951,1.17,4.6,4.6,0,0,1,1.224,3.1l.008.473a5.343,5.343,0,0,1-.51,2.374,3.773,3.773,0,0,1-1.461,1.619,4.17,4.17,0,0,1-2.2.573A3.9,3.9,0,0,1,135.4,14.9a4.848,4.848,0,0,1-1.141-3.374Zm2.017.174a3.619,3.619,0,0,0,.573,2.171,1.862,1.862,0,0,0,1.594.784,1.842,1.842,0,0,0,1.59-.8,4,4,0,0,0,.569-2.333,3.572,3.572,0,0,0-.585-2.158,1.973,1.973,0,0,0-3.158-.012A3.922,3.922,0,0,0,136.277,11.6ZM29.861,35.443a5.34,5.34,0,0,1,.963-3.333,3.085,3.085,0,0,1,2.582-1.258,2.931,2.931,0,0,1,2.308,1v-4.6H37.73V40H35.9l-.1-.93a2.973,2.973,0,0,1-2.416,1.1,3.068,3.068,0,0,1-2.552-1.27A5.535,5.535,0,0,1,29.861,35.443Zm2.017.174a3.739,3.739,0,0,0,.527,2.137,1.71,1.71,0,0,0,1.5.768,1.9,1.9,0,0,0,1.81-1.1V33.583A1.876,1.876,0,0,0,33.92,32.5a1.723,1.723,0,0,0-1.511.776A4.163,4.163,0,0,0,31.878,35.617Zm11.912,4.549a4.173,4.173,0,0,1-3.109-1.208,4.381,4.381,0,0,1-1.191-3.217v-.249a5.389,5.389,0,0,1,.519-2.4,3.949,3.949,0,0,1,1.457-1.648,3.851,3.851,0,0,1,2.092-.589,3.525,3.525,0,0,1,2.835,1.17,4.949,4.949,0,0,1,1,3.312v.813H41.523a2.7,2.7,0,0,0,.743,1.76,2.23,2.23,0,0,0,1.639.647,2.731,2.731,0,0,0,2.258-1.121l1.087,1.038a3.631,3.631,0,0,1-1.44,1.249A4.509,4.509,0,0,1,43.789,40.166Zm-.241-7.695a1.7,1.7,0,0,0-1.341.581,3.012,3.012,0,0,0-.652,1.619H45.4v-.149a2.452,2.452,0,0,0-.54-1.531A1.686,1.686,0,0,0,43.549,32.471ZM56.88,38.556a1.824,1.824,0,0,0,1.253-.44,1.5,1.5,0,0,0,.531-1.087h1.9a2.963,2.963,0,0,1-.523,1.565,3.43,3.43,0,0,1-1.328,1.15,3.958,3.958,0,0,1-1.81.423,3.829,3.829,0,0,1-2.988-1.22,4.84,4.84,0,0,1-1.1-3.37v-.208a4.759,4.759,0,0,1,1.1-3.283A3.8,3.8,0,0,1,56.9,30.853a3.69,3.69,0,0,1,2.611.934,3.345,3.345,0,0,1,1.058,2.453h-1.9a1.847,1.847,0,0,0-.527-1.27,1.7,1.7,0,0,0-1.258-.5,1.775,1.775,0,0,0-1.511.71,3.621,3.621,0,0,0-.54,2.154v.324a3.682,3.682,0,0,0,.527,2.179A1.773,1.773,0,0,0,56.88,38.556Zm4.831-3.129a5.3,5.3,0,0,1,.523-2.378A3.819,3.819,0,0,1,63.7,31.421a4.14,4.14,0,0,1,2.175-.569,3.923,3.923,0,0,1,2.951,1.17,4.6,4.6,0,0,1,1.224,3.1l.008.473a5.343,5.343,0,0,1-.51,2.374,3.773,3.773,0,0,1-1.461,1.619,4.17,4.17,0,0,1-2.2.573A3.9,3.9,0,0,1,62.852,38.9a4.848,4.848,0,0,1-1.141-3.374Zm2.017.174a3.619,3.619,0,0,0,.573,2.171,1.862,1.862,0,0,0,1.594.784,1.842,1.842,0,0,0,1.59-.8,4,4,0,0,0,.569-2.333,3.572,3.572,0,0,0-.585-2.158,1.973,1.973,0,0,0-3.158-.012A3.922,3.922,0,0,0,63.728,35.6Zm9.936-4.582.058.938a3.232,3.232,0,0,1,2.59-1.1,2.483,2.483,0,0,1,2.465,1.378,3.186,3.186,0,0,1,2.756-1.378,2.8,2.8,0,0,1,2.212.822,3.618,3.618,0,0,1,.743,2.424V40H82.471V34.156A1.786,1.786,0,0,0,82.1,32.9a1.635,1.635,0,0,0-1.237-.4,1.679,1.679,0,0,0-1.125.369,1.948,1.948,0,0,0-.61.967L79.134,40H77.117V34.09A1.439,1.439,0,0,0,75.5,32.5a1.776,1.776,0,0,0-1.718.988V40H71.763V31.019ZM94.424,35.6a5.348,5.348,0,0,1-.946,3.324,3.287,3.287,0,0,1-4.906.27v4.258H86.555V31.019h1.859l.083.913a2.963,2.963,0,0,1,2.416-1.079,3.062,3.062,0,0,1,2.577,1.224,5.49,5.49,0,0,1,.934,3.4Zm-2.009-.174a3.746,3.746,0,0,0-.535-2.133,1.741,1.741,0,0,0-1.531-.789,1.856,1.856,0,0,0-1.776,1.021V37.51a1.873,1.873,0,0,0,1.793,1.046,1.739,1.739,0,0,0,1.507-.776A4.124,4.124,0,0,0,92.415,35.426Zm8.417-2.565a4.992,4.992,0,0,0-.822-.066,1.85,1.85,0,0,0-1.868,1.063V40H96.126V31.019h1.926l.05,1a2.273,2.273,0,0,1,2.025-1.17,1.888,1.888,0,0,1,.714.116ZM107.224,40a3.113,3.113,0,0,1-.232-.838,3.393,3.393,0,0,1-4.565.232,2.47,2.47,0,0,1-.855-1.909,2.55,2.55,0,0,1,1.067-2.2,5.169,5.169,0,0,1,3.051-.768h1.237v-.589a1.573,1.573,0,0,0-.39-1.116,1.547,1.547,0,0,0-1.187-.419,1.777,1.777,0,0,0-1.129.344,1.066,1.066,0,0,0-.44.876h-2.017a2.239,2.239,0,0,1,.49-1.382,3.263,3.263,0,0,1,1.332-1.009,4.68,4.68,0,0,1,1.88-.365,3.769,3.769,0,0,1,2.515.793,2.827,2.827,0,0,1,.963,2.229v4.051a4.591,4.591,0,0,0,.34,1.934V40Zm-2.216-1.453a2.294,2.294,0,0,0,1.125-.291,1.941,1.941,0,0,0,.793-.78V35.783h-1.087a2.973,2.973,0,0,0-1.685.39,1.264,1.264,0,0,0-.564,1.1,1.179,1.179,0,0,0,.386.926A1.5,1.5,0,0,0,105.008,38.547Zm11.082-.988a.914.914,0,0,0-.444-.822,4.723,4.723,0,0,0-1.473-.5,7.574,7.574,0,0,1-1.718-.548,2.293,2.293,0,0,1-1.511-2.117,2.391,2.391,0,0,1,.979-1.942,3.872,3.872,0,0,1,2.49-.78,4.029,4.029,0,0,1,2.6.8,2.529,2.529,0,0,1,.992,2.067H115.99a1.243,1.243,0,0,0-.432-.967,1.654,1.654,0,0,0-1.146-.386,1.787,1.787,0,0,0-1.083.307.968.968,0,0,0-.419.822.818.818,0,0,0,.39.722,5.365,5.365,0,0,0,1.577.519,7.466,7.466,0,0,1,1.864.623,2.639,2.639,0,0,1,1,.867,2.212,2.212,0,0,1,.328,1.229,2.34,2.34,0,0,1-1,1.963,4.283,4.283,0,0,1-2.631.751,4.644,4.644,0,0,1-1.967-.4,3.238,3.238,0,0,1-1.345-1.1,2.594,2.594,0,0,1-.481-1.5H112.6a1.421,1.421,0,0,0,.54,1.1,2.1,2.1,0,0,0,1.32.386,2.04,2.04,0,0,0,1.212-.3A.938.938,0,0,0,116.089,37.56Z" transform="translate(-1963 -6658)" fill="#12263f"/>
    <path id="Trazado_608919" data-name="Trazado 608919" d="M41.767,10.878H36.9V16H34.8V3.914h7.678V5.607H36.9V9.2h4.864Zm1.627.548a5.3,5.3,0,0,1,.523-2.378,3.819,3.819,0,0,1,1.469-1.627,4.14,4.14,0,0,1,2.175-.569,3.923,3.923,0,0,1,2.951,1.17,4.6,4.6,0,0,1,1.224,3.1l.008.473a5.343,5.343,0,0,1-.51,2.374,3.773,3.773,0,0,1-1.461,1.619,4.17,4.17,0,0,1-2.2.573A3.9,3.9,0,0,1,44.535,14.9a4.848,4.848,0,0,1-1.141-3.374Zm2.017.174a3.619,3.619,0,0,0,.573,2.171,1.862,1.862,0,0,0,1.594.784,1.842,1.842,0,0,0,1.59-.8,4,4,0,0,0,.569-2.333,3.572,3.572,0,0,0-.585-2.158,1.973,1.973,0,0,0-3.158-.012A3.922,3.922,0,0,0,45.411,11.6ZM58.153,8.861a4.991,4.991,0,0,0-.822-.066,1.85,1.85,0,0,0-1.868,1.063V16H53.446V7.019h1.926l.05,1a2.273,2.273,0,0,1,2.025-1.17,1.888,1.888,0,0,1,.714.116Zm3.171-1.843.058.938a3.232,3.232,0,0,1,2.59-1.1A2.483,2.483,0,0,1,66.437,8.23a3.186,3.186,0,0,1,2.756-1.378,2.8,2.8,0,0,1,2.212.822,3.618,3.618,0,0,1,.743,2.424V16H70.131V10.156A1.786,1.786,0,0,0,69.757,8.9a1.635,1.635,0,0,0-1.237-.4,1.679,1.679,0,0,0-1.125.369,1.948,1.948,0,0,0-.61.967L66.794,16H64.777V10.09A1.439,1.439,0,0,0,63.158,8.5a1.776,1.776,0,0,0-1.718.988V16H59.423V7.019ZM79.585,16a3.113,3.113,0,0,1-.232-.838,3.393,3.393,0,0,1-4.565.232,2.47,2.47,0,0,1-.855-1.909A2.55,2.55,0,0,1,75,11.281a5.169,5.169,0,0,1,3.051-.768h1.237V9.924a1.573,1.573,0,0,0-.39-1.116,1.547,1.547,0,0,0-1.187-.419,1.777,1.777,0,0,0-1.129.344,1.066,1.066,0,0,0-.44.876H74.124a2.239,2.239,0,0,1,.49-1.382,3.263,3.263,0,0,1,1.332-1.009,4.68,4.68,0,0,1,1.88-.365,3.769,3.769,0,0,1,2.515.793A2.827,2.827,0,0,1,81.3,9.874v4.051a4.591,4.591,0,0,0,.34,1.934V16Zm-2.216-1.453a2.294,2.294,0,0,0,1.125-.291,1.941,1.941,0,0,0,.793-.78V11.783H78.2a2.973,2.973,0,0,0-1.685.39,1.264,1.264,0,0,0-.564,1.1,1.179,1.179,0,0,0,.386.926A1.5,1.5,0,0,0,77.369,14.547Zm11.082-.988a.914.914,0,0,0-.444-.822,4.723,4.723,0,0,0-1.473-.5,7.574,7.574,0,0,1-1.718-.548A2.293,2.293,0,0,1,83.3,9.575a2.391,2.391,0,0,1,.979-1.942,3.872,3.872,0,0,1,2.49-.78,4.029,4.029,0,0,1,2.6.8,2.529,2.529,0,0,1,.992,2.067H88.351a1.243,1.243,0,0,0-.432-.967,1.654,1.654,0,0,0-1.146-.386,1.787,1.787,0,0,0-1.083.307.968.968,0,0,0-.419.822.818.818,0,0,0,.39.722,5.365,5.365,0,0,0,1.577.519,7.466,7.466,0,0,1,1.864.623,2.639,2.639,0,0,1,1,.867,2.212,2.212,0,0,1,.328,1.229,2.34,2.34,0,0,1-1,1.963,4.283,4.283,0,0,1-2.631.751,4.644,4.644,0,0,1-1.967-.4,3.238,3.238,0,0,1-1.345-1.1,2.594,2.594,0,0,1-.481-1.5h1.959a1.421,1.421,0,0,0,.54,1.1,2.1,2.1,0,0,0,1.32.386,2.04,2.04,0,0,0,1.212-.3A.938.938,0,0,0,88.451,13.56Zm7.6-2.117a5.34,5.34,0,0,1,.963-3.333A3.085,3.085,0,0,1,99.59,6.853a2.931,2.931,0,0,1,2.308,1V3.25h2.017V16h-1.826l-.1-.93a2.973,2.973,0,0,1-2.416,1.1,3.068,3.068,0,0,1-2.552-1.27A5.535,5.535,0,0,1,96.046,11.443Zm2.017.174a3.739,3.739,0,0,0,.527,2.137,1.71,1.71,0,0,0,1.5.768,1.9,1.9,0,0,0,1.81-1.1V9.583A1.876,1.876,0,0,0,100.1,8.5a1.723,1.723,0,0,0-1.511.776A4.163,4.163,0,0,0,98.063,11.617Zm11.912,4.549a4.173,4.173,0,0,1-3.109-1.208,4.381,4.381,0,0,1-1.191-3.217v-.249a5.389,5.389,0,0,1,.519-2.4,3.949,3.949,0,0,1,1.457-1.648,3.851,3.851,0,0,1,2.092-.589,3.525,3.525,0,0,1,2.835,1.17,4.949,4.949,0,0,1,1,3.312v.813h-5.869a2.7,2.7,0,0,0,.743,1.76,2.23,2.23,0,0,0,1.639.647,2.731,2.731,0,0,0,2.258-1.121l1.087,1.038A3.631,3.631,0,0,1,112,15.722,4.509,4.509,0,0,1,109.975,16.166Zm-.241-7.695a1.7,1.7,0,0,0-1.341.581,3.012,3.012,0,0,0-.652,1.619h3.843v-.149a2.452,2.452,0,0,0-.54-1.531A1.686,1.686,0,0,0,109.734,8.471ZM127.24,11.6a5.348,5.348,0,0,1-.946,3.324,3.287,3.287,0,0,1-4.906.27v4.258h-2.017V7.019h1.859l.083.913a2.963,2.963,0,0,1,2.416-1.079,3.062,3.062,0,0,1,2.577,1.224,5.49,5.49,0,0,1,.934,3.4Zm-2.009-.174a3.746,3.746,0,0,0-.535-2.133,1.741,1.741,0,0,0-1.531-.789,1.856,1.856,0,0,0-1.776,1.021V13.51a1.873,1.873,0,0,0,1.793,1.046,1.739,1.739,0,0,0,1.507-.776A4.124,4.124,0,0,0,125.231,11.426ZM134.313,16a3.113,3.113,0,0,1-.232-.838,3.393,3.393,0,0,1-4.565.232,2.47,2.47,0,0,1-.855-1.909,2.55,2.55,0,0,1,1.067-2.2,5.169,5.169,0,0,1,3.051-.768h1.237V9.924a1.573,1.573,0,0,0-.39-1.116,1.547,1.547,0,0,0-1.187-.419,1.777,1.777,0,0,0-1.129.344,1.066,1.066,0,0,0-.44.876h-2.017a2.239,2.239,0,0,1,.49-1.382,3.263,3.263,0,0,1,1.332-1.009,4.68,4.68,0,0,1,1.88-.365,3.769,3.769,0,0,1,2.515.793,2.827,2.827,0,0,1,.963,2.229v4.051a4.591,4.591,0,0,0,.34,1.934V16ZM132.1,14.547a2.294,2.294,0,0,0,1.125-.291,1.941,1.941,0,0,0,.793-.78V11.783h-1.087a2.973,2.973,0,0,0-1.685.39,1.264,1.264,0,0,0-.564,1.1,1.179,1.179,0,0,0,.386.926A1.5,1.5,0,0,0,132.1,14.547Zm5.694-3.1a5.253,5.253,0,0,1,.984-3.341,3.157,3.157,0,0,1,2.611-1.249A2.958,2.958,0,0,1,143.8,7.923l.091-.9h1.818v8.708a3.619,3.619,0,0,1-1.1,2.789,4.189,4.189,0,0,1-2.968,1.021,4.783,4.783,0,0,1-1.93-.411,3.429,3.429,0,0,1-1.432-1.075l.955-1.212a2.883,2.883,0,0,0,2.291,1.1,2.228,2.228,0,0,0,1.585-.544,2.084,2.084,0,0,0,.581-1.6v-.606a2.97,2.97,0,0,1-2.324.971,3.15,3.15,0,0,1-2.577-1.253A5.423,5.423,0,0,1,137.791,11.443Zm2.009.174a3.616,3.616,0,0,0,.552,2.129,1.775,1.775,0,0,0,1.531.776,1.941,1.941,0,0,0,1.81-1.046V9.525A1.913,1.913,0,0,0,141.9,8.5a1.782,1.782,0,0,0-1.548.789A4.049,4.049,0,0,0,139.8,11.617Zm7.6-.191a5.3,5.3,0,0,1,.523-2.378A3.819,3.819,0,0,1,149.4,7.421a4.14,4.14,0,0,1,2.175-.569,3.923,3.923,0,0,1,2.951,1.17,4.6,4.6,0,0,1,1.224,3.1l.008.473a5.343,5.343,0,0,1-.51,2.374,3.773,3.773,0,0,1-1.461,1.619,4.17,4.17,0,0,1-2.2.573,3.9,3.9,0,0,1-3.042-1.266,4.848,4.848,0,0,1-1.141-3.374Zm2.017.174a3.619,3.619,0,0,0,.573,2.171,1.862,1.862,0,0,0,1.594.784,1.842,1.842,0,0,0,1.59-.8,4,4,0,0,0,.569-2.333,3.572,3.572,0,0,0-.585-2.158A1.973,1.973,0,0,0,150,9.256,3.922,3.922,0,0,0,149.42,11.6Z" transform="translate(-2240 -6649)" fill="#12263f"/>
    <g id="Grupo_1016800" data-name="Grupo 1016800" transform="translate(-2199 -7169)">
      <g id="Grupo_1016795" data-name="Grupo 1016795" clip-path="url(#clip-path)">
        <path id="Trazado_608677" data-name="Trazado 608677" d="M117.879,336.828H14.9a5.9,5.9,0,0,1-5.9-5.9v-9.9H123.781v9.9a5.9,5.9,0,0,1-5.9,5.9" transform="translate(-6.909 -246.437)" fill="#c0e3f0"/>
        <path id="Trazado_608678" data-name="Trazado 608678" d="M118.963,12.084V83.651A20.246,20.246,0,0,1,118,86.605,9.337,9.337,0,0,1,109,92.017q-15.8.008-31.6,0H75.891l1.49,11.9h1.37c2.4,0,4.8-.016,7.2.007,1.417.014,2.13.53,2.159,1.728.064,2.592.045,5.187,0,7.78a1.577,1.577,0,0,1-1.618,1.638c-.423.036-.851.035-1.276.035q-25.732,0-51.465,0c-.349,0-.7.013-1.045-.01-1.26-.085-1.862-.622-1.887-1.882q-.072-3.658,0-7.319c.026-1.386.68-1.955,2.176-1.972,2.439-.026,4.879-.008,7.319-.008h1.273l1.482-11.9H27.639A9.422,9.422,0,0,1,26.595,92a1.691,1.691,0,0,1-1.637-1.658,1.711,1.711,0,0,1,1.634-1.778,10.717,10.717,0,0,1,1.277-.026H108.26c.5,0,1.008.01,1.51-.017a5.647,5.647,0,0,0,5.51-4.766,57.046,57.046,0,0,0,.059-7.015H3.485c0,1.832-.006,3.571,0,5.31.016,4.045,2.465,6.476,6.54,6.488,2.982.008,5.964-.007,8.945.006,1.378.006,2.164.648,2.177,1.721s-.779,1.75-2.135,1.755c-3.137.013-6.274.03-9.41,0a8.868,8.868,0,0,1-7.669-3.851A25.075,25.075,0,0,1,0,83.651V12.084a24.706,24.706,0,0,1,1.877-4.3c1.9-2.8,4.751-3.942,8.1-3.925,1.77.009,3.54,0,5.326,0,.037-.375.074-.6.079-.83C15.446.29,15.741,0,18.5,0H53.56q6.5,0,13,0c1.764,0,2.342.592,2.375,2.378.008.452,0,.905,0,1.48H70.57q19.039,0,38.079-.011a10.241,10.241,0,0,1,7.345,2.6,10.926,10.926,0,0,1,2.97,5.637M57.471,73.016h42.579V26.653H57.471Zm-3.573.07V44.38q0-9.407,0-18.815c0-1.922.55-2.463,2.5-2.479.89-.007,1.781,0,2.671,0h6.29V3.557H18.933V73.086ZM69.012,15.1v7.982h31.4c2.813,0,3.173.354,3.173,3.116q0,22.711,0,45.421v1.467h4.123V15.1Zm46.466,57.992v-1.3q0-28.806,0-57.611c0-4.472-2.327-6.828-6.771-6.83q-19.222-.009-38.444,0c-.41,0-.82.034-1.261.054v4.163h39.517c2.318,0,2.76.448,2.76,2.792q0,28.631,0,57.263v1.472ZM15.319,7.346c-1.764,0-3.423,0-5.082,0-4.393.015-6.751,2.362-6.752,6.731q0,28.854,0,57.708v1.292h4.2V71.628q0-28.68,0-57.36c0-2.234.472-2.7,2.734-2.7,1.615,0,3.229,0,4.9,0Zm-.009,7.787H11.257V73.093H15.31Zm58.547,88.718L72.383,92.084H65.065c0,1.875.014,3.686,0,5.5-.015,1.5-.625,2.108-2.125,2.12-2.246.018-4.492.012-6.737,0-1.724-.007-2.289-.576-2.3-2.3-.009-1.767,0-3.533,0-5.3H46.574L45.11,103.851Zm-39.5,7.7H84.582V107.5H34.357ZM61.485,92.1H57.474v4.1h4.011Z" transform="translate(0 0)"/>
        <path id="Trazado_608679" data-name="Trazado 608679" d="M247.348,114.711h42.579v46.363H247.348Zm28.037,26.86c.968,0,1.935,0,2.9,0,1.935-.007,3.87.012,5.8-.041a1.687,1.687,0,0,0,.19-3.347,6.722,6.722,0,0,0-1.151-.092q-7.779-.008-15.558,0a5.076,5.076,0,0,0-1.488.173,1.64,1.64,0,0,0-1.009,2.159,1.833,1.833,0,0,0,1.949,1.147c2.786-.007,5.573,0,8.36,0M275.34,157c2.593,0,5.186.009,7.779-.008a4.992,4.992,0,0,0,1.486-.178,1.38,1.38,0,0,0,1.037-1.7,3.658,3.658,0,0,0-1.219-1.491c-.213-.183-.671-.1-1.017-.1q-8.069-.007-16.138,0a4.629,4.629,0,0,0-.924.065,1.452,1.452,0,0,0-1.328,1.621,3.165,3.165,0,0,0,1.2,1.62c.3.244.89.167,1.35.17,2.593.013,5.186.007,7.779.007m-6.755-34.654H274.5c.5,0,1.007.019,1.508-.009,1.316-.074,2.005-.7,1.983-1.78-.022-1.031-.689-1.612-1.948-1.689-.193-.012-.387-.007-.58-.007q-6.846,0-13.693,0a8.092,8.092,0,0,0-1.155.072,1.679,1.679,0,0,0-.031,3.312,7.407,7.407,0,0,0,1.268.093c2.244.009,4.487,0,6.73,0m-13.371,14.045c-.517-.4-.854-.855-1.254-.919a2.532,2.532,0,0,0-1.79.22c-.4.328-.767,1.378-.553,1.663a19.59,19.59,0,0,0,3,3.109,1.57,1.57,0,0,0,1.479-.22q3.187-3.028,6.217-6.217a1.464,1.464,0,0,0-.183-2.1,1.6,1.6,0,0,0-2.112-.258,4.644,4.644,0,0,0-.876.748c-1.3,1.31-2.6,2.631-3.925,3.975m-.021,15.435c-.3-.277-.467-.44-.643-.586a1.756,1.756,0,0,0-2.583-.07,1.734,1.734,0,0,0,.187,2.577c.445.481.918.937,1.389,1.394,1.169,1.133,2.024,1.147,3.176.01q2.555-2.519,5.076-5.073c.98-.991,1.088-1.957.35-2.74-.763-.809-1.8-.717-2.817.3-1.365,1.358-2.706,2.74-4.134,4.19m15.38-2.546c1.2,0,2.393.036,3.587-.01,1.235-.047,1.916-.693,1.925-1.712a1.693,1.693,0,0,0-1.9-1.736q-3.644-.067-7.291,0a1.734,1.734,0,1,0-.028,3.446c1.233.048,2.468.011,3.7.013m-.084-15.411c1.235,0,2.471.023,3.7-.007a1.72,1.72,0,0,0,1.89-1.618,1.653,1.653,0,0,0-1.694-1.817q-3.875-.1-7.755.007a1.637,1.637,0,0,0-1.671,1.73,1.708,1.708,0,0,0,1.82,1.694c1.234.037,2.47.009,3.7.012" transform="translate(-189.877 -88.058)" fill="#fff198"/>
        <path id="Trazado_608680" data-name="Trazado 608680" d="M116.449,84.839H81.483V15.31H127.91V34.837h-6.29c-.89,0-1.781-.006-2.671,0-1.948.016-2.5.557-2.5,2.479q-.006,9.408,0,18.815V84.839M98.9,80.695c3.674,0,7.348.014,11.022-.006,1.692-.009,2.311-.642,2.318-2.328q.021-5.163,0-10.326c-.005-1.78-.6-2.376-2.365-2.378q-10.906-.008-21.812,0c-1.855,0-2.423.56-2.431,2.424q-.02,5.047,0,10.094c.006,1.979.562,2.516,2.593,2.519q5.337.01,10.674,0m-.115-25.033c3.713,0,7.425.007,11.138,0,1.684,0,2.31-.629,2.317-2.321q.021-5.163,0-10.326c-.005-1.765-.62-2.4-2.365-2.4q-10.964-.015-21.928,0c-1.681,0-2.3.629-2.311,2.332q-.03,5.163,0,10.326c.008,1.828.6,2.389,2.476,2.392q5.337.008,10.674,0m5.83-25.049c4.37,0,8.741.008,13.111,0,1.575,0,2.186-.608,2.2-2.165q.028-3.364,0-6.73c-.01-1.623-.635-2.268-2.246-2.27q-12.995-.015-25.989,0c-1.55,0-2.179.653-2.19,2.2-.015,2.2-.01,4.409,0,6.614.006,1.8.55,2.35,2.354,2.354q6.381.011,12.762,0M93.224,59.865c-1.817,0-3.633-.016-5.45.005-1.343.016-2.124.712-2.089,1.8.035,1.041.788,1.67,2.085,1.675q5.391.019,10.783,0c1.284,0,2.06-.648,2.1-1.671.038-1.075-.758-1.786-2.092-1.8-1.778-.022-3.556-.005-5.334-.005M93.1,38.32c1.816,0,3.632.017,5.447-.006,1.3-.016,2.06-.642,2.1-1.661.039-1.065-.742-1.794-2.091-1.8q-5.389-.043-10.779,0c-1.373.011-2.123.71-2.088,1.8.033,1.044.755,1.65,2.081,1.668,1.777.024,3.554.006,5.332.006" transform="translate(-62.55 -11.753)" fill="#dadada"/>
        <path id="Trazado_608681" data-name="Trazado 608681" d="M297.018,65h38.7v57.986H331.6V76.1c0-2.762-.36-3.116-3.173-3.116h-31.4Z" transform="translate(-228.006 -49.896)" fill="#fff"/>
        <path id="Trazado_608682" data-name="Trazado 608682" d="M343.451,97.362h-4.2V95.89q0-28.631,0-57.263c0-2.344-.441-2.792-2.76-2.792H296.974V31.671c.44-.02.85-.054,1.26-.054q19.222,0,38.444,0c4.444,0,6.771,2.358,6.771,6.83q0,28.806,0,57.611v1.3" transform="translate(-227.972 -24.268)" fill="#97c2db"/>
        <path id="Trazado_608683" data-name="Trazado 608683" d="M26.831,31.612v4.22c-1.672,0-3.287,0-4.9,0-2.262,0-2.733.467-2.734,2.7q0,28.68,0,57.36v1.451H15V96.052Q15,67.2,15,38.344c0-4.369,2.359-6.716,6.751-6.731,1.659-.006,3.318,0,5.082,0" transform="translate(-11.512 -24.266)" fill="#97c2db"/>
        <rect id="Rectángulo_347320" data-name="Rectángulo 347320" width="4.054" height="57.961" transform="translate(11.257 15.133)" fill="#fff"/>
        <path id="Trazado_608684" data-name="Trazado 608684" d="M222.893,408.084H194.145l1.464-11.746h7.324c0,1.762-.007,3.529,0,5.3.009,1.725.574,2.294,2.3,2.3,2.246.01,4.492.015,6.737,0,1.5-.012,2.11-.623,2.125-2.12.018-1.811,0-3.621,0-5.5h7.318l1.475,11.767" transform="translate(-149.035 -304.233)" fill="#c0e3f0"/>
        <rect id="Rectángulo_347321" data-name="Rectángulo 347321" width="50.224" height="4.057" transform="translate(34.357 107.497)" fill="#c0e3f0"/>
        <rect id="Rectángulo_347322" data-name="Rectángulo 347322" width="4.011" height="4.095" transform="translate(57.474 92.1)" fill="#fff"/>
        <path id="Trazado_608685" data-name="Trazado 608685" d="M237.45,342.524a5.57,5.57,0,1,1,5.7-5.367,5.562,5.562,0,0,1-5.7,5.367m2.217-5.54a2.085,2.085,0,1,0-4.169.026,2.085,2.085,0,0,0,4.169-.026" transform="translate(-178.101 -254.387)"/>
        <path id="Trazado_608686" data-name="Trazado 608686" d="M333.582,218.795c-2.786,0-5.573,0-8.359,0a1.833,1.833,0,0,1-1.95-1.147,1.64,1.64,0,0,1,1.009-2.159,5.087,5.087,0,0,1,1.488-.173q7.779-.017,15.558,0a6.726,6.726,0,0,1,1.152.092,1.687,1.687,0,0,1-.191,3.347c-1.933.054-3.869.034-5.8.041-.967,0-1.935,0-2.9,0" transform="translate(-248.074 -165.283)"/>
        <path id="Trazado_608687" data-name="Trazado 608687" d="M333.64,285.158c-2.593,0-5.186.007-7.779-.006-.46,0-1.05.074-1.35-.17a3.164,3.164,0,0,1-1.2-1.619,1.452,1.452,0,0,1,1.328-1.621,4.644,4.644,0,0,1,.924-.065q8.069-.006,16.138,0c.347,0,.8-.081,1.017.1a3.656,3.656,0,0,1,1.219,1.49,1.38,1.38,0,0,1-1.037,1.7,4.993,4.993,0,0,1-1.486.177c-2.593.016-5.186.008-7.779.008" transform="translate(-248.177 -216.215)"/>
        <path id="Trazado_608688" data-name="Trazado 608688" d="M307.742,136.054c-2.243,0-4.487,0-6.73,0a7.405,7.405,0,0,1-1.268-.093,1.679,1.679,0,0,1,.031-3.312,8.062,8.062,0,0,1,1.155-.072q6.846-.007,13.693,0c.193,0,.387-.005.58.007,1.259.077,1.927.658,1.948,1.689.023,1.076-.667,1.706-1.983,1.78-.5.028-1.005.009-1.508.009h-5.918" transform="translate(-229.034 -101.766)"/>
        <path id="Trazado_608689" data-name="Trazado 608689" d="M269.111,191.484c1.326-1.345,2.62-2.665,3.925-3.975a4.628,4.628,0,0,1,.876-.748,1.6,1.6,0,0,1,2.112.258,1.464,1.464,0,0,1,.183,2.1q-3.022,3.192-6.217,6.217a1.572,1.572,0,0,1-1.479.22,19.6,19.6,0,0,1-3-3.109c-.214-.286.151-1.335.553-1.663a2.532,2.532,0,0,1,1.79-.22c.4.063.737.521,1.254.919" transform="translate(-203.773 -143.151)"/>
        <path id="Trazado_608690" data-name="Trazado 608690" d="M268.833,257.828c1.428-1.45,2.769-2.832,4.134-4.19,1.019-1.014,2.055-1.107,2.817-.3.737.782.629,1.749-.35,2.74q-2.523,2.552-5.076,5.074c-1.152,1.136-2.006,1.123-3.176-.01-.471-.457-.944-.912-1.389-1.394a1.734,1.734,0,0,1-.187-2.577,1.756,1.756,0,0,1,2.583.07c.177.146.34.309.643.586" transform="translate(-203.516 -194.06)"/>
        <path id="Trazado_608691" data-name="Trazado 608691" d="M328.744,251.955c-1.234,0-2.47.037-3.7-.011a1.734,1.734,0,1,1,.029-3.446q3.645-.06,7.29,0a1.693,1.693,0,0,1,1.9,1.736c-.009,1.02-.69,1.665-1.925,1.712-1.194.046-2.391.01-3.587.007" transform="translate(-248.048 -190.735)"/>
        <path id="Trazado_608692" data-name="Trazado 608692" d="M328.684,185.634c-1.235,0-2.471.029-3.7-.009a1.708,1.708,0,0,1-1.82-1.694,1.637,1.637,0,0,1,1.671-1.73q3.875-.1,7.755-.007a1.653,1.653,0,0,1,1.694,1.817,1.72,1.72,0,0,1-1.89,1.618c-1.234.03-2.47.007-3.7,0" transform="translate(-248.072 -139.826)"/>
        <path id="Trazado_608693" data-name="Trazado 608693" d="M112.594,247.02q-5.337,0-10.674,0c-2.031,0-2.587-.54-2.593-2.519q-.015-5.047,0-10.094c.007-1.864.575-2.423,2.43-2.424q10.906-.006,21.812,0c1.765,0,2.36.6,2.365,2.378q.015,5.163,0,10.326c-.007,1.687-.625,2.319-2.318,2.328-3.674.02-7.348.006-11.022.007m9.792-11.479H102.809c0,2.311.046,4.549-.021,6.783-.029.969.271,1.239,1.234,1.232,5.762-.043,11.524-.02,17.286-.024.339,0,.677-.042,1.078-.069Z" transform="translate(-76.242 -178.077)"/>
        <path id="Trazado_608694" data-name="Trazado 608694" d="M112.471,139.223q-5.337,0-10.674,0c-1.872,0-2.468-.564-2.476-2.392q-.024-5.163,0-10.326c.01-1.7.63-2.329,2.311-2.332q10.964-.018,21.928,0c1.746,0,2.36.637,2.365,2.4q.015,5.163,0,10.327c-.007,1.692-.633,2.316-2.317,2.321-3.713.011-7.425,0-11.138,0m9.909-11.48H102.887v7.932H122.38Z" transform="translate(-76.234 -95.313)"/>
        <path id="Trazado_608695" data-name="Trazado 608695" d="M131.086,44.244q-6.381,0-12.763,0c-1.8,0-2.348-.553-2.354-2.354-.007-2.2-.013-4.409,0-6.614.011-1.546.64-2.2,2.19-2.2q12.994-.018,25.989,0c1.611,0,2.236.647,2.246,2.27q.022,3.365,0,6.73c-.013,1.557-.624,2.161-2.2,2.165-4.37.012-8.74,0-13.111,0m-11.575-3.568h23.312v-4.06H119.511Z" transform="translate(-89.019 -25.383)"/>
        <path id="Trazado_608696" data-name="Trazado 608696" d="M107.107,207.049c1.778,0,3.556-.017,5.334.005,1.333.017,2.13.728,2.092,1.8-.036,1.023-.811,1.667-2.1,1.671q-5.392.019-10.783,0c-1.3,0-2.05-.634-2.085-1.675-.036-1.086.745-1.783,2.089-1.8,1.816-.021,3.633-.005,5.45-.005" transform="translate(-76.433 -158.936)"/>
        <path id="Trazado_608697" data-name="Trazado 608697" d="M107,102.8c-1.777,0-3.555.018-5.332-.006-1.326-.018-2.048-.624-2.081-1.668-.035-1.087.715-1.786,2.088-1.8q5.389-.044,10.779,0c1.349.011,2.13.739,2.091,1.8-.037,1.019-.794,1.644-2.1,1.661-1.816.023-3.632.006-5.447.006" transform="translate(-76.446 -76.235)"/>
        <path id="Trazado_608698" data-name="Trazado 608698" d="M251.2,348.568a2.085,2.085,0,0,1-4.169.026,2.085,2.085,0,1,1,4.169-.026" transform="translate(-189.631 -265.97)" fill="#fff"/>
        <path id="Trazado_608699" data-name="Trazado 608699" d="M133.841,247.314v7.922c-.4.026-.739.069-1.078.069-5.762,0-11.525-.019-17.286.024-.964.007-1.264-.263-1.234-1.232.067-2.234.021-4.471.021-6.783Z" transform="translate(-87.697 -189.851)" fill="#33ece0"/>
        <rect id="Rectángulo_347323" data-name="Rectángulo 347323" width="19.493" height="7.932" transform="translate(26.653 32.43)" fill="#33ece0"/>
        <rect id="Rectángulo_347324" data-name="Rectángulo 347324" width="23.312" height="4.06" transform="translate(30.493 11.232)" fill="#33ece0"/>
      </g>
    </g>
  </g>
</svg>
