<svg xmlns="http://www.w3.org/2000/svg" xmlns:xlink="http://www.w3.org/1999/xlink" width="541" height="272.269" viewBox="0 0 541 272.269">
  <defs>
    <clipPath id="clip-path">
      <rect id="Rectángulo_346416" data-name="Rectángulo 346416" width="281.233" height="255.394" fill="none"/>
    </clipPath>
    <clipPath id="clip-path-2">
      <rect id="Rectángulo_346391" data-name="Rectángulo 346391" width="39.172" height="39.182" fill="#12263f"/>
    </clipPath>
    <clipPath id="clip-path-3">
      <rect id="Rectángulo_347295" data-name="Rectángulo 347295" width="79.105" height="78.328" fill="none"/>
    </clipPath>
    <clipPath id="clip-path-4">
      <rect id="Rectángulo_347296" data-name="Rectángulo 347296" width="89.939" height="86.176" fill="none"/>
    </clipPath>
    <clipPath id="clip-path-5">
      <rect id="Rectángulo_347297" data-name="Rectángulo 347297" width="86.627" height="83.001" transform="translate(0 0)" fill="none"/>
    </clipPath>
    <clipPath id="clip-path-6">
      <rect id="Rectángulo_347300" data-name="Rectángulo 347300" width="60.625" height="55.556" fill="none"/>
    </clipPath>
  </defs>
  <g id="Grupo_1016789" data-name="Grupo 1016789" transform="translate(-390 -633.73)">
    <g id="Grupo_1016458" data-name="Grupo 1016458" transform="translate(62 -4901.27)">
      <circle id="Elipse_5851" data-name="Elipse 5851" cx="119" cy="119" r="119" transform="translate(484 5545.27)" fill="#fffbe5"/>
      <rect id="Rectángulo_346417" data-name="Rectángulo 346417" width="541" height="60.504" rx="27" transform="translate(328 5746.765)" fill="#a3bfe4"/>
      <g id="Grupo_1015818" data-name="Grupo 1015818" transform="translate(449 5535)">
        <g id="Grupo_1015816" data-name="Grupo 1015816" transform="translate(0)">
          <g id="Grupo_1015815" data-name="Grupo 1015815" clip-path="url(#clip-path)">
            <path id="Trazado_606641" data-name="Trazado 606641" d="M210.5,110.875H117.61a9.579,9.579,0,0,1-9.55-9.552V46.933a9.578,9.578,0,0,1,9.55-9.552H210.5a9.579,9.579,0,0,1,9.552,9.552v54.39a9.58,9.58,0,0,1-9.552,9.552" transform="translate(60.762 21.019)" fill="#fff"/>
            <path id="Trazado_606642" data-name="Trazado 606642" d="M209.939,37.382H118.168a10.138,10.138,0,0,0-10.108,10.11c0,.623,111.989.623,111.989.623,0-6.184-4.549-10.733-10.11-10.733" transform="translate(60.762 21.02)" fill="#1a1a1a"/>
            <path id="Trazado_606643" data-name="Trazado 606643" d="M144.3,124.14h50.334a10.732,10.732,0,0,1,10.7,10.7v30.809a10.731,10.731,0,0,1-10.7,10.7H144.3a10.731,10.731,0,0,1-10.7-10.7V134.84a10.732,10.732,0,0,1,10.7-10.7" transform="translate(75.121 69.804)" fill="#fff"/>
            <path id="Trazado_606644" data-name="Trazado 606644" d="M170.778,102.242l-3.853,11.739s-3.557-11.884-13.581-15.743-15.523-2.717-15.523-2.717,2.971-2.054,2.587-4.659-4.695-4.678-4.695-4.678l-16.423.589s-3.85,1.433-4.09,4.306a5.135,5.135,0,0,0,2.047,4.442s-8.81-.448-13.923,1.886-12.194,5.148-15.978,16.574-4.157,24.4-4.157,24.4L65.982,142.75s-4.868,2.945-4.124,4.812l3.517,19.454s3.759,16.281,15.817,16.268,15.17-8.9,15.17-8.9S92.927,199.9,90.215,206.51H164.5s-5.479-21.049-7.155-37.989c0,0-1.679-13.108-.88-18.3,0,0,1.576,14.087,11.591,16.448s16.107-3.278,19.618-11.578,5.587-23.455,6.312-27.99,3.253-20.85,3.253-20.85.492-3.44-11.8-5.2-13.681-1.461-14.662,1.184" transform="translate(34.739 48.462)" fill="#33ece0"/>
            <path id="Trazado_606645" data-name="Trazado 606645" d="M116.047,141.782H46.3a9.581,9.581,0,0,1-9.553-9.552v-42.7A9.581,9.581,0,0,1,46.3,79.974h69.746a9.579,9.579,0,0,1,9.552,9.552v42.7a9.579,9.579,0,0,1-9.552,9.552" transform="translate(20.663 44.969)" fill="#fff"/>
            <path id="Trazado_606646" data-name="Trazado 606646" d="M93.739,46.77a21.5,21.5,0,1,1-21.5-21.5,21.5,21.5,0,0,1,21.5,21.5" transform="translate(28.528 14.208)" fill="#ffce26"/>
            <path id="Trazado_606647" data-name="Trazado 606647" d="M95.382,88.54s-3.306-12.761,2.825-14.528a18.248,18.248,0,0,1,4.781-3.682s-5.746-7.049-4.328-10.9,5.463-4.8,10.36-4.857,10.281,1.437,10.594,5.217-4.6,10.419-4.6,10.419,7.173,1.839,7.505,7.815a42.028,42.028,0,0,1-.494,9.941l-1.659,1.22-23.8,1.445Z" transform="translate(53.133 30.688)" fill="#1a1a1a"/>
            <path id="Trazado_606648" data-name="Trazado 606648" d="M121.2,88.642s6.569,2.015,6.7-4.193c0,0-.458-5.237-6.1-3.767l-.3-1.228s-4.695.83-10.266-3.081a99.545,99.545,0,0,1-8.635-6.676A78.377,78.377,0,0,1,98.8,77.761L98.789,80.8s-5.331-1.661-6.3,3.651c0,0,.014,4.234,3.409,4.556s3.232-.626,3.232-.626.78,6.535,4.431,8.429l-.352,4.8s2.57,2.359,7.466,1.776,6.409-1.886,6.409-1.886l-.272-4.687s3.543-2.333,4.382-8.165" transform="translate(52.008 39.191)" fill="#fff"/>
            <path id="Trazado_606649" data-name="Trazado 606649" d="M135.519,105.1s2.807-6.354,2.512-7.79-3.1-4.606-4.49-5.776-1.4-3.507,0-4.293,3.612.008,5.737,1.853,4.765,4.7,5.723,4.66c0,0,7.31-5.512,10.417-6.309s4.571-.965,5.359.32c0,0,2.587.134,3.184,1.967,0,0,2.209-.448,3,.891s-.294,3.935-2.868,5.735-6.519,4.089-9.393,4.835-4.009,7.185-4.009,7.185-9.646-.319-15.17-3.279" transform="translate(74.501 48.819)" fill="#fff"/>
            <path id="Trazado_606650" data-name="Trazado 606650" d="M85.607,137.928l-1.853-6.83s2.8-3.417,1.18-10.169-6.113-5.34-6.113-5.34a90.183,90.183,0,0,1-3.546-10.257c-.8-3.553-3.056-7.847-6.024-7.271s-3.385,5.321-2.5,9.03,2.843,9.1,2.843,9.1-3.354-2.9-4.617-2.8-3.845,1.142-4.524,2.732a14.526,14.526,0,0,0-.917,3.192s-2.515,1.361-2.595,3.893,1.679,5.223,8.363,9.285a5.9,5.9,0,0,0,4.728,3.864l.984,5.985a37.761,37.761,0,0,0,7.8-1.631c3.451-1.231,6.787-2.779,6.787-2.779" transform="translate(32.017 55.11)" fill="#fff"/>
            <path id="Trazado_606651" data-name="Trazado 606651" d="M183.289,89.7,163.473,77.439a1.226,1.226,0,0,0-1.87,1.1l1.14,23.277a1.225,1.225,0,0,0,1.847,1l5.357-3.159a1.226,1.226,0,0,1,1.678.434l7.791,13.211a1.223,1.223,0,0,0,1.676.433l4.24-2.5a1.226,1.226,0,0,0,.434-1.678l-7.791-13.212a1.226,1.226,0,0,1,.434-1.676l4.856-2.865a1.224,1.224,0,0,0,.023-2.1" transform="translate(90.868 43.439)" fill="#afafaf"/>
            <path id="Trazado_606652" data-name="Trazado 606652" d="M63.577,54.327v8.449s.748,4.209,6.255,4.209,6.687-3.762,6.687-3.762l.264-8.891s-5.388,2.495-13.206,0" transform="translate(35.749 30.548)" fill="#1a1a1a"/>
            <path id="Trazado_606653" data-name="Trazado 606653" d="M77.175,99.059a8.818,8.818,0,1,1-8.818-8.818,8.818,8.818,0,0,1,8.818,8.818" transform="translate(33.479 50.742)" fill="#ffce26"/>
            <path id="Trazado_606654" data-name="Trazado 606654" d="M178.276,41.879a3.125,3.125,0,1,1-3.125-3.125,3.125,3.125,0,0,1,3.125,3.125" transform="translate(96.731 21.791)" fill="#ffce26"/>
            <path id="Trazado_606655" data-name="Trazado 606655" d="M172.327,41.879a3.125,3.125,0,1,1-3.125-3.125,3.126,3.126,0,0,1,3.125,3.125" transform="translate(93.385 21.791)" fill="#fff"/>
            <path id="Trazado_606656" data-name="Trazado 606656" d="M166.377,41.879a3.125,3.125,0,1,1-3.125-3.125,3.125,3.125,0,0,1,3.125,3.125" transform="translate(90.04 21.791)" fill="#fff"/>
            <path id="Trazado_606657" data-name="Trazado 606657" d="M65.558,122.391l1.52.342,1.453,5.995s-6.337.194-6.693-1.526,3.72-4.81,3.72-4.81" transform="translate(34.759 68.82)" fill="#1a1a1a"/>
            <path id="Trazado_606658" data-name="Trazado 606658" d="M74.338,120.1l1.486,5.726s5.657-2.932,4.34-5.127-5.826-.6-5.826-.6" transform="translate(41.8 67.216)" fill="#1a1a1a"/>
            <path id="Trazado_606659" data-name="Trazado 606659" d="M137.724,95.062s-.848,4.838-1.73,5.416-4.96-1.864-4.268-3.835,6-1.581,6-1.581" transform="translate(74.025 53.436)" fill="#1a1a1a"/>
            <path id="Trazado_606660" data-name="Trazado 606660" d="M146.2,96.649s-2.114,4.351-1.914,6.107c0,0,6.2.031,6.571-2.386.292-1.915-4.657-3.721-4.657-3.721" transform="translate(81.124 54.346)" fill="#1a1a1a"/>
            <path id="Trazado_606661" data-name="Trazado 606661" d="M51.433,90.912a3.575,3.575,0,1,1-3.576-3.576,3.576,3.576,0,0,1,3.576,3.576" transform="translate(24.9 49.109)" fill="#1a1a1a"/>
            <path id="Trazado_606662" data-name="Trazado 606662" d="M93.64,101.614a3.575,3.575,0,1,1-3.576-3.576,3.575,3.575,0,0,1,3.576,3.576" transform="translate(48.633 55.127)" fill="#1a1a1a"/>
            <rect id="Rectángulo_346415" data-name="Rectángulo 346415" width="17.39" height="17.39" transform="translate(182.823 78.109)" fill="#983333"/>
            <path id="Trazado_606663" data-name="Trazado 606663" d="M118.415,87.934a42.028,42.028,0,0,0,.494-9.941c-.333-5.977-7.505-7.816-7.505-7.816s4.912-6.641,4.6-10.419c-.266-3.193-4.156-4.748-8.31-5.121,2.2,2.507,6.615,8.958-.23,14.886a9.408,9.408,0,0,1,5.585,10.057c-1.011,7.449-12.131,1.6-12.131,1.6s3.895,5.107,6.512,8.544l9.328-.566Z" transform="translate(56.745 30.722)" fill="#fff"/>
            <path id="Trazado_606665" data-name="Trazado 606665" d="M135.643,105.8c.922-3.423,2.731-8.321,2.037-9.441a13.231,13.231,0,0,0-2.928-3.217c-.378-.325-.744-.642-1.083-.975-2.045-2-1.562-3.543-1.258-4.11a3.078,3.078,0,0,1,3.395-1.348c2.542.525,5.609,3.526,8.069,5.938,1.636,1.6,6.7,1.6,8.533,1.486a.4.4,0,0,1,.447.394c-.676.467-7.377.867-9.35-1.064-2.476-2.426-5.57-5.456-7.868-5.929a2.259,2.259,0,0,0-2.482.917c-.453.851-.05,1.987,1.1,3.115.328.32.68.625,1.045.939a14.134,14.134,0,0,1,3.092,3.41c1.136,1.829-1.775,8.35-2.37,9.639a.421.421,0,0,1-.383.245" transform="translate(74.299 48.712)" fill="#1a1a1a"/>
            <path id="Trazado_606666" data-name="Trazado 606666" d="M146.227,107.9a.431.431,0,0,1-.416-.486c.041-.277,1.07-6.765,4.328-7.53,3.157-.742,11.347-4.737,12.217-8.779a1.373,1.373,0,0,0-.4-1.367,2.427,2.427,0,0,0-2.339-.342c-1.872.569-8.774,4.563-8.841,4.6-.339.044-7.266-.78-10.352,2.561,2.539-3.99,8.974-3.475,10.049-3.357.969-.559,7.055-4.051,8.9-4.612a3.263,3.263,0,0,1,3.154.528,2.232,2.232,0,0,1,.65,2.164c-1.016,4.717-10.1,8.777-12.847,9.421-2.248.53-3.426,5.118-3.69,6.838a.42.42,0,0,1-.416.359" transform="translate(78.962 49.715)" fill="#1a1a1a"/>
            <path id="Trazado_606667" data-name="Trazado 606667" d="M143.016,94.616c.906-1.475,10.856-7.6,12.862-7.332a2.87,2.87,0,0,1,2.581,2.283c-.845.062-1.111-1.275-2.672-1.445-1.323-.153-8.388,3.871-12.55,6.432a.427.427,0,0,1-.222.062" transform="translate(80.418 49.075)" fill="#1a1a1a"/>
            <path id="Trazado_606668" data-name="Trazado 606668" d="M140.361,94.389c-.056-.887,4.07-3.595,5.052-4.121.472-.252,1.028-.58,1.634-.941,2.1-1.239,4.7-2.782,6.615-2.881,2.625-.156,3.161,1.537,3.179,1.608-.83.173-1.2-.872-3.137-.766-1.7.086-4.318,1.633-6.227,2.764-.619.367-1.187.7-1.665.961-.951.506-5.177,3.281-5.22,3.307a.42.42,0,0,1-.231.069" transform="translate(78.925 48.603)" fill="#1a1a1a"/>
            <path id="Trazado_606669" data-name="Trazado 606669" d="M253.268,163.776H36.749c0-.842,216.519-.842,216.519-.842.422.653.233.842,0,.842" transform="translate(20.664 91.618)" fill="#1a1a1a"/>
            <path id="Trazado_606670" data-name="Trazado 606670" d="M100.2,76.74c.336-.053.561.091.659,1.3.108,1.351-.244,1.589-.545,1.576s-.608-.428-.594-1.394.039-1.417.48-1.486" transform="translate(56.071 43.146)" fill="#1a1a1a"/>
            <path id="Trazado_606671" data-name="Trazado 606671" d="M107.6,76.809c.337-.044.559.106.625,1.322.072,1.351-.284,1.581-.587,1.562s-.6-.447-.555-1.411.075-1.414.517-1.473" transform="translate(60.211 43.186)" fill="#1a1a1a"/>
            <path id="Trazado_606672" data-name="Trazado 606672" d="M97.028,85.861a4.951,4.951,0,0,1-3.61-1.629,4.815,4.815,0,0,1,.427-6.791,4.666,4.666,0,0,1,3.484-1.192,4.781,4.781,0,0,1,1.483.333,1.662,1.662,0,0,1-1.537.506,4.028,4.028,0,0,0-2.873.986,3.97,3.97,0,0,0,2.378,6.938,4.1,4.1,0,0,0,2.075-.437,1.627,1.627,0,0,1-1.825,1.287" transform="translate(51.853 42.866)" fill="#1a1a1a"/>
            <path id="Trazado_606673" data-name="Trazado 606673" d="M94.879,82.78c-.258-.755,2.262-2.7,2.262-2.7l-2.823-2.092c.5-.675,3.775,1.745,3.775,1.745.006.672-2.956,2.961-2.956,2.961a.421.421,0,0,1-.258.087" transform="translate(53.035 43.785)" fill="#1a1a1a"/>
            <path id="Trazado_606674" data-name="Trazado 606674" d="M113.143,85.86a4.8,4.8,0,0,1-2.212-.539,6.068,6.068,0,0,1,2.464-.311,3.969,3.969,0,0,0,2.376-6.938,3.969,3.969,0,0,0-4.178-.678c.17-.987.7-1.114,1.25-1.148a4.812,4.812,0,1,1,.6,9.605q-.152.009-.3.009" transform="translate(62.376 42.867)" fill="#1a1a1a"/>
            <path id="Trazado_606675" data-name="Trazado 606675" d="M114.127,82.98c-.258-.087-3.223-2.376-3.223-2.376.008-.672,3.281-3.092,3.281-3.092.5.675-2.323,2.767-2.323,2.767l2.523,1.947c-.008.7-.133.755-.258.755" transform="translate(62.361 43.585)" fill="#1a1a1a"/>
            <path id="Trazado_606676" data-name="Trazado 606676" d="M138.468,160.423c-.45,0-.909-.017-1.378-.055-7.235-.566-14.912-6.191-14.77-20.282.706,13.52,7.982,18.907,14.836,19.443.439.034.867.05,1.287.05,14.286,0,17.668-19.455,18.8-25.973,1.7-9.786,5.5-34.2,5.54-34.442.8.377-3.006,24.794-4.71,34.588-1.164,6.694-4.637,26.672-19.607,26.672" transform="translate(68.779 55.76)" fill="#1a1a1a"/>
            <path id="Trazado_606677" data-name="Trazado 606677" d="M125.574,136.146a.429.429,0,0,1-.42-.459,112.57,112.57,0,0,1,2.472-14.982,209.073,209.073,0,0,1,7.36-24.737c.745.406-3.276,10.922-6.541,24.928a111.993,111.993,0,0,0-2.45,14.868.425.425,0,0,1-.42.383" transform="translate(70.373 53.962)" fill="#1a1a1a"/>
            <path id="Trazado_606678" data-name="Trazado 606678" d="M108.073,96.166a12.175,12.175,0,0,1-7.551-2.32C98.665,92.369,97.436,90,96.764,86.6a93.021,93.021,0,0,1-.5-11.656c.661-.409.847-.219.842.014a93.108,93.108,0,0,0,.487,11.48c.631,3.2,1.762,5.4,3.459,6.752a11.343,11.343,0,0,0,7.024,2.137c.422.653.233.842,0,.842" transform="translate(54.123 42.004)" fill="#1a1a1a"/>
            <path id="Trazado_606679" data-name="Trazado 606679" d="M103.819,95.464c1.979-.842,4.8-1.212,7.027-2.979,1.7-1.347,2.826-3.556,3.457-6.752a66.768,66.768,0,0,0,.422-9.785c.875,1.973.861,7.64.4,9.947-.672,3.4-1.9,5.774-3.759,7.249a12.177,12.177,0,0,1-7.552,2.32" transform="translate(58.377 42.705)" fill="#1a1a1a"/>
            <path id="Trazado_606680" data-name="Trazado 606680" d="M118.566,79.993c-8.007,0-16.229-7.508-18.334-9.569-.533,1.686-2,6.02-3.5,7.719,1.089-2.5,2.886-8.571,2.9-8.632.8-.072,10.631,10.011,19.458,9.627-.148.85-.337.855-.525.855" transform="translate(54.391 39.086)" fill="#1a1a1a"/>
            <path id="Trazado_606681" data-name="Trazado 606681" d="M99.544,92a.429.429,0,0,1-.42-.461c.225-2.351.292-4.479.292-4.5.842.047.776,2.2.547,4.582a.422.422,0,0,1-.419.38" transform="translate(55.736 48.944)" fill="#1a1a1a"/>
            <path id="Trazado_606682" data-name="Trazado 606682" d="M108.485,91.787a26.068,26.068,0,0,1-.7-4.729c.842-.006.906,2,1.114,4.268-.394.461-.406.461-.419.461" transform="translate(60.61 48.953)" fill="#1a1a1a"/>
            <path id="Trazado_606683" data-name="Trazado 606683" d="M95.689,84.1c-.511-.648-3.015-8.944-.455-13.3a4.988,4.988,0,0,1,3.239-2.4,11.524,11.524,0,0,1,6.962-4.349c5.788-1.025,14.967.416,17.212,6.8,1.006,2.859,1.011,6.127.019,12.487.136-6.335.142-9.5-.812-12.209-2.083-5.915-10.769-7.218-16.273-6.248a10.816,10.816,0,0,0-6.509,4.132,4.831,4.831,0,0,0-3.112,2.22c-2.372,4.034.108,12.239.133,12.322-.32.539-.362.545-.4.545" transform="translate(52.912 35.848)" fill="#1a1a1a"/>
            <path id="Trazado_606684" data-name="Trazado 606684" d="M79.981,194.146c1.745-4.913,9.961-47.791,7.252-60.088-2.762-12.531,1.672-25.011,1.719-25.134.748.409-3.6,12.667-.9,24.955,2.736,12.412-5.554,55.687-7.7,60.033a.422.422,0,0,1-.378.234" transform="translate(44.973 61.248)" fill="#1a1a1a"/>
            <path id="Trazado_606685" data-name="Trazado 606685" d="M131.044,194.044c-2.52-4.582-10.806-47.859-8.076-60.267,2.711-12.3-1.642-24.545-1.686-24.67.836-.161,5.27,12.319,2.509,24.85-2.707,12.294,5.506,55.173,7.63,59.48-.252.594-.316.608-.378.608" transform="translate(68.197 61.35)" fill="#1a1a1a"/>
            <path id="Trazado_606686" data-name="Trazado 606686" d="M151.239,104.309a40.16,40.16,0,0,1-7.033-.681c-6.134-1.108-11.422-3.371-12.575-5.387a1.617,1.617,0,0,1-.173-1.408c.834-2.275,4.135-2.287,6.76-1.9-2.02.553-5.3.359-5.97,2.19a.8.8,0,0,0,.114.7c1.023,1.787,6.179,3.926,11.992,4.977a34.5,34.5,0,0,0,9.368.542c2.339-.252,3.823-.884,3.97-1.692.136-.755-1.23-2.2-4.106-3.514,2.756.328,5.223,2.07,4.934,3.664-.225,1.25-1.853,2.073-4.707,2.381a24.112,24.112,0,0,1-2.573.128" transform="translate(73.868 53.274)" fill="#1a1a1a"/>
            <path id="Trazado_606687" data-name="Trazado 606687" d="M82.6,161.768a15.135,15.135,0,0,1-8.566-2.509c-6.388-4.259-8.866-12.9-9.774-17.674-.383-2.009-.842-4.821-1.33-7.8-.43-2.622-.891-5.44-1.365-8.136.572-.539.789-.377.828-.147.478,2.7.939,5.521,1.369,8.147.486,2.973.945,5.781,1.325,7.779.884,4.643,3.282,13.042,9.416,17.131,3.395,2.264,7.516,2.906,12.239,1.915a12.246,12.246,0,0,0,9.938-10.794A11.9,11.9,0,0,1,86.913,161.3a20.862,20.862,0,0,1-4.313.472" transform="translate(34.618 70.448)" fill="#1a1a1a"/>
            <path id="Trazado_606688" data-name="Trazado 606688" d="M86.22,143.714c-4.32-12.487-8.288-23.091-8.329-23.2.83-.191,4.8,10.435,8.729,22.647-.314.545-.358.55-.4.55" transform="translate(43.798 67.765)" fill="#1a1a1a"/>
            <path id="Trazado_606689" data-name="Trazado 606689" d="M66.344,130.837c-2.528,0-4.382-.541-4.773-1.831,1.286,1.345,6.9,1.575,14.189-.628,5.656-1.709,10.531-4.426,11.344-6.316a.808.808,0,0,0,.033-.708c-.833-1.654-3.493-1.333-5.579-.776a.414.414,0,0,1-.516-.3c3.771-1.448,5.971-1.034,6.848.7a1.631,1.631,0,0,1-.011,1.42c-.914,2.131-5.909,4.987-11.877,6.791a35.747,35.747,0,0,1-9.658,1.651" transform="translate(34.621 67.138)" fill="#1a1a1a"/>
            <path id="Trazado_606690" data-name="Trazado 606690" d="M61.894,127.752c-.851-1.779,1.484-4.132,3.907-5.591-2.106,2.251-3.74,4.27-3.5,5.048-.323.539-.362.544-.4.544" transform="translate(34.703 68.691)" fill="#1a1a1a"/>
            <path id="Trazado_606691" data-name="Trazado 606691" d="M98.161,76.973c.358-2.645,3.239-3.243,4.954-2.861.267.731.052.883-.186.822-1.4-.3-3.81.216-4.373,1.761a.419.419,0,0,1-.4.278" transform="translate(55.196 41.614)" fill="#1a1a1a"/>
            <path id="Trazado_606692" data-name="Trazado 606692" d="M104.858,86.066a6.482,6.482,0,0,1-1.839-.273c.281-.794,2.322-.15,3.639-1.047a3.063,3.063,0,0,0,1.158-2.495,2.278,2.278,0,0,1-.687,3.195,4.021,4.021,0,0,1-2.27.62" transform="translate(57.927 46.25)" fill="#1a1a1a"/>
            <path id="Trazado_606693" data-name="Trazado 606693" d="M102.557,85.793a4.008,4.008,0,0,1-1.767-2.681,1.626,1.626,0,0,1,.48-1.217,1.814,1.814,0,0,1,1.329-.581,2.735,2.735,0,0,1,1.434.486c.255-2.32.434-5.573-.033-6.287,1.548.822.912,6.095.776,7.14-.919.034-1.575-.5-2.178-.5a.988.988,0,0,0-.728.328,2.908,2.908,0,0,0,.967,2.573c-.05.687-.167.734-.281.734" transform="translate(56.674 42.461)" fill="#1a1a1a"/>
            <path id="Trazado_606694" data-name="Trazado 606694" d="M98.642,69.45a15.584,15.584,0,0,1-1.7-2.092c.687-.487,2.045,1.428,2.045,1.428-.173.639-.259.664-.344.664" transform="translate(54.51 37.83)" fill="#1a1a1a"/>
            <path id="Trazado_606695" data-name="Trazado 606695" d="M20.123,131.677a1.835,1.835,0,1,0-1.836-1.834,1.835,1.835,0,0,0,1.836,1.834" transform="translate(10.283 71.978)" fill="#1a1a1a"/>
            <path id="Trazado_606696" data-name="Trazado 606696" d="M29.283,131.806a1.93,1.93,0,1,0-1.929-1.931,1.931,1.931,0,0,0,1.929,1.931" transform="translate(15.381 71.944)" fill="#1a1a1a"/>
            <path id="Trazado_606697" data-name="Trazado 606697" d="M38.361,131.613a1.788,1.788,0,1,0-1.786-1.787,1.787,1.787,0,0,0,1.786,1.787" transform="translate(20.566 71.995)" fill="#1a1a1a"/>
            <path id="Trazado_606698" data-name="Trazado 606698" d="M20.157,140.934A1.929,1.929,0,1,0,18.226,139a1.93,1.93,0,0,0,1.931,1.929" transform="translate(10.248 77.077)" fill="#1a1a1a"/>
            <path id="Trazado_606699" data-name="Trazado 606699" d="M29.318,141.064a2.026,2.026,0,1,0-2.025-2.025,2.024,2.024,0,0,0,2.025,2.025" transform="translate(15.347 77.042)" fill="#1a1a1a"/>
            <path id="Trazado_606700" data-name="Trazado 606700" d="M38.4,140.87a1.883,1.883,0,1,0-1.881-1.883A1.883,1.883,0,0,0,38.4,140.87" transform="translate(20.532 77.094)" fill="#1a1a1a"/>
            <path id="Trazado_606701" data-name="Trazado 606701" d="M20.105,149.87a1.788,1.788,0,1,0-1.787-1.787,1.787,1.787,0,0,0,1.787,1.787" transform="translate(10.3 82.261)" fill="#1a1a1a"/>
            <path id="Trazado_606702" data-name="Trazado 606702" d="M29.266,150a1.883,1.883,0,1,0-1.881-1.883A1.883,1.883,0,0,0,29.266,150" transform="translate(15.399 82.227)" fill="#1a1a1a"/>
            <path id="Trazado_606703" data-name="Trazado 606703" d="M38.35,149.826a1.756,1.756,0,1,0-1.756-1.756,1.757,1.757,0,0,0,1.756,1.756" transform="translate(20.577 82.272)" fill="#1a1a1a"/>
            <path id="Trazado_606704" data-name="Trazado 606704" d="M1.9,131.677a1.835,1.835,0,1,0-1.834-1.834A1.834,1.834,0,0,0,1.9,131.677" transform="translate(0.034 71.978)" fill="#1a1a1a"/>
            <path id="Trazado_606705" data-name="Trazado 606705" d="M11.057,131.806a1.93,1.93,0,1,0-1.929-1.931,1.93,1.93,0,0,0,1.929,1.931" transform="translate(5.133 71.944)" fill="#1a1a1a"/>
            <path id="Trazado_606706" data-name="Trazado 606706" d="M20.135,131.613a1.788,1.788,0,1,0-1.787-1.787,1.787,1.787,0,0,0,1.787,1.787" transform="translate(10.317 71.995)" fill="#1a1a1a"/>
            <path id="Trazado_606707" data-name="Trazado 606707" d="M1.929,140.934A1.929,1.929,0,1,0,0,139a1.931,1.931,0,0,0,1.929,1.929" transform="translate(0 77.077)" fill="#1a1a1a"/>
            <path id="Trazado_606708" data-name="Trazado 606708" d="M11.092,141.064a2.026,2.026,0,1,0-2.025-2.025,2.025,2.025,0,0,0,2.025,2.025" transform="translate(5.098 77.042)" fill="#1a1a1a"/>
            <path id="Trazado_606709" data-name="Trazado 606709" d="M20.17,140.87a1.883,1.883,0,1,0-1.883-1.883,1.884,1.884,0,0,0,1.883,1.883" transform="translate(10.283 77.094)" fill="#1a1a1a"/>
            <path id="Trazado_606710" data-name="Trazado 606710" d="M1.878,149.87a1.788,1.788,0,1,0-1.787-1.787,1.787,1.787,0,0,0,1.787,1.787" transform="translate(0.051 82.261)" fill="#1a1a1a"/>
            <path id="Trazado_606711" data-name="Trazado 606711" d="M11.041,150a1.883,1.883,0,1,0-1.883-1.883A1.884,1.884,0,0,0,11.041,150" transform="translate(5.15 82.227)" fill="#1a1a1a"/>
            <path id="Trazado_606712" data-name="Trazado 606712" d="M20.124,149.826a1.756,1.756,0,1,0-1.756-1.756,1.756,1.756,0,0,0,1.756,1.756" transform="translate(10.328 82.272)" fill="#1a1a1a"/>
            <path id="Trazado_606713" data-name="Trazado 606713" d="M71.586,67.542h-2.54a5.742,5.742,0,0,1-5.738-5.734V54.856c4.709.55,9.3.556,13.453-.773.564.773.564,7.726.564,7.726a5.741,5.741,0,0,1-5.738,5.734M64.149,55.036v6.773a4.9,4.9,0,0,0,4.9,4.892h2.54a4.9,4.9,0,0,0,4.9-4.892v-6.76a22.116,22.116,0,0,1-12.333-.012" transform="translate(35.597 30.411)" fill="#1a1a1a"/>
            <path id="Trazado_606714" data-name="Trazado 606714" d="M75.7,71.042A21.914,21.914,0,1,1,82.378,70,21.8,21.8,0,0,1,75.7,71.042m0-43a21.083,21.083,0,1,0,21.082,21.08A21.107,21.107,0,0,0,75.7,28.038" transform="translate(30.236 15.292)" fill="#1a1a1a"/>
            <path id="Trazado_606715" data-name="Trazado 606715" d="M59.767,51.679c-.236,0-.462-.006-.675-.016,1.306-.786,3.131-.834,4.329-1.879a4.446,4.446,0,0,0,.694-.776,6.592,6.592,0,0,1-1.4-1.34,6.41,6.41,0,0,1-1.251-4.742c.077-.58.608-2.873,1.789-3.518a1.334,1.334,0,0,1,1.251-.031c.808.378,1.114,1.484,1.317,2.218a10.184,10.184,0,0,1,.414,2.911,9.7,9.7,0,0,1-.964,4.235,14.1,14.1,0,0,0,7.077,1.25,13.6,13.6,0,0,0,4.468-.767,7.371,7.371,0,0,0,3.556-2.7,4.505,4.505,0,0,1-2.55-3.22,4.018,4.018,0,0,1,.4-2.184,2.7,2.7,0,0,1,1.537-1.509,1.49,1.49,0,0,1,1.4.2c1.061.787,1.1,2.925,1.1,3.346a6.817,6.817,0,0,1-.694,2.982,20.113,20.113,0,0,0,7.063.891,10.99,10.99,0,0,1-7.482-.15,8.157,8.157,0,0,1-4.04,3.137,14.4,14.4,0,0,1-4.742.82,14.767,14.767,0,0,1-7.537-1.372,5.346,5.346,0,0,1-.862.958,6.318,6.318,0,0,1-4.206,1.261m4.139-11.6c-.945.452-1.5,2.126-1.608,2.959a5.575,5.575,0,0,0,1.086,4.117,5.784,5.784,0,0,0,1.169,1.131,8.581,8.581,0,0,0,.842-3.784,8.979,8.979,0,0,0-.337-2.518c-.2-.711-.453-1.629-.909-1.844a.56.56,0,0,0-.242-.061m16.392.284a1.9,1.9,0,0,0-1.314,1.115,3.14,3.14,0,0,0-.32,1.72,3.476,3.476,0,0,0,1.867,2.451,3.407,3.407,0,0,0,.894-2.5,3.849,3.849,0,0,0-.762-2.664.575.575,0,0,0-.364-.122" transform="translate(33.227 22.062)" fill="#1a1a1a"/>
            <path id="Trazado_606716" data-name="Trazado 606716" d="M172.977,94.2c5.6-.842,10.149-5.188,10.149-10.533V67.785c.842,0,.842,15.882.842,15.882A10.78,10.78,0,0,1,172.977,94.2" transform="translate(97.265 38.115)" fill="#1a1a1a"/>
            <path id="Trazado_606717" data-name="Trazado 606717" d="M107.969,62.9c-.42-.422-.42-15.261-.42-15.261a10.779,10.779,0,0,1,10.989-10.531h91.227a10.781,10.781,0,0,1,10.992,10.531V62.348c-.842,0-.842-14.706-.842-14.706a9.938,9.938,0,0,0-10.15-9.688H118.538a9.936,9.936,0,0,0-10.147,9.688V62.481a.422.422,0,0,1-.422.422" transform="translate(60.475 20.867)" fill="#1a1a1a"/>
            <path id="Trazado_606718" data-name="Trazado 606718" d="M172.875,85h-57.4c0-.842,57.4-.842,57.4-.842.422.653.233.842,0,.842" transform="translate(64.93 47.32)" fill="#1a1a1a"/>
            <path id="Trazado_606719" data-name="Trazado 606719" d="M96.326,142.549H83.514c0-.844,12.812-.844,12.812-.844a9.7,9.7,0,0,0,9.688-9.688V90.237a9.7,9.7,0,0,0-9.688-9.689h-25.5c0-.844,25.5-.844,25.5-.844a10.544,10.544,0,0,1,10.531,10.533v41.781a10.543,10.543,0,0,1-10.531,10.531" transform="translate(39.826 44.817)" fill="#1a1a1a"/>
            <path id="Trazado_606720" data-name="Trazado 606720" d="M72.092,142.549H47.011a10.544,10.544,0,0,1-10.533-10.531V90.237A10.544,10.544,0,0,1,47.011,79.7H63.854c0,.844-16.843.844-16.843.844a9.7,9.7,0,0,0-9.691,9.689v41.781a9.7,9.7,0,0,0,9.691,9.688H72.092c.422.655.231.844,0,.844" transform="translate(20.512 44.817)" fill="#1a1a1a"/>
            <path id="Trazado_606721" data-name="Trazado 606721" d="M66.568,117.26c-3.132-6.4-5.1-14.553-2.926-17.926a3.3,3.3,0,0,1,2.925-1.561c3.748,0,5.118,4.876,6.569,10.039a34.308,34.308,0,0,0,2.793,7.693c-1.978-1.678-2.8-4.62-3.606-7.465-1.362-4.846-2.65-9.425-5.735-9.425a2.482,2.482,0,0,0-2.237,1.175c-1.689,2.622-.6,9.719,2.6,16.878-.269.58-.327.592-.384.592" transform="translate(35.269 54.978)" fill="#1a1a1a"/>
            <path id="Trazado_606722" data-name="Trazado 606722" d="M83.311,132.173c-.408-.311-2.261-7.141-2.261-7.141,1.164-1.209,2.778-9.647-.411-14.1-1.644-2.292-10.681-.648-15.807,2.234-2.223,1.25-3.273,2.495-2.881,3.417a4.9,4.9,0,0,0,3.195,2.792c2.895.922,7.14.056,10.8-2.2-3.423,3.1-7.94,4-11.058,3.007a5.775,5.775,0,0,1-3.714-3.265c-.419-.976-.2-2.548,3.24-4.481,5.16-2.9,14.79-4.954,16.906-1.989,3.276,4.576,1.945,12.864.6,14.6l1.792,6.6c-.333.526-.37.531-.406.531" transform="translate(34.313 61.286)" fill="#1a1a1a"/>
            <path id="Trazado_606723" data-name="Trazado 606723" d="M73.564,125.511a8.2,8.2,0,0,1-1.742-.194,18.413,18.413,0,0,1-7.216-3.757,26.494,26.494,0,0,1-4.415-4.309,6.557,6.557,0,0,1-1.761-4.318A4.608,4.608,0,0,1,58.8,111.4c.791-1.864,2.745-3.818,4.84-3.818a5.051,5.051,0,0,1,3.079,1.4c1.392,1.075,2.208,1.729,3.184,2.545a6.225,6.225,0,0,1-3.428-1.665c-1.065-.834-1.812-1.42-2.779-1.44-1.726,0-3.429,1.667-4.12,3.3a3.7,3.7,0,0,0-.3,1.251,5.56,5.56,0,0,0,1.573,3.742,25.74,25.74,0,0,0,4.276,4.173,17.616,17.616,0,0,0,6.879,3.6,6.218,6.218,0,0,0,3.409-.127,3.534,3.534,0,0,0,1.686-1.2,3.186,3.186,0,0,0-.22-3.559c1.737,1.189,1.806,2.786.906,4.048a4.308,4.308,0,0,1-2.086,1.508,6.243,6.243,0,0,1-2.131.353" transform="translate(32.852 60.493)" fill="#1a1a1a"/>
            <path id="Trazado_606724" data-name="Trazado 606724" d="M72.234,127.4c-.267,0-.541-.012-.817-.038A18.421,18.421,0,0,1,63.8,124.5a26.226,26.226,0,0,1-4.9-3.75,6.529,6.529,0,0,1-2.265-4.074,4.525,4.525,0,0,1,.178-1.564,5.774,5.774,0,0,1,2.85-3.709,13.25,13.25,0,0,0-2.04,3.94,3.766,3.766,0,0,0-.148,1.278,5.568,5.568,0,0,0,2.012,3.526,25.521,25.521,0,0,0,4.745,3.629,17.657,17.657,0,0,0,7.262,2.748,6.182,6.182,0,0,0,3.371-.537,3.523,3.523,0,0,0,1.526-1.4,2.132,2.132,0,0,0,.209-1.922c1.109.633,1.028,1.409.531,2.323a4.3,4.3,0,0,1-1.89,1.748,6.688,6.688,0,0,1-3.011.661" transform="translate(31.843 62.641)" fill="#1a1a1a"/>
            <path id="Trazado_606725" data-name="Trazado 606725" d="M68.25,130.265c-.412-.334-1.609-5.952-1.609-5.952-2.017-.572-3.336-1.993-4.778-4.079,2.084,1.531,3.329,2.87,5.235,3.328a60.306,60.306,0,0,1,1.564,6.195c-.353.506-.383.509-.412.509" transform="translate(34.785 67.607)" fill="#1a1a1a"/>
            <path id="Trazado_606726" data-name="Trazado 606726" d="M75.552,135.642c-.427-.606-.755-19.84,7.522-32.555,8.344-12.822,26.853-11.125,27.034-11.1.358.691.144.88-.083.837-.18-.017-18.185-1.661-26.245,10.724-8.133,12.5-7.813,31.477-7.808,31.666-.416.431-.419.431-.42.431" transform="translate(42.383 51.674)" fill="#1a1a1a"/>
            <path id="Trazado_606727" data-name="Trazado 606727" d="M139.542,111.094a82.313,82.313,0,0,0-4.224-7.652c-8.065-12.391-24.667-10.824-24.836-10.81.089-.858,17.2-2.465,25.547,10.36a49.517,49.517,0,0,1,3.912,7.549c-.309.547-.355.553-.4.553" transform="translate(62.124 51.769)" fill="#1a1a1a"/>
            <path id="Trazado_606728" data-name="Trazado 606728" d="M47.639,93.666a2.971,2.971,0,1,1,2.971-2.971,2.974,2.974,0,0,1-2.971,2.971m0-5.1a2.129,2.129,0,1,0,2.129,2.129,2.131,2.131,0,0,0-2.129-2.129" transform="translate(25.117 49.327)" fill="#fff"/>
            <path id="Trazado_606729" data-name="Trazado 606729" d="M89.771,104.08a2.76,2.76,0,1,1,2.759-2.761,2.763,2.763,0,0,1-2.759,2.761m0-4.678a1.918,1.918,0,1,0,1.917,1.917A1.921,1.921,0,0,0,89.771,99.4" transform="translate(48.926 55.42)" fill="#fff"/>
            <path id="Trazado_606730" data-name="Trazado 606730" d="M56.6,118.34a5.842,5.842,0,0,1-4.032-1.644,22.332,22.332,0,0,0,4.032.8c.22.841,0,.841,0,.841m4.339-1.269a39.482,39.482,0,0,1,2.736-3.756A5.22,5.22,0,0,1,61.171,117a.411.411,0,0,1-.23.069m-10.574-3.845a14.91,14.91,0,0,1-1.911-4.429,12.912,12.912,0,0,1,2.292,3.826c-.258.591-.319.6-.381.6m15.889-3.014a5.292,5.292,0,0,1,.687-2.731c.3-.609.6-1.215.9-1.808a2.189,2.189,0,0,1-.147,2.181c-.352.709-.7,1.425-1.067,2.129a.422.422,0,0,1-.375.228m-18.362-5.395a17.867,17.867,0,0,1-1.051-4.724,9.693,9.693,0,0,1,1.465,4.229c-.364.494-.392.5-.414.5m-1.014-8.733a25.927,25.927,0,0,1-.58-4.827c.842.187.848,1.9,1,4.381-.4.447-.412.447-.422.447" transform="translate(26.035 51.314)" fill="#1a1a1a"/>
            <path id="Trazado_606731" data-name="Trazado 606731" d="M88.29,127.045a6.314,6.314,0,0,1-3.49-1.115,21.816,21.816,0,0,0,4.323.214c-.192.878-.508.9-.833.9m4.7-2.039a35.942,35.942,0,0,1,2.165-4.171,5.57,5.57,0,0,1-1.873,4.053.414.414,0,0,1-.292.119m-11.061-2.078a18.911,18.911,0,0,1-2.722-3.92,12.151,12.151,0,0,1,3.057,3.245c-.158.647-.247.675-.336.675m15.276-5.534a21.332,21.332,0,0,1,.745-4.753,7.273,7.273,0,0,1-.347,4.463.42.42,0,0,1-.4.289m-19.615-2.086a28.506,28.506,0,0,1-2.2-4.251,8.633,8.633,0,0,1,2.579,3.65c-.258.587-.32.6-.38.6m21.571-6.477a.436.436,0,0,1-.419-.484c.38-2.532.494-4.329.494-4.346.841.07.723,1.9.341,4.471a.421.421,0,0,1-.416.359m-25.156-1.544c-1.125-1.909-1.692-3.132-2.228-4.218,1.3.723,1.869,1.956,2.612,3.626-.267.581-.327.592-.384.592m-3.964-7.829a6.383,6.383,0,0,1-1.006-1.167c.912-.17,1.139.167,1.362.52-.2.626-.278.647-.356.647" transform="translate(38.82 55.244)" fill="#1a1a1a"/>
            <path id="Trazado_606734" data-name="Trazado 606734" d="M213.876,44.824H111.055c0-.842,102.821-.842,102.821-.842.422.655.233.842,0,.842" transform="translate(62.446 24.731)" fill="#1a1a1a"/>
            <path id="Trazado_606735" data-name="Trazado 606735" d="M174.917,44.113a2.47,2.47,0,1,1,2.472-2.468,2.472,2.472,0,0,1-2.472,2.468m0-4.1a1.628,1.628,0,1,0,1.63,1.629,1.63,1.63,0,0,0-1.63-1.629" transform="translate(96.966 22.027)" fill="#1a1a1a"/>
            <path id="Trazado_606736" data-name="Trazado 606736" d="M168.968,44.113a2.47,2.47,0,1,1,2.47-2.468,2.472,2.472,0,0,1-2.47,2.468m0-4.1a1.628,1.628,0,1,0,1.628,1.629,1.632,1.632,0,0,0-1.628-1.629" transform="translate(93.62 22.027)" fill="#1a1a1a"/>
            <path id="Trazado_606737" data-name="Trazado 606737" d="M163.018,44.113a2.47,2.47,0,1,1,2.472-2.468,2.472,2.472,0,0,1-2.472,2.468m0-4.1a1.628,1.628,0,1,0,1.629,1.629,1.63,1.63,0,0,0-1.629-1.629" transform="translate(90.275 22.027)" fill="#1a1a1a"/>
            <path id="Trazado_606738" data-name="Trazado 606738" d="M101.692,70.825c-.576-.447-6.615-7.546-4.418-12.337,1.231-2.682,4.774-4.043,10.531-4.043s9.279,1.347,10.481,4.007c2.151,4.759-3.987,11.814-4.249,12.113-.57-.625,5.41-7.5,3.481-11.766-1.053-2.331-4.323-3.514-9.713-3.514s-8.683,1.2-9.764,3.554c-1.975,4.3,3.912,11.22,3.971,11.289-.125.664-.223.7-.32.7" transform="translate(54.427 30.614)" fill="#1a1a1a"/>
            <path id="Trazado_606739" data-name="Trazado 606739" d="M176.619,112.111a1.847,1.847,0,0,1-1.423-.811L167.41,98.09a.808.808,0,0,0-1.1-.284l-5.357,3.159a1.647,1.647,0,0,1-2.482-1.339l-1.14-23.277a1.648,1.648,0,0,1,2.514-1.48l19.816,12.264a1.647,1.647,0,0,1-.03,2.818l-4.857,2.864c-.286,1.1,7.505,14.312,7.505,14.312a1.646,1.646,0,0,1-.583,2.256l-4.24,2.5a1.616,1.616,0,0,1-.833.23m-9.908-15.259a1.649,1.649,0,0,1,1.422.809l7.79,13.211c1.1.286,5.341-2.215,5.341-2.215.284-1.1-7.505-14.312-7.505-14.312a1.633,1.633,0,0,1-.177-1.248,1.653,1.653,0,0,1,.759-1.008l4.856-2.862a.806.806,0,0,0,.016-1.378L159.4,75.583a.8.8,0,0,0-.833-.008.783.783,0,0,0-.394.731l1.139,23.278a.8.8,0,0,0,1.211.653l5.357-3.159a1.64,1.64,0,0,1,.834-.227" transform="translate(88.464 41.959)" fill="#1a1a1a"/>
            <path id="Trazado_606740" data-name="Trazado 606740" d="M132.534,66.195H115.356c-.42-.422-.42-17.6-.42-17.6.42-.422,17.6-.422,17.6-.422.422.422.422,17.6.422,17.6a.421.421,0,0,1-.422.422m-16.757-.842h16.335V49.018H115.777Z" transform="translate(64.628 27.09)" fill="#1a1a1a"/>
            <path id="Trazado_606741" data-name="Trazado 606741" d="M128.557,79.507H117.23c-.422-.42-.422-11.747-.422-11.747.422-.422,11.749-.422,11.749-.422.422.422.422,11.749.422,11.749a.423.423,0,0,1-.422.42m-10.906-.841h10.486V68.18H117.65Z" transform="translate(65.681 37.864)" fill="#1a1a1a"/>
            <path id="Trazado_606742" data-name="Trazado 606742" d="M190.3,50.568H138.258c0-.842,52.042-.842,52.042-.842.42.653.231.842,0,.842" transform="translate(77.742 27.961)" fill="#1a1a1a"/>
            <path id="Trazado_606743" data-name="Trazado 606743" d="M190.3,59.049H138.258c0-.842,52.042-.842,52.042-.842.42.653.231.842,0,.842" transform="translate(77.742 32.73)" fill="#1a1a1a"/>
            <path id="Trazado_606744" data-name="Trazado 606744" d="M190.3,67.53H138.258c0-.842,52.042-.842,52.042-.842.42.653.231.842,0,.842" transform="translate(77.742 37.499)" fill="#1a1a1a"/>
            <path id="Trazado_606745" data-name="Trazado 606745" d="M67.938,106.291a7.651,7.651,0,1,1,7.651-7.652,7.66,7.66,0,0,1-7.651,7.652m0-14.461a6.809,6.809,0,1,0,6.809,6.808,6.817,6.817,0,0,0-6.809-6.808" transform="translate(33.899 51.162)" fill="#1a1a1a"/>
            <path id="Trazado_606746" data-name="Trazado 606746" d="M106.864,92.97c-7.94,0-8.518-3.76-8.538-3.921.839-.081,1.406,3.079,8.538,3.079,7.108,0,7.48-3.136,7.483-3.167.828.222.481,4.009-7.483,4.009" transform="translate(55.289 50.023)" fill="#1a1a1a"/>
            <path id="Trazado_606747" data-name="Trazado 606747" d="M100.555,97.159c-3.1-1.384-4.851-3.648-4.851-6.095,0-1.43.825-3.432,4.754-4.849-2.5,1.8-3.912,3.162-3.912,4.849,0,2.108,1.565,4.087,4.185,5.29.136.714-.017.8-.177.8" transform="translate(53.814 48.479)" fill="#1a1a1a"/>
            <path id="Trazado_606748" data-name="Trazado 606748" d="M105.274,98.4a28.17,28.17,0,0,1-3.412-.2,5.875,5.875,0,0,1,3.412-.644c7.916,0,12.189-3.471,12.189-6.737,0-1.7-1.612-3.181-4.545-4.187,3.571.334,5.387,2.1,5.387,4.187,0,3.673-4.567,7.579-13.031,7.579" transform="translate(57.277 48.716)" fill="#1a1a1a"/>
            <path id="Trazado_606749" data-name="Trazado 606749" d="M97.852,99.045a.427.427,0,0,1-.42-.453c.356-4.731-.484-6.566-.492-6.585.8-.287,1.709,1.642,1.331,6.649a.421.421,0,0,1-.419.389" transform="translate(54.509 51.72)" fill="#1a1a1a"/>
            <path id="Trazado_606750" data-name="Trazado 606750" d="M110.532,99.15c-.8-5.4.117-7.28.156-7.357.745.394-.091,2.179.264,6.9-.4.453-.409.453-.42.453" transform="translate(61.969 51.615)" fill="#1a1a1a"/>
            <path id="Trazado_606751" data-name="Trazado 606751" d="M63.972,34.5c-.394-.272-9.413-24.345-9.413-24.345.789-.3,9.808,23.777,9.808,23.777-.3.561-.345.569-.4.569" transform="translate(30.678 5.71)" fill="#1a1a1a"/>
            <path id="Trazado_606752" data-name="Trazado 606752" d="M38.744,83.477C38.445,82.76,65.323,55.6,65.323,55.6c.6.594-26.279,27.759-26.279,27.759a.421.421,0,0,1-.3.123" transform="translate(21.784 31.261)" fill="#1a1a1a"/>
            <path id="Trazado_606753" data-name="Trazado 606753" d="M93.183,68.44C92.91,68.34,78.34,56,78.34,56c.545-.642,15.115,11.7,15.115,11.7-.034.692-.153.742-.272.742" transform="translate(44.05 31.475)" fill="#1a1a1a"/>
            <path id="Trazado_606754" data-name="Trazado 606754" d="M84.046,38.732c-.209-.787,16.114-10.139,16.114-10.139.419.731-15.9,10.083-15.9,10.083a.43.43,0,0,1-.209.056" transform="translate(47.258 16.078)" fill="#1a1a1a"/>
            <path id="Trazado_606755" data-name="Trazado 606755" d="M93.886,84.51H76.266c0-.844,17.62-.844,17.62-.844.42.655.233.844,0,.844" transform="translate(42.884 47.045)" fill="#1a1a1a"/>
            <path id="Trazado_606756" data-name="Trazado 606756" d="M90.5,87.41H82.282c0-.842,8.221-.842,8.221-.842.42.653.233.842,0,.842" transform="translate(46.267 48.677)" fill="#1a1a1a"/>
            <path id="Trazado_606757" data-name="Trazado 606757" d="M82.225,87.41H77.513c0-.842,4.712-.842,4.712-.842.42.653.233.842,0,.842" transform="translate(43.585 48.677)" fill="#1a1a1a"/>
            <path id="Trazado_606758" data-name="Trazado 606758" d="M51.356,45.519H40.215c0-.842,11.141-.842,11.141-.842.422.653.233.842,0,.842" transform="translate(22.613 25.122)" fill="#1a1a1a"/>
            <path id="Trazado_606759" data-name="Trazado 606759" d="M117.683,13.77a6.885,6.885,0,1,1,6.885-6.883,6.892,6.892,0,0,1-6.885,6.883m0-12.928a6.043,6.043,0,1,0,6.043,6.045A6.05,6.05,0,0,0,117.683.842" transform="translate(62.302 0)" fill="#1a1a1a"/>
            <path id="Trazado_606760" data-name="Trazado 606760" d="M8.469,77.15a6.886,6.886,0,1,1,6.885-6.885A6.894,6.894,0,0,1,8.469,77.15m0-12.93a6.043,6.043,0,1,0,6.043,6.045A6.052,6.052,0,0,0,8.469,64.22" transform="translate(0.89 35.637)" fill="#1a1a1a"/>
            <path id="Trazado_606761" data-name="Trazado 606761" d="M162.473,47.717a47.083,47.083,0,0,1-1.387-5.071,9.6,9.6,0,0,1,1.8,4.592c-.38.478-.4.48-.417.48m-2.456-9.382c-.951-1.765-1.589-3.253-2.293-4.695a8.339,8.339,0,0,1,2.687,4.126c-.3.559-.344.569-.394.569m-4.251-8.708c-1.2-1.562-2.112-2.9-3.075-4.164a8.285,8.285,0,0,1,3.434,3.523c-.208.622-.283.641-.359.641m-5.862-7.7c-1.394-1.3-2.551-2.426-3.749-3.484a8.3,8.3,0,0,1,4.057,2.778c-.1.669-.206.706-.308.706m-7.252-6.405c-1.522-1-2.873-1.894-4.262-2.72a8.451,8.451,0,0,1,4.509,1.959c.012.7-.117.761-.247.761m-8.308-4.954c-1.6-.731-3.087-1.38-4.59-1.965a8.588,8.588,0,0,1,4.774,1.167c.123.712-.027.8-.184.8m-9.007-3.534c-1.612-.481-3.175-.911-4.767-1.292a8.86,8.86,0,0,1,4.893.469c.22.709.053.823-.127.823" transform="translate(67.797 3.127)" fill="#1a1a1a"/>
            <path id="Trazado_606762" data-name="Trazado 606762" d="M72.88,37.821c-.348-.667.427-2.306,2.073-4.87a36.81,36.81,0,0,1-1.692,4.628.421.421,0,0,1-.381.242m5.212-8.2a12.135,12.135,0,0,1,2.757-4.457,11.658,11.658,0,0,1-2.42,4.292.428.428,0,0,1-.337.166M84.5,22.339a11.356,11.356,0,0,1,3.312-4.012,11.488,11.488,0,0,1-3.017,3.892.425.425,0,0,1-.3.12m7.4-6.255a10.493,10.493,0,0,1,3.818-3.462,11.584,11.584,0,0,1-3.573,3.384.416.416,0,0,1-.245.078m8.277-5.031a9.785,9.785,0,0,1,4.253-2.814,11.705,11.705,0,0,1-4.065,2.77.423.423,0,0,1-.187.044m8.971-3.64a9.263,9.263,0,0,1,4.582-2.1,11.7,11.7,0,0,1-4.456,2.078.443.443,0,0,1-.127.019m9.433-2.164a8.894,8.894,0,0,1,4.781-1.378.4.4,0,0,1,.451.387,36.5,36.5,0,0,1-5.171.986.4.4,0,0,1-.061,0m11.667-.716c-.553-.011-1.087-.017-1.622-.017-.626.034-.812-.183-.814-.416a6.451,6.451,0,0,1,2.443-.409c.408.659.22.842-.008.842" transform="translate(40.934 2.074)" fill="#1a1a1a"/>
            <path id="Trazado_606763" data-name="Trazado 606763" d="M46.244,126.76c-.448-.112-.775-.211-1.1-.312.57-.7.891-.606,1.215-.514.233.708.066.826-.117.826m-5.518-1.968a43.014,43.014,0,0,1-4.567-2.162,12.259,12.259,0,0,1,4.731,1.353c.155.712,0,.809-.164.809m-8.508-4.624a39.046,39.046,0,0,1-4.167-2.97,12.008,12.008,0,0,1,4.4,2.2c.033.706-.1.77-.236.77m-7.533-6.087a33.974,33.974,0,0,1-3.664-3.651,11.914,11.914,0,0,1,3.956,2.925c-.07.683-.181.726-.292.726M18.3,106.8a29.282,29.282,0,0,1-3.07-4.22,11.754,11.754,0,0,1,3.409,3.55c-.166.644-.252.67-.339.67m-5.074-8.254a25.682,25.682,0,0,1-2.4-4.67A11.79,11.79,0,0,1,13.6,97.936c-.245.6-.311.611-.375.611m-3.689-8.96a23.551,23.551,0,0,1-1.754-4.976,11.475,11.475,0,0,1,2.156,4.423c-.314.547-.358.553-.4.553m-2.372-9.4a21.408,21.408,0,0,1-1.13-5.168A11.326,11.326,0,0,1,7.58,79.694c-.366.494-.392.5-.416.5" transform="translate(3.393 42.185)" fill="#1a1a1a"/>
            <path id="Trazado_606764" data-name="Trazado 606764" d="M6.786,79.3a.438.438,0,0,1-.416-.492c.28-1.612.612-3.22,1-4.776A11.463,11.463,0,0,1,7.2,78.954a.425.425,0,0,1-.417.35M9.119,69.9a14.35,14.35,0,0,1,1.32-5.12,11.577,11.577,0,0,1-.92,4.832.417.417,0,0,1-.4.287m3.795-8.91a12.641,12.641,0,0,1,2.12-4.821,11.9,11.9,0,0,1-1.75,4.6.42.42,0,0,1-.37.223m5.327-8.082a11.28,11.28,0,0,1,2.942-4.321,12.189,12.189,0,0,1-2.615,4.165.418.418,0,0,1-.327.156m6.841-6.848a10.117,10.117,0,0,1,3.7-3.614,12.537,12.537,0,0,1-3.432,3.52.414.414,0,0,1-.264.094M33.2,40.8a9.637,9.637,0,0,1,4.248-2.829A12.078,12.078,0,0,1,33.4,40.752a.468.468,0,0,1-.2.045m8.964-3.665a9.393,9.393,0,0,1,4.567-2.147,11.528,11.528,0,0,1-4.438,2.125.362.362,0,0,1-.128.022m9.408-2.35A9.33,9.33,0,0,1,56.3,33.15a11.162,11.162,0,0,1-4.648,1.625.457.457,0,0,1-.078.008m9.6-1.4a9.632,9.632,0,0,1,4.793-1.292,10.411,10.411,0,0,1-4.749,1.289.221.221,0,0,1-.044,0m9.664-.787a9.814,9.814,0,0,1,4.82-1.1,10.067,10.067,0,0,1-4.8,1.1Z" transform="translate(3.579 17.709)" fill="#1a1a1a"/>
          </g>
        </g>
        <g id="Grupo_1015817" data-name="Grupo 1015817" transform="translate(226.093 201.442)">
          <g id="Grupo_1015803" data-name="Grupo 1015803" clip-path="url(#clip-path-2)">
            <path id="Trazado_606625" data-name="Trazado 606625" d="M19.891,39.183h-.612a1.8,1.8,0,0,1-.878-.9c-1.325-2.548-2.669-5.085-3.995-7.632a.531.531,0,0,0-.549-.34q-3.744.017-7.489,0a6.185,6.185,0,0,1-1.437-.136A6.27,6.27,0,0,1,.313,25.74C.178,25.336.1,24.911,0,24.5V5.833c.15-.547.267-1.105.456-1.639A6.341,6.341,0,0,1,6.458,0c8.834.052,17.668.015,26.5.028A6.007,6.007,0,0,1,34.54.24a6.542,6.542,0,0,1,4.626,6.241q.015,8.68,0,17.359a6.172,6.172,0,0,1-.66,2.8,6.057,6.057,0,0,1-5.764,3.678c-2.473-.009-4.946,0-7.419-.008a.53.53,0,0,0-.556.33c-1.326,2.551-2.672,5.091-4,7.641a1.812,1.812,0,0,1-.879.9m-.31-3.651c.107-.2.175-.314.239-.436,1.089-2.071,2.192-4.136,3.258-6.218a1.445,1.445,0,0,1,1.457-.871c2.8.023,5.609.012,8.414.008a3.431,3.431,0,0,0,1.977-.6,4.454,4.454,0,0,0,1.944-3.9q.021-8.355,0-16.71a5.941,5.941,0,0,0-.155-1.284,3.972,3.972,0,0,0-3.819-3.2q-13.309-.012-26.619,0a3.568,3.568,0,0,0-2.358.845A4.593,4.593,0,0,0,2.3,6.879q-.007,8.106,0,16.213a9.906,9.906,0,0,0,.072,1.257,4.094,4.094,0,0,0,4.079,3.678c2.753-.045,5.507,0,8.261-.018a1.376,1.376,0,0,1,1.364.834c.9,1.754,1.826,3.495,2.743,5.241.241.459.484.918.765,1.449" transform="translate(0 -0.001)" fill="#12263f"/>
            <path id="Trazado_606626" data-name="Trazado 606626" d="M75.526,62.73a4.4,4.4,0,1,1,6.807-.022c.365.226.746.429,1.091.679A7.262,7.262,0,0,1,86.6,69.506a2.034,2.034,0,0,1-2.017,2.071q-5.661.026-11.321,0a2.042,2.042,0,0,1-2.024-2.11,7.329,7.329,0,0,1,3.963-6.56c.1-.056.2-.108.326-.177M84.3,69.249a4.886,4.886,0,0,0-2.665-4.241,5.543,5.543,0,0,0-5.81.233,4.806,4.806,0,0,0-2.256,4.009ZM78.919,61.98A2.079,2.079,0,0,0,81.012,59.9a2.119,2.119,0,0,0-2.1-2.081A2.1,2.1,0,0,0,76.844,59.9a2.064,2.064,0,0,0,2.076,2.085" transform="translate(-63.957 -49.85)" fill="#12263f"/>
            <path id="Trazado_606627" data-name="Trazado 606627" d="M261.824,94.073c-.182.1-.308.181-.439.25a.667.667,0,0,1-.972-.282.989.989,0,0,1,.332-1.4q.939-.585,1.892-1.148a1.028,1.028,0,0,1,1.61.922q0,4.546,0,9.092c0,.641-.211.9-.848.993a2.739,2.739,0,0,1-.793-.007.811.811,0,0,1-.782-.937q0-3.515,0-7.029Z" transform="translate(-233.661 -81.991)" fill="#12263f"/>
          </g>
        </g>
      </g>
    </g>
    <path id="Trazado_608626" data-name="Trazado 608626" d="M-1262.667-11017.045v27.689l-.354,1.327h-1.5s-1.769,4.158-1.327,5.751a5.381,5.381,0,0,0,2.212,2.652h-26.717s-3.273-1.945-3.1-3.892a18.738,18.738,0,0,0-.354-4.512l.354-25.566s1.062-5.043,5.043-4.954,23,0,23,0h2.742Z" transform="translate(1792.848 11700.105)" fill="#fffbe5"/>
    <g id="Grupo_1016784" data-name="Grupo 1016784" transform="translate(476 645)">
      <g id="Grupo_1016783" data-name="Grupo 1016783" transform="translate(0 0)" clip-path="url(#clip-path-3)">
        <path id="Trazado_608594" data-name="Trazado 608594" d="M4.735,26.078a.813.813,0,0,0,.874.721.814.814,0,0,0,.874-1.01A19.957,19.957,0,0,1,43.05,12.663a.955.955,0,0,0,1.311.289.934.934,0,0,0,.291-1.3A21.937,21.937,0,0,0,26.3,1.7,21.716,21.716,0,0,0,4.444,23.337c.146,1.01.146,1.875.291,2.741" transform="translate(1.966 0.752)"/>
        <path id="Trazado_608595" data-name="Trazado 608595" d="M21.391,9.9a8.754,8.754,0,0,0-8.742,9.809.813.813,0,0,0,.874.721.814.814,0,0,0,.874-1.01,6.927,6.927,0,0,1,6.993-7.789A6.981,6.981,0,0,1,27.364,14.8a.955.955,0,0,0,1.311.288.932.932,0,0,0,.29-1.3A9.612,9.612,0,0,0,21.391,9.9" transform="translate(5.561 4.38)"/>
        <path id="Trazado_608596" data-name="Trazado 608596" d="M64.168,27.114a13.064,13.064,0,0,0-20.25-11.54A17.262,17.262,0,0,0,10.7,21.921a16.192,16.192,0,0,0,.876,5.193,12.831,12.831,0,0,0,1.31,25.532h9.47V68.8a4.907,4.907,0,0,0,4.954,5.337h26.8a.866.866,0,1,0,0-1.731H52.66a5.155,5.155,0,0,1,0-6.347h1.455a.936.936,0,0,0,.876-.865V52.647H64.9A12.931,12.931,0,0,0,77.863,39.808a12.576,12.576,0,0,0-13.7-12.694M53.387,64.331H30.66V35.481H53.387Zm-24.619,0H27.457a5.122,5.122,0,0,0-3.205,1.154V40.818a5.3,5.3,0,0,1,4.516-5.193Zm22,8.078H27.457a3.174,3.174,0,1,1,0-6.347H50.766a6.966,6.966,0,0,0,0,6.347M65.042,50.916H55.135v-16.3a.935.935,0,0,0-.874-.865H29.642A7.115,7.115,0,0,0,22.5,40.818v10.1h-9.47a11.043,11.043,0,0,1,0-22.07,1.053,1.053,0,0,0,.874-1.3,12.145,12.145,0,0,1-1.31-5.481A15.457,15.457,0,0,1,42.753,17.45a.93.93,0,0,0,1.457.433,11.555,11.555,0,0,1,7.139-2.452A10.939,10.939,0,0,1,62.274,28.124a.862.862,0,0,0,1.02,1.01A11.065,11.065,0,0,1,76.113,39.953,10.92,10.92,0,0,1,65.042,50.916" transform="translate(0.223 2.168)"/>
        <path id="Trazado_608597" data-name="Trazado 608597" d="M24.2,47.925H37.9a.935.935,0,0,0,.874-.865V34.365A.935.935,0,0,0,37.9,33.5H24.2a.935.935,0,0,0-.874.865V47.059a.769.769,0,0,0,.874.865m.874-12.55h11.8V46.194h-11.8Z" transform="translate(10.323 14.823)"/>
        <path id="Trazado_608598" data-name="Trazado 608598" d="M24.2,32.831H37.9a.866.866,0,1,0,0-1.731H24.2a.935.935,0,0,0-.874.865.835.835,0,0,0,.874.866" transform="translate(10.323 13.761)"/>
        <path id="Trazado_608599" data-name="Trazado 608599" d="M24.2,30.331H37.9a.866.866,0,1,0,0-1.731H24.2a.935.935,0,0,0-.874.866.835.835,0,0,0,.874.865" transform="translate(10.323 12.655)"/>
        <path id="Trazado_608600" data-name="Trazado 608600" d="M52.025,16.825A7.213,7.213,0,1,0,44.74,9.612a7.177,7.177,0,0,0,7.285,7.212m0-12.55a5.482,5.482,0,1,1-5.536,5.481,5.505,5.505,0,0,1,5.536-5.481" transform="translate(19.797 1.062)"/>
        <path id="Trazado_608601" data-name="Trazado 608601" d="M7.96,43A5.482,5.482,0,1,0,13.5,48.481,5.6,5.6,0,0,0,7.96,43m0,9.088a3.606,3.606,0,1,1,0-7.212,3.606,3.606,0,1,1,0,7.212" transform="translate(1.073 19.027)"/>
        <path id="Trazado_608602" data-name="Trazado 608602" d="M50.5,15.6a1.3,1.3,0,1,1-1.311,1.3A1.3,1.3,0,0,1,50.5,15.6" transform="translate(21.764 6.903)"/>
        <path id="Trazado_608603" data-name="Trazado 608603" d="M37.871,3.1A1.3,1.3,0,1,1,36.56,4.4a1.3,1.3,0,0,1,1.311-1.3" transform="translate(16.178 1.371)"/>
        <path id="Trazado_608604" data-name="Trazado 608604" d="M5.048,0A1.3,1.3,0,0,1,6.359,1.3a1.311,1.311,0,0,1-2.622,0A1.3,1.3,0,0,1,5.048,0" transform="translate(1.654 0)"/>
        <path id="Trazado_608605" data-name="Trazado 608605" d="M1.311,11.8A1.3,1.3,0,1,1,0,13.1a1.3,1.3,0,0,1,1.311-1.3" transform="translate(0 5.221)"/>
        <path id="Trazado_608606" data-name="Trazado 608606" d="M52.414,40.6A1.3,1.3,0,1,1,51.1,41.9a1.3,1.3,0,0,1,1.311-1.3" transform="translate(22.613 17.965)"/>
        <path id="Trazado_608607" data-name="Trazado 608607" d="M44.233,48.1a1.3,1.3,0,1,1-1.311,1.3,1.3,1.3,0,0,1,1.311-1.3" transform="translate(18.993 21.284)"/>
        <path id="Trazado_608608" data-name="Trazado 608608" d="M13.228,52.5a1.3,1.3,0,1,1-1.311,1.3,1.3,1.3,0,0,1,1.311-1.3" transform="translate(5.273 23.231)"/>
        <path id="Trazado_608609" data-name="Trazado 608609" d="M1.917,38.7A1.3,1.3,0,1,1,.606,40a1.3,1.3,0,0,1,1.311-1.3" transform="translate(0.268 17.124)"/>
      </g>
    </g>
    <path id="Trazado_608627" data-name="Trazado 608627" d="M-915.744-10922.106v-4.035l-7.383-6.609-33.053-.516.515,54.688h39.921Z" transform="translate(1794.167 11680.336)" fill="#fff"/>
    <g id="Grupo_1016786" data-name="Grupo 1016786" transform="translate(813.445 741.415)">
      <g id="Grupo_1016785" data-name="Grupo 1016785" transform="translate(0 0)" clip-path="url(#clip-path-4)">
        <path id="Trazado_608610" data-name="Trazado 608610" d="M83.361,71.277a7.773,7.773,0,0,0,2.753-5.907V22.358a7.958,7.958,0,0,0-7.954-7.876H65.923V11.3l-.153-.151A.148.148,0,0,0,65.618,11l-7.8-7.724c-.153-.151-.153,0-.153-.151-.306-.151,1.377,0-32.732,0a.981.981,0,0,0-.918.909v10.45H11.777a7.958,7.958,0,0,0-7.954,7.876V65.37a7.54,7.54,0,0,0,2.753,5.907A6.625,6.625,0,0,0,0,77.941a6.756,6.756,0,0,0,6.729,6.664H83.208a6.756,6.756,0,0,0,6.729-6.664,6.625,6.625,0,0,0-6.576-6.664m-15.45,1.969h8.566v1.969H67.911ZM24.014,58.1H12.542V22.963H24.014ZM12.542,59.918H77.548v4.7H12.542ZM58.429,6.3,62.865,10.7H58.429ZM77.548,58.1H66.076V22.963H77.548ZM25.848,5.092H56.44v6.664a.982.982,0,0,0,.918.909h6.731V58.1H25.848ZM5.811,65.37V22.358a5.944,5.944,0,0,1,5.966-5.907H24.014v4.7H11.624a.982.982,0,0,0-.918.909V65.673a.982.982,0,0,0,.918.909h67a.982.982,0,0,0,.918-.909V22.055a.982.982,0,0,0-.918-.909H66.23v-4.7H78.466a5.943,5.943,0,0,1,5.966,5.907V65.37a5.944,5.944,0,0,1-5.966,5.907H12.083A6.019,6.019,0,0,1,5.811,65.37M36.4,73.246H53.689v1.969H36.4Zm-22.944,0h8.566v1.969H13.46Zm69.749,9.39H6.729a4.7,4.7,0,1,1,0-9.39h4.742v2.878a.982.982,0,0,0,.919.909H22.944a.982.982,0,0,0,.916-.909V73.246H34.415v2.878a.982.982,0,0,0,.918.909H54.452a.982.982,0,0,0,.918-.909V73.246H65.923v2.878a.983.983,0,0,0,.918.909H77.4a.982.982,0,0,0,.918-.909V73.246h4.895a4.7,4.7,0,1,1,0,9.39" transform="translate(0 1.572)"/>
        <path id="Trazado_608611" data-name="Trazado 608611" d="M2.084,8.8A1.363,1.363,0,1,1,.707,10.162,1.369,1.369,0,0,1,2.084,8.8" transform="translate(0.364 4.527)"/>
        <path id="Trazado_608612" data-name="Trazado 608612" d="M14.1,0a1.369,1.369,0,0,1,1.377,1.362,1.377,1.377,0,0,1-2.753,0A1.369,1.369,0,0,1,14.1,0" transform="translate(6.547 -0.001)"/>
        <path id="Trazado_608613" data-name="Trazado 608613" d="M42.481,0a1.369,1.369,0,0,1,1.377,1.362,1.377,1.377,0,0,1-2.753,0A1.369,1.369,0,0,1,42.481,0" transform="translate(21.149 -0.001)"/>
        <path id="Trazado_608614" data-name="Trazado 608614" d="M57.63,8.1a1.363,1.363,0,1,1-1.377,1.363A1.37,1.37,0,0,1,57.63,8.1" transform="translate(28.944 4.167)"/>
        <path id="Trazado_608615" data-name="Trazado 608615" d="M20.015,23.529h6.578a.982.982,0,0,0,.918-.909V16.108a.983.983,0,0,0-.918-.909H20.015a.985.985,0,0,0-.918.909V22.62c-.153.454.307.909.918.909m.918-6.513h4.742v4.7H20.933Z" transform="translate(9.811 7.82)"/>
        <path id="Trazado_608616" data-name="Trazado 608616" d="M26.873,18.217H40.334a.909.909,0,1,0,0-1.817H26.873a.982.982,0,0,0-.918.909.877.877,0,0,0,.918.909" transform="translate(13.355 8.438)"/>
        <path id="Trazado_608617" data-name="Trazado 608617" d="M26.873,20.717H46.91a.909.909,0,1,0,0-1.817H26.873a.982.982,0,0,0-.918.909.877.877,0,0,0,.918.909" transform="translate(13.355 9.724)"/>
        <path id="Trazado_608618" data-name="Trazado 608618" d="M20.015,31.029h6.578a.982.982,0,0,0,.918-.909V23.608a.983.983,0,0,0-.918-.909H20.015a.985.985,0,0,0-.918.909V30.12c-.153.454.307.909.918.909m.918-6.513h4.742v4.7H20.933Z" transform="translate(9.811 11.679)"/>
        <path id="Trazado_608619" data-name="Trazado 608619" d="M26.873,25.617H40.334a.909.909,0,1,0,0-1.817H26.873a.982.982,0,0,0-.918.907.808.808,0,0,0,.918.91" transform="translate(13.355 12.245)"/>
        <path id="Trazado_608620" data-name="Trazado 608620" d="M26.873,28.117H46.91a.909.909,0,1,0,0-1.817H26.873a.982.982,0,0,0-.918.907.808.808,0,0,0,.918.91" transform="translate(13.355 13.532)"/>
        <path id="Trazado_608621" data-name="Trazado 608621" d="M20.015,38.429h6.578a.982.982,0,0,0,.918-.907V31.008a.982.982,0,0,0-.918-.909H20.015a.983.983,0,0,0-.918.909v6.514c-.153.453.307.907.918.907m.918-6.513h4.742v4.7H20.933Z" transform="translate(9.811 15.487)"/>
        <path id="Trazado_608622" data-name="Trazado 608622" d="M26.873,33.117H40.334a.909.909,0,1,0,0-1.817H26.873a.982.982,0,0,0-.918.907.878.878,0,0,0,.918.91" transform="translate(13.355 16.104)"/>
        <path id="Trazado_608623" data-name="Trazado 608623" d="M26.873,35.617H46.91a.909.909,0,1,0,0-1.817H26.873a.982.982,0,0,0-.918.907.878.878,0,0,0,.918.91" transform="translate(13.355 17.391)"/>
        <path id="Trazado_608624" data-name="Trazado 608624" d="M8.579,10.089a4.741,4.741,0,0,0,4.742-4.7,4.742,4.742,0,0,0-9.484,0,4.741,4.741,0,0,0,4.742,4.7m0-7.573a2.89,2.89,0,0,1,2.906,2.878A2.8,2.8,0,0,1,8.579,8.272,2.8,2.8,0,0,1,5.673,5.394,2.89,2.89,0,0,1,8.579,2.516" transform="translate(1.974 0.359)"/>
        <path id="Trazado_608625" data-name="Trazado 608625" d="M53.785,12.609a5.755,5.755,0,1,0-5.813-5.755,5.779,5.779,0,0,0,5.813,5.755m0-9.389a3.787,3.787,0,1,1-3.824,3.786A3.768,3.768,0,0,1,53.785,3.22" transform="translate(24.683 0.565)"/>
      </g>
    </g>
    <rect id="Rectángulo_347298" data-name="Rectángulo 347298" width="66" height="42" transform="translate(428.266 769.654)" fill="#fff"/>
    <g id="Grupo_1016788" data-name="Grupo 1016788" transform="translate(390 741.415)">
      <g id="Grupo_1016787" data-name="Grupo 1016787" transform="translate(28.266 5.654)" clip-path="url(#clip-path-5)">
        <path id="Trazado_608628" data-name="Trazado 608628" d="M80.292,65.3a7.49,7.49,0,0,0,2.651-5.689V18.185A7.665,7.665,0,0,0,75.281,10.6H11.343a7.665,7.665,0,0,0-7.66,7.585V59.613A7.265,7.265,0,0,0,6.334,65.3,6.38,6.38,0,0,0,0,71.721a6.508,6.508,0,0,0,6.483,6.418h73.66a6.508,6.508,0,0,0,6.483-6.418A6.381,6.381,0,0,0,80.292,65.3M65.41,67.2H73.66v1.9H65.41ZM5.6,59.613V18.185A5.726,5.726,0,0,1,11.343,12.5H75.281a5.724,5.724,0,0,1,5.746,5.689V59.613A5.725,5.725,0,0,1,75.281,65.3H11.343A5.724,5.724,0,0,1,5.6,59.613M35.062,67.2H51.711v1.9H35.062Zm-22.1,0h8.249v1.9H12.964Zm67.179,9.044H6.483a4.522,4.522,0,1,1,0-9.044H11.05V69.97a.945.945,0,0,0,.883.875H22.1a.945.945,0,0,0,.883-.875V67.2H33.147V69.97a.946.946,0,0,0,.885.875H52.447a.946.946,0,0,0,.883-.875V67.2H63.5V69.97a.946.946,0,0,0,.884.875H74.544a.946.946,0,0,0,.885-.875V67.2h4.713a4.522,4.522,0,1,1,0,9.044" transform="translate(0 4.863)"/>
        <path id="Trazado_608629" data-name="Trazado 608629" d="M2.033,8.8A1.313,1.313,0,1,1,.707,10.113,1.32,1.32,0,0,1,2.033,8.8" transform="translate(0.324 4.037)"/>
        <path id="Trazado_608630" data-name="Trazado 608630" d="M14.052,0a1.313,1.313,0,1,1-1.326,1.313A1.318,1.318,0,0,1,14.052,0" transform="translate(5.838 0)"/>
        <path id="Trazado_608631" data-name="Trazado 608631" d="M23.443,5.6a1.313,1.313,0,1,1-1.325,1.313A1.32,1.32,0,0,1,23.443,5.6" transform="translate(10.146 2.569)"/>
        <path id="Trazado_608632" data-name="Trazado 608632" d="M28.493,23.1a1.313,1.313,0,1,1-1.326,1.313A1.32,1.32,0,0,1,28.493,23.1" transform="translate(12.463 10.597)"/>
        <path id="Trazado_608633" data-name="Trazado 608633" d="M22.838,23.1a1.313,1.313,0,1,1-1.326,1.313A1.32,1.32,0,0,1,22.838,23.1" transform="translate(9.868 10.597)"/>
        <path id="Trazado_608634" data-name="Trazado 608634" d="M33.543,0a1.32,1.32,0,0,1,1.326,1.313,1.326,1.326,0,0,1-2.652,0A1.32,1.32,0,0,1,33.543,0" transform="translate(14.779 0)"/>
        <path id="Trazado_608635" data-name="Trazado 608635" d="M53.136,3.8A1.313,1.313,0,1,1,51.81,5.113,1.32,1.32,0,0,1,53.136,3.8" transform="translate(23.767 1.743)"/>
        <path id="Trazado_608636" data-name="Trazado 608636" d="M7.853,58.762H72.379a.946.946,0,0,0,.885-.875V15.875A.946.946,0,0,0,72.379,15H7.853a.945.945,0,0,0-.884.875V57.886a.945.945,0,0,0,.884.875M8.883,16.75h3.683v8.169a.884.884,0,0,0,1.768,0V16.75h2.8V31.338a.884.884,0,0,0,1.768,0V16.75h36.83v6.418a.884.884,0,0,0,1.768,0V16.75h5.6V32.213a.884.884,0,0,0,1.768,0V16.75h6.481V56.865H8.883Z" transform="translate(3.197 6.881)"/>
        <path id="Trazado_608637" data-name="Trazado 608637" d="M8.405,9.744a4.568,4.568,0,0,0,4.567-4.522,4.568,4.568,0,0,0-9.135,0A4.568,4.568,0,0,0,8.405,9.744m0-7.294a2.784,2.784,0,0,1,2.8,2.772,2.7,2.7,0,0,1-2.8,2.772,2.7,2.7,0,0,1-2.8-2.772,2.784,2.784,0,0,1,2.8-2.772" transform="translate(1.761 0.321)"/>
        <path id="Trazado_608638" data-name="Trazado 608638" d="M44.684,12.186a5.543,5.543,0,1,0-5.6-5.543,5.664,5.664,0,0,0,5.6,5.543m0-9.044A3.647,3.647,0,1,1,41,6.789a3.629,3.629,0,0,1,3.683-3.647" transform="translate(17.93 0.505)"/>
        <path id="Trazado_608639" data-name="Trazado 608639" d="M52.982,30.036a2.389,2.389,0,0,0-1.326.438l-7.367,4.814v-2.48a3.942,3.942,0,0,0-3.978-3.939H37.661a5.074,5.074,0,0,0,1.177-3.209A5,5,0,0,0,29.7,22.888,5.114,5.114,0,0,0,25.579,20.7a4.944,4.944,0,0,0-5.009,4.96,5.067,5.067,0,0,0,1.179,3.209H19.834a3.941,3.941,0,0,0-3.977,3.939v14a3.941,3.941,0,0,0,3.977,3.939H40.311a3.942,3.942,0,0,0,3.978-3.939v-2.48l7.367,4.814a2.389,2.389,0,0,0,1.326.438,2.316,2.316,0,0,0,2.357-2.334V32.662a2.4,2.4,0,0,0-2.357-2.626M17.624,36.017h24.9V43.31h-24.9ZM33.681,22.45a3.209,3.209,0,1,1-3.24,3.209,3.254,3.254,0,0,1,3.24-3.209m-3.831,6.273H29.41c.146-.146.146-.146.295-.292,0,.146,0,.292.146.292m-7.66-3.209a3.241,3.241,0,1,1,3.241,3.209,3.254,3.254,0,0,1-3.241-3.209m-2.357,5.106H40.311a2.255,2.255,0,0,1,2.21,2.188v1.459h-24.9V32.807a2.159,2.159,0,0,1,2.21-2.188M40.311,48.853H19.834a2.255,2.255,0,0,1-2.21-2.188V45.207h24.9v1.459a2.255,2.255,0,0,1-2.21,2.188m13.26-1.9a.541.541,0,0,1-.884.438l-8.251-5.543V37.329l8.251-5.543a.541.541,0,0,1,.884.438Z" transform="translate(7.274 9.496)"/>
      </g>
    </g>
    <g id="Grupo_1016791" data-name="Grupo 1016791" transform="translate(805.687 655.404)">
      <g id="Grupo_1016791-2" data-name="Grupo 1016791" transform="translate(0 0)" clip-path="url(#clip-path-6)">
        <path id="Trazado_608640" data-name="Trazado 608640" d="M54.006,42.09H37.4A19.944,19.944,0,1,0,9.876,23.571,20.154,20.154,0,0,0,22.484,42.09H9.771a.388.388,0,0,0-.315.1L.315,48.228a.587.587,0,0,0,0,1.04C1.366,50,9.456,55.3,9.456,55.3a.388.388,0,0,0,.315.1H54.006a6.626,6.626,0,0,0,6.619-6.554v-.416a6.659,6.659,0,0,0-6.619-6.346M9.141,52.7a4.53,4.53,0,0,0,.105.936L5.569,51.245a5.265,5.265,0,0,0,0-4.994l3.677-2.5a1.64,1.64,0,0,0-.105.936,2.552,2.552,0,0,0,.946,1.977,2.743,2.743,0,0,0-.946,1.977v.1a2.552,2.552,0,0,0,.946,1.977A2.552,2.552,0,0,0,9.141,52.7M10.4,48.852v-.1A1.384,1.384,0,0,1,11.768,47.4H52.535v2.7H11.768A1.3,1.3,0,0,1,10.4,48.852M11.137,24.2h7.985a30.836,30.836,0,0,0,1.156,8.427,22.348,22.348,0,0,0-4.413,3.329A19.343,19.343,0,0,1,11.137,24.2m4.727-12.9a21.793,21.793,0,0,0,4.413,3.225,31.409,31.409,0,0,0-1.156,8.427H11.137a19.052,19.052,0,0,1,4.727-11.652m28.055,0a17.911,17.911,0,0,1,4.728,11.652H40.767a30.836,30.836,0,0,0-1.156-8.427,22.083,22.083,0,0,0,4.308-3.225m0,24.657a21.764,21.764,0,0,0-4.413-3.225A31.409,31.409,0,0,0,40.662,24.3h7.986a18.132,18.132,0,0,1-4.728,11.652M30.575,42.09V31.582a20.1,20.1,0,0,1,7.459,1.769,27.66,27.66,0,0,1-1.47,3.537C34.988,39.8,33.1,41.569,31,42.09Zm0-11.756V24.2H39.4A31.949,31.949,0,0,1,38.35,32.1a18.092,18.092,0,0,0-7.775-1.769m-1.261,0a19.851,19.851,0,0,0-7.776,1.873A31.294,31.294,0,0,1,20.488,24.3h8.826Zm0,1.248V42.09h-.42c-2.1-.416-3.993-2.289-5.569-5.2a27.66,27.66,0,0,1-1.471-3.537,20.1,20.1,0,0,1,7.46-1.769m9.876,2.393a20.963,20.963,0,0,1,3.887,2.913,18.65,18.65,0,0,1-8.509,4.786,18.746,18.746,0,0,0,4.622-7.7m.21-11.028H30.575V16.913a21.742,21.742,0,0,0,7.775-1.769,30.468,30.468,0,0,1,1.051,7.8M30.575,15.56V5.052c2.207.312,4.307,2.185,5.989,5.2a27.66,27.66,0,0,1,1.47,3.537,16.74,16.74,0,0,1-7.459,1.769M29.315,5.052V15.56a20.1,20.1,0,0,1-7.46-1.769,27.66,27.66,0,0,1,1.471-3.537c1.681-3.017,3.678-4.89,5.989-5.2m0,11.86v6.034H20.488a31.949,31.949,0,0,1,1.051-7.907,19.416,19.416,0,0,0,7.776,1.873M20.7,33.975c.945,2.7,2.416,5.722,4.622,7.595a19.473,19.473,0,0,1-8.511-4.682A21.012,21.012,0,0,1,20.7,33.975M43.078,10.358a20.963,20.963,0,0,1-3.887,2.913c-.946-2.7-2.417-5.722-4.622-7.595a17.582,17.582,0,0,1,8.509,4.682M20.7,13.167a21.012,21.012,0,0,1-3.889-2.913,17.594,17.594,0,0,1,8.511-4.682A16.763,16.763,0,0,0,20.7,13.167m7.144,30.171a28.339,28.339,0,0,0,4.2,0H52.535v2.7H11.768A1.384,1.384,0,0,1,10.4,44.691v-.1a1.384,1.384,0,0,1,1.366-1.352H27.843ZM4.412,46.979a4.166,4.166,0,0,1,0,3.537L1.786,48.748ZM10.4,52.91v-.1a1.384,1.384,0,0,1,1.366-1.352H52.535v2.7H11.768A1.3,1.3,0,0,1,10.4,52.91m48.858-3.953a5.177,5.177,0,0,1-5.254,5.2H53.8V43.338h.21a5.177,5.177,0,0,1,5.254,5.2Z" transform="translate(0 0.149)"/>
        <path id="Trazado_608641" data-name="Trazado 608641" d="M41.444,2.5a.936.936,0,1,1-.945.936.941.941,0,0,1,.945-.936" transform="translate(1.635 0.101)"/>
        <path id="Trazado_608642" data-name="Trazado 608642" d="M13.974,0a.941.941,0,0,1,.946.936.946.946,0,0,1-1.891,0A.941.941,0,0,1,13.974,0" transform="translate(0.526 0)"/>
        <path id="Trazado_608643" data-name="Trazado 608643" d="M2.662,11.2a.936.936,0,1,1-.945.936.941.941,0,0,1,.945-.936" transform="translate(0.069 0.452)"/>
        <path id="Trazado_608644" data-name="Trazado 608644" d="M51.241,15.6a.936.936,0,1,1-.946.936.941.941,0,0,1,.946-.936" transform="translate(2.03 0.63)"/>
        <path id="Trazado_608645" data-name="Trazado 608645" d="M48.715,35.6a.936.936,0,1,1-.945.936.94.94,0,0,1,.945-.936" transform="translate(1.928 1.437)"/>
        <path id="Trazado_608646" data-name="Trazado 608646" d="M11.45,36.2a.936.936,0,1,1-.946.936.94.94,0,0,1,.946-.936" transform="translate(0.424 1.462)"/>
        <path id="Trazado_608647" data-name="Trazado 608647" d="M51.028,8.35a3.258,3.258,0,0,0,3.257-3.225,3.258,3.258,0,0,0-6.515,0A3.129,3.129,0,0,0,51.028,8.35m0-5.2a1.977,1.977,0,1,1-2,1.977,1.923,1.923,0,0,1,2-1.977" transform="translate(1.928 0.077)"/>
        <path id="Trazado_608648" data-name="Trazado 608648" d="M4.9,37.107A3.954,3.954,0,1,0,.909,33.153,4.04,4.04,0,0,0,4.9,37.107m0-6.45a2.6,2.6,0,1,1,0,5.2,2.588,2.588,0,0,1-2.626-2.6,2.656,2.656,0,0,1,2.626-2.6" transform="translate(0.037 1.179)"/>
      </g>
    </g>
  </g>
</svg>
