<svg xmlns="http://www.w3.org/2000/svg" xmlns:xlink="http://www.w3.org/1999/xlink" width="357" height="187" viewBox="0 0 357 187">
  <defs>
    <clipPath id="clip-path">
      <rect id="Rectángulo_345713" data-name="Rectángulo 345713" width="324.693" height="175.532" fill="none"/>
    </clipPath>
  </defs>
  <g id="Grupo_1016457" data-name="Grupo 1016457" transform="translate(-328 -953)">
    <g id="Grupo_1015787" data-name="Grupo 1015787" transform="translate(105 452)">
      <rect id="Rectángulo_346381" data-name="Rectángulo 346381" width="357" height="49" rx="24.5" transform="translate(223 639)" fill="#a3bfe4"/>
      <g id="Grupo_1015069" data-name="Grupo 1015069" transform="translate(242.221 501)">
        <rect id="Rectángulo_345703" data-name="Rectángulo 345703" width="28.414" height="9.746" transform="translate(75.117 26.095)" fill="#fcfcfc"/>
        <rect id="Rectángulo_345704" data-name="Rectángulo 345704" width="28.414" height="9.746" transform="translate(75.117 40.474)" fill="#fcfcfc"/>
        <rect id="Rectángulo_345705" data-name="Rectángulo 345705" width="28.414" height="9.746" transform="translate(75.117 54.852)" fill="#fcfcfc"/>
        <rect id="Rectángulo_345706" data-name="Rectángulo 345706" width="68.191" height="68.193" transform="translate(204.618 13.463)" fill="#33ece0"/>
        <g id="Grupo_1015067" data-name="Grupo 1015067">
          <g id="Grupo_1015066" data-name="Grupo 1015066" clip-path="url(#clip-path)">
            <path id="Trazado_605309" data-name="Trazado 605309" d="M94.247,128.427H6.758a6.663,6.663,0,0,1-6.644-6.644V60.442A6.663,6.663,0,0,1,6.758,53.8H94.247a6.664,6.664,0,0,1,6.644,6.644v61.341a6.664,6.664,0,0,1-6.644,6.644" transform="translate(0.033 15.673)" fill="#fff"/>
            <path id="Trazado_605310" data-name="Trazado 605310" d="M123.8,77.337s-9.462.23-15.865,5.7A66.3,66.3,0,0,0,91.72,104.08c-3.837,8.013-7.219,14.185-6.8,21.312s4.595,11.9,11.428,13.775a83.119,83.119,0,0,0,12.669,2.423l-.148,10.785h47.952l-.433-21.569a5.062,5.062,0,0,0,3.556-1.482c1.605-1.591.869-6.436.869-6.436s6.065,4.27,11.251,3.835,8.644-4.232,9.36-6.883a49.476,49.476,0,0,0,1.462-13.314c-.045-6.41-.673-20.267-.673-20.267s-1.074-2.24-8.352-2.588-9.044,1.994-9.044,1.994l-.177,4.684s-2.181-4.976-5.61-7.225-9.494-5.585-15.8-5.634L123.8,77.337" transform="translate(24.73 22.531)" fill="#1a1a1a"/>
            <path id="Trazado_605311" data-name="Trazado 605311" d="M139.436,126.891h12.135a5.177,5.177,0,0,0,3.558-1.331c1.431-1.432.868-4.8.868-4.8l.088-26.683a3.808,3.808,0,0,0-1.129-2.725,4.311,4.311,0,0,0-2.66-1.1H105.808s-2.692-.1-3.689,1.329a4.6,4.6,0,0,0-.63,3.223l-.066,23.768S113.85,121.193,120,121.26c0,0,1.131-.332,1.578.4s0,.182,0,.182,1.943-.748,2.144-2.341.032-5.941,2.093-5.994,2.483,2.838,2.472,5.13a19.372,19.372,0,0,1-1.076,5.249s-.325,1.253,1.515,1.756,7.058,1.662,10.713,1.25" transform="translate(29.548 26.295)" fill="#bcbcbc"/>
            <path id="Trazado_605312" data-name="Trazado 605312" d="M180.745,97.021a32.388,32.388,0,0,0-12.7,13.37c-4.755,9.343-7.439,17.513-7.9,24.045a27.089,27.089,0,0,0,2.231,12.881H208.43l14.471-4.389-6.09-30.7s-3.15-8.175-7.683-12.278a20.812,20.812,0,0,0-11.1-5.251c-1.182-.018-17.286,2.324-17.286,2.324" transform="translate(46.636 27.588)" fill="#fff198"/>
            <path id="Trazado_605313" data-name="Trazado 605313" d="M206.153,145.353h43.266a6.935,6.935,0,0,0,6.277-4.71l10.261-29.633a6.378,6.378,0,0,0-6.277-8.32H216.415a6.593,6.593,0,0,0-6.278,4.339l-10.262,29.634a6.67,6.67,0,0,0,6.278,8.691" transform="translate(58.131 29.917)" fill="#1a1a1a"/>
            <path id="Trazado_605314" data-name="Trazado 605314" d="M59.932,67.69l-.252,1.028s.053-.186-.648-.258a1.109,1.109,0,0,0-1.138.828c-.081.289-1.275,4.637-1.275,4.637s.158.872.635.869a3.265,3.265,0,0,0,1.152-.35l-.737,2.379a3.361,3.361,0,0,0-2.478,0s-3.045-1.233-4.339.312c0,0-2.109-1.751-2.984-2.309a1.941,1.941,0,0,0-2.714.229c-.6.909-.38,1.333.666,2.08s3.828,3.1,4.524,3.8a24.393,24.393,0,0,1,2.68,3c.025.274-.42.112-.87-.306s-3.018-2.983-3.889-3.058a1.464,1.464,0,0,0-1.49,1.964c.343,1.275,2.039,2.017,3.422,3.776s5.586,2.841,5.693,2.841,3.319-2.534,5.8-2.28a7.057,7.057,0,0,1-.467-4.68,8.551,8.551,0,0,1,3.144-4.309S66.8,78.5,67.85,76.52a2.985,2.985,0,0,0-1.071-3.97A3.776,3.776,0,0,0,64.986,72s-4.376-1.644-5.054-4.31" transform="translate(13.058 19.72)" fill="#fff"/>
            <path id="Trazado_605315" data-name="Trazado 605315" d="M38.586,97.57a6.159,6.159,0,0,1-1.738-3.29c-.435-2.175-.657-5.6-1.3-6.016s-2.2-1.179-2.559.6.647,3.084.5,4.214-.391,1.662-1.12,1.707-1.5-.482-2.5-1.525a34.989,34.989,0,0,1-3.262-4.4c-.848-1.313-1.912-2.333-2.893-1.761a2.227,2.227,0,0,0-.9,1.921,1.421,1.421,0,0,0-1.6.116,1.2,1.2,0,0,0-.394,1.575,1.989,1.989,0,0,0-1.392,2.141c-.028,1.872,3.367,6.1,4.287,7.191s3.768,4.234,5.159,4.6a21.877,21.877,0,0,1,4.432-3.791c2.442-1.5,5.28-3.29,5.28-3.29" transform="translate(5.66 25.329)" fill="#fff"/>
            <path id="Trazado_605316" data-name="Trazado 605316" d="M115.842,117.591s2.572-1.109,3.3-2.233a4.4,4.4,0,0,0,.865-3.262c0-1.826.364-3.612,1.86-3.831s2.513,1.482,2.457,3.865a26.6,26.6,0,0,1-.779,5.859,1.516,1.516,0,0,0,.78,2.212,12.951,12.951,0,0,0,6.646,1.43,29.117,29.117,0,0,1,4.518.021,3.671,3.671,0,0,1-.947,1.156s-.642,2.856-2.751,3.6a18.547,18.547,0,0,1-6.67,1.3c-2.991.07-5.448-.257-6.475-.269s-3.062-.23-3.452-1.64a21.269,21.269,0,0,1-.209-4.378,11.24,11.24,0,0,1,.851-3.828" transform="translate(33.491 31.536)" fill="#fff"/>
            <path id="Trazado_605317" data-name="Trazado 605317" d="M161.964,90.429s.272-4.792.133-6.422-.483-1.8-.133-4.121a34.332,34.332,0,0,0,.664-7.476c-.183-2.519-.579-4.189-1.675-4.024a5.243,5.243,0,0,0-1.968.775,1.5,1.5,0,0,0-1.566-1.59,1.929,1.929,0,0,0-2.035,1.182,2.351,2.351,0,0,0-2.036-1.122c-1.3.119-1.959,1.162-2.025,2.584s-.265,8.8-.265,8.8-.779-.143-1.763-1.453-2.875-3.057-4.383-1.635-.993,2.739.591,4.259,3.9,3.388,4.412,5.652a29.184,29.184,0,0,1,.582,4.828s7.522,1.413,11.466-.235" transform="translate(41.955 19.686)" fill="#fff"/>
            <path id="Trazado_605318" data-name="Trazado 605318" d="M128.31,106.535a3.855,3.855,0,1,1-3.855-3.856,3.856,3.856,0,0,1,3.855,3.856" transform="translate(35.135 29.914)" fill="#fff"/>
            <path id="Trazado_605319" data-name="Trazado 605319" d="M190.981,99.937l.234-4.427s2.931-.065,3.51-1.959a16.854,16.854,0,0,0,.863-6.359c-.084-3.026-.181-5.783-.181-5.783l-4.425-4.7s-4.086,5.465-5.307,6.851-2.3,2.342-2.2,4.335,2.177,4.592,2.887,5.287a6.926,6.926,0,0,1,.976,5.644,13.872,13.872,0,0,1-1.708,3.439s2.14,3.9,3.9,3.623,1.446-5.948,1.446-5.948" transform="translate(53.451 22.347)" fill="#fff"/>
            <path id="Trazado_605320" data-name="Trazado 605320" d="M183.081,129.664a26.982,26.982,0,0,1,4.236-2.111c1.9-.671,3.117-1.169,4.669-.943,0,0,2.754-1.9,5.327-.536a4.652,4.652,0,0,1,2.345-.9c1.337-.092,2.554,2.811,2.554,2.811l-.79,3.735s.5,3.356,1.125,3.771l-9.733.349-1.468-2.426a2.843,2.843,0,0,1-2.593,2.078,29.54,29.54,0,0,1-3.807,0s-2.553-2.727-1.865-5.829" transform="translate(53.303 36.468)" fill="#fff"/>
            <path id="Trazado_605321" data-name="Trazado 605321" d="M137.4,66.618c-.028-3.037-3.338-2.424-3.984-2.261a8.382,8.382,0,0,0-.274-2.961,21.729,21.729,0,0,1-1.218-3.447,62.391,62.391,0,0,1-6.566.958c-3.683.342-6.741-2.46-6.741-2.46a14.108,14.108,0,0,1-1.577,5.167l-.253,2.651c-2.612-.62-3.915.894-3.807,2.353a3.045,3.045,0,0,0,1.832,2.76,4.3,4.3,0,0,0,2.213-.2,13.285,13.285,0,0,1,.292,3.1,7.116,7.116,0,0,0,2.352,4.476l-.231,3.39-3.813,3.286,3.294,16.666h12.758l3.376-16.514-4.194-3.439L130.475,77c2.537-2.03,2.855-5.292,2.889-7.864,1.56.856,4.061.4,4.034-2.514" transform="translate(32.913 16.445)" fill="#fff"/>
            <path id="Trazado_605322" data-name="Trazado 605322" d="M61.058,79.788s-3.325,2.33-3.333,5.5,1.463,5.213,2.984,5.633,4.41.6,5.382,3.268,1.2,6.139,1.665,7.454a6.056,6.056,0,0,0,5.149,4.534c3.8.647,6.506-1.285,8.332-4.331a12.569,12.569,0,0,0,1.5-9.591,20.5,20.5,0,0,0-3.2-8.536A27.76,27.76,0,0,0,74.852,78.6c-.746-.851-1.2-.834-.821-2.168s2.388-3.528,2.209-6.393-.46-4.162-6.688-5.882a8.652,8.652,0,0,0-5.067-2.74c-3.552-.724-6.764.081-7.788,2.469a7.605,7.605,0,0,0,.721,6.953C58.591,72.483,61.68,73.9,61.68,73.9s3.182-.014,3.249,2.722a3.117,3.117,0,0,1-3.871,3.162" transform="translate(16.363 17.818)" fill="#ff7e7e"/>
            <path id="Trazado_605323" data-name="Trazado 605323" d="M194.059,77.332l4.606,4.725a26.288,26.288,0,0,0-.093-3.951,3.963,3.963,0,0,0-3.3-3.525,35.579,35.579,0,0,0-8.36-.466c-3.585.276-8.361,2.19-8.59,6.915,0,0,1.02,4.737,1.406,7.2s1.352,6.318.256,7.554-3.549,1.7-4.738,2.1-4.6,4.693-1.414,7.21l3.293-2.053s5.155,2.477,8.245,1.7a6.939,6.939,0,0,0,5.035-4.436c.223-1.2.373-4.263-.673-6.131s-2.917-2.942-3.017-5.11.275-2.948,1.246-3.941a50.815,50.815,0,0,0,3.465-4.012c.978-1.281,2.633-3.784,2.633-3.784" transform="translate(50.256 21.568)" fill="#1a1a1a"/>
            <path id="Trazado_605324" data-name="Trazado 605324" d="M189.521,91.383l-.234,4.427,2.962.554a3.927,3.927,0,0,0,.788-2.665,4.5,4.5,0,0,0-1.065-2.823,14.4,14.4,0,0,1-2.451.507" transform="translate(55.146 26.475)" fill="#1a1a1a"/>
            <path id="Trazado_605325" data-name="Trazado 605325" d="M226.284,118.637c-1.318,2.283-1.167,4.836.334,5.7s3.787-.28,5.106-2.563,1.167-4.837-.334-5.7-3.789.28-5.106,2.563" transform="translate(65.662 33.732)" fill="#fff"/>
            <path id="Trazado_605326" data-name="Trazado 605326" d="M211.2,145.783H176.909s-1.529-.633-1.13-1.763a2.24,2.24,0,0,1,1.3-1.41l27.713.081a5.6,5.6,0,0,1-1.254-3.988,10.855,10.855,0,0,1,1.125-4.353l10.005-29.785a6,6,0,0,1,5.61-3.351h44.561l3.688,2.1-45.491-.165s-4.884.664-5.848,4.087l-10.6,30.756a5.7,5.7,0,0,0,.7,4.135,12.447,12.447,0,0,0,3.922,3.657" transform="translate(51.191 29.487)" fill="#fff"/>
            <path id="Trazado_605327" data-name="Trazado 605327" d="M183.057,130.269s6.014-3.572,9.095-3.054a4.759,4.759,0,0,1,4.451-.824l-.353-.611A9.8,9.8,0,0,0,190,123.1a6.9,6.9,0,0,0-6.943,7.169" transform="translate(53.327 35.863)" fill="#1a1a1a"/>
            <path id="Trazado_605328" data-name="Trazado 605328" d="M187.878,133.552s1.859-.764,2.034-1.994l1.207,1.994Z" transform="translate(54.735 38.327)" fill="#1a1a1a"/>
            <path id="Trazado_605468" data-name="Trazado 605468" d="M0,0H12.754V39.616H0Z" transform="translate(201.91 38.225)" fill="#a3bfe4"/>
            <rect id="Rectángulo_345708" data-name="Rectángulo 345708" width="12.754" height="24.652" transform="translate(228.785 48.492)" fill="#fff"/>
            <path id="Trazado_605469" data-name="Trazado 605469" d="M0,0H12.754V15.7H0Z" transform="translate(249.762 62.51)" fill="#a3bfe4"/>
            <path id="Trazado_605329" data-name="Trazado 605329" d="M123.146,80.783l-2.967,6.652,1.182,2.535L120.633,93h5.706l-1.021-3.022,1.078-2.344Z" transform="translate(35.012 23.535)" fill="#33ece0"/>
            <path id="Trazado_605330" data-name="Trazado 605330" d="M121.909,82.426l2.022,4.709-.63,2.841.63,3.022h1.9l-1.021-3.022,1.078-2.342-3.25-6.851Z" transform="translate(35.516 23.535)" fill="#fff"/>
            <path id="Trazado_605331" data-name="Trazado 605331" d="M67.133,82.547s-6.357-.034-10.48,8.772S48.211,110.2,48.211,110.2l-10.5-11.732s-7.869,3.431-11.585,8.4c0,0,6.117,13.8,13.031,19.188s9.367,5.952,14.62,4.64l-3.52,20.189H90.4s-2.371-16.669-2.535-19.916-.217-7.135-.217-7.135,3.245,1.453,6.454-1.715,3.268-4.53,2.871-7.251a58.964,58.964,0,0,0-3.458-12.13c-2.119-5.586-3.521-7.124-3.521-7.124S87.9,100.644,82.67,100s-5.932-3.39-6.431-5.633S75.9,89.729,74.6,87.411s-3.219-2.4-4.576-2.584-2.875-1.237-2.889-2.281" transform="translate(7.611 24.049)" fill="#1a1a1a"/>
            <path id="Trazado_605332" data-name="Trazado 605332" d="M38.218,118.9a9.737,9.737,0,0,1,16.954-.384,10.216,10.216,0,0,1-8.824,3.684,12.687,12.687,0,0,1-8.13-3.3" transform="translate(11.134 33.141)" fill="#bfe8e5"/>
            <rect id="Rectángulo_345710" data-name="Rectángulo 345710" width="6.047" height="6.047" transform="translate(9.035 118.719)" fill="#33ece0"/>
            <rect id="Rectángulo_345711" data-name="Rectángulo 345711" width="6.047" height="6.047" transform="translate(5.38 133.962)" fill="#1a1a1a"/>
            <path id="Trazado_605333" data-name="Trazado 605333" d="M115.326,65.545s-2.013-11.067,2.526-11.459a6.934,6.934,0,0,1,6.77-2.865c4.812.478,7.659,2,9.092,6.275a14.249,14.249,0,0,1,.218,8.093l-1.176.167V63.23l-1.162-3.855a15.839,15.839,0,0,1-7.314,1.047,17.148,17.148,0,0,1-6.223-2.441s-.737,4.289-1.575,5.167l-.253,2.651Z" transform="translate(33.469 14.909)" fill="#ffce26"/>
            <path id="Trazado_605334" data-name="Trazado 605334" d="M189.1,77.485c-.4,1.854-2.428,5.218-3.764,7.3.961-1.016,2.26-2.522,3.133-3.666.978-1.281,2.633-3.784,2.633-3.784l4.606,4.725a26.292,26.292,0,0,0-.093-3.951,3.961,3.961,0,0,0-3.3-3.524,35.491,35.491,0,0,0-8.36-.467c-.42.032-.859.09-1.3.169.138.008,7.049.42,6.449,3.2" transform="translate(53.213 21.568)" fill="#fff"/>
            <path id="Trazado_605335" data-name="Trazado 605335" d="M183.131,100.769a6.939,6.939,0,0,0,5.034-4.436c.225-1.2.374-4.263-.673-6.131a20.251,20.251,0,0,0-1.925-2.523c.847,1.817,1.945,5.009.957,7.931-1.486,4.394-6.334,5.084-6.334,5.084l.54.158a6.84,6.84,0,0,0,2.4-.083" transform="translate(52.495 25.544)" fill="#fff"/>
            <path id="Trazado_605336" data-name="Trazado 605336" d="M190.367,91.2c-.034.041,1.361,2.541.314,4.928l1.254.234a3.925,3.925,0,0,0,.786-2.664,4.492,4.492,0,0,0-1.065-2.823s-.655.177-1.289.325" transform="translate(55.46 26.475)" fill="#fff"/>
            <path id="Trazado_605337" data-name="Trazado 605337" d="M131.594,63.071V65.6l1.175-.167a14.26,14.26,0,0,0-.217-8.094,7.987,7.987,0,0,0-5.6-5.615c.828.726,3.736,3.487,2.446,5.435-1.49,2.252-10.47,1.759-10.53,1.755a16.1,16.1,0,0,0,4.245,1.353,15.838,15.838,0,0,0,7.315-1.049Z" transform="translate(34.631 15.068)" fill="#fff"/>
            <path id="Trazado_605338" data-name="Trazado 605338" d="M64.486,61.418c-3.554-.723-6.767.08-7.789,2.47a7.606,7.606,0,0,0,.721,6.951,8.351,8.351,0,0,0,2.2,1.916c-.708-1.33-4.735-9.746,6.089-11.016a11.176,11.176,0,0,0-1.222-.322" transform="translate(16.363 17.818)" fill="#fff"/>
            <path id="Trazado_605339" data-name="Trazado 605339" d="M61.421,86.955c-4.518-4.653.563-11.3.563-11.3a3.956,3.956,0,0,1-1.277-.065s-3.325,2.331-3.333,5.5,1.463,5.214,2.984,5.634c.311.087.681.163,1.077.252l-.014-.017" transform="translate(16.715 22.021)" fill="#fff"/>
            <path id="Trazado_605340" data-name="Trazado 605340" d="M187.86,68.32H175.1c-.263-.263-.263-24.916-.263-24.916.263-.262,13.019-.262,13.019-.262.265.262.265,24.915.265,24.915a.266.266,0,0,1-.265.263m-12.492-.527H187.6V43.666H175.368Z" transform="translate(50.937 12.569)" fill="#1a1a1a"/>
            <path id="Trazado_605341" data-name="Trazado 605341" d="M171.335,71.7H158.58c-.265-.263-.265-39.879-.265-39.879.265-.263,13.02-.263,13.02-.263.263.263.263,39.879.263,39.879a.265.265,0,0,1-.263.263m-12.492-.527h12.229V32.08H158.843Z" transform="translate(46.122 9.193)" fill="#1a1a1a"/>
            <path id="Trazado_605342" data-name="Trazado 605342" d="M119.768,67.864c-1.795,0-3.255-1.838-3.255-4.1s1.46-4.1,3.255-4.1,3.257,1.839,3.257,4.1-1.462,4.1-3.257,4.1m0-7.671c-1.506,0-2.731,1.6-2.731,3.573s1.225,3.572,2.731,3.572,2.73-1.6,2.73-3.572-1.224-3.573-2.73-3.573" transform="translate(33.944 17.383)" fill="#1a1a1a"/>
            <path id="Trazado_605343" data-name="Trazado 605343" d="M152.338,127.2H136.607c0-.526,15.731-.526,15.731-.526a3.5,3.5,0,0,0,3.5-3.5V94.064a3.5,3.5,0,0,0-3.5-3.5H105.233a3.5,3.5,0,0,0-3.5,3.5V118.7c-.526,0-.526-24.635-.526-24.635a4.029,4.029,0,0,1,4.025-4.024h47.105a4.028,4.028,0,0,1,4.026,4.024v29.109a4.03,4.03,0,0,1-4.026,4.025" transform="translate(29.485 26.232)" fill="#1a1a1a"/>
            <path id="Trazado_605344" data-name="Trazado 605344" d="M123.545,109.659a4.117,4.117,0,1,1,4.117-4.117,4.122,4.122,0,0,1-4.117,4.117m0-7.708a3.591,3.591,0,1,0,3.592,3.591,3.6,3.6,0,0,0-3.592-3.591" transform="translate(34.793 29.548)" fill="#1a1a1a"/>
            <path id="Trazado_605345" data-name="Trazado 605345" d="M151.444,90.9c-1.813-3.361-3.21-5.466-4.507-6.583-5.74-4.935-11.094-5.77-15.816-6.5-.412-.066-.821-.128-1.224-.194A1.322,1.322,0,0,1,131.2,77.3c4.792.746,10.222,1.593,16.075,6.626,1.355,1.165,2.8,3.324,4.4,6.6-.158.369-.2.378-.235.378" transform="translate(37.843 22.505)" fill="#1a1a1a"/>
            <path id="Trazado_605346" data-name="Trazado 605346" d="M114.718,141.893c-15.1,0-24.305-3.116-28.094-9.494-3.976-6.7-1.862-16.7,6.654-31.489a76.2,76.2,0,0,1,13.241-16.955c5.855-5.035,11.288-5.881,16.081-6.627.411-.065.817-.127,1.22-.192a1.308,1.308,0,0,1-1.14.713c-4.722.736-10.076,1.569-15.816,6.5a75.538,75.538,0,0,0-13.129,16.818c-8.413,14.6-10.528,24.44-6.658,30.958,3.856,6.492,14.1,9.6,30.407,9.2,2.221-.05,8.9,0,8.968,0-.07.526-6.745.473-8.955.526q-1.42.035-2.779.035" transform="translate(24.672 22.472)" fill="#1a1a1a"/>
            <path id="Trazado_605347" data-name="Trazado 605347" d="M118.378,95.079c-.26-.212-3.554-16.878-3.554-16.878.083-.247,3.9-3.658,3.9-3.658.385.037,6.02,7.525,6.02,7.525l5.341-7.482c.385-.048,4.419,3.364,4.419,3.364.087.251-3.108,16.916-3.108,16.916-.514-.1,2.65-16.614,2.65-16.614l-3.7-3.129-5.384,7.541c-.424.006-6.1-7.539-6.1-7.539l-3.488,3.121,3.266,16.519c-.225.312-.243.314-.258.314" transform="translate(33.452 21.717)" fill="#1a1a1a"/>
            <path id="Trazado_605348" data-name="Trazado 605348" d="M118.061,93.306c-.238-.373,5.509-12.678,5.509-12.678.477,0,6.179,12.305,6.179,12.305-.475.221-5.943-11.569-5.943-11.569L118.3,93.155a.265.265,0,0,1-.238.151" transform="translate(34.393 23.49)" fill="#1a1a1a"/>
            <path id="Trazado_605349" data-name="Trazado 605349" d="M121.417,88.787a24.52,24.52,0,0,1-1.427-3c.487-.2,1.6,2.477,1.6,2.477l3.6-.006.956-2.311c.488.2-.535,2.674-.535,2.674a38.494,38.494,0,0,1-4.2.17" transform="translate(34.957 24.988)" fill="#1a1a1a"/>
            <path id="Trazado_605350" data-name="Trazado 605350" d="M120.542,91.2c-.254-.324.475-3.346.475-3.346.511.124-.22,3.146-.22,3.146a.261.261,0,0,1-.256.2" transform="translate(35.102 25.595)" fill="#1a1a1a"/>
            <path id="Trazado_605351" data-name="Trazado 605351" d="M125.125,91.173a22.25,22.25,0,0,1-1.162-3.215c.5-.151,1.414,2.877,1.414,2.877-.2.334-.227.338-.252.338" transform="translate(36.115 25.623)" fill="#1a1a1a"/>
            <path id="Trazado_605352" data-name="Trazado 605352" d="M126.638,67.864c-1.795,0-3.255-1.838-3.255-4.1s1.46-4.1,3.255-4.1,3.258,1.839,3.258,4.1-1.462,4.1-3.258,4.1m0-7.671c-1.506,0-2.73,1.6-2.73,3.573s1.224,3.572,2.73,3.572,2.731-1.6,2.731-3.572-1.224-3.573-2.731-3.573" transform="translate(35.946 17.383)" fill="#1a1a1a"/>
            <path id="Trazado_605353" data-name="Trazado 605353" d="M124.1,63.317a2.274,2.274,0,0,0-1.542-.686,1.5,1.5,0,0,0-.967.5c-.391-.354.1-.971.923-1.03a2.33,2.33,0,0,1,1.765.758c-.04.427-.11.453-.179.453" transform="translate(35.384 18.092)" fill="#1a1a1a"/>
            <path id="Trazado_605354" data-name="Trazado 605354" d="M130.079,68.138A3,3,0,0,1,128.7,67.8a3.929,3.929,0,0,1,1.537-.195,2.479,2.479,0,0,0,1.488-4.331,2.481,2.481,0,0,0-2.611-.424c.108-.617.439-.695.781-.717a3.031,3.031,0,0,1,2.176.745,3.006,3.006,0,0,1-1.8,5.253c-.066,0-.128.005-.191.005" transform="translate(37.494 18.101)" fill="#1a1a1a"/>
            <path id="Trazado_605355" data-name="Trazado 605355" d="M130.688,66.507c-.161-.054-2.009-1.482-2.009-1.482,0-.421,2.048-1.934,2.048-1.934.311.425-1.451,1.729-1.451,1.729l1.572,1.216c0,.438-.081.471-.159.471" transform="translate(37.488 18.38)" fill="#1a1a1a"/>
            <path id="Trazado_605356" data-name="Trazado 605356" d="M115.774,68.138a3,3,0,1,1,.186-6,3.018,3.018,0,0,1,.987.231,1.156,1.156,0,0,1-1.019.293,2.478,2.478,0,1,0,.987,4.675,1.018,1.018,0,0,1-1.14.8" transform="translate(32.853 18.101)" fill="#1a1a1a"/>
            <path id="Trazado_605357" data-name="Trazado 605357" d="M114.707,66.428c-.161-.471,1.415-1.688,1.415-1.688l-1.765-1.3c.314-.425,2.357,1.089,2.357,1.089.005.421-1.845,1.849-1.845,1.849a.27.27,0,0,1-.161.054" transform="translate(33.316 18.459)" fill="#1a1a1a"/>
            <path id="Trazado_605358" data-name="Trazado 605358" d="M118.037,75.95c-.263-.263-.263-3.683-.263-3.683.526,0,.526,3.419.526,3.419a.263.263,0,0,1-.262.263" transform="translate(34.312 21.054)" fill="#1a1a1a"/>
            <path id="Trazado_605359" data-name="Trazado 605359" d="M126.921,75.649a16.644,16.644,0,0,1-.444-3.33c.523-.03.706,3.053.706,3.053-.251.278-.257.278-.262.278" transform="translate(36.847 21.069)" fill="#1a1a1a"/>
            <path id="Trazado_605360" data-name="Trazado 605360" d="M133.962,65.9c1.108-5.753-.69-9.029-1.457-10.428-1.836-3.346-6.595-4.431-10.342-3.768a6.768,6.768,0,0,0-4.064,2.579,4.31,4.31,0,0,0-1.427.73,4.181,4.181,0,0,0-1.364,3.124c-.019,2.279.309,7.433.313,7.483-.529-.018-.857-5.191-.837-7.476a4.628,4.628,0,0,1,1.561-3.543,3.51,3.51,0,0,1,1.38-.7,7.182,7.182,0,0,1,4.347-2.717c3.937-.692,8.937.474,10.895,4.037a13.443,13.443,0,0,1,1.25,10.48.264.264,0,0,1-.256.2" transform="translate(33.44 14.857)" fill="#1a1a1a"/>
            <path id="Trazado_605361" data-name="Trazado 605361" d="M148.063,8.6a4.348,4.348,0,0,1-1.126-.15,4.3,4.3,0,0,1-3.02-5.278A4.3,4.3,0,1,1,148.063,8.6m0-8.075a3.793,3.793,0,1,0,1,.134,3.807,3.807,0,0,0-1-.134" transform="translate(41.883 0)" fill="#1a1a1a"/>
            <path id="Trazado_605362" data-name="Trazado 605362" d="M184.282,24.21a20.473,20.473,0,0,1-1.318-1.723A2.658,2.658,0,0,1,184.5,23.8c-.121.391-.169.405-.219.405M181.333,20.2c-.835-.868-1.508-1.623-2.2-2.348a5.424,5.424,0,0,1,2.4,1.918c-.087.408-.147.43-.205.43m-4.17-4.385c-.921-.744-1.692-1.4-2.469-2.013a5.382,5.382,0,0,1,2.647,1.557c-.034.426-.106.456-.178.456m-4.75-3.746c-.969-.6-1.826-1.145-2.692-1.65a5.446,5.446,0,0,1,2.84,1.169c.019.442-.062.482-.147.482m-5.225-3.049c-1.011-.467-1.934-.888-2.858-1.272a5.478,5.478,0,0,1,2.974.775c.074.444-.019.5-.116.5m-5.584-2.326c-1.02-.337-1.989-.638-2.961-.91a5.585,5.585,0,0,1,3.046.4c.125.444.022.513-.085.513m-5.826-1.635c-1.019-.217-2.015-.409-3.017-.576a5.657,5.657,0,0,1,3.072.056c.173.438.065.52-.056.52" transform="translate(44.505 1.25)" fill="#1a1a1a"/>
            <path id="Trazado_605363" data-name="Trazado 605363" d="M107.7,21.7a7.719,7.719,0,0,1,1.7-2.791A7.077,7.077,0,0,1,107.91,21.6a.261.261,0,0,1-.209.1m3.954-4.58a7.227,7.227,0,0,1,2.022-2.544,7.083,7.083,0,0,1-1.835,2.465.264.264,0,0,1-.187.079m4.533-4.012A6.776,6.776,0,0,1,118.5,10.86a7.073,7.073,0,0,1-2.155,2.191.269.269,0,0,1-.16.054m5.037-3.348a6.388,6.388,0,0,1,2.568-1.9,7.122,7.122,0,0,1-2.438,1.87.265.265,0,0,1-.13.034m5.453-2.618A6.049,6.049,0,0,1,129.446,5.6a7.149,7.149,0,0,1-2.67,1.521.269.269,0,0,1-.1.018m5.754-1.866A5.848,5.848,0,0,1,135.338,4.1a7.093,7.093,0,0,1-2.84,1.171.286.286,0,0,1-.066.008m5.941-1.139a5.765,5.765,0,0,1,2.988-.838,6.878,6.878,0,0,1-2.955.837h-.034m6.034-.465a5.635,5.635,0,0,1,3.031-.531,6.831,6.831,0,0,1-3.024.531Z" transform="translate(31.377 0.913)" fill="#1a1a1a"/>
            <path id="Trazado_605364" data-name="Trazado 605364" d="M227.776,112.293a11.675,11.675,0,0,1,1.546-2.865,5.332,5.332,0,0,1-1.339,2.765.265.265,0,0,1-.207.1m3.325-5.053a13.322,13.322,0,0,1,1.1-3.081,5.36,5.36,0,0,1-.866,2.944.264.264,0,0,1-.232.137m2.451-5.524a15.389,15.389,0,0,1,.631-3.223,5.362,5.362,0,0,1-.384,3.048.263.263,0,0,1-.248.176m1.543-5.848a18.18,18.18,0,0,1,.172-3.286,5.424,5.424,0,0,1,.089,3.072.264.264,0,0,1-.261.214m.646-6.015a4.941,4.941,0,0,1-.238-1.746c0-.511-.012-1.023-.03-1.534a1.8,1.8,0,0,1,.558,1.533q0,.748-.027,1.5a.264.264,0,0,1-.263.252m-.209-6.045a25.527,25.527,0,0,1-.668-3.218,5.449,5.449,0,0,1,.928,2.929c-.244.289-.253.289-.261.289m-1.012-5.966a31.133,31.133,0,0,1-1.046-3.108,5.491,5.491,0,0,1,1.3,2.784c-.214.322-.236.324-.254.324m-1.773-5.786c-.607-1.117-1-2.053-1.409-2.947a5.415,5.415,0,0,1,1.654,2.59c-.185.35-.216.356-.245.356m-2.523-5.5c-.714-1.023-1.229-1.9-1.763-2.725a5.381,5.381,0,0,1,2,2.337c-.146.38-.189.387-.232.387m-3.277-5.083c-.832-.916-1.481-1.693-2.136-2.411a5.243,5.243,0,0,1,2.345,1.987c-.1.407-.154.424-.209.424m-4.088-4.46c-.936-.752-1.724-1.38-2.512-1.942a4.971,4.971,0,0,1,2.687,1.484c-.034.429-.1.458-.176.458m-4.935-3.479a23.491,23.491,0,0,0-2.864-1.2,4.647,4.647,0,0,1,2.984.705c.066.446-.025.5-.12.5m-5.717-1.885a14.812,14.812,0,0,0-3-.124,4.43,4.43,0,0,1,3.04-.4c.205.429.093.524-.037.524" transform="translate(60.948 14.866)" fill="#1a1a1a"/>
            <path id="Trazado_605365" data-name="Trazado 605365" d="M140.748,140.57c-.265-.422-.267-16.2-.693-21.811.952,5.588.957,21.388.957,21.547a.264.264,0,0,1-.263.263" transform="translate(40.803 34.598)" fill="#1a1a1a"/>
            <path id="Trazado_605366" data-name="Trazado 605366" d="M103.494,138.142c-.262-.267-.115-11.05-.115-11.05.527.006.377,10.79.377,10.79a.262.262,0,0,1-.262.26" transform="translate(30.106 37.026)" fill="#1a1a1a"/>
            <path id="Trazado_605367" data-name="Trazado 605367" d="M223.381,135.768H14.625c0-.526,208.756-.526,208.756-.526.263.408.145.526,0,.526" transform="translate(4.261 39.4)" fill="#1a1a1a"/>
            <path id="Trazado_605368" data-name="Trazado 605368" d="M122.807,135.2c-.262-.263-.262-11.774-.262-11.774.524,0,.524,11.511.524,11.511a.263.263,0,0,1-.262.263" transform="translate(35.701 35.958)" fill="#1a1a1a"/>
            <path id="Trazado_605369" data-name="Trazado 605369" d="M132.429,121.95c-.234-.022-.519-.044-.859-.071-3.948-.311-7.718-.8-8.58-2.252a1.276,1.276,0,0,1-.04-1.233c.94-2.089,1.444-6.914.291-8.918a1.557,1.557,0,0,0-1.207-.882,1.339,1.339,0,0,0-1.107.314c-.859.781-.839,2.862-.828,4.1,0,.212.005.405,0,.575-.027,2.481-4.36,4.32-4.542,4.4-.161-.5,3.992-2.266,4.016-4.4,0-.165,0-.356,0-.563-.014-1.418-.035-3.558,1-4.5a1.855,1.855,0,0,1,1.513-.447,2.076,2.076,0,0,1,1.609,1.142c1.268,2.2.714,7.22-.267,9.4a.76.76,0,0,0,.014.748c.839,1.42,5.975,1.826,8.168,2,.346.027.633.052.843.072.222.424.107.524-.026.524" transform="translate(33.665 31.48)" fill="#1a1a1a"/>
            <path id="Trazado_605370" data-name="Trazado 605370" d="M125.577,121.912a31.342,31.342,0,0,1-4.707-.389c10.429,1.055,12.647-2.834,12.668-2.873.391.389-1.193,3.262-7.961,3.262" transform="translate(35.213 34.567)" fill="#1a1a1a"/>
            <path id="Trazado_605371" data-name="Trazado 605371" d="M124.882,124.682c-.794,0-1.6-.028-2.429-.058-.544-.021-1.1-.04-1.692-.053a21.23,21.23,0,0,1-2.265-.177,8.068,8.068,0,0,1-2.184-.444,3,3,0,0,1-1.419-1.481c.81.42,1.157.79,1.631,1a6.221,6.221,0,0,0,1.7.362,22.528,22.528,0,0,0,2.552.214c.589.014,1.152.035,1.7.053,3.026.106,5.415.195,8.616-.928,1.656-.581,3.21-2.7,3.21-3.648.527,1.237-1.235,3.512-3.037,4.145a18.232,18.232,0,0,1-6.379,1.016" transform="translate(33.472 34.82)" fill="#1a1a1a"/>
            <path id="Trazado_605372" data-name="Trazado 605372" d="M153.783,125.042a9,9,0,0,1-2.292-.284,21.837,21.837,0,0,1-7.929-3.678,41.381,41.381,0,0,0,8.063,3.169c3.143.833,7.407-.393,10.121-2.915,3.279-3.041,3.423-8.15,3.552-12.658.031-1.049.059-2.036.124-2.979.426-6.173-.555-21.286-.564-21.437.535.119,1.519,15.266,1.089,21.474-.063.931-.092,1.916-.121,2.957-.133,4.61-.281,9.839-3.72,13.028a12.672,12.672,0,0,1-8.323,3.323" transform="translate(41.824 24.548)" fill="#1a1a1a"/>
            <path id="Trazado_605373" data-name="Trazado 605373" d="M147.287,116.947c-1.932-5.536-.655-31.759-.6-32.873.51.3-.8,27.27.85,32.531-.2.338-.225.342-.251.342" transform="translate(42.6 24.494)" fill="#1a1a1a"/>
            <path id="Trazado_605374" data-name="Trazado 605374" d="M155.542,87.03c-4.454,0-8.961-.808-8.961-2.353,0-.909.966-1.534,2.955-1.906-1.055.733-2.428,1.151-2.428,1.906s3.209,1.827,8.434,1.827,8.434-1.065,8.434-1.827c0-.557-.908-1.076-2.43-1.389,2.464-.031,2.958.789,2.958,1.389,0,1.544-4.508,2.353-8.962,2.353" transform="translate(42.704 24.114)" fill="#1a1a1a"/>
            <path id="Trazado_605375" data-name="Trazado 605375" d="M150.682,89.253a2.171,2.171,0,0,1-.334-1.2,10.072,10.072,0,0,0-3.378-7.854c-2.224-1.937-3.226-3.387-3.152-4.566a2.326,2.326,0,0,1,1.21-1.774c1.848-1.242,3.187.287,4.363,1.641.857.988,1.745,2.011,2.813,2.086a4.746,4.746,0,0,1,3.918,3.144c-.535.063-1.422-2.437-3.955-2.619-1.284-.093-2.244-1.2-3.173-2.266-1.184-1.361-2.206-2.532-3.671-1.55a1.841,1.841,0,0,0-.983,1.373c-.061.987.914,2.34,2.977,4.132a10.678,10.678,0,0,1,3.558,8.227c.018.369.035.686.067.925-.235.3-.247.3-.258.3" transform="translate(41.898 21.384)" fill="#1a1a1a"/>
            <path id="Trazado_605376" data-name="Trazado 605376" d="M149.533,79.32a19.407,19.407,0,0,1-.192-5.4c.059-.922.128-1.968.165-3.184a4.248,4.248,0,0,1,.608-2.331,2.491,2.491,0,0,1,2.33-.968,1.853,1.853,0,0,1,1.5,1.105,2.632,2.632,0,0,1,.123.819,69,69,0,0,1-.275,9.631c-.12-3.416-.181-7.485-.253-9.613a2.248,2.248,0,0,0-.087-.657,1.331,1.331,0,0,0-1.086-.764,1.974,1.974,0,0,0-1.836.767,3.733,3.733,0,0,0-.5,2.03c-.041,1.223-.108,2.274-.169,3.2a33.83,33.83,0,0,0-.072,5.081c-.249.282-.254.282-.261.282" transform="translate(43.479 19.64)" fill="#1a1a1a"/>
            <path id="Trazado_605377" data-name="Trazado 605377" d="M156.138,79.183c.106-3.317.187-6.565-.015-9.946a1.678,1.678,0,0,0-.186-.815,1.483,1.483,0,0,0-1.126-.528,1.889,1.889,0,0,0-1.87,1.192,1.643,1.643,0,0,1,1.887-1.719,2.016,2.016,0,0,1,1.55.766,2.105,2.105,0,0,1,.27,1.071,54.149,54.149,0,0,1-.248,9.748.262.262,0,0,1-.261.231" transform="translate(44.556 19.626)" fill="#1a1a1a"/>
            <path id="Trazado_605378" data-name="Trazado 605378" d="M158.5,90.705a52.569,52.569,0,0,0-.2-7.831,12.165,12.165,0,0,1-.079-2.362c.336-2.55.948-7.208.579-10.275a2.333,2.333,0,0,0-.457-1.327,1.4,1.4,0,0,0-1.179-.378,1.732,1.732,0,0,0-1.308.62c.045-.927.683-1.077,1.247-1.143a1.91,1.91,0,0,1,1.624.544,2.761,2.761,0,0,1,.6,1.622c.377,3.133-.24,7.833-.571,10.359a11.354,11.354,0,0,0,.071,2.293,32.305,32.305,0,0,1-.065,7.649.264.264,0,0,1-.262.23" transform="translate(45.406 19.809)" fill="#1a1a1a"/>
            <path id="Trazado_605379" data-name="Trazado 605379" d="M117.654,131.079c-1.577,0-2.638-4.28-2.837-8.348-.2-4.1.447-8.51,2.048-8.59a3.435,3.435,0,0,1,.938.324.931.931,0,0,1-.923.2c-.8.04-1.779,3.117-1.537,8.039s1.521,7.9,2.33,7.847c.212-.009,1.277-.289,1.473-4.8.337,4.334-.652,5.284-1.449,5.323h-.043" transform="translate(33.44 33.253)" fill="#1a1a1a"/>
            <path id="Trazado_605380" data-name="Trazado 605380" d="M122.584,115.781c-.94-.094-1.853-.179-2.763-.265-3.7-.351-7.518-.714-11.262-1.415a109.431,109.431,0,0,1-14.3-3.785c5.487,1.251,10.01,2.448,14.4,3.268,3.72.7,7.531,1.058,11.215,1.408q1.368.128,2.739.265c.221.424.107.524-.026.524" transform="translate(27.46 32.139)" fill="#1a1a1a"/>
            <path id="Trazado_605381" data-name="Trazado 605381" d="M50.337,128c-9.394,0-19.117-12.442-24.4-24.56a18.693,18.693,0,0,1,5.207-5.032,34.532,34.532,0,0,1,6.528-3.722c.4.183,12.481,12.326,16.2,19.781C49.92,107.722,38.981,96.539,37.7,95.242a37.682,37.682,0,0,0-6.259,3.6,24.478,24.478,0,0,0-4.956,4.534c5.486,12.5,15.673,25.3,25.193,24.008C61.777,126,66.054,112.92,70.6,95.966c-4.084,17.282-8.427,30.51-18.85,31.937a10.305,10.305,0,0,1-1.41.1" transform="translate(7.556 27.585)" fill="#1a1a1a"/>
            <path id="Trazado_605382" data-name="Trazado 605382" d="M43.228,110.521a82.864,82.864,0,0,1,2.961-7.8C50.82,91.7,54.478,83,61.857,82.345c-7.016,1.148-10.62,9.724-15.183,20.58-1.014,2.414-2.064,4.911-3.205,7.441a.262.262,0,0,1-.24.155" transform="translate(12.594 23.99)" fill="#1a1a1a"/>
            <path id="Trazado_605383" data-name="Trazado 605383" d="M61.325,77.225a3.122,3.122,0,0,1-2.575-1.356,8,8,0,0,1,1.661.662,2.6,2.6,0,1,0-.664-4.5,2.014,2.014,0,0,1,2.687-.861,3.129,3.129,0,0,1-1.109,6.058" transform="translate(17.116 20.679)" fill="#1a1a1a"/>
            <path id="Trazado_605384" data-name="Trazado 605384" d="M61.275,75.434a22.447,22.447,0,0,1-1.605-2.02c.139-.407,2.512-1.094,2.512-1.094.147.507-1.865,1.089-1.865,1.089l1.171,1.608c-.1.4-.159.417-.213.417" transform="translate(17.384 21.07)" fill="#1a1a1a"/>
            <path id="Trazado_605385" data-name="Trazado 605385" d="M58.244,82.473a4.043,4.043,0,0,1-3.281-1.7c-1.156-1.836-.22-4.412-.179-4.522l2.107-8.605c.509.125-1.605,8.762-1.605,8.762-.017.053-.895,2.473.123,4.088a3.543,3.543,0,0,0,2.859,1.455c.226.424.11.526-.023.526" transform="translate(15.845 19.706)" fill="#1a1a1a"/>
            <path id="Trazado_605386" data-name="Trazado 605386" d="M54.888,74.984c-.909-.212-1.263-.839-1.092-1.442L55.1,68.885a1.136,1.136,0,0,1,1.4-.785.987.987,0,0,1,.628.442.976.976,0,0,1,.05.766c-.417-.465-.5-.61-.821-.7-.749.422-2.056,5.078-2.056,5.078.741.839,1.081.655,1.173.329.367.643-.09.971-.586.971" transform="translate(15.66 19.827)" fill="#1a1a1a"/>
            <path id="Trazado_605387" data-name="Trazado 605387" d="M44.811,140.233c.241-1.814,2.956-17.454,3.258-20.209.2,2.993-2.5,18.506-3.009,20.03a.263.263,0,0,1-.249.179" transform="translate(13.055 34.967)" fill="#1a1a1a"/>
            <path id="Trazado_605388" data-name="Trazado 605388" d="M75.48,121.511a4.012,4.012,0,0,1-1.812-.375c.384-.393,3.621,1.231,7.973-3.682,4.032-4.551-2.588-18.9-5.621-24.853,4.3,7.281,10.109,20.581,6.014,25.2-2.7,3.05-5.04,3.707-6.554,3.707" transform="translate(21.462 26.978)" fill="#1a1a1a"/>
            <path id="Trazado_605389" data-name="Trazado 605389" d="M76.573,147.8c-.294-.412-3.829-19.969-2.822-29.832a152.872,152.872,0,0,0,.907-23.9c.914,6.054.6,14.347-.382,23.95-1,9.788,2.521,29.272,2.556,29.468-.227.309-.243.31-.258.31" transform="translate(21.434 27.405)" fill="#1a1a1a"/>
            <path id="Trazado_605390" data-name="Trazado 605390" d="M56.05,87.993c-.137-.036-.51-.195-2.048-.6a8.381,8.381,0,0,1-4.765-3.263l-.359-.421a11.857,11.857,0,0,0-.928-.926c-.8-.74-1.551-1.442-1.543-2.274a1.7,1.7,0,0,1,.669-1.256,1.474,1.474,0,0,1,1.114-.385c1.224.068,2.543,1.415,3.053,1.991a11.893,11.893,0,0,0,1.2,1.2,29.132,29.132,0,0,0-2-2.129l-.56-.564a29.908,29.908,0,0,0-2.831-2.281,18.71,18.71,0,0,1-2.147-1.732,1.569,1.569,0,0,1,.041-1.821,1.737,1.737,0,0,1,1.87-.9,11.425,11.425,0,0,1,3.794,2.487c.566.065.943-.289,1.632-.408a3.7,3.7,0,0,1,2.741.358,2.1,2.1,0,0,1,1.458-.3,7.348,7.348,0,0,1,1.267.381,1.611,1.611,0,0,1-1.36.137,1.712,1.712,0,0,0-1.21.31,4.658,4.658,0,0,0-2.807-.367,1.794,1.794,0,0,0-1,.527c-.137.129-.346.324-.579.165-.081-.053-.253-.2-.489-.407A11.327,11.327,0,0,0,46.7,73.146a1.235,1.235,0,0,0-1.3.664,1.1,1.1,0,0,0-.1,1.2,19.682,19.682,0,0,0,2.067,1.657A29.775,29.775,0,0,1,50.262,79l.562.564c1.457,1.462,2.345,2.385,2.406,2.875-.323.478-.718.653-2.381-1.231a4.792,4.792,0,0,0-2.689-1.814.911.911,0,0,0-.732.252,1.227,1.227,0,0,0-.5.87c0,.6.666,1.223,1.378,1.884a12.906,12.906,0,0,1,.969.966l.363.426a7.858,7.858,0,0,0,4.5,3.1,15.421,15.421,0,0,1,2.025.6c.083.446-.013.5-.111.5" transform="translate(13.005 21.148)" fill="#1a1a1a"/>
            <path id="Trazado_605391" data-name="Trazado 605391" d="M52.979,78.493a25.614,25.614,0,0,0-3.611-3.319c.427-.337,2.964,1.608,3.83,2.909-.119.4-.17.409-.22.409" transform="translate(14.383 21.89)" fill="#1a1a1a"/>
            <path id="Trazado_605392" data-name="Trazado 605392" d="M55.147,77.123a29.492,29.492,0,0,0-2.619-2.178c.371-.38,1.83.684,2.811,1.737-.065.418-.129.442-.192.442" transform="translate(15.303 21.811)" fill="#1a1a1a"/>
            <path id="Trazado_605393" data-name="Trazado 605393" d="M74.409,106.63a8.533,8.533,0,0,1-2.539-.381,5.943,5.943,0,0,1-3.864-3.24,17.714,17.714,0,0,1-1.018-4.285c-.048-.319-.1-.639-.147-.958-.382-2.349-1-4.648-2.881-5.56a8.41,8.41,0,0,0-1.818-.566,5.612,5.612,0,0,1-2.885-1.3,6.164,6.164,0,0,1-1.714-4.747,6.941,6.941,0,0,1,3.649-5.944c.092.54-3.014,2.043-3.124,5.96a5.734,5.734,0,0,0,1.553,4.352,5.106,5.106,0,0,0,2.637,1.166,8.811,8.811,0,0,1,1.931.6c2.1,1.018,2.765,3.461,3.17,5.952.052.319.1.64.15.963a17.16,17.16,0,0,0,.981,4.158,5.431,5.431,0,0,0,3.534,2.943,7.549,7.549,0,0,0,6.038-.608,9.2,9.2,0,0,0,2.774-2.944c2.157-3.449,2.532-6.861,1.293-11.772A18.865,18.865,0,0,0,76,80.1c-.541-.527-1.1-1.073-1.658-1.667a1.941,1.941,0,0,1-.626-1.182,3.735,3.735,0,0,1,.6-1.794,23.183,23.183,0,0,0,1.109-2.292,8.3,8.3,0,0,0,.522-4.45c-.557-3.086-6.231-4.354-6.288-4.366-2.822-2.463-7.569-3.875-10.833-2.08-3.135,1.727-2.308,5.475-2.3,5.513.005.222.018,3.939,5.8,6.131-6.335-1.84-6.322-5.905-6.318-6.077-.008,0-.905-4.117,2.565-6.027,3.441-1.9,8.414-.456,11.266,2.04.7.163,6.036,1.5,6.625,4.771a8.791,8.791,0,0,1-.548,4.733,16.15,16.15,0,0,1-.767,1.641,5.542,5.542,0,0,0-.912,2.225,1.5,1.5,0,0,0,.484.852c.55.585,1.1,1.127,1.641,1.652A19.291,19.291,0,0,1,82.64,90.293c1.281,5.067.887,8.6-1.356,12.181a9.713,9.713,0,0,1-2.938,3.11,7.43,7.43,0,0,1-3.937,1.046" transform="translate(16.285 17.752)" fill="#1a1a1a"/>
            <path id="Trazado_605394" data-name="Trazado 605394" d="M38.363,119.224c1.107-3.636,4.4-5.669,8.36-5.669a9.128,9.128,0,0,1,8.531,5.147,10.2,10.2,0,0,0-8.531-4.623,8.449,8.449,0,0,0-8.116,4.982.264.264,0,0,1-.244.163" transform="translate(11.176 33.082)" fill="#1a1a1a"/>
            <path id="Trazado_605395" data-name="Trazado 605395" d="M.262,75.354C0,75.092,0,60.169,0,60.169a6.582,6.582,0,0,1,6.575-6.574H73.234c0,.524-66.659.524-66.659.524a6.057,6.057,0,0,0-6.05,6.05V75.092a.263.263,0,0,1-.263.262" transform="translate(0 15.614)" fill="#1a1a1a"/>
            <path id="Trazado_605396" data-name="Trazado 605396" d="M33.384,119.089H6.575A6.582,6.582,0,0,1,0,112.513V86.75c.526,0,.526,25.763.526,25.763a6.056,6.056,0,0,0,6.05,6.05H33.384c.262.411.145.526,0,.526" transform="translate(0 25.273)" fill="#1a1a1a"/>
            <path id="Trazado_605397" data-name="Trazado 605397" d="M73.266,122.287a6.921,6.921,0,0,0,6.05-6.575V75.774c.526,0,.526,39.937.526,39.937a6.581,6.581,0,0,1-6.575,6.575" transform="translate(21.345 22.075)" fill="#1a1a1a"/>
            <path id="Trazado_605398" data-name="Trazado 605398" d="M124.068,78.8c-8.21,0-8.21-5.338-8.21-14.185V61.933a23.287,23.287,0,0,0,1.769-5.049,5.83,5.83,0,0,1-1.033-1.215c.484-.212,3.232,4.476,11.554,2.868.634-.123,3.014-.646,3.014-.646.318.217,1.125,3.169,1.507,3.923.027.107.151,3.117.151,3.117,0,8.356,0,13.869-8.751,13.869m-7.686-16.769v2.584c0,8.808,0,13.66,7.686,13.66,8.224,0,8.224-4.735,8.224-13.332L132.174,62a33.85,33.85,0,0,1-1.145-3.541c-.624.138-2.27.5-2.782.6-5.356,1.037-8.529-.467-10.177-1.788a22.458,22.458,0,0,1-1.688,4.766" transform="translate(33.753 16.216)" fill="#1a1a1a"/>
            <path id="Trazado_605399" data-name="Trazado 605399" d="M121.7,69.3c-.19-.065-1.885-.927-1.655-2.269.146-.845.99-.826,1.6-.819.531.014.755-.01.779-.163.129-.839.092-5.718.092-5.766.528.2.563,4.964.429,5.846-.1.633-.771.624-1.309.61-.673-.013-1.009.019-1.069.382-.163.956,1.241,1.674,1.255,1.681.072.444-.022.5-.118.5" transform="translate(34.967 17.562)" fill="#1a1a1a"/>
            <path id="Trazado_605400" data-name="Trazado 605400" d="M123,69.922a2.906,2.906,0,0,1-.9-.155c.746-.31,1.229-.327,1.6-.557a1.977,1.977,0,0,0,.758-1.254c.514.12.351,1.184-.479,1.7a1.806,1.806,0,0,1-.978.266" transform="translate(35.571 19.798)" fill="#1a1a1a"/>
            <path id="Trazado_605401" data-name="Trazado 605401" d="M173.719,105.364c-1.091-.591-1.5-1.85-1.28-3.581a4.851,4.851,0,0,1,2.047-3.71,4.921,4.921,0,0,1,.838-.426,12.391,12.391,0,0,1,1.543-.477,5.973,5.973,0,0,0,2.673-1.179,2.826,2.826,0,0,0,.727-2.51A122.33,122.33,0,0,0,178.1,81.159a6.419,6.419,0,0,1,2.974-5.258c3.859-2.6,8.984-2.293,13.493-1.657a4.417,4.417,0,0,1,3.758,2.342,10.05,10.05,0,0,1,.637,5.566c-.358-1.5-.239-3.616-1.107-5.328a3.879,3.879,0,0,0-3.36-2.058c-4.411-.625-9.419-.923-13.128,1.573a5.9,5.9,0,0,0-2.745,4.731c.111.456,1.142,4.725,2.169,12.34a3.355,3.355,0,0,1-.891,2.969,6.473,6.473,0,0,1-2.9,1.3,11.968,11.968,0,0,0-1.48.453,4.441,4.441,0,0,0-.749.384,4.347,4.347,0,0,0-1.812,3.332c-.11.874-.139,2.428.89,3.026.046.444-.041.491-.132.491" transform="translate(50.22 21.502)" fill="#1a1a1a"/>
            <path id="Trazado_605402" data-name="Trazado 605402" d="M166.406,132.095c8.37-7.927,27.445-9.15,27.638-9.162-.16.537-19.059,1.75-27.465,9.1a.267.267,0,0,1-.173.065" transform="translate(48.48 35.814)" fill="#1a1a1a"/>
            <path id="Trazado_605403" data-name="Trazado 605403" d="M162.435,147.108a17.365,17.365,0,0,1-2.029-5.456c-.15-.741-.269-1.49-.354-2.225-1.069-9.265,2.717-18.9,5.657-25.346,4.007-8.775,8.9-14.586,14.974-17.765-5.718,3.589-10.54,9.32-14.5,17.983-2.916,6.386-6.667,15.933-5.612,25.069.081.721.2,1.453.343,2.178a21.524,21.524,0,0,0,1.75,5.182c-.158.371-.2.38-.235.38" transform="translate(46.575 28.06)" fill="#1a1a1a"/>
            <path id="Trazado_605404" data-name="Trazado 605404" d="M208.515,112.983a11.313,11.313,0,0,1-.994-1.945c-4.017-9.281-9.128-14.261-16.081-15.677-.544-.11-2.189-.4-2.189-.4.09-.519,1.745-.23,2.292-.119,7.04,1.432,12.425,6.661,16.462,15.983.1.227.657,1.561.752,1.788-.172.359-.208.365-.241.365" transform="translate(55.135 27.579)" fill="#1a1a1a"/>
            <path id="Trazado_605405" data-name="Trazado 605405" d="M190.463,94.543c-.24,0-.495-.01-.768-.035-.881-.075-2.173-.232-3.077-.413a8.025,8.025,0,0,1,3.121-.11,5.391,5.391,0,0,0,2.119-.158,3.023,3.023,0,0,0,1.956-2.167,18.5,18.5,0,0,0,.569-6.1c-.019-1.368-.057-2.475-.09-3.582l-.04-1.175c.513-.5.564,1.158.564,1.158.037,1.111.072,2.221.09,3.33a19.8,19.8,0,0,1-.591,6.529,3.518,3.518,0,0,1-2.3,2.5,5.083,5.083,0,0,1-1.555.216" transform="translate(54.368 23.515)" fill="#1a1a1a"/>
            <path id="Trazado_605406" data-name="Trazado 605406" d="M182.985,104.291a16.978,16.978,0,0,1-6.769-1.643c3.284.876,6.025,1.369,8.321,1a5.475,5.475,0,0,0,4.246-3.4,7.608,7.608,0,0,0-.674-7.137c-.247-.36-.513-.713-.779-1.065-1.247-1.661-2.541-3.377-1.787-5.757A7.433,7.433,0,0,1,187.4,83.6c.169-.182.337-.362.495-.54,1.105-1.244,2.053-2.408,2.9-3.564a12.546,12.546,0,0,0,1.928-2.841c.515-.168,1.591,1.285,4.977,4.587a23.122,23.122,0,0,1-4.613-4.1,20.251,20.251,0,0,1-1.747,2.509c-.975,1.327-1.933,2.505-3.05,3.76-.161.181-.331.363-.5.55a7.033,7.033,0,0,0-1.743,2.485c-.673,2.122.483,3.657,1.707,5.284.267.358.538.718.789,1.085a8.132,8.132,0,0,1,.726,7.64,5.982,5.982,0,0,1-4.642,3.709,10.141,10.141,0,0,1-1.64.129" transform="translate(51.338 22.328)" fill="#1a1a1a"/>
            <path id="Trazado_605407" data-name="Trazado 605407" d="M187.665,82.63c.21-.034.351.057.412.814.067.845-.151.993-.341.985s-.38-.269-.369-.872.023-.885.3-.927" transform="translate(54.586 24.071)" fill="#1a1a1a"/>
            <path id="Trazado_605408" data-name="Trazado 605408" d="M192.177,82.364c.209-.04.353.045.439.8.1.842-.119,1-.307,1s-.387-.254-.4-.857-.006-.885.267-.938" transform="translate(55.909 23.993)" fill="#1a1a1a"/>
            <path id="Trazado_605409" data-name="Trazado 605409" d="M193.1,81.364a1.78,1.78,0,0,0-1.708-.291c.981-.8,1.553-.457,1.88-.172-.023.433-.1.462-.172.462" transform="translate(55.758 23.475)" fill="#1a1a1a"/>
            <path id="Trazado_605410" data-name="Trazado 605410" d="M189.274,101.919c-1.462,0-3.843-2.9-4.339-3.528,1.641,1.224,3.718,3.277,4.481,2.978.888-.343,1.009-3.648.877-5.653l.232-4.459c.524.03.291,4.456.291,4.456.062.9.3,5.567-1.209,6.147a.9.9,0,0,1-.333.059" transform="translate(53.878 26.586)" fill="#1a1a1a"/>
            <path id="Trazado_605411" data-name="Trazado 605411" d="M191.815,96.357a4.772,4.772,0,0,0-.794-5.333c.405-.338,3.008,2.408,1.009,5.223a.261.261,0,0,1-.214.11" transform="translate(55.651 26.51)" fill="#1a1a1a"/>
            <path id="Trazado_605412" data-name="Trazado 605412" d="M174.719,131.4c-1.173-9.465,3.952-24.729,4-24.883.445.322-4.641,15.479-3.741,24.593-.244.289-.253.289-.262.289" transform="translate(50.851 31.032)" fill="#1a1a1a"/>
            <path id="Trazado_605413" data-name="Trazado 605413" d="M189.88,88.595a1.845,1.845,0,0,1-1.078-.32,2.487,2.487,0,0,1-.918-1.671c.524-.041.619.828,1.22,1.24a1.658,1.658,0,0,0,1.431.128c-.145.584-.408.624-.655.624" transform="translate(54.737 25.23)" fill="#1a1a1a"/>
            <path id="Trazado_605414" data-name="Trazado 605414" d="M227.166,124.065a2.457,2.457,0,0,1-1.24-.319,2.977,2.977,0,0,1-1.356-2.535,6.919,6.919,0,0,1,3.521-6.1,2.979,2.979,0,0,1,2.869-.093c1.625.939,1.82,3.658.431,6.064a5.4,5.4,0,0,1-4.227,2.978m2.541-8.84a3.109,3.109,0,0,0-1.379.362,6.392,6.392,0,0,0-3.232,5.6,2.47,2.47,0,0,0,1.094,2.107c1.371.8,3.5-.311,4.748-2.466s1.135-4.551-.24-5.344a1.954,1.954,0,0,0-.99-.254" transform="translate(65.423 33.415)" fill="#1a1a1a"/>
            <path id="Trazado_605415" data-name="Trazado 605415" d="M203.936,145.732a6.877,6.877,0,0,1-6.528-9.039l10.261-30.967a6.865,6.865,0,0,1,6.528-4.715h43.264a7,7,0,0,1,1.525.167c.067.027,4.334,2.357,4.334,2.357-.251.462-4.485-1.85-4.485-1.85a6.433,6.433,0,0,0-1.374-.147H214.2a6.347,6.347,0,0,0-6.031,4.354L197.906,136.86a6.353,6.353,0,0,0,6.031,8.347c.263.408.146.526,0,.526" transform="translate(57.408 29.428)" fill="#1a1a1a"/>
            <path id="Trazado_605416" data-name="Trazado 605416" d="M249.479,145.674H206.211a6.932,6.932,0,0,1-6.525-9.041L209.946,107a6.851,6.851,0,0,1,6.528-4.513h43.265a6.96,6.96,0,0,1,5.682,2.878,6.306,6.306,0,0,1,.844,5.79l-10.26,29.633a7.228,7.228,0,0,1-6.526,4.885m-33.005-42.662a6.325,6.325,0,0,0-6.031,4.161l-10.26,29.633a6.408,6.408,0,0,0,6.028,8.343h43.267a6.69,6.69,0,0,0,6.029-4.534l10.26-29.634a5.792,5.792,0,0,0-.776-5.313,6.435,6.435,0,0,0-5.253-2.658Z" transform="translate(58.073 29.858)" fill="#1a1a1a"/>
            <path id="Trazado_605417" data-name="Trazado 605417" d="M197.224,135.51a10.541,10.541,0,0,0-1.326-3.531c-.143-.283-.28-.546-.389-.777-.119-.253-.236-.551-.359-.872-.7-1.81-1.662-4.29-5.1-3.7a28.166,28.166,0,0,0-6.884,3c2.319-2.256,6.587-3.463,6.768-3.512,3.9-.669,4.977,2.149,5.7,4.017.121.309.231.6.345.841.107.225.239.48.382.757.585,1.131,1.315,2.537,1.116,3.56a.264.264,0,0,1-.258.213" transform="translate(53.364 36.714)" fill="#1a1a1a"/>
            <path id="Trazado_605418" data-name="Trazado 605418" d="M190.933,134.252a6.6,6.6,0,0,1-1.968-3.909c.528.225.879,2.229,2.153,3.458-.046.425-.115.451-.185.451" transform="translate(55.052 37.973)" fill="#1a1a1a"/>
            <path id="Trazado_605419" data-name="Trazado 605419" d="M199.092,135.711a2.64,2.64,0,0,0-.588-2.3,10.718,10.718,0,0,1-1.335-2.765,14.564,14.564,0,0,0-2.159-4.221c-1.459-1.591-4.782.278-4.815.3-.11-.542,3.465-2.544,5.205-.652a14.968,14.968,0,0,1,2.261,4.385,10.845,10.845,0,0,0,1.233,2.606,2.107,2.107,0,0,1,.418,2.528.263.263,0,0,1-.221.119" transform="translate(55.409 36.497)" fill="#1a1a1a"/>
            <path id="Trazado_605420" data-name="Trazado 605420" d="M185.02,136.426a7.853,7.853,0,0,1-2.213-6.843,7.687,7.687,0,0,1,8.616-6.619,9.43,9.43,0,0,1,5.642,3.23,12.366,12.366,0,0,0-5.726-2.711,7.174,7.174,0,0,0-8.013,6.183,7.548,7.548,0,0,0,1.887,6.317c-.063.42-.129.443-.192.443" transform="translate(53.228 35.797)" fill="#1a1a1a"/>
            <path id="Trazado_605421" data-name="Trazado 605421" d="M199.071,128.531c-.465-.845-1.211-2.642-2.084-3-1.313-.55-2.977.785-2.989.8-.257-.47,1.592-1.949,3.192-1.287,1.276.532,2.1,3.042,2.131,3.148-.2.34-.225.343-.249.343" transform="translate(56.511 36.379)" fill="#1a1a1a"/>
            <path id="Trazado_605422" data-name="Trazado 605422" d="M196.828,131.6c4.146-16.262.677-26.153.642-26.252.531-.081,4.06,9.954-.389,26.059a.263.263,0,0,1-.253.192" transform="translate(57.343 30.69)" fill="#1a1a1a"/>
            <path id="Trazado_605423" data-name="Trazado 605423" d="M25.612,89.97c-.186-.076-17.668-17.558-17.668-17.558.372-.372,17.668,16.924,17.668,16.924L42.148,72.8c.372,0,12.477,12.1,12.477,12.1-.372.372-12.291-11.547-12.291-11.547L25.8,89.893a.259.259,0,0,1-.186.076" transform="translate(2.314 21.094)" fill="#1a1a1a"/>
            <path id="Trazado_605424" data-name="Trazado 605424" d="M61.279,78.546H58.53c0-.526,2.749-.526,2.749-.526.262.408.143.526,0,.526m-5.7,0H52.632c0-.526,2.948-.526,2.948-.526.262.408.145.526,0,.526m-5.9,0H46.735c0-.526,2.949-.526,2.949-.526.262.408.145.526,0,.526m-5.9,0H40.837c0-.526,2.949-.526,2.949-.526.262.408.143.526,0,.526m-5.9,0H34.94c0-.526,2.949-.526,2.949-.526.262.408.145.526,0,.526m-5.9,0H29.041c0-.526,2.949-.526,2.949-.526.263.408.146.526,0,.526m-5.9,0H23.145c0-.526,2.948-.526,2.948-.526.262.408.146.526,0,.526m-5.9,0H17.247c0-.526,2.949-.526,2.949-.526.262.408.143.526,0,.526m-5.9,0H11.351c0-.526,2.947-.526,2.947-.526.263.408.145.526,0,.526m-5.9,0H5.452c0-.526,2.949-.526,2.949-.526.262.408.145.526,0,.526" transform="translate(1.588 22.73)" fill="#1a1a1a"/>
            <path id="Trazado_605425" data-name="Trazado 605425" d="M28.827,104.5c-3.648-1.3-9.388-9.741-9.6-11.989a1.964,1.964,0,0,1,1.216-2.08,1.544,1.544,0,0,1,.622-1.838,1.941,1.941,0,0,1,.755-.342,1.6,1.6,0,0,1,1.349.451c.074.107,5.9,15.443,5.9,15.443-.108.328-.177.355-.247.355M22.062,88.752a1.426,1.426,0,0,0-.69.267,1.026,1.026,0,0,0-.338,1.436c-.22.4-1.4.693-1.282,2,.181,1.929,5.2,9.444,8.605,11.275L22.779,89.058a1.156,1.156,0,0,0-.717-.306" transform="translate(5.598 25.703)" fill="#1a1a1a"/>
            <path id="Trazado_605426" data-name="Trazado 605426" d="M37.93,98.017c-.059-.006-11.082-2.559-11.082-2.559a40.808,40.808,0,0,1-3.915-4.691c-.737-1.01-1.391-1.9-1.229-2.738a1.619,1.619,0,0,1,.812-1.064c1.546-.956,2.514.424,3.16,1.337.121.173.3.435.511.748a37,37,0,0,0,2.3,3.17c1.068,1.2,2.552,2.465,3.379,2.393a.661.661,0,0,0,.527-.341,1.752,1.752,0,0,0,.183-1,9.183,9.183,0,0,0-.185-1.1c-.291-1.424-.686-3.373.1-4.216a1.41,1.41,0,0,1,1.29-.38,2.027,2.027,0,0,1,1.2.473,2.073,2.073,0,0,1,.5,1.046c.185.775.313,1.606.438,2.407.338,2.19.69,4.455,2.206,6.074-.009.394-.1.443-.19.443M27.038,94.962l10.194,2.361a12.822,12.822,0,0,1-1.838-5.741c-.128-.829-.251-1.612-.431-2.368a1.537,1.537,0,0,0-.355-.788,1.561,1.561,0,0,0-.9-.329.911.911,0,0,0-.838.216c-.6.646-.22,2.516.028,3.754a9.65,9.65,0,0,1,.2,1.174,2.255,2.255,0,0,1-.266,1.315,1.187,1.187,0,0,1-.928.581c-1.318.083-3.1-1.759-3.815-2.565a38.076,38.076,0,0,1-2.34-3.226c-.208-.309-.384-.571-.5-.741-.883-1.251-1.506-1.786-2.452-1.191a1.109,1.109,0,0,0-.573.715c-.119.616.456,1.395.877,1.964a50.531,50.531,0,0,0,3.941,4.87" transform="translate(6.316 25.242)" fill="#1a1a1a"/>
            <path id="Trazado_605427" data-name="Trazado 605427" d="M25.076,96.535a31.919,31.919,0,0,1-2.6-2.961,24.26,24.26,0,0,1-2.155-3.312c.4-.362,1.538,1.746,2.559,2.977,1.262,1.52,2.393,2.864,2.393,2.864-.081.413-.141.433-.2.433" transform="translate(5.921 26.284)" fill="#1a1a1a"/>
            <path id="Trazado_605428" data-name="Trazado 605428" d="M12.215,99.421H6.233c-.263-.263-.263-6.245-.263-6.245.263-.262,6.245-.262,6.245-.262.262.262.262,6.244.262,6.244a.263.263,0,0,1-.262.263M6.5,98.9h5.456V93.44H6.5Z" transform="translate(1.739 27.069)" fill="#1a1a1a"/>
            <path id="Trazado_605429" data-name="Trazado 605429" d="M12.215,108.857H6.233c-.263-.265-.263-6.245-.263-6.245.263-.263,6.245-.263,6.245-.263.262.263.262,6.244.262,6.244a.264.264,0,0,1-.262.265M6.5,108.33h5.456v-5.456H6.5Z" transform="translate(1.739 29.818)" fill="#1a1a1a"/>
            <path id="Trazado_605430" data-name="Trazado 605430" d="M33.674,59.679H16.26c0-.526,17.414-.526,17.414-.526.262.408.145.526,0,.526" transform="translate(4.737 17.233)" fill="#1a1a1a"/>
            <path id="Trazado_605431" data-name="Trazado 605431" d="M12.661,59.679H8.088c0-.526,4.573-.526,4.573-.526.262.408.145.526,0,.526" transform="translate(2.356 17.233)" fill="#1a1a1a"/>
            <path id="Trazado_605432" data-name="Trazado 605432" d="M36.054,62.765H8.088c0-.524,27.966-.524,27.966-.524.262.408.145.524,0,.524" transform="translate(2.356 18.133)" fill="#1a1a1a"/>
            <path id="Trazado_605433" data-name="Trazado 605433" d="M20.934,65.882H8.089c0-.526,12.845-.526,12.845-.526.262.408.145.526,0,.526" transform="translate(2.357 19.04)" fill="#1a1a1a"/>
            <path id="Trazado_605434" data-name="Trazado 605434" d="M221.832,89.207l-13.493-.032c0-.526,13.23-.493,13.23-.493V21.014H153.9V75.687c-.528,0-.528-54.935-.528-54.935.263-.262,68.456-.262,68.456-.262.265.262.265,68.455.265,68.455-.128.236-.195.262-.265.262" transform="translate(44.684 5.969)" fill="#1a1a1a"/>
            <path id="Trazado_605435" data-name="Trazado 605435" d="M204.386,66.3H191.633c-.265-.263-.265-15.963-.265-15.963.265-.262,13.018-.262,13.018-.262.263.262.263,15.962.263,15.962a.265.265,0,0,1-.263.263m-12.49-.527h12.226V50.6H191.9Z" transform="translate(55.752 14.589)" fill="#1a1a1a"/>
            <path id="Trazado_605436" data-name="Trazado 605436" d="M191.687,87.845a2.794,2.794,0,0,0,1.089-2.064,3.549,3.549,0,0,1-1.829-.484,15.071,15.071,0,0,1-.806-3.252,17.315,17.315,0,0,1,1.213,2.918,5.294,5.294,0,0,0,1.7.311,1.9,1.9,0,0,1-1.329,2.567l-.043,0" transform="translate(55.394 23.903)" fill="#1a1a1a"/>
            <path id="Trazado_605437" data-name="Trazado 605437" d="M186.488,83.244a1.932,1.932,0,0,1,1.009-2.128,2.19,2.19,0,0,1,1.836-.079c-.714.309-1.188.323-1.582.54a2.491,2.491,0,0,0-1.006,1.462.262.262,0,0,1-.257.205" transform="translate(54.306 23.562)" fill="#1a1a1a"/>
            <path id="Trazado_605438" data-name="Trazado 605438" d="M212.881,136.765h-35.5a1.849,1.849,0,1,1,0-3.7H204.8c0,.526-27.418.526-27.418.526a1.324,1.324,0,0,0,0,2.649h35.5c.263.407.146.524,0,.524" transform="translate(51.139 38.767)" fill="#1a1a1a"/>
            <path id="Trazado_605439" data-name="Trazado 605439" d="M186.906,134.08c2.84-.691,2.984-2.667,2.987-2.687.523.054.349,2.495-2.971,2.687Z" transform="translate(54.452 38.279)" fill="#1a1a1a"/>
            <path id="Trazado_605440" data-name="Trazado 605440" d="M86.138,41.75H58.907a1.141,1.141,0,0,1-1.142-1.139V32.065a1.142,1.142,0,0,1,1.142-1.14H86.138a1.142,1.142,0,0,1,1.142,1.14v8.546a1.141,1.141,0,0,1-1.142,1.139M58.907,31.813c-.251.252-.251,8.8-.251,8.8.251.249,27.482.249,27.482.249.251-.249.251-8.8.251-8.8-.251-.252-27.482-.252-27.482-.252" transform="translate(16.829 9.009)"/>
            <path id="Trazado_605441" data-name="Trazado 605441" d="M76.162,35.494H60.641a.356.356,0,0,1,0-.713H76.162a.356.356,0,1,1,0,.713" transform="translate(17.563 10.133)"/>
            <path id="Trazado_605442" data-name="Trazado 605442" d="M78.962,33.466H60.641a.356.356,0,0,1,0-.713h18.32a.356.356,0,1,1,0,.713" transform="translate(17.563 9.542)"/>
            <path id="Trazado_605443" data-name="Trazado 605443" d="M73.134,37.642H60.641a.356.356,0,1,1,0-.713H73.134a.356.356,0,1,1,0,.713" transform="translate(17.563 10.759)"/>
            <path id="Trazado_605444" data-name="Trazado 605444" d="M86.138,30.6H58.907a1.141,1.141,0,0,1-1.142-1.139V20.917a1.142,1.142,0,0,1,1.142-1.14H86.138a1.142,1.142,0,0,1,1.142,1.14v8.546A1.141,1.141,0,0,1,86.138,30.6M58.907,20.665c-.251.252-.251,8.8-.251,8.8.251.249,27.482.249,27.482.249.251-.249.251-8.8.251-8.8-.251-.252-27.482-.252-27.482-.252" transform="translate(16.829 5.762)"/>
            <path id="Trazado_605445" data-name="Trazado 605445" d="M76.162,24.346H60.641a.356.356,0,0,1,0-.713H76.162a.356.356,0,1,1,0,.713" transform="translate(17.563 6.885)"/>
            <path id="Trazado_605446" data-name="Trazado 605446" d="M78.962,22.318H60.641a.356.356,0,1,1,0-.713h18.32a.356.356,0,1,1,0,.713" transform="translate(17.563 6.294)"/>
            <path id="Trazado_605447" data-name="Trazado 605447" d="M73.134,26.494H60.641a.356.356,0,0,1,0-.713H73.134a.356.356,0,0,1,0,.713" transform="translate(17.563 7.511)"/>
            <path id="Trazado_605448" data-name="Trazado 605448" d="M86.138,52.9H58.907a1.141,1.141,0,0,1-1.142-1.139V43.213a1.142,1.142,0,0,1,1.142-1.14H86.138a1.142,1.142,0,0,1,1.142,1.14v8.546A1.141,1.141,0,0,1,86.138,52.9M58.907,42.961c-.251.252-.251,8.8-.251,8.8.251.249,27.482.249,27.482.249.251-.249.251-8.8.251-8.8-.251-.252-27.482-.252-27.482-.252" transform="translate(16.829 12.257)"/>
            <path id="Trazado_605449" data-name="Trazado 605449" d="M76.162,46.642H60.641a.356.356,0,1,1,0-.713H76.162a.356.356,0,1,1,0,.713" transform="translate(17.563 13.381)"/>
            <path id="Trazado_605450" data-name="Trazado 605450" d="M78.962,44.613H60.641a.356.356,0,1,1,0-.712h18.32a.356.356,0,1,1,0,.712" transform="translate(17.563 12.79)"/>
            <path id="Trazado_605451" data-name="Trazado 605451" d="M73.134,48.79H60.641a.356.356,0,0,1,0-.713H73.134a.356.356,0,0,1,0,.713" transform="translate(17.563 14.006)"/>
            <rect id="Rectángulo_345712" data-name="Rectángulo 345712" width="34.932" height="43.48" transform="translate(111.921 22.731)" fill="#fff7c2"/>
            <path id="Trazado_605452" data-name="Trazado 605452" d="M122.658,59.835H88.083a.291.291,0,0,1-.291-.289V16.6a.29.29,0,0,1,.291-.289h34.575a.29.29,0,0,1,.291.289V59.546a.291.291,0,0,1-.291.289m-34.285-.58h33.994V16.891H88.373Z" transform="translate(25.577 4.752)" fill="#1a1a1a"/>
            <path id="Trazado_605453" data-name="Trazado 605453" d="M98.657,40.464a.291.291,0,0,1-.291-.291l0-2.487a.291.291,0,0,1,.581,0l0,2.487a.291.291,0,0,1-.289.291Z" transform="translate(28.656 10.895)" fill="#1a1a1a"/>
            <path id="Trazado_605454" data-name="Trazado 605454" d="M99.628,41.906a6.9,6.9,0,0,1-3.724-.931c-2.4-1.535-1.779-4.273-1.327-6.273.107-.474.208-.921.249-1.278.207-1.81.573-9.136.577-9.21a.293.293,0,0,1,.3-.275.29.29,0,0,1,.275.3c-.014.3-.371,7.419-.58,9.246a13.244,13.244,0,0,1-.26,1.34c-.438,1.934-.981,4.34,1.073,5.657,2.637,1.689,7.07.284,7.115.269a.29.29,0,1,1,.178.553,13.863,13.863,0,0,1-3.882.6" transform="translate(27.43 6.974)" fill="#1a1a1a"/>
            <path id="Trazado_605455" data-name="Trazado 605455" d="M107.216,30.939a.3.3,0,0,1-.288-.332,10.132,10.132,0,0,0-1.173-5.346A21.9,21.9,0,0,1,95.38,24.5a.291.291,0,0,1-.177-.371.294.294,0,0,1,.372-.176,21.792,21.792,0,0,0,10.282.7.285.285,0,0,1,.313.143c.07.128,1.739,3.159,1.334,5.895a.29.29,0,0,1-.287.248" transform="translate(27.731 6.974)" fill="#1a1a1a"/>
            <path id="Trazado_605456" data-name="Trazado 605456" d="M111.47,31.379c-.239-.061-.324-.223-.276-.377.019-.063,1.962-6.371.146-8.405-1.316-1.475-2.013-1.317-3.277-1.032a11.874,11.874,0,0,1-1.712.289,6.958,6.958,0,0,1-3.95-1.317c-1.764-.993-3.59-2.02-5.922-1.071a4.47,4.47,0,0,0-2.926,4.441,3.331,3.331,0,0,0,2.481,3.148.29.29,0,0,1-.143.563,3.9,3.9,0,0,1-2.917-3.673,5.048,5.048,0,0,1,3.286-5.019c2.593-1.055,4.629.09,6.426,1.1a6.678,6.678,0,0,0,3.617,1.249,11.782,11.782,0,0,0,1.634-.28c1.333-.3,2.3-.517,3.839,1.213,2.033,2.278.058,8.693-.026,8.964a.293.293,0,0,1-.278.2" transform="translate(27.082 5.392)" fill="#1a1a1a"/>
            <path id="Trazado_605457" data-name="Trazado 605457" d="M103.254,27.681a5.923,5.923,0,0,0-1.437-.8.291.291,0,0,1-.212-.354.3.3,0,0,1,.353-.209,3.824,3.824,0,0,1,1.5.861.289.289,0,0,1-.2.5" transform="translate(29.598 7.666)" fill="#1a1a1a"/>
            <path id="Trazado_605458" data-name="Trazado 605458" d="M96.306,27.5c-.312-.179-.323-.363-.217-.483a2.8,2.8,0,0,1,1.464-.7.3.3,0,0,1,.331.244.291.291,0,0,1-.243.331,2.191,2.191,0,0,0-1.118.511.292.292,0,0,1-.217.1" transform="translate(27.976 7.666)" fill="#1a1a1a"/>
            <path id="Trazado_605459" data-name="Trazado 605459" d="M97.42,33.828c-.3-.346-.449-2.27.748-5.611a.3.3,0,0,1,.372-.176.291.291,0,0,1,.176.372A15.43,15.43,0,0,0,97.7,33.138L98.74,32.8a.291.291,0,0,1,.182.553l-1.411.464a.27.27,0,0,1-.09.014" transform="translate(28.321 8.165)" fill="#1a1a1a"/>
            <path id="Trazado_605460" data-name="Trazado 605460" d="M107.046,34.125a3.128,3.128,0,0,1-1.708-.5.29.29,0,0,1,.316-.487,2.564,2.564,0,1,0-.935-3.23.29.29,0,1,1-.527-.244,3.144,3.144,0,1,1,2.854,4.464" transform="translate(30.347 8.11)" fill="#1a1a1a"/>
            <path id="Trazado_605461" data-name="Trazado 605461" d="M102.718,44.959c-4.255-.005-4.352-3.252-4.352-3.284a.29.29,0,0,1,.285-.294.3.3,0,0,1,.294.285c0,.111.1,2.707,3.755,2.713,4.083,0,5.409-2.167,5.61-2.545V32.546a.291.291,0,0,1,.581,0V41.9c-.08.24-1.419,3.057-6.174,3.057" transform="translate(28.657 9.398)" fill="#1a1a1a"/>
            <path id="Trazado_605462" data-name="Trazado 605462" d="M96.482,29.652a.331.331,0,0,1-.312-.346l.048-.927a.33.33,0,1,1,.66.034l-.048.928a.331.331,0,0,1-.347.311" transform="translate(28.017 8.176)" fill="#1a1a1a"/>
            <path id="Trazado_605463" data-name="Trazado 605463" d="M100.777,29.83a.332.332,0,0,1-.312-.347l.048-.928a.33.33,0,0,1,.66.035l-.048.927a.334.334,0,0,1-.347.314" transform="translate(29.268 8.228)" fill="#1a1a1a"/>
            <path id="Trazado_605464" data-name="Trazado 605464" d="M99.215,35.13c-.155-.044-1.943-1.176-1.943-1.176a.291.291,0,0,1,.311-.492l1.561.992,1.468-1.958a.29.29,0,1,1,.465.347l-1.63,2.172a.292.292,0,0,1-.232.115" transform="translate(28.299 9.434)" fill="#1a1a1a"/>
            <path id="Trazado_605465" data-name="Trazado 605465" d="M88.082,48.892c-.252-.074-.328-.241-.272-.391,2.836-7.578,13.438-8.942,13.888-9a.291.291,0,0,1,.07.577c-.106.013-10.7,1.378-13.413,8.622a.29.29,0,0,1-.272.189" transform="translate(25.577 11.508)" fill="#1a1a1a"/>
            <path id="Trazado_605466" data-name="Trazado 605466" d="M117.334,44.82c-4.347-3.9-10.944-4.731-11.01-4.739a.291.291,0,0,1,.068-.577c.278.035,6.853.859,11.139,4.813a.29.29,0,0,1,.015.411.287.287,0,0,1-.213.093" transform="translate(30.901 11.508)" fill="#1a1a1a"/>
            <path id="Trazado_605467" data-name="Trazado 605467" d="M107.439,32.392c-.132-.031-2.413-1.184-2.413-1.184-.061-.477,2.221-2.5,2.221-2.5a.29.29,0,0,1,.385.435l-1.962,1.741,1.9.962a.29.29,0,0,1-.13.549" transform="translate(30.597 8.342)" fill="#1a1a1a"/>
          </g>
        </g>
      </g>
    </g>
    <g id="Rectángulo_346383" data-name="Rectángulo 346383" transform="translate(380 993)" fill="#fff" stroke="#000" stroke-width="1">
      <rect width="37" height="26" stroke="none"/>
      <rect x="0.5" y="0.5" width="36" height="25" fill="none"/>
    </g>
    <path id="Trazado_606599" data-name="Trazado 606599" d="M2902.574-10706.223l9.426,9.426h19.218l7.185-8.946" transform="translate(-2522 11700)" fill="none" stroke="#000" stroke-width="1"/>
    <rect id="Rectángulo_346384" data-name="Rectángulo 346384" width="35" height="24" rx="10" transform="translate(632 1043)" fill="#983333"/>
    <path id="Polígono_5" data-name="Polígono 5" d="M5.5,0,11,10H0Z" transform="translate(655.5 1049.5) rotate(90)" fill="#fff"/>
  </g>
</svg>
