<svg xmlns="http://www.w3.org/2000/svg" xmlns:xlink="http://www.w3.org/1999/xlink" width="1240" height="355" viewBox="0 0 1240 355">
  <defs>
    <clipPath id="clip-path">
      <rect id="Rectángulo_347325" data-name="Rectángulo 347325" width="107.963" height="104.469" fill="none"/>
    </clipPath>
  </defs>
  <g id="Grupo_1016905" data-name="Grupo 1016905" transform="translate(-180 -4329)">
    <g id="Grupo_1016904" data-name="Grupo 1016904">
      <g id="Grupo_1016858" data-name="Grupo 1016858">
        <rect id="Rectángulo_347405" data-name="Rectángulo 347405" width="1240" height="355" transform="translate(180 4329)" fill="#fff"/>
        <g id="Grupo_1016857" data-name="Grupo 1016857" transform="translate(0 2)">
          <path id="Unión_13" data-name="Unión 13" d="M1703,11840v-140h295v55.979l12.228,12.028L1998,11780.386V11840Z" transform="translate(-1523 -7353.002)" fill="#e3ecf7"/>
          <path id="Unión_16" data-name="Unión 16" d="M1703,11840v-140h295v55.979l12.228,12.028L1998,11780.386V11840Z" transform="translate(-1208 -7353)" fill="#e0fcfb"/>
          <path id="Unión_24" data-name="Unión 24" d="M1703,11840v-140h295v55.979l12.228,12.028L1998,11780.386V11840Z" transform="translate(2808.227 16356.002) rotate(180)" fill="#e0fcfb"/>
          <path id="Unión_28" data-name="Unión 28" d="M1703,11700h295v140H1703Z" transform="translate(2178 16356) rotate(180)" fill="#e0fcfb"/>
          <path id="Unión_18" data-name="Unión 18" d="M1703,11840v-140h295v55.979l12.228,12.028L1998,11780.386V11840Z" transform="translate(-893 -7353)" fill="#e3ecf7"/>
          <path id="Unión_26" data-name="Unión 26" d="M1703,11840v-140h295v55.979l12.228,12.028L1998,11780.386V11840Z" transform="translate(2493 16356.002) rotate(180)" fill="#e3ecf7"/>
          <path id="Unión_20" data-name="Unión 20" d="M1834.371,11840H1703v-140h295v140H1866.51l-15.842,16.1Z" transform="translate(-578 -7353)" fill="#e0fcfb"/>
          <path id="Trazado_608924" data-name="Trazado 608924" d="M42.014,12.887a1.459,1.459,0,0,0-.56-1.229,6.741,6.741,0,0,0-2.021-.872,9.76,9.76,0,0,1-2.324-.979A3.1,3.1,0,0,1,35.456,7.1a2.945,2.945,0,0,1,1.191-2.407,4.821,4.821,0,0,1,3.092-.946,5.223,5.223,0,0,1,2.25.465,3.692,3.692,0,0,1,1.552,1.324,3.4,3.4,0,0,1,.564,1.905H42.014A1.894,1.894,0,0,0,41.42,5.96a2.45,2.45,0,0,0-1.7-.535,2.558,2.558,0,0,0-1.6.44,1.465,1.465,0,0,0-.569,1.229A1.325,1.325,0,0,0,38.17,8.2a7.076,7.076,0,0,0,2.025.863,9.317,9.317,0,0,1,2.266.955,3.6,3.6,0,0,1,1.253,1.229,3.2,3.2,0,0,1,.4,1.623,2.876,2.876,0,0,1-1.158,2.4,5.023,5.023,0,0,1-3.142.892A5.9,5.9,0,0,1,37.4,15.68a4.051,4.051,0,0,1-1.71-1.341,3.341,3.341,0,0,1-.61-1.992h2.1a1.955,1.955,0,0,0,.681,1.594,2.981,2.981,0,0,0,1.951.564,2.59,2.59,0,0,0,1.648-.444A1.433,1.433,0,0,0,42.014,12.887Zm7.7,3.279a4.173,4.173,0,0,1-3.109-1.208,4.381,4.381,0,0,1-1.191-3.217v-.249a5.389,5.389,0,0,1,.519-2.4,3.949,3.949,0,0,1,1.457-1.648,3.851,3.851,0,0,1,2.092-.589,3.525,3.525,0,0,1,2.835,1.17,4.949,4.949,0,0,1,1,3.312v.813H47.451a2.7,2.7,0,0,0,.743,1.76,2.23,2.23,0,0,0,1.639.647,2.731,2.731,0,0,0,2.258-1.121l1.087,1.038a3.631,3.631,0,0,1-1.44,1.249A4.509,4.509,0,0,1,49.717,16.166Zm-.241-7.695a1.7,1.7,0,0,0-1.341.581,3.012,3.012,0,0,0-.652,1.619h3.843v-.149a2.452,2.452,0,0,0-.54-1.531A1.686,1.686,0,0,0,49.476,8.471ZM57.03,16H55.013V3.25H57.03Zm6.151.166a4.173,4.173,0,0,1-3.109-1.208,4.381,4.381,0,0,1-1.191-3.217v-.249a5.389,5.389,0,0,1,.519-2.4,3.949,3.949,0,0,1,1.457-1.648,3.851,3.851,0,0,1,2.092-.589,3.525,3.525,0,0,1,2.835,1.17,4.949,4.949,0,0,1,1,3.312v.813H60.915a2.7,2.7,0,0,0,.743,1.76,2.23,2.23,0,0,0,1.639.647,2.731,2.731,0,0,0,2.258-1.121l1.087,1.038a3.631,3.631,0,0,1-1.44,1.249A4.509,4.509,0,0,1,63.181,16.166ZM62.94,8.471a1.7,1.7,0,0,0-1.341.581,3.012,3.012,0,0,0-.652,1.619h3.843v-.149a2.452,2.452,0,0,0-.54-1.531A1.686,1.686,0,0,0,62.94,8.471Zm9.1,6.084a1.824,1.824,0,0,0,1.253-.44,1.5,1.5,0,0,0,.531-1.087h1.9a2.963,2.963,0,0,1-.523,1.565,3.43,3.43,0,0,1-1.328,1.15,3.958,3.958,0,0,1-1.81.423,3.829,3.829,0,0,1-2.988-1.22,4.84,4.84,0,0,1-1.1-3.37v-.208a4.759,4.759,0,0,1,1.1-3.283,3.8,3.8,0,0,1,2.988-1.233,3.69,3.69,0,0,1,2.611.934,3.345,3.345,0,0,1,1.058,2.453h-1.9a1.847,1.847,0,0,0-.527-1.27,1.7,1.7,0,0,0-1.258-.5,1.775,1.775,0,0,0-1.511.71,3.621,3.621,0,0,0-.54,2.154v.324a3.681,3.681,0,0,0,.527,2.179A1.773,1.773,0,0,0,72.038,14.556Zm8.9,0a1.824,1.824,0,0,0,1.253-.44,1.5,1.5,0,0,0,.531-1.087h1.9a2.963,2.963,0,0,1-.523,1.565,3.43,3.43,0,0,1-1.328,1.15,3.958,3.958,0,0,1-1.81.423,3.829,3.829,0,0,1-2.988-1.22,4.84,4.84,0,0,1-1.1-3.37v-.208a4.759,4.759,0,0,1,1.1-3.283,3.8,3.8,0,0,1,2.988-1.233,3.69,3.69,0,0,1,2.611.934,3.345,3.345,0,0,1,1.058,2.453h-1.9a1.847,1.847,0,0,0-.527-1.27,1.7,1.7,0,0,0-1.258-.5,1.775,1.775,0,0,0-1.511.71,3.621,3.621,0,0,0-.54,2.154v.324a3.681,3.681,0,0,0,.527,2.179A1.773,1.773,0,0,0,80.936,14.556ZM88.291,16H86.273V7.019h2.017ZM86.149,4.686a1.071,1.071,0,0,1,.295-.772,1.113,1.113,0,0,1,.843-.307,1.127,1.127,0,0,1,.847.307,1.062,1.062,0,0,1,.3.772,1.038,1.038,0,0,1-.3.76,1.136,1.136,0,0,1-.847.3,1.122,1.122,0,0,1-.843-.3A1.046,1.046,0,0,1,86.149,4.686Zm3.959,6.74a5.3,5.3,0,0,1,.523-2.378A3.819,3.819,0,0,1,92.1,7.421a4.14,4.14,0,0,1,2.175-.569,3.923,3.923,0,0,1,2.951,1.17,4.6,4.6,0,0,1,1.224,3.1l.008.473a5.343,5.343,0,0,1-.51,2.374,3.773,3.773,0,0,1-1.461,1.619,4.17,4.17,0,0,1-2.2.573A3.9,3.9,0,0,1,91.25,14.9a4.848,4.848,0,0,1-1.141-3.374Zm2.017.174a3.619,3.619,0,0,0,.573,2.171,1.862,1.862,0,0,0,1.594.784,1.842,1.842,0,0,0,1.59-.8,4,4,0,0,0,.569-2.333,3.572,3.572,0,0,0-.585-2.158,1.973,1.973,0,0,0-3.158-.012A3.922,3.922,0,0,0,92.125,11.6Zm9.911-4.582.058,1.038a3.229,3.229,0,0,1,2.615-1.2q2.806,0,2.855,3.212V16h-2.017V10.181a1.85,1.85,0,0,0-.369-1.266,1.554,1.554,0,0,0-1.208-.411,1.944,1.944,0,0,0-1.818,1.1V16h-2.017V7.019ZM114.986,16a3.113,3.113,0,0,1-.232-.838,3.393,3.393,0,0,1-4.565.232,2.47,2.47,0,0,1-.855-1.909,2.55,2.55,0,0,1,1.067-2.2,5.169,5.169,0,0,1,3.051-.768h1.237V9.924a1.573,1.573,0,0,0-.39-1.116,1.547,1.547,0,0,0-1.187-.419,1.777,1.777,0,0,0-1.129.344,1.066,1.066,0,0,0-.44.876h-2.017a2.239,2.239,0,0,1,.49-1.382,3.263,3.263,0,0,1,1.332-1.009,4.68,4.68,0,0,1,1.88-.365,3.769,3.769,0,0,1,2.515.793,2.827,2.827,0,0,1,.963,2.229v4.051a4.591,4.591,0,0,0,.34,1.934V16Zm-2.216-1.453a2.294,2.294,0,0,0,1.125-.291,1.941,1.941,0,0,0,.793-.78V11.783H113.6a2.973,2.973,0,0,0-1.685.39,1.264,1.264,0,0,0-.564,1.1,1.179,1.179,0,0,0,.386.926A1.5,1.5,0,0,0,112.77,14.547Zm10.75-5.686a4.991,4.991,0,0,0-.822-.066,1.85,1.85,0,0,0-1.868,1.063V16h-2.017V7.019h1.926l.05,1a2.273,2.273,0,0,1,2.025-1.17,1.888,1.888,0,0,1,.714.116ZM131.172,16h-2.017V3.25h2.017Zm7.562,0a3.113,3.113,0,0,1-.232-.838,3.393,3.393,0,0,1-4.565.232,2.47,2.47,0,0,1-.855-1.909,2.55,2.55,0,0,1,1.067-2.2,5.169,5.169,0,0,1,3.051-.768h1.237V9.924a1.573,1.573,0,0,0-.39-1.116,1.547,1.547,0,0,0-1.187-.419,1.777,1.777,0,0,0-1.129.344,1.066,1.066,0,0,0-.44.876h-2.017a2.239,2.239,0,0,1,.49-1.382,3.263,3.263,0,0,1,1.332-1.009,4.68,4.68,0,0,1,1.88-.365,3.769,3.769,0,0,1,2.515.793,2.827,2.827,0,0,1,.963,2.229v4.051a4.591,4.591,0,0,0,.34,1.934V16Zm-2.216-1.453a2.294,2.294,0,0,0,1.125-.291,1.941,1.941,0,0,0,.793-.78V11.783h-1.087a2.973,2.973,0,0,0-1.685.39,1.264,1.264,0,0,0-.564,1.1,1.179,1.179,0,0,0,.386.926A1.5,1.5,0,0,0,136.518,14.547ZM31.941,40.166a4.173,4.173,0,0,1-3.109-1.208,4.381,4.381,0,0,1-1.191-3.217v-.249a5.389,5.389,0,0,1,.519-2.4,3.949,3.949,0,0,1,1.457-1.648,3.851,3.851,0,0,1,2.092-.589,3.525,3.525,0,0,1,2.835,1.17,4.949,4.949,0,0,1,1,3.312v.813H29.675a2.7,2.7,0,0,0,.743,1.76,2.23,2.23,0,0,0,1.639.647,2.731,2.731,0,0,0,2.258-1.121L35.4,38.473a3.631,3.631,0,0,1-1.44,1.249A4.509,4.509,0,0,1,31.941,40.166ZM31.7,32.471a1.7,1.7,0,0,0-1.341.581,3.012,3.012,0,0,0-.652,1.619h3.843v-.149a2.452,2.452,0,0,0-.54-1.531A1.686,1.686,0,0,0,31.7,32.471ZM39,31.019l.058.938a3.232,3.232,0,0,1,2.59-1.1,2.483,2.483,0,0,1,2.465,1.378,3.186,3.186,0,0,1,2.756-1.378,2.8,2.8,0,0,1,2.212.822,3.618,3.618,0,0,1,.743,2.424V40H47.812V34.156a1.786,1.786,0,0,0-.374-1.253,1.635,1.635,0,0,0-1.237-.4,1.679,1.679,0,0,0-1.125.369,1.948,1.948,0,0,0-.61.967L44.475,40H42.458V34.09A1.439,1.439,0,0,0,40.839,32.5a1.776,1.776,0,0,0-1.718.988V40H37.1V31.019ZM59.765,35.6a5.348,5.348,0,0,1-.946,3.324,3.287,3.287,0,0,1-4.906.27v4.258H51.9V31.019h1.859l.083.913a2.963,2.963,0,0,1,2.416-1.079,3.062,3.062,0,0,1,2.577,1.224,5.49,5.49,0,0,1,.934,3.4Zm-2.009-.174a3.746,3.746,0,0,0-.535-2.133,1.741,1.741,0,0,0-1.531-.789,1.856,1.856,0,0,0-1.776,1.021V37.51a1.873,1.873,0,0,0,1.793,1.046,1.739,1.739,0,0,0,1.507-.776A4.124,4.124,0,0,0,57.756,35.426Zm8.417-2.565a4.992,4.992,0,0,0-.822-.066,1.85,1.85,0,0,0-1.868,1.063V40H61.467V31.019h1.926l.05,1a2.273,2.273,0,0,1,2.025-1.17,1.888,1.888,0,0,1,.714.116Zm5.072,7.3a4.173,4.173,0,0,1-3.109-1.208,4.381,4.381,0,0,1-1.191-3.217v-.249a5.389,5.389,0,0,1,.519-2.4,3.949,3.949,0,0,1,1.457-1.648,3.851,3.851,0,0,1,2.092-.589,3.525,3.525,0,0,1,2.835,1.17,4.949,4.949,0,0,1,1,3.312v.813H68.979a2.7,2.7,0,0,0,.743,1.76,2.23,2.23,0,0,0,1.639.647,2.731,2.731,0,0,0,2.258-1.121l1.087,1.038a3.631,3.631,0,0,1-1.44,1.249A4.509,4.509,0,0,1,71.245,40.166ZM71,32.471a1.7,1.7,0,0,0-1.341.581,3.012,3.012,0,0,0-.652,1.619h3.843v-.149a2.452,2.452,0,0,0-.54-1.531A1.686,1.686,0,0,0,71,32.471ZM81.447,37.56A.914.914,0,0,0,81,36.738a4.723,4.723,0,0,0-1.473-.5,7.574,7.574,0,0,1-1.718-.548A2.293,2.293,0,0,1,76.3,33.575a2.391,2.391,0,0,1,.979-1.942,3.872,3.872,0,0,1,2.49-.78,4.029,4.029,0,0,1,2.6.8,2.529,2.529,0,0,1,.992,2.067H81.347a1.243,1.243,0,0,0-.432-.967,1.654,1.654,0,0,0-1.146-.386,1.787,1.787,0,0,0-1.083.307.968.968,0,0,0-.419.822.818.818,0,0,0,.39.722,5.365,5.365,0,0,0,1.577.519,7.466,7.466,0,0,1,1.864.623,2.639,2.639,0,0,1,1,.867,2.212,2.212,0,0,1,.328,1.229,2.34,2.34,0,0,1-1,1.963,4.283,4.283,0,0,1-2.631.751,4.644,4.644,0,0,1-1.967-.4,3.238,3.238,0,0,1-1.345-1.1,2.594,2.594,0,0,1-.481-1.5H77.96a1.421,1.421,0,0,0,.54,1.1,2.1,2.1,0,0,0,1.32.386,2.04,2.04,0,0,0,1.212-.3A.938.938,0,0,0,81.447,37.56ZM90.552,40a3.113,3.113,0,0,1-.232-.838,3.393,3.393,0,0,1-4.565.232,2.47,2.47,0,0,1-.855-1.909,2.55,2.55,0,0,1,1.067-2.2,5.169,5.169,0,0,1,3.051-.768h1.237v-.589a1.573,1.573,0,0,0-.39-1.116,1.547,1.547,0,0,0-1.187-.419,1.777,1.777,0,0,0-1.129.344,1.066,1.066,0,0,0-.44.876H85.091a2.239,2.239,0,0,1,.49-1.382,3.263,3.263,0,0,1,1.332-1.009,4.68,4.68,0,0,1,1.88-.365,3.769,3.769,0,0,1,2.515.793,2.827,2.827,0,0,1,.963,2.229v4.051a4.591,4.591,0,0,0,.34,1.934V40Zm-2.216-1.453a2.294,2.294,0,0,0,1.125-.291,1.941,1.941,0,0,0,.793-.78V35.783H89.166a2.973,2.973,0,0,0-1.685.39,1.264,1.264,0,0,0-.564,1.1,1.179,1.179,0,0,0,.386.926A1.5,1.5,0,0,0,88.336,38.547ZM106.482,35.6a5.348,5.348,0,0,1-.946,3.324,3.287,3.287,0,0,1-4.906.27v4.258H98.613V31.019h1.859l.083.913a2.963,2.963,0,0,1,2.416-1.079,3.062,3.062,0,0,1,2.577,1.224,5.49,5.49,0,0,1,.934,3.4Zm-2.009-.174a3.746,3.746,0,0,0-.535-2.133,1.741,1.741,0,0,0-1.531-.789,1.856,1.856,0,0,0-1.776,1.021V37.51a1.873,1.873,0,0,0,1.793,1.046,1.739,1.739,0,0,0,1.507-.776A4.124,4.124,0,0,0,104.473,35.426ZM113.554,40a3.113,3.113,0,0,1-.232-.838,3.393,3.393,0,0,1-4.565.232,2.47,2.47,0,0,1-.855-1.909,2.55,2.55,0,0,1,1.067-2.2,5.169,5.169,0,0,1,3.051-.768h1.237v-.589a1.573,1.573,0,0,0-.39-1.116,1.547,1.547,0,0,0-1.187-.419,1.777,1.777,0,0,0-1.129.344,1.066,1.066,0,0,0-.44.876h-2.017a2.239,2.239,0,0,1,.49-1.382,3.263,3.263,0,0,1,1.332-1.009,4.68,4.68,0,0,1,1.88-.365,3.769,3.769,0,0,1,2.515.793,2.827,2.827,0,0,1,.963,2.229v4.051a4.591,4.591,0,0,0,.34,1.934V40Zm-2.216-1.453a2.294,2.294,0,0,0,1.125-.291,1.941,1.941,0,0,0,.793-.78V35.783h-1.087a2.973,2.973,0,0,0-1.685.39,1.264,1.264,0,0,0-.564,1.1,1.179,1.179,0,0,0,.386.926A1.5,1.5,0,0,0,111.338,38.547Zm10.75-5.686a4.992,4.992,0,0,0-.822-.066,1.85,1.85,0,0,0-1.868,1.063V40h-2.017V31.019h1.926l.05,1a2.273,2.273,0,0,1,2.025-1.17,1.888,1.888,0,0,1,.714.116ZM128.479,40a3.113,3.113,0,0,1-.232-.838,3.393,3.393,0,0,1-4.565.232,2.47,2.47,0,0,1-.855-1.909,2.55,2.55,0,0,1,1.067-2.2,5.169,5.169,0,0,1,3.051-.768h1.237v-.589a1.573,1.573,0,0,0-.39-1.116,1.547,1.547,0,0,0-1.187-.419,1.777,1.777,0,0,0-1.129.344,1.066,1.066,0,0,0-.44.876h-2.017a2.239,2.239,0,0,1,.49-1.382,3.263,3.263,0,0,1,1.332-1.009,4.68,4.68,0,0,1,1.88-.365,3.769,3.769,0,0,1,2.515.793,2.827,2.827,0,0,1,.963,2.229v4.051a4.591,4.591,0,0,0,.34,1.934V40Zm-2.216-1.453a2.294,2.294,0,0,0,1.125-.291,1.941,1.941,0,0,0,.793-.78V35.783h-1.087a2.973,2.973,0,0,0-1.685.39,1.264,1.264,0,0,0-.564,1.1,1.179,1.179,0,0,0,.386.926A1.5,1.5,0,0,0,126.262,38.547ZM138.689,40h-2.017V27.25h2.017Zm7.562,0a3.113,3.113,0,0,1-.232-.838,3.393,3.393,0,0,1-4.565.232,2.47,2.47,0,0,1-.855-1.909,2.55,2.55,0,0,1,1.067-2.2,5.169,5.169,0,0,1,3.051-.768h1.237v-.589a1.573,1.573,0,0,0-.39-1.116,1.547,1.547,0,0,0-1.187-.419,1.777,1.777,0,0,0-1.129.344,1.066,1.066,0,0,0-.44.876h-2.017a2.239,2.239,0,0,1,.49-1.382,3.263,3.263,0,0,1,1.332-1.009,4.68,4.68,0,0,1,1.88-.365,3.769,3.769,0,0,1,2.515.793,2.827,2.827,0,0,1,.963,2.229v4.051a4.591,4.591,0,0,0,.34,1.934V40Zm-2.216-1.453a2.294,2.294,0,0,0,1.125-.291,1.941,1.941,0,0,0,.793-.78V35.783h-1.087a2.973,2.973,0,0,0-1.685.39,1.264,1.264,0,0,0-.564,1.1A1.179,1.179,0,0,0,143,38.2,1.5,1.5,0,0,0,144.034,38.547ZM20.1,62.556a1.824,1.824,0,0,0,1.253-.44,1.5,1.5,0,0,0,.531-1.087h1.9a2.963,2.963,0,0,1-.523,1.565,3.43,3.43,0,0,1-1.328,1.15,3.958,3.958,0,0,1-1.81.423,3.829,3.829,0,0,1-2.988-1.22,4.84,4.84,0,0,1-1.1-3.37v-.208a4.759,4.759,0,0,1,1.1-3.283,3.8,3.8,0,0,1,2.988-1.233,3.69,3.69,0,0,1,2.611.934,3.345,3.345,0,0,1,1.058,2.453h-1.9a1.847,1.847,0,0,0-.527-1.27,1.7,1.7,0,0,0-1.258-.5,1.775,1.775,0,0,0-1.511.71,3.621,3.621,0,0,0-.54,2.154v.324a3.682,3.682,0,0,0,.527,2.179A1.773,1.773,0,0,0,20.1,62.556Zm4.831-3.129a5.3,5.3,0,0,1,.523-2.378,3.819,3.819,0,0,1,1.469-1.627,4.14,4.14,0,0,1,2.175-.569,3.923,3.923,0,0,1,2.951,1.17,4.6,4.6,0,0,1,1.224,3.1l.008.473a5.343,5.343,0,0,1-.51,2.374,3.773,3.773,0,0,1-1.461,1.619,4.17,4.17,0,0,1-2.2.573A3.9,3.9,0,0,1,26.076,62.9a4.848,4.848,0,0,1-1.141-3.374Zm2.017.174a3.619,3.619,0,0,0,.573,2.171,1.862,1.862,0,0,0,1.594.784,1.842,1.842,0,0,0,1.59-.8,4,4,0,0,0,.569-2.333,3.572,3.572,0,0,0-.585-2.158,1.973,1.973,0,0,0-3.158-.012A3.922,3.922,0,0,0,26.952,59.6Zm9.936-4.582.058.938a3.232,3.232,0,0,1,2.59-1.1A2.483,2.483,0,0,1,42,56.23a3.186,3.186,0,0,1,2.756-1.378,2.8,2.8,0,0,1,2.212.822,3.618,3.618,0,0,1,.743,2.424V64H45.7V58.156a1.786,1.786,0,0,0-.374-1.253,1.635,1.635,0,0,0-1.237-.4,1.679,1.679,0,0,0-1.125.369,1.948,1.948,0,0,0-.61.967L42.358,64H40.341V58.09A1.439,1.439,0,0,0,38.722,56.5,1.776,1.776,0,0,0,37,57.492V64H34.987V55.019ZM57.648,59.6a5.348,5.348,0,0,1-.946,3.324,3.287,3.287,0,0,1-4.906.27v4.258H49.779V55.019h1.859l.083.913a2.963,2.963,0,0,1,2.416-1.079,3.062,3.062,0,0,1,2.577,1.224,5.49,5.49,0,0,1,.934,3.4Zm-2.009-.174a3.746,3.746,0,0,0-.535-2.133,1.741,1.741,0,0,0-1.531-.789A1.856,1.856,0,0,0,51.8,57.525V61.51a1.873,1.873,0,0,0,1.793,1.046A1.739,1.739,0,0,0,55.1,61.78,4.124,4.124,0,0,0,55.639,59.426Zm8.417-2.565a4.992,4.992,0,0,0-.822-.066,1.85,1.85,0,0,0-1.868,1.063V64H59.35V55.019h1.926l.05,1a2.273,2.273,0,0,1,2.025-1.17,1.888,1.888,0,0,1,.714.116ZM70.448,64a3.113,3.113,0,0,1-.232-.838,3.393,3.393,0,0,1-4.565.232,2.47,2.47,0,0,1-.855-1.909,2.55,2.55,0,0,1,1.067-2.2,5.169,5.169,0,0,1,3.051-.768h1.237v-.589a1.573,1.573,0,0,0-.39-1.116,1.547,1.547,0,0,0-1.187-.419,1.777,1.777,0,0,0-1.129.344,1.066,1.066,0,0,0-.44.876H64.986a2.239,2.239,0,0,1,.49-1.382,3.263,3.263,0,0,1,1.332-1.009,4.68,4.68,0,0,1,1.88-.365,3.769,3.769,0,0,1,2.515.793,2.827,2.827,0,0,1,.963,2.229v4.051a4.591,4.591,0,0,0,.34,1.934V64Zm-2.216-1.453a2.294,2.294,0,0,0,1.125-.291,1.941,1.941,0,0,0,.793-.78V59.783H69.062a2.973,2.973,0,0,0-1.685.39,1.264,1.264,0,0,0-.564,1.1,1.179,1.179,0,0,0,.386.926A1.5,1.5,0,0,0,68.232,62.547Zm9.9-3.1A5.34,5.34,0,0,1,79.1,56.11a3.085,3.085,0,0,1,2.582-1.258,2.931,2.931,0,0,1,2.308,1v-4.6H86V64H84.177l-.1-.93a2.973,2.973,0,0,1-2.416,1.1A3.068,3.068,0,0,1,79.11,62.9,5.535,5.535,0,0,1,78.135,59.443Zm2.017.174a3.739,3.739,0,0,0,.527,2.137,1.71,1.71,0,0,0,1.5.768,1.9,1.9,0,0,0,1.81-1.1V57.583A1.876,1.876,0,0,0,82.194,56.5a1.723,1.723,0,0,0-1.511.776A4.163,4.163,0,0,0,80.152,59.617Zm11.912,4.549a4.173,4.173,0,0,1-3.109-1.208,4.381,4.381,0,0,1-1.191-3.217v-.249a5.389,5.389,0,0,1,.519-2.4,3.949,3.949,0,0,1,1.457-1.648,3.851,3.851,0,0,1,2.092-.589,3.525,3.525,0,0,1,2.835,1.17,4.949,4.949,0,0,1,1,3.312v.813H89.8a2.7,2.7,0,0,0,.743,1.76,2.23,2.23,0,0,0,1.639.647,2.731,2.731,0,0,0,2.258-1.121l1.087,1.038a3.631,3.631,0,0,1-1.44,1.249A4.509,4.509,0,0,1,92.063,64.166Zm-.241-7.695a1.7,1.7,0,0,0-1.341.581,3.012,3.012,0,0,0-.652,1.619h3.843v-.149a2.452,2.452,0,0,0-.54-1.531A1.686,1.686,0,0,0,91.823,56.471ZM99.376,64H97.359V51.25h2.017Zm8.774-7.994a3.32,3.32,0,0,1,2.548-1.146,2.191,2.191,0,0,1,1.9.9,3.592,3.592,0,0,1,.461,2.457L112.093,64h-1.967l.979-5.8a3.39,3.39,0,0,0,.017-.664,1.075,1.075,0,0,0-1.2-1.038,2.427,2.427,0,0,0-1.959,1.079L106.847,64H104.88l2.208-12.75h1.976Zm6.466,3.47a5.91,5.91,0,0,1,.776-2.4,4.606,4.606,0,0,1,1.631-1.668,4.031,4.031,0,0,1,2.208-.556,3.336,3.336,0,0,1,3.217,2.25,5.192,5.192,0,0,1,.27,2.308,6.019,6.019,0,0,1-.776,2.523,4.588,4.588,0,0,1-1.644,1.681,4.088,4.088,0,0,1-2.22.552,3.331,3.331,0,0,1-3.2-2.237,5.126,5.126,0,0,1-.282-2.279Zm1.934,1.137a2.372,2.372,0,0,0,.461,1.4,1.474,1.474,0,0,0,1.166.552,2.069,2.069,0,0,0,1.7-.78,4.1,4.1,0,0,0,.859-2.2l.05-.813a2.874,2.874,0,0,0-.423-1.668,1.486,1.486,0,0,0-1.229-.639A2.151,2.151,0,0,0,117.14,57.7a4.621,4.621,0,0,0-.556,1.776A6.95,6.95,0,0,0,116.551,60.613Zm12.435.9q.141-.822-1.067-1.141a13.562,13.562,0,0,1-1.648-.51,2.272,2.272,0,0,1-1.652-2.225,2.527,2.527,0,0,1,1.1-2,4.031,4.031,0,0,1,2.536-.776,3.47,3.47,0,0,1,2.328.805,2.568,2.568,0,0,1,.884,2.067l-1.951-.008a1.259,1.259,0,0,0-.34-.975,1.388,1.388,0,0,0-.979-.369,1.931,1.931,0,0,0-1.125.324,1.206,1.206,0,0,0-.544.847q-.116.755,1.063,1.05a11.662,11.662,0,0,1,1.743.544,2.273,2.273,0,0,1,1.585,2.258,2.482,2.482,0,0,1-.56,1.49,3.27,3.27,0,0,1-1.39.971,4.757,4.757,0,0,1-1.851.311,3.652,3.652,0,0,1-2.436-.855,2.669,2.669,0,0,1-.95-2.15l1.9.008a1.446,1.446,0,0,0,.432,1.1,1.668,1.668,0,0,0,1.137.382,2.258,2.258,0,0,0,1.216-.3A1.162,1.162,0,0,0,128.985,61.51Zm7.628-8.674-.382,2.183h1.536l-.257,1.494h-1.544l-.847,5.03a1.72,1.72,0,0,0-.008.374q.05.54.664.564a3.75,3.75,0,0,0,.7-.075l-.133,1.577a4.511,4.511,0,0,1-1.237.174,1.837,1.837,0,0,1-1.54-.7,2.538,2.538,0,0,1-.4-1.814l.838-5.13h-1.436l.266-1.494h1.428l.382-2.183ZM139.867,64H137.9l1.561-8.981h1.967Zm-.125-11.281a1.11,1.11,0,0,1,.3-.78,1.094,1.094,0,0,1,.805-.34,1.047,1.047,0,0,1,.8.295,1.02,1.02,0,0,1,.32.76,1.05,1.05,0,0,1-.311.78,1.141,1.141,0,0,1-.793.324,1.064,1.064,0,0,1-.8-.286A.987.987,0,0,1,139.743,52.719Zm5.7,2.291-.2,1.054a3.427,3.427,0,0,1,2.665-1.212,2.171,2.171,0,0,1,1.868.9,3.6,3.6,0,0,1,.448,2.445l-.971,5.8h-1.967l.979-5.827a2.982,2.982,0,0,0,.008-.664A1.058,1.058,0,0,0,147.1,56.5a2.391,2.391,0,0,0-1.967,1.1L144.01,64h-1.967l1.552-8.981Zm6.325,4.491a6.947,6.947,0,0,1,.726-2.432,4.394,4.394,0,0,1,1.432-1.664,3.379,3.379,0,0,1,1.976-.56,2.65,2.65,0,0,1,2.233,1.087l.307-.921,1.793.008-1.486,8.732a4.239,4.239,0,0,1-4.482,3.793,4.192,4.192,0,0,1-1.793-.432,3.728,3.728,0,0,1-1.361-1.1l1.046-1.187a2.52,2.52,0,0,0,2.059,1.121,2.413,2.413,0,0,0,1.656-.527,2.746,2.746,0,0,0,.926-1.6l.141-.631a3.178,3.178,0,0,1-2.357.971,2.515,2.515,0,0,1-2.021-.955,4.223,4.223,0,0,1-.834-2.523A8.3,8.3,0,0,1,151.771,59.5Zm1.951.174a6.071,6.071,0,0,0-.033.913,2.369,2.369,0,0,0,.4,1.395,1.336,1.336,0,0,0,1.087.54,2.322,2.322,0,0,0,1.959-1.038l.706-3.968A1.6,1.6,0,0,0,156.3,56.5a2.049,2.049,0,0,0-1.677.772,4.325,4.325,0,0,0-.888,2.233Z" transform="translate(555 4383)" fill="#12263f"/>
          <path id="Trazado_608925" data-name="Trazado 608925" d="M12.524,12.065A4.364,4.364,0,0,1,11.1,15.083a4.867,4.867,0,0,1-3.312,1.083,4.713,4.713,0,0,1-2.544-.685,4.5,4.5,0,0,1-1.7-1.947A7.024,7.024,0,0,1,2.92,10.6V9.476a7.075,7.075,0,0,1,.606-3.013A4.567,4.567,0,0,1,5.265,4.454a4.851,4.851,0,0,1,2.619-.706A4.672,4.672,0,0,1,11.1,4.831,4.527,4.527,0,0,1,12.524,7.9H10.432a2.985,2.985,0,0,0-.76-1.88,2.51,2.51,0,0,0-1.789-.577,2.452,2.452,0,0,0-2.1,1A5,5,0,0,0,5.028,9.38v1.072a5.308,5.308,0,0,0,.7,2.991,2.328,2.328,0,0,0,2.054,1.03,2.715,2.715,0,0,0,1.859-.556,2.9,2.9,0,0,0,.789-1.851Zm1.3-.639a5.3,5.3,0,0,1,.523-2.378,3.819,3.819,0,0,1,1.469-1.627,4.14,4.14,0,0,1,2.175-.569,3.923,3.923,0,0,1,2.951,1.17,4.6,4.6,0,0,1,1.224,3.1l.008.473a5.343,5.343,0,0,1-.51,2.374,3.773,3.773,0,0,1-1.461,1.619,4.17,4.17,0,0,1-2.2.573A3.9,3.9,0,0,1,14.968,14.9a4.848,4.848,0,0,1-1.141-3.374Zm2.017.174a3.619,3.619,0,0,0,.573,2.171,1.862,1.862,0,0,0,1.594.784,1.842,1.842,0,0,0,1.59-.8,4,4,0,0,0,.569-2.333,3.572,3.572,0,0,0-.585-2.158,1.973,1.973,0,0,0-3.158-.012A3.922,3.922,0,0,0,15.844,11.6ZM25.78,7.019l.058.938a3.232,3.232,0,0,1,2.59-1.1A2.483,2.483,0,0,1,30.893,8.23a3.186,3.186,0,0,1,2.756-1.378,2.8,2.8,0,0,1,2.212.822A3.618,3.618,0,0,1,36.6,10.1V16H34.587V10.156A1.786,1.786,0,0,0,34.214,8.9a1.635,1.635,0,0,0-1.237-.4,1.679,1.679,0,0,0-1.125.369,1.948,1.948,0,0,0-.61.967L31.25,16H29.233V10.09A1.439,1.439,0,0,0,27.615,8.5a1.776,1.776,0,0,0-1.718.988V16H23.879V7.019ZM46.54,11.6a5.348,5.348,0,0,1-.946,3.324,3.287,3.287,0,0,1-4.906.27v4.258H38.671V7.019h1.859l.083.913a2.963,2.963,0,0,1,2.416-1.079,3.062,3.062,0,0,1,2.577,1.224,5.49,5.49,0,0,1,.934,3.4Zm-2.009-.174A3.746,3.746,0,0,0,44,9.293,1.741,1.741,0,0,0,42.465,8.5a1.856,1.856,0,0,0-1.776,1.021V13.51a1.873,1.873,0,0,0,1.793,1.046,1.739,1.739,0,0,0,1.507-.776A4.124,4.124,0,0,0,44.531,11.426Zm8.417-2.565a4.991,4.991,0,0,0-.822-.066,1.85,1.85,0,0,0-1.868,1.063V16H48.242V7.019h1.926l.05,1a2.273,2.273,0,0,1,2.025-1.17,1.888,1.888,0,0,1,.714.116ZM59.34,16a3.113,3.113,0,0,1-.232-.838,3.393,3.393,0,0,1-4.565.232,2.47,2.47,0,0,1-.855-1.909,2.55,2.55,0,0,1,1.067-2.2,5.169,5.169,0,0,1,3.051-.768h1.237V9.924a1.573,1.573,0,0,0-.39-1.116,1.547,1.547,0,0,0-1.187-.419,1.777,1.777,0,0,0-1.129.344,1.066,1.066,0,0,0-.44.876H53.878a2.239,2.239,0,0,1,.49-1.382A3.263,3.263,0,0,1,55.7,7.218a4.68,4.68,0,0,1,1.88-.365,3.769,3.769,0,0,1,2.515.793,2.827,2.827,0,0,1,.963,2.229v4.051a4.591,4.591,0,0,0,.34,1.934V16Zm-2.216-1.453a2.294,2.294,0,0,0,1.125-.291,1.941,1.941,0,0,0,.793-.78V11.783H57.954a2.973,2.973,0,0,0-1.685.39,1.264,1.264,0,0,0-.564,1.1,1.179,1.179,0,0,0,.386.926A1.5,1.5,0,0,0,57.124,14.547Zm10.75-5.686a4.991,4.991,0,0,0-.822-.066,1.85,1.85,0,0,0-1.868,1.063V16H63.167V7.019h1.926l.05,1a2.273,2.273,0,0,1,2.025-1.17,1.888,1.888,0,0,1,.714.116Zm9.463,7.3a4.173,4.173,0,0,1-3.109-1.208,4.381,4.381,0,0,1-1.191-3.217v-.249a5.389,5.389,0,0,1,.519-2.4,3.949,3.949,0,0,1,1.457-1.648A3.851,3.851,0,0,1,77.1,6.853a3.525,3.525,0,0,1,2.835,1.17,4.949,4.949,0,0,1,1,3.312v.813H75.07a2.7,2.7,0,0,0,.743,1.76,2.23,2.23,0,0,0,1.639.647,2.731,2.731,0,0,0,2.258-1.121L80.8,14.473a3.631,3.631,0,0,1-1.44,1.249A4.509,4.509,0,0,1,77.336,16.166ZM77.1,8.471a1.7,1.7,0,0,0-1.341.581,3.012,3.012,0,0,0-.652,1.619h3.843v-.149a2.452,2.452,0,0,0-.54-1.531A1.686,1.686,0,0,0,77.1,8.471ZM84.649,16H82.632V3.25h2.017ZM90.7,11.443a5.34,5.34,0,0,1,.963-3.333,3.085,3.085,0,0,1,2.582-1.258,2.931,2.931,0,0,1,2.308,1V3.25H98.57V16H96.743l-.1-.93a2.973,2.973,0,0,1-2.416,1.1,3.068,3.068,0,0,1-2.552-1.27A5.535,5.535,0,0,1,90.7,11.443Zm2.017.174a3.739,3.739,0,0,0,.527,2.137,1.71,1.71,0,0,0,1.5.768,1.9,1.9,0,0,0,1.81-1.1V9.583A1.876,1.876,0,0,0,94.76,8.5a1.723,1.723,0,0,0-1.511.776A4.163,4.163,0,0,0,92.718,11.617Zm7.579-.191a5.3,5.3,0,0,1,.523-2.378,3.819,3.819,0,0,1,1.469-1.627,4.14,4.14,0,0,1,2.175-.569,3.923,3.923,0,0,1,2.951,1.17,4.6,4.6,0,0,1,1.224,3.1l.008.473a5.343,5.343,0,0,1-.51,2.374,3.773,3.773,0,0,1-1.461,1.619,4.17,4.17,0,0,1-2.2.573,3.9,3.9,0,0,1-3.042-1.266,4.848,4.848,0,0,1-1.141-3.374Zm2.017.174a3.619,3.619,0,0,0,.573,2.171,1.862,1.862,0,0,0,1.594.784,1.842,1.842,0,0,0,1.59-.8,4,4,0,0,0,.569-2.333,3.572,3.572,0,0,0-.585-2.158,1.973,1.973,0,0,0-3.158-.012A3.922,3.922,0,0,0,102.313,11.6Zm9.936-4.582.058.938a3.232,3.232,0,0,1,2.59-1.1,2.483,2.483,0,0,1,2.465,1.378,3.186,3.186,0,0,1,2.756-1.378,2.8,2.8,0,0,1,2.212.822,3.618,3.618,0,0,1,.743,2.424V16h-2.017V10.156a1.786,1.786,0,0,0-.374-1.253,1.635,1.635,0,0,0-1.237-.4,1.679,1.679,0,0,0-1.125.369,1.948,1.948,0,0,0-.61.967L117.719,16H115.7V10.09A1.439,1.439,0,0,0,114.084,8.5a1.776,1.776,0,0,0-1.718.988V16h-2.017V7.019ZM127.29,16h-2.017V7.019h2.017ZM125.149,4.686a1.071,1.071,0,0,1,.295-.772,1.113,1.113,0,0,1,.843-.307,1.127,1.127,0,0,1,.847.307,1.062,1.062,0,0,1,.3.772,1.038,1.038,0,0,1-.3.76,1.136,1.136,0,0,1-.847.3,1.122,1.122,0,0,1-.843-.3A1.046,1.046,0,0,1,125.149,4.686Zm6.209,2.333.058,1.038a3.229,3.229,0,0,1,2.615-1.2q2.806,0,2.855,3.212V16h-2.017V10.181a1.85,1.85,0,0,0-.369-1.266,1.554,1.554,0,0,0-1.208-.411,1.944,1.944,0,0,0-1.818,1.1V16h-2.017V7.019ZM141.086,16h-2.017V7.019h2.017ZM138.945,4.686a1.07,1.07,0,0,1,.295-.772,1.113,1.113,0,0,1,.843-.307,1.127,1.127,0,0,1,.847.307,1.062,1.062,0,0,1,.3.772,1.038,1.038,0,0,1-.3.76,1.136,1.136,0,0,1-.847.3,1.122,1.122,0,0,1-.843-.3A1.046,1.046,0,0,1,138.945,4.686Zm3.959,6.74a5.3,5.3,0,0,1,.523-2.378A3.819,3.819,0,0,1,144.9,7.421a4.14,4.14,0,0,1,2.175-.569,3.923,3.923,0,0,1,2.951,1.17,4.6,4.6,0,0,1,1.224,3.1l.008.473a5.343,5.343,0,0,1-.51,2.374,3.773,3.773,0,0,1-1.461,1.619,4.17,4.17,0,0,1-2.2.573,3.9,3.9,0,0,1-3.042-1.266,4.848,4.848,0,0,1-1.141-3.374Zm2.017.174a3.619,3.619,0,0,0,.573,2.171,1.862,1.862,0,0,0,1.594.784,1.842,1.842,0,0,0,1.59-.8,4,4,0,0,0,.569-2.333,3.572,3.572,0,0,0-.585-2.158,1.973,1.973,0,0,0-3.158-.012A3.922,3.922,0,0,0,144.921,11.6ZM33.612,35.443a5.34,5.34,0,0,1,.963-3.333,3.085,3.085,0,0,1,2.582-1.258,2.931,2.931,0,0,1,2.308,1v-4.6h2.017V40H39.655l-.1-.93a2.973,2.973,0,0,1-2.416,1.1,3.068,3.068,0,0,1-2.552-1.27A5.535,5.535,0,0,1,33.612,35.443Zm2.017.174a3.739,3.739,0,0,0,.527,2.137,1.71,1.71,0,0,0,1.5.768,1.9,1.9,0,0,0,1.81-1.1V33.583A1.876,1.876,0,0,0,37.671,32.5a1.723,1.723,0,0,0-1.511.776A4.163,4.163,0,0,0,35.629,35.617Zm11.912,4.549a4.173,4.173,0,0,1-3.109-1.208,4.381,4.381,0,0,1-1.191-3.217v-.249a5.389,5.389,0,0,1,.519-2.4,3.949,3.949,0,0,1,1.457-1.648,3.851,3.851,0,0,1,2.092-.589,3.525,3.525,0,0,1,2.835,1.17,4.949,4.949,0,0,1,1,3.312v.813H45.274a2.7,2.7,0,0,0,.743,1.76,2.23,2.23,0,0,0,1.639.647,2.731,2.731,0,0,0,2.258-1.121L51,38.473a3.631,3.631,0,0,1-1.44,1.249A4.509,4.509,0,0,1,47.541,40.166ZM47.3,32.471a1.7,1.7,0,0,0-1.341.581,3.012,3.012,0,0,0-.652,1.619h3.843v-.149a2.452,2.452,0,0,0-.54-1.531A1.686,1.686,0,0,0,47.3,32.471ZM59.087,40H57.07V27.25h2.017Zm7.562,0a3.113,3.113,0,0,1-.232-.838,3.393,3.393,0,0,1-4.565.232A2.47,2.47,0,0,1,61,37.485a2.55,2.55,0,0,1,1.067-2.2,5.169,5.169,0,0,1,3.051-.768H66.35v-.589a1.573,1.573,0,0,0-.39-1.116,1.547,1.547,0,0,0-1.187-.419,1.777,1.777,0,0,0-1.129.344,1.066,1.066,0,0,0-.44.876H61.187a2.239,2.239,0,0,1,.49-1.382,3.263,3.263,0,0,1,1.332-1.009,4.68,4.68,0,0,1,1.88-.365,3.769,3.769,0,0,1,2.515.793,2.827,2.827,0,0,1,.963,2.229v4.051a4.591,4.591,0,0,0,.34,1.934V40Zm-2.216-1.453a2.294,2.294,0,0,0,1.125-.291,1.941,1.941,0,0,0,.793-.78V35.783H65.263a2.973,2.973,0,0,0-1.685.39,1.264,1.264,0,0,0-.564,1.1,1.179,1.179,0,0,0,.386.926A1.5,1.5,0,0,0,64.433,38.547Zm12.808-9.712v2.183h1.585v1.494H77.241v5.014a1.1,1.1,0,0,0,.2.743.943.943,0,0,0,.726.228,3.107,3.107,0,0,0,.706-.083v1.561a4.968,4.968,0,0,1-1.328.191q-2.324,0-2.324-2.565V32.513H73.746V31.019h1.478V28.835ZM82.512,40H80.495V31.019h2.017ZM80.37,28.686a1.071,1.071,0,0,1,.295-.772,1.113,1.113,0,0,1,.843-.307,1.127,1.127,0,0,1,.847.307,1.062,1.062,0,0,1,.3.772,1.038,1.038,0,0,1-.3.76,1.136,1.136,0,0,1-.847.3,1.122,1.122,0,0,1-.843-.3A1.046,1.046,0,0,1,80.37,28.686Zm8.292,11.48a4.173,4.173,0,0,1-3.109-1.208,4.381,4.381,0,0,1-1.191-3.217v-.249a5.389,5.389,0,0,1,.519-2.4,3.949,3.949,0,0,1,1.457-1.648,3.851,3.851,0,0,1,2.092-.589,3.525,3.525,0,0,1,2.835,1.17,4.949,4.949,0,0,1,1,3.312v.813H86.4a2.7,2.7,0,0,0,.743,1.76,2.23,2.23,0,0,0,1.639.647,2.731,2.731,0,0,0,2.258-1.121l1.087,1.038a3.631,3.631,0,0,1-1.44,1.249A4.509,4.509,0,0,1,88.663,40.166Zm-.241-7.695a1.7,1.7,0,0,0-1.341.581,3.012,3.012,0,0,0-.652,1.619h3.843v-.149a2.452,2.452,0,0,0-.54-1.531A1.686,1.686,0,0,0,88.422,32.471Zm7.28-1.453.058,1.038a3.229,3.229,0,0,1,2.615-1.2q2.806,0,2.855,3.212V40H99.213V34.181a1.85,1.85,0,0,0-.369-1.266,1.554,1.554,0,0,0-1.208-.411,1.944,1.944,0,0,0-1.818,1.1V40H93.8V31.019Zm7.205,4.424a5.34,5.34,0,0,1,.963-3.333,3.085,3.085,0,0,1,2.582-1.258,2.931,2.931,0,0,1,2.308,1v-4.6h2.017V40H108.95l-.1-.93a2.973,2.973,0,0,1-2.416,1.1,3.068,3.068,0,0,1-2.552-1.27A5.535,5.535,0,0,1,102.907,35.443Zm2.017.174a3.739,3.739,0,0,0,.527,2.137,1.71,1.71,0,0,0,1.5.768,1.9,1.9,0,0,0,1.81-1.1V33.583a1.876,1.876,0,0,0-1.793-1.079,1.723,1.723,0,0,0-1.511.776A4.163,4.163,0,0,0,104.924,35.617ZM118.247,40a3.113,3.113,0,0,1-.232-.838,3.393,3.393,0,0,1-4.565.232,2.47,2.47,0,0,1-.855-1.909,2.55,2.55,0,0,1,1.067-2.2,5.169,5.169,0,0,1,3.051-.768h1.237v-.589a1.573,1.573,0,0,0-.39-1.116,1.547,1.547,0,0,0-1.187-.419,1.777,1.777,0,0,0-1.129.344,1.066,1.066,0,0,0-.44.876h-2.017a2.239,2.239,0,0,1,.49-1.382,3.263,3.263,0,0,1,1.332-1.009,4.68,4.68,0,0,1,1.88-.365,3.769,3.769,0,0,1,2.515.793,2.827,2.827,0,0,1,.963,2.229v4.051a4.591,4.591,0,0,0,.34,1.934V40Zm-2.216-1.453a2.294,2.294,0,0,0,1.125-.291,1.941,1.941,0,0,0,.793-.78V35.783H116.86a2.973,2.973,0,0,0-1.685.39,1.264,1.264,0,0,0-.564,1.1A1.179,1.179,0,0,0,115,38.2,1.5,1.5,0,0,0,116.03,38.547Z" transform="translate(881 4395)" fill="#12263f"/>
          <path id="Trazado_608926" data-name="Trazado 608926" d="M26.784,12.065a4.364,4.364,0,0,1-1.428,3.017,4.867,4.867,0,0,1-3.312,1.083,4.713,4.713,0,0,1-2.544-.685,4.5,4.5,0,0,1-1.7-1.947,7.024,7.024,0,0,1-.623-2.93V9.476a7.075,7.075,0,0,1,.606-3.013,4.567,4.567,0,0,1,1.739-2.009,4.851,4.851,0,0,1,2.619-.706,4.672,4.672,0,0,1,3.221,1.083A4.527,4.527,0,0,1,26.784,7.9H24.692a2.985,2.985,0,0,0-.76-1.88,2.51,2.51,0,0,0-1.789-.577,2.452,2.452,0,0,0-2.1,1,5,5,0,0,0-.751,2.937v1.072a5.308,5.308,0,0,0,.7,2.991,2.328,2.328,0,0,0,2.054,1.03,2.715,2.715,0,0,0,1.859-.556,2.9,2.9,0,0,0,.789-1.851Zm6.383-3.2a4.991,4.991,0,0,0-.822-.066,1.85,1.85,0,0,0-1.868,1.063V16H28.461V7.019h1.926l.05,1a2.273,2.273,0,0,1,2.025-1.17,1.888,1.888,0,0,1,.714.116Zm5.072,7.3a4.173,4.173,0,0,1-3.109-1.208,4.381,4.381,0,0,1-1.191-3.217v-.249a5.389,5.389,0,0,1,.519-2.4,3.949,3.949,0,0,1,1.457-1.648,3.851,3.851,0,0,1,2.092-.589,3.525,3.525,0,0,1,2.835,1.17,4.949,4.949,0,0,1,1,3.312v.813H35.973a2.7,2.7,0,0,0,.743,1.76,2.23,2.23,0,0,0,1.639.647,2.731,2.731,0,0,0,2.258-1.121L41.7,14.473a3.631,3.631,0,0,1-1.44,1.249A4.509,4.509,0,0,1,38.239,16.166ZM38,8.471a1.7,1.7,0,0,0-1.341.581,3.012,3.012,0,0,0-.652,1.619h3.843v-.149a2.452,2.452,0,0,0-.54-1.531A1.686,1.686,0,0,0,38,8.471ZM48.773,16a3.113,3.113,0,0,1-.232-.838,3.393,3.393,0,0,1-4.565.232,2.47,2.47,0,0,1-.855-1.909,2.55,2.55,0,0,1,1.067-2.2,5.169,5.169,0,0,1,3.051-.768h1.237V9.924a1.573,1.573,0,0,0-.39-1.116A1.547,1.547,0,0,0,46.9,8.388a1.777,1.777,0,0,0-1.129.344,1.066,1.066,0,0,0-.44.876H43.311a2.239,2.239,0,0,1,.49-1.382,3.263,3.263,0,0,1,1.332-1.009,4.68,4.68,0,0,1,1.88-.365,3.769,3.769,0,0,1,2.515.793,2.827,2.827,0,0,1,.963,2.229v4.051a4.591,4.591,0,0,0,.34,1.934V16Zm-2.216-1.453a2.294,2.294,0,0,0,1.125-.291,1.941,1.941,0,0,0,.793-.78V11.783H47.386a2.973,2.973,0,0,0-1.685.39,1.264,1.264,0,0,0-.564,1.1,1.179,1.179,0,0,0,.386.926A1.5,1.5,0,0,0,46.556,14.547Zm9.737.008a1.824,1.824,0,0,0,1.253-.44,1.5,1.5,0,0,0,.531-1.087h1.9a2.963,2.963,0,0,1-.523,1.565,3.43,3.43,0,0,1-1.328,1.15,3.958,3.958,0,0,1-1.81.423,3.829,3.829,0,0,1-2.988-1.22,4.84,4.84,0,0,1-1.1-3.37v-.208a4.759,4.759,0,0,1,1.1-3.283A3.8,3.8,0,0,1,56.31,6.853a3.69,3.69,0,0,1,2.611.934,3.345,3.345,0,0,1,1.058,2.453h-1.9a1.847,1.847,0,0,0-.527-1.27,1.7,1.7,0,0,0-1.258-.5,1.775,1.775,0,0,0-1.511.71,3.621,3.621,0,0,0-.54,2.154v.324a3.682,3.682,0,0,0,.527,2.179A1.773,1.773,0,0,0,56.293,14.556ZM63.648,16H61.631V7.019h2.017ZM61.506,4.686a1.071,1.071,0,0,1,.295-.772,1.113,1.113,0,0,1,.843-.307,1.127,1.127,0,0,1,.847.307,1.062,1.062,0,0,1,.3.772,1.038,1.038,0,0,1-.3.76,1.136,1.136,0,0,1-.847.3,1.122,1.122,0,0,1-.843-.3A1.046,1.046,0,0,1,61.506,4.686Zm3.959,6.74a5.3,5.3,0,0,1,.523-2.378,3.819,3.819,0,0,1,1.469-1.627,4.14,4.14,0,0,1,2.175-.569,3.923,3.923,0,0,1,2.951,1.17,4.6,4.6,0,0,1,1.224,3.1l.008.473a5.343,5.343,0,0,1-.51,2.374,3.773,3.773,0,0,1-1.461,1.619,4.17,4.17,0,0,1-2.2.573A3.9,3.9,0,0,1,66.607,14.9a4.848,4.848,0,0,1-1.141-3.374Zm2.017.174a3.619,3.619,0,0,0,.573,2.171,1.862,1.862,0,0,0,1.594.784,1.842,1.842,0,0,0,1.59-.8,4,4,0,0,0,.569-2.333,3.572,3.572,0,0,0-.585-2.158,1.973,1.973,0,0,0-3.158-.012A3.922,3.922,0,0,0,67.483,11.6ZM70.189,3.25h2.3l-2.3,2.515-1.619,0Zm7.205,3.769.058,1.038a3.229,3.229,0,0,1,2.615-1.2q2.806,0,2.855,3.212V16H80.905V10.181a1.85,1.85,0,0,0-.369-1.266A1.554,1.554,0,0,0,79.328,8.5a1.944,1.944,0,0,0-1.818,1.1V16H75.493V7.019Zm11.438,4.424A5.34,5.34,0,0,1,89.8,8.11a3.085,3.085,0,0,1,2.582-1.258,2.931,2.931,0,0,1,2.308,1V3.25H96.7V16H94.875l-.1-.93a2.973,2.973,0,0,1-2.416,1.1,3.068,3.068,0,0,1-2.552-1.27A5.535,5.535,0,0,1,88.832,11.443Zm2.017.174a3.739,3.739,0,0,0,.527,2.137,1.71,1.71,0,0,0,1.5.768,1.9,1.9,0,0,0,1.81-1.1V9.583A1.876,1.876,0,0,0,92.891,8.5a1.723,1.723,0,0,0-1.511.776A4.163,4.163,0,0,0,90.849,11.617Zm11.912,4.549a4.173,4.173,0,0,1-3.109-1.208,4.381,4.381,0,0,1-1.191-3.217v-.249a5.389,5.389,0,0,1,.519-2.4,3.949,3.949,0,0,1,1.457-1.648,3.851,3.851,0,0,1,2.092-.589,3.525,3.525,0,0,1,2.835,1.17,4.949,4.949,0,0,1,1,3.312v.813h-5.869a2.7,2.7,0,0,0,.743,1.76,2.23,2.23,0,0,0,1.639.647,2.731,2.731,0,0,0,2.258-1.121l1.087,1.038a3.631,3.631,0,0,1-1.44,1.249A4.509,4.509,0,0,1,102.761,16.166Zm-.241-7.695a1.7,1.7,0,0,0-1.341.581,3.012,3.012,0,0,0-.652,1.619h3.843v-.149a2.452,2.452,0,0,0-.54-1.531A1.686,1.686,0,0,0,102.52,8.471ZM114.307,16H112.29V3.25h2.017Zm7.562,0a3.113,3.113,0,0,1-.232-.838,3.393,3.393,0,0,1-4.565.232,2.47,2.47,0,0,1-.855-1.909,2.55,2.55,0,0,1,1.067-2.2,5.169,5.169,0,0,1,3.051-.768h1.237V9.924a1.573,1.573,0,0,0-.39-1.116,1.547,1.547,0,0,0-1.187-.419,1.777,1.777,0,0,0-1.129.344,1.066,1.066,0,0,0-.44.876h-2.017a2.239,2.239,0,0,1,.49-1.382,3.263,3.263,0,0,1,1.332-1.009,4.68,4.68,0,0,1,1.88-.365,3.769,3.769,0,0,1,2.515.793,2.827,2.827,0,0,1,.963,2.229v4.051a4.591,4.591,0,0,0,.34,1.934V16Zm-2.216-1.453a2.294,2.294,0,0,0,1.125-.291,1.941,1.941,0,0,0,.793-.78V11.783h-1.087a2.973,2.973,0,0,0-1.685.39,1.264,1.264,0,0,0-.564,1.1,1.179,1.179,0,0,0,.386.926A1.5,1.5,0,0,0,119.653,14.547ZM24.373,28.835v2.183h1.585v1.494H24.373v5.014a1.1,1.1,0,0,0,.2.743.943.943,0,0,0,.726.228,3.107,3.107,0,0,0,.706-.083v1.561a4.968,4.968,0,0,1-1.328.191q-2.324,0-2.324-2.565V32.513H20.878V31.019h1.478V28.835ZM29.644,40H27.626V31.019h2.017ZM27.5,28.686a1.071,1.071,0,0,1,.295-.772,1.113,1.113,0,0,1,.843-.307,1.127,1.127,0,0,1,.847.307,1.062,1.062,0,0,1,.3.772,1.038,1.038,0,0,1-.3.76,1.136,1.136,0,0,1-.847.3,1.122,1.122,0,0,1-.843-.3A1.046,1.046,0,0,1,27.5,28.686Zm8.292,11.48a4.173,4.173,0,0,1-3.109-1.208,4.381,4.381,0,0,1-1.191-3.217v-.249a5.389,5.389,0,0,1,.519-2.4,3.949,3.949,0,0,1,1.457-1.648,3.851,3.851,0,0,1,2.092-.589,3.525,3.525,0,0,1,2.835,1.17,4.949,4.949,0,0,1,1,3.312v.813H33.528a2.7,2.7,0,0,0,.743,1.76,2.23,2.23,0,0,0,1.639.647,2.731,2.731,0,0,0,2.258-1.121l1.087,1.038a3.631,3.631,0,0,1-1.44,1.249A4.509,4.509,0,0,1,35.794,40.166Zm-.241-7.695a1.7,1.7,0,0,0-1.341.581,3.012,3.012,0,0,0-.652,1.619H37.4v-.149a2.452,2.452,0,0,0-.54-1.531A1.686,1.686,0,0,0,35.554,32.471Zm7.28-1.453.058,1.038a3.229,3.229,0,0,1,2.615-1.2q2.806,0,2.855,3.212V40H46.345V34.181a1.85,1.85,0,0,0-.369-1.266,1.554,1.554,0,0,0-1.208-.411,1.944,1.944,0,0,0-1.818,1.1V40H40.933V31.019Zm7.205,4.424A5.34,5.34,0,0,1,51,32.11a3.085,3.085,0,0,1,2.582-1.258,2.931,2.931,0,0,1,2.308,1v-4.6h2.017V40H56.082l-.1-.93a2.973,2.973,0,0,1-2.416,1.1,3.068,3.068,0,0,1-2.552-1.27A5.535,5.535,0,0,1,50.039,35.443Zm2.017.174a3.739,3.739,0,0,0,.527,2.137,1.71,1.71,0,0,0,1.5.768,1.9,1.9,0,0,0,1.81-1.1V33.583A1.876,1.876,0,0,0,54.1,32.5a1.723,1.723,0,0,0-1.511.776A4.163,4.163,0,0,0,52.056,35.617ZM65.378,40a3.113,3.113,0,0,1-.232-.838,3.393,3.393,0,0,1-4.565.232,2.47,2.47,0,0,1-.855-1.909,2.55,2.55,0,0,1,1.067-2.2,5.169,5.169,0,0,1,3.051-.768H65.08v-.589a1.573,1.573,0,0,0-.39-1.116,1.547,1.547,0,0,0-1.187-.419,1.777,1.777,0,0,0-1.129.344,1.066,1.066,0,0,0-.44.876H59.917a2.239,2.239,0,0,1,.49-1.382,3.263,3.263,0,0,1,1.332-1.009,4.68,4.68,0,0,1,1.88-.365,3.769,3.769,0,0,1,2.515.793,2.827,2.827,0,0,1,.963,2.229v4.051a4.591,4.591,0,0,0,.34,1.934V40Zm-2.216-1.453a2.294,2.294,0,0,0,1.125-.291,1.941,1.941,0,0,0,.793-.78V35.783H63.992a2.973,2.973,0,0,0-1.685.39,1.264,1.264,0,0,0-.564,1.1,1.179,1.179,0,0,0,.386.926A1.5,1.5,0,0,0,63.162,38.547Zm13.447-1.1,1.9-6.425h2.083L77.481,40H75.729l-3.138-8.981h2.092ZM84,40H81.98V31.019H84ZM81.855,28.686a1.071,1.071,0,0,1,.295-.772,1.113,1.113,0,0,1,.843-.307,1.127,1.127,0,0,1,.847.307,1.062,1.062,0,0,1,.3.772,1.038,1.038,0,0,1-.3.76,1.136,1.136,0,0,1-.847.3,1.122,1.122,0,0,1-.843-.3A1.046,1.046,0,0,1,81.855,28.686Zm9.04,4.175a4.992,4.992,0,0,0-.822-.066,1.85,1.85,0,0,0-1.868,1.063V40H86.188V31.019h1.926l.05,1a2.273,2.273,0,0,1,2.025-1.17,1.888,1.888,0,0,1,.714.116Zm4.217-4.026v2.183H96.7v1.494H95.112v5.014a1.1,1.1,0,0,0,.2.743.943.943,0,0,0,.726.228,3.107,3.107,0,0,0,.706-.083v1.561a4.968,4.968,0,0,1-1.328.191q-2.324,0-2.324-2.565V32.513H91.617V31.019h1.478V28.835Zm8.566,10.285a3.128,3.128,0,0,1-2.523,1.046,2.788,2.788,0,0,1-2.212-.855,3.637,3.637,0,0,1-.751-2.474V31.019h2.017v5.794q0,1.71,1.419,1.71a1.993,1.993,0,0,0,1.984-1.054v-6.45h2.017V40h-1.9Zm9.372.88a3.113,3.113,0,0,1-.232-.838,3.393,3.393,0,0,1-4.565.232,2.47,2.47,0,0,1-.855-1.909,2.55,2.55,0,0,1,1.067-2.2,5.169,5.169,0,0,1,3.051-.768h1.237v-.589a1.573,1.573,0,0,0-.39-1.116,1.547,1.547,0,0,0-1.187-.419,1.777,1.777,0,0,0-1.129.344,1.066,1.066,0,0,0-.44.876h-2.017a2.239,2.239,0,0,1,.49-1.382,3.263,3.263,0,0,1,1.332-1.009,4.68,4.68,0,0,1,1.88-.365,3.769,3.769,0,0,1,2.515.793,2.827,2.827,0,0,1,.963,2.229v4.051a4.591,4.591,0,0,0,.34,1.934V40Zm-2.216-1.453a2.294,2.294,0,0,0,1.125-.291,1.941,1.941,0,0,0,.793-.78V35.783h-1.087a2.973,2.973,0,0,0-1.685.39,1.264,1.264,0,0,0-.564,1.1,1.179,1.179,0,0,0,.386.926A1.5,1.5,0,0,0,110.833,38.547ZM119.026,40h-2.017V27.25h2.017Z" transform="translate(1202 4395)" fill="#12263f"/>
          <path id="Trazado_608655" data-name="Trazado 608655" d="M-1228-7297.039l12.1,12.071-12.1,12.646" transform="translate(1703 11700)" fill="none" stroke="#6b82a1" stroke-linecap="round" stroke-width="2"/>
          <path id="Trazado_608657" data-name="Trazado 608657" d="M-1228-7297.039l12.1,12.071-12.1,12.646" transform="translate(2333 11700)" fill="none" stroke="#6b82a1" stroke-linecap="round" stroke-width="2"/>
          <path id="Trazado_608660" data-name="Trazado 608660" d="M-1228-7297.039l12.1,12.071-12.1,12.646" transform="translate(-103 -2696.322) rotate(180)" fill="none" stroke="#6b82a1" stroke-linecap="round" stroke-width="2"/>
          <path id="Trazado_608661" data-name="Trazado 608661" d="M-1228-7297.039l12.1,12.071-12.1,12.646" transform="translate(-418 -2696.322) rotate(180)" fill="none" stroke="#6b82a1" stroke-linecap="round" stroke-width="2"/>
          <path id="Trazado_608662" data-name="Trazado 608662" d="M-1228-7297.039l12.1,12.071-12.1,12.646" transform="translate(-733 -2696.322) rotate(180)" fill="none" stroke="#6b82a1" stroke-linecap="round" stroke-width="2"/>
          <path id="Trazado_608656" data-name="Trazado 608656" d="M-1228-7297.039l12.1,12.071-12.1,12.646" transform="translate(2018 11700)" fill="none" stroke="#646d78" stroke-linecap="round" stroke-width="2"/>
          <path id="Trazado_608658" data-name="Trazado 608658" d="M-1228-7297.038l15.022,14.1L-1228-7268.174" transform="translate(-6009.657 5716.082) rotate(90)" fill="none" stroke="#646d78" stroke-linecap="round" stroke-width="2"/>
          <g id="Grupo_1016903" data-name="Grupo 1016903">
            <path id="Unión_22" data-name="Unión 22" d="M1703,11840v-140h295v55.979l12.228,12.028L1998,11780.386V11840Z" transform="translate(3123 16356.001) rotate(180)" fill="#e3ecf7"/>
            <path id="Trazado_608920" data-name="Trazado 608920" d="M10.628,16V3.914H14.2a5.6,5.6,0,0,1,2.843.714,4.868,4.868,0,0,1,1.922,2.025,6.429,6.429,0,0,1,.681,3v.606a6.4,6.4,0,0,1-.685,3.021,4.809,4.809,0,0,1-1.951,2.009,5.858,5.858,0,0,1-2.9.706Zm2.1-10.393v8.716H14.1a3.154,3.154,0,0,0,2.536-1.033,4.5,4.5,0,0,0,.9-2.968V9.65a4.619,4.619,0,0,0-.855-3A3.031,3.031,0,0,0,14.2,5.607ZM23.685,16H21.668V7.019h2.017ZM21.543,4.686a1.071,1.071,0,0,1,.295-.772,1.113,1.113,0,0,1,.843-.307,1.127,1.127,0,0,1,.847.307,1.062,1.062,0,0,1,.3.772,1.038,1.038,0,0,1-.3.76,1.136,1.136,0,0,1-.847.3,1.122,1.122,0,0,1-.843-.3A1.046,1.046,0,0,1,21.543,4.686Zm9.372,8.874a.914.914,0,0,0-.444-.822A4.723,4.723,0,0,0,29,12.24a7.574,7.574,0,0,1-1.718-.548,2.293,2.293,0,0,1-1.511-2.117,2.391,2.391,0,0,1,.979-1.942,3.872,3.872,0,0,1,2.49-.78,4.029,4.029,0,0,1,2.6.8,2.529,2.529,0,0,1,.992,2.067H30.815a1.243,1.243,0,0,0-.432-.967,1.654,1.654,0,0,0-1.146-.386,1.787,1.787,0,0,0-1.083.307.968.968,0,0,0-.419.822.818.818,0,0,0,.39.722,5.365,5.365,0,0,0,1.577.519,7.466,7.466,0,0,1,1.864.623,2.639,2.639,0,0,1,1,.867,2.212,2.212,0,0,1,.328,1.229,2.34,2.34,0,0,1-1,1.963,4.283,4.283,0,0,1-2.631.751,4.644,4.644,0,0,1-1.967-.4,3.238,3.238,0,0,1-1.345-1.1,2.594,2.594,0,0,1-.481-1.5h1.959a1.421,1.421,0,0,0,.54,1.1,2.1,2.1,0,0,0,1.32.386,2.04,2.04,0,0,0,1.212-.3A.938.938,0,0,0,30.915,13.56Zm7.695,2.606A4.173,4.173,0,0,1,35.5,14.958a4.381,4.381,0,0,1-1.191-3.217v-.249a5.389,5.389,0,0,1,.519-2.4,3.949,3.949,0,0,1,1.457-1.648,3.851,3.851,0,0,1,2.092-.589,3.525,3.525,0,0,1,2.835,1.17,4.949,4.949,0,0,1,1,3.312v.813H36.344a2.7,2.7,0,0,0,.743,1.76,2.23,2.23,0,0,0,1.639.647,2.731,2.731,0,0,0,2.258-1.121l1.087,1.038a3.631,3.631,0,0,1-1.44,1.249A4.509,4.509,0,0,1,38.61,16.166Zm-.241-7.695a1.7,1.7,0,0,0-1.341.581,3.012,3.012,0,0,0-.652,1.619H40.22v-.149a2.452,2.452,0,0,0-.54-1.531A1.686,1.686,0,0,0,38.369,8.471Zm7.28-1.453.058,1.038a3.229,3.229,0,0,1,2.615-1.2q2.806,0,2.855,3.212V16H49.16V10.181a1.85,1.85,0,0,0-.369-1.266A1.554,1.554,0,0,0,47.583,8.5a1.944,1.944,0,0,0-1.818,1.1V16H43.748V7.019Zm4.9-3.586a2.231,2.231,0,0,1-.527,1.519,1.681,1.681,0,0,1-1.324.606,1.972,1.972,0,0,1-.56-.071,3.564,3.564,0,0,1-.672-.32,3.323,3.323,0,0,0-.614-.3,1.465,1.465,0,0,0-.394-.05.7.7,0,0,0-.535.237.872.872,0,0,0-.22.618l-1.237-.066a2.3,2.3,0,0,1,.527-1.536A1.654,1.654,0,0,1,46.3,3.449a2.449,2.449,0,0,1,1.141.374,2.413,2.413,0,0,0,1.1.374.717.717,0,0,0,.54-.237.874.874,0,0,0,.224-.627Zm2.308,7.994a5.3,5.3,0,0,1,.523-2.378,3.819,3.819,0,0,1,1.469-1.627,4.14,4.14,0,0,1,2.175-.569,3.923,3.923,0,0,1,2.951,1.17,4.6,4.6,0,0,1,1.224,3.1l.008.473a5.343,5.343,0,0,1-.51,2.374,3.773,3.773,0,0,1-1.461,1.619,4.17,4.17,0,0,1-2.2.573A3.9,3.9,0,0,1,54,14.9a4.848,4.848,0,0,1-1.141-3.374Zm2.017.174a3.619,3.619,0,0,0,.573,2.171,1.862,1.862,0,0,0,1.594.784,1.842,1.842,0,0,0,1.59-.8,4,4,0,0,0,.569-2.333,3.572,3.572,0,0,0-.585-2.158,1.973,1.973,0,0,0-3.158-.012A3.922,3.922,0,0,0,54.871,11.6Zm11.9-.158a5.34,5.34,0,0,1,.963-3.333,3.085,3.085,0,0,1,2.582-1.258,2.931,2.931,0,0,1,2.308,1V3.25h2.017V16H72.809l-.1-.93a2.973,2.973,0,0,1-2.416,1.1,3.068,3.068,0,0,1-2.552-1.27A5.535,5.535,0,0,1,66.766,11.443Zm2.017.174a3.739,3.739,0,0,0,.527,2.137,1.71,1.71,0,0,0,1.5.768,1.9,1.9,0,0,0,1.81-1.1V9.583A1.876,1.876,0,0,0,70.825,8.5a1.723,1.723,0,0,0-1.511.776A4.163,4.163,0,0,0,68.783,11.617Zm11.912,4.549a4.173,4.173,0,0,1-3.109-1.208A4.381,4.381,0,0,1,76.4,11.742v-.249a5.389,5.389,0,0,1,.519-2.4,3.949,3.949,0,0,1,1.457-1.648,3.851,3.851,0,0,1,2.092-.589A3.525,3.525,0,0,1,83.3,8.023a4.949,4.949,0,0,1,1,3.312v.813H78.429a2.7,2.7,0,0,0,.743,1.76,2.23,2.23,0,0,0,1.639.647,2.731,2.731,0,0,0,2.258-1.121l1.087,1.038a3.631,3.631,0,0,1-1.44,1.249A4.509,4.509,0,0,1,80.695,16.166Zm-.241-7.695a1.7,1.7,0,0,0-1.341.581,3.012,3.012,0,0,0-.652,1.619h3.843v-.149a2.452,2.452,0,0,0-.54-1.531A1.686,1.686,0,0,0,80.454,8.471ZM92.241,16H90.224V3.25h2.017ZM99.8,16a3.113,3.113,0,0,1-.232-.838,3.393,3.393,0,0,1-4.565.232,2.47,2.47,0,0,1-.855-1.909,2.55,2.55,0,0,1,1.067-2.2,5.169,5.169,0,0,1,3.051-.768H99.5V9.924a1.573,1.573,0,0,0-.39-1.116,1.547,1.547,0,0,0-1.187-.419,1.777,1.777,0,0,0-1.129.344,1.066,1.066,0,0,0-.44.876H94.341a2.239,2.239,0,0,1,.49-1.382,3.263,3.263,0,0,1,1.332-1.009,4.68,4.68,0,0,1,1.88-.365,3.769,3.769,0,0,1,2.515.793,2.827,2.827,0,0,1,.963,2.229v4.051a4.591,4.591,0,0,0,.34,1.934V16Zm-2.216-1.453a2.294,2.294,0,0,0,1.125-.291,1.941,1.941,0,0,0,.793-.78V11.783H98.417a2.973,2.973,0,0,0-1.685.39,1.264,1.264,0,0,0-.564,1.1,1.179,1.179,0,0,0,.386.926A1.5,1.5,0,0,0,97.587,14.547ZM21.768,35.6a5.348,5.348,0,0,1-.946,3.324,3.031,3.031,0,0,1-2.54,1.241,3.051,3.051,0,0,1-2.366-.971v4.258H13.9V31.019h1.859l.083.913a2.963,2.963,0,0,1,2.416-1.079,3.062,3.062,0,0,1,2.577,1.224,5.49,5.49,0,0,1,.934,3.4Zm-2.009-.174a3.746,3.746,0,0,0-.535-2.133,1.741,1.741,0,0,0-1.531-.789,1.856,1.856,0,0,0-1.776,1.021V37.51a1.873,1.873,0,0,0,1.793,1.046,1.739,1.739,0,0,0,1.507-.776A4.124,4.124,0,0,0,19.759,35.426ZM28.84,40a3.113,3.113,0,0,1-.232-.838,3.393,3.393,0,0,1-4.565.232,2.47,2.47,0,0,1-.855-1.909,2.55,2.55,0,0,1,1.067-2.2,5.169,5.169,0,0,1,3.051-.768h1.237v-.589a1.573,1.573,0,0,0-.39-1.116,1.547,1.547,0,0,0-1.187-.419,1.777,1.777,0,0,0-1.129.344,1.066,1.066,0,0,0-.44.876H23.378a2.239,2.239,0,0,1,.49-1.382A3.263,3.263,0,0,1,25.2,31.218a4.68,4.68,0,0,1,1.88-.365,3.769,3.769,0,0,1,2.515.793,2.827,2.827,0,0,1,.963,2.229v4.051a4.591,4.591,0,0,0,.34,1.934V40Zm-2.216-1.453a2.294,2.294,0,0,0,1.125-.291,1.941,1.941,0,0,0,.793-.78V35.783H27.454a2.973,2.973,0,0,0-1.685.39,1.264,1.264,0,0,0-.564,1.1,1.179,1.179,0,0,0,.386.926A1.5,1.5,0,0,0,26.624,38.547Zm1.121-11.3h2.3l-2.3,2.515-1.619,0Zm4.574,8.193A5.253,5.253,0,0,1,33.3,32.1a3.157,3.157,0,0,1,2.611-1.249,2.958,2.958,0,0,1,2.416,1.071l.091-.9h1.818v8.708a3.619,3.619,0,0,1-1.1,2.789,4.189,4.189,0,0,1-2.968,1.021,4.783,4.783,0,0,1-1.93-.411,3.429,3.429,0,0,1-1.432-1.075l.955-1.212a2.883,2.883,0,0,0,2.291,1.1,2.228,2.228,0,0,0,1.585-.544,2.084,2.084,0,0,0,.581-1.6v-.606a2.97,2.97,0,0,1-2.324.971,3.15,3.15,0,0,1-2.577-1.253A5.423,5.423,0,0,1,32.318,35.443Zm2.009.174a3.616,3.616,0,0,0,.552,2.129,1.775,1.775,0,0,0,1.531.776,1.941,1.941,0,0,0,1.81-1.046V33.525A1.913,1.913,0,0,0,36.427,32.5a1.782,1.782,0,0,0-1.548.789A4.049,4.049,0,0,0,34.327,35.617ZM44.454,40H42.437V31.019h2.017ZM42.312,28.686a1.07,1.07,0,0,1,.295-.772,1.113,1.113,0,0,1,.843-.307,1.127,1.127,0,0,1,.847.307,1.062,1.062,0,0,1,.3.772,1.038,1.038,0,0,1-.3.76,1.136,1.136,0,0,1-.847.3,1.122,1.122,0,0,1-.843-.3A1.046,1.046,0,0,1,42.312,28.686Zm6.209,2.333.058,1.038a3.229,3.229,0,0,1,2.615-1.2q2.806,0,2.855,3.212V40H52.032V34.181a1.85,1.85,0,0,0-.369-1.266,1.554,1.554,0,0,0-1.208-.411,1.944,1.944,0,0,0-1.818,1.1V40H46.62V31.019ZM61.47,40a3.113,3.113,0,0,1-.232-.838,3.393,3.393,0,0,1-4.565.232,2.47,2.47,0,0,1-.855-1.909,2.55,2.55,0,0,1,1.067-2.2,5.169,5.169,0,0,1,3.051-.768h1.237v-.589a1.573,1.573,0,0,0-.39-1.116,1.547,1.547,0,0,0-1.187-.419,1.777,1.777,0,0,0-1.129.344,1.066,1.066,0,0,0-.44.876H56.008a2.239,2.239,0,0,1,.49-1.382,3.263,3.263,0,0,1,1.332-1.009,4.68,4.68,0,0,1,1.88-.365,3.769,3.769,0,0,1,2.515.793,2.827,2.827,0,0,1,.963,2.229v4.051a4.591,4.591,0,0,0,.34,1.934V40Zm-2.216-1.453a2.294,2.294,0,0,0,1.125-.291,1.941,1.941,0,0,0,.793-.78V35.783H60.084a2.973,2.973,0,0,0-1.685.39,1.264,1.264,0,0,0-.564,1.1,1.179,1.179,0,0,0,.386.926A1.5,1.5,0,0,0,59.254,38.547ZM76.744,37.2l2.465-6.184h1.976L77.25,40H75.631l-.789-6.143L71.938,40H70.311l-.822-8.981h1.859l.34,6.093,2.839-6.093h1.486Zm8.292,2.963a3.763,3.763,0,0,1-2.03-.589,3.353,3.353,0,0,1-1.27-1.544,4.59,4.59,0,0,1-.311-2.183l.025-.34a6.011,6.011,0,0,1,.8-2.461,4.571,4.571,0,0,1,1.623-1.656,3.945,3.945,0,0,1,2.108-.54,2.942,2.942,0,0,1,2.528,1.255,4.608,4.608,0,0,1,.635,3.184l-.116.865H83.376a2.44,2.44,0,0,0,.432,1.721,1.71,1.71,0,0,0,1.395.67,3.025,3.025,0,0,0,2.341-1.1l1,1.046a3.786,3.786,0,0,1-1.486,1.249A4.426,4.426,0,0,1,85.036,40.166Zm.838-7.7q-1.561-.05-2.341,2.208l3.727.008.033-.174a2.6,2.6,0,0,0,.008-.747,1.527,1.527,0,0,0-.465-.93A1.471,1.471,0,0,0,85.875,32.463Zm12.451,3.088a7.308,7.308,0,0,1-.735,2.478,4.065,4.065,0,0,1-1.411,1.639,3.329,3.329,0,0,1-1.9.506,2.64,2.64,0,0,1-2.266-1.154L91.7,40H89.9l2.208-12.75h1.976l-.9,4.64a3.051,3.051,0,0,1,2.382-1.038,2.55,2.55,0,0,1,2.038.955,4.121,4.121,0,0,1,.776,2.523A11.573,11.573,0,0,1,98.326,35.551Zm-1.893-1.112a2.357,2.357,0,0,0-.374-1.415A1.3,1.3,0,0,0,94.98,32.5a2.314,2.314,0,0,0-2.009,1.146l-.647,3.719a1.567,1.567,0,0,0,1.569,1.17,1.956,1.956,0,0,0,1.639-.764,4.33,4.33,0,0,0,.826-2.225Q96.425,34.837,96.433,34.438Z" transform="translate(1217 4564)" fill="#12263f"/>
          </g>
          <path id="Trazado_608921" data-name="Trazado 608921" d="M16.014,11.518V16h-2.1V3.914h4.624a4.675,4.675,0,0,1,3.217,1.055,3.549,3.549,0,0,1,1.191,2.792,3.431,3.431,0,0,1-1.166,2.767,4.9,4.9,0,0,1-3.266.989Zm0-1.693h2.523a2.485,2.485,0,0,0,1.71-.527,1.937,1.937,0,0,0,.589-1.523,2.09,2.09,0,0,0-.6-1.565,2.3,2.3,0,0,0-1.644-.6H16.014Zm13.273-.963a4.991,4.991,0,0,0-.822-.066A1.85,1.85,0,0,0,26.6,9.857V16H24.58V7.019h1.926l.05,1a2.273,2.273,0,0,1,2.025-1.17,1.888,1.888,0,0,1,.714.116Zm.6,2.565a5.3,5.3,0,0,1,.523-2.378,3.819,3.819,0,0,1,1.469-1.627,4.14,4.14,0,0,1,2.175-.569A3.923,3.923,0,0,1,37,8.023a4.6,4.6,0,0,1,1.224,3.1l.008.473a5.343,5.343,0,0,1-.51,2.374,3.773,3.773,0,0,1-1.461,1.619,4.17,4.17,0,0,1-2.2.573A3.9,3.9,0,0,1,31.026,14.9a4.848,4.848,0,0,1-1.141-3.374ZM31.9,11.6a3.619,3.619,0,0,0,.573,2.171,1.862,1.862,0,0,0,1.594.784,1.842,1.842,0,0,0,1.59-.8,4,4,0,0,0,.569-2.333,3.572,3.572,0,0,0-.585-2.158,1.973,1.973,0,0,0-3.158-.012A3.922,3.922,0,0,0,31.9,11.6Zm7.662-.158a5.34,5.34,0,0,1,.963-3.333,3.085,3.085,0,0,1,2.582-1.258,2.931,2.931,0,0,1,2.308,1V3.25h2.017V16H45.606l-.1-.93a2.973,2.973,0,0,1-2.416,1.1,3.068,3.068,0,0,1-2.552-1.27A5.535,5.535,0,0,1,39.563,11.443Zm2.017.174a3.739,3.739,0,0,0,.527,2.137,1.71,1.71,0,0,0,1.5.768,1.9,1.9,0,0,0,1.81-1.1V9.583A1.876,1.876,0,0,0,43.622,8.5a1.723,1.723,0,0,0-1.511.776A4.163,4.163,0,0,0,41.58,11.617Zm13.4,3.5a3.128,3.128,0,0,1-2.523,1.046,2.788,2.788,0,0,1-2.212-.855,3.637,3.637,0,0,1-.751-2.474V7.019h2.017v5.794q0,1.71,1.419,1.71a1.993,1.993,0,0,0,1.984-1.054V7.019h2.017V16h-1.9Zm7.695-.564a1.824,1.824,0,0,0,1.253-.44,1.5,1.5,0,0,0,.531-1.087h1.9a2.963,2.963,0,0,1-.523,1.565,3.43,3.43,0,0,1-1.328,1.15,3.958,3.958,0,0,1-1.81.423,3.829,3.829,0,0,1-2.988-1.22,4.84,4.84,0,0,1-1.1-3.37v-.208a4.759,4.759,0,0,1,1.1-3.283,3.8,3.8,0,0,1,2.988-1.233,3.69,3.69,0,0,1,2.611.934,3.345,3.345,0,0,1,1.058,2.453h-1.9a1.847,1.847,0,0,0-.527-1.27,1.7,1.7,0,0,0-1.258-.5,1.775,1.775,0,0,0-1.511.71,3.621,3.621,0,0,0-.54,2.154v.324a3.682,3.682,0,0,0,.527,2.179A1.773,1.773,0,0,0,62.673,14.556Zm7.736-9.72V7.019h1.585V8.513H70.409v5.014a1.1,1.1,0,0,0,.2.743.943.943,0,0,0,.726.228,3.107,3.107,0,0,0,.706-.083v1.561a4.968,4.968,0,0,1-1.328.191q-2.324,0-2.324-2.565V8.513H66.914V7.019h1.478V4.835Zm2.5,6.591a5.3,5.3,0,0,1,.523-2.378A3.819,3.819,0,0,1,74.9,7.421a4.14,4.14,0,0,1,2.175-.569,3.923,3.923,0,0,1,2.951,1.17,4.6,4.6,0,0,1,1.224,3.1l.008.473a5.343,5.343,0,0,1-.51,2.374,3.773,3.773,0,0,1-1.461,1.619,4.17,4.17,0,0,1-2.2.573A3.9,3.9,0,0,1,74.049,14.9a4.848,4.848,0,0,1-1.141-3.374Zm2.017.174a3.619,3.619,0,0,0,.573,2.171,1.862,1.862,0,0,0,1.594.784,1.842,1.842,0,0,0,1.59-.8,4,4,0,0,0,.569-2.333,3.572,3.572,0,0,0-.585-2.158,1.973,1.973,0,0,0-3.158-.012A3.922,3.922,0,0,0,74.925,11.6ZM88,13.56a.914.914,0,0,0-.444-.822,4.723,4.723,0,0,0-1.473-.5,7.574,7.574,0,0,1-1.718-.548,2.293,2.293,0,0,1-1.511-2.117,2.391,2.391,0,0,1,.979-1.942,3.872,3.872,0,0,1,2.49-.78,4.029,4.029,0,0,1,2.6.8,2.529,2.529,0,0,1,.992,2.067H87.9a1.243,1.243,0,0,0-.432-.967,1.654,1.654,0,0,0-1.146-.386,1.787,1.787,0,0,0-1.083.307.968.968,0,0,0-.419.822.818.818,0,0,0,.39.722,5.365,5.365,0,0,0,1.577.519,7.466,7.466,0,0,1,1.864.623,2.639,2.639,0,0,1,1,.867,2.212,2.212,0,0,1,.328,1.229,2.34,2.34,0,0,1-1,1.963,4.283,4.283,0,0,1-2.631.751,4.644,4.644,0,0,1-1.967-.4,3.238,3.238,0,0,1-1.345-1.1,2.594,2.594,0,0,1-.481-1.5h1.959a1.421,1.421,0,0,0,.54,1.1,2.1,2.1,0,0,0,1.32.386,2.04,2.04,0,0,0,1.212-.3A.938.938,0,0,0,88,13.56Zm7.6-2.133a5.3,5.3,0,0,1,.523-2.378,3.819,3.819,0,0,1,1.469-1.627,4.14,4.14,0,0,1,2.175-.569,3.923,3.923,0,0,1,2.951,1.17,4.6,4.6,0,0,1,1.224,3.1l.008.473a5.343,5.343,0,0,1-.51,2.374,3.773,3.773,0,0,1-1.461,1.619,4.17,4.17,0,0,1-2.2.573A3.9,3.9,0,0,1,96.735,14.9a4.848,4.848,0,0,1-1.141-3.374Zm2.017.174a3.619,3.619,0,0,0,.573,2.171,1.862,1.862,0,0,0,1.594.784,1.842,1.842,0,0,0,1.59-.8,4,4,0,0,0,.569-2.333,3.572,3.572,0,0,0-.585-2.158,1.973,1.973,0,0,0-3.158-.012A3.922,3.922,0,0,0,97.611,11.6Zm17.307,1.959a.914.914,0,0,0-.444-.822,4.723,4.723,0,0,0-1.473-.5,7.574,7.574,0,0,1-1.718-.548,2.293,2.293,0,0,1-1.511-2.117,2.391,2.391,0,0,1,.979-1.942,3.872,3.872,0,0,1,2.49-.78,4.029,4.029,0,0,1,2.6.8,2.529,2.529,0,0,1,.992,2.067h-2.017a1.243,1.243,0,0,0-.432-.967,1.654,1.654,0,0,0-1.146-.386,1.787,1.787,0,0,0-1.083.307.968.968,0,0,0-.419.822.818.818,0,0,0,.39.722,5.365,5.365,0,0,0,1.577.519,7.466,7.466,0,0,1,1.864.623,2.639,2.639,0,0,1,1,.867,2.212,2.212,0,0,1,.328,1.229,2.34,2.34,0,0,1-1,1.963,4.283,4.283,0,0,1-2.631.751,4.644,4.644,0,0,1-1.967-.4,3.238,3.238,0,0,1-1.345-1.1,2.594,2.594,0,0,1-.481-1.5h1.959a1.421,1.421,0,0,0,.54,1.1,2.1,2.1,0,0,0,1.32.386,2.04,2.04,0,0,0,1.212-.3A.938.938,0,0,0,114.918,13.56Zm7.695,2.606a4.173,4.173,0,0,1-3.109-1.208,4.381,4.381,0,0,1-1.191-3.217v-.249a5.389,5.389,0,0,1,.519-2.4,3.949,3.949,0,0,1,1.457-1.648,3.851,3.851,0,0,1,2.092-.589,3.525,3.525,0,0,1,2.835,1.17,4.949,4.949,0,0,1,1,3.312v.813h-5.869a2.7,2.7,0,0,0,.743,1.76,2.23,2.23,0,0,0,1.639.647,2.731,2.731,0,0,0,2.258-1.121l1.087,1.038a3.631,3.631,0,0,1-1.44,1.249A4.509,4.509,0,0,1,122.613,16.166Zm-.241-7.695a1.7,1.7,0,0,0-1.341.581,3.012,3.012,0,0,0-.652,1.619h3.843v-.149a2.452,2.452,0,0,0-.54-1.531A1.686,1.686,0,0,0,122.372,8.471Zm10.11.39a4.991,4.991,0,0,0-.822-.066,1.85,1.85,0,0,0-1.868,1.063V16h-2.017V7.019H129.7l.05,1a2.273,2.273,0,0,1,2.025-1.17,1.888,1.888,0,0,1,.714.116Zm4.59,4.582,1.9-6.425h2.083L137.944,16h-1.751l-3.138-8.981h2.092ZM144.46,16h-2.017V7.019h2.017ZM142.319,4.686a1.07,1.07,0,0,1,.295-.772,1.113,1.113,0,0,1,.843-.307,1.127,1.127,0,0,1,.847.307,1.062,1.062,0,0,1,.3.772,1.038,1.038,0,0,1-.3.76,1.136,1.136,0,0,1-.847.3,1.122,1.122,0,0,1-.843-.3A1.046,1.046,0,0,1,142.319,4.686Zm8.027,9.87a1.824,1.824,0,0,0,1.253-.44,1.5,1.5,0,0,0,.531-1.087h1.9a2.963,2.963,0,0,1-.523,1.565,3.43,3.43,0,0,1-1.328,1.15,3.958,3.958,0,0,1-1.81.423,3.829,3.829,0,0,1-2.988-1.22,4.84,4.84,0,0,1-1.1-3.37v-.208a4.759,4.759,0,0,1,1.1-3.283,3.8,3.8,0,0,1,2.988-1.233,3.69,3.69,0,0,1,2.611.934,3.345,3.345,0,0,1,1.058,2.453h-1.9a1.847,1.847,0,0,0-.527-1.27,1.7,1.7,0,0,0-1.258-.5,1.775,1.775,0,0,0-1.511.71,3.621,3.621,0,0,0-.54,2.154v.324a3.682,3.682,0,0,0,.527,2.179A1.773,1.773,0,0,0,150.345,14.556ZM157.7,16h-2.017V7.019H157.7ZM155.558,4.686a1.07,1.07,0,0,1,.295-.772,1.113,1.113,0,0,1,.843-.307,1.127,1.127,0,0,1,.847.307,1.062,1.062,0,0,1,.3.772,1.038,1.038,0,0,1-.3.76,1.136,1.136,0,0,1-.847.3,1.122,1.122,0,0,1-.843-.3A1.046,1.046,0,0,1,155.558,4.686Zm3.959,6.74a5.3,5.3,0,0,1,.523-2.378,3.819,3.819,0,0,1,1.469-1.627,4.14,4.14,0,0,1,2.175-.569,3.923,3.923,0,0,1,2.951,1.17,4.6,4.6,0,0,1,1.224,3.1l.008.473a5.343,5.343,0,0,1-.51,2.374,3.773,3.773,0,0,1-1.461,1.619,4.17,4.17,0,0,1-2.2.573,3.9,3.9,0,0,1-3.042-1.266,4.848,4.848,0,0,1-1.141-3.374Zm2.017.174a3.619,3.619,0,0,0,.573,2.171,1.862,1.862,0,0,0,1.594.784,1.842,1.842,0,0,0,1.59-.8,4,4,0,0,0,.569-2.333,3.572,3.572,0,0,0-.585-2.158,1.973,1.973,0,0,0-3.158-.012A3.922,3.922,0,0,0,161.535,11.6Zm13.074,1.959a.914.914,0,0,0-.444-.822,4.723,4.723,0,0,0-1.473-.5,7.574,7.574,0,0,1-1.718-.548,2.293,2.293,0,0,1-1.511-2.117,2.391,2.391,0,0,1,.979-1.942,3.872,3.872,0,0,1,2.49-.78,4.029,4.029,0,0,1,2.6.8,2.529,2.529,0,0,1,.992,2.067h-2.017a1.243,1.243,0,0,0-.432-.967,1.654,1.654,0,0,0-1.146-.386,1.787,1.787,0,0,0-1.083.307.968.968,0,0,0-.419.822.818.818,0,0,0,.39.722,5.365,5.365,0,0,0,1.577.519,7.466,7.466,0,0,1,1.864.623,2.639,2.639,0,0,1,1,.867,2.212,2.212,0,0,1,.328,1.229,2.34,2.34,0,0,1-1,1.963,4.283,4.283,0,0,1-2.631.751,4.644,4.644,0,0,1-1.967-.4,3.238,3.238,0,0,1-1.345-1.1,2.594,2.594,0,0,1-.481-1.5h1.959a1.421,1.421,0,0,0,.54,1.1,2.1,2.1,0,0,0,1.32.386,2.04,2.04,0,0,0,1.212-.3A.938.938,0,0,0,174.609,13.56ZM58.7,35.426a5.3,5.3,0,0,1,.523-2.378,3.819,3.819,0,0,1,1.469-1.627,4.14,4.14,0,0,1,2.175-.569,3.923,3.923,0,0,1,2.951,1.17,4.6,4.6,0,0,1,1.224,3.1l.008.473a5.343,5.343,0,0,1-.51,2.374,3.773,3.773,0,0,1-1.461,1.619,4.17,4.17,0,0,1-2.2.573A3.9,3.9,0,0,1,59.838,38.9,4.848,4.848,0,0,1,58.7,35.526Zm2.017.174a3.619,3.619,0,0,0,.573,2.171,1.862,1.862,0,0,0,1.594.784,1.842,1.842,0,0,0,1.59-.8,4,4,0,0,0,.569-2.333,3.572,3.572,0,0,0-.585-2.158,1.973,1.973,0,0,0-3.158-.012A3.922,3.922,0,0,0,60.714,35.6ZM69.463,40V32.513h-1.37V31.019h1.37V30.2a3.085,3.085,0,0,1,.83-2.308,3.18,3.18,0,0,1,2.324-.813,4.662,4.662,0,0,1,1.129.149L73.7,28.8a3.973,3.973,0,0,0-.772-.066,1.3,1.3,0,0,0-1.444,1.486v.8h1.826v1.494H71.48V40Zm9.073.166a4.173,4.173,0,0,1-3.109-1.208,4.381,4.381,0,0,1-1.191-3.217v-.249a5.389,5.389,0,0,1,.519-2.4,3.949,3.949,0,0,1,1.457-1.648,3.851,3.851,0,0,1,2.092-.589,3.525,3.525,0,0,1,2.835,1.17,4.949,4.949,0,0,1,1,3.312v.813H76.269a2.7,2.7,0,0,0,.743,1.76,2.23,2.23,0,0,0,1.639.647,2.731,2.731,0,0,0,2.258-1.121L82,38.473a3.631,3.631,0,0,1-1.44,1.249A4.509,4.509,0,0,1,78.535,40.166Zm-.241-7.695a1.7,1.7,0,0,0-1.341.581,3.012,3.012,0,0,0-.652,1.619h3.843v-.149a2.452,2.452,0,0,0-.54-1.531A1.686,1.686,0,0,0,78.295,32.471Zm10.11.39a4.992,4.992,0,0,0-.822-.066,1.85,1.85,0,0,0-1.868,1.063V40H83.7V31.019h1.926l.05,1a2.273,2.273,0,0,1,2.025-1.17,1.888,1.888,0,0,1,.714.116Zm4.217-4.026v2.183h1.585v1.494H92.622v5.014a1.1,1.1,0,0,0,.2.743.943.943,0,0,0,.726.228,3.107,3.107,0,0,0,.706-.083v1.561a4.968,4.968,0,0,1-1.328.191q-2.324,0-2.324-2.565V32.513H89.127V31.019H90.6V28.835ZM101.114,40a3.113,3.113,0,0,1-.232-.838,3.393,3.393,0,0,1-4.565.232,2.47,2.47,0,0,1-.855-1.909,2.55,2.55,0,0,1,1.067-2.2,5.169,5.169,0,0,1,3.051-.768h1.237v-.589a1.573,1.573,0,0,0-.39-1.116,1.547,1.547,0,0,0-1.187-.419,1.777,1.777,0,0,0-1.129.344,1.066,1.066,0,0,0-.44.876H95.652a2.239,2.239,0,0,1,.49-1.382,3.263,3.263,0,0,1,1.332-1.009,4.68,4.68,0,0,1,1.88-.365,3.769,3.769,0,0,1,2.515.793,2.827,2.827,0,0,1,.963,2.229v4.051a4.591,4.591,0,0,0,.34,1.934V40ZM98.9,38.547a2.294,2.294,0,0,0,1.125-.291,1.941,1.941,0,0,0,.793-.78V35.783H99.727a2.973,2.973,0,0,0-1.685.39,1.264,1.264,0,0,0-.564,1.1,1.179,1.179,0,0,0,.386.926A1.5,1.5,0,0,0,98.9,38.547Zm5.669-3.1a5.34,5.34,0,0,1,.963-3.333,3.085,3.085,0,0,1,2.582-1.258,2.931,2.931,0,0,1,2.308,1v-4.6h2.017V40H110.61l-.1-.93a2.973,2.973,0,0,1-2.416,1.1,3.068,3.068,0,0,1-2.552-1.27A5.535,5.535,0,0,1,104.567,35.443Zm2.017.174a3.739,3.739,0,0,0,.527,2.137,1.71,1.71,0,0,0,1.5.768,1.9,1.9,0,0,0,1.81-1.1V33.583a1.876,1.876,0,0,0-1.793-1.079,1.723,1.723,0,0,0-1.511.776A4.163,4.163,0,0,0,106.584,35.617Zm7.579-.191a5.3,5.3,0,0,1,.523-2.378,3.819,3.819,0,0,1,1.469-1.627,4.14,4.14,0,0,1,2.175-.569,3.923,3.923,0,0,1,2.951,1.17,4.6,4.6,0,0,1,1.224,3.1l.008.473a5.343,5.343,0,0,1-.51,2.374,3.773,3.773,0,0,1-1.461,1.619,4.17,4.17,0,0,1-2.2.573A3.9,3.9,0,0,1,115.3,38.9a4.848,4.848,0,0,1-1.141-3.374Zm2.017.174a3.619,3.619,0,0,0,.573,2.171,1.862,1.862,0,0,0,1.594.784,1.842,1.842,0,0,0,1.59-.8,4,4,0,0,0,.569-2.333,3.572,3.572,0,0,0-.585-2.158,1.973,1.973,0,0,0-3.158-.012A3.922,3.922,0,0,0,116.179,35.6Zm13.074,1.959a.914.914,0,0,0-.444-.822,4.723,4.723,0,0,0-1.473-.5,7.574,7.574,0,0,1-1.718-.548,2.293,2.293,0,0,1-1.511-2.117,2.391,2.391,0,0,1,.979-1.942,3.872,3.872,0,0,1,2.49-.78,4.029,4.029,0,0,1,2.6.8,2.529,2.529,0,0,1,.992,2.067h-2.017a1.243,1.243,0,0,0-.432-.967,1.654,1.654,0,0,0-1.146-.386,1.787,1.787,0,0,0-1.083.307.968.968,0,0,0-.419.822.818.818,0,0,0,.39.722,5.365,5.365,0,0,0,1.577.519,7.466,7.466,0,0,1,1.864.623,2.639,2.639,0,0,1,1,.867,2.212,2.212,0,0,1,.328,1.229,2.34,2.34,0,0,1-1,1.963,4.283,4.283,0,0,1-2.631.751,4.644,4.644,0,0,1-1.967-.4,3.238,3.238,0,0,1-1.345-1.1,2.594,2.594,0,0,1-.481-1.5h1.959a1.421,1.421,0,0,0,.54,1.1,2.1,2.1,0,0,0,1.32.386,2.04,2.04,0,0,0,1.212-.3A.938.938,0,0,0,129.253,37.56Z" transform="translate(869 4564)" fill="#12263f"/>
          <path id="Trazado_608922" data-name="Trazado 608922" d="M15.168,12.065a4.364,4.364,0,0,1-1.428,3.017,4.867,4.867,0,0,1-3.312,1.083,4.713,4.713,0,0,1-2.544-.685,4.5,4.5,0,0,1-1.7-1.947,7.024,7.024,0,0,1-.623-2.93V9.476A7.075,7.075,0,0,1,6.17,6.462,4.567,4.567,0,0,1,7.909,4.454a4.851,4.851,0,0,1,2.619-.706,4.672,4.672,0,0,1,3.221,1.083A4.527,4.527,0,0,1,15.168,7.9H13.076a2.985,2.985,0,0,0-.76-1.88,2.51,2.51,0,0,0-1.789-.577,2.452,2.452,0,0,0-2.1,1A5,5,0,0,0,7.673,9.38v1.072a5.308,5.308,0,0,0,.7,2.991,2.328,2.328,0,0,0,2.054,1.03,2.715,2.715,0,0,0,1.859-.556,2.9,2.9,0,0,0,.789-1.851Zm6.383-3.2a4.991,4.991,0,0,0-.822-.066,1.85,1.85,0,0,0-1.868,1.063V16H16.845V7.019h1.926l.05,1a2.273,2.273,0,0,1,2.025-1.17,1.888,1.888,0,0,1,.714.116Zm5.072,7.3a4.173,4.173,0,0,1-3.109-1.208,4.381,4.381,0,0,1-1.191-3.217v-.249a5.389,5.389,0,0,1,.519-2.4A3.949,3.949,0,0,1,24.3,7.442a3.851,3.851,0,0,1,2.092-.589,3.525,3.525,0,0,1,2.835,1.17,4.949,4.949,0,0,1,1,3.312v.813H24.357a2.7,2.7,0,0,0,.743,1.76,2.23,2.23,0,0,0,1.639.647A2.731,2.731,0,0,0,29,13.435l1.087,1.038a3.631,3.631,0,0,1-1.44,1.249A4.509,4.509,0,0,1,26.623,16.166Zm-.241-7.695a1.7,1.7,0,0,0-1.341.581,3.012,3.012,0,0,0-.652,1.619h3.843v-.149a2.452,2.452,0,0,0-.54-1.531A1.686,1.686,0,0,0,26.383,8.471ZM37.157,16a3.113,3.113,0,0,1-.232-.838,3.393,3.393,0,0,1-4.565.232,2.47,2.47,0,0,1-.855-1.909,2.55,2.55,0,0,1,1.067-2.2,5.169,5.169,0,0,1,3.051-.768h1.237V9.924a1.573,1.573,0,0,0-.39-1.116,1.547,1.547,0,0,0-1.187-.419,1.777,1.777,0,0,0-1.129.344,1.066,1.066,0,0,0-.44.876H31.7a2.239,2.239,0,0,1,.49-1.382,3.263,3.263,0,0,1,1.332-1.009,4.68,4.68,0,0,1,1.88-.365,3.769,3.769,0,0,1,2.515.793,2.827,2.827,0,0,1,.963,2.229v4.051a4.591,4.591,0,0,0,.34,1.934V16Zm-2.216-1.453a2.294,2.294,0,0,0,1.125-.291,1.941,1.941,0,0,0,.793-.78V11.783H35.771a2.973,2.973,0,0,0-1.685.39,1.264,1.264,0,0,0-.564,1.1,1.179,1.179,0,0,0,.386.926A1.5,1.5,0,0,0,34.941,14.547Zm9.737.008a1.824,1.824,0,0,0,1.253-.44,1.5,1.5,0,0,0,.531-1.087h1.9a2.963,2.963,0,0,1-.523,1.565,3.43,3.43,0,0,1-1.328,1.15,3.958,3.958,0,0,1-1.81.423,3.829,3.829,0,0,1-2.988-1.22,4.84,4.84,0,0,1-1.1-3.37v-.208a4.759,4.759,0,0,1,1.1-3.283,3.8,3.8,0,0,1,2.988-1.233,3.69,3.69,0,0,1,2.611.934,3.345,3.345,0,0,1,1.058,2.453h-1.9a1.847,1.847,0,0,0-.527-1.27,1.7,1.7,0,0,0-1.258-.5,1.775,1.775,0,0,0-1.511.71,3.621,3.621,0,0,0-.54,2.154v.324a3.682,3.682,0,0,0,.527,2.179A1.773,1.773,0,0,0,44.677,14.556ZM52.032,16H50.015V7.019h2.017ZM49.89,4.686a1.071,1.071,0,0,1,.295-.772,1.113,1.113,0,0,1,.843-.307,1.127,1.127,0,0,1,.847.307,1.062,1.062,0,0,1,.3.772,1.038,1.038,0,0,1-.3.76,1.136,1.136,0,0,1-.847.3,1.122,1.122,0,0,1-.843-.3A1.046,1.046,0,0,1,49.89,4.686Zm3.959,6.74a5.3,5.3,0,0,1,.523-2.378,3.819,3.819,0,0,1,1.469-1.627,4.14,4.14,0,0,1,2.175-.569,3.923,3.923,0,0,1,2.951,1.17,4.6,4.6,0,0,1,1.224,3.1l.008.473a5.343,5.343,0,0,1-.51,2.374,3.773,3.773,0,0,1-1.461,1.619,4.17,4.17,0,0,1-2.2.573A3.9,3.9,0,0,1,54.991,14.9a4.848,4.848,0,0,1-1.141-3.374Zm2.017.174a3.619,3.619,0,0,0,.573,2.171,1.862,1.862,0,0,0,1.594.784,1.842,1.842,0,0,0,1.59-.8,4,4,0,0,0,.569-2.333,3.572,3.572,0,0,0-.585-2.158,1.973,1.973,0,0,0-3.158-.012A3.922,3.922,0,0,0,55.867,11.6ZM58.573,3.25h2.3l-2.3,2.515-1.619,0Zm7.205,3.769.058,1.038a3.229,3.229,0,0,1,2.615-1.2q2.806,0,2.855,3.212V16H69.289V10.181a1.85,1.85,0,0,0-.369-1.266A1.554,1.554,0,0,0,67.712,8.5a1.944,1.944,0,0,0-1.818,1.1V16H63.877V7.019Zm11.438,4.424a5.34,5.34,0,0,1,.963-3.333,3.085,3.085,0,0,1,2.582-1.258,2.931,2.931,0,0,1,2.308,1V3.25h2.017V16H83.26l-.1-.93a2.973,2.973,0,0,1-2.416,1.1,3.068,3.068,0,0,1-2.552-1.27A5.535,5.535,0,0,1,77.217,11.443Zm2.017.174a3.739,3.739,0,0,0,.527,2.137,1.71,1.71,0,0,0,1.5.768,1.9,1.9,0,0,0,1.81-1.1V9.583A1.876,1.876,0,0,0,81.276,8.5a1.723,1.723,0,0,0-1.511.776A4.163,4.163,0,0,0,79.234,11.617Zm11.912,4.549a4.173,4.173,0,0,1-3.109-1.208,4.381,4.381,0,0,1-1.191-3.217v-.249a5.389,5.389,0,0,1,.519-2.4,3.949,3.949,0,0,1,1.457-1.648,3.851,3.851,0,0,1,2.092-.589,3.525,3.525,0,0,1,2.835,1.17,4.949,4.949,0,0,1,1,3.312v.813H88.879a2.7,2.7,0,0,0,.743,1.76,2.23,2.23,0,0,0,1.639.647,2.731,2.731,0,0,0,2.258-1.121l1.087,1.038a3.631,3.631,0,0,1-1.44,1.249A4.509,4.509,0,0,1,91.145,16.166ZM90.9,8.471a1.7,1.7,0,0,0-1.341.581,3.012,3.012,0,0,0-.652,1.619h3.843v-.149a2.452,2.452,0,0,0-.54-1.531A1.686,1.686,0,0,0,90.9,8.471ZM98.458,16H96.441V3.25h2.017Zm10.119-1.444a1.824,1.824,0,0,0,1.253-.44,1.5,1.5,0,0,0,.531-1.087h1.9a2.963,2.963,0,0,1-.523,1.565,3.43,3.43,0,0,1-1.328,1.15,3.958,3.958,0,0,1-1.81.423,3.829,3.829,0,0,1-2.988-1.22,4.84,4.84,0,0,1-1.1-3.37v-.208a4.759,4.759,0,0,1,1.1-3.283,3.8,3.8,0,0,1,2.988-1.233,3.69,3.69,0,0,1,2.611.934,3.345,3.345,0,0,1,1.058,2.453h-1.9a1.847,1.847,0,0,0-.527-1.27,1.7,1.7,0,0,0-1.258-.5,1.775,1.775,0,0,0-1.511.71,3.621,3.621,0,0,0-.54,2.154v.324a3.681,3.681,0,0,0,.527,2.179A1.773,1.773,0,0,0,108.577,14.556ZM119.152,16a3.113,3.113,0,0,1-.232-.838,3.393,3.393,0,0,1-4.565.232,2.47,2.47,0,0,1-.855-1.909,2.55,2.55,0,0,1,1.067-2.2,5.169,5.169,0,0,1,3.051-.768h1.237V9.924a1.573,1.573,0,0,0-.39-1.116,1.547,1.547,0,0,0-1.187-.419,1.777,1.777,0,0,0-1.129.344,1.066,1.066,0,0,0-.44.876H113.69a2.239,2.239,0,0,1,.49-1.382,3.263,3.263,0,0,1,1.332-1.009,4.68,4.68,0,0,1,1.88-.365,3.769,3.769,0,0,1,2.515.793,2.827,2.827,0,0,1,.963,2.229v4.051a4.591,4.591,0,0,0,.34,1.934V16Zm-2.216-1.453a2.294,2.294,0,0,0,1.125-.291,1.941,1.941,0,0,0,.793-.78V11.783h-1.087a2.973,2.973,0,0,0-1.685.39,1.264,1.264,0,0,0-.564,1.1,1.179,1.179,0,0,0,.386.926A1.5,1.5,0,0,0,116.936,14.547Zm10.75-5.686a4.991,4.991,0,0,0-.822-.066A1.85,1.85,0,0,0,125,9.857V16h-2.017V7.019H124.9l.05,1a2.273,2.273,0,0,1,2.025-1.17,1.888,1.888,0,0,1,.714.116Zm5.977,0a4.991,4.991,0,0,0-.822-.066,1.85,1.85,0,0,0-1.868,1.063V16h-2.017V7.019h1.926l.05,1a2.273,2.273,0,0,1,2.025-1.17,1.888,1.888,0,0,1,.714.116Zm.6,2.565a5.3,5.3,0,0,1,.523-2.378,3.819,3.819,0,0,1,1.469-1.627,4.14,4.14,0,0,1,2.175-.569,3.923,3.923,0,0,1,2.951,1.17,4.6,4.6,0,0,1,1.224,3.1l.008.473a5.343,5.343,0,0,1-.51,2.374,3.773,3.773,0,0,1-1.461,1.619,4.17,4.17,0,0,1-2.2.573A3.9,3.9,0,0,1,135.4,14.9a4.848,4.848,0,0,1-1.141-3.374Zm2.017.174a3.619,3.619,0,0,0,.573,2.171,1.862,1.862,0,0,0,1.594.784,1.842,1.842,0,0,0,1.59-.8,4,4,0,0,0,.569-2.333,3.572,3.572,0,0,0-.585-2.158,1.973,1.973,0,0,0-3.158-.012A3.922,3.922,0,0,0,136.277,11.6ZM29.861,35.443a5.34,5.34,0,0,1,.963-3.333,3.085,3.085,0,0,1,2.582-1.258,2.931,2.931,0,0,1,2.308,1v-4.6H37.73V40H35.9l-.1-.93a2.973,2.973,0,0,1-2.416,1.1,3.068,3.068,0,0,1-2.552-1.27A5.535,5.535,0,0,1,29.861,35.443Zm2.017.174a3.739,3.739,0,0,0,.527,2.137,1.71,1.71,0,0,0,1.5.768,1.9,1.9,0,0,0,1.81-1.1V33.583A1.876,1.876,0,0,0,33.92,32.5a1.723,1.723,0,0,0-1.511.776A4.163,4.163,0,0,0,31.878,35.617Zm11.912,4.549a4.173,4.173,0,0,1-3.109-1.208,4.381,4.381,0,0,1-1.191-3.217v-.249a5.389,5.389,0,0,1,.519-2.4,3.949,3.949,0,0,1,1.457-1.648,3.851,3.851,0,0,1,2.092-.589,3.525,3.525,0,0,1,2.835,1.17,4.949,4.949,0,0,1,1,3.312v.813H41.523a2.7,2.7,0,0,0,.743,1.76,2.23,2.23,0,0,0,1.639.647,2.731,2.731,0,0,0,2.258-1.121l1.087,1.038a3.631,3.631,0,0,1-1.44,1.249A4.509,4.509,0,0,1,43.789,40.166Zm-.241-7.695a1.7,1.7,0,0,0-1.341.581,3.012,3.012,0,0,0-.652,1.619H45.4v-.149a2.452,2.452,0,0,0-.54-1.531A1.686,1.686,0,0,0,43.549,32.471ZM56.88,38.556a1.824,1.824,0,0,0,1.253-.44,1.5,1.5,0,0,0,.531-1.087h1.9a2.963,2.963,0,0,1-.523,1.565,3.43,3.43,0,0,1-1.328,1.15,3.958,3.958,0,0,1-1.81.423,3.829,3.829,0,0,1-2.988-1.22,4.84,4.84,0,0,1-1.1-3.37v-.208a4.759,4.759,0,0,1,1.1-3.283A3.8,3.8,0,0,1,56.9,30.853a3.69,3.69,0,0,1,2.611.934,3.345,3.345,0,0,1,1.058,2.453h-1.9a1.847,1.847,0,0,0-.527-1.27,1.7,1.7,0,0,0-1.258-.5,1.775,1.775,0,0,0-1.511.71,3.621,3.621,0,0,0-.54,2.154v.324a3.682,3.682,0,0,0,.527,2.179A1.773,1.773,0,0,0,56.88,38.556Zm4.831-3.129a5.3,5.3,0,0,1,.523-2.378A3.819,3.819,0,0,1,63.7,31.421a4.14,4.14,0,0,1,2.175-.569,3.923,3.923,0,0,1,2.951,1.17,4.6,4.6,0,0,1,1.224,3.1l.008.473a5.343,5.343,0,0,1-.51,2.374,3.773,3.773,0,0,1-1.461,1.619,4.17,4.17,0,0,1-2.2.573A3.9,3.9,0,0,1,62.852,38.9a4.848,4.848,0,0,1-1.141-3.374Zm2.017.174a3.619,3.619,0,0,0,.573,2.171,1.862,1.862,0,0,0,1.594.784,1.842,1.842,0,0,0,1.59-.8,4,4,0,0,0,.569-2.333,3.572,3.572,0,0,0-.585-2.158,1.973,1.973,0,0,0-3.158-.012A3.922,3.922,0,0,0,63.728,35.6Zm9.936-4.582.058.938a3.232,3.232,0,0,1,2.59-1.1,2.483,2.483,0,0,1,2.465,1.378,3.186,3.186,0,0,1,2.756-1.378,2.8,2.8,0,0,1,2.212.822,3.618,3.618,0,0,1,.743,2.424V40H82.471V34.156A1.786,1.786,0,0,0,82.1,32.9a1.635,1.635,0,0,0-1.237-.4,1.679,1.679,0,0,0-1.125.369,1.948,1.948,0,0,0-.61.967L79.134,40H77.117V34.09A1.439,1.439,0,0,0,75.5,32.5a1.776,1.776,0,0,0-1.718.988V40H71.763V31.019ZM94.424,35.6a5.348,5.348,0,0,1-.946,3.324,3.287,3.287,0,0,1-4.906.27v4.258H86.555V31.019h1.859l.083.913a2.963,2.963,0,0,1,2.416-1.079,3.062,3.062,0,0,1,2.577,1.224,5.49,5.49,0,0,1,.934,3.4Zm-2.009-.174a3.746,3.746,0,0,0-.535-2.133,1.741,1.741,0,0,0-1.531-.789,1.856,1.856,0,0,0-1.776,1.021V37.51a1.873,1.873,0,0,0,1.793,1.046,1.739,1.739,0,0,0,1.507-.776A4.124,4.124,0,0,0,92.415,35.426Zm8.417-2.565a4.992,4.992,0,0,0-.822-.066,1.85,1.85,0,0,0-1.868,1.063V40H96.126V31.019h1.926l.05,1a2.273,2.273,0,0,1,2.025-1.17,1.888,1.888,0,0,1,.714.116ZM107.224,40a3.113,3.113,0,0,1-.232-.838,3.393,3.393,0,0,1-4.565.232,2.47,2.47,0,0,1-.855-1.909,2.55,2.55,0,0,1,1.067-2.2,5.169,5.169,0,0,1,3.051-.768h1.237v-.589a1.573,1.573,0,0,0-.39-1.116,1.547,1.547,0,0,0-1.187-.419,1.777,1.777,0,0,0-1.129.344,1.066,1.066,0,0,0-.44.876h-2.017a2.239,2.239,0,0,1,.49-1.382,3.263,3.263,0,0,1,1.332-1.009,4.68,4.68,0,0,1,1.88-.365,3.769,3.769,0,0,1,2.515.793,2.827,2.827,0,0,1,.963,2.229v4.051a4.591,4.591,0,0,0,.34,1.934V40Zm-2.216-1.453a2.294,2.294,0,0,0,1.125-.291,1.941,1.941,0,0,0,.793-.78V35.783h-1.087a2.973,2.973,0,0,0-1.685.39,1.264,1.264,0,0,0-.564,1.1,1.179,1.179,0,0,0,.386.926A1.5,1.5,0,0,0,105.008,38.547Zm11.082-.988a.914.914,0,0,0-.444-.822,4.723,4.723,0,0,0-1.473-.5,7.574,7.574,0,0,1-1.718-.548,2.293,2.293,0,0,1-1.511-2.117,2.391,2.391,0,0,1,.979-1.942,3.872,3.872,0,0,1,2.49-.78,4.029,4.029,0,0,1,2.6.8,2.529,2.529,0,0,1,.992,2.067H115.99a1.243,1.243,0,0,0-.432-.967,1.654,1.654,0,0,0-1.146-.386,1.787,1.787,0,0,0-1.083.307.968.968,0,0,0-.419.822.818.818,0,0,0,.39.722,5.365,5.365,0,0,0,1.577.519,7.466,7.466,0,0,1,1.864.623,2.639,2.639,0,0,1,1,.867,2.212,2.212,0,0,1,.328,1.229,2.34,2.34,0,0,1-1,1.963,4.283,4.283,0,0,1-2.631.751,4.644,4.644,0,0,1-1.967-.4,3.238,3.238,0,0,1-1.345-1.1,2.594,2.594,0,0,1-.481-1.5H112.6a1.421,1.421,0,0,0,.54,1.1,2.1,2.1,0,0,0,1.32.386,2.04,2.04,0,0,0,1.212-.3A.938.938,0,0,0,116.089,37.56Z" transform="translate(569 4564)" fill="#12263f"/>
          <path id="Trazado_608923" data-name="Trazado 608923" d="M41.767,10.878H36.9V16H34.8V3.914h7.678V5.607H36.9V9.2h4.864Zm1.627.548a5.3,5.3,0,0,1,.523-2.378,3.819,3.819,0,0,1,1.469-1.627,4.14,4.14,0,0,1,2.175-.569,3.923,3.923,0,0,1,2.951,1.17,4.6,4.6,0,0,1,1.224,3.1l.008.473a5.343,5.343,0,0,1-.51,2.374,3.773,3.773,0,0,1-1.461,1.619,4.17,4.17,0,0,1-2.2.573A3.9,3.9,0,0,1,44.535,14.9a4.848,4.848,0,0,1-1.141-3.374Zm2.017.174a3.619,3.619,0,0,0,.573,2.171,1.862,1.862,0,0,0,1.594.784,1.842,1.842,0,0,0,1.59-.8,4,4,0,0,0,.569-2.333,3.572,3.572,0,0,0-.585-2.158,1.973,1.973,0,0,0-3.158-.012A3.922,3.922,0,0,0,45.411,11.6ZM58.153,8.861a4.991,4.991,0,0,0-.822-.066,1.85,1.85,0,0,0-1.868,1.063V16H53.446V7.019h1.926l.05,1a2.273,2.273,0,0,1,2.025-1.17,1.888,1.888,0,0,1,.714.116Zm3.171-1.843.058.938a3.232,3.232,0,0,1,2.59-1.1A2.483,2.483,0,0,1,66.437,8.23a3.186,3.186,0,0,1,2.756-1.378,2.8,2.8,0,0,1,2.212.822,3.618,3.618,0,0,1,.743,2.424V16H70.131V10.156A1.786,1.786,0,0,0,69.757,8.9a1.635,1.635,0,0,0-1.237-.4,1.679,1.679,0,0,0-1.125.369,1.948,1.948,0,0,0-.61.967L66.794,16H64.777V10.09A1.439,1.439,0,0,0,63.158,8.5a1.776,1.776,0,0,0-1.718.988V16H59.423V7.019ZM79.585,16a3.113,3.113,0,0,1-.232-.838,3.393,3.393,0,0,1-4.565.232,2.47,2.47,0,0,1-.855-1.909A2.55,2.55,0,0,1,75,11.281a5.169,5.169,0,0,1,3.051-.768h1.237V9.924a1.573,1.573,0,0,0-.39-1.116,1.547,1.547,0,0,0-1.187-.419,1.777,1.777,0,0,0-1.129.344,1.066,1.066,0,0,0-.44.876H74.124a2.239,2.239,0,0,1,.49-1.382,3.263,3.263,0,0,1,1.332-1.009,4.68,4.68,0,0,1,1.88-.365,3.769,3.769,0,0,1,2.515.793A2.827,2.827,0,0,1,81.3,9.874v4.051a4.591,4.591,0,0,0,.34,1.934V16Zm-2.216-1.453a2.294,2.294,0,0,0,1.125-.291,1.941,1.941,0,0,0,.793-.78V11.783H78.2a2.973,2.973,0,0,0-1.685.39,1.264,1.264,0,0,0-.564,1.1,1.179,1.179,0,0,0,.386.926A1.5,1.5,0,0,0,77.369,14.547Zm11.082-.988a.914.914,0,0,0-.444-.822,4.723,4.723,0,0,0-1.473-.5,7.574,7.574,0,0,1-1.718-.548A2.293,2.293,0,0,1,83.3,9.575a2.391,2.391,0,0,1,.979-1.942,3.872,3.872,0,0,1,2.49-.78,4.029,4.029,0,0,1,2.6.8,2.529,2.529,0,0,1,.992,2.067H88.351a1.243,1.243,0,0,0-.432-.967,1.654,1.654,0,0,0-1.146-.386,1.787,1.787,0,0,0-1.083.307.968.968,0,0,0-.419.822.818.818,0,0,0,.39.722,5.365,5.365,0,0,0,1.577.519,7.466,7.466,0,0,1,1.864.623,2.639,2.639,0,0,1,1,.867,2.212,2.212,0,0,1,.328,1.229,2.34,2.34,0,0,1-1,1.963,4.283,4.283,0,0,1-2.631.751,4.644,4.644,0,0,1-1.967-.4,3.238,3.238,0,0,1-1.345-1.1,2.594,2.594,0,0,1-.481-1.5h1.959a1.421,1.421,0,0,0,.54,1.1,2.1,2.1,0,0,0,1.32.386,2.04,2.04,0,0,0,1.212-.3A.938.938,0,0,0,88.451,13.56Zm7.6-2.117a5.34,5.34,0,0,1,.963-3.333A3.085,3.085,0,0,1,99.59,6.853a2.931,2.931,0,0,1,2.308,1V3.25h2.017V16h-1.826l-.1-.93a2.973,2.973,0,0,1-2.416,1.1,3.068,3.068,0,0,1-2.552-1.27A5.535,5.535,0,0,1,96.046,11.443Zm2.017.174a3.739,3.739,0,0,0,.527,2.137,1.71,1.71,0,0,0,1.5.768,1.9,1.9,0,0,0,1.81-1.1V9.583A1.876,1.876,0,0,0,100.1,8.5a1.723,1.723,0,0,0-1.511.776A4.163,4.163,0,0,0,98.063,11.617Zm11.912,4.549a4.173,4.173,0,0,1-3.109-1.208,4.381,4.381,0,0,1-1.191-3.217v-.249a5.389,5.389,0,0,1,.519-2.4,3.949,3.949,0,0,1,1.457-1.648,3.851,3.851,0,0,1,2.092-.589,3.525,3.525,0,0,1,2.835,1.17,4.949,4.949,0,0,1,1,3.312v.813h-5.869a2.7,2.7,0,0,0,.743,1.76,2.23,2.23,0,0,0,1.639.647,2.731,2.731,0,0,0,2.258-1.121l1.087,1.038A3.631,3.631,0,0,1,112,15.722,4.509,4.509,0,0,1,109.975,16.166Zm-.241-7.695a1.7,1.7,0,0,0-1.341.581,3.012,3.012,0,0,0-.652,1.619h3.843v-.149a2.452,2.452,0,0,0-.54-1.531A1.686,1.686,0,0,0,109.734,8.471ZM127.24,11.6a5.348,5.348,0,0,1-.946,3.324,3.287,3.287,0,0,1-4.906.27v4.258h-2.017V7.019h1.859l.083.913a2.963,2.963,0,0,1,2.416-1.079,3.062,3.062,0,0,1,2.577,1.224,5.49,5.49,0,0,1,.934,3.4Zm-2.009-.174a3.746,3.746,0,0,0-.535-2.133,1.741,1.741,0,0,0-1.531-.789,1.856,1.856,0,0,0-1.776,1.021V13.51a1.873,1.873,0,0,0,1.793,1.046,1.739,1.739,0,0,0,1.507-.776A4.124,4.124,0,0,0,125.231,11.426ZM134.313,16a3.113,3.113,0,0,1-.232-.838,3.393,3.393,0,0,1-4.565.232,2.47,2.47,0,0,1-.855-1.909,2.55,2.55,0,0,1,1.067-2.2,5.169,5.169,0,0,1,3.051-.768h1.237V9.924a1.573,1.573,0,0,0-.39-1.116,1.547,1.547,0,0,0-1.187-.419,1.777,1.777,0,0,0-1.129.344,1.066,1.066,0,0,0-.44.876h-2.017a2.239,2.239,0,0,1,.49-1.382,3.263,3.263,0,0,1,1.332-1.009,4.68,4.68,0,0,1,1.88-.365,3.769,3.769,0,0,1,2.515.793,2.827,2.827,0,0,1,.963,2.229v4.051a4.591,4.591,0,0,0,.34,1.934V16ZM132.1,14.547a2.294,2.294,0,0,0,1.125-.291,1.941,1.941,0,0,0,.793-.78V11.783h-1.087a2.973,2.973,0,0,0-1.685.39,1.264,1.264,0,0,0-.564,1.1,1.179,1.179,0,0,0,.386.926A1.5,1.5,0,0,0,132.1,14.547Zm5.694-3.1a5.253,5.253,0,0,1,.984-3.341,3.157,3.157,0,0,1,2.611-1.249A2.958,2.958,0,0,1,143.8,7.923l.091-.9h1.818v8.708a3.619,3.619,0,0,1-1.1,2.789,4.189,4.189,0,0,1-2.968,1.021,4.783,4.783,0,0,1-1.93-.411,3.429,3.429,0,0,1-1.432-1.075l.955-1.212a2.883,2.883,0,0,0,2.291,1.1,2.228,2.228,0,0,0,1.585-.544,2.084,2.084,0,0,0,.581-1.6v-.606a2.97,2.97,0,0,1-2.324.971,3.15,3.15,0,0,1-2.577-1.253A5.423,5.423,0,0,1,137.791,11.443Zm2.009.174a3.616,3.616,0,0,0,.552,2.129,1.775,1.775,0,0,0,1.531.776,1.941,1.941,0,0,0,1.81-1.046V9.525A1.913,1.913,0,0,0,141.9,8.5a1.782,1.782,0,0,0-1.548.789A4.049,4.049,0,0,0,139.8,11.617Zm7.6-.191a5.3,5.3,0,0,1,.523-2.378A3.819,3.819,0,0,1,149.4,7.421a4.14,4.14,0,0,1,2.175-.569,3.923,3.923,0,0,1,2.951,1.17,4.6,4.6,0,0,1,1.224,3.1l.008.473a5.343,5.343,0,0,1-.51,2.374,3.773,3.773,0,0,1-1.461,1.619,4.17,4.17,0,0,1-2.2.573,3.9,3.9,0,0,1-3.042-1.266,4.848,4.848,0,0,1-1.141-3.374Zm2.017.174a3.619,3.619,0,0,0,.573,2.171,1.862,1.862,0,0,0,1.594.784,1.842,1.842,0,0,0,1.59-.8,4,4,0,0,0,.569-2.333,3.572,3.572,0,0,0-.585-2.158A1.973,1.973,0,0,0,150,9.256,3.922,3.922,0,0,0,149.42,11.6Z" transform="translate(233 4576)" fill="#12263f"/>
          <circle id="Elipse_5859" data-name="Elipse 5859" cx="49" cy="49" r="49" transform="translate(227 4356)" fill="#fff"/>
          <g id="Grupo_1016793" data-name="Grupo 1016793" transform="translate(251 4376)">
            <circle id="Elipse_4752" data-name="Elipse 4752" cx="2" cy="2" r="2" fill="#33ece0"/>
            <circle id="Elipse_4757" data-name="Elipse 4757" cx="2" cy="2" r="2" transform="translate(0 7)" fill="#33ece0"/>
            <circle id="Elipse_4760" data-name="Elipse 4760" cx="2" cy="2" r="2" transform="translate(0 14)" fill="#33ece0"/>
            <circle id="Elipse_4753" data-name="Elipse 4753" cx="2" cy="2" r="2" transform="translate(7)" fill="#33ece0"/>
            <circle id="Elipse_4756" data-name="Elipse 4756" cx="2" cy="2" r="2" transform="translate(7 7)" fill="#33ece0"/>
            <circle id="Elipse_4759" data-name="Elipse 4759" cx="2" cy="2" r="2" transform="translate(7 14)" fill="#33ece0"/>
            <circle id="Elipse_4754" data-name="Elipse 4754" cx="2" cy="2" r="2" transform="translate(14)" fill="#33ece0"/>
            <circle id="Elipse_4755" data-name="Elipse 4755" cx="2" cy="2" r="2" transform="translate(14 7)" fill="#33ece0"/>
            <circle id="Elipse_4758" data-name="Elipse 4758" cx="2" cy="2" r="2" transform="translate(14 14)" fill="#33ece0"/>
          </g>
          <g id="Grupo_1016797" data-name="Grupo 1016797" transform="translate(278 4369.644)">
            <g id="Grupo_1016795" data-name="Grupo 1016795" clip-path="url(#clip-path)">
              <path id="Trazado_608677" data-name="Trazado 608677" d="M107.811,335.367H14.356A5.356,5.356,0,0,1,9,330.01v-8.982H113.168v8.982a5.356,5.356,0,0,1-5.356,5.356" transform="translate(-7.102 -253.334)" fill="#c0e3f0"/>
              <path id="Trazado_608678" data-name="Trazado 608678" d="M107.963,10.966v64.95a18.374,18.374,0,0,1-.873,2.681,8.473,8.473,0,0,1-8.173,4.912q-14.338.007-28.677,0H68.874l1.352,10.8H71.47c2.179,0,4.358-.015,6.537.007,1.286.012,1.933.481,1.959,1.568.058,2.352.041,4.708,0,7.061a1.432,1.432,0,0,1-1.469,1.487c-.384.033-.772.032-1.158.032H30.635c-.316,0-.634.012-.948-.009-1.143-.077-1.69-.565-1.713-1.708q-.065-3.32,0-6.642c.023-1.258.617-1.775,1.975-1.789,2.214-.024,4.428-.007,6.642-.007h1.155l1.345-10.8h-14a8.55,8.55,0,0,1-.948-.019,1.535,1.535,0,0,1-1.485-1.5,1.552,1.552,0,0,1,1.483-1.614,9.725,9.725,0,0,1,1.158-.023H98.249c.457,0,.915.009,1.37-.016a5.125,5.125,0,0,0,5-4.325,51.771,51.771,0,0,0,.054-6.367H3.163c0,1.662-.005,3.241,0,4.819C3.179,78.129,5.4,80.336,9.1,80.346c2.706.008,5.412-.006,8.118.005,1.251.005,1.964.588,1.976,1.562s-.707,1.588-1.938,1.593c-2.847.012-5.694.027-8.54,0a8.048,8.048,0,0,1-6.96-3.5A22.756,22.756,0,0,1,0,75.916V10.966a22.422,22.422,0,0,1,1.7-3.9A8.264,8.264,0,0,1,9.051,3.5c1.606.008,3.213,0,4.833,0,.033-.34.067-.546.072-.753C14.018.263,14.286,0,16.789,0H48.607q5.9,0,11.8,0c1.6,0,2.126.537,2.155,2.158.008.411,0,.821,0,1.343h1.481q17.279,0,34.558-.01a9.294,9.294,0,0,1,6.666,2.357,9.916,9.916,0,0,1,2.7,5.115m-55.806,55.3H90.8V24.189H52.157Zm-3.243.064V40.276q0-8.538,0-17.075c0-1.745.5-2.236,2.267-2.25.808-.007,1.616,0,2.424,0h5.709V3.228H17.182v63.1ZM62.631,13.706v7.244h28.5c2.553,0,2.879.321,2.879,2.828q0,20.611,0,41.221V66.33h3.742V13.706Zm42.17,52.63V65.152q0-26.142,0-52.284c0-4.059-2.112-6.2-6.145-6.2q-17.445-.009-34.889,0c-.372,0-.744.031-1.144.049V10.5H98.485c2.1,0,2.5.406,2.5,2.534q0,25.984,0,51.968v1.336ZM13.9,6.667c-1.6,0-3.107,0-4.612,0C5.3,6.681,3.164,8.812,3.163,12.776q0,26.186,0,52.372v1.173H6.974V65q0-26.028,0-52.056c0-2.027.428-2.449,2.481-2.451,1.465,0,2.93,0,4.448,0Zm-.008,7.067H10.216v52.6h3.679ZM67.028,94.249,65.69,83.57H59.049c0,1.7.012,3.345,0,4.988-.013,1.359-.567,1.913-1.929,1.924-2.038.016-4.076.011-6.114,0-1.564-.007-2.077-.523-2.085-2.088-.008-1.6,0-3.207,0-4.806H42.268l-1.329,10.66Zm-35.847,6.99h45.58V97.557H31.181ZM55.8,83.584H52.16V87.3H55.8Z" transform="translate(0 0)"/>
              <path id="Trazado_608679" data-name="Trazado 608679" d="M247.348,114.711H285.99v42.076H247.348Zm25.444,24.377c.878,0,1.756,0,2.634,0,1.756-.007,3.512.011,5.267-.038a1.531,1.531,0,0,0,.173-3.038,6.1,6.1,0,0,0-1.045-.083q-7.06-.008-14.119,0a4.607,4.607,0,0,0-1.35.157,1.488,1.488,0,0,0-.915,1.959,1.664,1.664,0,0,0,1.769,1.041c2.529-.007,5.058,0,7.587,0m-.04,14c2.353,0,4.707.008,7.06-.007a4.53,4.53,0,0,0,1.349-.161,1.253,1.253,0,0,0,.942-1.546A3.32,3.32,0,0,0,281,150.023c-.193-.166-.609-.092-.923-.092q-7.323-.007-14.646,0a4.2,4.2,0,0,0-.839.059,1.318,1.318,0,0,0-1.206,1.471,2.873,2.873,0,0,0,1.085,1.47c.272.221.808.152,1.225.154,2.353.012,4.706.006,7.06.006m-6.131-31.45h5.371c.457,0,.914.018,1.369-.008,1.194-.067,1.82-.639,1.8-1.616-.02-.936-.626-1.463-1.768-1.533-.175-.011-.351-.006-.526-.006q-6.213,0-12.427,0a7.344,7.344,0,0,0-1.048.066,1.524,1.524,0,0,0-.028,3.006,6.723,6.723,0,0,0,1.151.085c2.036.008,4.072,0,6.108,0m-12.134,12.746c-.469-.361-.775-.776-1.138-.834a2.3,2.3,0,0,0-1.624.2c-.364.3-.7,1.25-.5,1.509a17.778,17.778,0,0,0,2.719,2.822,1.425,1.425,0,0,0,1.342-.2q2.892-2.748,5.642-5.642a1.329,1.329,0,0,0-.166-1.908,1.453,1.453,0,0,0-1.916-.234,4.214,4.214,0,0,0-.8.679c-1.184,1.189-2.359,2.387-3.562,3.608m-.019,14.008c-.275-.252-.423-.4-.584-.532a1.594,1.594,0,0,0-2.344-.063,1.574,1.574,0,0,0,.17,2.339c.4.437.833.851,1.26,1.265,1.061,1.029,1.836,1.041,2.882.009q2.319-2.287,4.607-4.6c.889-.9.987-1.776.318-2.486-.692-.734-1.632-.65-2.557.27-1.239,1.233-2.456,2.487-3.752,3.8m13.958-2.311c1.085,0,2.172.033,3.256-.009,1.121-.043,1.739-.629,1.747-1.554a1.537,1.537,0,0,0-1.721-1.575q-3.307-.061-6.617,0a1.574,1.574,0,1,0-.026,3.127c1.119.044,2.24.01,3.361.012m-.077-13.986c1.121,0,2.242.021,3.362-.006a1.561,1.561,0,0,0,1.715-1.468,1.5,1.5,0,0,0-1.537-1.649q-3.517-.089-7.038.006a1.486,1.486,0,0,0-1.516,1.57,1.55,1.55,0,0,0,1.652,1.537c1.12.034,2.241.008,3.362.011" transform="translate(-195.191 -90.522)" fill="#fff198"/>
              <path id="Trazado_608680" data-name="Trazado 608680" d="M113.215,78.41H81.483V15.31h42.134V33.031h-5.709c-.808,0-1.616-.005-2.424,0-1.768.015-2.266.505-2.267,2.25q-.005,8.538,0,17.076V78.41M97.292,74.649c3.334,0,6.668.012,10-.005,1.536-.008,2.1-.582,2.1-2.113q.019-4.686,0-9.371c0-1.616-.544-2.157-2.146-2.158q-9.9-.007-19.795,0c-1.684,0-2.2.508-2.206,2.2q-.018,4.58,0,9.161c.005,1.8.51,2.283,2.353,2.286q4.843.009,9.687,0m-.1-22.718c3.369,0,6.739.007,10.108,0,1.528,0,2.1-.571,2.1-2.107q.019-4.686,0-9.372c0-1.6-.562-2.177-2.147-2.18q-9.95-.014-19.9,0c-1.525,0-2.088.571-2.1,2.116q-.027,4.685,0,9.371c.008,1.659.548,2.168,2.247,2.171q4.843.007,9.687,0M102.479,29.2c3.966,0,7.932.007,11.9,0,1.43,0,1.984-.552,2-1.965q.026-3.053,0-6.107c-.009-1.473-.576-2.059-2.038-2.06q-11.793-.014-23.586,0c-1.406,0-1.978.593-1.987,2-.014,2-.009,4,0,6,.005,1.635.5,2.133,2.136,2.136q5.791.01,11.582,0M92.139,55.745c-1.649,0-3.3-.015-4.946,0-1.219.014-1.928.647-1.9,1.633.031.944.715,1.516,1.892,1.52q4.893.017,9.786,0c1.165,0,1.869-.588,1.9-1.517.035-.976-.688-1.621-1.9-1.636-1.613-.02-3.227,0-4.84,0m-.11-19.553c1.648,0,3.3.016,4.944-.005,1.183-.015,1.87-.582,1.9-1.507.036-.967-.673-1.628-1.9-1.638q-4.891-.039-9.782,0c-1.246.01-1.926.644-1.9,1.631.03.947.685,1.5,1.889,1.514,1.613.022,3.226.005,4.839.005" transform="translate(-64.301 -12.082)" fill="#dadada"/>
              <path id="Trazado_608681" data-name="Trazado 608681" d="M297.018,65H332.14v52.624H328.4V75.07c0-2.507-.327-2.828-2.879-2.828h-28.5Z" transform="translate(-234.387 -51.292)" fill="#fff"/>
              <path id="Trazado_608682" data-name="Trazado 608682" d="M339.153,91.283h-3.811V89.947q0-25.984,0-51.968c0-2.127-.4-2.534-2.5-2.534H296.974V31.666c.4-.018.772-.049,1.144-.049q17.445,0,34.89,0c4.033,0,6.145,2.14,6.145,6.2q0,26.142,0,52.284v1.184" transform="translate(-234.352 -24.947)" fill="#97c2db"/>
              <path id="Trazado_608683" data-name="Trazado 608683" d="M25.737,31.612v3.83c-1.518,0-2.983,0-4.448,0-2.053,0-2.481.424-2.481,2.451q0,26.028,0,52.056v1.317H15V90.093q0-26.186,0-52.372c0-3.965,2.141-6.1,6.127-6.109,1.505-.005,3.011,0,4.612,0" transform="translate(-11.834 -24.945)" fill="#97c2db"/>
              <rect id="Rectángulo_347320" data-name="Rectángulo 347320" width="3.679" height="52.601" transform="translate(10.216 13.734)" fill="#fff"/>
              <path id="Trazado_608684" data-name="Trazado 608684" d="M220.234,407H194.145l1.329-10.66h6.647c0,1.6-.006,3.2,0,4.806.008,1.566.521,2.082,2.085,2.088,2.038.009,4.076.014,6.114,0,1.362-.011,1.915-.565,1.929-1.924.016-1.643,0-3.286,0-4.988H218.9L220.234,407" transform="translate(-153.206 -312.747)" fill="#c0e3f0"/>
              <rect id="Rectángulo_347321" data-name="Rectángulo 347321" width="45.58" height="3.682" transform="translate(31.181 97.557)" fill="#c0e3f0"/>
              <rect id="Rectángulo_347322" data-name="Rectángulo 347322" width="3.64" height="3.717" transform="translate(52.16 83.584)" fill="#fff"/>
              <path id="Trazado_608685" data-name="Trazado 608685" d="M236.947,341.494a5.055,5.055,0,1,1,5.176-4.871,5.048,5.048,0,0,1-5.176,4.871m2.012-5.028a1.892,1.892,0,1,0-3.784.023,1.893,1.893,0,0,0,3.784-.023" transform="translate(-183.085 -261.506)"/>
              <path id="Trazado_608686" data-name="Trazado 608686" d="M332.618,218.472c-2.529,0-5.058,0-7.586,0a1.664,1.664,0,0,1-1.769-1.041,1.488,1.488,0,0,1,.915-1.959,4.616,4.616,0,0,1,1.35-.157q7.059-.015,14.119,0a6.1,6.1,0,0,1,1.045.083,1.531,1.531,0,0,1-.173,3.038c-1.755.049-3.511.031-5.267.038-.878,0-1.756,0-2.634,0" transform="translate(-255.017 -169.909)"/>
              <path id="Trazado_608687" data-name="Trazado 608687" d="M332.684,284.834c-2.353,0-4.707.006-7.06-.006-.417,0-.953.067-1.225-.154a2.871,2.871,0,0,1-1.085-1.47,1.318,1.318,0,0,1,1.206-1.471,4.217,4.217,0,0,1,.839-.059q7.323-.005,14.646,0c.315,0,.73-.073.923.093a3.318,3.318,0,0,1,1.106,1.352,1.253,1.253,0,0,1-.942,1.546,4.532,4.532,0,0,1-1.349.161c-2.353.015-4.706.007-7.06.007" transform="translate(-255.123 -222.267)"/>
              <path id="Trazado_608688" data-name="Trazado 608688" d="M306.874,135.732c-2.036,0-4.072,0-6.108,0a6.72,6.72,0,0,1-1.151-.085,1.524,1.524,0,0,1,.028-3.006,7.317,7.317,0,0,1,1.048-.065q6.213-.006,12.427,0c.175,0,.351,0,.526.006,1.142.07,1.748.6,1.768,1.533.021.977-.605,1.549-1.8,1.616-.455.025-.912.008-1.369.008h-5.371" transform="translate(-235.444 -104.614)"/>
              <path id="Trazado_608689" data-name="Trazado 608689" d="M268.772,191.021c1.2-1.22,2.378-2.419,3.562-3.608a4.2,4.2,0,0,1,.8-.679,1.452,1.452,0,0,1,1.916.234,1.329,1.329,0,0,1,.166,1.907q-2.742,2.9-5.642,5.642a1.426,1.426,0,0,1-1.342.2,17.789,17.789,0,0,1-2.719-2.822c-.195-.259.137-1.211.5-1.509a2.3,2.3,0,0,1,1.624-.2c.363.057.669.473,1.138.834" transform="translate(-209.476 -147.157)"/>
              <path id="Trazado_608690" data-name="Trazado 608690" d="M268.489,257.363c1.3-1.316,2.513-2.57,3.752-3.8.925-.92,1.865-1,2.557-.27.669.71.571,1.587-.318,2.486q-2.289,2.316-4.607,4.6c-1.046,1.031-1.821,1.019-2.882-.009-.427-.414-.857-.828-1.26-1.265a1.574,1.574,0,0,1-.17-2.338,1.594,1.594,0,0,1,2.344.063c.16.133.308.28.584.532" transform="translate(-209.212 -199.491)"/>
              <path id="Trazado_608691" data-name="Trazado 608691" d="M328.224,251.632c-1.12,0-2.242.034-3.361-.01a1.574,1.574,0,1,1,.026-3.128q3.308-.055,6.616,0a1.537,1.537,0,0,1,1.721,1.575c-.008.925-.626,1.511-1.747,1.554-1.084.041-2.17.009-3.256.007" transform="translate(-254.99 -196.074)"/>
              <path id="Trazado_608692" data-name="Trazado 608692" d="M328.173,185.312c-1.121,0-2.242.026-3.362-.008a1.55,1.55,0,0,1-1.652-1.537,1.486,1.486,0,0,1,1.516-1.57q3.517-.093,7.038-.006a1.5,1.5,0,0,1,1.537,1.649,1.561,1.561,0,0,1-1.715,1.469c-1.12.027-2.242.006-3.362,0" transform="translate(-255.015 -143.74)"/>
              <path id="Trazado_608693" data-name="Trazado 608693" d="M111.366,245.629q-4.843,0-9.687,0c-1.843,0-2.348-.49-2.353-2.286q-.014-4.58,0-9.161c.007-1.692.522-2.2,2.206-2.2q9.9-.006,19.795,0c1.6,0,2.141.542,2.146,2.158q.014,4.686,0,9.372c-.006,1.531-.568,2.1-2.1,2.113-3.334.018-6.669.006-10,.006m8.887-10.418H102.486c0,2.1.042,4.128-.019,6.155-.026.879.246,1.125,1.12,1.118,5.229-.039,10.459-.018,15.688-.022.307,0,.615-.038.978-.062Z" transform="translate(-78.376 -183.061)"/>
              <path id="Trazado_608694" data-name="Trazado 608694" d="M111.254,137.831q-4.843,0-9.687,0c-1.7,0-2.239-.512-2.247-2.171q-.022-4.686,0-9.372c.009-1.545.572-2.114,2.1-2.116q9.95-.016,19.9,0c1.584,0,2.142.578,2.147,2.179q.014,4.686,0,9.372c-.006,1.536-.574,2.1-2.1,2.107-3.369.01-6.739,0-10.108,0m8.993-10.418H102.556v7.2h17.691Z" transform="translate(-78.368 -97.981)"/>
              <path id="Trazado_608695" data-name="Trazado 608695" d="M129.688,43.21q-5.791,0-11.582,0c-1.637,0-2.131-.5-2.136-2.136-.007-2-.012-4,0-6,.01-1.4.581-1.994,1.987-2q11.793-.016,23.586,0c1.462,0,2.029.587,2.039,2.06q.02,3.054,0,6.107c-.012,1.413-.566,1.961-2,1.965-3.966.011-7.932,0-11.9,0m-10.5-3.238H140.34V36.287H119.183Z" transform="translate(-91.51 -26.094)"/>
              <path id="Trazado_608696" data-name="Trazado 608696" d="M106.41,207.048c1.614,0,3.227-.015,4.84,0,1.21.015,1.933.66,1.9,1.636-.033.929-.736,1.513-1.9,1.517q-4.893.017-9.786,0c-1.177,0-1.86-.576-1.892-1.52-.032-.986.676-1.618,1.9-1.633,1.648-.019,3.3,0,4.946,0" transform="translate(-78.572 -163.385)"/>
              <path id="Trazado_608697" data-name="Trazado 608697" d="M106.313,102.479c-1.613,0-3.226.017-4.839-.005-1.2-.016-1.859-.566-1.889-1.514-.031-.987.649-1.621,1.9-1.631q4.891-.04,9.783,0c1.224.01,1.933.671,1.9,1.638-.034.925-.721,1.492-1.9,1.507-1.648.021-3.3.005-4.944.005" transform="translate(-78.586 -78.369)"/>
              <path id="Trazado_608698" data-name="Trazado 608698" d="M250.812,348.374a1.893,1.893,0,0,1-3.784.023,1.892,1.892,0,1,1,3.784-.023" transform="translate(-194.939 -273.414)" fill="#fff"/>
              <path id="Trazado_608699" data-name="Trazado 608699" d="M132.029,247.314v7.19c-.363.024-.671.062-.978.062-5.229,0-10.459-.017-15.688.022-.875.006-1.147-.239-1.12-1.118.061-2.027.019-4.058.019-6.155Z" transform="translate(-90.151 -195.164)" fill="#33ece0"/>
              <rect id="Rectángulo_347323" data-name="Rectángulo 347323" width="17.691" height="7.199" transform="translate(24.188 29.431)" fill="#33ece0"/>
              <rect id="Rectángulo_347324" data-name="Rectángulo 347324" width="21.156" height="3.685" transform="translate(27.673 10.193)" fill="#33ece0"/>
            </g>
          </g>
        </g>
      </g>
    </g>
  </g>
</svg>
