<svg xmlns="http://www.w3.org/2000/svg" width="1032" height="295" viewBox="0 0 1032 295">
  <g id="Grupo_1016384" data-name="Grupo 1016384" transform="translate(-285 -697)">
    <rect id="Rectángulo_346169" data-name="Rectángulo 346169" width="1030" height="295" transform="translate(285 697)" fill="#fff"/>
    <path id="Trazado_606135" data-name="Trazado 606135" d="M-8064.617-2053.633h820v134.374h-943.219" transform="translate(8559.617 2825.594)" fill="none" stroke="#a3bfe4" stroke-width="4" stroke-dasharray="5"/>
    <path id="Trazado_606136" data-name="Trazado 606136" d="M-92,0l44.34,53.591L-92,107.184H151.136l50.2-53.874L151.136,0Z" transform="translate(377 718.368)" fill="#fffbe5"/>
    <path id="Trazado_606967" data-name="Trazado 606967" d="M-92,0l44.34,53.591L-92,107.184H151.136l50.2-53.874L151.136,0Z" transform="translate(728 718.368)" fill="#e3ecf7"/>
    <path id="Trazado_606971" data-name="Trazado 606971" d="M-92,0l44.34,53.591L-92,107.184H151.136l50.2-53.874L151.136,0Z" transform="translate(1201.334 961.184) rotate(180)" fill="#e3ecf7"/>
    <path id="Trazado_606972" data-name="Trazado 606972" d="M-92,0l44.34,53.591L-92,107.184H151.136l50.2-53.874L151.136,0Z" transform="translate(837.334 961.184) rotate(180)" fill="#fffbe5"/>
    <path id="Trazado_606974" data-name="Trazado 606974" d="M-92,0l44.34,53.591L-92,107.184H151.136l50.2-53.874L151.136,0Z" transform="translate(486.334 961.184) rotate(180)" fill="#e3ecf7"/>
    <path id="Trazado_606969" data-name="Trazado 606969" d="M-92,0l44.34,53.591L-92,107.184H151.136l50.2-53.874L151.136,0Z" transform="translate(1080 718.368)" fill="#fffbe5"/>
    <path id="Trazado_608875" data-name="Trazado 608875" d="M22.629,11.269V16H21.035V3.914h4.458A4.478,4.478,0,0,1,28.6,4.927a3.433,3.433,0,0,1,1.125,2.681,3.388,3.388,0,0,1-1.1,2.71,4.678,4.678,0,0,1-3.15.95Zm0-1.3h2.864a2.863,2.863,0,0,0,1.959-.6,2.2,2.2,0,0,0,.681-1.742,2.277,2.277,0,0,0-.681-1.73,2.682,2.682,0,0,0-1.868-.674H22.629ZM31,11.426a5.3,5.3,0,0,1,.519-2.374,3.87,3.87,0,0,1,1.444-1.627,3.932,3.932,0,0,1,2.113-.573,3.788,3.788,0,0,1,2.968,1.27A4.886,4.886,0,0,1,39.18,11.5v.108a5.351,5.351,0,0,1-.5,2.353,3.813,3.813,0,0,1-1.436,1.623,3.977,3.977,0,0,1-2.146.581,3.778,3.778,0,0,1-2.959-1.27A4.861,4.861,0,0,1,31,11.534Zm1.544.183a3.842,3.842,0,0,0,.693,2.4A2.349,2.349,0,0,0,36.956,14a4.2,4.2,0,0,0,.689-2.569,3.836,3.836,0,0,0-.7-2.395,2.23,2.23,0,0,0-1.864-.917,2.205,2.205,0,0,0-1.834.9A4.17,4.17,0,0,0,32.548,11.609Zm13.788,2.009a1.13,1.13,0,0,0-.469-.967,4.514,4.514,0,0,0-1.635-.594,7.731,7.731,0,0,1-1.851-.6,2.633,2.633,0,0,1-1.013-.83,1.986,1.986,0,0,1-.328-1.146,2.33,2.33,0,0,1,.934-1.868,3.647,3.647,0,0,1,2.386-.764,3.753,3.753,0,0,1,2.478.789,2.5,2.5,0,0,1,.95,2.017H46.244a1.386,1.386,0,0,0-.535-1.087,2.006,2.006,0,0,0-1.349-.457,2.1,2.1,0,0,0-1.312.365,1.15,1.15,0,0,0-.473.955.932.932,0,0,0,.44.838,5.413,5.413,0,0,0,1.59.54,8.283,8.283,0,0,1,1.864.614,2.718,2.718,0,0,1,1.058.859,2.112,2.112,0,0,1,.344,1.224,2.3,2.3,0,0,1-.963,1.93,4.039,4.039,0,0,1-2.5.726,4.523,4.523,0,0,1-1.909-.382,3.105,3.105,0,0,1-1.3-1.067,2.571,2.571,0,0,1-.469-1.482h1.536a1.59,1.59,0,0,0,.618,1.224,2.4,2.4,0,0,0,1.523.452,2.476,2.476,0,0,0,1.4-.353A1.084,1.084,0,0,0,46.336,13.618Zm3.171-2.183a5.279,5.279,0,0,1,.971-3.341,3.348,3.348,0,0,1,5.138-.079l.075-1h1.4v8.766a3.654,3.654,0,0,1-1.033,2.748,3.814,3.814,0,0,1-2.777,1,4.619,4.619,0,0,1-1.9-.415,3.272,3.272,0,0,1-1.419-1.137l.8-.921a3,3,0,0,0,2.416,1.22,2.353,2.353,0,0,0,1.747-.631,2.411,2.411,0,0,0,.627-1.776V15.1a3.156,3.156,0,0,1-2.515,1.063,3.068,3.068,0,0,1-2.552-1.27A5.55,5.55,0,0,1,49.506,11.435Zm1.544.174A4.027,4.027,0,0,0,51.673,14a2.023,2.023,0,0,0,1.743.867,2.249,2.249,0,0,0,2.133-1.32v-4.1a2.276,2.276,0,0,0-2.117-1.287,2.041,2.041,0,0,0-1.751.872A4.386,4.386,0,0,0,51.05,11.609Zm13.9,3.5a3.262,3.262,0,0,1-2.631,1.054,2.792,2.792,0,0,1-2.187-.834,3.611,3.611,0,0,1-.76-2.469V7.019h1.536v5.8q0,2.042,1.66,2.042a2.3,2.3,0,0,0,2.341-1.312V7.019h1.536V16H64.987Zm7.554,1.054a3.924,3.924,0,0,1-2.972-1.2,4.452,4.452,0,0,1-1.146-3.208v-.282A5.39,5.39,0,0,1,68.9,9.09a3.982,3.982,0,0,1,1.428-1.644,3.59,3.59,0,0,1,1.988-.594A3.364,3.364,0,0,1,75.04,8.006a5,5,0,0,1,.971,3.3v.639H69.926a3.193,3.193,0,0,0,.776,2.146,2.44,2.44,0,0,0,1.888.818,2.675,2.675,0,0,0,1.378-.332,3.462,3.462,0,0,0,.988-.88l.938.73A3.772,3.772,0,0,1,72.508,16.166Zm-.191-8.052a2.048,2.048,0,0,0-1.561.677,3.288,3.288,0,0,0-.78,1.9h4.5v-.116a2.925,2.925,0,0,0-.631-1.814A1.928,1.928,0,0,0,72.317,8.114Zm9.812.282a4.6,4.6,0,0,0-.755-.058,2.024,2.024,0,0,0-2.05,1.287V16H77.787V7.019h1.494l.025,1.038a2.391,2.391,0,0,1,2.142-1.2,1.569,1.569,0,0,1,.681.116Zm5.752,0a4.6,4.6,0,0,0-.755-.058,2.024,2.024,0,0,0-2.05,1.287V16H83.54V7.019h1.494l.025,1.038a2.391,2.391,0,0,1,2.142-1.2,1.569,1.569,0,0,1,.681.116ZM94.5,16a3.226,3.226,0,0,1-.216-.946,3.426,3.426,0,0,1-2.557,1.112,3.17,3.17,0,0,1-2.179-.751A2.43,2.43,0,0,1,88.7,13.51a2.539,2.539,0,0,1,1.067-2.179,5.029,5.029,0,0,1,3-.776h1.494V9.849a1.725,1.725,0,0,0-.481-1.282,1.935,1.935,0,0,0-1.419-.477,2.239,2.239,0,0,0-1.378.415,1.223,1.223,0,0,0-.556,1H88.885a2.119,2.119,0,0,1,.477-1.3,3.258,3.258,0,0,1,1.295-.992,4.356,4.356,0,0,1,1.8-.365,3.551,3.551,0,0,1,2.432.776A2.8,2.8,0,0,1,95.8,9.766V13.9a5.054,5.054,0,0,0,.315,1.967V16Zm-2.548-1.17a2.7,2.7,0,0,0,1.37-.374,2.259,2.259,0,0,0,.938-.971V11.642h-1.2q-2.822,0-2.822,1.652a1.4,1.4,0,0,0,.481,1.129A1.85,1.85,0,0,0,91.957,14.83Zm-78.9,20.265a12.834,12.834,0,0,1,.5-3.6,10.465,10.465,0,0,1,1.5-3.138,6.374,6.374,0,0,1,2.067-1.992l.315,1.013a6.611,6.611,0,0,0-1.988,2.839,12.307,12.307,0,0,0-.851,4.275l-.008.706a12.371,12.371,0,0,0,1.17,5.562,6.642,6.642,0,0,0,1.677,2.208l-.315.938a6.579,6.579,0,0,1-2.108-2.059A11.538,11.538,0,0,1,13.054,35.094ZM23.811,40H22.267V29.765l-3.1,1.137V29.508l4.4-1.652h.241ZM34.2,34.688a3.757,3.757,0,0,1-1.15.921,3.119,3.119,0,0,1-1.465.349,3.22,3.22,0,0,1-1.822-.515,3.346,3.346,0,0,1-1.2-1.448,4.938,4.938,0,0,1-.423-2.063,5.031,5.031,0,0,1,.461-2.183A3.384,3.384,0,0,1,29.9,28.263a3.728,3.728,0,0,1,1.976-.515,3.375,3.375,0,0,1,2.826,1.341,5.847,5.847,0,0,1,1.033,3.656v.448q0,3.528-1.395,5.151a5.358,5.358,0,0,1-4.208,1.664h-.3v-1.3h.324a4.228,4.228,0,0,0,2.922-.99A4.248,4.248,0,0,0,34.2,34.688Zm-2.366,0a2.371,2.371,0,0,0,1.424-.473,2.789,2.789,0,0,0,.95-1.17V32.43a4.226,4.226,0,0,0-.656-2.457,2,2,0,0,0-3.287-.17,3.2,3.2,0,0,0-.614,2.046,3.332,3.332,0,0,0,.594,2.038A1.879,1.879,0,0,0,31.83,34.688ZM45.775,40H37.856V38.9l4.184-4.648a9.939,9.939,0,0,0,1.282-1.714,2.861,2.861,0,0,0,.353-1.365,2.169,2.169,0,0,0-.573-1.552,2,2,0,0,0-1.527-.606,2.372,2.372,0,0,0-1.781.652,2.489,2.489,0,0,0-.635,1.814H37.624a3.565,3.565,0,0,1,1.075-2.7,3.985,3.985,0,0,1,2.876-1.029,3.829,3.829,0,0,1,2.665.884,3.015,3.015,0,0,1,.979,2.353q0,1.785-2.274,4.25l-3.237,3.511h6.068Zm2.333-6.06.614-6.026h6.192v1.419H50.025l-.365,3.3a3.9,3.9,0,0,1,2.017-.523A3.334,3.334,0,0,1,54.3,33.2a4.278,4.278,0,0,1,.971,2.951,4.129,4.129,0,0,1-1.009,2.943,3.676,3.676,0,0,1-2.818,1.075,3.82,3.82,0,0,1-2.615-.888,3.545,3.545,0,0,1-1.154-2.457h1.453a2.439,2.439,0,0,0,.739,1.565,2.3,2.3,0,0,0,1.577.527,2.072,2.072,0,0,0,1.681-.73,3.054,3.054,0,0,0,.61-2.017,2.8,2.8,0,0,0-.66-1.947,2.245,2.245,0,0,0-1.756-.735,2.532,2.532,0,0,0-1.577.44l-.407.332ZM60.3,35.493H56.251V34.239H60.3ZM66.685,40H65.141V29.765l-3.1,1.137V29.508l4.4-1.652h.241Zm10.384-5.312a3.757,3.757,0,0,1-1.15.921,3.119,3.119,0,0,1-1.465.349,3.22,3.22,0,0,1-1.822-.515,3.346,3.346,0,0,1-1.2-1.448,4.938,4.938,0,0,1-.423-2.063,5.031,5.031,0,0,1,.461-2.183,3.384,3.384,0,0,1,1.307-1.486,3.728,3.728,0,0,1,1.976-.515,3.375,3.375,0,0,1,2.826,1.341,5.847,5.847,0,0,1,1.033,3.656v.448q0,3.528-1.395,5.151a5.358,5.358,0,0,1-4.208,1.664h-.3v-1.3h.324a4.228,4.228,0,0,0,2.922-.99A4.248,4.248,0,0,0,77.069,34.688Zm-2.366,0a2.371,2.371,0,0,0,1.424-.473,2.789,2.789,0,0,0,.95-1.17V32.43a4.226,4.226,0,0,0-.656-2.457,2,2,0,0,0-3.287-.17,3.2,3.2,0,0,0-.614,2.046,3.332,3.332,0,0,0,.594,2.038A1.879,1.879,0,0,0,74.7,34.688Zm12.509,1.253H88.89v1.253H87.213V40H85.669V37.194h-5.5v-.9l5.412-8.375h1.635Zm-5.3,0h3.76V30.014l-.183.332Zm14.85,0h1.677v1.253H96.759V40H95.215V37.194h-5.5v-.9l5.412-8.375h1.635Zm-5.3,0h3.76V30.014l-.183.332Zm12.069-.764a12.84,12.84,0,0,1-.486,3.549,10.493,10.493,0,0,1-1.486,3.134,6.51,6.51,0,0,1-2.1,2.042l-.324-.938a6.673,6.673,0,0,0,2.054-3.042,13.161,13.161,0,0,0,.793-4.578v-.266a13.665,13.665,0,0,0-.365-3.241,10.94,10.94,0,0,0-1.017-2.685A6.2,6.2,0,0,0,99.133,27.3l.324-.938a6.485,6.485,0,0,1,2.088,2.025,10.516,10.516,0,0,1,1.486,3.129A13.136,13.136,0,0,1,103.524,35.177Z" transform="translate(373 746.165)" fill="#12263f"/>
    <path id="Trazado_606141" data-name="Trazado 606141" d="M-7669.983-8722.978l6.526,6.432-6.526,6.431" transform="translate(8001.145 9488.903)" fill="none" stroke="#627289" stroke-linecap="round" stroke-width="2"/>
    <path id="Trazado_606966" data-name="Trazado 606966" d="M-7669.983-8722.978l6.526,6.432-6.526,6.431" transform="translate(8352.429 9488.903)" fill="none" stroke="#627289" stroke-linecap="round" stroke-width="2"/>
    <path id="Trazado_606970" data-name="Trazado 606970" d="M-7669.983-8722.978l6.526,6.432-6.526,6.431" transform="translate(-6423.094 -7809.777) rotate(180)" fill="none" stroke="#627289" stroke-linecap="round" stroke-width="2"/>
    <path id="Trazado_606973" data-name="Trazado 606973" d="M-7669.983-8722.978l6.526,6.432-6.526,6.431" transform="translate(-6787.094 -7809.777) rotate(180)" fill="none" stroke="#627289" stroke-linecap="round" stroke-width="2"/>
    <path id="Trazado_606975" data-name="Trazado 606975" d="M-7669.983-8722.978l6.526,6.432-6.526,6.431" transform="translate(-7138.094 -7809.777) rotate(180)" fill="none" stroke="#627289" stroke-linecap="round" stroke-width="2"/>
    <path id="Trazado_606968" data-name="Trazado 606968" d="M-7669.983-8722.978l6.526,6.432-6.526,6.431" transform="translate(8703.645 9488.903)" fill="none" stroke="#627289" stroke-linecap="round" stroke-width="2"/>
    <g id="Grupo_1016369" data-name="Grupo 1016369" transform="translate(659.635 718.368)">
      <path id="Trazado_608876" data-name="Trazado 608876" d="M13.214,18l2.1-12.086,3.544.008a4.03,4.03,0,0,1,2.772.83,2.657,2.657,0,0,1,.805,2.316,3.142,3.142,0,0,1-2.183,2.615,2.25,2.25,0,0,1,1.216,1.079,3.016,3.016,0,0,1,.328,1.685,3.526,3.526,0,0,1-1.312,2.594A4.735,4.735,0,0,1,17.414,18Zm2.54-5.653L15,16.688l2.465.008a2.953,2.953,0,0,0,1.893-.6,2.356,2.356,0,0,0,.888-1.632,1.935,1.935,0,0,0-.34-1.524,1.854,1.854,0,0,0-1.436-.58Zm.224-1.278,2.25.008a2.9,2.9,0,0,0,1.781-.541,2.119,2.119,0,0,0,.851-1.489,1.52,1.52,0,0,0-.344-1.331,2.205,2.205,0,0,0-1.5-.491l-2.374-.008ZM28.828,18a2.012,2.012,0,0,1-.058-.473l.025-.473a3.682,3.682,0,0,1-2.623,1.112,2.684,2.684,0,0,1-1.93-.751,2.274,2.274,0,0,1-.677-1.839,2.765,2.765,0,0,1,1.249-2.229,5.318,5.318,0,0,1,3.067-.8l1.569.008.1-.714a1.641,1.641,0,0,0-.311-1.274,1.5,1.5,0,0,0-1.183-.486,2.317,2.317,0,0,0-1.365.378,1.607,1.607,0,0,0-.726,1.042l-1.511.008a2.408,2.408,0,0,1,.614-1.4,3.574,3.574,0,0,1,1.386-.946,4.478,4.478,0,0,1,1.751-.32,2.978,2.978,0,0,1,2.183.851,2.639,2.639,0,0,1,.656,2.171l-.73,4.449-.042.639a3.133,3.133,0,0,0,.1.9L30.355,18ZM26.47,16.838a2.62,2.62,0,0,0,1.365-.344,3.458,3.458,0,0,0,1.108-1l.324-1.851-1.137-.008a4.308,4.308,0,0,0-2.175.448,1.651,1.651,0,0,0-.855,1.27A1.286,1.286,0,0,0,25.4,16.4,1.4,1.4,0,0,0,26.47,16.838Zm14.07-3.287a7,7,0,0,1-.755,2.482,4.231,4.231,0,0,1-1.428,1.635,3.249,3.249,0,0,1-1.859.506,2.773,2.773,0,0,1-2.416-1.22L33.775,18H32.389L34.6,5.25h1.5l-.9,4.765a3.3,3.3,0,0,1,2.623-1.162,2.505,2.505,0,0,1,2.017.955,4.2,4.2,0,0,1,.764,2.54,7.822,7.822,0,0,1-.05,1.029Zm-1.428-.866a3.2,3.2,0,0,0-.407-1.853,1.556,1.556,0,0,0-1.32-.676,2.734,2.734,0,0,0-2.374,1.409l-.672,3.9a1.912,1.912,0,0,0,1.868,1.4,2.183,2.183,0,0,0,1.54-.522,3.412,3.412,0,0,0,1-1.555A6.989,6.989,0,0,0,39.112,12.684Zm5.835,3.049,3.2-6.715H49.8L44.474,19.494q-1.112,2.183-2.855,2.158a4.893,4.893,0,0,1-.9-.149l.133-1.245.39.042a1.969,1.969,0,0,0,1.233-.32,2.945,2.945,0,0,0,.917-1.141l.54-1.029L42.374,9.019h1.569Zm16.983-2.183a7,7,0,0,1-.755,2.482,4.231,4.231,0,0,1-1.428,1.635,3.249,3.249,0,0,1-1.859.506,2.773,2.773,0,0,1-2.416-1.22L55.166,18H53.78L56,5.25h1.5l-.9,4.765a3.3,3.3,0,0,1,2.623-1.162,2.505,2.505,0,0,1,2.017.955A4.2,4.2,0,0,1,62,12.347a7.822,7.822,0,0,1-.05,1.029ZM60.5,12.684a3.2,3.2,0,0,0-.407-1.853,1.556,1.556,0,0,0-1.32-.676A2.734,2.734,0,0,0,56.4,11.565l-.672,3.9a1.912,1.912,0,0,0,1.868,1.4,2.183,2.183,0,0,0,1.54-.522,3.412,3.412,0,0,0,1-1.555A6.989,6.989,0,0,0,60.5,12.684Zm7.6-3.832a3.237,3.237,0,0,1,1.934.614,3.49,3.49,0,0,1,1.191,1.648,5.1,5.1,0,0,1,.261,2.3l-.017.183a6.041,6.041,0,0,1-.78,2.37,4.578,4.578,0,0,1-1.61,1.648,3.927,3.927,0,0,1-2.167.556,3.243,3.243,0,0,1-1.93-.614,3.411,3.411,0,0,1-1.183-1.627,5.239,5.239,0,0,1-.266-2.266,6.12,6.12,0,0,1,.755-2.507A4.685,4.685,0,0,1,65.92,9.429,3.881,3.881,0,0,1,68.107,8.853Zm-3.055,4.814a5.1,5.1,0,0,0,0,1.087,2.664,2.664,0,0,0,.585,1.561,1.757,1.757,0,0,0,1.341.606,2.394,2.394,0,0,0,1.378-.369,3.1,3.1,0,0,0,1.063-1.191,5.016,5.016,0,0,0,.556-1.768A7.962,7.962,0,0,0,70,12.306a2.765,2.765,0,0,0-.606-1.585,1.8,1.8,0,0,0-1.345-.614,2.448,2.448,0,0,0-1.976.913,4.511,4.511,0,0,0-1,2.457ZM77.595,8.853a3.237,3.237,0,0,1,1.934.614,3.49,3.49,0,0,1,1.191,1.648,5.1,5.1,0,0,1,.261,2.3l-.017.183a6.041,6.041,0,0,1-.78,2.37,4.578,4.578,0,0,1-1.61,1.648,3.927,3.927,0,0,1-2.167.556,3.243,3.243,0,0,1-1.93-.614,3.411,3.411,0,0,1-1.183-1.627,5.239,5.239,0,0,1-.266-2.266,6.12,6.12,0,0,1,.755-2.507,4.685,4.685,0,0,1,1.623-1.722A3.881,3.881,0,0,1,77.595,8.853ZM74.54,13.667a5.1,5.1,0,0,0,0,1.087,2.664,2.664,0,0,0,.585,1.561,1.757,1.757,0,0,0,1.341.606,2.394,2.394,0,0,0,1.378-.369,3.1,3.1,0,0,0,1.063-1.191,5.016,5.016,0,0,0,.556-1.768,7.962,7.962,0,0,0,.025-1.287,2.765,2.765,0,0,0-.606-1.585,1.8,1.8,0,0,0-1.345-.614,2.448,2.448,0,0,0-1.976.913,4.511,4.511,0,0,0-1,2.457ZM85.057,9.01l-.191,1A3.512,3.512,0,0,1,87.6,8.853a2.771,2.771,0,0,1,1.448.39,1.914,1.914,0,0,1,.818,1.054,3.708,3.708,0,0,1,2.98-1.444,2.375,2.375,0,0,1,1.984.9A3.232,3.232,0,0,1,95.3,12.1L94.312,18H92.818l.979-5.918a3.127,3.127,0,0,0,0-.789q-.158-1.129-1.478-1.154a2.269,2.269,0,0,0-1.49.51,2.361,2.361,0,0,0-.859,1.382L88.95,18H87.439l1-5.91a1.9,1.9,0,0,0-.278-1.419,1.463,1.463,0,0,0-1.2-.515,2.46,2.46,0,0,0-2.233,1.278L83.588,18h-1.5l1.561-8.981Zm15.456,9.156a3.238,3.238,0,0,1-2.623-1.237,4.256,4.256,0,0,1-.8-3.08l.042-.357a5.976,5.976,0,0,1,.793-2.44,4.611,4.611,0,0,1,1.59-1.664,3.709,3.709,0,0,1,2.025-.535,2.856,2.856,0,0,1,2.175.921,3.789,3.789,0,0,1,.863,2.407,7.035,7.035,0,0,1-.033,1.079l-.091.689H98.587a3.034,3.034,0,0,0,.4,2.075,1.907,1.907,0,0,0,1.648.888,3.2,3.2,0,0,0,2.457-1.2l.863.73a3.951,3.951,0,0,1-1.457,1.274A4.129,4.129,0,0,1,100.513,18.166Zm.955-8.06a2.195,2.195,0,0,0-1.623.631,4.484,4.484,0,0,0-1.1,1.951l4.366.008.033-.133a2.457,2.457,0,0,0-.336-1.739A1.581,1.581,0,0,0,101.468,10.106Zm9.563.282-.706-.075a2.571,2.571,0,0,0-2.274,1.3L106.946,18h-1.5L107,9.019l1.453-.008-.224,1.046a2.685,2.685,0,0,1,2.25-1.22,2.756,2.756,0,0,1,.714.125Zm5.636,5.18q.125-.93-1.021-1.312l-1.561-.457q-1.976-.681-1.909-2.258A2.487,2.487,0,0,1,113.259,9.6a3.858,3.858,0,0,1,2.411-.743,3.216,3.216,0,0,1,2.212.793,2.511,2.511,0,0,1,.818,2.021l-1.494-.008a1.4,1.4,0,0,0-.423-1.1,1.675,1.675,0,0,0-1.17-.44,2.187,2.187,0,0,0-1.345.382,1.4,1.4,0,0,0-.606.979q-.108.78.955,1.137l.755.208a4.864,4.864,0,0,1,2.191,1.038,1.982,1.982,0,0,1,.6,1.585,2.518,2.518,0,0,1-.548,1.461,3.132,3.132,0,0,1-1.328.95,4.442,4.442,0,0,1-1.768.3,3.5,3.5,0,0,1-2.357-.834,2.579,2.579,0,0,1-.9-2.1l1.5.008a1.592,1.592,0,0,0,.481,1.212,1.84,1.84,0,0,0,1.32.457,2.588,2.588,0,0,0,1.419-.344A1.325,1.325,0,0,0,116.666,15.568ZM16.584,37.094a12.834,12.834,0,0,1,.5-3.6,10.465,10.465,0,0,1,1.5-3.138,6.374,6.374,0,0,1,2.067-1.992l.315,1.013a6.611,6.611,0,0,0-1.988,2.839,12.307,12.307,0,0,0-.851,4.275l-.008.706a12.371,12.371,0,0,0,1.17,5.562,6.642,6.642,0,0,0,1.677,2.208l-.315.938a6.579,6.579,0,0,1-2.108-2.059A11.538,11.538,0,0,1,16.584,37.094ZM27.342,42H25.8V31.765L22.7,32.9V31.508l4.4-1.652h.241Zm10.384-5.312a3.757,3.757,0,0,1-1.15.921,3.119,3.119,0,0,1-1.465.349,3.22,3.22,0,0,1-1.822-.515,3.346,3.346,0,0,1-1.2-1.448,4.938,4.938,0,0,1-.423-2.063,5.031,5.031,0,0,1,.461-2.183,3.384,3.384,0,0,1,1.307-1.486,3.728,3.728,0,0,1,1.976-.515,3.375,3.375,0,0,1,2.826,1.341,5.847,5.847,0,0,1,1.033,3.656v.448q0,3.528-1.395,5.151a5.358,5.358,0,0,1-4.208,1.664h-.3v-1.3h.324a4.228,4.228,0,0,0,2.922-.99A4.248,4.248,0,0,0,37.726,36.688Zm-2.366,0a2.371,2.371,0,0,0,1.424-.473,2.789,2.789,0,0,0,.95-1.17V34.43a4.226,4.226,0,0,0-.656-2.457,2,2,0,0,0-3.287-.17,3.2,3.2,0,0,0-.614,2.046,3.332,3.332,0,0,0,.594,2.038A1.879,1.879,0,0,0,35.36,36.688Zm12.509,1.253h1.677v1.253H47.869V42H46.326V39.194h-5.5v-.9l5.412-8.375h1.635Zm-5.3,0h3.76V32.014l-.183.332Zm9.073-2,.614-6.026h6.192v1.419H53.556l-.365,3.3a3.9,3.9,0,0,1,2.017-.523A3.334,3.334,0,0,1,57.83,35.2a4.278,4.278,0,0,1,.971,2.951,4.129,4.129,0,0,1-1.009,2.943,3.676,3.676,0,0,1-2.818,1.075,3.82,3.82,0,0,1-2.615-.888,3.545,3.545,0,0,1-1.154-2.457h1.453a2.439,2.439,0,0,0,.739,1.565,2.3,2.3,0,0,0,1.577.527,2.072,2.072,0,0,0,1.681-.73,3.054,3.054,0,0,0,.61-2.017,2.8,2.8,0,0,0-.66-1.947,2.245,2.245,0,0,0-1.756-.735,2.532,2.532,0,0,0-1.577.44l-.407.332Zm16.4,1.552H63.99V36.239H68.04ZM78.632,42H77.088V31.765l-3.1,1.137V31.508l4.4-1.652h.241Zm10.384-5.312a3.757,3.757,0,0,1-1.15.921,3.119,3.119,0,0,1-1.465.349,3.22,3.22,0,0,1-1.822-.515,3.346,3.346,0,0,1-1.2-1.448,4.938,4.938,0,0,1-.423-2.063,5.031,5.031,0,0,1,.461-2.183,3.384,3.384,0,0,1,1.307-1.486,3.728,3.728,0,0,1,1.976-.515,3.375,3.375,0,0,1,2.826,1.341,5.847,5.847,0,0,1,1.033,3.656v.448q0,3.528-1.395,5.151a5.358,5.358,0,0,1-4.208,1.664h-.3v-1.3h.324a3.657,3.657,0,0,0,4.034-4.018Zm-2.366,0a2.371,2.371,0,0,0,1.424-.473,2.789,2.789,0,0,0,.95-1.17V34.43a4.226,4.226,0,0,0-.656-2.457,2,2,0,0,0-3.287-.17,3.2,3.2,0,0,0-.614,2.046,3.332,3.332,0,0,0,.594,2.038A1.879,1.879,0,0,0,86.651,36.688Zm6.732-.747L94,29.914h6.192v1.419H95.3l-.365,3.3a3.9,3.9,0,0,1,2.017-.523A3.334,3.334,0,0,1,99.575,35.2a4.278,4.278,0,0,1,.971,2.951,4.129,4.129,0,0,1-1.009,2.943,3.676,3.676,0,0,1-2.818,1.075,3.82,3.82,0,0,1-2.615-.888,3.545,3.545,0,0,1-1.154-2.457H94.4a2.439,2.439,0,0,0,.739,1.565,2.3,2.3,0,0,0,1.577.527,2.072,2.072,0,0,0,1.681-.73,3.054,3.054,0,0,0,.61-2.017,2.8,2.8,0,0,0-.66-1.947,2.245,2.245,0,0,0-1.756-.735,2.532,2.532,0,0,0-1.577.44l-.407.332Zm14.726.747a3.757,3.757,0,0,1-1.15.921,3.119,3.119,0,0,1-1.465.349,3.22,3.22,0,0,1-1.822-.515,3.346,3.346,0,0,1-1.2-1.448,4.938,4.938,0,0,1-.423-2.063,5.031,5.031,0,0,1,.461-2.183,3.384,3.384,0,0,1,1.307-1.486,3.728,3.728,0,0,1,1.976-.515,3.375,3.375,0,0,1,2.826,1.341,5.847,5.847,0,0,1,1.033,3.656v.448q0,3.528-1.395,5.151a5.358,5.358,0,0,1-4.208,1.664h-.3v-1.3h.324a3.657,3.657,0,0,0,4.034-4.018Zm-2.366,0a2.371,2.371,0,0,0,1.424-.473,2.789,2.789,0,0,0,.95-1.17V34.43a4.226,4.226,0,0,0-.656-2.457,2,2,0,0,0-3.287-.17,3.2,3.2,0,0,0-.614,2.046,3.332,3.332,0,0,0,.594,2.038A1.879,1.879,0,0,0,105.743,36.688Zm9.729.49a12.84,12.84,0,0,1-.486,3.549,10.493,10.493,0,0,1-1.486,3.134,6.51,6.51,0,0,1-2.1,2.042l-.324-.938a6.673,6.673,0,0,0,2.054-3.042,13.161,13.161,0,0,0,.793-4.578v-.266a13.665,13.665,0,0,0-.365-3.241,10.94,10.94,0,0,0-1.017-2.685A6.2,6.2,0,0,0,111.08,29.3l.324-.938a6.485,6.485,0,0,1,2.088,2.025,10.516,10.516,0,0,1,1.486,3.129A13.136,13.136,0,0,1,115.471,37.177Z" transform="translate(57.365 27.797)" fill="#12263f"/>
    </g>
    <path id="Trazado_608877" data-name="Trazado 608877" d="M25.505,14.415a3.682,3.682,0,0,1-1.714,1.316,6.924,6.924,0,0,1-2.561.436,4.966,4.966,0,0,1-2.623-.693A4.618,4.618,0,0,1,16.835,13.5a6.809,6.809,0,0,1-.643-2.963V9.484A6.356,6.356,0,0,1,17.466,5.25a4.44,4.44,0,0,1,3.582-1.5,4.586,4.586,0,0,1,3.046.967,4.213,4.213,0,0,1,1.411,2.743H23.912a2.635,2.635,0,0,0-2.855-2.407,2.821,2.821,0,0,0-2.428,1.126,5.5,5.5,0,0,0-.834,3.261v.989a5.151,5.151,0,0,0,.93,3.236,3.014,3.014,0,0,0,2.515,1.2,5.555,5.555,0,0,0,1.569-.2,2.426,2.426,0,0,0,1.112-.671V11.285h-2.8v-1.3h4.383Zm6.143,1.751a3.924,3.924,0,0,1-2.972-1.2,4.452,4.452,0,0,1-1.146-3.208v-.282a5.39,5.39,0,0,1,.51-2.386,3.982,3.982,0,0,1,1.428-1.644,3.59,3.59,0,0,1,1.988-.594A3.364,3.364,0,0,1,34.18,8.006a5,5,0,0,1,.971,3.3v.639H29.066a3.193,3.193,0,0,0,.776,2.146,2.44,2.44,0,0,0,1.888.818,2.675,2.675,0,0,0,1.378-.332,3.462,3.462,0,0,0,.988-.88l.938.73A3.772,3.772,0,0,1,31.648,16.166Zm-.191-8.052a2.048,2.048,0,0,0-1.561.677,3.288,3.288,0,0,0-.78,1.9h4.5v-.116a2.925,2.925,0,0,0-.631-1.814A1.928,1.928,0,0,0,31.457,8.114Zm6.923-1.1.05,1.129a3.273,3.273,0,0,1,2.689-1.295q2.847,0,2.872,3.212V16H42.456V10.057a2.068,2.068,0,0,0-.444-1.436,1.78,1.78,0,0,0-1.357-.465,2.216,2.216,0,0,0-1.312.4,2.706,2.706,0,0,0-.88,1.046V16H36.927V7.019Zm11.654,9.147a3.924,3.924,0,0,1-2.972-1.2,4.452,4.452,0,0,1-1.146-3.208v-.282a5.39,5.39,0,0,1,.51-2.386,3.982,3.982,0,0,1,1.428-1.644,3.59,3.59,0,0,1,1.988-.594,3.364,3.364,0,0,1,2.723,1.154,5,5,0,0,1,.971,3.3v.639H47.453a3.193,3.193,0,0,0,.776,2.146,2.44,2.44,0,0,0,1.888.818,2.675,2.675,0,0,0,1.378-.332,3.462,3.462,0,0,0,.988-.88l.938.73A3.772,3.772,0,0,1,50.034,16.166Zm-.191-8.052a2.048,2.048,0,0,0-1.561.677,3.288,3.288,0,0,0-.78,1.9H52v-.116a2.925,2.925,0,0,0-.631-1.814A1.928,1.928,0,0,0,49.843,8.114Zm9.812.282a4.6,4.6,0,0,0-.755-.058,2.024,2.024,0,0,0-2.05,1.287V16H55.314V7.019h1.494l.025,1.038a2.391,2.391,0,0,1,2.142-1.2,1.569,1.569,0,0,1,.681.116ZM66.279,16a3.226,3.226,0,0,1-.216-.946,3.426,3.426,0,0,1-2.557,1.112,3.17,3.17,0,0,1-2.179-.751,2.43,2.43,0,0,1-.851-1.905,2.539,2.539,0,0,1,1.067-2.179,5.029,5.029,0,0,1,3-.776h1.494V9.849a1.725,1.725,0,0,0-.481-1.282,1.935,1.935,0,0,0-1.419-.477,2.239,2.239,0,0,0-1.378.415,1.223,1.223,0,0,0-.556,1H60.659a2.119,2.119,0,0,1,.477-1.3,3.258,3.258,0,0,1,1.295-.992,4.356,4.356,0,0,1,1.8-.365,3.551,3.551,0,0,1,2.432.776,2.8,2.8,0,0,1,.913,2.137V13.9a5.054,5.054,0,0,0,.315,1.967V16Zm-2.548-1.17a2.7,2.7,0,0,0,1.37-.374,2.259,2.259,0,0,0,.938-.971V11.642h-1.2q-2.822,0-2.822,1.652a1.4,1.4,0,0,0,.481,1.129A1.85,1.85,0,0,0,63.731,14.83Zm9.853.083a2.212,2.212,0,0,0,1.436-.5,1.752,1.752,0,0,0,.681-1.245h1.453a2.785,2.785,0,0,1-.531,1.469,3.5,3.5,0,0,1-1.307,1.112,3.772,3.772,0,0,1-1.731.415,3.7,3.7,0,0,1-2.918-1.224,4.877,4.877,0,0,1-1.083-3.349v-.257A5.407,5.407,0,0,1,70.064,9a3.667,3.667,0,0,1,1.382-1.585,3.926,3.926,0,0,1,2.129-.564,3.6,3.6,0,0,1,2.511.9,3.234,3.234,0,0,1,1.067,2.349H75.7a2.116,2.116,0,0,0-.66-1.432,2.053,2.053,0,0,0-1.465-.56,2.149,2.149,0,0,0-1.814.843,3.957,3.957,0,0,0-.643,2.436v.291a3.878,3.878,0,0,0,.639,2.391A2.16,2.16,0,0,0,73.584,14.913ZM80.548,16H79.012V7.019h1.536ZM78.888,4.636a.917.917,0,0,1,.228-.631.857.857,0,0,1,.677-.257.87.87,0,0,1,.681.257.907.907,0,0,1,.232.631.877.877,0,0,1-.232.623.886.886,0,0,1-.681.249.872.872,0,0,1-.677-.249A.886.886,0,0,1,78.888,4.636Zm3.71,6.79a5.3,5.3,0,0,1,.519-2.374,3.87,3.87,0,0,1,1.444-1.627,3.932,3.932,0,0,1,2.113-.573,3.788,3.788,0,0,1,2.968,1.27A4.886,4.886,0,0,1,90.774,11.5v.108a5.351,5.351,0,0,1-.5,2.353,3.813,3.813,0,0,1-1.436,1.623,3.977,3.977,0,0,1-2.146.581,3.778,3.778,0,0,1-2.959-1.27A4.861,4.861,0,0,1,82.6,11.534Zm1.544.183a3.842,3.842,0,0,0,.693,2.4A2.349,2.349,0,0,0,88.55,14a4.2,4.2,0,0,0,.689-2.569,3.836,3.836,0,0,0-.7-2.395,2.23,2.23,0,0,0-1.864-.917,2.205,2.205,0,0,0-1.834.9A4.17,4.17,0,0,0,84.142,11.609ZM87.371,3.25h1.859L87.006,5.69l-1.237,0Zm6.782,3.769.05,1.129a3.273,3.273,0,0,1,2.689-1.295q2.847,0,2.872,3.212V16H98.229V10.057a2.068,2.068,0,0,0-.444-1.436,1.78,1.78,0,0,0-1.357-.465,2.216,2.216,0,0,0-1.312.4,2.706,2.706,0,0,0-.88,1.046V16H92.7V7.019Zm16.319,1.527,2.9-4.632h1.876l-3.818,5.993L115.336,16h-1.893l-2.972-4.715L107.484,16H105.6l3.918-6.093-3.827-5.993h1.868ZM15.989,35.094a12.834,12.834,0,0,1,.5-3.6,10.465,10.465,0,0,1,1.5-3.138,6.374,6.374,0,0,1,2.067-1.992l.315,1.013a6.611,6.611,0,0,0-1.988,2.839,12.307,12.307,0,0,0-.851,4.275l-.008.706a12.371,12.371,0,0,0,1.17,5.562,6.642,6.642,0,0,0,1.677,2.208l-.315.938a6.579,6.579,0,0,1-2.108-2.059A11.538,11.538,0,0,1,15.989,35.094ZM26.746,40H25.2V29.765l-3.1,1.137V29.508l4.4-1.652h.241Zm10.384-5.312a3.757,3.757,0,0,1-1.15.921,3.119,3.119,0,0,1-1.465.349,3.22,3.22,0,0,1-1.822-.515,3.346,3.346,0,0,1-1.2-1.448,4.938,4.938,0,0,1-.423-2.063,5.031,5.031,0,0,1,.461-2.183,3.384,3.384,0,0,1,1.307-1.486,3.728,3.728,0,0,1,1.976-.515,3.375,3.375,0,0,1,2.826,1.341,5.847,5.847,0,0,1,1.033,3.656v.448q0,3.528-1.395,5.151a5.358,5.358,0,0,1-4.208,1.664h-.3v-1.3H33.1a4.228,4.228,0,0,0,2.922-.99A4.248,4.248,0,0,0,37.131,34.688Zm-2.366,0a2.371,2.371,0,0,0,1.424-.473,2.789,2.789,0,0,0,.95-1.17V32.43a4.226,4.226,0,0,0-.656-2.457A2,2,0,0,0,33.2,29.8a3.2,3.2,0,0,0-.614,2.046,3.332,3.332,0,0,0,.594,2.038A1.879,1.879,0,0,0,34.765,34.688Zm12.053-6.782v1.3h-.282a4.043,4.043,0,0,0-2.855,1.063,4.421,4.421,0,0,0-1.229,2.9,3.278,3.278,0,0,1,2.606-1.1,3.134,3.134,0,0,1,2.519,1.112,4.29,4.29,0,0,1,.942,2.872A4.277,4.277,0,0,1,47.5,39.045a3.5,3.5,0,0,1-2.727,1.121,3.45,3.45,0,0,1-2.814-1.332A5.28,5.28,0,0,1,40.883,35.4v-.589a7.956,7.956,0,0,1,1.424-5.1,5.228,5.228,0,0,1,4.238-1.805ZM44.8,33.351a2.581,2.581,0,0,0-2.374,1.66v.564a3.965,3.965,0,0,0,.672,2.407,2.015,2.015,0,0,0,1.677.913,1.952,1.952,0,0,0,1.631-.764,3.668,3.668,0,0,0-.008-4.013A1.929,1.929,0,0,0,44.8,33.351Zm13.115,1.494a7.023,7.023,0,0,1-.921,4.009,3.829,3.829,0,0,1-5.744.029,6.666,6.666,0,0,1-.963-3.831V33a6.867,6.867,0,0,1,.921-3.959A3.9,3.9,0,0,1,56.97,29a6.627,6.627,0,0,1,.946,3.856Zm-1.536-2.1a5.627,5.627,0,0,0-.548-2.843A1.886,1.886,0,0,0,54.1,29.01a1.861,1.861,0,0,0-1.718.888,5.494,5.494,0,0,0-.556,2.731v2.457a5.717,5.717,0,0,0,.569,2.893,1.882,1.882,0,0,0,1.722.934,1.856,1.856,0,0,0,1.689-.88,5.51,5.51,0,0,0,.577-2.772Zm11.065,2.748H63.394V34.239h4.051ZM78.037,40H76.493V29.765L73.4,30.9V29.508l4.4-1.652h.241Zm10.384-5.312a3.757,3.757,0,0,1-1.15.921,3.119,3.119,0,0,1-1.465.349,3.22,3.22,0,0,1-1.822-.515,3.346,3.346,0,0,1-1.2-1.448,4.938,4.938,0,0,1-.423-2.063,5.031,5.031,0,0,1,.461-2.183,3.384,3.384,0,0,1,1.307-1.486,3.728,3.728,0,0,1,1.976-.515,3.375,3.375,0,0,1,2.826,1.341,5.847,5.847,0,0,1,1.033,3.656v.448q0,3.528-1.395,5.151a5.358,5.358,0,0,1-4.208,1.664h-.3v-1.3h.324a4.228,4.228,0,0,0,2.922-.99A4.248,4.248,0,0,0,88.421,34.688Zm-2.366,0a2.371,2.371,0,0,0,1.424-.473,2.789,2.789,0,0,0,.95-1.17V32.43a4.226,4.226,0,0,0-.656-2.457,2,2,0,0,0-3.287-.17,3.2,3.2,0,0,0-.614,2.046,3.332,3.332,0,0,0,.594,2.038A1.879,1.879,0,0,0,86.055,34.688Zm13.356-3.619a2.807,2.807,0,0,1-.477,1.61,3.248,3.248,0,0,1-1.291,1.1,3.464,3.464,0,0,1,1.5,1.187,2.987,2.987,0,0,1,.552,1.768,3.158,3.158,0,0,1-1.058,2.5,4.64,4.64,0,0,1-5.578,0,3.173,3.173,0,0,1-1.05-2.494,3.076,3.076,0,0,1,.535-1.768,3.332,3.332,0,0,1,1.482-1.2,3.167,3.167,0,0,1-1.27-1.1,2.846,2.846,0,0,1-.465-1.6,3.124,3.124,0,0,1,.979-2.424,4.159,4.159,0,0,1,5.159,0A3.117,3.117,0,0,1,99.411,31.068ZM98.158,36.7a2.228,2.228,0,0,0-.643-1.652,2.281,2.281,0,0,0-1.681-.639A2.161,2.161,0,0,0,93.543,36.7a2.145,2.145,0,0,0,.61,1.619,2.726,2.726,0,0,0,3.391,0A2.14,2.14,0,0,0,98.158,36.7ZM95.85,29.01a1.981,1.981,0,0,0-1.465.56,2.319,2.319,0,0,0-.008,3.013,2.193,2.193,0,0,0,2.947,0,2.272,2.272,0,0,0-.021-2.992A1.954,1.954,0,0,0,95.85,29.01Zm13.356,5.835a7.023,7.023,0,0,1-.921,4.009,3.829,3.829,0,0,1-5.744.029,6.666,6.666,0,0,1-.963-3.831V33a6.867,6.867,0,0,1,.921-3.959A3.9,3.9,0,0,1,108.26,29a6.627,6.627,0,0,1,.946,3.856Zm-1.536-2.1a5.627,5.627,0,0,0-.548-2.843,1.886,1.886,0,0,0-1.735-.892,1.861,1.861,0,0,0-1.718.888,5.494,5.494,0,0,0-.556,2.731v2.457a5.717,5.717,0,0,0,.569,2.893,1.882,1.882,0,0,0,1.722.934,1.856,1.856,0,0,0,1.689-.88,5.51,5.51,0,0,0,.577-2.772Zm7.205,2.432a12.84,12.84,0,0,1-.486,3.549,10.493,10.493,0,0,1-1.486,3.134,6.51,6.51,0,0,1-2.1,2.042l-.324-.938a6.673,6.673,0,0,0,2.054-3.042,13.161,13.161,0,0,0,.793-4.578v-.266a13.665,13.665,0,0,0-.365-3.241,10.94,10.94,0,0,0-1.017-2.685,6.2,6.2,0,0,0-1.465-1.851l.324-.938a6.485,6.485,0,0,1,2.088,2.025,10.516,10.516,0,0,1,1.486,3.129A13.136,13.136,0,0,1,114.876,35.177Z" transform="translate(1069 746.165)" fill="#12263f"/>
    <path id="Trazado_608878" data-name="Trazado 608878" d="M16.86,16.7h5.728V18h-7.33V5.914h1.6Zm6.9-3.271a5.3,5.3,0,0,1,.519-2.374,3.87,3.87,0,0,1,1.444-1.627,3.932,3.932,0,0,1,2.113-.573,3.788,3.788,0,0,1,2.968,1.27A4.886,4.886,0,0,1,31.934,13.5v.108a5.351,5.351,0,0,1-.5,2.353A3.813,3.813,0,0,1,30,17.585a3.977,3.977,0,0,1-2.146.581,3.778,3.778,0,0,1-2.959-1.27,4.861,4.861,0,0,1-1.133-3.362Zm1.544.183a3.842,3.842,0,0,0,.693,2.4A2.349,2.349,0,0,0,29.71,16a4.2,4.2,0,0,0,.689-2.569,3.836,3.836,0,0,0-.7-2.395,2.23,2.23,0,0,0-1.864-.917,2.205,2.205,0,0,0-1.834.9A4.17,4.17,0,0,0,25.3,13.609ZM39.09,15.618a1.13,1.13,0,0,0-.469-.967,4.514,4.514,0,0,0-1.635-.594,7.731,7.731,0,0,1-1.851-.6,2.633,2.633,0,0,1-1.013-.83,1.986,1.986,0,0,1-.328-1.146,2.33,2.33,0,0,1,.934-1.868,3.647,3.647,0,0,1,2.386-.764,3.753,3.753,0,0,1,2.478.789,2.5,2.5,0,0,1,.95,2.017H39a1.386,1.386,0,0,0-.535-1.087,2.006,2.006,0,0,0-1.349-.457,2.1,2.1,0,0,0-1.312.365,1.15,1.15,0,0,0-.473.955.932.932,0,0,0,.44.838,5.413,5.413,0,0,0,1.59.54,8.283,8.283,0,0,1,1.864.614,2.718,2.718,0,0,1,1.058.859,2.112,2.112,0,0,1,.344,1.224,2.3,2.3,0,0,1-.963,1.93,4.039,4.039,0,0,1-2.5.726,4.523,4.523,0,0,1-1.909-.382,3.105,3.105,0,0,1-1.3-1.067,2.571,2.571,0,0,1-.469-1.482h1.536a1.59,1.59,0,0,0,.618,1.224,2.4,2.4,0,0,0,1.523.452,2.476,2.476,0,0,0,1.4-.353A1.084,1.084,0,0,0,39.09,15.618Zm9.8-6.607-.191,1a3.512,3.512,0,0,1,2.731-1.162,2.771,2.771,0,0,1,1.448.39A1.914,1.914,0,0,1,53.7,10.3a3.708,3.708,0,0,1,2.98-1.444,2.375,2.375,0,0,1,1.984.9,3.232,3.232,0,0,1,.473,2.341L58.148,18H56.654l.979-5.918a3.127,3.127,0,0,0,0-.789q-.158-1.129-1.478-1.154a2.269,2.269,0,0,0-1.49.51,2.361,2.361,0,0,0-.859,1.382L52.786,18H51.275l1-5.91a1.9,1.9,0,0,0-.278-1.419,1.463,1.463,0,0,0-1.2-.515,2.46,2.46,0,0,0-2.233,1.278L47.424,18h-1.5l1.561-8.981ZM62.091,18H60.6l1.561-8.981h1.494ZM63.328,5.74a.822.822,0,0,1,.635.228.854.854,0,0,1,.253.643.886.886,0,0,1-.888.9.828.828,0,0,1-.639-.224.812.812,0,0,1-.241-.631.942.942,0,0,1,.249-.647A.878.878,0,0,1,63.328,5.74ZM66.175,18H64.681L66.889,5.25h1.5Zm4.084,0H68.765L70.973,5.25h1.5Zm6.342.166a3.238,3.238,0,0,1-2.623-1.237,4.256,4.256,0,0,1-.8-3.08l.042-.357a5.976,5.976,0,0,1,.793-2.44A4.611,4.611,0,0,1,75.6,9.388a3.709,3.709,0,0,1,2.025-.535,2.856,2.856,0,0,1,2.175.921,3.789,3.789,0,0,1,.863,2.407,7.035,7.035,0,0,1-.033,1.079l-.091.689H74.675a3.034,3.034,0,0,0,.4,2.075,1.907,1.907,0,0,0,1.648.888,3.2,3.2,0,0,0,2.457-1.2l.863.73a3.951,3.951,0,0,1-1.457,1.274A4.129,4.129,0,0,1,76.6,18.166Zm.955-8.06a2.195,2.195,0,0,0-1.623.631,4.484,4.484,0,0,0-1.1,1.951L79.2,12.7l.033-.133a2.457,2.457,0,0,0-.336-1.739A1.581,1.581,0,0,0,77.555,10.106Zm6.956-1.1L84.3,10.147a3.541,3.541,0,0,1,2.756-1.295,2.228,2.228,0,0,1,1.876.88,3.418,3.418,0,0,1,.448,2.382L88.4,18h-1.5l.988-5.9a3.147,3.147,0,0,0,.008-.755,1.241,1.241,0,0,0-1.37-1.186A2.828,2.828,0,0,0,84.146,11.6L83.034,18h-1.5l1.561-8.981Zm9.181,0-.216,1.137a3.541,3.541,0,0,1,2.756-1.295,2.228,2.228,0,0,1,1.876.88,3.418,3.418,0,0,1,.448,2.382L97.577,18h-1.5l.988-5.9a3.147,3.147,0,0,0,.008-.755,1.241,1.241,0,0,0-1.37-1.186A2.828,2.828,0,0,0,93.327,11.6L92.215,18h-1.5l1.561-8.981ZM101.52,18h-1.494l1.561-8.981h1.494Zm1.237-12.26a.822.822,0,0,1,.635.228.854.854,0,0,1,.253.643.886.886,0,0,1-.888.9.828.828,0,0,1-.639-.224.812.812,0,0,1-.241-.631.942.942,0,0,1,.249-.647A.878.878,0,0,1,102.757,5.74ZM109.472,18a2.012,2.012,0,0,1-.058-.473l.025-.473a3.682,3.682,0,0,1-2.623,1.112,2.684,2.684,0,0,1-1.93-.751,2.274,2.274,0,0,1-.677-1.839,2.765,2.765,0,0,1,1.249-2.229,5.318,5.318,0,0,1,3.067-.8l1.569.008.1-.714a1.641,1.641,0,0,0-.311-1.274,1.5,1.5,0,0,0-1.183-.486,2.317,2.317,0,0,0-1.365.378,1.607,1.607,0,0,0-.726,1.042l-1.511.008a2.408,2.408,0,0,1,.614-1.4,3.574,3.574,0,0,1,1.386-.946,4.478,4.478,0,0,1,1.751-.32,2.978,2.978,0,0,1,2.183.851,2.639,2.639,0,0,1,.656,2.171l-.73,4.449-.042.639a3.133,3.133,0,0,0,.1.9L111,18Zm-2.357-1.162a2.62,2.62,0,0,0,1.365-.344,3.458,3.458,0,0,0,1.108-1l.324-1.851-1.137-.008a4.308,4.308,0,0,0-2.175.448,1.651,1.651,0,0,0-.855,1.27,1.286,1.286,0,0,0,.295,1.05A1.4,1.4,0,0,0,107.115,16.838ZM114.66,18h-1.494l2.208-12.75h1.5Zm8.019-2.432q.125-.93-1.021-1.312L120.1,13.8q-1.976-.681-1.909-2.258A2.487,2.487,0,0,1,119.271,9.6a3.858,3.858,0,0,1,2.411-.743,3.216,3.216,0,0,1,2.212.793,2.511,2.511,0,0,1,.818,2.021l-1.494-.008a1.4,1.4,0,0,0-.423-1.1,1.675,1.675,0,0,0-1.17-.44,2.187,2.187,0,0,0-1.345.382,1.4,1.4,0,0,0-.606.979q-.108.78.955,1.137l.755.208a4.864,4.864,0,0,1,2.191,1.038,1.982,1.982,0,0,1,.6,1.585,2.518,2.518,0,0,1-.548,1.461,3.132,3.132,0,0,1-1.328.95,4.442,4.442,0,0,1-1.768.3,3.5,3.5,0,0,1-2.357-.834,2.579,2.579,0,0,1-.9-2.1l1.5.008a1.592,1.592,0,0,0,.481,1.212,1.84,1.84,0,0,0,1.32.457A2.588,2.588,0,0,0,122,16.56,1.325,1.325,0,0,0,122.679,15.568ZM24.364,37.094a12.834,12.834,0,0,1,.5-3.6,10.465,10.465,0,0,1,1.5-3.138,6.374,6.374,0,0,1,2.067-1.992l.315,1.013a6.611,6.611,0,0,0-1.988,2.839,12.307,12.307,0,0,0-.851,4.275l-.008.706a12.371,12.371,0,0,0,1.17,5.562,6.642,6.642,0,0,0,1.677,2.208l-.315.938a6.579,6.579,0,0,1-2.108-2.059A11.538,11.538,0,0,1,24.364,37.094ZM35.122,42H33.578V31.765l-3.1,1.137V31.508l4.4-1.652h.241Zm10.384-5.312a3.757,3.757,0,0,1-1.15.921,3.119,3.119,0,0,1-1.465.349,3.22,3.22,0,0,1-1.822-.515,3.346,3.346,0,0,1-1.2-1.448,4.938,4.938,0,0,1-.423-2.063,5.031,5.031,0,0,1,.461-2.183,3.384,3.384,0,0,1,1.307-1.486,3.728,3.728,0,0,1,1.976-.515,3.375,3.375,0,0,1,2.826,1.341,5.847,5.847,0,0,1,1.033,3.656v.448q0,3.528-1.395,5.151a5.358,5.358,0,0,1-4.208,1.664h-.3v-1.3h.324a3.657,3.657,0,0,0,4.034-4.018Zm-2.366,0a2.371,2.371,0,0,0,1.424-.473,2.789,2.789,0,0,0,.95-1.17V34.43a4.226,4.226,0,0,0-.656-2.457,2,2,0,0,0-3.287-.17,3.2,3.2,0,0,0-.614,2.046,3.332,3.332,0,0,0,.594,2.038A1.879,1.879,0,0,0,43.14,36.688ZM56.5,33.068a2.807,2.807,0,0,1-.477,1.61,3.248,3.248,0,0,1-1.291,1.1,3.464,3.464,0,0,1,1.5,1.187,2.987,2.987,0,0,1,.552,1.768,3.158,3.158,0,0,1-1.058,2.5,4.64,4.64,0,0,1-5.578,0,3.173,3.173,0,0,1-1.05-2.494,3.076,3.076,0,0,1,.535-1.768,3.332,3.332,0,0,1,1.482-1.2,3.167,3.167,0,0,1-1.27-1.1,2.846,2.846,0,0,1-.465-1.6,3.124,3.124,0,0,1,.979-2.424,4.159,4.159,0,0,1,5.159,0A3.117,3.117,0,0,1,56.5,33.068ZM55.243,38.7a2.228,2.228,0,0,0-.643-1.652,2.281,2.281,0,0,0-1.681-.639A2.161,2.161,0,0,0,50.628,38.7a2.145,2.145,0,0,0,.61,1.619,2.726,2.726,0,0,0,3.391,0A2.14,2.14,0,0,0,55.243,38.7ZM52.935,31.01a1.981,1.981,0,0,0-1.465.56,2.319,2.319,0,0,0-.008,3.013,2.193,2.193,0,0,0,2.947,0,2.272,2.272,0,0,0-.021-2.992A1.954,1.954,0,0,0,52.935,31.01ZM63.76,42H62.216V31.765l-3.1,1.137V31.508l4.4-1.652h.241Zm7.853-4.507H67.561V36.239h4.051ZM78,42H76.451V31.765l-3.1,1.137V31.508l4.4-1.652H78ZM88.38,36.688a3.757,3.757,0,0,1-1.15.921,3.119,3.119,0,0,1-1.465.349,3.22,3.22,0,0,1-1.822-.515,3.346,3.346,0,0,1-1.2-1.448,4.938,4.938,0,0,1-.423-2.063,5.031,5.031,0,0,1,.461-2.183,3.384,3.384,0,0,1,1.307-1.486,3.728,3.728,0,0,1,1.976-.515,3.375,3.375,0,0,1,2.826,1.341,5.847,5.847,0,0,1,1.033,3.656v.448q0,3.528-1.395,5.151a5.358,5.358,0,0,1-4.208,1.664h-.3v-1.3h.324a3.657,3.657,0,0,0,4.034-4.018Zm-2.366,0a2.371,2.371,0,0,0,1.424-.473,2.789,2.789,0,0,0,.95-1.17V34.43a4.226,4.226,0,0,0-.656-2.457,2,2,0,0,0-3.287-.17,3.2,3.2,0,0,0-.614,2.046,3.332,3.332,0,0,0,.594,2.038A1.879,1.879,0,0,0,86.014,36.688Zm11.912,0a3.757,3.757,0,0,1-1.15.921,3.119,3.119,0,0,1-1.465.349,3.22,3.22,0,0,1-1.822-.515,3.346,3.346,0,0,1-1.2-1.448,4.938,4.938,0,0,1-.423-2.063,5.031,5.031,0,0,1,.461-2.183,3.384,3.384,0,0,1,1.307-1.486,3.728,3.728,0,0,1,1.976-.515,3.375,3.375,0,0,1,2.826,1.341,5.847,5.847,0,0,1,1.033,3.656v.448q0,3.528-1.395,5.151a5.358,5.358,0,0,1-4.208,1.664h-.3v-1.3h.324a3.657,3.657,0,0,0,4.034-4.018Zm-2.366,0a2.371,2.371,0,0,0,1.424-.473,2.789,2.789,0,0,0,.95-1.17V34.43a4.226,4.226,0,0,0-.656-2.457,2,2,0,0,0-3.287-.17,3.2,3.2,0,0,0-.614,2.046,3.332,3.332,0,0,0,.594,2.038A1.879,1.879,0,0,0,95.56,36.688Zm8.259-1.478h1.154a2.536,2.536,0,0,0,1.71-.573,1.914,1.914,0,0,0,.623-1.5,1.875,1.875,0,0,0-2.117-2.125,2.2,2.2,0,0,0-1.59.569,1.99,1.99,0,0,0-.594,1.507H101.47a3.083,3.083,0,0,1,1.05-2.386,3.825,3.825,0,0,1,2.669-.95,3.78,3.78,0,0,1,2.681.9,3.269,3.269,0,0,1,.971,2.515,2.653,2.653,0,0,1-.51,1.527,3.082,3.082,0,0,1-1.39,1.1,2.97,2.97,0,0,1,1.54,1.046,2.9,2.9,0,0,1,.544,1.785,3.3,3.3,0,0,1-1.062,2.582,3.979,3.979,0,0,1-2.764.955,4.084,4.084,0,0,1-2.768-.921,3.057,3.057,0,0,1-1.067-2.432h1.544a1.975,1.975,0,0,0,.623,1.527,2.368,2.368,0,0,0,1.668.573,2.324,2.324,0,0,0,1.7-.581,2.239,2.239,0,0,0,.589-1.668,2.032,2.032,0,0,0-.647-1.619,2.821,2.821,0,0,0-1.868-.581h-1.154Zm11.015,1.967a12.84,12.84,0,0,1-.486,3.549,10.493,10.493,0,0,1-1.486,3.134,6.51,6.51,0,0,1-2.1,2.042l-.324-.938a6.673,6.673,0,0,0,2.054-3.042,13.161,13.161,0,0,0,.793-4.578v-.266a13.665,13.665,0,0,0-.365-3.241,10.94,10.94,0,0,0-1.017-2.685,6.2,6.2,0,0,0-1.465-1.851l.324-.938a6.485,6.485,0,0,1,2.088,2.025,10.516,10.516,0,0,1,1.486,3.129A13.136,13.136,0,0,1,114.834,37.177Z" transform="translate(1071 885)" fill="#12263f"/>
    <path id="Trazado_608879" data-name="Trazado 608879" d="M15.883,14.7h5.728V16h-7.33V3.914h1.6ZM28.733,16a3.226,3.226,0,0,1-.216-.946,3.426,3.426,0,0,1-2.557,1.112,3.17,3.17,0,0,1-2.179-.751,2.43,2.43,0,0,1-.851-1.905A2.539,2.539,0,0,1,24,11.331a5.029,5.029,0,0,1,3-.776h1.494V9.849a1.725,1.725,0,0,0-.481-1.282,1.935,1.935,0,0,0-1.419-.477,2.239,2.239,0,0,0-1.378.415,1.223,1.223,0,0,0-.556,1H23.113a2.119,2.119,0,0,1,.477-1.3,3.258,3.258,0,0,1,1.295-.992,4.356,4.356,0,0,1,1.8-.365,3.551,3.551,0,0,1,2.432.776,2.8,2.8,0,0,1,.913,2.137V13.9a5.054,5.054,0,0,0,.315,1.967V16Zm-2.548-1.17a2.7,2.7,0,0,0,1.37-.374,2.259,2.259,0,0,0,.938-.971V11.642h-1.2q-2.822,0-2.822,1.652a1.4,1.4,0,0,0,.481,1.129A1.85,1.85,0,0,0,26.184,14.83Zm10.094-3.4a5.279,5.279,0,0,1,.971-3.341,3.348,3.348,0,0,1,5.138-.079l.075-1h1.4v8.766a3.654,3.654,0,0,1-1.033,2.748,3.814,3.814,0,0,1-2.777,1,4.619,4.619,0,0,1-1.9-.415,3.272,3.272,0,0,1-1.419-1.137l.8-.921a3,3,0,0,0,2.416,1.22,2.353,2.353,0,0,0,1.747-.631,2.411,2.411,0,0,0,.627-1.776V15.1a3.156,3.156,0,0,1-2.515,1.063,3.068,3.068,0,0,1-2.552-1.27A5.55,5.55,0,0,1,36.278,11.435Zm1.544.174A4.027,4.027,0,0,0,38.445,14a2.023,2.023,0,0,0,1.743.867,2.249,2.249,0,0,0,2.133-1.32v-4.1A2.276,2.276,0,0,0,40.2,8.156a2.041,2.041,0,0,0-1.751.872A4.386,4.386,0,0,0,37.822,11.609Zm12.086,4.557a3.924,3.924,0,0,1-2.972-1.2,4.452,4.452,0,0,1-1.146-3.208v-.282A5.39,5.39,0,0,1,46.3,9.09a3.982,3.982,0,0,1,1.428-1.644,3.59,3.59,0,0,1,1.988-.594A3.364,3.364,0,0,1,52.44,8.006a5,5,0,0,1,.971,3.3v.639H47.326a3.193,3.193,0,0,0,.776,2.146,2.44,2.44,0,0,0,1.888.818,2.675,2.675,0,0,0,1.378-.332,3.462,3.462,0,0,0,.988-.88l.938.73A3.772,3.772,0,0,1,49.908,16.166Zm-.191-8.052a2.048,2.048,0,0,0-1.561.677,3.288,3.288,0,0,0-.78,1.9h4.5v-.116a2.925,2.925,0,0,0-.631-1.814A1.928,1.928,0,0,0,49.717,8.114Zm6.923-1.1.05,1.129a3.273,3.273,0,0,1,2.689-1.295q2.847,0,2.872,3.212V16H60.716V10.057a2.068,2.068,0,0,0-.444-1.436,1.78,1.78,0,0,0-1.357-.465,2.216,2.216,0,0,0-1.312.4,2.706,2.706,0,0,0-.88,1.046V16H55.187V7.019Zm11.654,9.147a3.924,3.924,0,0,1-2.972-1.2,4.452,4.452,0,0,1-1.146-3.208v-.282a5.39,5.39,0,0,1,.51-2.386,3.982,3.982,0,0,1,1.428-1.644A3.59,3.59,0,0,1,68.1,6.853a3.364,3.364,0,0,1,2.723,1.154,5,5,0,0,1,.971,3.3v.639H65.713a3.193,3.193,0,0,0,.776,2.146,2.44,2.44,0,0,0,1.888.818,2.675,2.675,0,0,0,1.378-.332,3.462,3.462,0,0,0,.988-.88l.938.73A3.772,3.772,0,0,1,68.294,16.166ZM68.1,8.114a2.048,2.048,0,0,0-1.561.677,3.288,3.288,0,0,0-.78,1.9h4.5v-.116a2.925,2.925,0,0,0-.631-1.814A1.928,1.928,0,0,0,68.1,8.114Zm9.812.282a4.6,4.6,0,0,0-.755-.058,2.024,2.024,0,0,0-2.05,1.287V16H73.574V7.019h1.494l.025,1.038a2.391,2.391,0,0,1,2.142-1.2,1.569,1.569,0,0,1,.681.116ZM84.539,16a3.226,3.226,0,0,1-.216-.946,3.426,3.426,0,0,1-2.557,1.112,3.17,3.17,0,0,1-2.179-.751,2.43,2.43,0,0,1-.851-1.905A2.539,2.539,0,0,1,79.8,11.331a5.029,5.029,0,0,1,3-.776H84.3V9.849a1.725,1.725,0,0,0-.481-1.282A1.935,1.935,0,0,0,82.4,8.089a2.239,2.239,0,0,0-1.378.415,1.223,1.223,0,0,0-.556,1H78.919a2.119,2.119,0,0,1,.477-1.3,3.258,3.258,0,0,1,1.295-.992,4.356,4.356,0,0,1,1.8-.365,3.551,3.551,0,0,1,2.432.776,2.8,2.8,0,0,1,.913,2.137V13.9a5.054,5.054,0,0,0,.315,1.967V16Zm-2.548-1.17a2.7,2.7,0,0,0,1.37-.374,2.259,2.259,0,0,0,.938-.971V11.642h-1.2q-2.822,0-2.822,1.652a1.4,1.4,0,0,0,.481,1.129A1.85,1.85,0,0,0,81.991,14.83Zm9.853.083a2.212,2.212,0,0,0,1.436-.5,1.752,1.752,0,0,0,.681-1.245h1.453a2.785,2.785,0,0,1-.531,1.469,3.5,3.5,0,0,1-1.307,1.112,3.772,3.772,0,0,1-1.731.415,3.7,3.7,0,0,1-2.918-1.224,4.877,4.877,0,0,1-1.083-3.349v-.257A5.407,5.407,0,0,1,88.324,9a3.667,3.667,0,0,1,1.382-1.585,3.926,3.926,0,0,1,2.129-.564,3.6,3.6,0,0,1,2.511.9,3.234,3.234,0,0,1,1.067,2.349H93.96a2.116,2.116,0,0,0-.66-1.432,2.053,2.053,0,0,0-1.465-.56,2.149,2.149,0,0,0-1.814.843,3.957,3.957,0,0,0-.643,2.436v.291a3.878,3.878,0,0,0,.639,2.391A2.16,2.16,0,0,0,91.844,14.913ZM98.808,16H97.272V7.019h1.536ZM97.148,4.636a.917.917,0,0,1,.228-.631.857.857,0,0,1,.677-.257.87.87,0,0,1,.681.257.907.907,0,0,1,.232.631.877.877,0,0,1-.232.623.886.886,0,0,1-.681.249.872.872,0,0,1-.677-.249A.886.886,0,0,1,97.148,4.636Zm3.71,6.79a5.3,5.3,0,0,1,.519-2.374,3.87,3.87,0,0,1,1.444-1.627,3.932,3.932,0,0,1,2.113-.573,3.788,3.788,0,0,1,2.968,1.27,4.886,4.886,0,0,1,1.133,3.378v.108a5.351,5.351,0,0,1-.5,2.353,3.813,3.813,0,0,1-1.436,1.623,3.977,3.977,0,0,1-2.146.581,3.778,3.778,0,0,1-2.959-1.27,4.861,4.861,0,0,1-1.133-3.362Zm1.544.183a3.842,3.842,0,0,0,.693,2.4A2.349,2.349,0,0,0,106.81,14a4.2,4.2,0,0,0,.689-2.569,3.836,3.836,0,0,0-.7-2.395,2.23,2.23,0,0,0-1.864-.917,2.205,2.205,0,0,0-1.834.9A4.17,4.17,0,0,0,102.4,11.609Zm3.229-8.359h1.859l-2.225,2.44-1.237,0Zm6.782,3.769.05,1.129a3.273,3.273,0,0,1,2.689-1.295q2.847,0,2.872,3.212V16h-1.536V10.057a2.068,2.068,0,0,0-.444-1.436,1.78,1.78,0,0,0-1.357-.465,2.216,2.216,0,0,0-1.312.4A2.706,2.706,0,0,0,112.5,9.6V16H110.96V7.019ZM125.985,14.7H132.9V16h-8.8V14.8l6.624-9.587h-6.516v-1.3h8.425V5.077Zm-98.049,20.4a12.834,12.834,0,0,1,.5-3.6,10.465,10.465,0,0,1,1.5-3.138A6.374,6.374,0,0,1,32,26.362l.315,1.013a6.611,6.611,0,0,0-1.988,2.839,12.307,12.307,0,0,0-.851,4.275l-.008.706a12.371,12.371,0,0,0,1.17,5.562,6.642,6.642,0,0,0,1.677,2.208L32,43.9a6.579,6.579,0,0,1-2.108-2.059A11.538,11.538,0,0,1,27.936,35.094ZM38.694,40H37.15V29.765l-3.1,1.137V29.508l4.4-1.652h.241Zm10.384-5.312a3.757,3.757,0,0,1-1.15.921,3.119,3.119,0,0,1-1.465.349,3.22,3.22,0,0,1-1.822-.515,3.346,3.346,0,0,1-1.2-1.448,4.938,4.938,0,0,1-.423-2.063,5.031,5.031,0,0,1,.461-2.183,3.384,3.384,0,0,1,1.307-1.486,3.728,3.728,0,0,1,1.976-.515,3.375,3.375,0,0,1,2.826,1.341,5.847,5.847,0,0,1,1.033,3.656v.448q0,3.528-1.395,5.151a5.358,5.358,0,0,1-4.208,1.664h-.3v-1.3h.324a4.228,4.228,0,0,0,2.922-.99A4.248,4.248,0,0,0,49.078,34.688Zm-2.366,0a2.371,2.371,0,0,0,1.424-.473,2.789,2.789,0,0,0,.95-1.17V32.43a4.226,4.226,0,0,0-.656-2.457,2,2,0,0,0-3.287-.17,3.2,3.2,0,0,0-.614,2.046,3.332,3.332,0,0,0,.594,2.038A1.879,1.879,0,0,0,46.712,34.688Zm11.912,0a3.757,3.757,0,0,1-1.15.921,3.119,3.119,0,0,1-1.465.349,3.22,3.22,0,0,1-1.822-.515,3.346,3.346,0,0,1-1.2-1.448,4.938,4.938,0,0,1-.423-2.063,5.031,5.031,0,0,1,.461-2.183,3.384,3.384,0,0,1,1.307-1.486,3.728,3.728,0,0,1,1.976-.515,3.375,3.375,0,0,1,2.826,1.341,5.847,5.847,0,0,1,1.033,3.656v.448q0,3.528-1.395,5.151a5.358,5.358,0,0,1-4.208,1.664h-.3v-1.3h.324a4.228,4.228,0,0,0,2.922-.99A4.248,4.248,0,0,0,58.624,34.688Zm-2.366,0a2.371,2.371,0,0,0,1.424-.473,2.789,2.789,0,0,0,.95-1.17V32.43a4.226,4.226,0,0,0-.656-2.457,2,2,0,0,0-3.287-.17,3.2,3.2,0,0,0-.614,2.046,3.332,3.332,0,0,0,.594,2.038A1.879,1.879,0,0,0,56.258,34.688Zm12.509,1.253h1.677v1.253H68.767V40H67.223V37.194h-5.5v-.9l5.412-8.375h1.635Zm-5.3,0h3.76V30.014l-.183.332Zm11.721-.448H71.133V34.239h4.051ZM84.439,40H76.52V38.9L80.7,34.248a9.939,9.939,0,0,0,1.282-1.714,2.861,2.861,0,0,0,.353-1.365,2.169,2.169,0,0,0-.573-1.552,2,2,0,0,0-1.527-.606,2.372,2.372,0,0,0-1.781.652,2.489,2.489,0,0,0-.635,1.814H76.288a3.565,3.565,0,0,1,1.075-2.7,3.985,3.985,0,0,1,2.876-1.029,3.829,3.829,0,0,1,2.665.884,3.015,3.015,0,0,1,.979,2.353q0,1.785-2.274,4.25l-3.237,3.511h6.068Zm9.206-5.155a7.023,7.023,0,0,1-.921,4.009,3.829,3.829,0,0,1-5.744.029,6.666,6.666,0,0,1-.963-3.831V33a6.867,6.867,0,0,1,.921-3.959A3.9,3.9,0,0,1,92.7,29a6.627,6.627,0,0,1,.946,3.856Zm-1.536-2.1a5.627,5.627,0,0,0-.548-2.843,1.886,1.886,0,0,0-1.735-.892,1.861,1.861,0,0,0-1.718.888,5.494,5.494,0,0,0-.556,2.731v2.457a5.717,5.717,0,0,0,.569,2.893,1.882,1.882,0,0,0,1.722.934,1.856,1.856,0,0,0,1.689-.88,5.51,5.51,0,0,0,.577-2.772ZM100.659,40H99.115V29.765l-3.1,1.137V29.508l4.4-1.652h.241Zm12.078-5.155a7.023,7.023,0,0,1-.921,4.009,3.829,3.829,0,0,1-5.744.029,6.666,6.666,0,0,1-.963-3.831V33a6.867,6.867,0,0,1,.921-3.959A3.9,3.9,0,0,1,111.79,29a6.627,6.627,0,0,1,.946,3.856Zm-1.536-2.1a5.627,5.627,0,0,0-.548-2.843,1.886,1.886,0,0,0-1.735-.892,1.861,1.861,0,0,0-1.718.888,5.494,5.494,0,0,0-.556,2.731v2.457a5.717,5.717,0,0,0,.569,2.893,1.882,1.882,0,0,0,1.722.934,1.856,1.856,0,0,0,1.689-.88,5.51,5.51,0,0,0,.577-2.772Zm7.205,2.432a12.84,12.84,0,0,1-.486,3.549,10.493,10.493,0,0,1-1.486,3.134,6.51,6.51,0,0,1-2.1,2.042l-.324-.938a6.673,6.673,0,0,0,2.054-3.042,13.161,13.161,0,0,0,.793-4.578v-.266a13.665,13.665,0,0,0-.365-3.241,10.94,10.94,0,0,0-1.017-2.685,6.2,6.2,0,0,0-1.465-1.851l.324-.938a6.485,6.485,0,0,1,2.088,2.025,10.516,10.516,0,0,1,1.486,3.129A13.136,13.136,0,0,1,118.406,35.177Z" transform="translate(705 885)" fill="#12263f"/>
    <path id="Trazado_608880" data-name="Trazado 608880" d="M20.451,14.7h5.728V16h-7.33V3.914h1.6ZM33.3,16a3.226,3.226,0,0,1-.216-.946,3.426,3.426,0,0,1-2.557,1.112,3.17,3.17,0,0,1-2.179-.751A2.43,2.43,0,0,1,27.5,13.51a2.539,2.539,0,0,1,1.067-2.179,5.029,5.029,0,0,1,3-.776H33.06V9.849a1.725,1.725,0,0,0-.481-1.282,1.935,1.935,0,0,0-1.419-.477,2.239,2.239,0,0,0-1.378.415,1.223,1.223,0,0,0-.556,1H27.681a2.119,2.119,0,0,1,.477-1.3,3.258,3.258,0,0,1,1.295-.992,4.356,4.356,0,0,1,1.8-.365,3.551,3.551,0,0,1,2.432.776A2.8,2.8,0,0,1,34.6,9.766V13.9a5.054,5.054,0,0,0,.315,1.967V16Zm-2.548-1.17a2.7,2.7,0,0,0,1.37-.374,2.259,2.259,0,0,0,.938-.971V11.642h-1.2q-2.822,0-2.822,1.652a1.4,1.4,0,0,0,.481,1.129A1.85,1.85,0,0,0,30.752,14.83Zm10.094-3.4a5.279,5.279,0,0,1,.971-3.341,3.348,3.348,0,0,1,5.138-.079l.075-1h1.4v8.766A3.654,3.654,0,0,1,47.4,18.532a3.814,3.814,0,0,1-2.777,1,4.619,4.619,0,0,1-1.9-.415A3.272,3.272,0,0,1,41.3,17.984l.8-.921a3,3,0,0,0,2.416,1.22,2.353,2.353,0,0,0,1.747-.631,2.411,2.411,0,0,0,.627-1.776V15.1a3.156,3.156,0,0,1-2.515,1.063,3.068,3.068,0,0,1-2.552-1.27A5.55,5.55,0,0,1,40.846,11.435Zm1.544.174A4.027,4.027,0,0,0,43.013,14a2.023,2.023,0,0,0,1.743.867,2.249,2.249,0,0,0,2.133-1.32v-4.1a2.276,2.276,0,0,0-2.117-1.287,2.041,2.041,0,0,0-1.751.872A4.386,4.386,0,0,0,42.39,11.609Zm12.086,4.557a3.924,3.924,0,0,1-2.972-1.2,4.452,4.452,0,0,1-1.146-3.208v-.282a5.39,5.39,0,0,1,.51-2.386A3.982,3.982,0,0,1,52.3,7.446a3.59,3.59,0,0,1,1.988-.594,3.364,3.364,0,0,1,2.723,1.154,5,5,0,0,1,.971,3.3v.639H51.894a3.193,3.193,0,0,0,.776,2.146,2.44,2.44,0,0,0,1.888.818,2.675,2.675,0,0,0,1.378-.332,3.462,3.462,0,0,0,.988-.88l.938.73A3.772,3.772,0,0,1,54.476,16.166Zm-.191-8.052a2.048,2.048,0,0,0-1.561.677,3.288,3.288,0,0,0-.78,1.9h4.5v-.116a2.925,2.925,0,0,0-.631-1.814A1.928,1.928,0,0,0,54.285,8.114Zm6.923-1.1.05,1.129a3.273,3.273,0,0,1,2.689-1.295q2.847,0,2.872,3.212V16H65.284V10.057a2.068,2.068,0,0,0-.444-1.436,1.78,1.78,0,0,0-1.357-.465,2.216,2.216,0,0,0-1.312.4,2.706,2.706,0,0,0-.88,1.046V16H59.755V7.019Zm11.654,9.147a3.924,3.924,0,0,1-2.972-1.2,4.452,4.452,0,0,1-1.146-3.208v-.282a5.39,5.39,0,0,1,.51-2.386,3.982,3.982,0,0,1,1.428-1.644,3.59,3.59,0,0,1,1.988-.594,3.364,3.364,0,0,1,2.723,1.154,5,5,0,0,1,.971,3.3v.639H70.281a3.193,3.193,0,0,0,.776,2.146,2.44,2.44,0,0,0,1.888.818,2.675,2.675,0,0,0,1.378-.332,3.462,3.462,0,0,0,.988-.88l.938.73A3.772,3.772,0,0,1,72.862,16.166Zm-.191-8.052a2.048,2.048,0,0,0-1.561.677,3.288,3.288,0,0,0-.78,1.9h4.5v-.116A2.925,2.925,0,0,0,74.2,8.758,1.928,1.928,0,0,0,72.671,8.114Zm9.812.282a4.6,4.6,0,0,0-.755-.058,2.024,2.024,0,0,0-2.05,1.287V16H78.142V7.019h1.494l.025,1.038a2.391,2.391,0,0,1,2.142-1.2,1.569,1.569,0,0,1,.681.116ZM89.107,16a3.226,3.226,0,0,1-.216-.946,3.426,3.426,0,0,1-2.557,1.112,3.17,3.17,0,0,1-2.179-.751A2.43,2.43,0,0,1,83.3,13.51a2.539,2.539,0,0,1,1.067-2.179,5.029,5.029,0,0,1,3-.776h1.494V9.849a1.725,1.725,0,0,0-.481-1.282,1.935,1.935,0,0,0-1.419-.477,2.239,2.239,0,0,0-1.378.415,1.223,1.223,0,0,0-.556,1H83.487a2.119,2.119,0,0,1,.477-1.3,3.258,3.258,0,0,1,1.295-.992,4.356,4.356,0,0,1,1.8-.365,3.551,3.551,0,0,1,2.432.776A2.8,2.8,0,0,1,90.4,9.766V13.9a5.054,5.054,0,0,0,.315,1.967V16Zm-2.548-1.17a2.7,2.7,0,0,0,1.37-.374,2.259,2.259,0,0,0,.938-.971V11.642h-1.2q-2.822,0-2.822,1.652a1.4,1.4,0,0,0,.481,1.129A1.85,1.85,0,0,0,86.559,14.83Zm9.853.083a2.212,2.212,0,0,0,1.436-.5,1.752,1.752,0,0,0,.681-1.245h1.453a2.785,2.785,0,0,1-.531,1.469,3.5,3.5,0,0,1-1.307,1.112,3.772,3.772,0,0,1-1.731.415,3.7,3.7,0,0,1-2.918-1.224,4.877,4.877,0,0,1-1.083-3.349v-.257A5.407,5.407,0,0,1,92.892,9a3.667,3.667,0,0,1,1.382-1.585A3.926,3.926,0,0,1,96.4,6.853a3.6,3.6,0,0,1,2.511.9,3.234,3.234,0,0,1,1.067,2.349H98.528a2.116,2.116,0,0,0-.66-1.432,2.053,2.053,0,0,0-1.465-.56,2.149,2.149,0,0,0-1.814.843,3.957,3.957,0,0,0-.643,2.436v.291a3.878,3.878,0,0,0,.639,2.391A2.16,2.16,0,0,0,96.412,14.913ZM103.376,16H101.84V7.019h1.536Zm-1.66-11.364a.917.917,0,0,1,.228-.631.857.857,0,0,1,.677-.257.87.87,0,0,1,.681.257.907.907,0,0,1,.232.631.877.877,0,0,1-.232.623.886.886,0,0,1-.681.249.872.872,0,0,1-.677-.249A.886.886,0,0,1,101.716,4.636Zm3.71,6.79a5.3,5.3,0,0,1,.519-2.374,3.87,3.87,0,0,1,1.444-1.627,3.932,3.932,0,0,1,2.113-.573,3.788,3.788,0,0,1,2.968,1.27A4.886,4.886,0,0,1,113.6,11.5v.108a5.351,5.351,0,0,1-.5,2.353,3.813,3.813,0,0,1-1.436,1.623,3.977,3.977,0,0,1-2.146.581,3.778,3.778,0,0,1-2.959-1.27,4.861,4.861,0,0,1-1.133-3.362Zm1.544.183a3.842,3.842,0,0,0,.693,2.4A2.349,2.349,0,0,0,111.378,14a4.2,4.2,0,0,0,.689-2.569,3.836,3.836,0,0,0-.7-2.395,2.23,2.23,0,0,0-1.864-.917,2.205,2.205,0,0,0-1.834.9A4.17,4.17,0,0,0,106.97,11.609ZM110.2,3.25h1.859l-2.225,2.44-1.237,0Zm6.782,3.769.05,1.129a3.273,3.273,0,0,1,2.689-1.295q2.847,0,2.872,3.212V16h-1.536V10.057a2.068,2.068,0,0,0-.444-1.436,1.78,1.78,0,0,0-1.357-.465,2.216,2.216,0,0,0-1.312.4,2.706,2.706,0,0,0-.88,1.046V16h-1.536V7.019ZM134.662,16a3.226,3.226,0,0,1-.216-.946,3.426,3.426,0,0,1-2.557,1.112,3.17,3.17,0,0,1-2.179-.751,2.43,2.43,0,0,1-.851-1.905,2.539,2.539,0,0,1,1.067-2.179,5.029,5.029,0,0,1,3-.776h1.494V9.849a1.725,1.725,0,0,0-.481-1.282,1.935,1.935,0,0,0-1.419-.477,2.239,2.239,0,0,0-1.378.415,1.223,1.223,0,0,0-.556,1h-1.544a2.119,2.119,0,0,1,.477-1.3,3.258,3.258,0,0,1,1.295-.992,4.356,4.356,0,0,1,1.8-.365,3.551,3.551,0,0,1,2.432.776,2.8,2.8,0,0,1,.913,2.137V13.9a5.054,5.054,0,0,0,.315,1.967V16Zm-2.548-1.17a2.7,2.7,0,0,0,1.37-.374,2.259,2.259,0,0,0,.938-.971V11.642h-1.2q-2.822,0-2.822,1.652a1.4,1.4,0,0,0,.481,1.129A1.85,1.85,0,0,0,132.113,14.83ZM140.032,16H138.5V3.25h1.536Zm10.044-4.391a5.378,5.378,0,0,1-.938,3.3,3.006,3.006,0,0,1-2.54,1.253,3.294,3.294,0,0,1-2.573-1.038v4.325h-1.536V7.019h1.4l.075,1a3.163,3.163,0,0,1,2.606-1.162,3.063,3.063,0,0,1,2.561,1.22,5.437,5.437,0,0,1,.942,3.4Zm-1.536-.174a3.968,3.968,0,0,0-.647-2.4,2.086,2.086,0,0,0-1.776-.88,2.257,2.257,0,0,0-2.092,1.237v4.292a2.262,2.262,0,0,0,2.108,1.229,2.076,2.076,0,0,0,1.756-.876A4.332,4.332,0,0,0,148.54,11.435Zm5.022-3.329a3.265,3.265,0,0,1,2.656-1.253q2.847,0,2.872,3.212V16h-1.536V10.057a2.068,2.068,0,0,0-.444-1.436,1.78,1.78,0,0,0-1.357-.465,2.216,2.216,0,0,0-1.312.4,2.706,2.706,0,0,0-.88,1.046V16h-1.536V3.25h1.536ZM166.935,16a3.226,3.226,0,0,1-.216-.946,3.426,3.426,0,0,1-2.557,1.112,3.17,3.17,0,0,1-2.179-.751,2.43,2.43,0,0,1-.851-1.905,2.539,2.539,0,0,1,1.067-2.179,5.029,5.029,0,0,1,3-.776h1.494V9.849a1.725,1.725,0,0,0-.481-1.282,1.935,1.935,0,0,0-1.419-.477,2.239,2.239,0,0,0-1.378.415,1.223,1.223,0,0,0-.556,1h-1.544a2.119,2.119,0,0,1,.477-1.3,3.258,3.258,0,0,1,1.295-.992,4.356,4.356,0,0,1,1.8-.365,3.551,3.551,0,0,1,2.432.776,2.8,2.8,0,0,1,.913,2.137V13.9a5.054,5.054,0,0,0,.315,1.967V16Zm-2.548-1.17a2.7,2.7,0,0,0,1.37-.374,2.259,2.259,0,0,0,.938-.971V11.642h-1.2q-2.822,0-2.822,1.652a1.4,1.4,0,0,0,.481,1.129A1.85,1.85,0,0,0,164.387,14.83ZM23.564,35.094a12.834,12.834,0,0,1,.5-3.6,10.465,10.465,0,0,1,1.5-3.138,6.374,6.374,0,0,1,2.067-1.992l.315,1.013a6.611,6.611,0,0,0-1.988,2.839,12.307,12.307,0,0,0-.851,4.275l-.008.706a12.371,12.371,0,0,0,1.17,5.562,6.642,6.642,0,0,0,1.677,2.208l-.315.938a6.579,6.579,0,0,1-2.108-2.059A11.538,11.538,0,0,1,23.564,35.094ZM37.194,40H29.275V38.9l4.184-4.648a9.939,9.939,0,0,0,1.282-1.714,2.861,2.861,0,0,0,.353-1.365,2.169,2.169,0,0,0-.573-1.552,2,2,0,0,0-1.527-.606,2.372,2.372,0,0,0-1.781.652,2.489,2.489,0,0,0-.635,1.814H29.042a3.565,3.565,0,0,1,1.075-2.7,3.985,3.985,0,0,1,2.876-1.029,3.829,3.829,0,0,1,2.665.884,3.015,3.015,0,0,1,.979,2.353q0,1.785-2.274,4.25l-3.237,3.511h6.068ZM46.4,34.845a7.023,7.023,0,0,1-.921,4.009,3.277,3.277,0,0,1-2.88,1.312,3.3,3.3,0,0,1-2.864-1.282,6.666,6.666,0,0,1-.963-3.831V33a6.867,6.867,0,0,1,.921-3.959,3.3,3.3,0,0,1,2.889-1.295A3.332,3.332,0,0,1,45.453,29a6.627,6.627,0,0,1,.946,3.856Zm-1.536-2.1a5.627,5.627,0,0,0-.548-2.843,1.886,1.886,0,0,0-1.735-.892,1.861,1.861,0,0,0-1.718.888,5.494,5.494,0,0,0-.556,2.731v2.457a5.717,5.717,0,0,0,.569,2.893,1.882,1.882,0,0,0,1.722.934,1.856,1.856,0,0,0,1.689-.88,5.51,5.51,0,0,0,.577-2.772ZM53.414,40H51.87V29.765l-3.1,1.137V29.508l4.4-1.652h.241Zm12.078-5.155a7.023,7.023,0,0,1-.921,4.009,3.829,3.829,0,0,1-5.744.029,6.666,6.666,0,0,1-.963-3.831V33a6.867,6.867,0,0,1,.921-3.959A3.9,3.9,0,0,1,64.545,29a6.627,6.627,0,0,1,.946,3.856Zm-1.536-2.1a5.627,5.627,0,0,0-.548-2.843,1.886,1.886,0,0,0-1.735-.892,1.861,1.861,0,0,0-1.718.888,5.494,5.494,0,0,0-.556,2.731v2.457a5.717,5.717,0,0,0,.569,2.893,1.882,1.882,0,0,0,1.722.934,1.856,1.856,0,0,0,1.689-.88,5.51,5.51,0,0,0,.577-2.772ZM75.02,35.493H70.97V34.239H75.02ZM86.268,40a3.226,3.226,0,0,1-.216-.946A3.426,3.426,0,0,1,83.5,40.166a3.17,3.17,0,0,1-2.179-.751,2.43,2.43,0,0,1-.851-1.905,2.539,2.539,0,0,1,1.067-2.179,5.029,5.029,0,0,1,3-.776h1.494v-.706a1.725,1.725,0,0,0-.481-1.282,1.935,1.935,0,0,0-1.419-.477,2.239,2.239,0,0,0-1.378.415,1.223,1.223,0,0,0-.556,1H80.648a2.119,2.119,0,0,1,.477-1.3,3.258,3.258,0,0,1,1.295-.992,4.356,4.356,0,0,1,1.8-.365,3.551,3.551,0,0,1,2.432.776,2.8,2.8,0,0,1,.913,2.137V37.9a5.054,5.054,0,0,0,.315,1.967V40ZM83.72,38.83a2.7,2.7,0,0,0,1.37-.374,2.259,2.259,0,0,0,.938-.971V35.642h-1.2Q82,35.642,82,37.294a1.4,1.4,0,0,0,.481,1.129A1.85,1.85,0,0,0,83.72,38.83Zm9.853.083a2.212,2.212,0,0,0,1.436-.5,1.752,1.752,0,0,0,.681-1.245h1.453a2.785,2.785,0,0,1-.531,1.469A3.5,3.5,0,0,1,95.3,39.751a3.772,3.772,0,0,1-1.731.415,3.7,3.7,0,0,1-2.918-1.224,4.877,4.877,0,0,1-1.083-3.349v-.257A5.407,5.407,0,0,1,90.053,33a3.667,3.667,0,0,1,1.382-1.585,3.926,3.926,0,0,1,2.129-.564,3.6,3.6,0,0,1,2.511.9,3.234,3.234,0,0,1,1.067,2.349H95.689a2.116,2.116,0,0,0-.66-1.432,2.053,2.053,0,0,0-1.465-.56,2.149,2.149,0,0,0-1.814.843,3.957,3.957,0,0,0-.643,2.436v.291a3.878,3.878,0,0,0,.639,2.391A2.16,2.16,0,0,0,93.573,38.913Zm7.379-10.069v2.175h1.677v1.187h-1.677v5.577a1.247,1.247,0,0,0,.224.81.943.943,0,0,0,.764.27,3.718,3.718,0,0,0,.73-.1V40a4.478,4.478,0,0,1-1.179.165,1.912,1.912,0,0,1-1.552-.623,2.675,2.675,0,0,1-.523-1.768v-5.57H97.781V31.019h1.635V28.844Zm9.015,10.268a3.262,3.262,0,0,1-2.631,1.054,2.792,2.792,0,0,1-2.187-.834,3.611,3.611,0,0,1-.76-2.469V31.019h1.536v5.8q0,2.042,1.66,2.042a2.3,2.3,0,0,0,2.341-1.312V31.019h1.536V40H110Zm9.372.888a3.226,3.226,0,0,1-.216-.946,3.426,3.426,0,0,1-2.557,1.112,3.17,3.17,0,0,1-2.179-.751,2.43,2.43,0,0,1-.851-1.905,2.539,2.539,0,0,1,1.067-2.179,5.029,5.029,0,0,1,3-.776H119.1v-.706a1.725,1.725,0,0,0-.481-1.282,1.935,1.935,0,0,0-1.419-.477,2.239,2.239,0,0,0-1.378.415,1.223,1.223,0,0,0-.556,1h-1.544a2.119,2.119,0,0,1,.477-1.3,3.258,3.258,0,0,1,1.295-.992,4.356,4.356,0,0,1,1.8-.365,3.551,3.551,0,0,1,2.432.776,2.8,2.8,0,0,1,.913,2.137V37.9a5.054,5.054,0,0,0,.315,1.967V40Zm-2.548-1.17a2.7,2.7,0,0,0,1.37-.374,2.259,2.259,0,0,0,.938-.971V35.642h-1.2q-2.822,0-2.822,1.652a1.4,1.4,0,0,0,.481,1.129A1.85,1.85,0,0,0,116.79,38.83ZM124.709,40h-1.536V27.25h1.536Zm4.125,0H127.3V31.019h1.536Zm-1.66-11.364a.917.917,0,0,1,.228-.631.857.857,0,0,1,.677-.257.87.87,0,0,1,.681.257.907.907,0,0,1,.232.631.877.877,0,0,1-.232.623.886.886,0,0,1-.681.249.872.872,0,0,1-.677-.249A.886.886,0,0,1,127.174,28.636Zm3.744,6.8a5.261,5.261,0,0,1,.979-3.324,3.333,3.333,0,0,1,5.063-.178V27.25H138.5V40h-1.411l-.075-.963a3.127,3.127,0,0,1-2.565,1.129,3.068,3.068,0,0,1-2.544-1.278,5.321,5.321,0,0,1-.984-3.337Zm1.536.174A3.984,3.984,0,0,0,133.084,38a2.039,2.039,0,0,0,1.743.863,2.24,2.24,0,0,0,2.133-1.312V33.426a2.257,2.257,0,0,0-2.117-1.27,2.049,2.049,0,0,0-1.76.872A4.386,4.386,0,0,0,132.454,35.609ZM146.424,40a3.226,3.226,0,0,1-.216-.946,3.426,3.426,0,0,1-2.557,1.112,3.17,3.17,0,0,1-2.179-.751,2.43,2.43,0,0,1-.851-1.905,2.539,2.539,0,0,1,1.067-2.179,5.029,5.029,0,0,1,3-.776h1.494v-.706a1.725,1.725,0,0,0-.481-1.282,1.935,1.935,0,0,0-1.419-.477,2.239,2.239,0,0,0-1.378.415,1.223,1.223,0,0,0-.556,1H140.8a2.119,2.119,0,0,1,.477-1.3,3.258,3.258,0,0,1,1.295-.992,4.356,4.356,0,0,1,1.8-.365,3.551,3.551,0,0,1,2.432.776,2.8,2.8,0,0,1,.913,2.137V37.9a5.054,5.054,0,0,0,.315,1.967V40Zm-2.548-1.17a2.7,2.7,0,0,0,1.37-.374,2.259,2.259,0,0,0,.938-.971V35.642h-1.2q-2.822,0-2.822,1.652a1.4,1.4,0,0,0,.481,1.129A1.85,1.85,0,0,0,143.875,38.83Zm5.877-3.4a5.261,5.261,0,0,1,.979-3.324,3.333,3.333,0,0,1,5.063-.178V27.25h1.536V40H155.92l-.075-.963a3.127,3.127,0,0,1-2.565,1.129,3.068,3.068,0,0,1-2.544-1.278,5.321,5.321,0,0,1-.984-3.337Zm1.536.174A3.984,3.984,0,0,0,151.919,38a2.039,2.039,0,0,0,1.743.863,2.24,2.24,0,0,0,2.133-1.312V33.426a2.257,2.257,0,0,0-2.117-1.27,2.049,2.049,0,0,0-1.76.872A4.386,4.386,0,0,0,151.288,35.609Zm11.97-.432a12.84,12.84,0,0,1-.486,3.549,10.493,10.493,0,0,1-1.486,3.134,6.51,6.51,0,0,1-2.1,2.042l-.324-.938a6.673,6.673,0,0,0,2.054-3.042,13.161,13.161,0,0,0,.793-4.578v-.266a13.665,13.665,0,0,0-.365-3.241,10.94,10.94,0,0,0-1.017-2.685,6.2,6.2,0,0,0-1.465-1.851l.324-.938a6.485,6.485,0,0,1,2.088,2.025,10.516,10.516,0,0,1,1.486,3.129A13.136,13.136,0,0,1,163.258,35.177Z" transform="translate(331 885)" fill="#12263f"/>
  </g>
</svg>
