<svg xmlns="http://www.w3.org/2000/svg" xmlns:xlink="http://www.w3.org/1999/xlink" width="354.222" height="354.213" viewBox="0 0 354.222 354.213">
  <defs>
    <clipPath id="clip-path">
      <rect id="Rectángulo_347367" data-name="Rectángulo 347367" width="353.222" height="280.213" fill="none"/>
    </clipPath>
  </defs>
  <g id="Grupo_1016820" data-name="Grupo 1016820" transform="translate(-1019 -12075)">
    <g id="Grupo_1016817" data-name="Grupo 1016817" transform="translate(1284.104 11648.203)">
      <path id="Trazado_608815" data-name="Trazado 608815" d="M151.884,69.945h-48.77a13.17,13.17,0,0,1-13.131-13.13V33.54a13.168,13.168,0,0,1,13.131-13.13h48.77a13.168,13.168,0,0,1,13.131,13.13V56.815a13.17,13.17,0,0,1-13.131,13.13" transform="translate(-81.947 413.067)" fill="#983333"/>
      <path id="Trazado_608816" data-name="Trazado 608816" d="M121.569,27.5c-1.319-2.258-3.48-2.258-4.8,0L106.629,44.865c-1.319,2.258-.257,4.108,2.358,4.108H129.36c2.618,0,3.679-1.848,2.359-4.108Z" transform="translate(-70.515 416.901)" fill="#fff"/>
      <path id="Trazado_608829" data-name="Trazado 608829" d="M150.182,66.919H102.336A13.849,13.849,0,0,1,88.5,53.086V30.339a13.85,13.85,0,0,1,13.835-13.833h48.243a13.85,13.85,0,0,1,13.835,13.833V53.086a13.443,13.443,0,0,1-8.182,12.457c4.373-2.868,7.3-7.333,7.3-12.457V30.339a12.971,12.971,0,0,0-12.957-12.957H102.336A12.971,12.971,0,0,0,89.379,30.339V53.086a12.971,12.971,0,0,0,12.957,12.957h47.846c.438.681.243.876,0,.876" transform="translate(-83 410.291)" fill="#1a1a1a"/>
      <path id="Trazado_608830" data-name="Trazado 608830" d="M126.538,48.258H106.162a2.926,2.926,0,0,1-2.736-4.767l10.141-17.368a2.974,2.974,0,0,1,5.555,0l10.149,17.369a2.924,2.924,0,0,1-2.734,4.765m-10.194-23.17a2.507,2.507,0,0,0-2.022,1.478L104.183,43.932a2.461,2.461,0,0,0-.294,2.462,2.46,2.46,0,0,0,2.274.987h20.376a2.465,2.465,0,0,0,2.274-.986,2.465,2.465,0,0,0-.294-2.462L118.366,26.566a2.507,2.507,0,0,0-2.022-1.478" transform="translate(-72.836 415.77)" fill="#1a1a1a"/>
    </g>
    <g id="Grupo_1016819" data-name="Grupo 1016819" transform="translate(1402.589 11728)">
      <path id="Trazado_608820" data-name="Trazado 608820" d="M10.522,9.964A1.665,1.665,0,1,0,8.856,8.3a1.665,1.665,0,0,0,1.666,1.665" transform="translate(-82.972 410.32)" fill="#1a1a1a"/>
      <path id="Trazado_608821" data-name="Trazado 608821" d="M19.21,10.079a1.752,1.752,0,1,0-1.752-1.753,1.754,1.754,0,0,0,1.752,1.753" transform="translate(-78.717 410.291)" fill="#1a1a1a"/>
      <path id="Trazado_608822" data-name="Trazado 608822" d="M27.828,9.907a1.622,1.622,0,1,0-1.622-1.622,1.622,1.622,0,0,0,1.622,1.622" transform="translate(-74.39 410.334)" fill="#1a1a1a"/>
      <path id="Trazado_608823" data-name="Trazado 608823" d="M10.551,18.738A1.752,1.752,0,1,0,8.8,16.987a1.752,1.752,0,0,0,1.752,1.752" transform="translate(-83 414.574)" fill="#1a1a1a"/>
      <path id="Trazado_608824" data-name="Trazado 608824" d="M19.238,18.852A1.838,1.838,0,1,0,17.4,17.015a1.838,1.838,0,0,0,1.837,1.837" transform="translate(-78.745 414.545)" fill="#1a1a1a"/>
      <path id="Trazado_608825" data-name="Trazado 608825" d="M27.857,18.681a1.708,1.708,0,1,0-1.71-1.708,1.709,1.709,0,0,0,1.71,1.708" transform="translate(-74.42 414.588)" fill="#1a1a1a"/>
      <path id="Trazado_608826" data-name="Trazado 608826" d="M10.508,27.226A1.622,1.622,0,1,0,8.886,25.6a1.62,1.62,0,0,0,1.622,1.622" transform="translate(-82.957 418.9)" fill="#1a1a1a"/>
      <path id="Trazado_608827" data-name="Trazado 608827" d="M19.2,27.341a1.708,1.708,0,1,0-1.708-1.708A1.709,1.709,0,0,0,19.2,27.341" transform="translate(-78.703 418.871)" fill="#1a1a1a"/>
      <path id="Trazado_608828" data-name="Trazado 608828" d="M27.819,27.187a1.593,1.593,0,1,0-1.595-1.593,1.594,1.594,0,0,0,1.595,1.593" transform="translate(-74.382 418.909)" fill="#1a1a1a"/>
    </g>
    <g id="Elipse_5880" data-name="Elipse 5880" transform="translate(1019 12085)" fill="none" stroke="#707070" stroke-width="1" stroke-dasharray="15">
      <ellipse cx="148" cy="140" rx="148" ry="140" stroke="none"/>
      <ellipse cx="148" cy="140" rx="147.5" ry="139.5" fill="none"/>
    </g>
    <g id="Grupo_1016816" data-name="Grupo 1016816" transform="translate(1020 12149)">
      <g id="Grupo_1016815" data-name="Grupo 1016815" transform="translate(0)" clip-path="url(#clip-path)">
        <path id="Trazado_608728" data-name="Trazado 608728" d="M64.173,90.639A44.723,44.723,0,1,0,108.9,45.915,44.723,44.723,0,0,0,64.173,90.639" transform="translate(93.562 29.956)" fill="#fff"/>
        <path id="Trazado_608729" data-name="Trazado 608729" d="M67.955,186.132H58.238l7.026-58.3,5.413-1.846a219.638,219.638,0,0,1-.015,31c-1.289,14.374-2.877,29.906-2.877,29.906Z" transform="translate(185.749 82.195)" fill="#fff"/>
        <rect id="Rectángulo_347344" data-name="Rectángulo 347344" width="132.055" height="250.355" transform="translate(61.067 26.776)" fill="#1a1a1a"/>
        <rect id="Rectángulo_347345" data-name="Rectángulo 347345" width="114.802" height="213.511" transform="translate(70.948 37.763)" fill="#fff"/>
        <rect id="Rectángulo_347346" data-name="Rectángulo 347346" width="100.702" height="35.228" transform="translate(80.357 139.6)" fill="#33ece0"/>
        <path id="Trazado_608730" data-name="Trazado 608730" d="M146.169,34.411A34.113,34.113,0,1,0,180.283.3a34.113,34.113,0,0,0-34.114,34.113" transform="translate(-102.705 0.194)" fill="#fff"/>
        <path id="Trazado_608731" data-name="Trazado 608731" d="M52.352,53.289s-.917,8.845,16.146,16.9c.456.225,2.016-1.78,5.275-.968s4.072,5.8,3.113,8.6S73,84.83,68.04,82.514c0,0-2.323,7.542-2.024,13.266a78.547,78.547,0,0,0,.778,8.432L58.033,107.2l-2.6-9.767s-10.212-2.748-11.207-9.518-.112-7.366-.112-7.366-5.478-4.248-5.945-5-.588-1.39,0-1.9,8.864-6.729,8.864-6.729,2.335-11.466,5.322-13.628" transform="translate(213.549 34.767)" fill="#fff"/>
        <path id="Trazado_608732" data-name="Trazado 608732" d="M148.291,118.377s-9.868-1.907-11.955-2.943-2.028-.54-5.263-5.2c-3.392-4.9-10.281-7.79-12.914-9.318s-9.108-4.118-9.108-4.118-3.872,3.04-2.107,4.7c1.472,1.386,7.033,2.437,7.019,3.964s-4.169,8.437-3.295,11.3,2.631,7.94,12.889,7.353l19.76,8.984Z" transform="translate(28.976 63.151)" fill="#fff"/>
        <path id="Trazado_608733" data-name="Trazado 608733" d="M164.755,145.637s-1.95,20.384-1.011,34.316,2.672,31.609,6.529,41.973H95.647s3.819-34.513,4.293-44.721.7-21.323-.253-26.82c0,0-20.042,7.287-38.035,4.843S18.479,142.78,18.479,142.78l7.064-20.665s17.483,4.979,41.544-.919,30.581-18.738,34.745-20.9,10.22-11.253,28.567-11.711a56.176,56.176,0,0,0,13.433,12c8.393,5.334,9.946,17.592,11.116,22.1s-.909,25.535,9.807,22.951" transform="translate(152.414 57.794)" fill="#a3bfe4"/>
        <path id="Trazado_608734" data-name="Trazado 608734" d="M15.411,122.04l-4.954.149a14.026,14.026,0,0,0,1.953-5.874Z" transform="translate(320.531 75.886)" fill="#a3bfe4"/>
        <path id="Trazado_608735" data-name="Trazado 608735" d="M.259,122.113s16.68,33.718,14.771,46.664c0,0,.5,8.1-10.891,10.518Z" transform="translate(337.612 79.669)" fill="#a3bfe4"/>
        <rect id="Rectángulo_347347" data-name="Rectángulo 347347" width="53.745" height="10.098" transform="translate(47.325 184.252)" fill="#fff"/>
        <rect id="Rectángulo_347348" data-name="Rectángulo 347348" width="19.631" height="19.634" transform="translate(88.733 208.59)" fill="#ffce26"/>
        <rect id="Rectángulo_347349" data-name="Rectángulo 347349" width="42.571" height="19.436" transform="translate(56.301 192.517)" fill="#fff"/>
        <rect id="Rectángulo_347350" data-name="Rectángulo 347350" width="78.33" height="11.993" transform="translate(36.208 211.903)" fill="#fff"/>
        <rect id="Rectángulo_347351" data-name="Rectángulo 347351" width="71.879" height="23.578" transform="translate(39.07 222.135)" fill="#fff"/>
        <rect id="Rectángulo_347352" data-name="Rectángulo 347352" width="96.877" height="12.159" transform="translate(23.795 245.713)" fill="#fff"/>
        <rect id="Rectángulo_347353" data-name="Rectángulo 347353" width="92.904" height="24.494" transform="translate(25.935 255.226)" fill="#fff"/>
        <path id="Trazado_608736" data-name="Trazado 608736" d="M130.356,159.262a6.244,6.244,0,1,0,6.245-6.245,6.245,6.245,0,0,0-6.245,6.245" transform="translate(-5.025 99.832)" fill="#fff"/>
        <rect id="Rectángulo_347354" data-name="Rectángulo 347354" width="37.954" height="21.819" transform="translate(39.07 223.895)" fill="#ffce26"/>
        <rect id="Rectángulo_347355" data-name="Rectángulo 347355" width="42.208" height="12.049" transform="translate(36.32 211.903)" fill="#ffce26"/>
        <rect id="Rectángulo_347356" data-name="Rectángulo 347356" width="33.999" height="12.159" transform="translate(23.795 245.713)" fill="#ffce26"/>
        <rect id="Rectángulo_347357" data-name="Rectángulo 347357" width="34.047" height="21.848" transform="translate(25.935 257.872)" fill="#ffce26"/>
        <rect id="Rectángulo_347358" data-name="Rectángulo 347358" width="12.562" height="17.54" transform="translate(49.877 194.361)" fill="#ffce26"/>
        <rect id="Rectángulo_347359" data-name="Rectángulo 347359" width="12.292" height="10.098" transform="translate(47.325 184.252)" fill="#ffce26"/>
        <path id="Trazado_608737" data-name="Trazado 608737" d="M27.439,74.785s-3.065-3.085-6.995-6.71S9.515,54.966,14.515,50.493s14.194-4.643,23.793-2.786c9.382,1.814,16.423,5.17,19.378,7.9s3.254,12.663,2.419,17.271-3.366,16.513-3.9,23.8,1.153,17.051,7.583,29.276,7.031,16.333,9.794,22.116,6.352,18.593-.423,22.114c-10.106,5.25-14.862,1.892-15.445-2.649s-1.294-22.47-4.61-28.076-3.2-8.417-13.884-15.382a24.548,24.548,0,0,1-11.155-20.394c-.026-2.446-.768-10.843,1.246-16.164,0,0,5.152.317,6.431-7.654,0,0,.378-5.061-4.113-6.392-3.064-.909-4.194,1.319-4.194,1.319" transform="translate(255.063 30.398)" fill="#1a1a1a"/>
        <path id="Trazado_608738" data-name="Trazado 608738" d="M149.9,31.978A27.95,27.95,0,1,0,177.848,4.026,27.949,27.949,0,0,0,149.9,31.978" transform="translate(-100.273 2.627)" fill="#fff198"/>
        <rect id="Rectángulo_347360" data-name="Rectángulo 347360" width="19.634" height="19.634" transform="translate(154.143 208.59)" fill="#983333"/>
        <rect id="Rectángulo_347361" data-name="Rectángulo 347361" width="19.634" height="19.634" transform="translate(127.572 200.206)" fill="#ffce26"/>
        <path id="Trazado_608739" data-name="Trazado 608739" d="M7.326,119.9l17.269-.1L29.7,190.486H3.649Z" transform="translate(317.49 78.155)" fill="#fff"/>
        <path id="Trazado_608740" data-name="Trazado 608740" d="M41.529,77.656a5.744,5.744,0,0,0,2.532-.577,8.465,8.465,0,0,0,4.22-6.088c.613-3.546-.261-7.629-4.551-8.455-3.378-.638-5.329,2.636-5.41,2.778a.493.493,0,0,0,.853.5c.068-.117,1.7-2.831,4.372-2.3,4.516.868,4.024,5.82,3.766,7.319a7.541,7.541,0,0,1-3.68,5.367,5.745,5.745,0,0,1-5.44-.473.493.493,0,0,0-.469.868,8.021,8.021,0,0,0,3.807,1.069" transform="translate(242.857 40.746)" fill="#1a1a1a"/>
        <path id="Trazado_608741" data-name="Trazado 608741" d="M43.986,72.9c.557-.413.514-.72.3-.884l-3.492-2.639,5.075-4.012a.493.493,0,0,0-.613-.772L39.678,69c.01.78,4.012,3.8,4.012,3.8a.49.49,0,0,0,.3.1" transform="translate(241.605 42.072)" fill="#1a1a1a"/>
        <path id="Trazado_608742" data-name="Trazado 608742" d="M52.454,65.054a.687.687,0,0,1-.651-.72l.1-1.928a.686.686,0,1,1,1.37.071l-.1,1.927a.688.688,0,0,1-.72.651" transform="translate(214.349 40.289)" fill="#1a1a1a"/>
        <path id="Trazado_608743" data-name="Trazado 608743" d="M51.857,90.674a.508.508,0,0,0,.482-.592L50.24,79.9a.491.491,0,0,0-.582-.385.5.5,0,0,0-.385.583l2.1,10.182a.491.491,0,0,0,.483.392" transform="translate(219.469 51.871)" fill="#1a1a1a"/>
        <path id="Trazado_608744" data-name="Trazado 608744" d="M69.994,98.211a.492.492,0,0,0,.061-.98c-5.75-.719-9.787-2.774-11.995-6.109-3.042-4.6-1.53-10.1-1.515-10.151-3.655-2.926-6.585-5.59-6.463-6.244.233-.525,2.451-2.041,4.23-3.257,3.169-2.165,5.123-3.538,5.331-4.506,2.115-9.929,4.9-13.269,4.923-13.3a.492.492,0,0,0-.745-.641c-.121.137-2.963,3.511-5.141,13.74-.136.631-3.016,2.6-4.923,3.9-2.622,1.79-4.247,2.926-4.579,3.682-.668,1.515,3.551,4.772,6.332,6.71a14.235,14.235,0,0,0,1.728,10.617c2.375,3.586,6.644,5.787,12.694,6.542.02,0,.04,0,.061,0" transform="translate(201.588 34.479)" fill="#1a1a1a"/>
        <path id="Trazado_608745" data-name="Trazado 608745" d="M44.3,95.872c.433-.258,4.59-7.917,4.59-7.917l9.354-3.188a.493.493,0,0,0-.319-.934l-9.536,3.25c-.274.233-4.523,8.061-4.523,8.061a.491.491,0,0,0,.433.727" transform="translate(222.258 54.678)" fill="#1a1a1a"/>
        <path id="Trazado_608746" data-name="Trazado 608746" d="M60.956,198.229a.491.491,0,0,0,.489-.433c1.12-9.225,6.578-56.03,4.141-71.715a.483.483,0,0,0-.562-.413.493.493,0,0,0-.411.562c2.417,15.558-3.029,62.247-4.146,71.447a.492.492,0,0,0,.43.549c.02,0,.04,0,.059,0" transform="translate(187.106 81.984)" fill="#1a1a1a"/>
        <path id="Trazado_608747" data-name="Trazado 608747" d="M25.265,200.064c.411-.111.552-.39.468-.648-3.546-10.685-8.964-34.769-5.4-76.031a.492.492,0,0,0-.446-.534.481.481,0,0,0-.535.449c-3.577,41.439,1.877,65.669,5.448,76.426a.49.49,0,0,0,.468.337" transform="translate(297.421 80.149)" fill="#1a1a1a"/>
        <path id="Trazado_608748" data-name="Trazado 608748" d="M92.143,156.263a80.687,80.687,0,0,0,36.509-8.346c18.927-9.493,28.109-23.868,28.2-24.011a.492.492,0,0,0-.154-.679.5.5,0,0,0-.681.155c-.088.14-9.153,14.313-27.855,23.674-17.2,8.612-46.3,14.794-87.377-4.523l6.5-19.231c4.693.813,46.643,7.216,71.353-17.618,15.391-15.472,27.321-16.08,33.055-16.371l.8-.043a.5.5,0,0,0,.464-.522.519.519,0,0,0-.522-.463l-.79.045c-5.856.3-18.043.919-33.7,16.66C92.251,130.809,47.5,122.342,47.052,122.258a.5.5,0,0,0-.563.326l-6.773,20.047a.492.492,0,0,0,.253.6c20.252,9.586,37.644,13.028,52.175,13.028" transform="translate(130.712 57.6)" fill="#1a1a1a"/>
        <path id="Trazado_608749" data-name="Trazado 608749" d="M54.785,62.831c.544-.342.54-.653.345-.844a12.4,12.4,0,0,0-4.359-2.644.483.483,0,0,0-.62.317.491.491,0,0,0,.319.62,11.554,11.554,0,0,1,3.971,2.411.488.488,0,0,0,.344.14" transform="translate(215.14 38.698)" fill="#1a1a1a"/>
        <path id="Trazado_608750" data-name="Trazado 608750" d="M144,133.692c.562-.537.453-.826.2-.939l-19.53-8.882c-2.051.286-7.9.172-11.127-3.032-3.315-3.287-.935-8.662.638-12.218.927-2.092,1.439-3.245.682-3.753a27.427,27.427,0,0,0-4.285-2.2c-.644-.288-1.294-.57-1.932-.882a2.927,2.927,0,0,1-.687-.415,2.129,2.129,0,0,1-.471-.719,3.182,3.182,0,0,1-.292-1.761,1.778,1.778,0,0,1,.986-1.385,2.221,2.221,0,0,1,1.305-.041,20.732,20.732,0,0,1,4.756,1.869l.682.334c1.408.684,2.784,1.428,4.062,2.135.737.406,1.472.834,2.2,1.264a47.579,47.579,0,0,0,4.633,2.5c2.277,1.013,5.836,4.916,7.324,8.036,1.59,3.328,14.259,5.3,15.7,5.516a.492.492,0,1,0,.145-.973c-3.766-.562-13.8-2.546-14.954-4.966-1.595-3.348-5.319-7.406-7.809-8.515a45.75,45.75,0,0,1-4.536-2.442c-.744-.435-1.482-.869-2.227-1.281-1.292-.711-2.684-1.464-4.113-2.155l-.674-.33a21.575,21.575,0,0,0-4.987-1.95,3.163,3.163,0,0,0-1.877.091,2.733,2.733,0,0,0-1.59,2.143,4.178,4.178,0,0,0,.362,2.313,3.018,3.018,0,0,0,.715,1.053,3.7,3.7,0,0,0,.915.572c.651.316,1.307.6,1.965.9a26.628,26.628,0,0,1,4.062,2.067,11.6,11.6,0,0,1-.963,2.584c-1.581,3.573-4.229,9.551-.43,13.315,3.66,3.625,9.867,3.535,11.549,3.292l19.394,8.819a.481.481,0,0,0,.2.043" transform="translate(28.347 62.898)" fill="#1a1a1a"/>
        <path id="Trazado_608751" data-name="Trazado 608751" d="M65.9,173.834c.314,0,.613-.01.891-.021,7.747-.35,12.558-2.536,14.307-6.5,6.307-14.315-2.229-27.353-9.759-38.857-3.366-5.144-6.545-10-8.122-14.535-4.148-11.932-1.533-25,.378-34.537.44-2.2.856-4.283,1.155-6.152.544-3.407,1.1-9.971-1.286-15.652-2.662-6.329-29.288-14.624-43.346-10.05-7.028,2.289-9.824,7.408-8.08,14.8A.491.491,0,1,0,13,62.105c-1.628-6.912.871-11.5,7.429-13.636C34.129,44,60,51.882,62.56,57.963c2.292,5.456,1.748,11.812,1.221,15.115-.3,1.851-.711,3.923-1.148,6.116-1.933,9.65-4.579,22.868-.342,35.056C63.905,118.9,67.118,123.8,70.52,129c7.395,11.294,15.774,24.1,9.68,37.921-1.581,3.589-6.107,5.579-13.449,5.909a8.851,8.851,0,0,1-5.114-.987c-2.746-1.76-3.169-5.521-3.364-9.221-.385-7.185-1.19-15.584-4.281-23.388a25.246,25.246,0,0,0-5.622-9.072,52.674,52.674,0,0,0-6.772-5.281,29,29,0,0,1-8.145-7.732,26.438,26.438,0,0,1-3.764-9.825c-.991-5.737-.5-12.3,1.52-20.069a.493.493,0,0,0-.953-.25c-2.052,7.907-2.555,14.607-1.54,20.487a27.514,27.514,0,0,0,3.91,10.192,29.417,29.417,0,0,0,8.217,7.87,53.6,53.6,0,0,1,6.839,5.313,23.435,23.435,0,0,1,5.4,8.728c3.035,7.672,3.832,15.972,4.21,23.079.2,3.782.677,7.986,3.817,10a8.9,8.9,0,0,0,4.8,1.163" transform="translate(250.858 30.151)" fill="#1a1a1a"/>
        <path id="Trazado_608752" data-name="Trazado 608752" d="M59.778,71.2c.565-.517.463-.815.22-.932C42.649,61.7,43.538,53.486,43.546,53.406a.493.493,0,0,0-.977-.134c-.05.365-.986,9.006,16.99,17.873a.484.484,0,0,0,.218.051" transform="translate(222.724 34.479)" fill="#1a1a1a"/>
        <path id="Trazado_608753" data-name="Trazado 608753" d="M178.059,169.117a.491.491,0,0,0,.492-.491V14.986a.491.491,0,0,0-.492-.491H93.946a.493.493,0,1,0,0,.986h83.621V168.626a.491.491,0,0,0,.492.491" transform="translate(20.248 9.457)" fill="#1a1a1a"/>
        <path id="Trazado_608754" data-name="Trazado 608754" d="M93.943,185.5h74.323a.493.493,0,0,0,.492-.492v-55.64a.493.493,0,0,0-.986,0v55.148H93.943a.492.492,0,0,0,0,.985" transform="translate(30.043 84.078)" fill="#1a1a1a"/>
        <path id="Trazado_608755" data-name="Trazado 608755" d="M173.156,154.993a.494.494,0,0,0,.494-.491V42.935a.494.494,0,0,0-.988,0V154.5a.494.494,0,0,0,.494.491" transform="translate(-105.739 27.691)" fill="#1a1a1a"/>
        <path id="Trazado_608756" data-name="Trazado 608756" d="M174.048,165.106a.491.491,0,0,0,.492-.491V21.135a.493.493,0,0,0-.492-.492H100.094a.493.493,0,1,0,0,.986h73.462V164.615a.491.491,0,0,0,.492.491" transform="translate(14.1 13.468)" fill="#1a1a1a"/>
        <path id="Trazado_608757" data-name="Trazado 608757" d="M100.092,164.1h64.164a.49.49,0,0,0,.491-.492V127.594a.492.492,0,1,0-.985,0v35.52H100.092a.492.492,0,0,0,0,.985" transform="translate(23.894 82.924)" fill="#1a1a1a"/>
        <path id="Trazado_608758" data-name="Trazado 608758" d="M167.007,154.036a.494.494,0,0,0,.494-.491V44.4a.494.494,0,0,0-.988,0V153.546a.494.494,0,0,0,.494.491" transform="translate(-89.429 28.647)" fill="#1a1a1a"/>
        <path id="Trazado_608759" data-name="Trazado 608759" d="M103.054,118.123H159.96a.492.492,0,1,0,0-.983H103.548V82.171h99.8v34.969h-21.67a.492.492,0,1,0,0,.983H203.84a.494.494,0,0,0,.494-.491V81.678a.494.494,0,0,0-.494-.492H103.054a.494.494,0,0,0-.494.492v35.953a.494.494,0,0,0,.494.491" transform="translate(-20.585 52.968)" fill="#1a1a1a"/>
        <path id="Trazado_608760" data-name="Trazado 608760" d="M122.384,20.825H159.5a.493.493,0,0,0,.492-.492V17.363a.493.493,0,0,0-.492-.492h-37.12a.492.492,0,1,0,0,.985H159.01V19.84H122.384a.492.492,0,1,0,0,.985" transform="translate(-8.189 11.007)" fill="#1a1a1a"/>
        <path id="Trazado_608761" data-name="Trazado 608761" d="M136.016,165.043a6.736,6.736,0,1,0-6.737-6.737,6.745,6.745,0,0,0,6.737,6.737m0-12.487a5.752,5.752,0,1,1-5.749,5.75,5.755,5.755,0,0,1,5.749-5.75" transform="translate(-3.155 98.888)" fill="#1a1a1a"/>
        <path id="Trazado_608762" data-name="Trazado 608762" d="M173.156,82.332h9.006a.492.492,0,1,0,0-.985h-9.006a.492.492,0,1,0,0,.985" transform="translate(-114.745 53.073)" fill="#1a1a1a"/>
        <path id="Trazado_608763" data-name="Trazado 608763" d="M173.156,84.582h9.006a.492.492,0,1,0,0-.983h-9.006a.492.492,0,1,0,0,.983" transform="translate(-114.745 54.542)" fill="#1a1a1a"/>
        <path id="Trazado_608764" data-name="Trazado 608764" d="M180.478,69.207a34.6,34.6,0,1,0-34.608-34.6,34.642,34.642,0,0,0,34.608,34.6m0-68.222a33.619,33.619,0,1,1-33.62,33.62A33.657,33.657,0,0,1,180.478.985" transform="translate(-102.9)" fill="#1a1a1a"/>
        <path id="Trazado_608765" data-name="Trazado 608765" d="M127.61,144.519h19.632a.494.494,0,0,0,.494-.492V124.392a.493.493,0,0,0-.494-.492H127.61a.494.494,0,0,0-.494.492v19.634a.5.5,0,0,0,.494.492m19.14-.985H128.1V124.885H146.75Z" transform="translate(-4.564 80.835)" fill="#1a1a1a"/>
        <rect id="Rectángulo_347362" data-name="Rectángulo 347362" width="22.02" height="22.02" transform="translate(153.414 63.299)" fill="#ffce26"/>
        <path id="Trazado_608766" data-name="Trazado 608766" d="M110.884,64.506H132.9a.552.552,0,0,0,.554-.552V41.932a.553.553,0,0,0-.554-.552H110.884a.556.556,0,0,0-.555.552V63.954a.555.555,0,0,0,.555.552m21.467-1.1H111.438V42.485h20.913Z" transform="translate(37.455 26.997)" fill="#1a1a1a"/>
        <rect id="Rectángulo_347363" data-name="Rectángulo 347363" width="22.02" height="22.02" transform="translate(111.195 69.483)" fill="#983333"/>
        <path id="Trazado_608767" data-name="Trazado 608767" d="M152.306,38.306H130.288a.554.554,0,0,0-.554.554V60.88a.554.554,0,0,0,.554.554h22.019a.556.556,0,0,0,.555-.554V38.86a.556.556,0,0,0-.555-.554m-21.467,1.105h20.913V60.328H130.839Z" transform="translate(-14.015 24.992)" fill="#1a1a1a"/>
        <path id="Trazado_608768" data-name="Trazado 608768" d="M107.516,144.519h19.632a.5.5,0,0,0,.494-.492V124.392a.494.494,0,0,0-.494-.492H107.516a.494.494,0,0,0-.494.492v19.634a.5.5,0,0,0,.494.492m19.14-.985H108.01V124.885h18.646Z" transform="translate(48.734 80.835)" fill="#1a1a1a"/>
        <path id="Trazado_608769" data-name="Trazado 608769" d="M158.628,131.609a.494.494,0,0,0,.494-.491v-6.725a.494.494,0,0,0-.494-.492H147.7a.492.492,0,1,0,0,.985h10.43v6.233a.494.494,0,0,0,.494.491" transform="translate(-49.154 80.835)" fill="#1a1a1a"/>
        <path id="Trazado_608770" data-name="Trazado 608770" d="M178.606,156.136a.494.494,0,0,0,.494-.491l.086-114.462a.494.494,0,0,0-.988,0l-.086,114.462a.492.492,0,0,0,.494.491" transform="translate(-120.281 26.548)" fill="#1a1a1a"/>
        <path id="Trazado_608771" data-name="Trazado 608771" d="M1.8,169.966H145.859a.492.492,0,1,0,0-.985H1.8a.492.492,0,0,0,0,.985" transform="translate(204.706 110.247)" fill="#1a1a1a"/>
        <path id="Trazado_608772" data-name="Trazado 608772" d="M4.613,180.17c2.925-.735,6.953-2.67,9.179-5.223C21.2,166.461,8.918,138.005.935,121.8a.493.493,0,0,0-.884.435c7.872,15.987,20.032,44.012,13,52.065a18.886,18.886,0,0,1-8.558,4.9.492.492,0,0,0,.121.97" transform="translate(337.142 79.285)" fill="#1a1a1a"/>
        <path id="Trazado_608773" data-name="Trazado 608773" d="M13.512,122.659c.464-.175.562-.469.44-.714-2.416-4.81-2.879-5.526-2.9-5.554a.5.5,0,0,0-.682-.137.492.492,0,0,0-.139.679c.021.036.5.791,2.841,5.455a.494.494,0,0,0,.44.271" transform="translate(322.449 75.794)" fill="#1a1a1a"/>
        <path id="Trazado_608774" data-name="Trazado 608774" d="M167.4,158a.494.494,0,0,0,.494-.492V135.689a.494.494,0,0,0-.988,0v21.819a.494.494,0,0,0,.494.492" transform="translate(-90.461 88.206)" fill="#1a1a1a"/>
        <path id="Trazado_608775" data-name="Trazado 608775" d="M190.311,158a.494.494,0,0,0,.494-.492V135.689a.494.494,0,0,0-.988,0v21.819a.494.494,0,0,0,.494.492" transform="translate(-151.241 88.206)" fill="#1a1a1a"/>
        <path id="Trazado_608776" data-name="Trazado 608776" d="M166.432,140.9h42.32a.5.5,0,0,0,.494-.492V128.462a.494.494,0,0,0-.494-.492h-42.32a.493.493,0,0,0-.494.492v11.944a.494.494,0,0,0,.494.492m41.826-.986H166.925V128.953h41.334Z" transform="translate(-130.224 83.49)" fill="#1a1a1a"/>
        <path id="Trazado_608777" data-name="Trazado 608777" d="M142.038,178.592H200.9a.493.493,0,0,0,.492-.492V156.251a.493.493,0,0,0-.987,0v21.356H142.532V156.251a.494.494,0,0,0-.988,0V178.1a.494.494,0,0,0,.494.492" transform="translate(-82.057 101.621)" fill="#1a1a1a"/>
        <path id="Trazado_608778" data-name="Trazado 608778" d="M140.953,161.543H237.79a.491.491,0,0,0,.492-.491V148.893a.494.494,0,0,0-.492-.492H140.953a.5.5,0,0,0-.494.492v12.159a.493.493,0,0,0,.494.491m96.343-.983H141.447V149.386H237.3Z" transform="translate(-117.158 96.82)" fill="#1a1a1a"/>
        <path id="Trazado_608779" data-name="Trazado 608779" d="M177.874,122.181a.494.494,0,0,0,.494-.492v-9.825a.493.493,0,0,0-.986,0v9.825a.493.493,0,0,0,.492.492" transform="translate(-118.257 72.661)" fill="#1a1a1a"/>
        <path id="Trazado_608780" data-name="Trazado 608780" d="M152.824,122.226h43.558a.551.551,0,0,0,.525-.524v-9.825a.552.552,0,0,0-.525-.525H152.824a.552.552,0,0,0-.527.525.511.511,0,0,0,.669.459h42.953v8.907H152.966a.509.509,0,0,0-.669.459.551.551,0,0,0,.527.524" transform="translate(-95.345 72.648)" fill="#1a1a1a"/>
        <path id="Trazado_608781" data-name="Trazado 608781" d="M177.874,122.181a.494.494,0,0,0,.494-.492v-9.825a.493.493,0,0,0-.986,0v9.825A.493.493,0,0,0,177.874,122.181Z" transform="translate(-118.257 72.661)" fill="none" stroke="#000" stroke-linecap="round" stroke-linejoin="round" stroke-width="0.425"/>
        <path id="Trazado_608782" data-name="Trazado 608782" d="M152.824,122.226h43.558a.551.551,0,0,0,.525-.524v-9.825a.552.552,0,0,0-.525-.525H152.824a.552.552,0,0,0-.527.525.511.511,0,0,0,.669.459h42.953v8.907H152.966a.509.509,0,0,0-.669.459A.551.551,0,0,0,152.824,122.226Z" transform="translate(-95.345 72.648)" fill="none" stroke="#000" stroke-linecap="round" stroke-linejoin="round" stroke-width="0.425"/>
        <path id="Trazado_608783" data-name="Trazado 608783" d="M179.189,122.21h10.123a.492.492,0,1,0,0-.983h-9.629v-8.869h9.629a.492.492,0,1,0,0-.983H179.189a.493.493,0,0,0-.494.491v9.853a.493.493,0,0,0,.494.491" transform="translate(-131.864 72.663)" fill="#1a1a1a"/>
        <path id="Trazado_608784" data-name="Trazado 608784" d="M183.771,135.841a.494.494,0,0,0,.494-.492V117.83a.494.494,0,1,0-.988,0v17.519a.494.494,0,0,0,.494.492" transform="translate(-133.894 76.553)" fill="#1a1a1a"/>
        <path id="Trazado_608785" data-name="Trazado 608785" d="M144.64,140.9h36.01a.494.494,0,0,0,.494-.492V128.464a.5.5,0,0,0-.494-.494H144.64a.492.492,0,1,0,0,.985h35.515v10.959H144.64a.492.492,0,1,0,0,.985" transform="translate(-66.112 83.49)" fill="#1a1a1a"/>
        <path id="Trazado_608786" data-name="Trazado 608786" d="M178.982,161.543a.491.491,0,0,0,.492-.491V148.893a.493.493,0,0,0-.987,0v12.159a.493.493,0,0,0,.494.491" transform="translate(-121.19 96.82)" fill="#1a1a1a"/>
        <path id="Trazado_608787" data-name="Trazado 608787" d="M177.656,178.592H211.7a.492.492,0,1,0,0-.985H178.15V156.251a.494.494,0,0,0-.988,0V178.1a.494.494,0,0,0,.494.492" transform="translate(-151.721 101.621)" fill="#1a1a1a"/>
        <path id="Trazado_608788" data-name="Trazado 608788" d="M154.316,135.89a.492.492,0,0,0,.492-.491v-17.57a.493.493,0,0,0-.987,0V135.4a.494.494,0,0,0,.494.491" transform="translate(-55.766 76.553)" fill="#1a1a1a"/>
        <path id="Trazado_608789" data-name="Trazado 608789" d="M146.812,158a.494.494,0,0,0,.494-.492V135.689a.494.494,0,0,0-.988,0v21.819a.494.494,0,0,0,.494.492" transform="translate(-35.864 88.206)" fill="#1a1a1a"/>
        <path id="Trazado_608790" data-name="Trazado 608790" d="M64.666,186.09a.491.491,0,0,0,.489-.433l7.028-58.3a.491.491,0,0,0-.43-.547.5.5,0,0,0-.549.43l-7.028,58.3a.494.494,0,0,0,.43.549l.059,0" transform="translate(174.995 82.73)" fill="#1a1a1a"/>
        <path id="Trazado_608791" data-name="Trazado 608791" d="M72.754,163.107a.492.492,0,0,0,0-.985l-9.715-.035a.492.492,0,1,0,0,.983l9.715.036Z" transform="translate(176.621 105.749)" fill="#1a1a1a"/>
        <path id="Trazado_608792" data-name="Trazado 608792" d="M29.457,163.3a.492.492,0,0,0,0-.985l-22.746-.074a.492.492,0,0,0,0,.985l22.746.074Z" transform="translate(312.992 105.852)" fill="#1a1a1a"/>
        <path id="Trazado_608793" data-name="Trazado 608793" d="M11.77,191.206a.5.5,0,0,0,.491-.527L7.2,119.94a.459.459,0,0,0-.525-.456.493.493,0,0,0-.456.527l5.056,70.737a.49.49,0,0,0,.491.458" transform="translate(330.68 77.951)" fill="#1a1a1a"/>
        <path id="Trazado_608794" data-name="Trazado 608794" d="M14.184,190.553a.492.492,0,0,0,.492-.474l2.715-69.2a.492.492,0,0,0-.471-.512.477.477,0,0,0-.512.474l-2.715,69.2a.492.492,0,0,0,.473.511Z" transform="translate(313.204 78.529)" fill="#1a1a1a"/>
        <path id="Trazado_608795" data-name="Trazado 608795" d="M9.772,120.539l6.264-.071a.493.493,0,0,0,0-.986l-6.264.074a.492.492,0,0,0,0,.983" transform="translate(321.364 77.952)" fill="#1a1a1a"/>
        <path id="Trazado_608796" data-name="Trazado 608796" d="M55.613,77.866a5.357,5.357,0,0,0,4.619-2.479,3.662,3.662,0,0,0,.5-3.546,1.866,1.866,0,0,0-1.2-.93,4.224,4.224,0,0,0-3.024,1.034,3.662,3.662,0,0,1-2.057.552.492.492,0,0,0-.079.982,4.572,4.572,0,0,0,2.684-.714c.511-.34,1.57-1.046,2.257-.894a.92.92,0,0,1,.573.473,2.818,2.818,0,0,1-.486,2.513A4.441,4.441,0,0,1,55,76.848a.492.492,0,0,0-.1.98,7.066,7.066,0,0,0,.709.038" transform="translate(203.113 46.233)" fill="#1a1a1a"/>
        <path id="Trazado_608797" data-name="Trazado 608797" d="M176.3,135.89a.494.494,0,0,0,.494-.491v-17.57a.493.493,0,0,0-.986,0V135.4a.492.492,0,0,0,.492.491" transform="translate(-114.071 76.553)" fill="#1a1a1a"/>
        <path id="Trazado_608798" data-name="Trazado 608798" d="M67.693,109.4a41.951,41.951,0,0,0,38.4-27.25.331.331,0,0,0-.62-.235,41.291,41.291,0,0,1-37.793,26.825.33.33,0,0,0,.008.659" transform="translate(135.793 53.308)" fill="#1a1a1a"/>
        <path id="Trazado_608799" data-name="Trazado 608799" d="M106.182,84.652a.336.336,0,0,0,.327-.37A41.931,41.931,0,0,0,66.285,47.5a.329.329,0,1,0-.023.658,41.274,41.274,0,0,1,39.594,36.2.328.328,0,0,0,.327.288" transform="translate(137.745 30.993)" fill="#1a1a1a"/>
        <rect id="Rectángulo_347364" data-name="Rectángulo 347364" width="90.863" height="2.847" transform="translate(81.975 124.986)" fill="#1a1a1a"/>
        <rect id="Rectángulo_347365" data-name="Rectángulo 347365" width="90.863" height="2.847" transform="translate(81.975 114.222)" fill="#1a1a1a"/>
        <rect id="Rectángulo_347366" data-name="Rectángulo 347366" width="90.863" height="2.847" transform="translate(81.975 102.27)" fill="#1a1a1a"/>
        <path id="Trazado_608802" data-name="Trazado 608802" d="M187.685,99.364a.687.687,0,0,1,.56-.768c1.2-.415,2.4-.846,3.582-1.33a1.417,1.417,0,0,0,.674-.7c.494-1.145.944-2.31,1.373-3.482a1.116,1.116,0,0,0,0-.775c-.582-1.294-1.219-2.561-1.8-3.857a.809.809,0,0,1,.1-.719c.972-1.036,1.991-2.026,2.974-3.05a.585.585,0,0,1,.808-.131c1.228.608,2.464,1.2,3.713,1.76a1.243,1.243,0,0,0,.846.04q1.795-.647,3.551-1.39a1.321,1.321,0,0,0,.671-.618c.484-1.2.922-2.426,1.342-3.653.134-.395.292-.585.752-.573q2.06.05,4.119,0a.683.683,0,0,1,.765.565c.413,1.2.881,2.389,1.289,3.594a1.066,1.066,0,0,0,.77.737c1.132.392,2.252.836,3.341,1.337a1.074,1.074,0,0,0,1.061-.01c1.2-.606,2.429-1.163,3.634-1.766a.629.629,0,0,1,.869.152c.95.991,1.917,1.966,2.913,2.91a.666.666,0,0,1,.127.934c-.6,1.206-1.183,2.421-1.722,3.654a1.242,1.242,0,0,0,.023.892q.751,1.752,1.606,3.46a1.463,1.463,0,0,0,.692.687c1.279.487,2.581.922,3.883,1.347a.674.674,0,0,1,.57.757c-.03,1.372-.026,2.746,0,4.119a.625.625,0,0,1-.511.717c-1.327.426-2.652.869-3.954,1.365a1.449,1.449,0,0,0-.677.707c-.525,1.1-.96,2.254-1.509,3.346a1.183,1.183,0,0,0-.026,1.2c.568,1.14,1.087,2.305,1.654,3.447a.673.673,0,0,1-.147.93c-.993.947-1.968,1.917-2.912,2.912a.662.662,0,0,1-.927.134c-1.185-.587-2.391-1.13-3.576-1.719a1.052,1.052,0,0,0-1.061.026c-1.139.563-2.327,1.028-3.475,1.57a1.237,1.237,0,0,0-.587.613c-.487,1.305-.939,2.624-1.375,3.948a.641.641,0,0,1-.724.521c-1.372-.025-2.746-.028-4.118,0a.661.661,0,0,1-.754-.563c-.418-1.3-.866-2.6-1.353-3.88a1.348,1.348,0,0,0-.648-.651c-1.175-.549-2.365-1.061-3.566-1.547a1.186,1.186,0,0,0-.839-.017c-1.4.623-2.783,1.294-4.224,1.973-1.129-1.143-2.256-2.262-3.345-3.419a.827.827,0,0,1-.064-.729c.559-1.251,1.177-2.477,1.742-3.725a1.179,1.179,0,0,0,.055-.792c-.425-1.223-.876-2.437-1.367-3.635a1.308,1.308,0,0,0-.641-.654c-1.2-.486-2.426-.927-3.652-1.352a.641.641,0,0,1-.5-.73c.023-1.373.026-2.746,0-4.119m21.215,10.08a8.025,8.025,0,1,0-8.034-8.016,8,8,0,0,0,8.034,8.016" transform="translate(-187.685 52.269)" fill="#1a1a1a"/>
        <path id="Trazado_608803" data-name="Trazado 608803" d="M205.51,125.071c1.269-.028,2.611-.028,4.148,0a.9.9,0,0,0,.988-.707c.506-1.54.944-2.793,1.373-3.938a.953.953,0,0,1,.443-.459c.507-.24,1.023-.464,1.535-.687.643-.281,1.305-.568,1.947-.886a.785.785,0,0,1,.82-.026c.6.3,1.211.587,1.821.876.585.278,1.172.554,1.753.843a.933.933,0,0,0,1.248-.192c.9-.944,1.846-1.894,2.9-2.9a.937.937,0,0,0,.2-1.248c-.269-.545-.53-1.1-.79-1.652-.284-.6-.568-1.2-.864-1.795a.921.921,0,0,1,.028-.955c.309-.615.585-1.254.849-1.871.215-.5.428-.993.661-1.481a1.167,1.167,0,0,1,.527-.568c1.367-.522,2.76-.982,3.941-1.363a.892.892,0,0,0,.7-.982c-.025-1.535-.025-2.879,0-4.108a.943.943,0,0,0-.758-1.023c-1.233-.4-2.556-.841-3.87-1.34a1.221,1.221,0,0,1-.547-.554c-.567-1.137-1.105-2.3-1.6-3.449a.968.968,0,0,1-.023-.673c.592-1.352,1.229-2.657,1.717-3.644a.936.936,0,0,0-.183-1.253c-.912-.866-1.862-1.813-2.9-2.9a.892.892,0,0,0-1.188-.207c-.58.289-1.162.567-1.745.848-.633.3-1.264.6-1.889.919a.806.806,0,0,1-.825,0c-1.066-.489-2.2-.942-3.368-1.347a.794.794,0,0,1-.6-.565c-.21-.616-.433-1.229-.659-1.839-.215-.585-.428-1.168-.631-1.757a.951.951,0,0,0-.99-.75c-1.515.031-2.857.03-4.146,0a.952.952,0,0,0-1.018.755c-.5,1.479-.917,2.6-1.335,3.64a1.073,1.073,0,0,1-.524.471c-1.129.479-2.318.945-3.536,1.385a1.029,1.029,0,0,1-.644-.033c-1.129-.507-2.34-1.081-3.7-1.757a.845.845,0,0,0-1.124.188c-.423.438-.854.871-1.281,1.305-.572.577-1.143,1.153-1.7,1.747a1.068,1.068,0,0,0-.147,1.016c.3.674.618,1.34.934,2.006.292.616.585,1.229.864,1.851a.855.855,0,0,1-.007.57c-.519,1.406-.94,2.475-1.368,3.467a1.146,1.146,0,0,1-.527.559c-1.274.524-2.576.983-3.566,1.325a.955.955,0,0,0-.745,1.031c.026,1.289.026,2.634,0,4.108a.911.911,0,0,0,.689.995c1.436.5,2.591.924,3.639,1.347a1.016,1.016,0,0,1,.491.506c.459,1.117.9,2.3,1.362,3.62a.9.9,0,0,1-.046.588c-.264.587-.544,1.168-.82,1.75-.314.654-.626,1.312-.922,1.975a1.081,1.081,0,0,0,.116,1.029c.825.876,1.685,1.745,2.52,2.586l.828.836a4.5,4.5,0,0,0,1.363-.441c1.067-.507,2.112-1,3.166-1.474a.913.913,0,0,1,.626.02c1.277.519,2.439,1.021,3.553,1.542a1.094,1.094,0,0,1,.509.5c.459,1.21.9,2.474,1.348,3.865a.914.914,0,0,0,.978.752m2.024-.567c-.7,0-1.365.008-2,.023-.266,0-.383-.058-.487-.373-.449-1.4-.894-2.675-1.358-3.895a1.6,1.6,0,0,0-.787-.8c-1.122-.525-2.292-1.033-3.579-1.553a1.463,1.463,0,0,0-1.054-.012c-1.058.471-2.107.967-3.178,1.476l-.876.415-.692-.7c-.83-.838-1.692-1.707-2.512-2.578a.636.636,0,0,1-.013-.431c.294-.659.6-1.312.917-1.963.278-.585.557-1.17.825-1.761a1.425,1.425,0,0,0,.063-.991c-.461-1.329-.91-2.523-1.372-3.647a1.555,1.555,0,0,0-.791-.8c-1.056-.426-2.221-.858-3.667-1.358-.264-.091-.324-.178-.321-.469.026-1.481.026-2.831,0-4.126,0-.3.064-.4.378-.506,1-.344,2.307-.808,3.6-1.335a1.693,1.693,0,0,0,.821-.848c.431-1,.858-2.079,1.378-3.495a1.408,1.408,0,0,0-.007-.983c-.283-.625-.577-1.241-.871-1.861-.314-.663-.628-1.325-.927-1.994a.571.571,0,0,1,.045-.418c.552-.592,1.12-1.163,1.689-1.737.431-.436.861-.871,1.284-1.314.174-.182.25-.193.489-.076,1.37.679,2.586,1.258,3.723,1.766a1.527,1.527,0,0,0,1.051.048c1.229-.446,2.431-.915,3.566-1.4a1.6,1.6,0,0,0,.818-.77c.421-1.046.838-2.178,1.345-3.665.114-.33.218-.4.487-.39,1.3.033,2.649.035,4.129,0,.321,0,.393.064.5.382.2.593.418,1.18.635,1.766.223.608.445,1.215.654,1.828a1.32,1.32,0,0,0,.937.906c1.152.4,2.267.846,3.318,1.329a1.344,1.344,0,0,0,1.3-.015c.623-.314,1.251-.613,1.879-.914.585-.279,1.172-.562,1.753-.851.256-.131.35-.112.55.1,1.048,1.091,2,2.047,2.923,2.918.21.2.223.3.068.615-.491.99-1.132,2.305-1.727,3.663a1.507,1.507,0,0,0,.022,1.109c.5,1.163,1.041,2.33,1.614,3.477a1.723,1.723,0,0,0,.839.82c1.327.5,2.657.947,3.895,1.352.317.1.39.193.383.491-.03,1.236-.03,2.586,0,4.129,0,.288-.05.365-.322.451-1.188.383-2.589.848-3.967,1.373a1.7,1.7,0,0,0-.828.844c-.235.492-.453.995-.669,1.5-.263.61-.534,1.243-.836,1.841a1.444,1.444,0,0,0-.026,1.443c.294.592.577,1.188.856,1.786.261.555.525,1.112.8,1.662.144.289.127.4-.089.611-1.063,1.015-2.019,1.97-2.921,2.921-.2.216-.3.228-.61.076-.583-.289-1.173-.567-1.762-.848-.6-.284-1.211-.572-1.813-.869a1.33,1.33,0,0,0-1.3.025c-.628.312-1.284.6-1.92.876-.521.225-1.038.451-1.552.692a1.494,1.494,0,0,0-.724.765c-.431,1.152-.869,2.409-1.378,3.958-.091.276-.19.327-.459.334q-1.13-.02-2.133-.021m.068-13.191a8.315,8.315,0,0,0,5.871-14.171,8.3,8.3,0,1,0-5.874,14.171Zm-.068-16.05a7.8,7.8,0,0,1,5.552,2.265,7.754,7.754,0,0,1-5.484,13.238,7.752,7.752,0,0,1-.086-15.5Z" transform="translate(-184.055 53.133)" fill="#1a1a1a"/>
        <path id="Trazado_608804" data-name="Trazado 608804" d="M102.292,49.551H58.78A8.871,8.871,0,0,1,49.935,40.7V17.51A8.871,8.871,0,0,1,58.78,8.663h43.512a8.871,8.871,0,0,1,8.845,8.847V40.7a8.871,8.871,0,0,1-8.845,8.847" transform="translate(159.571 5.652)" fill="#e8e8e8"/>
        <path id="Trazado_608805" data-name="Trazado 608805" d="M47.76,26.867a6.14,6.14,0,1,0,6.14-6.14,6.14,6.14,0,0,0-6.14,6.14" transform="translate(214.263 13.523)" fill="#fff"/>
        <path id="Trazado_608806" data-name="Trazado 608806" d="M54.333,53.484c-4.78-.753-8.667-4.642-8.667-9.42v-22.8A8.676,8.676,0,0,1,54.333,12.6H97.45a8.675,8.675,0,0,1,8.665,8.665v22.8a8.676,8.676,0,0,1-8.665,8.667H72.9c0,.753,24.552.753,24.552.753a9.43,9.43,0,0,0,9.42-9.42v-22.8a9.431,9.431,0,0,0-9.42-9.42H54.333a9.433,9.433,0,0,0-9.422,9.42v22.8a9.432,9.432,0,0,0,9.422,9.42" transform="translate(172.14 7.727)" fill="#1a1a1a"/>
        <path id="Trazado_608807" data-name="Trazado 608807" d="M54.05,33.533a6.517,6.517,0,1,0-6.52-6.517,6.525,6.525,0,0,0,6.52,6.517m0-12.281a5.763,5.763,0,1,1-5.765,5.764,5.769,5.769,0,0,1,5.765-5.764" transform="translate(214.114 13.374)" fill="#1a1a1a"/>
        <path id="Trazado_608808" data-name="Trazado 608808" d="M58.695,22.31H91.533c0-.755-32.839-.755-32.839-.755-.377.587-.208.755,0,.755" transform="translate(165.07 14.063)" fill="#1a1a1a"/>
        <path id="Trazado_608809" data-name="Trazado 608809" d="M58.695,27.494H91.533c0-.755-32.839-.755-32.839-.755-.377.587-.208.755,0,.755" transform="translate(165.07 17.445)" fill="#1a1a1a"/>
        <path id="Trazado_608811" data-name="Trazado 608811" d="M163.768,24.739a3.61,3.61,0,0,0-5.1,0l-1.39,1.391a3.6,3.6,0,0,0,0,5.1L167.44,41.4a3.605,3.605,0,0,0,5.1,0l20.923-20.412a3.608,3.608,0,0,0,0-5.1l-1.391-1.393a3.607,3.607,0,0,0-5.1,0L169.99,30.962Z" transform="translate(-98.422 9.628)" fill="#fff"/>
        <path id="Trazado_608812" data-name="Trazado 608812" d="M169.7,40.57a3.9,3.9,0,0,1-2.783-1.155L156.757,29.251a3.937,3.937,0,0,1,0-5.569l1.39-1.39a3.931,3.931,0,0,1,5.57,0l5.992,5.992,16.746-16.247a3.937,3.937,0,0,1,5.565,0l1.393,1.393a3.946,3.946,0,0,1,0,5.567L172.487,39.419A3.907,3.907,0,0,1,169.7,40.57M160.931,21.8a3.259,3.259,0,0,0-2.317.96l-1.391,1.391a3.275,3.275,0,0,0,0,4.633l10.164,10.166a3.279,3.279,0,0,0,4.635,0l20.926-20.416a3.287,3.287,0,0,0,0-4.63l-1.393-1.393a3.281,3.281,0,0,0-4.635,0L169.935,28.987c-.464,0-6.687-6.228-6.687-6.228a3.259,3.259,0,0,0-2.317-.96" transform="translate(-98.822 7.968)" fill="#1a1a1a"/>
      </g>
    </g>
    <g id="Grupo_1016818" data-name="Grupo 1016818" transform="translate(1240.007 11629.028)">
      <path id="Trazado_608814" data-name="Trazado 608814" d="M64.652,69.869A29.111,29.111,0,1,1,35.541,40.758,29.11,29.11,0,0,1,64.652,69.869" transform="translate(-75.492 410.291)" fill="#ffce26"/>
      <path id="Trazado_608831" data-name="Trazado 608831" d="M29.477,87.464H25.944a7.955,7.955,0,0,1-7.951-7.942V69.855c6.5.8,12.912.8,18.689-1.043.746,1.043.746,10.71.746,10.71a7.957,7.957,0,0,1-7.951,7.942M19.1,70.063v9.459a6.842,6.842,0,0,0,6.839,6.834h3.533a6.843,6.843,0,0,0,6.839-6.834v-9.44a30.682,30.682,0,0,1-17.211-.02" transform="translate(-61.991 443.047)" fill="#1a1a1a"/>
      <path id="Trazado_608832" data-name="Trazado 608832" d="M38.9,102.774a30.446,30.446,0,1,1,9.275-1.444,30.311,30.311,0,0,1-9.275,1.444m0-59.8A29.349,29.349,0,1,0,68.244,72.319,29.38,29.38,0,0,0,38.9,42.974" transform="translate(-73.148 411.582)" fill="#1a1a1a"/>
      <path id="Trazado_608833" data-name="Trazado 608833" d="M39.351,74.178H17.434c0-1.11,21.917-1.11,21.917-1.11.555.863.308,1.11,0,1.11" transform="translate(-62.644 448.016)" fill="#1a1a1a"/>
      <path id="Trazado_608834" data-name="Trazado 608834" d="M39.351,76.719H17.434c0-1.11,21.917-1.11,21.917-1.11.555.863.308,1.11,0,1.11" transform="translate(-62.644 450.983)" fill="#1a1a1a"/>
      <path id="Trazado_608835" data-name="Trazado 608835" d="M39.351,71.638H17.434c0-1.11,21.917-1.11,21.917-1.11.555.863.308,1.11,0,1.11" transform="translate(-62.644 445.051)" fill="#1a1a1a"/>
      <path id="Trazado_608836" data-name="Trazado 608836" d="M39.351,74.178H17.434c0-1.11,21.917-1.11,21.917-1.11.555.863.308,1.11,0,1.11" transform="translate(-62.644 448.016)" fill="#1a1a1a"/>
      <path id="Trazado_608837" data-name="Trazado 608837" d="M14.694,71.172c-.329,0-.642-.009-.936-.022,1.823-1.032,4.368-1.1,6.032-2.56a6.481,6.481,0,0,0,1-1.1,9.252,9.252,0,0,1-1.973-1.881,8.884,8.884,0,0,1-1.73-6.572c.1-.8.832-3.975,2.467-4.868a1.846,1.846,0,0,1,1.712-.041c1.105.516,1.53,2.035,1.81,3.041a14.08,14.08,0,0,1,.583,4.062,13.369,13.369,0,0,1-1.355,5.9c2.339,1.292,5.558,1.877,9.886,1.756a18.975,18.975,0,0,0,6.223-1.069,10.277,10.277,0,0,0,4.979-3.8c-2.163-1.2-3.351-2.794-3.555-4.467a5.472,5.472,0,0,1,.546-3.019A3.724,3.724,0,0,1,42.5,54.442a2.049,2.049,0,0,1,1.923.275c1.463,1.084,1.524,4.043,1.524,4.624a9.518,9.518,0,0,1-.975,4.168c2.922,1.14,6.455,1.251,9.863,1.251a15.625,15.625,0,0,1-10.415-.275,11.324,11.324,0,0,1-5.621,4.37,20.141,20.141,0,0,1-6.581,1.14c-4.511.1-7.975-.516-10.491-1.916a7.586,7.586,0,0,1-1.207,1.348,8.754,8.754,0,0,1-5.827,1.745m5.748-16.133c-1.335.635-2.1,2.978-2.259,4.142A7.772,7.772,0,0,0,19.7,64.927a7.978,7.978,0,0,0,1.673,1.608,12.279,12.279,0,0,0,1.177-5.315,12.481,12.481,0,0,0-.47-3.512c-.293-1.058-.637-2.28-1.281-2.584a.821.821,0,0,0-.353-.087m22.8.4A2.66,2.66,0,0,0,41.388,57a4.393,4.393,0,0,0-.451,2.41,4.85,4.85,0,0,0,2.614,3.433,4.639,4.639,0,0,0,1.285-3.507c.007-1.409-.323-3.176-1.073-3.73a.849.849,0,0,0-.522-.171" transform="translate(-66.936 425.674)" fill="#1a1a1a"/>
      <path id="Trazado_608838" data-name="Trazado 608838" d="M0,84.362C-.345,83.377,21.81,65.343,21.81,65.343,22.508,66.2.353,84.236.353,84.236A.544.544,0,0,1,0,84.362" transform="translate(-83 438.997)" fill="#1a1a1a"/>
      <path id="Trazado_608839" data-name="Trazado 608839" d="M15.311,51.774c-.34-.117-12.282-9.42-12.282-9.42.683-.876,12.624,8.428,12.624,8.428-.015.919-.176.993-.342.993" transform="translate(-79.463 412.086)" fill="#1a1a1a"/>
    </g>
  </g>
</svg>
