<svg xmlns="http://www.w3.org/2000/svg" xmlns:xlink="http://www.w3.org/1999/xlink" width="365" height="172.417" viewBox="0 0 365 172.417">
  <defs>
    <clipPath id="clip-path">
      <rect id="Rectángulo_347393" data-name="Rectángulo 347393" width="55.991" height="56.11" fill="none"/>
    </clipPath>
  </defs>
  <g id="Grupo_1016840" data-name="Grupo 1016840" transform="translate(-915 -13542.101)">
    <rect id="Rectángulo_346998" data-name="Rectángulo 346998" width="365" height="57.51" rx="28.755" transform="translate(915 13657.008)" fill="#a3bfe4"/>
    <g id="Grupo_1016834" data-name="Grupo 1016834" transform="translate(178.45 -119.896)">
      <path id="Trazado_607797" data-name="Trazado 607797" d="M192.963,36.434A28.547,28.547,0,1,1,164.416,7.886a28.546,28.546,0,0,1,28.547,28.548" transform="translate(858.587 13679.617)" fill="#33ece0"/>
      <path id="Trazado_607802" data-name="Trazado 607802" d="M126.663,28.728h28.712V.016a28.032,28.032,0,0,0-20.836,8.958c-9.047,9.759-7.876,19.754-7.876,19.754" transform="translate(858.386 13679.447)" fill="#1a1a1a"/>
      <path id="Trazado_607855" data-name="Trazado 607855" d="M158.251,60.062a29.016,29.016,0,1,1,0-58.032.3.3,0,0,1,0,.609A28.407,28.407,0,1,0,173.679,54.9a.305.305,0,0,1,.332.512,28.9,28.9,0,0,1-15.76,4.649" transform="translate(858.443 13679.491)" fill="#1a1a1a"/>
      <path id="Trazado_607856" data-name="Trazado 607856" d="M186.115,35.078a.313.313,0,0,1-.3-.343,28.426,28.426,0,0,0-28.17-32.1.3.3,0,1,1,0-.609,29.05,29.05,0,0,1,29.017,29.017,29.4,29.4,0,0,1-.242,3.767.3.3,0,0,1-.3.266" transform="translate(859.052 13679.491)" fill="#1a1a1a"/>
      <path id="Trazado_607857" data-name="Trazado 607857" d="M158.251,31.35H129.538a.3.3,0,0,1,0-.609h28.408V2.333a.3.3,0,0,1,.609,0V31.046a.3.3,0,0,1-.3.3" transform="translate(858.443 13679.491)" fill="#1a1a1a"/>
    </g>
    <g id="Grupo_1016833" data-name="Grupo 1016833" transform="translate(-43.161 -100.3)">
      <rect id="Rectángulo_346988" data-name="Rectángulo 346988" width="113.539" height="76.238" transform="translate(1076.172 13722.226)" fill="#fff"/>
      <rect id="Rectángulo_346989" data-name="Rectángulo 346989" width="92.551" height="11.251" transform="translate(1092.824 13765.762)" fill="#1a1a1a"/>
      <rect id="Rectángulo_346990" data-name="Rectángulo 346990" width="113.625" height="9.487" transform="translate(1076.086 13713.072)" fill="#a3bfe4"/>
      <path id="Trazado_607798" data-name="Trazado 607798" d="M74.141,42.637l6.312,11.454a5.714,5.714,0,0,0,5.867,2.667l.773-.123,6.143,4.608,4.4-9.63-2.852-7.14a3.55,3.55,0,0,0,1.851-4.446,3.5,3.5,0,0,0-5.044-2.014,4.036,4.036,0,0,0-1.961,3.2h-.674a28.872,28.872,0,0,0-1.985-2.929c-.586-.614-1.732-1.583-2.526-1.319A51.989,51.989,0,0,0,79,40.509c-1.2.846-3.736,2.458-4.863,2.128" transform="translate(1043.767 13620.424)" fill="#fff"/>
      <path id="Trazado_607799" data-name="Trazado 607799" d="M77.377,127.637l-6.716,7.024s2.678,4.112,4.368,6.105,2.372,2.512,3.961,2.254a43.111,43.111,0,0,1,5.711-.068l5.091,3.461a1.963,1.963,0,0,0,1.757-.783,1.4,1.4,0,0,0-.257-1.921c-.334-.324-5.637-4.915-5.637-4.915l-2.856-3.7c-.068-.373,1.107.376,1.107.376s1.977,2.956,3.977,3.246,1.774-.85,1.522-1.353a42.03,42.03,0,0,0-4.283-5.973,7.472,7.472,0,0,0-3.375-2.184Z" transform="translate(1043.692 13622.39)" fill="#fff"/>
      <path id="Trazado_607800" data-name="Trazado 607800" d="M86.963,56.363S70.589,56.708,59.1,67.769,45.932,90.657,44.739,97.8s1.62,16.408,5.328,21.651,8.86,12.2,18.527,18.6c.335.209,10.661-10.169,10.661-10.169s-10.212-8.381-13.544-15.167-3.855-8.559-3.462-13.81,4.134-7.234,6.694-6.947l2.56.228h70.049s.363-15.2-8.3-23.4-17.974-12.806-30.511-13.654L97.634,92.192H93.993Z" transform="translate(1043.125 13620.819)" fill="#1a1a1a"/>
      <path id="Trazado_607801" data-name="Trazado 607801" d="M80.884,39.37c2.657-2.088,2.3-1.969,3.075-2.222s2.094-1.677,3.176-.756a24.01,24.01,0,0,1,2.883,3.742,4.175,4.175,0,0,1,1.647-1.9,2.633,2.633,0,0,1,3.762.421c1.16,1.3,1.708,3.461,1.034,4.331s-1.513,1.84-1.513,1.84l1.094,2.826s2.438-4.3,2.141-7.64c-.181-2.047-.648-3.591-3.642-7.682s-3.986-5.069-5.562-5.487-4.02-.31-4.578.105a15,15,0,0,1-2.488,2.136,5.761,5.761,0,0,1-3.737,1.352c-1.951.121-5.31,1.225-6.327,3.036a6.853,6.853,0,0,0-.613,6.437,4.93,4.93,0,0,0,3.089,2.948,19.807,19.807,0,0,0,6.558-3.49" transform="translate(1043.693 13620.201)" fill="#ffce26"/>
      <path id="Trazado_607803" data-name="Trazado 607803" d="M190.928,82.307H129.952a3.127,3.127,0,0,1-3.118-3.117V74.416a3.127,3.127,0,0,1,3.118-3.116h60.976a3.125,3.125,0,0,1,3.116,3.116V79.19a3.125,3.125,0,0,1-3.116,3.117" transform="translate(1044.908 13621.169)" fill="#fff"/>
      <path id="Trazado_607804" data-name="Trazado 607804" d="M134.9,91.39s-3.924-5.145-9.54-5.905-8.559.143-9.906,1.753-1.808,3.159-1.79,6.933,1.329,4.476,1.96,4.617,1.691-.457,1.761-2.114c0,0,.774,2.557,2.08,2.6s1.765-2.812,1.765-2.812.419,2.293,1.442,2.362,2.257-1.692,2.643-3.526a35.615,35.615,0,0,1,1.06-3.757Z" transform="translate(1044.623 13621.471)" fill="#fff"/>
      <path id="Trazado_607805" data-name="Trazado 607805" d="M116.957,86.49l-4.692-5.767.7-3.469-2.418-2.927-3.594-.453,2.609,3.107-.788,3.642-3.494.2L102.4,77.255v3.96l2.535,2.955,3.445-.246L114,90.63a6.6,6.6,0,0,1,1.071-2.672,4.713,4.713,0,0,1,1.887-1.468" transform="translate(1044.379 13621.225)" fill="#ffce26"/>
      <path id="Trazado_607806" data-name="Trazado 607806" d="M166.877,117.787s2.313-5.513,9.072-12.8,12.236-9.332,12.236-9.332.243,7.018-8.063,14.081-13.246,8.047-13.246,8.047" transform="translate(1045.775 13621.696)" fill="#fff"/>
      <path id="Trazado_607807" data-name="Trazado 607807" d="M164.8,117.992a33.469,33.469,0,0,0-1.873-12.234,16.074,16.074,0,0,0-6.869-7.932s-.271,4.507,2.805,10.6a56.8,56.8,0,0,0,5.936,9.571" transform="translate(1045.541 13621.744)" fill="#bbf1ed"/>
      <path id="Trazado_607808" data-name="Trazado 607808" d="M163.633,131.417a57.368,57.368,0,0,0-9.607-13.4A46.868,46.868,0,0,0,142,108.9s-.549,7.354,8.446,14.406,13.184,8.106,13.184,8.106" transform="translate(1045.237 13621.983)" fill="#bbf1ed"/>
      <path id="Trazado_607809" data-name="Trazado 607809" d="M167.542,128.972a99.739,99.739,0,0,1,10.967-8.925c4.99-3.283,13-5.891,13-5.891s.177,5.051-9.751,10.14c-8.443,4.33-14.213,4.676-14.213,4.676" transform="translate(1045.79 13622.097)" fill="#fff"/>
      <path id="Trazado_607810" data-name="Trazado 607810" d="M164.346,150.941s10.783-4.974,14.674-9.606,6.371-7.466,6.641-12.778a44.686,44.686,0,0,0-13.232,10.417c-6.677,7.452-8.082,11.967-8.082,11.967" transform="translate(1045.72 13622.409)" fill="#fff"/>
      <path id="Trazado_607811" data-name="Trazado 607811" d="M163.817,167.2a76.671,76.671,0,0,1,9.765-13.437,50.646,50.646,0,0,1,12.006-9.269s.945,6.106-7.385,13.587a47.9,47.9,0,0,1-14.387,9.119" transform="translate(1045.709 13622.754)" fill="#fff"/>
      <path id="Trazado_607812" data-name="Trazado 607812" d="M160.333,158.382s-7.491-6.8-9.576-11.962-3.956-9.07-1.883-15.338a34.153,34.153,0,0,1,7.607,11.905,76.64,76.64,0,0,1,3.852,15.394" transform="translate(1045.366 13622.463)" fill="#bbf1ed"/>
      <path id="Trazado_607813" data-name="Trazado 607813" d="M155.1,158.831s-3.972-8.166-9.309-13.1a104.451,104.451,0,0,0-12.337-9.44s-.378,7.6,8.148,14.4,13.5,8.145,13.5,8.145" transform="translate(1045.052 13622.576)" fill="#bbf1ed"/>
      <path id="Trazado_607814" data-name="Trazado 607814" d="M147.809,160.678a23.35,23.35,0,0,0-13.064-9.766A65.563,65.563,0,0,0,142,163.741c4.354,5.741,11.812,11.277,11.812,11.277.218,0-.761-6.336-6.006-14.34" transform="translate(1045.08 13622.894)" fill="#bbf1ed"/>
      <rect id="Rectángulo_346991" data-name="Rectángulo 346991" width="28.306" height="28.306" transform="translate(1052.641 13761.041)" fill="#fff198"/>
      <path id="Trazado_607815" data-name="Trazado 607815" d="M55.541,48.753a.851.851,0,0,0-.695-.952c-1.49-.515-2.975-1.047-4.432-1.645a1.754,1.754,0,0,1-.834-.871c-.611-1.416-1.167-2.858-1.7-4.305a1.392,1.392,0,0,1,0-.96c.719-1.6,1.51-3.169,2.224-4.77a1,1,0,0,0-.119-.892c-1.2-1.282-2.464-2.506-3.68-3.774a.724.724,0,0,0-1-.161c-1.518.753-3.049,1.485-4.594,2.178a1.533,1.533,0,0,1-1.047.047q-2.221-.8-4.4-1.718a1.633,1.633,0,0,1-.829-.765c-.6-1.489-1.14-3-1.66-4.521-.167-.487-.363-.724-.931-.71-1.7.042-3.4.039-5.1,0a.847.847,0,0,0-.947.7c-.512,1.489-1.089,2.957-1.595,4.447a1.32,1.32,0,0,1-.952.911c-1.4.486-2.788,1.035-4.135,1.654a1.329,1.329,0,0,1-1.314-.012c-1.489-.749-3.006-1.438-4.494-2.184a.778.778,0,0,0-1.077.187c-1.175,1.226-2.372,2.434-3.605,3.6a.823.823,0,0,0-.156,1.154c.739,1.494,1.463,2.994,2.131,4.52a1.55,1.55,0,0,1-.029,1.106q-.93,2.168-1.987,4.282a1.811,1.811,0,0,1-.858.849c-1.584.6-3.193,1.14-4.8,1.666a.833.833,0,0,0-.706.938c.038,1.7.033,3.4,0,5.094a.775.775,0,0,0,.632.889c1.644.528,3.281,1.076,4.894,1.689a1.8,1.8,0,0,1,.838.876c.651,1.366,1.187,2.79,1.867,4.14a1.464,1.464,0,0,1,.033,1.484c-.7,1.411-1.346,2.853-2.045,4.265a.831.831,0,0,0,.181,1.151q1.845,1.758,3.6,3.6a.823.823,0,0,0,1.149.166c1.466-.726,2.959-1.4,4.424-2.127a1.3,1.3,0,0,1,1.313.034c1.409.7,2.878,1.272,4.3,1.943a1.528,1.528,0,0,1,.725.757c.6,1.614,1.163,3.248,1.7,4.887a.791.791,0,0,0,.895.642c1.7-.03,3.4-.034,5.1,0a.817.817,0,0,0,.933-.695c.518-1.614,1.07-3.218,1.673-4.8a1.664,1.664,0,0,1,.8-.806c1.451-.678,2.925-1.313,4.412-1.915a1.472,1.472,0,0,1,1.038-.019c1.736.77,3.444,1.6,5.227,2.44,1.4-1.414,2.792-2.8,4.138-4.229a1.026,1.026,0,0,0,.082-.9c-.692-1.548-1.457-3.062-2.156-4.607a1.447,1.447,0,0,1-.067-.979c.525-1.514,1.082-3.017,1.691-4.5a1.6,1.6,0,0,1,.795-.81c1.488-.6,3-1.147,4.517-1.673a.8.8,0,0,0,.625-.9c-.031-1.7-.035-3.4,0-5.095M29.289,61.224a9.93,9.93,0,1,1,9.942-9.918,9.9,9.9,0,0,1-9.942,9.918" transform="translate(1042.21 13620.165)" fill="#fff"/>
      <rect id="Rectángulo_346992" data-name="Rectángulo 346992" width="21.599" height="21.599" transform="translate(1165.547 13732.214)" fill="#afafaf"/>
      <rect id="Rectángulo_346993" data-name="Rectángulo 346993" width="21.6" height="21.598" transform="translate(1125.91 13726.357)" fill="#33ece0"/>
      <path id="Trazado_607816" data-name="Trazado 607816" d="M79.509,46.892c1.211,2.1,1.245,4.344.076,5.019s-3.1-.478-4.308-2.576-1.245-4.344-.076-5.019,3.1.478,4.308,2.576" transform="translate(1043.772 13620.58)" fill="#fff"/>
      <path id="Trazado_607817" data-name="Trazado 607817" d="M79.468,46.862c1.1,1.9,1.32,3.825.5,4.3s-2.377-.681-3.476-2.581-1.319-3.825-.5-4.3,2.377.68,3.475,2.582" transform="translate(1043.797 13620.582)" fill="#ffce26"/>
      <path id="Trazado_607818" data-name="Trazado 607818" d="M85.566,43.5c1.1,1.9,1.32,3.826.5,4.3s-2.378-.68-3.477-2.581-1.319-3.825-.5-4.3,2.378.68,3.476,2.581" transform="translate(1043.929 13620.509)" fill="#ffce26"/>
      <rect id="Rectángulo_346994" data-name="Rectángulo 346994" width="5.33" height="16.632" transform="translate(1054.501 13764.62)" fill="#1a1a1a"/>
      <rect id="Rectángulo_346995" data-name="Rectángulo 346995" width="5.33" height="10.266" transform="translate(1063.342 13770.985)" fill="#fff"/>
      <rect id="Rectángulo_346996" data-name="Rectángulo 346996" width="5.331" height="6.641" transform="translate(1072.09 13774.61)" fill="#fff"/>
      <path id="Trazado_607819" data-name="Trazado 607819" d="M182.376,77.45a3.132,3.132,0,1,0,3.132-3.132,3.132,3.132,0,0,0-3.132,3.132" transform="translate(1046.111 13621.234)" fill="#ffce26"/>
      <path id="Trazado_607820" data-name="Trazado 607820" d="M92.863,60.727l-1.419,4.386,3.1,5.368L92.469,89.6l.508,2.475h3.641l2.176-14.941-1.45-6.651.421-1.7Z" transform="translate(1044.142 13620.94)" fill="#ffce26"/>
      <path id="Trazado_607821" data-name="Trazado 607821" d="M155.11,159.136h-.437c-22.82-10.651-21.575-22.393-21.511-22.887,14.574,6.85,22.146,22.295,22.223,22.45-.073.383-.171.437-.275.437m-21.36-22.359c.025,2.239,1.267,12.441,20.819,21.669-1.428-2.707-8.59-15.337-20.819-21.669" transform="translate(1045.045 13622.575)" fill="#1a1a1a"/>
      <path id="Trazado_607822" data-name="Trazado 607822" d="M164.169,167.3c-.53-.649,8.094-16.472,21.276-23.079.5.726,1.688,12.412-21.148,23.052a.313.313,0,0,1-.128.028m21.123-22.317c-11.393,5.929-19.269,18.764-20.892,21.569,19.544-9.22,20.854-19.333,20.892-21.569" transform="translate(1045.716 13622.748)" fill="#1a1a1a"/>
      <path id="Trazado_607823" data-name="Trazado 607823" d="M154.034,175.479a6.274,6.274,0,0,1-.806-.512C149.771,172.4,138.22,163.1,134.669,151c.473-.367,14.008,1.889,19.661,24.1-.177.362-.236.379-.3.379M135.4,151.32c3.734,11.886,15.576,21.212,18.121,23.108-5.041-18.715-15.716-22.487-18.121-23.108" transform="translate(1045.078 13622.895)" fill="#1a1a1a"/>
      <path id="Trazado_607824" data-name="Trazado 607824" d="M160.117,158.83c-17.268-16.871-11.744-27.45-11.5-27.892,10.126,9.96,11.792,24.59,12.029,27.421-.416.456-.472.471-.528.471m-11.14-27.2c-.8,2.045-3.493,11.883,11.022,26.353-.348-3.573-2.209-16.925-11.022-26.353" transform="translate(1045.358 13622.46)" fill="#1a1a1a"/>
      <path id="Trazado_607825" data-name="Trazado 607825" d="M163.639,131.723c-.124-.028-.814-.335-.814-.335-22.2-10.565-21.174-22.034-21.12-22.516,14.471,6.793,21.9,21.779,22.208,22.413-.114.406-.193.438-.274.438M142.305,109.4c.066,2.233,1.488,12.221,20.663,21.382-1.7-3.184-8.7-15.188-20.663-21.382" transform="translate(1045.23 13621.982)" fill="#1a1a1a"/>
      <path id="Trazado_607826" data-name="Trazado 607826" d="M164.651,118.045c-.32-.214-8.733-10.555-8.887-20.214.5-.257,9.66,3.29,9.344,19.738-.284.436-.369.476-.457.476M156.388,98.31c.367,8.125,6.51,16.652,8.117,18.749.1-13.541-6.376-17.84-8.117-18.749" transform="translate(1045.535 13621.743)" fill="#1a1a1a"/>
      <path id="Trazado_607827" data-name="Trazado 607827" d="M166.882,118.35a1.515,1.515,0,0,1-.2-1.027c1.947-3.672,9.146-15.8,21.374-21.931.493.727,1.532,12.321-21.044,22.928a.3.3,0,0,1-.129.03m.393-.886c19.137-9.1,20.554-19.073,20.619-21.307-11.752,6.086-18.712,17.76-20.619,21.307" transform="translate(1045.771 13621.691)" fill="#1a1a1a"/>
      <path id="Trazado_607828" data-name="Trazado 607828" d="M164.346,151.252c.332-2.122,7.819-16.266,21.178-22.961.5.726,1.535,12.324-21.049,22.931a.3.3,0,0,1-.129.03m21.022-22.2c-11.935,6.183-19.03,18.345-20.665,21.385,19.222-9.184,20.608-19.157,20.665-21.385" transform="translate(1045.72 13622.403)" fill="#1a1a1a"/>
      <path id="Trazado_607829" data-name="Trazado 607829" d="M167.8,129.448c-.369-.8,10.852-12.518,23.633-15.581.3.773-1.595,10.845-23.408,15.481-.16.1-.193.1-.225.1m23.273-14.864c-10.866,2.806-20.512,11.828-22.8,14.088,18.368-4,22.133-12.06,22.8-14.088" transform="translate(1045.795 13622.091)" fill="#1a1a1a"/>
      <path id="Trazado_607830" data-name="Trazado 607830" d="M159.268,183.2a.311.311,0,0,1-.3-.34l7.78-65.329a.316.316,0,0,1,.338-.268.305.305,0,0,1,.267.339l-7.78,65.329a.305.305,0,0,1-.3.269" transform="translate(1045.604 13622.165)" fill="#1a1a1a"/>
      <path id="Trazado_607831" data-name="Trazado 607831" d="M155.743,182.321a.306.306,0,0,1-.3-.29l-1.092-23.658a.3.3,0,0,1,.29-.318.283.283,0,0,1,.319.29L156.047,182a.3.3,0,0,1-.29.319Z" transform="translate(1045.504 13623.048)" fill="#1a1a1a"/>
      <path id="Trazado_607832" data-name="Trazado 607832" d="M153.859,181.936a.3.3,0,0,1-.3-.294l-.229-6.964a.3.3,0,1,1,.609-.019l.228,6.964a.3.3,0,0,1-.294.314Z" transform="translate(1045.482 13623.4)" fill="#1a1a1a"/>
      <path id="Trazado_607833" data-name="Trazado 607833" d="M163.1,182.113a.307.307,0,0,1-.3-.319l.745-15.329a.308.308,0,0,1,.32-.288.3.3,0,0,1,.289.319l-.745,15.328a.305.305,0,0,1-.3.289" transform="translate(1045.687 13623.224)" fill="#1a1a1a"/>
      <path id="Trazado_607834" data-name="Trazado 607834" d="M161.285,162.978a49.655,49.655,0,0,1-1.594-5.489.3.3,0,0,1,.223-.369.3.3,0,0,1,.368.223l1.3,5.257a.3.3,0,0,1-.223.369.308.308,0,0,1-.074.009" transform="translate(1045.62 13623.027)" fill="#1a1a1a"/>
      <path id="Trazado_607835" data-name="Trazado 607835" d="M162.6,153.944c-.284-.1-.348-.287-.274-.438l1.588-3.252a.311.311,0,0,1,.408-.14.305.305,0,0,1,.14.408l-1.589,3.252a.3.3,0,0,1-.273.171" transform="translate(1045.676 13622.875)" fill="#1a1a1a"/>
      <path id="Trazado_607836" data-name="Trazado 607836" d="M164.028,141.064a.3.3,0,0,1-.3-.278l-.848-9.813a.3.3,0,0,1,.277-.33.291.291,0,0,1,.33.277l.847,9.813a.3.3,0,0,1-.276.33h-.027" transform="translate(1045.689 13622.454)" fill="#1a1a1a"/>
      <path id="Trazado_607837" data-name="Trazado 607837" d="M165.894,125.354c-.3-.248-1.725-7.973-1.725-7.973a.3.3,0,1,1,.6-.111l1.425,7.724a.305.305,0,0,1-.243.356.359.359,0,0,1-.056.005" transform="translate(1045.717 13622.159)" fill="#1a1a1a"/>
      <path id="Trazado_607838" data-name="Trazado 607838" d="M164.752,135.863c-.274-.091-.345-.271-.279-.425l2.942-6.839a.3.3,0,1,1,.559.239l-2.942,6.841a.306.306,0,0,1-.28.184" transform="translate(1045.723 13622.406)" fill="#1a1a1a"/>
      <path id="Trazado_607839" data-name="Trazado 607839" d="M135.012,91.854c-.289-.187-4.184-5.708-11.595-6.335-4.439-.372-7.185.613-8.622,3.116a6.634,6.634,0,0,0-.68,2.1.3.3,0,0,1-.6-.105,7.136,7.136,0,0,1,.753-2.3c1.568-2.731,4.493-3.817,9.2-3.418a16.941,16.941,0,0,1,11.793,6.466.3.3,0,0,1-.079.423.3.3,0,0,1-.172.053" transform="translate(1044.62 13621.462)" fill="#1a1a1a"/>
      <path id="Trazado_607840" data-name="Trazado 607840" d="M119.508,99.5a1.635,1.635,0,0,1-.867-.264,3.057,3.057,0,0,1-1.2-1.745,2.771,2.771,0,0,1-.795,1.255,1.294,1.294,0,0,1-1.075.263c-1.979-.365-2.6-5.307-2.056-8.461a.3.3,0,0,1,.352-.247.3.3,0,0,1,.248.352c-.585,3.382.248,7.514,1.566,7.757a.685.685,0,0,0,.587-.144c.655-.512.913-2.09.972-2.792.021-.292.174-.427.333-.4a.306.306,0,0,1,.284.322c-.126,1.892.512,2.958,1.1,3.329a.9.9,0,0,0,.972.052c.816-.476,1-2.078,1-2.655a.3.3,0,0,1,.609-.01c.02.578.246,2.123,1.052,2.323a.826.826,0,0,0,.608-.151c.371-.231,1.647-1.285,2.483-5.144a21.588,21.588,0,0,1,1.175-4.287.305.305,0,0,1,.541.281,22.253,22.253,0,0,0-1.122,4.136c-.607,2.8-1.61,4.819-2.755,5.531a1.388,1.388,0,0,1-1.078.224,1.814,1.814,0,0,1-1.168-1.2,2.54,2.54,0,0,1-1.033,1.48,1.449,1.449,0,0,1-.736.2" transform="translate(1044.616 13621.545)" fill="#1a1a1a"/>
      <path id="Trazado_607841" data-name="Trazado 607841" d="M121.074,96.432a.311.311,0,0,1-.3-.34c.006-.047.564-4.687,1.1-7.576a.3.3,0,1,1,.6.11c-.534,2.87-1.091,7.492-1.1,7.538a.305.305,0,0,1-.3.268" transform="translate(1044.777 13621.536)" fill="#1a1a1a"/>
      <path id="Trazado_607842" data-name="Trazado 607842" d="M117.455,96.13a.311.311,0,0,1-.3-.341c.005-.046.563-4.688,1.1-7.576a.3.3,0,1,1,.6.111c-.534,2.869-1.09,7.492-1.1,7.538a.306.306,0,0,1-.3.268" transform="translate(1044.699 13621.53)" fill="#1a1a1a"/>
      <path id="Trazado_607843" data-name="Trazado 607843" d="M78.857,52.249a2.949,2.949,0,0,1-1.235-.3,7.085,7.085,0,0,1-3.669-5.764,2.716,2.716,0,0,1,.381-1.476,1.738,1.738,0,0,1,.534-.539,1.807,1.807,0,0,1,.994-.278c1.262,0,2.756,1.062,3.806,2.705a8.273,8.273,0,0,1,1.057,2.954c.029.143.027.716.027.716a2.023,2.023,0,0,1-.9,1.708,1.827,1.827,0,0,1-.994.276M75.862,44.5a1.225,1.225,0,0,0-.666.181,1.158,1.158,0,0,0-.349.355,2.159,2.159,0,0,0-.285,1.152A6.5,6.5,0,0,0,77.878,51.4a1.719,1.719,0,0,0,1.645.063,1.429,1.429,0,0,0,.621-1.22l.008-.49a7.993,7.993,0,0,0-1-2.824c-.926-1.451-2.249-2.425-3.292-2.425" transform="translate(1043.763 13620.576)" fill="#1a1a1a"/>
      <path id="Trazado_607844" data-name="Trazado 607844" d="M84.97,48.926c-1.29,0-2.792-1.046-3.827-2.669a6.426,6.426,0,0,1-1.065-3.13,2.477,2.477,0,0,1,.976-2.3,1.942,1.942,0,0,1,1.063-.3c1.29,0,2.793,1.048,3.828,2.67,1.4,2.188,1.435,4.576.09,5.435a1.951,1.951,0,0,1-1.065.3m-2.853-7.79a1.343,1.343,0,0,0-.736.2,1.905,1.905,0,0,0-.695,1.768,5.85,5.85,0,0,0,.972,2.827,4.606,4.606,0,0,0,3.312,2.387,1.34,1.34,0,0,0,.737-.2c1.023-.653.9-2.756-.277-4.594a4.608,4.608,0,0,0-3.313-2.387" transform="translate(1043.896 13620.503)" fill="#1a1a1a"/>
      <path id="Trazado_607845" data-name="Trazado 607845" d="M79.514,47.395c-.433-.624-.513-1.438.1-1.837a1.8,1.8,0,0,1,1.991.2.3.3,0,0,1-.379.477,1.2,1.2,0,0,0-1.282-.16c-.37.238-.15.914-.147.922a.3.3,0,0,1-.188.387.31.31,0,0,1-.1.016" transform="translate(1043.876 13620.606)" fill="#1a1a1a"/>
      <path id="Trazado_607846" data-name="Trazado 607846" d="M85.575,43.657c-.348-.291-.3-.479-.157-.565l3.689-2.221a.3.3,0,0,1,.314.523l-3.689,2.22a.311.311,0,0,1-.156.043" transform="translate(1044.009 13620.51)" fill="#1a1a1a"/>
      <path id="Trazado_607847" data-name="Trazado 607847" d="M81.963,51.479a1.54,1.54,0,0,1-.636-.131c-.877-.391-1.182-1.516-1.4-2.339-.324-1.189-.979-4.366-1.007-4.5a.305.305,0,0,1,.6-.123c.007.033.678,3.293.989,4.434.2.734.461,1.7,1.073,1.971a1.539,1.539,0,0,0,1.3-.182.3.3,0,0,1,.274.544,2.672,2.672,0,0,1-1.185.326" transform="translate(1043.871 13620.581)" fill="#1a1a1a"/>
      <path id="Trazado_607848" data-name="Trazado 607848" d="M114.64,91.779h-47.8a.3.3,0,0,1,0-.609h47.8a.3.3,0,0,1,0,.609" transform="translate(1043.603 13621.6)" fill="#1a1a1a"/>
      <path id="Trazado_607849" data-name="Trazado 607849" d="M33.211,108.231a.3.3,0,0,1-.3-.3V91.473a.3.3,0,0,1,.3-.3H45.857a.3.3,0,1,1,0,.609H33.516v16.148a.3.3,0,0,1-.3.3" transform="translate(1042.874 13621.6)" fill="#1a1a1a"/>
      <path id="Trazado_607850" data-name="Trazado 607850" d="M33.211,136.787a.3.3,0,0,1-.3-.3v-8.3a.3.3,0,1,1,.609,0v8.3a.3.3,0,0,1-.3.3" transform="translate(1042.874 13622.394)" fill="#1a1a1a"/>
      <path id="Trazado_607851" data-name="Trazado 607851" d="M146.837,175.6H33.211a.3.3,0,0,1-.3-.3V164.011a.3.3,0,1,1,.609,0v10.978H146.532v-8.472a.3.3,0,1,1,.609,0v8.776a.3.3,0,0,1-.3.3" transform="translate(1042.874 13623.17)" fill="#1a1a1a"/>
      <path id="Trazado_607852" data-name="Trazado 607852" d="M144.428,157.036a.3.3,0,0,1-.3-.3v-4a.3.3,0,1,1,.609,0v4a.3.3,0,0,1-.3.3" transform="translate(1045.283 13622.926)" fill="#1a1a1a"/>
      <path id="Trazado_607853" data-name="Trazado 607853" d="M144.428,145.295a.3.3,0,0,1-.3-.3v-28.4a.3.3,0,0,1,.609,0v28.4a.3.3,0,0,1-.3.3" transform="translate(1045.283 13622.144)" fill="#1a1a1a"/>
      <path id="Trazado_607854" data-name="Trazado 607854" d="M144.822,110.953a.3.3,0,0,1-.3-.3V91.779H126.266a.3.3,0,0,1,0-.61h18.555a.3.3,0,0,1,.3.305v19.174a.3.3,0,0,1-.3.3" transform="translate(1044.89 13621.6)" fill="#1a1a1a"/>
      <path id="Trazado_607858" data-name="Trazado 607858" d="M146.218,101.064H61.8a.3.3,0,0,1,0-.609h84.419a.3.3,0,1,1,0,.609" transform="translate(1043.493 13621.8)" fill="#1a1a1a"/>
      <path id="Trazado_607859" data-name="Trazado 607859" d="M44.636,101.064H33.211a.3.3,0,1,1,0-.609H44.636a.3.3,0,0,1,0,.609" transform="translate(1042.874 13621.8)" fill="#1a1a1a"/>
      <path id="Trazado_607860" data-name="Trazado 607860" d="M37.8,164.916H9.493a.3.3,0,0,1-.3-.305v-28.3a.3.3,0,0,1,.3-.3H37.8a.3.3,0,0,1,.3.3v28.3a.3.3,0,0,1-.3.305m-28-.61h27.7v-27.7H9.8Z" transform="translate(1042.361 13622.57)" fill="#1a1a1a"/>
      <path id="Trazado_607861" data-name="Trazado 607861" d="M17.379,158.859H12.084a.3.3,0,0,1-.3-.3V142.111a.3.3,0,0,1,.3-.3h5.294a.3.3,0,0,1,.3.3v16.444a.3.3,0,0,1-.3.3m-4.991-.609h4.686V142.416H12.388Z" transform="translate(1042.417 13622.696)" fill="#1a1a1a"/>
      <path id="Trazado_607862" data-name="Trazado 607862" d="M26.05,158.728h-5.3a.3.3,0,0,1-.3-.3V148.19a.3.3,0,0,1,.3-.3h5.3a.3.3,0,0,1,.3.3v10.233a.3.3,0,0,1-.3.3m-4.991-.609h4.686v-9.624H21.059Z" transform="translate(1042.605 13622.827)" fill="#1a1a1a"/>
      <path id="Trazado_607863" data-name="Trazado 607863" d="M34.718,158.649H29.423a.3.3,0,0,1-.3-.3v-6.517a.3.3,0,0,1,.3-.3h5.294a.305.305,0,0,1,.305.3v6.517a.3.3,0,0,1-.305.3m-4.99-.609h4.685v-5.907H29.728Z" transform="translate(1042.792 13622.906)" fill="#1a1a1a"/>
      <path id="Trazado_607864" data-name="Trazado 607864" d="M85.32,56.879a5.747,5.747,0,0,1-4.443-1.809A20.78,20.78,0,0,1,78.886,52.1a.3.3,0,0,1,.524-.309,20.661,20.661,0,0,0,1.925,2.874c2.091,2.392,6.333,1.908,8.981-.044,2.814-2.074,3.629-3.518,4.156-7.357a.31.31,0,0,1,.343-.261.305.305,0,0,1,.261.343c-.549,4-1.453,5.595-4.4,7.765a9.3,9.3,0,0,1-5.358,1.764" transform="translate(1043.869 13620.643)" fill="#1a1a1a"/>
      <path id="Trazado_607865" data-name="Trazado 607865" d="M75.089,44.628a9.623,9.623,0,0,1-1.076-1.746.3.3,0,1,1,.541-.277l.806,1.579a.3.3,0,0,1-.272.443" transform="translate(1043.764 13620.544)" fill="#1a1a1a"/>
      <path id="Trazado_607866" data-name="Trazado 607866" d="M96.172,48.09c-.281-.1-.346-.281-.276-.432,2.327-5,2.348-5.911,2.058-8.293-.283-2.334-1.759-4.407-3.322-6.6l-.466-.656c-1.553-2.188-3.02-4.256-4.958-4.856-2.19-.679-4.844-.186-5.018.234-.321.762-3.065,3.233-7.1,3.393-3.806.153-6.835,2.58-7.755,4.786a8.6,8.6,0,0,0,.7,6.3,6.051,6.051,0,0,0,4.525,3.114.3.3,0,0,1,.249.35.3.3,0,0,1-.35.25,6.721,6.721,0,0,1-4.957-3.42,9.145,9.145,0,0,1-.734-6.827c1.017-2.44,4.192-5,8.292-5.161,3.712-.147,6.318-2.444,6.558-3.02.424-1.009,3.744-1.2,5.761-.58,2.136.661,3.732,2.91,5.275,5.086l.465.655c1.539,2.16,3.129,4.392,3.433,6.882.3,2.46.279,3.484-2.111,8.621a.3.3,0,0,1-.277.177" transform="translate(1043.643 13620.195)" fill="#1a1a1a"/>
      <path id="Trazado_607867" data-name="Trazado 607867" d="M74.209,42.948a3.027,3.027,0,0,1-1.1-.2.3.3,0,0,1,.221-.568c1.918.741,4.612-1.277,6.986-3.06,1.905-1.431,3.545-2.672,4.718-2.451,1.7.313,2.6,1.9,3.256,3.061a8.891,8.891,0,0,0,.557.909c.285.38.428.39.441.39.152-.266.328-.344.483-.286a.3.3,0,0,1,.178.387.779.779,0,0,1-.571.5c-.33.046-.666-.156-1.019-.628a9.526,9.526,0,0,1-.6-.974c-.63-1.114-1.414-2.5-2.835-2.763-.916-.156-2.528,1.051-4.242,2.34-2.106,1.579-4.448,3.34-6.47,3.34" transform="translate(1043.74 13620.419)" fill="#1a1a1a"/>
      <path id="Trazado_607868" data-name="Trazado 607868" d="M97.207,51.592c-.282-.188-3.134-7.158-3.134-7.158a.3.3,0,1,1,.564-.231l2.852,6.969a.306.306,0,0,1-.166.4.339.339,0,0,1-.116.021" transform="translate(1044.198 13620.578)" fill="#1a1a1a"/>
      <path id="Trazado_607869" data-name="Trazado 607869" d="M68.933,138.267c-.428-.207-27.174-16.712-24.492-40.8,1.294-11.634,5.446-21.122,12.342-28.2a.3.3,0,0,1,.436.425c-6.8,6.981-10.894,16.35-12.172,27.845-2.517,22.6,21.379,38.473,23.841,40.043l9.915-9.964c-2.218-1.8-17.335-14.516-16.954-27.067.114-3.78,1.2-6.446,3.212-7.923A7.821,7.821,0,0,1,71.316,91.6a.3.3,0,0,1-.165.585,7.326,7.326,0,0,0-5.734.935c-1.854,1.362-2.85,3.867-2.959,7.447-.4,13.165,16.813,26.647,16.988,26.783.029.455-10.3,10.833-10.3,10.833a.307.307,0,0,1-.216.089" transform="translate(1043.12 13621.123)" fill="#1a1a1a"/>
      <path id="Trazado_607870" data-name="Trazado 607870" d="M69.275,61.129c-.346-.331-.279-.511-.127-.582A49.8,49.8,0,0,1,87.2,56.087a.3.3,0,1,1,.006.609A49.174,49.174,0,0,0,69.4,61.1a.316.316,0,0,1-.128.028" transform="translate(1043.656 13620.84)" fill="#1a1a1a"/>
      <path id="Trazado_607871" data-name="Trazado 607871" d="M139.522,91.915a.307.307,0,0,1-.3-.316,40.432,40.432,0,0,0-1.012-9.231.3.3,0,0,1,.231-.364.3.3,0,0,1,.363.231,41.093,41.093,0,0,1,1.028,9.387.306.306,0,0,1-.3.292" transform="translate(1045.154 13621.401)" fill="#1a1a1a"/>
      <path id="Trazado_607872" data-name="Trazado 607872" d="M134.607,71.961c-8.289-9.8-19.047-15.163-33.122-16.514a.306.306,0,0,1-.275-.332.3.3,0,0,1,.333-.275c14.243,1.367,25.137,6.8,33.3,16.621a.305.305,0,0,1-.234.5" transform="translate(1044.353 13620.813)" fill="#1a1a1a"/>
      <path id="Trazado_607873" data-name="Trazado 607873" d="M137.127,152.254H46.516a.3.3,0,0,1-.3-.3V140.494a.3.3,0,0,1,.3-.3h28.7a.3.3,0,1,1,0,.609H46.821v10.846h90.306a.3.3,0,0,1,0,.609" transform="translate(1043.163 13622.661)" fill="#1a1a1a"/>
      <path id="Trazado_607874" data-name="Trazado 607874" d="M137.1,151.683a.3.3,0,0,1-.3-.3v-5.537a.3.3,0,0,1,.609,0v5.537a.3.3,0,0,1-.3.3" transform="translate(1045.124 13622.777)" fill="#1a1a1a"/>
      <path id="Trazado_607875" data-name="Trazado 607875" d="M135.16,140.8H87.476a.3.3,0,0,1,0-.609H135.16a.3.3,0,0,1,0,.609" transform="translate(1044.05 13622.661)" fill="#1a1a1a"/>
      <path id="Trazado_607876" data-name="Trazado 607876" d="M92.923,45.12c-.427-.019-.554-.163-.543-.332A.309.309,0,0,1,92.7,44.5a3.3,3.3,0,1,0-3-2.552.305.305,0,0,1-.595.14,3.91,3.91,0,1,1,3.818,3.028" transform="translate(1044.089 13620.433)" fill="#1a1a1a"/>
      <path id="Trazado_607877" data-name="Trazado 607877" d="M91.619,42.716c-.3-.368.351-3.4.351-3.4a.3.3,0,0,1,.362-.233.3.3,0,0,1,.234.361L92,42.064l2.461-.261a.292.292,0,0,1,.335.271.3.3,0,0,1-.27.335l-2.88.3a.187.187,0,0,1-.033,0" transform="translate(1044.144 13620.472)" fill="#1a1a1a"/>
      <path id="Trazado_607878" data-name="Trazado 607878" d="M96.736,92.649a.313.313,0,0,1-.3-.346l5.1-36.958-4.033-3.7-4.229,9.417c-.456.123-6.512-4.251-6.512-4.251l-.6.031L93.4,92.221a.306.306,0,0,1-.238.36.3.3,0,0,1-.359-.237L85.484,56.616c.283-.366,1.35-.418,1.35-.418.194.057,6.033,4.274,6.033,4.274l4.248-9.459c.483-.1,4.945,3.991,4.945,3.991.1.266-5.02,37.383-5.02,37.383a.3.3,0,0,1-.3.263" transform="translate(1044.013 13620.73)" fill="#1a1a1a"/>
      <path id="Trazado_607879" data-name="Trazado 607879" d="M89.057,72.977c-.254-.066-.342-.238-.29-.4l3.864-11.944c.553-.058,7.078,11.182,7.078,11.182a.3.3,0,0,1-.527.305L93,61.473,89.347,72.766a.3.3,0,0,1-.289.21" transform="translate(1044.084 13620.938)" fill="#1a1a1a"/>
      <path id="Trazado_607880" data-name="Trazado 607880" d="M90.275,146.8a1.8,1.8,0,0,1-.572-.1,21.9,21.9,0,0,1-4.841-3.241,15.13,15.13,0,0,1-1.811.565,4.391,4.391,0,0,1-3.218-.613,2.542,2.542,0,0,1-1.744.255c-3.59-.87-7.527-8.544-7.693-8.87a.3.3,0,0,1,.544-.276c.039.077,3.974,7.749,7.293,8.553a1.949,1.949,0,0,0,1.458-.284.3.3,0,0,1,.407.047c.005.006.775.818,2.886.581a2.14,2.14,0,0,0,1.222-.557c.169-.14.423-.353.687-.155.061.046.183.143.352.279a23.393,23.393,0,0,0,4.652,3.138,1.079,1.079,0,0,0,1.277-.446,1.36,1.36,0,0,0,.116-1.521,22.816,22.816,0,0,0-2.331-2.106A35.321,35.321,0,0,1,85.7,139.1l-.638-.722c-1.614-1.82-2.6-2.967-2.633-3.546a.432.432,0,0,1,.259-.478c.418-.155,1.242.55,2.462,2.1,1.088,1.386,3.36,2.441,3.977,2.069.306-.986-.981-2.67-1.4-3.222-.241-.315-.491-.676-.76-1.064-1.216-1.752-2.729-3.932-5.3-4.737a19.963,19.963,0,0,1-4.173-1.6.3.3,0,0,1,.333-.511,20.551,20.551,0,0,0,4.022,1.535c2.773.865,4.418,3.239,5.619,4.971.264.377.509.731.745,1.04,1.313,1.718,1.819,2.749,1.692,3.449a.966.966,0,0,1-.45.659c-1.014.635-3.635-.75-4.779-2.208a13.754,13.754,0,0,0-1.387-1.552,33.19,33.19,0,0,0,2.233,2.693l.641.724a34.947,34.947,0,0,0,3.191,2.892,22.515,22.515,0,0,1,2.421,2.2,1.97,1.97,0,0,1-.1,2.248,1.7,1.7,0,0,1-1.4.767" transform="translate(1043.686 13622.383)" fill="#1a1a1a"/>
      <path id="Trazado_607881" data-name="Trazado 607881" d="M137.558,129.583H116.1a.3.3,0,0,1-.3-.3V107.82a.3.3,0,0,1,.3-.3h21.457a.3.3,0,0,1,.3.3v21.458a.3.3,0,0,1-.3.3m-21.152-.609h20.848V108.125H116.406Z" transform="translate(1044.669 13621.953)" fill="#1a1a1a"/>
      <path id="Trazado_607882" data-name="Trazado 607882" d="M100.078,129.583H84.435a.3.3,0,0,1,0-.609H99.774V108.125H78.926V123.11a.3.3,0,0,1-.61,0V107.82a.3.3,0,0,1,.3-.3h21.458a.3.3,0,0,1,.3.3v21.458a.3.3,0,0,1-.3.3" transform="translate(1043.858 13621.953)" fill="#1a1a1a"/>
      <path id="Trazado_607883" data-name="Trazado 607883" d="M57.151,129.583H40.8a.3.3,0,0,1-.3-.3V107.82a.3.3,0,0,1,.3-.3h3.017a.3.3,0,0,1,0,.609H41.1v20.849H57.151a.3.3,0,1,1,0,.609" transform="translate(1043.039 13621.953)" fill="#1a1a1a"/>
      <path id="Trazado_607884" data-name="Trazado 607884" d="M114,90.935c-.233-.107-5.675-6.565-5.675-6.565l-3.414.126c-.242-.107-2.744-3.02-2.744-3.02-.073-.213.092-4.039.092-4.039.54-.178,3.165,3.065,3.165,3.065l3.169-.182.742-3.085-2.723-3.16c.272-.5,4.067.019,4.067.019.2.109,2.616,3.089,2.616,3.089.061.257-.671,3.593-.671,3.593L117.2,86.3a.3.3,0,0,1-.47.388l-4.662-5.635c-.063-.26.668-3.6.668-3.6l-2.253-2.773-2.878-.394,2.3,2.668c.065.271-.766,3.728-.766,3.728a24.723,24.723,0,0,1-3.829.436c-.252-.112-2.469-2.851-2.469-2.851l-.125,2.9,2.326,2.711,3.416-.127c.244.108,5.784,6.68,5.784,6.68a.3.3,0,0,1-.234.5" transform="translate(1044.374 13621.224)" fill="#1a1a1a"/>
      <path id="Trazado_607885" data-name="Trazado 607885" d="M70.672,92.153a.3.3,0,0,1-.3-.272c-.521-4.931-.007-20.429,0-20.584a.313.313,0,0,1,.314-.3.307.307,0,0,1,.3.316c-.005.155-.518,15.611,0,20.5a.3.3,0,0,1-.27.335h-.033" transform="translate(1043.681 13621.163)" fill="#1a1a1a"/>
      <path id="Trazado_607886" data-name="Trazado 607886" d="M114.047,83.632a.308.308,0,0,1-.3-.327,86.761,86.761,0,0,0-.233-11.969.3.3,0,1,1,.607-.057,87.5,87.5,0,0,1,.233,12.072.3.3,0,0,1-.3.281" transform="translate(1044.62 13621.163)" fill="#1a1a1a"/>
      <path id="Trazado_607887" data-name="Trazado 607887" d="M29.955,76.22c-1.746-.037-3.442-.035-5.136,0a1.1,1.1,0,0,1-1.19-.85c-.629-1.915-1.168-3.463-1.7-4.876a1.227,1.227,0,0,0-.569-.587c-.627-.3-1.263-.574-1.9-.852-.792-.346-1.612-.7-2.4-1.094a.978.978,0,0,0-1.042-.033c-.739.367-1.485.72-2.231,1.073s-1.467.694-2.193,1.053a1.082,1.082,0,0,1-1.5-.228C8.979,68.654,7.772,67.444,6.5,66.228A1.123,1.123,0,0,1,6.25,64.72c.338-.68.661-1.368.986-2.057.348-.739.7-1.478,1.06-2.209a1.162,1.162,0,0,0-.032-1.212c-.382-.759-.723-1.551-1.053-2.316-.265-.613-.529-1.226-.815-1.83a1.5,1.5,0,0,0-.674-.721C4.011,53.723,2.3,53.159.846,52.693A1.067,1.067,0,0,1,0,51.509c.034-1.855.033-3.519,0-5.085a1.125,1.125,0,0,1,.916-1.232c1.794-.586,3.295-1.091,4.793-1.661a1.531,1.531,0,0,0,.693-.7c.688-1.373,1.354-2.809,1.98-4.264A1.262,1.262,0,0,0,8.41,37.7c-.7-1.6-1.469-3.179-2.126-4.508a1.117,1.117,0,0,1,.222-1.511c1.113-1.054,2.289-2.229,3.594-3.591a1.138,1.138,0,0,1,1.431-.25c.716.359,1.437.7,2.16,1.05.782.372,1.562.747,2.335,1.136a1,1,0,0,0,1.049.006c1.319-.6,2.72-1.164,4.164-1.664a1.02,1.02,0,0,0,.761-.72c.262-.765.539-1.524.818-2.283.265-.72.529-1.441.777-2.167a1.147,1.147,0,0,1,1.2-.905c1.788.037,3.438.043,5.13,0a1.15,1.15,0,0,1,1.228.916c.623,1.826,1.134,3.215,1.654,4.505a1.322,1.322,0,0,0,.664.6c1.428.6,2.9,1.181,4.379,1.712a1.291,1.291,0,0,0,.819-.04c1.385-.618,2.885-1.329,4.585-2.172a1.069,1.069,0,0,1,1.354.223c.524.547,1.057,1.086,1.591,1.624.7.711,1.409,1.423,2.093,2.154a1.289,1.289,0,0,1,.174,1.223c-.37.829-.76,1.649-1.149,2.469-.365.765-.728,1.529-1.075,2.3a1.1,1.1,0,0,0,.007.73c.622,1.693,1.161,3.057,1.693,4.289a1.446,1.446,0,0,0,.671.711c1.543.633,3.1,1.184,4.416,1.639a1.15,1.15,0,0,1,.9,1.247c-.033,1.615-.033,3.278,0,5.083a1.093,1.093,0,0,1-.831,1.2c-1.828.633-3.217,1.148-4.5,1.668a1.3,1.3,0,0,0-.624.642c-.567,1.381-1.12,2.848-1.687,4.483a1.145,1.145,0,0,0,.058.754c.33.729.673,1.452,1.02,2.174.385.809.77,1.617,1.135,2.435a1.305,1.305,0,0,1-.138,1.237c-1.044,1.11-2.138,2.212-3.2,3.28l-.946.953a6.274,6.274,0,0,1-1.706-.581c-1.323-.629-2.575-1.222-3.861-1.793a1.224,1.224,0,0,0-.8.023c-1.537.62-3.015,1.262-4.4,1.907a1.354,1.354,0,0,0-.645.64c-.564,1.475-1.108,3.04-1.67,4.785a1.1,1.1,0,0,1-1.177.908m-2.544-.636q1.252,0,2.506.027c.4,0,.509-.091.635-.484.564-1.756,1.114-3.333,1.68-4.816a1.963,1.963,0,0,1,.957-.975c1.39-.65,2.88-1.3,4.427-1.921a1.8,1.8,0,0,1,1.276-.016c1.293.575,2.548,1.17,3.875,1.8l1.164.55.794-.8c1.055-1.065,2.148-2.166,3.186-3.27a.786.786,0,0,0,.026-.57c-.364-.812-.746-1.616-1.129-2.421-.347-.725-.694-1.452-1.025-2.184A1.748,1.748,0,0,1,45.7,59.3c.572-1.645,1.127-3.122,1.7-4.514a1.916,1.916,0,0,1,.961-.977c1.3-.523,2.694-1.041,4.533-1.679.343-.119.426-.238.42-.609-.034-1.813-.033-3.484,0-5.108.007-.391-.089-.519-.489-.658-1.325-.458-2.89-1.012-4.447-1.651a2.05,2.05,0,0,1-1-1.032c-.537-1.245-1.079-2.617-1.706-4.322a1.7,1.7,0,0,1,.009-1.19c.348-.777.714-1.546,1.08-2.314.388-.815.776-1.633,1.144-2.457a.732.732,0,0,0-.063-.558c-.679-.726-1.38-1.433-2.081-2.142-.535-.54-1.071-1.081-1.6-1.631a44.528,44.528,0,0,0-5.249,2.084,1.877,1.877,0,0,1-1.275.057c-1.489-.535-2.971-1.116-4.409-1.726a1.92,1.92,0,0,1-.994-.932c-.522-1.3-1.036-2.7-1.663-4.536-.141-.41-.252-.5-.6-.5-1.783.045-3.448.041-5.149,0-.394,0-.521.1-.655.493-.249.729-.516,1.455-.783,2.179-.277.754-.554,1.508-.811,2.269a1.611,1.611,0,0,1-1.14,1.1c-1.425.5-2.809,1.047-4.109,1.644a1.6,1.6,0,0,1-1.577-.016c-.769-.389-1.547-.76-2.324-1.132-.726-.347-1.451-.694-2.169-1.054-.416-.1-.526-.075-.72.128-1.313,1.369-2.495,2.55-3.615,3.613-.275.256-.291.4-.094.8.66,1.336,1.43,2.92,2.136,4.533a1.827,1.827,0,0,1-.028,1.35c-.629,1.466-1.3,2.913-1.993,4.3a2.132,2.132,0,0,1-1.021,1c-1.509.572-3.018,1.081-4.82,1.669-.409.133-.5.26-.5.642.036,1.573.037,3.245,0,5.107-.005.369.074.48.422.594,1.457.468,3.181,1.036,4.907,1.693a2.117,2.117,0,0,1,1.006,1.03c.29.61.558,1.23.825,1.85.326.758.664,1.54,1.038,2.283a1.765,1.765,0,0,1,.033,1.757c-.363.727-.709,1.462-1.055,2.2-.325.692-.652,1.383-.99,2.068-.185.373-.162.529.119.8,1.283,1.224,2.5,2.44,3.613,3.616.193.2.311.229.392.229,1.13-.489,1.866-.838,2.6-1.187s1.485-.7,2.221-1.068a1.562,1.562,0,0,1,1.583.034c.777.384,1.591.739,2.377,1.082.643.28,1.284.559,1.919.859a1.834,1.834,0,0,1,.879.925c.532,1.421,1.074,2.976,1.706,4.9.113.343.231.432.57.432.9-.014,1.765-.023,2.633-.023m-.043-16.39A10.234,10.234,0,1,1,37.615,48.97,10.254,10.254,0,0,1,27.368,59.193m.08-20.163a10.011,10.011,0,0,0-9.692,9.916,9.626,9.626,0,1,0,9.714-9.613Z" transform="translate(1042.162 13620.108)" fill="#1a1a1a"/>
      <path id="Trazado_607888" data-name="Trazado 607888" d="M160.33,82.618H129.758A3.462,3.462,0,0,1,126.3,79.16v-4.7A3.463,3.463,0,0,1,129.758,71h4.305a.3.3,0,0,1,0,.609h-4.305a2.853,2.853,0,0,0-2.85,2.849v4.7a2.854,2.854,0,0,0,2.85,2.85H160.33a.3.3,0,1,1,0,.608" transform="translate(1044.897 13621.163)" fill="#1a1a1a"/>
      <path id="Trazado_607889" data-name="Trazado 607889" d="M190.744,82.618H175.67a.3.3,0,1,1,0-.608h15.075a2.854,2.854,0,0,0,2.85-2.85v-4.7a2.853,2.853,0,0,0-2.85-2.849H133.905a.3.3,0,1,1,0-.609h56.839A3.462,3.462,0,0,1,194.2,74.46v4.7a3.462,3.462,0,0,1-3.459,3.458" transform="translate(1045.055 13621.163)" fill="#1a1a1a"/>
      <path id="Trazado_607890" data-name="Trazado 607890" d="M178.127,181.788h-38.09a.3.3,0,0,1,0-.608h38.09a.3.3,0,1,1,0,.608" transform="translate(1045.188 13623.549)" fill="#1a1a1a"/>
      <path id="Trazado_607891" data-name="Trazado 607891" d="M83.893,53.4c-.347-.3-.3-.487-.148-.57l2.221-1.243a.3.3,0,1,1,.3.53l-2.221,1.244a.3.3,0,0,1-.148.039" transform="translate(1043.973 13620.741)" fill="#1a1a1a"/>
      <path id="Trazado_607892" data-name="Trazado 607892" d="M75.766,44.514c-.346-.334-.278-.514-.123-.582l1.556-.694a.305.305,0,0,1,.247.558l-1.557.692a.309.309,0,0,1-.124.027" transform="translate(1043.797 13620.561)" fill="#1a1a1a"/>
      <path id="Trazado_607893" data-name="Trazado 607893" d="M81.978,41.151c-.344-.357-.263-.532-.1-.589L83.4,40a.309.309,0,0,1,.39.181.3.3,0,0,1-.18.391l-1.529.562a.293.293,0,0,1-.105.018" transform="translate(1043.932 13620.491)" fill="#1a1a1a"/>
      <path id="Trazado_607894" data-name="Trazado 607894" d="M95.394,70.661H92.588a36.5,36.5,0,0,1-2-3.661.3.3,0,1,1,.546-.27l1.647,3.321h2.378l.884-3.571a.3.3,0,0,1,.591.146l-.941,3.8a.3.3,0,0,1-.3.231" transform="translate(1044.123 13621.061)" fill="#1a1a1a"/>
      <path id="Trazado_607895" data-name="Trazado 607895" d="M91.521,85.054a.309.309,0,0,1-.3-.327l1.051-14.474a.3.3,0,0,1,.326-.281.3.3,0,0,1,.281.326L91.825,84.771a.305.305,0,0,1-.3.283" transform="translate(1044.137 13621.141)" fill="#1a1a1a"/>
      <path id="Trazado_607896" data-name="Trazado 607896" d="M97.883,82.437c-.3-.24-2.884-12.1-2.884-12.1a.3.3,0,0,1,.6-.129l2.586,11.857a.3.3,0,0,1-.233.363.276.276,0,0,1-.064.007" transform="translate(1044.219 13621.141)" fill="#1a1a1a"/>
      <path id="Trazado_607897" data-name="Trazado 607897" d="M184.579,80.2a3.437,3.437,0,1,1,3.437-3.438,3.442,3.442,0,0,1-3.437,3.438m0-6.266a2.828,2.828,0,1,0,2.828,2.828,2.832,2.832,0,0,0-2.828-2.828" transform="translate(1046.084 13621.213)" fill="#1a1a1a"/>
      <path id="Trazado_607898" data-name="Trazado 607898" d="M179.272,75.056H132.027a.3.3,0,1,1,0-.608h47.244a.3.3,0,1,1,0,.608" transform="translate(1045.014 13621.237)" fill="#1a1a1a"/>
      <path id="Trazado_607899" data-name="Trazado 607899" d="M179.272,78.941H132.027a.3.3,0,0,1,0-.609h47.244a.3.3,0,0,1,0,.609" transform="translate(1045.014 13621.321)" fill="#1a1a1a"/>
      <path id="Trazado_607900" data-name="Trazado 607900" d="M66.985,160.3h-24.7a.3.3,0,1,1,0-.609h24.7a.3.3,0,0,1,0,.609" transform="translate(1043.071 13623.083)" fill="#1a1a1a"/>
      <path id="Trazado_607901" data-name="Trazado 607901" d="M66.985,165.435h-24.7a.3.3,0,1,1,0-.609h24.7a.3.3,0,0,1,0,.609" transform="translate(1043.071 13623.194)" fill="#1a1a1a"/>
      <path id="Trazado_607902" data-name="Trazado 607902" d="M136.447,160.3h-24.7a.3.3,0,1,1,0-.609h24.7a.3.3,0,0,1,0,.609" transform="translate(1044.575 13623.083)" fill="#1a1a1a"/>
      <path id="Trazado_607903" data-name="Trazado 607903" d="M136.447,165.435h-24.7a.3.3,0,1,1,0-.609h24.7a.3.3,0,0,1,0,.609" transform="translate(1044.575 13623.194)" fill="#1a1a1a"/>
      <path id="Trazado_607904" data-name="Trazado 607904" d="M101.472,160.3h-24.7a.3.3,0,0,1,0-.609h24.7a.3.3,0,1,1,0,.609" transform="translate(1043.818 13623.083)" fill="#1a1a1a"/>
      <path id="Trazado_607905" data-name="Trazado 607905" d="M101.472,165.435h-24.7a.3.3,0,0,1,0-.609h24.7a.3.3,0,0,1,0,.609" transform="translate(1043.818 13623.194)" fill="#1a1a1a"/>
      <path id="Trazado_607906" data-name="Trazado 607906" d="M84.492,143.025a20.693,20.693,0,0,1-4.119-4.252.3.3,0,1,1,.526-.308,24.32,24.32,0,0,0,3.792,4.025.3.3,0,0,1-.2.534" transform="translate(1043.901 13622.62)" fill="#1a1a1a"/>
      <path id="Trazado_607907" data-name="Trazado 607907" d="M79.743,143.1a14.964,14.964,0,0,1-3.57-3.648.3.3,0,0,1,.526-.308,17.2,17.2,0,0,0,3.234,3.415.3.3,0,0,1-.19.54" transform="translate(1043.81 13622.635)" fill="#1a1a1a"/>
    </g>
    <g id="Grupo_1016839" data-name="Grupo 1016839" transform="translate(950.619 13596.646)">
      <g id="Grupo_1016838" data-name="Grupo 1016838" clip-path="url(#clip-path)">
        <path id="Trazado_608844" data-name="Trazado 608844" d="M6.9,21.74c0-2.781.041-5.459-.016-8.135A4.69,4.69,0,0,1,8.4,9.92c2.889-2.821,5.722-5.7,8.556-8.576A4.06,4.06,0,0,1,20.021.072C27.341.066,34.66.024,41.979,0a5.954,5.954,0,0,1,1.095.072,2.3,2.3,0,0,1,1.907,2.218c.029.776.026,1.554.039,2.33,0,.017.024.034.093.129.733,0,1.523-.005,2.314,0A2.092,2.092,0,0,1,49.75,7.076q.011,4.6.012,9.2a3.53,3.53,0,0,1-.011.453,1.026,1.026,0,0,1-1.054.94,1.007,1.007,0,0,1-.994-.932,4.054,4.054,0,0,1-.012-.582q-.008-4.276-.014-8.552c0-.234,0-.468,0-.751H45c0,.263,0,.494,0,.724q.016,4.147.031,8.293c0,.151,0,.3,0,.453-.008.877-.373,1.37-1.021,1.381s-1.043-.482-1.049-1.35q-.023-3.6-.031-7.192c-.008-2.138-.019-4.276-.011-6.414,0-.437-.081-.687-.6-.684q-11.141.058-22.282.1a2.492,2.492,0,0,0-.319.052v.7c0,2.419-.062,4.84.021,7.256a2.388,2.388,0,0,1-2.733,2.7c-2.416-.078-4.836-.019-7.254-.019H9.037V26.165H9.79c6.564,0,13.128-.009,19.692.013a1.691,1.691,0,0,0,1.605-.841c.9-1.4,1.871-2.747,2.781-4.138a3.177,3.177,0,0,1,2.875-1.536c5.4.018,10.8.006,16.194.009a2.8,2.8,0,0,1,3.053,3.062q0,15.161,0,30.322a2.774,2.774,0,0,1-3.052,3.051q-24.939,0-49.878,0A2.772,2.772,0,0,1,0,53.063Q0,38.939,0,24.815a2.806,2.806,0,0,1,3.106-3.074c1.248,0,2.5,0,3.8,0m-4.831,6.5V52.721c0,1.256.069,1.326,1.317,1.326H39.464q6.671,0,13.342,0c.942,0,1.111-.166,1.111-1.077q0-15.094,0-30.187c0-.829-.207-1.041-1.023-1.041-5.375,0-10.751,0-16.127-.009a1.261,1.261,0,0,0-1.178.622c-.876,1.335-1.83,2.62-2.67,3.976a3.8,3.8,0,0,1-3.6,1.929c-4.619-.06-9.24-.021-13.859-.021H2.073M17.6,10.733V3.917l-6.893,6.816ZM6.915,23.815c-1.417,0-2.751-.006-4.085,0a.67.67,0,0,0-.742.653c-.033.549-.008,1.1-.008,1.64H6.915Z" transform="translate(0 0.001)"/>
        <path id="Trazado_608845" data-name="Trazado 608845" d="M72.267,98.833c-1.057,0-2.114.014-3.171,0a1.719,1.719,0,0,1-1.857-1.86q-.025-2.362,0-4.726A1.73,1.73,0,0,1,69.1,90.383q3.2-.019,6.407,0a1.745,1.745,0,0,1,1.863,1.867q.019,2.363,0,4.726A1.73,1.73,0,0,1,75.5,98.829c-1.078.018-2.157,0-3.236,0m2.987-6.343H69.339v4.237h5.915Z" transform="translate(-55.593 -74.734)"/>
        <path id="Trazado_608846" data-name="Trazado 608846" d="M145.532,68.5c-2.159,0-4.318,0-6.477,0-.71,0-1.145-.336-1.22-.905a1.047,1.047,0,0,1,1.155-1.162c1.9-.011,3.8,0,5.7,0q3.724,0,7.449,0c.711,0,1.144.334,1.221.9.089.665-.418,1.162-1.22,1.164-2.2.007-4.4,0-6.607,0" transform="translate(-113.974 -54.934)"/>
        <path id="Trazado_608847" data-name="Trazado 608847" d="M145.532,92.468c-2.159,0-4.318,0-6.477,0-.71,0-1.145-.337-1.22-.906A1.047,1.047,0,0,1,138.99,90.4c1.9-.011,3.8,0,5.7,0q3.724,0,7.449,0c.711,0,1.144.334,1.22.9.089.665-.418,1.161-1.221,1.164-2.2.007-4.4,0-6.607,0" transform="translate(-113.974 -74.75)"/>
        <path id="Trazado_608848" data-name="Trazado 608848" d="M143.016,42.471c1.315,0,2.63,0,3.945,0,.783,0,1.23.372,1.247,1,.018.657-.448,1.063-1.252,1.065q-3.912.007-7.825,0c-.813,0-1.287-.393-1.285-1.038s.473-1.029,1.29-1.032c1.293,0,2.587,0,3.88,0" transform="translate(-113.991 -35.12)"/>
        <path id="Trazado_608849" data-name="Trazado 608849" d="M205.689,42.468c.367,0,.735-.023,1.1.005a1.019,1.019,0,0,1,.976,1.016,1,1,0,0,1-.959,1.03c-.754.036-1.512.038-2.265,0a.978.978,0,0,1-.932-1.044,1,1,0,0,1,.979-1c.365-.026.733,0,1.1,0" transform="translate(-168.374 -35.111)"/>
        <path id="Trazado_608850" data-name="Trazado 608850" d="M218.088,153.744q-3.172,0-6.344,0a2.4,2.4,0,0,1-.7-.078,1.016,1.016,0,0,1,.189-1.975,4.432,4.432,0,0,1,.582-.016h12.559c.151,0,.3,0,.453,0a1.032,1.032,0,0,1,1.067.992,1.067,1.067,0,0,1-1.007,1.065,4.562,4.562,0,0,1-.517.01h-6.28" transform="translate(-173.938 -125.423)"/>
        <path id="Trazado_608851" data-name="Trazado 608851" d="M72.645,284.182q-2.652,0-5.3,0c-.881,0-1.359-.36-1.37-1.02s.473-1.051,1.336-1.051q5.434,0,10.869,0c.9,0,1.454.581,1.234,1.3a1.089,1.089,0,0,1-1.2.77c-1.855-.01-3.709,0-5.564,0" transform="translate(-54.554 -233.289)"/>
        <path id="Trazado_608852" data-name="Trazado 608852" d="M186.494,284.182c-1.814,0-3.627,0-5.441,0-.812,0-1.287-.4-1.281-1.046s.478-1.024,1.3-1.025q5.441,0,10.881,0c.811,0,1.288.4,1.281,1.044s-.481,1.024-1.3,1.026c-1.813,0-3.627,0-5.441,0" transform="translate(-148.662 -233.288)"/>
        <path id="Trazado_608853" data-name="Trazado 608853" d="M151.7,284.128c-.365,0-.732.021-1.095,0a1,1,0,0,1-.985-1.056.981.981,0,0,1,.975-1c.75-.03,1.5-.031,2.254,0a.992.992,0,0,1,.987,1.052,1,1,0,0,1-.977,1c-.385.028-.773.005-1.159.006" transform="translate(-123.732 -233.238)"/>
      </g>
    </g>
  </g>
</svg>
